<svg width="443" height="600" viewBox="0 0 443 600" fill="none" xmlns="http://www.w3.org/2000/svg">
<g clip-path="url(#clip0_1762_1856)">
<rect width="443" height="600" transform="translate(443 600) rotate(-180)" fill="url(#paint0_linear_1762_1856)" fill-opacity="0.6"/>
<path d="M57.7392 -33.8281C94.9711 -33.8281 125.25 -64.1223 125.25 -101.372C125.25 -134.224 151.992 -160.979 184.829 -160.979C222.06 -160.979 252.34 -191.273 252.34 -228.523C252.34 -261.393 279.082 -288.13 311.918 -288.13C321.69 -288.13 330.954 -290.233 339.343 -293.982L295.158 -293.982C266 -286.501 244.389 -259.991 244.389 -228.523C244.389 -195.654 217.647 -168.916 184.811 -168.916C147.579 -168.916 117.3 -138.622 117.3 -101.372C117.3 -68.5025 90.5579 -41.7652 57.7217 -41.7652C33.2915 -41.7652 11.8561 -28.7295 -2.03301e-06 -9.22843L-2.17724e-06 10.9735C6.61978 -14.7476 29.9817 -33.8281 57.7392 -33.8281Z" fill="#3F107D"/>
<path d="M109.174 29.7562L109.174 21.8016L61.7146 21.8016L61.7146 5.75225C74.9016 4.87619 86.9153 -0.292569 96.3721 -8.38735L90.6805 -13.9766C82.6947 -7.33606 72.6775 -3.06091 61.7146 -2.21989L61.7146 -25.6982L53.7638 -25.6982L53.7638 -2.21989C42.8009 -3.06091 32.7837 -7.33606 24.7979 -13.9766L19.1063 -8.38735C28.5807 -0.292569 40.5943 4.87619 53.7638 5.75225L53.7638 21.8016L6.30457 21.8016L6.30457 29.7562L53.7638 29.7562L53.7638 45.8056C40.5943 46.6817 28.5631 51.8504 19.1063 59.9452L24.7979 65.5345C32.7837 58.8939 42.8009 54.6188 53.7638 53.7778L53.7638 77.2561L61.7146 77.2561L61.7146 53.7778C72.6775 54.6188 82.6947 58.8939 90.6805 65.5345L96.3721 59.9452C86.8978 51.8504 74.8841 46.6817 61.7146 45.8056L61.7146 29.7562L109.174 29.7562Z" fill="#3F107D"/>
<path d="M133.411 29.7563L156.878 29.7563C156.038 40.7246 151.765 50.7467 145.127 58.7363L150.714 64.4307C158.805 54.9518 163.971 42.9322 164.847 29.7563L180.888 29.7563L180.888 77.2387L188.839 77.2387L188.839 29.7563L204.881 29.7563C205.756 42.9497 210.922 54.9693 219.013 64.4307L224.6 58.7363C217.962 50.7467 213.689 40.7246 212.849 29.7563L236.316 29.7563L236.316 21.8017L212.849 21.8017C213.689 10.8335 217.962 0.811335 224.6 -7.17832L219.013 -12.8727C210.922 -3.39375 205.756 8.62579 204.881 21.8017L188.839 21.8017L188.839 -25.6807L180.888 -25.6807L180.888 21.8017L164.847 21.8017C163.971 8.62579 158.805 -3.41127 150.714 -12.8727L145.127 -7.17832C151.765 0.811336 156.038 10.8335 156.878 21.8017L133.411 21.8017L133.411 29.7563Z" fill="#3F107D"/>
<path d="M260.501 21.8192L260.501 29.7738L307.96 29.7738L307.96 45.8232C294.773 46.6993 282.759 51.868 273.302 59.9628L278.994 65.5521C286.98 58.9115 296.997 54.6364 307.978 53.7953L307.978 77.2737L315.928 77.2737L315.928 53.7953C326.891 54.6364 336.908 58.9115 344.894 65.5521L350.586 59.9628C341.111 51.868 329.098 46.6993 315.928 45.8232L315.928 29.7738L363.388 29.7738L363.388 21.8192L315.928 21.8192L315.928 5.76982C329.098 4.89377 341.129 -0.274964 350.586 -8.36974L344.894 -13.959C336.908 -7.31848 326.891 -3.04333 315.928 -2.20231L315.928 -25.6807L307.978 -25.6807L307.978 -2.20231C297.015 -3.04333 286.997 -7.31848 278.994 -13.959L273.302 -8.36974C282.777 -0.274964 294.79 4.89377 307.96 5.76982L307.96 21.8192L260.501 21.8192Z" fill="#3F107D"/>
<path d="M442.79 77.2387L442.79 -25.6807L435.067 -25.6807L435.067 21.8017L429.953 21.8017L429.953 21.8192L419.025 21.8192C418.149 8.62578 412.983 -3.39374 404.892 -12.8727L399.323 -7.17832C405.961 0.828857 410.234 10.851 411.074 21.8192L387.607 21.8192L387.607 29.7563L411.074 29.7563C410.234 40.7421 405.961 50.7642 399.323 58.7538L404.892 64.4482C412.983 54.9693 418.149 42.9497 419.025 29.7563L435.067 29.7563L435.067 77.2387L442.79 77.2387Z" fill="#3F107D"/>
<path d="M109.174 148.988L61.7146 148.988L61.7146 132.938C74.9016 132.062 86.9153 126.893 96.3721 118.799L90.6805 113.209C82.6947 119.85 72.6775 124.125 61.7146 124.966L61.7146 101.488L53.7638 101.488L53.7638 124.966C42.8009 124.125 32.7837 119.85 24.7979 113.209L19.1063 118.799C28.5807 126.893 40.5943 132.062 53.7638 132.938L53.7638 148.988L6.30457 148.988L109.174 148.988Z" fill="#3F107D"/>
<path d="M236.263 156.925L212.796 156.925C213.637 167.893 217.91 177.915 224.547 185.922L218.978 191.617C210.887 182.138 205.721 170.118 204.845 156.925L188.804 156.925L188.804 204.407L180.871 204.407L180.871 156.925L164.829 156.925C163.953 170.118 158.787 182.138 150.696 191.617L145.11 185.922C151.747 177.915 156.038 167.893 156.861 156.925L133.394 156.925L133.394 148.988L156.878 148.988C156.038 138.002 151.765 127.98 145.127 119.99L150.696 114.296C158.787 123.775 163.953 135.794 164.829 148.988L180.871 148.988L180.871 101.488L188.804 101.488L188.804 148.988L204.845 148.988C205.721 135.794 210.887 123.775 218.978 114.296L224.565 119.99C217.91 127.98 213.637 138.002 212.796 148.988L236.263 148.988L236.263 156.925Z" fill="#3F107D"/>
<path d="M315.911 156.925L315.911 172.974C329.08 173.85 341.094 179.019 350.568 187.114L344.877 192.703C336.891 186.045 326.874 181.77 315.911 180.929L315.911 204.407L307.96 204.407L307.96 180.929C296.997 181.77 286.98 186.045 278.994 192.703L273.302 187.114C282.759 179.019 294.79 173.85 307.96 172.974L307.96 156.925L260.501 156.925L260.501 148.988L307.96 148.988L307.96 132.938C294.79 132.062 282.777 126.893 273.302 118.799L278.994 113.209C286.98 119.868 296.997 124.143 307.96 124.984L307.96 101.488L315.911 101.488L315.911 124.984C326.874 124.143 336.891 119.868 344.877 113.209L350.568 118.799C341.111 126.893 329.08 132.062 315.911 132.938L315.911 148.988L363.37 148.988L363.37 156.925L315.911 156.925Z" fill="#3F107D"/>
<path d="M443.017 148.988L443.017 156.925L443 156.925L443 204.407L435.067 204.407L435.067 156.925L419.025 156.925C418.149 170.118 412.983 182.138 404.892 191.617L399.323 185.922C405.961 177.933 410.234 167.893 411.074 156.925L387.607 156.925L387.607 148.988L411.074 148.988C410.234 138.002 405.961 127.98 399.323 119.99L404.892 114.296C412.983 123.775 418.149 135.794 419.025 148.988L429.953 148.988L429.953 148.97L435.067 148.97L435.067 101.488L442.79 101.488L442.79 148.988L443.017 148.988Z" fill="#3F107D"/>
<path d="M39.0006 96.3716C44.9024 94.4092 51.1894 93.3404 57.7391 93.3404C94.971 93.3404 125.25 63.0288 125.25 25.7788C125.25 -7.07338 151.992 -33.8282 184.846 -33.8282C222.078 -33.8282 252.357 -64.1223 252.357 -101.372C252.357 -134.242 279.099 -160.979 311.935 -160.979C349.167 -160.979 379.447 -191.291 379.447 -228.541C379.447 -258.327 401.407 -283.067 429.953 -287.447C432.913 -287.903 435.96 -288.148 439.042 -288.148C440.303 -288.148 441.546 -288.183 442.79 -288.253L442.79 -294L422.423 -294C393.211 -286.571 371.513 -260.044 371.513 -228.541C371.513 -195.671 344.789 -168.934 311.935 -168.934C274.703 -168.934 244.424 -138.622 244.424 -101.372C244.424 -68.5201 217.682 -41.7653 184.846 -41.7653C147.614 -41.7653 117.317 -11.4712 117.317 25.7788C117.317 58.6485 90.5929 85.4033 57.7391 85.4033C44.1668 85.4033 31.5227 89.4332 20.91 96.3716C12.4339 101.926 5.28876 109.337 0.0174531 118.01L0.017453 138.177C5.0611 118.501 19.8943 102.732 39.0006 96.3716Z" fill="#3F107D"/>
<path d="M442.79 -169.074L442.79 -161.102C441.546 -161.032 440.303 -160.979 439.042 -160.979C435.96 -160.979 432.913 -160.752 429.953 -160.296C401.407 -155.898 379.447 -131.141 379.447 -101.372C379.447 -64.1224 349.167 -33.8283 311.935 -33.8283C279.099 -33.8283 252.357 -7.07353 252.357 25.7787C252.357 63.0287 222.078 93.3403 184.846 93.3403C178.314 93.3403 172.027 94.4091 166.142 96.3715C143.639 103.835 127.019 124.388 125.391 148.988C125.303 150.302 125.25 151.616 125.25 152.947C125.25 190.197 94.971 220.509 57.7391 220.509C29.9991 220.509 6.61972 239.589 0.017453 265.311L0.0174531 245.091C11.8735 225.608 33.309 212.554 57.7391 212.554C90.5754 212.554 117.317 185.835 117.317 152.947C117.317 151.616 117.37 150.302 117.44 148.988L117.457 148.988C118.736 126.981 130.592 107.76 148.017 96.3715C158.612 89.4331 171.256 85.4032 184.846 85.4032C217.682 85.4032 244.424 58.6484 244.424 25.7787C244.424 -11.4713 274.703 -41.7654 311.935 -41.7654C344.789 -41.7654 371.513 -68.5202 371.513 -101.372C371.513 -135.539 397.012 -163.835 429.953 -168.303C432.93 -168.706 435.96 -168.934 439.042 -168.934C440.303 -168.934 441.546 -168.987 442.79 -169.074Z" fill="#3F107D"/>
<path d="M442.79 -41.9053L442.79 -33.9332C441.546 -33.8631 440.303 -33.828 439.042 -33.828C435.96 -33.828 432.913 -33.5827 429.953 -33.1272C401.407 -28.7469 379.447 -3.98949 379.447 25.779C379.447 63.029 349.167 93.3581 311.935 93.3581C305.403 93.3581 299.134 94.4269 293.249 96.3718C270.728 103.836 254.126 124.388 252.497 148.988C252.41 150.302 252.357 151.616 252.357 152.948C252.357 190.198 222.06 220.509 184.828 220.509C151.992 220.509 125.25 247.247 125.25 280.116C125.25 317.384 94.971 347.678 57.7391 347.678C29.9816 347.678 6.61972 366.741 0.017453 392.479L0.0174531 372.278C11.8735 352.777 33.309 339.723 57.7391 339.723C90.5754 339.723 117.317 312.986 117.317 280.116C117.317 242.866 147.597 212.555 184.828 212.555C217.682 212.555 244.424 185.835 244.424 152.948C244.424 151.616 244.477 150.302 244.547 148.988C245.825 126.981 257.699 107.761 275.106 96.3718C285.719 89.4509 298.363 85.4035 311.935 85.4035C344.789 85.4035 371.513 58.6662 371.513 25.779C371.513 -8.36978 397.012 -36.684 429.953 -41.1343L429.953 -41.1519C432.93 -41.5549 435.96 -41.7826 439.042 -41.7826C440.303 -41.7826 441.546 -41.8352 442.79 -41.9053Z" fill="#3F107D"/>
<path d="M109.174 156.925L109.174 148.988L6.30457 148.988L6.30457 156.925L53.7638 156.925L53.7638 172.974C40.5768 173.85 28.5631 179.019 19.1063 187.114L24.7979 192.703C32.7837 186.063 42.8009 181.787 53.7814 180.946L53.7814 204.425L61.7321 204.425L61.7321 180.946C72.695 181.787 82.7122 186.063 90.698 192.703L96.3896 187.114C86.9153 179.019 74.9016 173.85 61.7321 172.974L61.7321 156.925L109.174 156.925Z" fill="#3F107D"/>
<path d="M109.174 284.093L109.174 276.139L61.7146 276.139L61.7146 260.089C74.9016 259.213 86.9153 254.044 96.3721 245.95L90.6805 240.36C82.6947 247.001 72.6775 251.276 61.6971 252.117L61.6971 228.639L53.7463 228.639L53.7463 252.117C42.7834 251.276 32.7662 247.001 24.7629 240.36L19.0713 245.95C28.5456 254.044 40.5593 259.213 53.7288 260.089L53.7288 276.139L6.30457 276.139L6.30457 284.093L53.7638 284.093L53.7638 300.143C40.5768 301.019 28.5631 306.187 19.1063 314.282L24.7979 319.871C32.7837 313.231 42.8009 308.956 53.7814 308.115L53.7814 331.593L61.7321 331.593L61.7321 308.115C72.695 308.956 82.7122 313.231 90.7155 319.871L96.4071 314.282C86.9328 306.187 74.9191 301.019 61.7496 300.143L61.7496 284.093L109.174 284.093Z" fill="#3F107D"/>
<path d="M236.263 276.156L212.796 276.156C213.637 265.188 217.91 255.166 224.547 247.176L218.961 241.482C210.87 250.961 205.704 262.98 204.828 276.156L188.786 276.156L188.786 228.674L180.836 228.674L180.836 276.156L164.794 276.156C163.918 262.963 158.752 250.943 150.661 241.482L145.075 247.176C151.712 255.166 155.985 265.188 156.826 276.156L133.359 276.156L133.359 284.111L156.826 284.111C155.985 295.079 151.712 305.101 145.075 313.091L150.661 318.785C158.752 309.306 163.918 297.287 164.794 284.111L180.836 284.111L180.836 331.593L188.786 331.593L188.786 284.111L204.828 284.111C205.704 297.287 210.87 309.324 218.961 318.785L224.547 313.091C217.91 305.101 213.637 295.079 212.796 284.111L236.263 284.111L236.263 276.156Z" fill="#3F107D"/>
<path d="M363.37 284.093L363.37 276.139L315.911 276.139L315.911 260.089C329.098 259.213 341.111 254.044 350.568 245.95L344.877 240.36C336.891 247.001 326.874 251.276 315.911 252.117L315.911 228.639L307.96 228.639L307.96 252.117C296.997 251.276 286.98 247.001 278.994 240.36L273.302 245.95C282.777 254.044 294.79 259.213 307.96 260.089L307.96 276.139L260.501 276.139L260.501 284.093L307.96 284.093L307.96 300.143C294.773 301.019 282.759 306.187 273.302 314.282L278.994 319.871C286.98 313.231 296.997 308.956 307.96 308.115L307.96 331.593L315.911 331.593L315.911 308.115C326.874 308.956 336.891 313.231 344.877 319.871L350.568 314.282C341.094 306.187 329.08 301.019 315.911 300.143L315.911 284.093L363.37 284.093Z" fill="#3F107D"/>
<path d="M443 228.674L435.067 228.674L435.067 276.156L419.025 276.156C418.149 262.963 412.983 250.943 404.892 241.482L399.323 247.159C405.961 255.166 410.234 265.188 411.074 276.156L387.607 276.156L387.607 284.111L411.074 284.111C410.234 295.079 405.961 305.101 399.323 313.091L404.892 318.785C412.983 309.306 418.149 297.287 419.025 284.111L429.953 284.111L429.953 284.093L435.067 284.093L435.067 331.576L443 331.576L443 284.093L443.017 284.093L443.017 276.156L443 276.156L443 228.674Z" fill="#3F107D"/>
<path d="M109.174 411.262L109.174 403.308L61.7146 403.308L61.7146 387.258C74.8841 386.382 86.9153 381.213 96.3721 373.119L90.6805 367.529C82.6947 374.17 72.6775 378.445 61.7146 379.286L61.7146 355.808L53.7638 355.808L53.7638 379.286C42.8009 378.445 32.7837 374.17 24.7804 367.529L19.0888 373.119C28.5631 381.213 40.5768 386.382 53.7463 387.258L53.7463 403.308L6.30457 403.308L6.30457 411.262L53.7638 411.262L53.7638 427.311C40.5768 428.188 28.5631 433.356 19.1063 441.451L24.7979 447.04C32.7837 440.4 42.8009 436.125 53.7814 435.284L53.7814 458.762L61.7321 458.762L61.7321 435.284C72.695 436.125 82.7122 440.4 90.698 447.04L96.3896 441.451C86.9153 433.356 74.9016 428.188 61.7321 427.311L61.7321 411.262L109.174 411.262Z" fill="#3F107D"/>
<path d="M53.7638 585.913L61.7146 585.913L61.7146 562.434C72.6775 563.275 82.6947 567.551 90.698 574.191L96.3896 568.602C86.9153 560.507 74.9016 555.338 61.7321 554.462L61.7321 538.413L109.191 538.413L109.191 530.458L61.7321 530.458L61.7321 514.409C74.9191 513.533 86.9328 508.364 96.3896 500.269L90.698 494.68C82.7123 501.321 72.695 505.596 61.7146 506.437L61.7146 482.958L53.7638 482.958L53.7638 506.437C42.8009 505.596 32.7837 501.321 24.7804 494.68L19.0888 500.269C28.5631 508.364 40.5768 513.533 53.7463 514.409L53.7463 530.458L6.30457 530.458L6.30457 538.413L53.7638 538.413L53.7638 554.462C40.5768 555.338 28.5631 560.507 19.1063 568.602L24.7979 574.191C32.7837 567.551 42.8009 563.275 53.7814 562.434L53.7814 585.913L53.7638 585.913Z" fill="#3F107D"/>
<path d="M236.263 403.308L212.796 403.308C213.637 392.339 217.91 382.317 224.547 374.328L218.961 368.633C210.87 378.112 205.704 390.132 204.828 403.308L188.786 403.308L188.786 355.825L180.836 355.825L180.836 403.308L164.794 403.308C163.918 390.114 158.752 378.095 150.661 368.633L145.075 374.328C151.712 382.317 155.985 392.339 156.826 403.308L133.359 403.308L133.359 411.262L156.826 411.262C155.985 422.23 151.712 432.253 145.075 440.242L150.661 445.937C158.752 436.458 163.918 424.438 164.794 411.262L180.836 411.262L180.836 458.745L188.786 458.745L188.786 411.262L204.828 411.262C205.704 424.438 210.87 436.475 218.961 445.937L224.547 440.242C217.91 432.253 213.637 422.23 212.796 411.262L236.263 411.262L236.263 403.308Z" fill="#3F107D"/>
<path d="M260.501 403.308L260.501 411.262L307.96 411.262L307.96 427.311C294.773 428.188 282.759 433.356 273.302 441.451L278.994 447.04C286.98 440.4 296.997 436.125 307.96 435.284L307.96 458.762L315.911 458.762L315.911 435.284C326.874 436.125 336.891 440.4 344.877 447.04L350.568 441.451C341.094 433.356 329.08 428.188 315.911 427.311L315.911 411.262L363.37 411.262L363.37 403.308L315.911 403.308L315.911 387.258C329.098 386.382 341.111 381.213 350.568 373.119L344.877 367.529C336.891 374.17 326.874 378.445 315.911 379.286L315.911 355.808L307.96 355.808L307.96 379.286C296.997 378.445 286.98 374.17 278.994 367.529L273.302 373.119C282.777 381.213 294.79 386.382 307.96 387.258L307.96 403.308L260.501 403.308Z" fill="#3F107D"/>
<path d="M180.871 538.431L180.871 585.913L188.821 585.913L188.821 538.431L204.863 538.431C205.739 551.607 210.905 563.644 218.996 573.105L224.582 567.411C217.945 559.421 213.672 549.399 212.831 538.431L236.298 538.431L236.298 530.476L212.831 530.476C213.672 519.508 217.945 509.486 224.582 501.496L218.996 495.802C210.905 505.281 205.739 517.3 204.863 530.476L188.821 530.476L188.821 482.994L180.871 482.994L180.871 530.476L164.829 530.476C163.953 517.283 158.787 505.263 150.696 495.802L145.11 501.496C151.747 509.486 156.02 519.508 156.861 530.476L133.394 530.476L133.394 538.431L156.861 538.431C156.02 549.399 151.747 559.421 145.11 567.411L150.696 573.105C158.787 563.626 163.953 551.607 164.829 538.431L180.871 538.431Z" fill="#3F107D"/>
<path d="M307.96 585.913L315.911 585.913L315.911 562.434C326.874 563.275 336.891 567.551 344.877 574.191L350.568 568.602C341.094 560.507 329.08 555.338 315.911 554.462L315.911 538.413L363.37 538.413L363.37 530.458L315.911 530.458L315.911 514.409C329.098 513.533 341.111 508.364 350.568 500.269L344.877 494.68C336.891 501.321 326.874 505.596 315.911 506.437L315.911 482.958L307.96 482.958L307.96 506.437C296.997 505.596 286.98 501.321 278.994 494.68L273.302 500.269C282.777 508.364 294.79 513.533 307.96 514.409L307.96 530.458L260.501 530.458L260.501 538.413L307.96 538.413L307.96 554.462C294.773 555.338 282.759 560.507 273.302 568.602L278.994 574.191C286.98 567.551 296.997 563.275 307.96 562.434L307.96 585.913Z" fill="#3F107D"/>
<path d="M443 355.825L435.067 355.825L435.067 403.308L429.953 403.308L429.953 403.325L419.025 403.325C418.149 390.132 412.983 378.112 404.892 368.633L399.323 374.328C405.961 382.335 410.234 392.357 411.074 403.325L387.607 403.325L387.607 411.262L411.074 411.262C410.234 422.23 405.961 432.27 399.323 440.26L404.892 445.954C412.983 436.475 418.149 424.456 419.025 411.262L435.067 411.262L435.067 458.745L443 458.745L443 411.262L443.017 411.262L443.017 403.308L443 403.308L443 355.825Z" fill="#3F107D"/>
<path d="M443 482.994L435.067 482.994L435.067 530.476L419.025 530.476C418.149 517.3 412.983 505.281 404.892 495.802L399.323 501.496C405.961 509.486 410.234 519.508 411.074 530.476L387.607 530.476L387.607 538.431L411.074 538.431C410.234 549.399 405.961 559.421 399.323 567.428L404.892 573.105C412.983 563.644 418.149 551.624 419.025 538.431L435.067 538.431L435.067 585.913L443 585.913L443 538.431L443.017 538.431L443.017 530.476L443 530.476L443 482.994Z" fill="#3F107D"/>
<path d="M57.7391 474.846C94.971 474.846 125.25 444.552 125.25 407.302C125.25 374.415 151.992 347.678 184.828 347.678C222.06 347.678 252.357 317.384 252.357 280.134C252.357 247.264 279.082 220.527 311.935 220.527C349.167 220.527 379.447 190.215 379.447 152.965C379.447 151.633 379.499 150.302 379.587 148.988L379.604 148.988C381.215 124.388 397.817 103.836 420.339 96.3716C423.438 95.3378 426.643 94.5494 429.953 94.0413L429.953 94.0238C432.913 93.5682 435.96 93.3404 439.042 93.3404C440.303 93.3404 441.546 93.2879 442.79 93.2178L442.79 85.2632C441.546 85.3508 440.303 85.4033 439.042 85.4033C435.96 85.4033 432.93 85.6311 429.953 86.0341C419.813 87.4007 410.409 91.0101 402.213 96.3716C384.788 107.76 372.932 126.981 371.653 148.988C371.566 150.302 371.513 151.633 371.513 152.965C371.513 185.835 344.789 212.572 311.935 212.572C274.703 212.572 244.424 242.866 244.424 280.134C244.424 313.003 217.682 339.723 184.828 339.723C147.614 339.723 117.317 370.052 117.317 407.302C117.317 440.154 90.5754 466.909 57.7391 466.909C33.309 466.909 11.8735 479.945 0.0174531 499.446L0.017453 519.648C6.61972 493.909 29.9991 474.846 57.7391 474.846Z" fill="#3F107D"/>
<path d="M429.953 213.203C396.994 217.653 371.513 245.967 371.513 280.133C371.513 313.003 344.789 339.723 311.935 339.723C274.703 339.723 244.424 370.052 244.424 407.302C244.424 440.154 217.682 466.909 184.828 466.909C147.614 466.909 117.317 497.203 117.317 534.453C117.317 567.323 90.5754 594.078 57.7391 594.078C47.897 594.078 38.5628 596.198 30.1217 600L74.0434 600C103.412 592.693 125.25 566.079 125.25 534.453C125.25 501.601 151.992 474.846 184.828 474.846C222.06 474.846 252.357 444.552 252.357 407.302C252.357 374.415 279.082 347.677 311.935 347.677C349.167 347.677 379.446 317.383 379.446 280.133C379.446 250.347 401.39 225.607 429.953 221.21C432.913 220.737 435.942 220.509 439.042 220.509C440.373 220.509 441.704 220.456 443.017 220.386L443.017 212.414C441.704 212.502 440.373 212.572 439.042 212.572C435.96 212.572 432.93 212.8 429.953 213.203Z" fill="#3F107D"/>
<path d="M429.953 340.354C396.994 344.822 371.513 373.136 371.513 407.302C371.513 440.155 344.789 466.909 311.935 466.909C274.703 466.909 244.424 497.203 244.424 534.453C244.424 567.323 217.682 594.078 184.828 594.078C175.004 594.078 165.652 596.198 157.211 600L201.133 600C230.519 592.694 252.357 566.079 252.357 534.453C252.357 501.601 279.081 474.846 311.935 474.846C349.167 474.846 379.446 444.552 379.446 407.302C379.446 377.516 401.39 352.776 429.953 348.379C432.913 347.923 435.942 347.678 439.042 347.678C440.373 347.678 441.704 347.643 443.017 347.555L443.017 339.583C441.704 339.671 440.373 339.723 439.042 339.723C435.96 339.723 432.93 339.951 429.953 340.354Z" fill="#3F107D"/>
<path d="M429.953 467.522C396.994 471.99 371.513 500.287 371.513 534.453C371.513 567.323 344.789 594.078 311.935 594.078C302.093 594.078 292.759 596.198 284.318 600L328.24 600C357.608 592.694 379.447 566.079 379.447 534.453C379.447 504.685 401.39 479.927 429.953 475.547C432.913 475.092 435.942 474.846 439.042 474.846C440.373 474.846 441.704 474.794 443.018 474.724L443.018 466.751C441.704 466.839 440.373 466.892 439.042 466.892C435.96 466.892 432.93 467.119 429.953 467.522Z" fill="#3F107D"/>
<path d="M429.953 594.674L429.953 594.691C423.438 595.585 417.221 597.407 411.442 600L443.017 600L443.017 593.903C441.704 593.99 440.373 594.061 439.042 594.061C435.96 594.061 432.93 594.271 429.953 594.674Z" fill="#3F107D"/>
</g>
<defs>
<linearGradient id="paint0_linear_1762_1856" x1="221.5" y1="0" x2="221.5" y2="600" gradientUnits="userSpaceOnUse">
<stop stop-color="#2E006A"/>
<stop offset="1" stop-color="#2E006A" stop-opacity="0"/>
</linearGradient>
<clipPath id="clip0_1762_1856">
<rect width="443" height="600" fill="white" transform="translate(443 600) rotate(-180)"/>
</clipPath>
</defs>
</svg>
