<svg width="800" height="800" viewBox="0 0 800 800" fill="none" xmlns="http://www.w3.org/2000/svg">
<g clip-path="url(#clip0_20_465)">
<rect width="800" height="800" rx="15" fill="#5B2A98"/>
<path d="M937.541 0H0V799.953H937.541V0Z" fill="#2E006A"/>
<path d="M0 769.036V769.82C0.154323 769.695 0.308647 769.554 0.46297 769.412L0 769.036Z" fill="#3F107D"/>
<path d="M452.909 769.036V769.82C453.064 769.695 453.218 769.554 453.372 769.412L452.909 769.036Z" fill="#3F107D"/>
<path d="M0 634.911V656.108C9.02792 668.619 13.8698 682.886 13.8698 697.78C13.8698 712.658 9.02792 726.941 0 739.452V760.649C18.9239 743.277 29.2829 721.171 29.2829 697.78C29.2829 674.388 18.9239 652.282 0 634.911Z" fill="#3F107D"/>
<path d="M0 571.854V572.654C0.154323 572.513 0.308647 572.372 0.46297 572.231L0 571.854Z" fill="#3F107D"/>
<path d="M452.909 571.854V572.654C453.064 572.513 453.218 572.372 453.372 572.231L452.909 571.854Z" fill="#3F107D"/>
<path d="M0 625.739V626.539L0.46297 626.163C0.308647 626.021 0.154323 625.865 0 625.739Z" fill="#3F107D"/>
<path d="M452.909 625.739V626.539L453.372 626.163C453.218 626.021 453.064 625.865 452.909 625.739Z" fill="#3F107D"/>
<path d="M0 177.49V178.29C0.154323 178.149 0.308647 178.008 0.46297 177.867L0 177.49Z" fill="#3F107D"/>
<path d="M452.909 177.49V178.29C453.064 178.149 453.218 178.008 453.372 177.867L452.909 177.49Z" fill="#3F107D"/>
<path d="M0 231.375V232.175L0.46297 231.799C0.308647 231.658 0.154323 231.517 0 231.375Z" fill="#3F107D"/>
<path d="M452.909 231.375V232.175L453.372 231.799C453.218 231.658 453.064 231.517 452.909 231.375Z" fill="#3F107D"/>
<path d="M0 437.729V458.926C9.02792 471.437 13.8698 485.704 13.8698 500.598C13.8698 515.492 9.02792 529.759 0 542.27V563.466C18.9239 546.095 29.2829 523.989 29.2829 500.598C29.2829 477.206 18.9239 455.116 0 437.729Z" fill="#3F107D"/>
<path d="M0 428.558V429.357L0.46297 428.981C0.308647 428.84 0.154323 428.699 0 428.558Z" fill="#3F107D"/>
<path d="M452.909 428.558V429.357L453.372 428.981C453.218 428.84 453.064 428.699 452.909 428.558Z" fill="#3F107D"/>
<path d="M0 240.563V261.76C9.02792 274.271 13.8698 288.538 13.8698 303.432C13.8698 318.326 9.02792 332.593 0 345.088V366.285C18.9239 348.913 29.2829 326.808 29.2829 303.416C29.2829 280.024 18.9239 257.934 0 240.563Z" fill="#3F107D"/>
<path d="M0 374.672V375.471C0.154323 375.33 0.308647 375.189 0.46297 375.048L0 374.672Z" fill="#3F107D"/>
<path d="M452.909 374.672V375.471C453.064 375.33 453.218 375.189 453.372 375.048L452.909 374.672Z" fill="#3F107D"/>
<path d="M0 43.3809V64.5775C9.02792 77.0885 13.8698 91.3555 13.8698 106.25C13.8698 121.128 9.02792 135.411 0 147.922V169.118C18.9239 151.747 29.2829 129.641 29.2829 106.25C29.2829 82.8423 18.9239 60.7521 0 43.3809Z" fill="#3F107D"/>
<path d="M0 34.1938V34.9934L0.46297 34.6172C0.308647 34.4917 0.154323 34.3349 0 34.1938Z" fill="#3F107D"/>
<path d="M452.909 34.1938V34.9934L453.372 34.6172C453.218 34.4917 453.064 34.3349 452.909 34.1938Z" fill="#3F107D"/>
<path d="M72.3965 740.942L65.6448 735.454L66.9373 736.505C78.7045 726.941 85.1861 714.226 85.1861 700.696C85.1861 687.166 78.7045 674.451 66.9373 664.888L56.0382 673.746C64.8925 680.942 69.773 690.521 69.773 700.712C69.773 710.903 64.8925 720.466 56.0382 727.678L61.4781 732.099C39.3906 750.05 27.2183 773.912 27.2183 799.295C27.2183 799.514 27.2376 799.734 27.2376 799.953H42.6507C42.6507 799.734 42.6314 799.514 42.6314 799.295C42.6507 777.236 53.2218 756.525 72.3965 740.942Z" fill="#3F107D"/>
<path d="M525.306 740.942L518.554 735.454L519.847 736.505C531.614 726.941 538.095 714.226 538.095 700.696C538.095 687.166 531.614 674.451 519.847 664.888L508.948 673.746C517.802 680.942 522.682 690.521 522.682 700.712C522.682 710.903 517.802 720.466 508.948 727.678L514.387 732.099C492.3 750.05 480.128 773.912 480.128 799.295C480.128 799.514 480.147 799.734 480.147 799.953H495.56C495.56 799.734 495.541 799.514 495.541 799.295C495.56 777.236 506.131 756.525 525.306 740.942Z" fill="#3F107D"/>
<path d="M72.3999 660.451C53.2252 644.867 42.654 624.14 42.654 602.097C42.654 580.054 53.2059 559.343 72.3999 543.744L63.5841 536.579L66.96 539.323C78.7271 529.759 85.2087 517.044 85.2087 503.514C85.2087 489.984 78.7271 477.269 66.96 467.706L56.0609 476.564C64.9152 483.76 69.7957 493.339 69.7957 503.53C69.7957 513.72 64.9152 523.284 56.0609 530.496L61.5008 534.917C39.4132 552.868 27.241 576.73 27.241 602.113C27.241 627.495 39.4132 651.373 61.5008 669.309L72.3999 660.451Z" fill="#3F107D"/>
<path d="M525.306 660.451C506.132 644.867 495.561 624.14 495.561 602.097C495.561 580.054 506.112 559.343 525.306 543.744L516.491 536.579L519.866 539.323C531.634 529.759 538.115 517.044 538.115 503.514C538.115 489.984 531.634 477.269 519.866 467.706L508.967 476.564C517.822 483.76 522.702 493.339 522.702 503.53C522.702 513.72 517.822 523.284 508.967 530.496L514.407 534.917C492.32 552.868 480.147 576.73 480.147 602.113C480.147 627.495 492.32 651.373 514.407 669.309L525.306 660.451Z" fill="#3F107D"/>
<path d="M72.3999 463.269C53.2252 447.685 42.654 426.958 42.654 404.915C42.654 382.872 53.2059 362.161 72.3999 346.562L61.5008 337.704C39.4132 355.655 27.241 379.517 27.241 404.899C27.241 430.282 39.4132 454.16 61.5008 472.095L72.3999 463.269Z" fill="#3F107D"/>
<path d="M525.306 463.269C506.132 447.685 495.561 426.958 495.561 404.915C495.561 382.872 506.112 362.161 525.306 346.562L514.407 337.704C492.32 355.655 480.147 379.517 480.147 404.899C480.147 430.282 492.32 454.16 514.407 472.095L525.306 463.269Z" fill="#3F107D"/>
<path d="M56.0585 279.382C64.9128 286.578 69.7933 296.157 69.7933 306.348C69.7933 316.538 64.9128 326.102 56.0585 333.314L66.9576 342.172C78.7248 332.608 85.2064 319.894 85.2064 306.363C85.2064 292.833 78.7248 280.119 66.9576 270.555L63.9676 272.985L72.4168 266.118C53.2421 250.534 42.671 229.808 42.671 207.765C42.671 185.721 53.2228 165.011 72.4168 149.411L61.5177 140.553C39.4302 158.505 27.2579 182.366 27.2579 207.749C27.2579 233.132 39.4302 257.009 61.5177 274.945L56.0585 279.382Z" fill="#3F107D"/>
<path d="M508.965 279.382C517.819 286.578 522.7 296.157 522.7 306.348C522.7 316.538 517.819 326.102 508.965 333.314L519.864 342.172C531.631 332.608 538.113 319.894 538.113 306.363C538.113 292.833 531.631 280.119 519.864 270.555L516.874 272.985L525.323 266.118C506.149 250.534 495.577 229.808 495.577 207.765C495.577 185.721 506.129 165.011 525.323 149.411L514.424 140.553C492.337 158.505 480.164 182.366 480.164 207.749C480.164 233.132 492.337 257.009 514.424 274.945L508.965 279.382Z" fill="#3F107D"/>
<path d="M61.5008 77.7628L56.0609 82.1839C64.9152 89.3801 69.7957 98.9594 69.7957 109.15C69.7957 119.341 64.9152 128.904 56.0609 136.116L66.96 144.974C78.7271 135.411 85.2087 122.696 85.2087 109.166C85.2087 95.6356 78.7271 82.9208 66.96 73.3572L66.1883 73.9844L72.4192 68.9204C53.2252 53.3365 42.654 32.6102 42.654 10.567C42.654 7.00805 42.9627 3.48051 43.5028 0H27.974C27.511 3.48051 27.241 7.00805 27.241 10.567C27.2603 35.9496 39.4132 59.8272 61.5008 77.7628Z" fill="#3F107D"/>
<path d="M514.407 77.7628L508.967 82.1839C517.822 89.3801 522.702 98.9594 522.702 109.15C522.702 119.341 517.822 128.904 508.967 136.116L519.866 144.974C531.634 135.411 538.115 122.696 538.115 109.166C538.115 95.6356 531.634 82.9208 519.866 73.3572L519.095 73.9844L525.326 68.9204C506.132 53.3365 495.561 32.6102 495.561 10.567C495.561 7.00805 495.869 3.48051 496.409 0H480.88C480.418 3.48051 480.147 7.00805 480.147 10.567C480.167 35.9496 492.32 59.8272 514.407 77.7628Z" fill="#3F107D"/>
<path d="M112.27 769.412L106.83 764.991C128.918 747.04 141.09 723.178 141.09 697.795C141.09 672.413 128.918 648.551 106.83 630.6L112.27 626.178C93.9827 611.316 93.9827 587.125 112.27 572.262L101.371 563.404C77.065 583.158 77.065 615.282 101.371 635.036L104.998 632.089L95.9117 639.473C115.086 655.057 125.658 675.784 125.658 697.827C125.658 719.87 115.086 740.596 95.9117 756.18L102.451 761.495L101.371 760.617C88.0991 771.403 82.0998 785.874 83.3344 800H98.8246C97.5514 789.026 102.008 777.753 112.27 769.412Z" fill="#3F107D"/>
<path d="M565.179 769.412L559.739 764.991C581.827 747.04 593.999 723.178 593.999 697.795C593.999 672.413 581.827 648.551 559.739 630.6L565.179 626.178C546.892 611.316 546.892 587.125 565.179 572.262L554.28 563.404C529.974 583.158 529.974 615.282 554.28 635.036L557.907 632.089L548.821 639.473C567.996 655.057 578.567 675.784 578.567 697.827C578.567 719.87 567.996 740.596 548.821 756.18L555.361 761.495L554.28 760.617C541.008 771.403 535.009 785.874 536.244 800H551.734C550.461 789.026 554.917 777.753 565.179 769.412Z" fill="#3F107D"/>
<path d="M106.808 433.401L95.9085 442.259C115.083 457.843 125.654 478.57 125.654 500.613C125.654 522.656 115.083 543.382 95.9085 558.966L106.808 567.824C128.895 549.873 141.067 526.011 141.067 500.629C141.067 475.215 128.895 451.353 106.808 433.401Z" fill="#3F107D"/>
<path d="M559.72 433.402L548.821 442.26C567.995 457.844 578.567 478.57 578.567 500.613C578.567 522.657 567.995 543.383 548.821 558.967L559.72 567.825C581.807 549.874 593.98 526.012 593.98 500.629C593.98 475.215 581.807 451.353 559.72 433.402Z" fill="#3F107D"/>
<path d="M101.371 366.206C77.065 385.96 77.065 418.084 101.371 437.839L112.27 428.981C93.9827 414.118 93.9827 389.927 112.27 375.064L101.371 366.206Z" fill="#3F107D"/>
<path d="M554.28 366.206C529.974 385.96 529.974 418.084 554.28 437.839L565.179 428.981C546.892 414.118 546.892 389.927 565.179 375.064L554.28 366.206Z" fill="#3F107D"/>
<path d="M106.808 370.627C128.895 352.676 141.067 328.814 141.067 303.432C141.067 278.049 128.895 254.187 106.808 236.236L95.9085 245.094C115.083 260.678 125.654 281.404 125.654 303.447C125.654 325.491 115.083 346.217 95.9085 361.801L106.808 370.627Z" fill="#3F107D"/>
<path d="M559.72 370.627C581.807 352.676 593.98 328.814 593.98 303.432C593.98 278.049 581.807 254.187 559.72 236.236L548.821 245.094C567.995 260.678 578.567 281.404 578.567 303.447C578.567 325.491 567.995 346.217 548.821 361.801L559.72 370.627Z" fill="#3F107D"/>
<path d="M101.371 43.475L104.033 41.3115L95.931 47.8962C115.106 63.4801 125.677 84.2064 125.677 106.25C125.677 128.293 115.106 149.019 95.931 164.603L105.731 172.567L101.371 169.024C77.065 188.778 77.065 220.903 101.371 240.657L112.27 231.799C93.9827 216.936 93.9827 192.745 112.27 177.882L106.83 173.461C128.918 155.51 141.09 131.648 141.09 106.265C141.09 80.8827 128.918 57.0208 106.83 39.0695L112.27 34.6483C100.715 25.2259 96.4712 12.1348 99.5191 0H83.8745C81.0002 15.3801 86.826 31.6538 101.371 43.475Z" fill="#3F107D"/>
<path d="M554.28 43.475L556.942 41.3115L548.84 47.8962C568.015 63.4801 578.586 84.2064 578.586 106.25C578.586 128.293 568.015 149.019 548.84 164.603L558.64 172.567L554.28 169.024C529.974 188.778 529.974 220.903 554.28 240.657L565.179 231.799C546.892 216.936 546.892 192.745 565.179 177.882L559.739 173.461C581.827 155.51 593.999 131.648 593.999 106.265C593.999 80.8827 581.827 57.0208 559.739 39.0695L565.179 34.6483C553.624 25.2259 549.38 12.1348 552.428 0H536.784C533.91 15.3801 539.735 31.6538 554.28 43.475Z" fill="#3F107D"/>
<path d="M184.184 740.941L173.285 732.083C151.197 750.034 139.025 773.896 139.025 799.279C139.025 799.498 139.044 799.718 139.044 799.937H154.457C154.457 799.718 154.438 799.498 154.438 799.279C154.457 777.236 165.009 756.525 184.184 740.941Z" fill="#3F107D"/>
<path d="M637.093 740.941L626.194 732.083C604.107 750.034 591.934 773.896 591.934 799.279C591.934 799.498 591.954 799.718 591.954 799.937H607.367C607.367 799.718 607.347 799.498 607.347 799.279C607.367 777.236 617.919 756.525 637.093 740.941Z" fill="#3F107D"/>
<path d="M167.845 279.382C186.132 294.245 186.132 318.436 167.845 333.298L173.285 337.72C151.197 355.671 139.025 379.533 139.025 404.915C139.025 430.298 151.197 454.176 173.285 472.111L167.845 476.532C186.132 491.395 186.132 515.586 167.845 530.449L173.285 534.87C151.197 552.821 139.025 576.683 139.025 602.066C139.025 627.449 151.197 651.311 173.285 669.262L167.845 673.683C186.132 688.546 186.132 712.737 167.845 727.6L178.744 736.458C203.05 716.703 203.05 684.579 178.744 664.825L173.844 668.807L184.184 660.388C165.009 644.804 154.438 624.078 154.438 602.035C154.438 579.991 165.009 559.281 184.184 543.681L176.024 537.034L178.744 539.244C203.05 519.49 203.05 487.366 178.744 467.612L177.027 469.007L184.184 463.175C165.009 447.591 154.438 426.865 154.438 404.821C154.438 382.778 165.009 362.067 184.184 346.468L176.024 339.82L178.744 342.031C203.05 322.277 203.05 290.153 178.744 270.398L176.024 272.609L184.184 265.961C165.009 250.378 154.438 229.651 154.438 207.608C154.438 185.565 165.009 164.854 184.184 149.255L173.844 140.836L178.744 144.818C203.05 125.063 203.05 92.9393 178.744 73.1851L167.845 82.0431C186.132 96.9058 186.132 121.097 167.845 135.96L173.285 140.381C151.197 158.332 139.025 182.194 139.025 207.577C139.025 232.959 151.197 256.821 173.285 274.772L167.845 279.382Z" fill="#3F107D"/>
<path d="M620.754 279.382C639.042 294.245 639.042 318.436 620.754 333.298L626.194 337.72C604.107 355.671 591.934 379.533 591.934 404.915C591.934 430.298 604.107 454.176 626.194 472.111L620.754 476.532C639.042 491.395 639.042 515.586 620.754 530.449L626.194 534.87C604.107 552.821 591.934 576.683 591.934 602.066C591.934 627.449 604.107 651.311 626.194 669.262L620.754 673.683C639.042 688.546 639.042 712.737 620.754 727.6L631.653 736.458C655.959 716.703 655.959 684.579 631.653 664.825L626.754 668.807L637.093 660.388C617.919 644.804 607.347 624.078 607.347 602.035C607.347 579.991 617.919 559.281 637.093 543.681L628.933 537.034L631.653 539.244C655.959 519.49 655.959 487.366 631.653 467.612L629.936 469.007L637.093 463.175C617.919 447.591 607.347 426.865 607.347 404.821C607.347 382.778 617.919 362.067 637.093 346.468L628.933 339.82L631.653 342.031C655.959 322.277 655.959 290.153 631.653 270.398L628.933 272.609L637.093 265.961C617.919 250.378 607.347 229.651 607.347 207.608C607.347 185.565 617.919 164.854 637.093 149.255L626.754 140.836L631.653 144.818C655.959 125.063 655.959 92.9393 631.653 73.1851L620.754 82.0431C639.042 96.9058 639.042 121.097 620.754 135.96L626.194 140.381C604.107 158.332 591.934 182.194 591.934 207.577C591.934 232.959 604.107 256.821 626.194 274.772L620.754 279.382Z" fill="#3F107D"/>
<path d="M173.305 77.7784L184.204 68.9204C165.01 53.3365 154.458 32.6102 154.458 10.567C154.458 7.00806 154.767 3.48051 155.307 0H139.798C139.335 3.48051 139.065 7.00806 139.065 10.567C139.045 35.9496 151.218 59.8272 173.305 77.7784Z" fill="#3F107D"/>
<path d="M626.212 77.7784L637.111 68.9204C617.917 53.3365 607.365 32.6102 607.365 10.567C607.365 7.00806 607.674 3.48051 608.214 0H592.704C592.241 3.48051 591.971 7.00806 591.971 10.567C591.952 35.9496 604.124 59.8272 626.212 77.7784Z" fill="#3F107D"/>
<path d="M224.059 769.413L213.16 760.555C199.888 771.341 193.889 785.812 195.123 799.938H210.613C209.34 789.026 213.796 777.753 224.059 769.413Z" fill="#3F107D"/>
<path d="M676.968 769.413L666.069 760.555C652.797 771.341 646.798 785.812 648.032 799.938H663.523C662.249 789.026 666.706 777.753 676.968 769.413Z" fill="#3F107D"/>
<path d="M207.721 639.441C226.896 655.025 237.467 675.752 237.467 697.795C237.467 719.838 226.896 740.564 207.721 756.148L218.62 765.006C240.707 747.055 252.88 723.193 252.88 697.811C252.88 672.428 240.707 648.566 218.62 630.615L207.721 639.441Z" fill="#3F107D"/>
<path d="M660.627 639.441C679.802 655.025 690.373 675.752 690.373 697.795C690.373 719.838 679.802 740.564 660.627 756.148L671.526 765.006C693.614 747.055 705.786 723.193 705.786 697.811C705.786 672.428 693.614 648.566 671.526 630.615L660.627 639.441Z" fill="#3F107D"/>
<path d="M213.163 635.005L224.062 626.147C205.775 611.284 205.775 587.093 224.062 572.23L213.163 563.372C188.876 583.126 188.876 615.266 213.163 635.005Z" fill="#3F107D"/>
<path d="M666.067 635.005L676.966 626.147C658.679 611.284 658.679 587.093 676.966 572.23L666.067 563.372C641.78 583.126 641.78 615.266 666.067 635.005Z" fill="#3F107D"/>
<path d="M218.614 567.809C240.702 549.858 252.874 525.996 252.874 500.613C252.874 475.231 240.702 451.369 218.614 433.418L224.054 428.996C205.767 414.134 205.767 389.943 224.054 375.08L218.614 370.659C240.702 352.707 252.874 328.846 252.874 303.463C252.874 278.08 240.702 254.218 218.614 236.267L207.715 245.125C226.89 260.709 237.461 281.435 237.461 303.479C237.461 325.522 226.89 346.248 207.715 361.832L218.363 370.486L213.155 366.253C188.849 386.007 188.849 418.132 213.155 437.886L217.534 434.327L207.696 442.323C226.87 457.907 237.442 478.633 237.442 500.676C237.442 522.719 226.87 543.446 207.696 559.03L218.614 567.809Z" fill="#3F107D"/>
<path d="M671.526 567.809C693.614 549.858 705.786 525.996 705.786 500.613C705.786 475.231 693.614 451.369 671.526 433.418L676.966 428.996C658.679 414.134 658.679 389.943 676.966 375.08L671.526 370.659C693.614 352.707 705.786 328.846 705.786 303.463C705.786 278.08 693.614 254.218 671.526 236.267L660.627 245.125C679.802 260.709 690.373 281.435 690.373 303.479C690.373 325.522 679.802 346.248 660.627 361.832L671.276 370.486L666.067 366.253C641.761 386.007 641.761 418.132 666.067 437.886L670.446 434.327L660.608 442.323C679.783 457.907 690.354 478.633 690.354 500.676C690.354 522.719 679.783 543.446 660.608 559.03L671.526 567.809Z" fill="#3F107D"/>
<path d="M213.155 169.024C188.849 188.779 188.849 220.903 213.155 240.657L224.054 231.799C205.767 216.936 205.767 192.745 224.054 177.882L213.155 169.024Z" fill="#3F107D"/>
<path d="M666.067 169.024C641.761 188.779 641.761 220.903 666.067 240.657L676.966 231.799C658.679 216.936 658.679 192.745 676.966 177.882L666.067 169.024Z" fill="#3F107D"/>
<path d="M218.62 173.445C240.707 155.494 252.88 131.632 252.88 106.25C252.88 80.8669 240.707 57.005 218.62 39.0537L207.721 47.9118C226.896 63.4957 237.467 84.222 237.467 106.265C237.467 128.308 226.896 149.035 207.721 164.619L218.62 173.445Z" fill="#3F107D"/>
<path d="M671.526 173.445C693.614 155.494 705.786 131.632 705.786 106.25C705.786 80.8669 693.614 57.005 671.526 39.0537L660.627 47.9118C679.802 63.4957 690.373 84.222 690.373 106.265C690.373 128.308 679.802 149.035 660.627 164.619L671.526 173.445Z" fill="#3F107D"/>
<path d="M213.157 43.475L224.056 34.617C212.501 25.2259 208.276 12.1191 211.305 0H195.66C192.786 15.3801 198.612 31.6538 213.157 43.475Z" fill="#3F107D"/>
<path d="M666.066 43.475L676.965 34.617C665.41 25.2259 661.185 12.1191 664.214 0H648.57C645.695 15.3801 651.521 31.6538 666.066 43.475Z" fill="#3F107D"/>
<path d="M295.991 740.942L285.921 732.758L290.551 736.52C314.857 716.766 314.857 684.642 290.551 664.888L279.652 673.746C297.939 688.608 297.939 712.8 279.652 727.662L285.091 732.084C263.004 750.035 250.832 773.897 250.832 799.279C250.832 799.499 250.851 799.718 250.851 799.938H266.264C266.264 799.718 266.245 799.499 266.245 799.279C266.245 777.236 276.816 756.525 295.991 740.942Z" fill="#3F107D"/>
<path d="M748.9 740.942L738.83 732.758L743.46 736.52C767.766 716.766 767.766 684.642 743.46 664.888L732.561 673.746C750.848 688.608 750.848 712.8 732.561 727.662L738.001 732.084C715.913 750.035 703.741 773.897 703.741 799.279C703.741 799.499 703.76 799.718 703.76 799.938H719.173C719.173 799.718 719.154 799.499 719.154 799.279C719.154 777.236 729.725 756.525 748.9 740.942Z" fill="#3F107D"/>
<path d="M285.091 534.901C263.004 552.852 250.832 576.714 250.832 602.097C250.832 627.479 263.004 651.357 285.091 669.292L295.991 660.434C276.816 644.851 266.245 624.124 266.245 602.081C266.245 580.038 276.816 559.327 295.991 543.728L285.091 534.901Z" fill="#3F107D"/>
<path d="M738.001 534.901C715.913 552.853 703.741 576.715 703.741 602.097C703.741 627.48 715.913 651.357 738.001 669.293L748.9 660.435C729.725 644.851 719.154 624.125 719.154 602.081C719.154 580.038 729.725 559.328 748.9 543.728L738.001 534.901Z" fill="#3F107D"/>
<path d="M279.655 476.564C297.942 491.426 297.942 515.617 279.655 530.48L290.554 539.338C314.86 519.584 314.86 487.46 290.554 467.706L279.655 476.564Z" fill="#3F107D"/>
<path d="M732.562 476.564C750.849 491.426 750.849 515.617 732.562 530.48L743.461 539.338C767.767 519.584 767.767 487.46 743.461 467.706L732.562 476.564Z" fill="#3F107D"/>
<path d="M285.091 337.719C263.004 355.671 250.832 379.532 250.832 404.915C250.832 430.298 263.004 454.175 285.091 472.111L295.991 463.253C276.816 447.669 266.245 426.943 266.245 404.899C266.245 382.856 276.816 362.146 295.991 346.546L285.091 337.719Z" fill="#3F107D"/>
<path d="M738.001 337.719C715.913 355.671 703.741 379.532 703.741 404.915C703.741 430.298 715.913 454.175 738.001 472.111L748.9 463.253C729.725 447.669 719.154 426.943 719.154 404.899C719.154 382.856 729.725 362.146 748.9 346.546L738.001 337.719Z" fill="#3F107D"/>
<path d="M279.655 279.381C297.942 294.244 297.942 318.435 279.655 333.298L290.554 342.156C314.86 322.402 314.86 290.278 290.554 270.523L279.655 279.381Z" fill="#3F107D"/>
<path d="M732.562 279.381C750.849 294.244 750.849 318.435 732.562 333.298L743.461 342.156C767.767 322.402 767.767 290.278 743.461 270.523L732.562 279.381Z" fill="#3F107D"/>
<path d="M285.091 274.944L295.991 266.086C276.816 250.502 266.245 229.776 266.245 207.733C266.245 185.69 276.816 164.979 295.991 149.38L285.091 140.521C263.004 158.473 250.832 182.335 250.832 207.717C250.851 233.131 263.004 257.009 285.091 274.944Z" fill="#3F107D"/>
<path d="M738.001 274.944L748.9 266.086C729.725 250.502 719.154 229.776 719.154 207.733C719.154 185.69 729.725 164.979 748.9 149.38L738.001 140.521C715.913 158.473 703.741 182.335 703.741 207.717C703.76 233.131 715.913 257.009 738.001 274.944Z" fill="#3F107D"/>
<path d="M285.095 77.7784L279.655 82.1996C297.942 97.0623 297.942 121.253 279.655 136.116L290.554 144.974C314.86 125.22 314.86 93.0958 290.554 73.3416L286.136 76.9318L295.994 68.9204C276.819 53.3365 266.248 32.6102 266.248 10.567C266.248 7.00805 266.557 3.48051 267.097 0H251.587C251.124 3.48051 250.854 7.00805 250.854 10.567C250.854 35.9653 263.007 59.8272 285.095 77.7784Z" fill="#3F107D"/>
<path d="M738.001 77.7784L732.561 82.1996C750.849 97.0623 750.849 121.253 732.561 136.116L743.46 144.974C767.766 125.22 767.766 93.0958 743.46 73.3416L739.043 76.9318L748.9 68.9204C729.726 53.3365 719.155 32.6102 719.155 10.567C719.155 7.00805 719.463 3.48051 720.003 0H704.494C704.031 3.48051 703.761 7.00805 703.761 10.567C703.761 35.9653 715.914 59.8272 738.001 77.7784Z" fill="#3F107D"/>
<path d="M335.866 769.412L330.426 764.991C352.514 747.04 364.686 723.178 364.686 697.795C364.686 672.413 352.514 648.551 330.426 630.6L335.866 626.178C317.579 611.316 317.579 587.125 335.866 572.262L324.967 563.404C300.661 583.158 300.661 615.282 324.967 635.036L329.173 631.619L319.527 639.473C338.702 655.057 349.273 675.784 349.273 697.827C349.273 719.87 338.721 740.596 319.527 756.18L327.301 762.498L324.967 760.601C311.695 771.388 305.696 785.859 306.931 799.984H322.421C321.148 789.026 325.604 777.753 335.866 769.412Z" fill="#3F107D"/>
<path d="M788.773 769.412L783.333 764.991C805.42 747.04 817.593 723.178 817.593 697.795C817.593 672.413 805.42 648.551 783.333 630.6L788.773 626.178C770.485 611.316 770.485 587.125 788.773 572.262L777.874 563.404C753.568 583.158 753.568 615.282 777.874 635.036L782.079 631.619L772.434 639.473C791.609 655.057 802.18 675.784 802.18 697.827C802.18 719.87 791.628 740.596 772.434 756.18L780.208 762.498L777.874 760.601C764.602 771.388 758.603 785.859 759.837 799.984H775.327C774.054 789.026 778.51 777.753 788.773 769.412Z" fill="#3F107D"/>
<path d="M330.41 433.401L319.51 442.259C338.685 457.843 349.256 478.57 349.256 500.613C349.256 522.656 338.704 543.382 319.51 558.966L330.41 567.824C352.497 549.873 364.669 526.011 364.669 500.629C364.669 475.246 352.497 451.353 330.41 433.401Z" fill="#3F107D"/>
<path d="M783.313 433.402L772.414 442.26C791.589 457.844 802.16 478.57 802.16 500.613C802.16 522.657 791.608 543.383 772.414 558.967L783.313 567.825C805.401 549.874 817.573 526.012 817.573 500.629C817.573 475.246 805.401 451.353 783.313 433.402Z" fill="#3F107D"/>
<path d="M324.967 366.206C300.661 385.96 300.661 418.084 324.967 437.839L335.866 428.981C317.579 414.118 317.579 389.927 335.866 375.064L324.967 366.206Z" fill="#3F107D"/>
<path d="M777.874 366.206C753.568 385.96 753.568 418.084 777.874 437.839L788.773 428.981C770.485 414.118 770.485 389.927 788.773 375.064L777.874 366.206Z" fill="#3F107D"/>
<path d="M330.41 370.627C352.497 352.676 364.669 328.814 364.669 303.432C364.669 278.049 352.497 254.187 330.41 236.236L319.51 245.094C338.685 260.678 349.256 281.404 349.256 303.447C349.256 325.491 338.704 346.217 319.51 361.801L330.41 370.627Z" fill="#3F107D"/>
<path d="M783.313 370.627C805.401 352.676 817.573 328.814 817.573 303.432C817.573 278.049 805.401 254.187 783.313 236.236L772.414 245.094C791.589 260.678 802.16 281.404 802.16 303.447C802.16 325.491 791.608 346.217 772.414 361.801L783.313 370.627Z" fill="#3F107D"/>
<path d="M324.965 240.657L335.864 231.799C317.577 216.936 317.577 192.745 335.864 177.882L330.424 173.461L324.984 169.04C300.659 188.779 300.659 220.903 324.965 240.657Z" fill="#3F107D"/>
<path d="M777.874 240.657L788.773 231.799C770.486 216.936 770.486 192.745 788.773 177.882L783.333 173.461L777.893 169.04C753.568 188.779 753.568 220.903 777.874 240.657Z" fill="#3F107D"/>
<path d="M324.969 43.475L328.017 40.9979L319.529 47.8962C338.704 63.4801 349.275 84.2064 349.275 106.25C349.275 128.293 338.723 149.019 319.529 164.603L330.428 173.461C352.516 155.51 364.688 131.648 364.688 106.265C364.688 80.8827 352.516 57.0208 330.428 39.0695L335.868 34.6483C324.313 25.2415 320.069 12.1348 323.117 0H307.473C304.598 15.3801 310.424 31.6538 324.969 43.475Z" fill="#3F107D"/>
<path d="M777.875 43.475L780.923 40.9979L772.436 47.8962C791.61 63.4801 802.181 84.2064 802.181 106.25C802.181 128.293 791.63 149.019 772.436 164.603L783.335 173.461C805.422 155.51 817.594 131.648 817.594 106.265C817.594 80.8827 805.422 57.0208 783.335 39.0695L788.775 34.6483C777.22 25.2415 772.976 12.1348 776.024 0H760.379C757.505 15.3801 763.33 31.6538 777.875 43.475Z" fill="#3F107D"/>
<path d="M407.78 740.941L396.881 732.083C374.794 750.034 362.621 773.896 362.621 799.279C362.621 799.498 362.641 799.718 362.641 799.937H378.054C378.054 799.718 378.034 799.498 378.034 799.279C378.054 777.251 388.606 756.525 407.78 740.941Z" fill="#3F107D"/>
<path d="M391.441 279.381C400.296 286.578 405.176 296.157 405.176 306.347C405.176 316.538 400.296 326.102 391.441 333.314L396.881 337.735C374.794 355.686 362.621 379.548 362.621 404.931C362.621 430.313 374.794 454.191 396.881 472.126L391.441 476.548C400.296 483.744 405.176 493.323 405.176 503.514C405.176 513.704 400.296 523.268 391.441 530.48L396.881 534.901C374.794 552.852 362.621 576.714 362.621 602.097C362.621 627.479 374.794 651.357 396.881 669.293L391.441 673.714C400.296 680.91 405.176 690.489 405.176 700.68C405.176 710.871 400.296 720.434 391.441 727.646L402.34 736.504C414.108 726.94 420.589 714.226 420.589 700.696C420.589 687.165 414.108 674.451 402.34 664.887L399.35 667.317L407.8 660.45C388.625 644.866 378.054 624.14 378.054 602.097C378.054 580.054 388.625 559.343 407.8 543.743L400.411 537.739L402.36 539.322C414.127 529.759 420.608 517.028 420.608 503.514C420.608 489.984 414.127 477.269 402.36 467.705L401.588 468.332L407.819 463.268C388.644 447.684 378.073 426.958 378.073 404.915C378.073 382.872 388.644 362.161 407.819 346.561L401.067 341.074L402.36 342.125C414.127 332.561 420.608 319.846 420.608 306.316C420.608 292.786 414.127 280.071 402.36 270.508L400.681 271.872L407.819 266.071C388.644 250.487 378.073 229.761 378.073 207.717C378.073 185.674 388.644 164.963 407.819 149.364L398.829 142.058L402.36 144.927C414.127 135.363 420.608 122.649 420.608 109.119C420.608 95.5885 414.127 82.8736 402.36 73.3101L391.461 82.1681C400.315 89.3643 405.195 98.9436 405.195 109.134C405.195 119.325 400.315 128.888 391.461 136.1L396.9 140.522C374.813 158.473 362.641 182.335 362.641 207.717C362.641 233.1 374.813 256.962 396.9 274.913L391.441 279.381Z" fill="#3F107D"/>
<path d="M396.904 77.7784L407.803 68.9204C388.628 53.3365 378.057 32.6102 378.057 10.567C378.057 7.00806 378.366 3.48051 378.906 0H363.377C362.914 3.48051 362.644 7.00806 362.644 10.567C362.644 35.9653 374.816 59.8272 396.904 77.7784Z" fill="#3F107D"/>
<path d="M447.655 769.413L436.756 760.555C423.484 771.341 417.485 785.812 418.719 799.938H434.21C432.936 789.026 437.393 777.753 447.655 769.413Z" fill="#3F107D"/>
<path d="M431.314 639.441C450.489 655.025 461.06 675.752 461.06 697.795C461.06 719.838 450.489 740.564 431.314 756.148L442.213 765.006C464.301 747.055 476.473 723.193 476.473 697.811C476.473 672.428 464.301 648.566 442.213 630.615L431.314 639.441Z" fill="#3F107D"/>
<path d="M436.755 240.657L438.838 238.964L431.315 245.078C450.489 260.662 461.061 281.388 461.061 303.431C461.061 325.475 450.489 346.201 431.315 361.785L437.854 367.1L436.774 366.222C412.468 385.976 412.468 418.1 436.774 437.854L439.436 435.691L431.334 442.276C450.509 457.859 461.08 478.586 461.08 500.629C461.08 522.672 450.509 543.398 431.334 558.982L440.053 566.069L436.793 563.419C412.487 583.173 412.487 615.298 436.793 635.052L447.692 626.194C429.405 611.331 429.405 587.14 447.692 572.277L442.252 567.856C464.34 549.905 476.512 526.043 476.512 500.66C476.512 475.278 464.34 451.416 442.252 433.465L447.692 429.043C429.405 414.181 429.405 389.989 447.692 375.127L442.252 370.706C464.34 352.754 476.512 328.892 476.512 303.51C476.512 278.127 464.34 254.265 442.252 236.314L447.692 231.893C429.405 217.03 429.405 192.839 447.692 177.976L436.793 169.118C412.468 188.778 412.468 220.903 436.755 240.657Z" fill="#3F107D"/>
<path d="M436.753 43.4744L441.421 39.6804L431.313 47.8956C450.488 63.4795 461.059 84.2058 461.059 106.249C461.059 128.292 450.488 149.019 431.313 164.602L442.212 173.461C464.3 155.509 476.472 131.647 476.472 106.265C476.472 80.8821 464.3 57.0202 442.212 39.0689L447.652 34.6477C436.097 25.2566 431.872 12.1498 434.901 0.0307617H419.257C416.382 15.3795 422.208 31.6532 436.753 43.4744Z" fill="#3F107D"/>
</g>
<defs>
<clipPath id="clip0_20_465">
<rect width="800" height="800" rx="15" fill="white"/>
</clipPath>
</defs>
</svg>
