<svg width="97" height="32" viewBox="0 0 97 32" fill="none" xmlns="http://www.w3.org/2000/svg">
<path d="M0 23.9419V31C0 31.5523 0.447715 32 1 32H96C96.5523 32 97 31.5523 97 31V23.9217C97 23.4109 96.6151 22.986 96.1148 22.8831C93.4557 22.3358 89.4273 20.4445 89.4273 16.0291C89.4273 11.5884 93.5023 9.5126 96.1606 8.85493C96.6397 8.73641 97 8.32058 97 7.82704V1C97 0.447715 96.5523 0 96 0H1C0.447715 0 0 0.447715 0 1V7.8082C0 8.3099 0.371819 8.72991 0.860553 8.84325C3.49651 9.45457 7.50744 11.4791 7.50744 16.0291C7.50744 20.5522 3.54392 22.395 0.907575 22.8966C0.397427 22.9936 0 23.4226 0 23.9419Z" fill="#A3D43F"/>
</svg>
