<svg width="600" height="600" viewBox="0 0 600 600" fill="none" xmlns="http://www.w3.org/2000/svg">
<g clip-path="url(#clip0_1909_1634)">
<mask id="mask0_1909_1634" style="mask-type:luminance" maskUnits="userSpaceOnUse" x="-66" y="-97" width="733" height="794">
<path d="M-66 -96.7013H666.388V697H-66V-96.7013Z" fill="white"/>
</mask>
<g mask="url(#mask0_1909_1634)">
<path fill-rule="evenodd" clip-rule="evenodd" d="M300.456 499.201C190.866 499.201 102.024 410.361 102.024 300.769C102.024 191.179 190.866 102.337 300.456 102.337C410.047 102.337 498.888 191.179 498.888 300.769C498.888 410.361 410.047 499.201 300.456 499.201ZM300.456 27.8867C149.747 27.8867 27.5723 150.06 27.5723 300.769C27.5723 451.479 149.747 573.653 300.456 573.653C451.166 573.653 573.34 451.479 573.34 300.769C573.34 150.06 451.166 27.8867 300.456 27.8867Z" fill="#2B378C"/>
<path d="M305.103 297.793H345.79L373.336 191.812L366.704 177.566C330.69 200.392 299.203 229.818 273.98 264.042L283.531 314.228L305.103 297.793Z" fill="#F9A50D"/>
<path d="M360.941 165.188L337.36 114.542C336.552 113.027 335.411 111.99 334.215 111.688C332.709 111.31 331.076 112.114 329.956 112.875L255.449 166.675L270.584 246.192C295.805 214.336 326.391 186.847 360.941 165.188Z" fill="#F9A50D"/>
<path d="M320.918 374.358L336.27 311.329H309.674L286.36 329.09L294.119 369.852L320.918 374.358Z" fill="#F9A50D"/>
<path d="M343.32 445.975L324.748 388.729L293.371 383.453L288.927 430.96C306.544 437.608 324.728 442.631 343.32 445.975Z" fill="#F9A50D"/>
<path d="M316.883 473.401C328.604 473.401 340.047 472.218 351.112 469.992L353.724 478.041L348.029 460.489C327.373 457.244 307.173 452.025 287.624 444.9L285.229 470.496C295.491 472.398 306.069 473.401 316.883 473.401Z" fill="#F9A50D"/>
<path d="M262.962 329.899L283.532 314.227L273.981 264.042C266.613 274.039 259.774 284.443 253.52 295.215L262.962 329.899Z" fill="#F2581A"/>
<path d="M248.611 277.188C255.383 266.46 262.726 256.117 270.583 246.193L255.449 166.676L224.59 188.958L248.611 277.188Z" fill="#F2581A"/>
<path d="M277.783 367.104L294.119 369.852L286.361 329.09L271.838 340.156L277.783 367.104Z" fill="#F2581A"/>
<path d="M265.579 421.036C273.238 424.67 281.026 427.978 288.927 430.959L293.371 383.452L277.015 380.702L265.579 421.036Z" fill="#F2581A"/>
<path d="M351.111 469.991C340.046 472.218 328.603 473.401 316.882 473.401C306.069 473.401 295.491 472.398 285.23 470.495L287.623 444.898C278.894 441.717 270.294 438.157 261.841 434.219L254.075 461.613L249.246 478.642C250.946 479.133 252.659 479.59 254.379 480.033C254.727 480.122 255.075 480.207 255.425 480.295C256.909 480.667 258.398 481.022 259.895 481.358C260.051 481.393 260.206 481.434 260.362 481.47C260.629 481.529 260.897 481.585 261.165 481.643C261.579 481.734 261.993 481.826 262.409 481.913C262.942 482.025 263.477 482.135 264.011 482.242C264.347 482.309 264.685 482.37 265.021 482.435C265.658 482.559 266.294 482.685 266.934 482.802C267.046 482.822 267.158 482.846 267.27 482.866C267.453 482.899 267.633 482.937 267.815 482.969C268.23 483.042 268.647 483.105 269.063 483.175C269.915 483.322 270.769 483.465 271.625 483.599C271.777 483.623 271.926 483.651 272.078 483.675C272.247 483.701 272.417 483.726 272.586 483.751C272.849 483.791 273.114 483.826 273.377 483.863C274.23 483.99 275.085 484.114 275.942 484.227C276.065 484.243 276.189 484.258 276.313 484.274C278.815 484.602 281.329 484.891 283.862 485.118L283.863 485.099C289.339 485.587 294.883 485.845 300.487 485.845C307.717 485.845 314.849 485.429 321.862 484.622C321.967 484.609 322.071 484.597 322.177 484.583C323.698 484.406 325.213 484.206 326.722 483.993C326.854 483.974 326.985 483.955 327.117 483.937C327.229 483.921 327.341 483.906 327.453 483.891C328.855 483.686 330.251 483.458 331.643 483.222C332.286 483.113 332.926 482.999 333.565 482.883C334.303 482.75 335.039 482.607 335.775 482.466L335.778 482.465C337.334 482.163 338.885 481.845 340.427 481.503C340.623 481.461 340.821 481.418 341.017 481.374C341.021 481.374 341.025 481.373 341.03 481.371C344.243 480.649 347.426 479.843 350.575 478.958C351.629 478.661 352.678 478.355 353.723 478.041L351.111 469.991Z" fill="#F2581A"/>
<path d="M424.054 438.434C423.822 437.838 423.573 437.25 423.333 436.658C406.013 450.246 386.034 460.592 364.304 466.789L366.533 473.665C387.88 465.481 407.337 453.457 424.054 438.434Z" fill="#2B3889"/>
<path d="M144.26 300.777C144.26 262.968 156.425 228.004 177.041 199.568C171.569 192.704 166.649 185.394 162.38 177.696C143.505 198.85 129.413 224.353 121.797 252.489C121.655 253.021 121.505 253.549 121.367 254.082C121.208 254.693 121.06 255.308 120.907 255.92C120.684 256.814 120.46 257.708 120.251 258.608C120.159 259.002 120.072 259.401 119.981 259.797C119.725 260.933 119.473 262.072 119.237 263.216C119.191 263.442 119.147 263.669 119.1 263.894C118.829 265.234 118.569 266.577 118.328 267.926C118.316 267.992 118.305 268.058 118.293 268.124C116.407 278.724 115.42 289.636 115.42 300.777C115.42 310.22 116.132 319.494 117.496 328.556C126.633 325.012 135.871 321.752 145.188 318.752C144.577 312.844 144.26 306.848 144.26 300.777Z" fill="#2B378C"/>
<path d="M302.862 115.745C302.07 115.735 301.282 115.71 300.487 115.71C290.921 115.71 281.522 116.437 272.347 117.837C272.249 117.853 272.153 117.869 272.054 117.885C270.683 118.095 269.318 118.322 267.958 118.563C267.503 118.643 267.053 118.733 266.599 118.817C265.609 119.001 264.618 119.187 263.631 119.386C262.87 119.541 262.111 119.707 261.351 119.871C260.689 120.014 260.025 120.154 259.363 120.303C258.331 120.538 257.306 120.786 256.281 121.038C255.906 121.13 255.531 121.218 255.158 121.313C253.882 121.634 252.611 121.97 251.347 122.319C251.237 122.349 251.126 122.378 251.015 122.409C221.026 130.738 194.075 146.445 172.25 167.443C176.099 174.893 180.607 181.971 185.67 188.618C195.043 200.922 206.353 211.723 219.146 220.491L209.067 183.471L280.269 132.059L302.862 115.745Z" fill="#2B378C"/>
<path d="M179.19 404.89C163.315 383.929 152.119 359.233 147.15 332.35C138.031 335.333 128.992 338.57 120.054 342.089C120.071 342.162 120.084 342.236 120.102 342.309C120.535 344.196 121 346.07 121.491 347.934C121.562 348.202 121.638 348.469 121.71 348.738C122.188 350.524 122.69 352.3 123.22 354.064C123.254 354.173 123.286 354.284 123.319 354.394C131.804 382.382 146.752 407.589 166.424 428.264C169.986 420.037 174.268 412.222 179.19 404.89Z" fill="#2B378C"/>
<path d="M236.377 474.41L241.557 456.137C221.232 446.263 203.14 432.517 188.229 415.859C183.783 422.946 179.972 430.49 176.895 438.43C194.123 453.913 214.259 466.218 236.377 474.41Z" fill="#2B378C"/>
<path d="M483.75 274.836C483.413 272.389 483.028 269.954 482.594 267.533C482.581 267.462 482.566 267.393 482.554 267.322C482.125 264.945 481.653 262.578 481.133 260.226C481.092 260.045 481.045 259.864 481.005 259.682C480.502 257.445 479.965 255.22 479.381 253.008C479.288 252.657 479.182 252.312 479.088 251.961C478.534 249.92 477.958 247.885 477.336 245.866C477.16 245.294 476.961 244.732 476.778 244.162C476.205 242.365 475.622 240.57 474.993 238.793C474.698 237.964 474.373 237.148 474.066 236.322C473.502 234.802 472.946 233.28 472.341 231.774C471.925 230.741 471.469 229.724 471.034 228.697C470.484 227.4 469.953 226.094 469.372 224.809C469.36 224.784 469.346 224.758 469.336 224.732C441.105 247.876 406.124 263.086 367.792 266.953L356.189 310.785C354.512 310.692 351.633 310.63 350.398 310.517L341.694 346.252C355.972 350.449 369.532 356.882 381.898 365.188L381.9 365.189C384.429 366.888 386.904 368.672 389.326 370.529C390.19 371.186 391.05 371.848 391.9 372.524C392.709 373.174 393.514 373.826 394.312 374.494C396.121 376.002 397.906 377.54 399.641 379.144C401.49 380.854 403.293 382.612 405.048 384.413C405.802 385.188 406.513 386 407.25 386.79C408.224 387.834 409.217 388.864 410.16 389.937C411.084 390.988 411.957 392.081 412.85 393.157C413.553 394.005 414.281 394.833 414.964 395.696C415.946 396.936 416.876 398.214 417.817 399.485C418.361 400.221 418.932 400.938 419.462 401.684C420.446 403.064 421.373 404.48 422.308 405.892C422.749 406.56 423.214 407.21 423.645 407.885C424.585 409.357 425.468 410.862 426.354 412.366C426.734 413.013 427.138 413.644 427.509 414.296C428.378 415.824 429.19 417.382 430.004 418.94C430.346 419.596 430.712 420.238 431.044 420.898C431.82 422.442 432.54 424.014 433.262 425.586C433.548 426.209 433.864 426.817 434.141 427.444C434.264 427.722 434.394 427.998 434.517 428.278C436.074 426.642 437.597 424.973 439.092 423.278C439.156 423.206 439.217 423.13 439.281 423.058C440.734 421.405 442.16 419.729 443.556 418.028C445.097 416.152 446.596 414.24 448.062 412.304C448.198 412.125 448.333 411.945 448.468 411.765C449.901 409.86 451.301 407.928 452.66 405.966C452.692 405.922 452.724 405.877 452.754 405.833C457.064 399.602 461 393.096 464.533 386.346C464.562 386.29 464.592 386.233 464.621 386.177C468.153 379.413 471.282 372.406 473.973 365.188H473.981C476.769 357.702 479.098 349.997 480.906 342.094C481.969 337.653 482.808 333.18 483.476 328.553C484.846 319.49 485.56 310.217 485.56 300.777C485.56 294.544 485.222 288.374 484.625 282.264C484.385 279.818 484.101 277.384 483.769 274.961C483.762 274.918 483.756 274.877 483.75 274.836Z" fill="#2B378C"/>
<path d="M428.036 168.713C428.268 168.273 428.513 167.84 428.743 167.397C428.541 167.205 428.343 167.009 428.141 166.817C427.268 165.986 426.387 165.165 425.499 164.352C425.184 164.064 424.871 163.774 424.555 163.488C423.397 162.444 422.231 161.413 421.048 160.398C420.984 160.344 420.921 160.288 420.856 160.233C403.517 145.397 383.536 133.816 362.065 126.213C361.62 126.056 361.168 125.909 360.72 125.754C359.593 125.365 358.464 124.98 357.328 124.612C357.193 124.569 357.056 124.529 356.92 124.485L361.323 133.941C386.219 140.557 408.903 152.592 428.036 168.713Z" fill="#2B378C"/>
<path d="M387.662 190.507L379.458 222.071C399.818 208.702 416.622 190.275 428.037 168.713C408.903 152.593 386.219 140.557 361.323 133.942L387.662 190.507Z" fill="#2B378C"/>
<path d="M253.848 347.952L243.852 311.236C210.909 315.005 178.532 322.088 147.15 332.351C152.12 359.233 163.316 383.929 179.189 404.891C196.945 378.441 223.045 358.3 253.848 347.952Z" fill="#2B378C"/>
<path d="M123.221 354.062C122.69 352.299 122.189 350.523 121.71 348.737C122.187 350.524 122.691 352.299 123.221 354.062Z" fill="white"/>
<path d="M121.492 347.934C121 346.07 120.536 344.195 120.103 342.308C120.535 344.195 121.003 346.07 121.492 347.934Z" fill="white"/>
<path d="M327.453 483.891C327.21 483.927 326.966 483.958 326.724 483.992C326.966 483.958 327.21 483.926 327.453 483.891Z" fill="white"/>
<path d="M340.427 481.504C338.884 481.845 337.334 482.164 335.776 482.467C337.334 482.165 338.884 481.844 340.427 481.504Z" fill="white"/>
<path d="M264.011 482.242C263.422 482.124 262.834 482.004 262.246 481.88C262.834 482.002 263.422 482.125 264.011 482.242Z" fill="white"/>
<path d="M357.328 124.612C358.464 124.98 359.592 125.366 360.72 125.755C359.592 125.367 358.465 124.979 357.328 124.612Z" fill="white"/>
<path d="M421.049 160.399C422.231 161.414 423.398 162.444 424.554 163.488C423.399 162.443 422.23 161.415 421.049 160.399Z" fill="white"/>
<path d="M256.28 121.038C257.306 120.786 258.332 120.538 259.363 120.303C258.331 120.538 257.306 120.787 256.28 121.038Z" fill="white"/>
<path d="M251.347 122.319C252.612 121.97 253.883 121.635 255.157 121.313C253.881 121.634 252.612 121.971 251.347 122.319Z" fill="white"/>
<path d="M241.558 456.138L265.181 372.815L262.24 359.484C231.193 368.815 205.084 388.999 188.23 415.86C203.14 432.518 221.233 446.264 241.558 456.138Z" fill="#3D4FAA"/>
<path d="M145.188 318.752C176.078 308.808 207.896 301.855 240.253 298.017L224.346 239.591C206.062 229.493 189.98 215.8 177.041 199.568C156.424 228.004 144.26 262.968 144.26 300.777C144.26 306.848 144.577 312.844 145.188 318.752Z" fill="#3D4FAA"/>
<path d="M338.487 359.418L334.619 375.297L364.303 466.79C386.035 460.593 406.014 450.247 423.334 436.659C408.291 399.663 376.74 370.89 338.487 359.418Z" fill="#3D4FAA"/>
<path d="M444.939 185.068C442.898 182.522 440.784 180.044 438.618 177.617C438.614 177.622 438.61 177.629 438.607 177.634C438.518 177.794 438.422 177.95 438.332 178.11C423.59 204.517 401.374 226.396 374.622 240.672L367.791 266.953C406.124 263.086 441.107 247.874 469.338 224.73C462.994 210.705 454.836 197.408 444.939 185.068Z" fill="#3D4FAA"/>
<path fill-rule="evenodd" clip-rule="evenodd" d="M120.647 432.448L120.368 432.428L106.201 457.512L106.187 457.785L109.651 461.996L109.928 462.026L137.247 452.865L137.277 452.586L133.551 448.082L133.277 448.052L114.233 454.682L124.343 437.234L124.363 436.962L120.647 432.448Z" fill="white"/>
<path fill-rule="evenodd" clip-rule="evenodd" d="M141.31 456.472L141.033 456.477L137.551 460.163L137.555 460.435L143.366 465.923L128.506 481.652L128.517 481.92L132.197 485.401L132.474 485.396L147.333 469.672L153.147 475.159L153.414 475.149L156.897 471.469L156.891 471.192L141.31 456.472Z" fill="white"/>
<path fill-rule="evenodd" clip-rule="evenodd" d="M157.218 491.429L159.694 493.326C161.239 494.51 161.859 495.956 160.555 497.66C159.258 499.358 157.698 499.15 156.152 497.966L153.676 496.085L157.218 491.429ZM163.596 483.064L165.152 484.248C166.856 485.54 167.034 486.912 166.092 488.15C165.142 489.393 163.78 489.572 162.071 488.269L160.526 487.085L163.596 483.064ZM162.72 475.526L162.447 475.57L146.138 496.956L146.183 497.224L153.151 502.544C157.178 505.624 162.051 505.664 165.36 501.32C167.138 498.992 167.395 495.758 166.123 493.569C167.842 493.896 169.832 493.213 171.248 491.345C174.082 487.625 172.482 482.985 168.46 479.904L162.72 475.526Z" fill="white"/>
<path fill-rule="evenodd" clip-rule="evenodd" d="M189.837 494.039L189.575 494.123L182.815 507.521C179.204 514.653 181.967 521.29 187.885 524.271C193.804 527.263 200.783 525.545 204.384 518.411L211.144 505.015L211.065 504.753L206.533 502.469L206.276 502.553L199.867 515.262C197.495 519.953 193.735 520.898 190.436 519.229C187.128 517.565 185.661 513.979 188.035 509.279L194.448 496.581L194.353 496.322L189.837 494.039Z" fill="white"/>
<path fill-rule="evenodd" clip-rule="evenodd" d="M217.297 507.275L217.049 507.404L208.5 532.9L208.619 533.148L213.427 534.759L213.673 534.64L219.307 517.826L226.612 538.976L226.911 539.283L231.9 540.959L232.153 540.835L240.703 515.334L240.584 515.086L235.772 513.47L235.535 513.604L229.892 530.418L222.595 509.256L222.288 508.946L217.297 507.275Z" fill="white"/>
<path fill-rule="evenodd" clip-rule="evenodd" d="M248.226 516.912L247.984 517.051L241.95 543.261L242.1 543.504L247.037 544.643L247.265 544.495L253.308 518.279L253.158 518.052L248.226 516.912Z" fill="white"/>
<path fill-rule="evenodd" clip-rule="evenodd" d="M259.991 519.561L259.776 519.728L259.128 524.753L259.295 524.973L267.215 525.993L264.432 547.45L264.608 547.674L269.629 548.322L269.844 548.156L272.627 526.7L280.548 527.725L280.772 527.558L281.42 522.532L281.255 522.317L259.991 519.561Z" fill="white"/>
<path fill-rule="evenodd" clip-rule="evenodd" d="M287.586 522.692L287.386 522.883L286.917 549.78L287.108 549.965L305.821 550.299L306.01 550.107L306.101 545.044L305.91 544.843L292.464 544.613L292.57 538.564L302.113 538.733L302.313 538.543L302.404 533.479L302.217 533.279L292.665 533.105L292.753 528.239L305.808 528.46L305.998 528.268L306.089 523.205L305.898 523.005L287.586 522.692Z" fill="white"/>
<path fill-rule="evenodd" clip-rule="evenodd" d="M319.289 527.64L323.173 527.32C328.227 526.911 331.993 529.933 332.378 534.789C332.773 539.644 329.534 543.231 324.49 543.645L320.605 543.951L319.289 527.64ZM313.599 522.619L313.425 522.825L315.583 549.64L315.801 549.813L324.927 549.08C333.275 548.408 338.811 541.824 338.205 534.323C337.603 526.827 331.089 521.208 322.731 521.885L313.599 522.619Z" fill="white"/>
<path fill-rule="evenodd" clip-rule="evenodd" d="M350.646 517.171L350.508 517.411L357.273 543.431L357.518 543.575L372.608 539.655L372.75 539.415L371.466 534.511L371.23 534.369L361.234 536.973L355.785 516.035L355.55 515.897L350.646 517.171Z" fill="white"/>
<path fill-rule="evenodd" clip-rule="evenodd" d="M371.463 511.294L371.353 511.546L381.099 536.618L381.351 536.729L398.794 529.949L398.905 529.693L397.063 524.973L396.817 524.867L384.278 529.733L382.087 524.099L390.995 520.642L391.106 520.395L389.265 515.666L389.014 515.554L380.117 519.018L378.349 514.473L390.525 509.742L390.63 509.485L388.794 504.77L388.547 504.659L371.463 511.294Z" fill="white"/>
<path fill-rule="evenodd" clip-rule="evenodd" d="M406.779 503.538L414.622 509.661L408.875 512.737L406.779 503.538ZM400.459 499.021L400.386 499.281L405.466 526.85L405.758 526.918L411.315 523.938L411.388 523.683L410.224 518.157L419.195 513.361L423.952 516.961L424.234 517.027L429.8 514.053L429.875 513.793L405.763 496.401L405.476 496.334L400.459 499.021Z" fill="white"/>
<path fill-rule="evenodd" clip-rule="evenodd" d="M439.941 481.481L435.944 476.954C432.853 477.862 430.254 479.637 427.48 482.094C421.201 487.637 420.641 496.715 425.805 502.558C431.098 508.549 440.192 508.833 446.476 503.279C449.097 500.959 450.922 498.311 452.073 495.205L442.653 484.549L442.382 484.522L435.369 490.721L435.353 490.998L438.716 494.795L438.977 494.81L442.054 492.098L445.408 495.895C444.934 496.833 443.746 498.139 442.729 499.05C438.638 502.663 433.424 502.063 430.326 498.554C427.236 495.05 427.281 489.809 431.217 486.322C433.704 484.126 436.574 482.378 439.925 481.747L439.941 481.481Z" fill="white"/>
<path fill-rule="evenodd" clip-rule="evenodd" d="M442.744 471.073L442.732 471.345L452.93 482.361C458.348 488.233 465.535 487.961 470.398 483.468C475.267 478.961 476.098 471.822 470.674 465.964L460.483 454.938L460.206 454.928L456.488 458.373L456.48 458.65L466.132 469.086C469.707 472.956 469.284 476.801 466.567 479.31C463.843 481.829 459.975 481.956 456.4 478.086L446.748 467.649L446.471 467.637L442.744 471.073Z" fill="white"/>
<path fill-rule="evenodd" clip-rule="evenodd" d="M466.562 448.175L466.586 448.451L487.565 465.286L487.836 465.262L499.554 450.674L499.52 450.397L495.57 447.225L495.293 447.259L486.872 457.737L482.169 453.959L488.15 446.513L488.116 446.235L484.166 443.063L483.889 443.087L477.91 450.535L474.113 447.487L482.286 437.306L482.264 437.029L478.304 433.858L478.037 433.891L466.562 448.175Z" fill="white"/>
<path fill-rule="evenodd" clip-rule="evenodd" d="M96.3789 156.527L96.4136 156.804L117.795 173.12L118.063 173.091L129.418 158.215L129.383 157.945L125.354 154.869L125.082 154.904L116.926 165.589L112.12 161.928L117.919 154.339L117.874 154.065L113.846 150.988L113.576 151.023L107.778 158.617L103.91 155.661L111.827 145.284L111.798 145.005L107.767 141.928L107.499 141.972L96.3789 156.527Z" fill="white"/>
<path fill-rule="evenodd" clip-rule="evenodd" d="M128.536 127.199L134.885 121.155L146.164 133.019L138.683 140.139C138.147 139.294 137.884 139.018 137.62 138.616L128.536 127.199ZM121.384 126.471L121.376 126.739L133.044 141.732C133.659 142.774 134.072 143.443 134.331 144.274L131.899 146.58L131.9 146.858L140.225 155.623H140.493L144.164 152.134L144.175 151.856L139.475 146.916L152.184 134.823L156.888 139.764L157.16 139.774L160.836 136.29L160.845 136.012L152.515 127.247L152.243 127.238L150.123 129.252L135.216 113.579L134.939 113.57L121.384 126.471Z" fill="white"/>
<path fill-rule="evenodd" clip-rule="evenodd" d="M149.107 101.958L149.049 102.221L164.307 124.374L164.575 124.424L168.918 121.442L169.126 121.061L170.295 98.7198L180.365 113.329L180.631 113.374L184.802 110.497L184.847 110.234L169.602 88.0812L169.325 88.0212L164.991 91.0132L164.783 91.3945L163.605 113.736L153.545 99.1252L153.278 99.0812L149.107 101.958Z" fill="white"/>
<path fill-rule="evenodd" clip-rule="evenodd" d="M183.135 80.2787L183.042 80.5401L194.53 104.861L194.786 104.956L199.365 102.793L199.463 102.528L194.638 92.3107L205.907 86.9787L210.738 97.2001L211.005 97.2934L215.583 95.1307L215.671 94.8654L204.187 70.5534L203.931 70.4547L199.338 72.6267L199.25 72.8827L203.583 82.0401L192.298 87.3734L187.97 78.2054L187.714 78.1174L183.135 80.2787Z" fill="white"/>
<path fill-rule="evenodd" clip-rule="evenodd" d="M232.023 68.1054L237.51 76.0787L231.511 77.7707L232.023 68.1054ZM227.487 62.0961L227.359 62.3374L224.715 91.0254L224.96 91.1641L230.768 89.5227L230.907 89.2774L231.306 83.5041L240.686 80.8601L244.04 85.5747L244.275 85.7134L250.095 84.0721L250.223 83.8267L232.99 60.7467L232.744 60.6094L227.487 62.0961Z" fill="white"/>
<path fill-rule="evenodd" clip-rule="evenodd" d="M270.931 58.6364L271.627 64.0431L269.693 64.2937C267.564 64.5684 266.309 63.9404 266.064 62.0124C265.813 60.0857 266.872 59.1604 269.003 58.8871L270.931 58.6364ZM275.449 52.5457L267.912 53.5217C262.504 54.2164 259.685 58.3111 260.256 62.7604C260.665 65.8591 262.096 67.8311 264.76 68.6631L257.073 82.2364L257.295 82.4004L263.472 81.6031L263.643 81.3871L270.395 69.7124L272.327 69.4617L273.696 80.0977L273.916 80.2617L278.933 79.6177L279.103 79.3977L275.671 52.7164L275.449 52.5457Z" fill="white"/>
<path fill-rule="evenodd" clip-rule="evenodd" d="M312.596 51.5706L312.191 51.7346L307.579 70.0933C306.763 72.5706 304.915 73.5706 302.578 73.3626L302.368 73.5306L301.934 78.316L302.102 78.5986C307.148 79.0586 310.819 77.4386 312.492 71.9173L316.371 57.4L324.914 58.1826L322.943 79.7226L323.111 79.9346L328.159 80.3906L328.382 80.2173L330.819 53.428L330.644 53.22L312.596 51.5706Z" fill="white"/>
<path fill-rule="evenodd" clip-rule="evenodd" d="M345.759 55.448L345.534 55.5947L339.451 81.7987L339.598 82.0333L344.722 83.216L345.146 83.116L362.447 68.92L358.439 86.1987L358.586 86.4347L363.517 87.584L363.751 87.436L369.834 61.2333L369.687 60.9973L364.554 59.816L364.139 59.916L346.838 74.1013L350.846 56.8227L350.699 56.5973L345.759 55.448Z" fill="white"/>
<path fill-rule="evenodd" clip-rule="evenodd" d="M385.629 66.3953L385.372 66.5086L375.135 91.3766L375.239 91.634L379.924 93.5566L380.181 93.4526L388.417 73.4526L400.136 78.2726L400.384 78.1673L402.316 73.4833L402.211 73.2353L385.629 66.3953Z" fill="white"/>
<path fill-rule="evenodd" clip-rule="evenodd" d="M415.728 87.8684L414.076 97.4004L408.606 94.4097L415.728 87.8684ZM416.684 80.399L416.427 80.4764L394.488 99.147L394.559 99.411L399.863 102.3L400.131 102.224L404.447 98.367L413.006 103.03L412.107 108.751L412.179 109.019L417.483 111.915L417.751 111.832L421.563 83.2697L421.476 83.0164L416.684 80.399Z" fill="white"/>
<path fill-rule="evenodd" clip-rule="evenodd" d="M443.997 117.24L446.414 119.201C447.929 120.429 448.5 121.896 447.146 123.56C445.794 125.228 444.245 124.972 442.729 123.742L440.312 121.781L443.997 117.24ZM450.624 109.068L452.14 110.296C453.798 111.638 453.946 113.01 452.957 114.218C451.976 115.437 450.604 115.58 448.949 114.228L447.434 113L450.624 109.068ZM449.97 101.514L449.702 101.545L432.76 122.43L432.788 122.702L439.598 128.229C443.541 131.42 448.405 131.608 451.842 127.362C453.685 125.094 454.046 121.866 452.833 119.637C454.541 120.018 456.546 119.389 458.024 117.572C460.97 113.941 459.509 109.245 455.566 106.046L449.97 101.514Z" fill="white"/>
<path fill-rule="evenodd" clip-rule="evenodd" d="M471.687 119.553L471.415 119.539L467.756 123.057L467.752 123.335L473.292 129.097L457.689 144.087L457.691 144.364L461.199 148.016L461.471 148.021L477.073 133.023L482.604 138.787L482.881 138.791L486.539 135.283V135.005L471.687 119.553Z" fill="white"/>
<path fill-rule="evenodd" clip-rule="evenodd" d="M486.317 159.872L488.282 162.544C489.666 164.422 489.85 165.982 488.118 167.256C486.241 168.642 484.808 168.014 483.413 166.122L481.449 163.46L486.317 159.872ZM495.889 146.27L495.621 146.23L473.98 162.187L473.938 162.466L479.262 169.68C482.384 173.91 487.208 175.206 491.602 171.966C495.99 168.724 496.025 163.852 492.904 159.608L490.701 156.632L494.626 153.74L501.216 162.683L501.494 162.723L505.569 159.711L505.609 159.443L495.889 146.27Z" fill="white"/>
<path d="M170.047 268.228V268.297C170.766 268.555 171.448 269.015 171.81 269.308C172.924 270.224 173.415 271.437 173.415 273.007C173.415 275.592 172.038 277.455 169.784 278.044C169.096 278.243 168.378 278.307 167.036 278.307H160.196V259.397H166.248C167.491 259.397 168.343 259.461 169.096 259.66C171.286 260.249 172.727 261.755 172.727 264.141C172.727 265.415 172.271 266.493 171.518 267.217C171.191 267.544 170.731 267.936 170.047 268.228ZM163.995 270.224V275.196H166.61C167.392 275.196 168.115 275.132 168.635 274.641C169.16 274.151 169.388 273.527 169.388 272.711C169.388 272.091 169.224 271.501 168.898 271.076C168.343 270.387 167.655 270.224 166.48 270.224H163.995ZM163.96 266.955H166.084C166.739 266.955 167.066 266.955 167.392 266.856C168.279 266.593 168.834 265.811 168.834 264.731C168.834 263.453 168.244 262.899 167.392 262.636C167.036 262.537 166.674 262.507 165.956 262.507H163.96V266.955ZM179.106 278.307V262.572H173.643V259.397H188.823L187.743 262.572H182.9V278.307H179.106ZM190.002 278.307V259.397H202.299L201.22 262.572H193.762V266.757H196.807C199.259 266.757 200.536 267.345 201.418 268.099C202.107 268.688 203.28 269.996 203.28 272.581C203.28 275.132 202.072 276.539 201.056 277.257C199.878 278.079 198.635 278.307 196.118 278.307H190.002ZM193.762 275.132H196.608C197.688 275.132 198.342 274.869 198.798 274.28C199.031 273.988 199.358 273.463 199.358 272.483C199.358 271.501 199.031 270.813 198.378 270.323C197.98 270.031 197.46 269.867 196.574 269.867H193.762V275.132Z" fill="white"/>
<path d="M157.047 254.672H141.148L140.004 257.821H155.897L157.047 254.672Z" fill="white"/>
<path d="M155.327 259.397H139.429L138.279 262.548H154.178L155.327 259.397Z" fill="white"/>
<path d="M153.609 264.123H137.71L136.561 267.277H152.459L153.609 264.123Z" fill="white"/>
<path fill-rule="evenodd" clip-rule="evenodd" d="M300.478 573.632C149.78 573.632 27.6165 451.468 27.6165 300.769C27.6165 150.072 149.78 27.9078 300.478 27.9078C451.175 27.9078 573.339 150.072 573.339 300.769C573.339 451.468 451.175 573.632 300.478 573.632ZM300.456 13.0998C141.58 13.0998 12.7871 141.895 12.7871 300.769C12.7871 459.645 141.58 588.438 300.456 588.438C459.331 588.438 588.124 459.645 588.124 300.769C588.124 141.895 459.331 13.0998 300.456 13.0998Z" fill="white"/>
<path d="M387.416 274.107L373.899 280.166L378.183 264.194L396.764 256.969H407.8L384.755 348.498H368.915L387.416 274.107Z" fill="white"/>
<path d="M468.268 271.12L471.551 256.968H417.539L406.47 300.455L414.974 307.083C419.403 304.876 425.034 303.319 429.576 303.319C441.392 303.319 448.319 309.161 448.747 317.34C449.236 326.687 440.844 334.995 427.991 334.995C418.979 334.995 408.426 329.459 401.33 320.652L397.192 336.905C404.332 344.073 415.59 349.277 427.442 349.277C451.33 349.277 466.086 333.568 465.154 315.783C464.331 300.073 452.116 289.947 435.239 289.947C431.474 289.947 426.848 290.856 423.663 292.023L429.448 271.12H468.268Z" fill="white"/>
<path d="M430.003 418.94C429.19 417.382 428.378 415.823 427.509 414.295C428.377 415.823 429.19 417.383 430.003 418.94Z" fill="white"/>
<path d="M448.468 411.765C448.333 411.945 448.198 412.125 448.062 412.304C448.198 412.124 448.333 411.945 448.468 411.765Z" fill="white"/>
<path d="M389.326 370.529C386.902 368.672 384.429 366.888 381.898 365.188C384.429 366.888 386.898 368.68 389.326 370.529Z" fill="white"/>
<path d="M471.033 228.697C471.468 229.724 471.924 230.741 472.34 231.774C471.925 230.741 471.468 229.724 471.033 228.697Z" fill="white"/>
<path d="M469.338 224.73L469.335 224.732C469.347 224.758 469.36 224.783 469.372 224.81C469.36 224.783 469.35 224.756 469.338 224.73Z" fill="white"/>
<path d="M474.065 236.323C474.372 237.147 474.699 237.965 474.992 238.794C474.699 237.965 474.371 237.147 474.065 236.323Z" fill="white"/>
<path d="M394.31 374.494C393.514 373.826 392.708 373.174 391.898 372.525C392.71 373.171 393.513 373.829 394.31 374.494Z" fill="white"/>
<path d="M480.758 342.17C473.223 375.093 456.89 404.698 434.371 428.366C426.318 409.842 414.424 393.033 399.496 379.225C382.954 363.922 363.034 352.645 341.554 346.327L350.256 310.589C351.558 310.649 353.328 310.694 356.188 310.83C356.188 310.83 358.504 301.975 359.602 297.983L374.48 240.734C401.399 226.366 423.732 204.303 438.471 177.67C440.639 180.097 442.752 182.577 444.792 185.122C471.366 218.26 485.411 258.277 485.411 300.847C485.411 306.982 485.11 313.046 484.523 319.029C484.206 322.253 482.782 332.822 480.758 342.17ZM366.392 473.758L334.48 375.377L338.347 359.497C377.211 371.154 409.167 400.666 423.91 438.523C407.194 453.547 387.738 465.574 366.392 473.758ZM300.339 485.955C282.574 485.955 265.387 483.433 249.111 478.737L261.706 434.309C289.084 447.065 318.01 455.887 347.888 460.581L353.582 478.135C336.712 483.213 318.842 485.955 300.339 485.955ZM176.764 438.519C191.506 400.477 222.868 371.357 262.104 359.562L265.046 372.895L236.243 474.503C214.126 466.311 193.991 454.005 176.764 438.519ZM119.92 342.167C159.62 326.533 201.202 316.173 243.716 311.307L253.712 348.029C214.374 361.246 182.7 390.439 166.294 428.351C143.78 404.685 127.452 375.083 119.92 342.167ZM115.267 300.847C115.267 253.626 133.047 210.487 162.25 177.75C176.612 203.657 198.199 225.283 224.212 239.653L240.118 298.087C197.998 303.083 156.786 313.339 117.352 328.637C115.982 319.57 115.267 310.291 115.267 300.847ZM300.339 115.741C301.14 115.741 301.943 115.764 302.746 115.774L208.934 183.526L219.012 220.55C199.308 207.044 183.094 188.737 172.119 167.496C205.406 135.465 250.611 115.741 300.339 115.741ZM329.815 112.921C330.935 112.16 332.568 111.356 334.074 111.733C335.27 112.034 336.411 113.072 337.219 114.588L360.799 165.241C315.487 193.65 276.983 232.083 248.475 277.255L224.455 189.014L329.815 112.921ZM304.964 297.862L262.826 329.974L253.383 295.286C281.047 247.63 320.03 207.117 366.562 177.619L373.194 191.866L345.65 297.862H304.964ZM324.608 388.811L343.179 446.065C316.251 441.219 290.176 432.857 265.443 421.123L276.878 380.782L324.608 388.811ZM320.779 374.438L277.646 367.183L271.7 340.231L309.535 311.401H336.128L320.779 374.438ZM428.604 167.437C417.183 189.577 400.094 208.485 379.315 222.131L387.519 190.563L356.772 124.518C383.572 133.122 408.239 147.885 428.604 167.437ZM455.352 176.652C428.351 142.98 390.744 118.789 349.172 108.261C346.538 103.289 342.362 99.8582 337.375 98.6048C332.348 97.3408 326.924 98.4782 322.088 101.803L320.156 103.199C313.599 102.55 306.95 102.202 300.339 102.202C190.827 102.202 101.732 191.314 101.732 300.847C101.732 410.382 190.827 499.494 300.339 499.494C409.851 499.494 498.947 410.382 498.947 300.847C498.947 255.817 483.464 211.71 455.352 176.652Z" fill="white"/>
</g>
</g>
<defs>
<clipPath id="clip0_1909_1634">
<rect width="600" height="600" fill="white"/>
</clipPath>
</defs>
</svg>
