<svg width="300" height="56" viewBox="0 0 300 56" fill="none" xmlns="http://www.w3.org/2000/svg">
<path fill-rule="evenodd" clip-rule="evenodd" d="M28.9105 39.1185C28.9105 39.6216 28.8936 40.0502 28.8629 40.4005C28.8347 40.7574 28.7905 41.0568 28.7302 41.31C28.6713 41.561 28.587 41.7768 28.4885 41.9583C28.3867 42.139 28.2259 42.3488 28.0063 42.5772C27.7813 42.8086 27.354 43.1055 26.7218 43.4692C26.0876 43.8301 25.3114 44.1796 24.3952 44.5126C23.4785 44.844 22.4304 45.1193 21.2543 45.3416C20.075 45.5632 18.8005 45.6738 17.4315 45.6738C14.7527 45.6736 12.3357 45.2619 10.1807 44.4329C8.02618 43.6097 6.19329 42.3756 4.68216 40.7327C3.17258 39.0938 2.01438 37.0453 1.21004 34.5896C0.403604 32.131 0 29.2714 0 26.014C0 22.6893 0.442902 19.7387 1.33096 17.1616C2.21466 14.5846 3.4526 12.4195 5.04535 10.6709C6.63582 8.91676 8.54521 7.58618 10.7707 6.67876C12.9962 5.77513 15.4472 5.32388 18.1261 5.32388C19.2143 5.32388 20.2598 5.41234 21.267 5.59174C22.2762 5.77513 23.2077 6.01166 24.0624 6.30439C24.9195 6.59769 25.6891 6.9339 26.3735 7.31832C27.0586 7.69876 27.5368 8.02756 27.8073 8.29675C28.0786 8.56879 28.2641 8.79507 28.3692 8.9758C28.4657 9.15653 28.5494 9.38775 28.609 9.67308C28.6713 9.95422 28.7129 10.2851 28.7429 10.6709C28.7725 11.0513 28.7905 11.5227 28.7905 12.0886C28.7905 12.6932 28.7698 13.205 28.7302 13.6276C28.6888 14.0489 28.6178 14.3951 28.5192 14.6529C28.4154 14.9181 28.2943 15.1091 28.1576 15.231C28.0143 15.3494 27.8556 15.4104 27.6735 15.4104C27.3694 15.4104 26.9876 15.235 26.5255 14.882C26.0608 14.5276 25.4613 14.1381 24.7253 13.7041C23.9927 13.2694 23.1174 12.8775 22.0995 12.5254C21.0802 12.1731 19.8679 11.9969 18.4589 11.9969C16.908 11.9967 15.5223 12.3143 14.3042 12.9485C13.0852 13.582 12.0485 14.491 11.1932 15.6663C10.3361 16.8448 9.68649 18.2674 9.24379 19.9397C8.79844 21.6112 8.57803 23.4937 8.57803 25.5893C8.57803 27.8843 8.81573 29.8702 9.29203 31.5537C9.76152 33.2345 10.4379 34.6203 11.3146 35.706C12.1891 36.792 13.2466 37.6019 14.4889 38.139C15.7239 38.6733 17.1194 38.938 18.6698 38.938C20.0803 38.9378 21.2978 38.7698 22.3244 38.4389C23.3539 38.1101 24.2344 37.7412 24.9685 37.334C25.7039 36.9348 26.3078 36.5718 26.7807 36.251C27.2549 35.9283 27.6226 35.7662 27.8844 35.7662C28.0826 35.766 28.2479 35.8077 28.3692 35.8861C28.4885 35.9683 28.587 36.1291 28.6713 36.3697C28.7503 36.6106 28.8099 36.9489 28.8515 37.3836C28.8888 37.8147 28.9103 38.3935 28.9105 39.1185Z" fill="#E31F25"/>
<path fill-rule="evenodd" clip-rule="evenodd" d="M65.532 29.7534C65.532 30.6794 65.3222 31.3674 64.911 31.8106C64.4937 32.2499 63.9278 32.4764 63.2032 32.4764L46.7982 32.4762C46.7982 33.62 46.9375 34.6616 47.208 35.5992C47.4793 36.5372 47.9104 37.3309 48.5059 37.9861C49.0999 38.6416 49.8653 39.1365 50.803 39.4801C51.7398 39.8209 52.861 39.9959 54.1696 39.9959C55.4996 39.9957 56.6669 39.8974 57.6742 39.7071C58.6836 39.5148 59.5534 39.3039 60.2867 39.0723C61.024 38.8405 61.6321 38.6296 62.115 38.4373C62.5978 38.249 62.9923 38.1522 63.2917 38.1522C63.4739 38.152 63.6266 38.1896 63.745 38.2566C63.8684 38.3287 63.9694 38.4548 64.0497 38.6336C64.1281 38.8151 64.1856 39.0723 64.2153 39.4038C64.2454 39.7366 64.2608 40.1538 64.2608 40.6596C64.2608 41.1021 64.25 41.478 64.232 41.7912C64.2099 42.1039 64.1811 42.3706 64.1389 42.591C64.1 42.8138 64.0383 42.9987 63.9593 43.15C63.8798 43.2995 63.7718 43.4475 63.6412 43.5888C63.5094 43.7292 63.1531 43.9189 62.569 44.1594C61.9831 44.4017 61.2403 44.6376 60.3349 44.8713C59.4275 45.1016 58.39 45.3019 57.2201 45.4767C56.0528 45.6441 54.8057 45.7324 53.4757 45.7324C51.079 45.7324 48.9807 45.4306 47.1773 44.825C45.3757 44.2217 43.8687 43.3061 42.6606 42.0773C41.4498 40.8483 40.5511 39.298 39.9558 37.4276C39.361 35.5522 39.0664 33.3603 39.0664 30.8423C39.0664 28.4459 39.3772 26.2877 40.0019 24.3635C40.6253 22.4413 41.5336 20.8087 42.7229 19.4713C43.9077 18.1297 45.3535 17.1099 47.0586 16.4054C48.7563 15.7008 50.675 15.3478 52.8093 15.3478C55.0656 15.3478 56.9951 15.6808 58.597 16.3464C60.1969 17.0086 61.5116 17.9296 62.5382 19.1097C63.5643 20.2861 64.3197 21.6807 64.8053 23.2912C65.2895 24.9011 65.5318 26.6525 65.5318 28.5479L65.532 29.7534ZM58.1564 27.5801C58.2181 25.4463 57.7907 23.7715 56.8746 22.5526C55.9576 21.335 54.5439 20.7229 52.6292 20.7229C51.6622 20.7227 50.8231 20.9052 50.1044 21.2674C49.394 21.6304 48.7985 22.1173 48.325 22.7341C47.8483 23.3488 47.4878 24.0715 47.2388 24.9073C46.983 25.743 46.8403 26.6324 46.7982 27.5801H58.1564Z" fill="#E31F25"/>
<path fill-rule="evenodd" clip-rule="evenodd" d="M114.441 43.8592C114.483 44.364 114.25 44.7184 113.745 44.9187C113.243 45.1193 112.346 45.2207 111.058 45.2207C110.272 45.2205 109.641 45.2093 109.17 45.1892C108.696 45.1715 108.333 45.1195 108.083 45.0398C107.828 44.958 107.658 44.8443 107.568 44.6949C107.478 44.5403 107.423 44.3433 107.401 44.1035L105.802 29.6359C105.743 29.1127 105.685 28.5295 105.634 27.8847C105.584 27.2396 105.535 26.5833 105.482 25.9217C105.434 25.2579 105.388 24.5989 105.35 23.9427C105.307 23.2891 105.259 22.7004 105.198 22.1739L105.229 21.4197C105.086 21.9623 104.931 22.5565 104.759 23.2019C104.585 23.8476 104.401 24.5012 104.2 25.1683C104 25.8299 103.808 26.4916 103.625 27.1439C103.444 27.7962 103.272 28.3875 103.112 28.9105L98.366 43.8303C98.2892 44.0701 98.1684 44.2844 98.0052 44.4625C97.847 44.6459 97.6179 44.7907 97.3287 44.9025C97.036 45.0136 96.6617 45.0933 96.2102 45.1463C95.7569 45.1972 95.1857 45.2207 94.5032 45.2207C93.879 45.2205 93.3486 45.1972 92.9173 45.1463C92.4828 45.0933 92.1196 45.0138 91.8311 44.9025C91.5378 44.7905 91.3086 44.6461 91.1499 44.4625C90.988 44.2842 90.8773 44.0621 90.8177 43.7996L86.1961 28.9105C86.0347 28.3874 85.8599 27.8042 85.667 27.1587C85.4756 26.5137 85.2833 25.8595 85.0918 25.1985C84.9002 24.5319 84.7201 23.873 84.5479 23.2175C84.3786 22.5637 84.2332 21.9623 84.1113 21.4199L84.1428 22.1739C84.0993 22.7002 84.0617 23.2891 84.0209 23.9427C83.9774 24.5989 83.9311 25.2581 83.8696 25.9217C83.8107 26.5831 83.7456 27.2396 83.6868 27.8847C83.6272 28.5295 83.5789 29.1129 83.5347 29.6359L81.9944 43.9207C81.9549 44.1825 81.8845 44.3996 81.7835 44.573C81.6836 44.7417 81.4929 44.879 81.2088 44.9789C80.9288 45.0798 80.5452 45.1463 80.063 45.1751C79.5815 45.2072 78.9458 45.2207 78.1596 45.2207C77.4551 45.2205 76.8885 45.2006 76.468 45.1611C76.0447 45.1193 75.7166 45.0438 75.4856 44.9346C75.2546 44.8215 75.1044 44.6808 75.0334 44.5128C74.9611 44.3406 74.9351 44.1236 74.9565 43.8592L77.616 18.6426C77.7162 17.7754 77.9962 17.1271 78.4617 16.6939C78.9245 16.2611 79.6296 16.0462 80.5767 16.0462L84.4141 16.046C85.2176 16.046 85.9028 16.1052 86.4666 16.2257C87.0314 16.3482 87.5221 16.5564 87.9473 16.8585C88.3707 17.1618 88.7209 17.5764 89.0049 18.0989C89.2868 18.6198 89.538 19.2776 89.7603 20.0624L92.7801 29.3048C92.961 29.9057 93.143 30.5354 93.3237 31.1922C93.5073 31.8466 93.6881 32.4989 93.8682 33.1538C94.0491 33.8069 94.2139 34.4411 94.3665 35.0566C94.5186 35.6711 94.6545 36.2512 94.7764 36.7924L94.8066 36.7922C94.9258 36.251 95.0651 35.6559 95.2297 35.0123C95.3884 34.3686 95.5559 33.7152 95.7254 33.0494C95.8976 32.3844 96.0783 31.7313 96.2693 31.0872C96.4614 30.4414 96.6489 29.8375 96.8297 29.2716L99.8515 20.0624C100.05 19.3364 100.275 18.7175 100.514 18.2027C100.758 17.6896 101.068 17.2765 101.451 16.9636C101.832 16.6569 102.307 16.4226 102.87 16.2724C103.436 16.1196 104.13 16.0461 104.956 16.0461L108.76 16.0459C109.729 16.0459 110.45 16.2612 110.921 16.6939C111.395 17.1271 111.67 17.7754 111.754 18.6426L114.441 43.8592Z" fill="#E31F25"/>
<path fill-rule="evenodd" clip-rule="evenodd" d="M147.679 29.7534C147.679 30.6794 147.471 31.3674 147.059 31.8106C146.645 32.2499 146.076 32.4764 145.352 32.4764L128.947 32.4762C128.947 33.62 129.084 34.6616 129.354 35.5992C129.628 36.5372 130.062 37.3309 130.657 37.9861C131.249 38.6416 132.014 39.1365 132.95 39.4801C133.886 39.8209 135.01 39.9959 136.319 39.9959C137.649 39.9957 138.816 39.8974 139.823 39.7071C140.829 39.5148 141.702 39.3039 142.436 39.0723C143.171 38.8405 143.781 38.6296 144.264 38.4373C144.749 38.249 145.141 38.1522 145.442 38.1522C145.622 38.152 145.773 38.1896 145.894 38.2566C146.015 38.3287 146.117 38.4548 146.196 38.6336C146.28 38.8151 146.334 39.0723 146.366 39.4038C146.397 39.7366 146.407 40.1538 146.407 40.6596C146.407 41.1021 146.4 41.478 146.378 41.7912C146.359 42.1039 146.328 42.3706 146.289 42.591C146.248 42.8138 146.187 42.9987 146.105 43.15C146.026 43.2995 145.92 43.4475 145.79 43.5888C145.658 43.7292 145.299 43.9189 144.718 44.1594C144.132 44.4017 143.389 44.6376 142.481 44.8713C141.575 45.1016 140.539 45.3019 139.371 45.4767C138.201 45.6441 136.952 45.7324 135.622 45.7324C133.225 45.7324 131.128 45.4306 129.326 44.825C127.522 44.2217 126.017 43.3061 124.808 42.0773C123.601 40.8483 122.7 39.298 122.105 37.4276C121.51 35.5522 121.215 33.3603 121.215 30.8423C121.215 28.4459 121.526 26.2877 122.152 24.3635C122.775 22.4413 123.68 20.8087 124.869 19.4713C126.059 18.1297 127.505 17.1099 129.205 16.4054C130.906 15.7008 132.824 15.3478 134.959 15.3478C137.215 15.3478 139.142 15.6808 140.745 16.3464C142.347 17.0086 143.661 17.9296 144.687 19.1097C145.714 20.2861 146.466 21.6807 146.952 23.2912C147.436 24.9011 147.679 26.6525 147.679 28.5479V29.7533L147.679 29.7534ZM140.307 27.5801C140.367 25.4463 139.94 23.7715 139.021 22.5526C138.108 21.335 136.692 20.7229 134.778 20.7229C133.814 20.7227 132.972 20.9052 132.256 21.2674C131.54 21.6304 130.945 22.1173 130.473 22.7341C130 23.3488 129.638 24.0715 129.385 24.9073C129.131 25.743 128.987 26.6324 128.947 27.5801H140.307Z" fill="#E31F25"/>
<path fill-rule="evenodd" clip-rule="evenodd" d="M185.107 30.1478C185.107 32.5441 184.852 34.706 184.338 36.6287C183.825 38.5521 183.074 40.1863 182.087 41.5343C181.1 42.885 179.87 43.9198 178.399 44.6452C176.928 45.3725 175.247 45.7334 173.356 45.7334C172.571 45.7334 171.85 45.6584 171.193 45.5057C170.542 45.3563 169.908 45.1247 169.293 44.8126C168.678 44.499 168.067 44.114 167.464 43.6493C166.86 43.1865 166.235 42.6441 165.594 42.0186V54.7055C165.594 54.9018 165.532 55.0846 165.411 55.2473C165.292 55.4081 165.083 55.5419 164.791 55.6553C164.496 55.765 164.112 55.8534 163.629 55.9123C163.143 55.9725 162.532 56 161.785 56C161.04 56 160.426 55.9727 159.943 55.9123C159.459 55.8533 159.075 55.765 158.78 55.6553C158.487 55.5419 158.283 55.4081 158.161 55.2473C158.039 55.0844 157.979 54.9018 157.979 54.7055V17.0733C157.979 16.8709 158.029 16.693 158.129 16.5396C158.232 16.39 158.406 16.2649 158.66 16.1626C158.909 16.062 159.242 15.9904 159.655 15.9388C160.069 15.8879 160.587 15.8611 161.212 15.8611C161.816 15.861 162.325 15.8879 162.737 15.9388C163.149 15.9904 163.482 16.062 163.735 16.1626C163.984 16.2647 164.16 16.3902 164.264 16.5396C164.365 16.693 164.412 16.8711 164.412 17.0733V20.2428C165.2 19.4339 165.969 18.7275 166.724 18.1113C167.481 17.4991 168.249 16.9856 169.035 16.5744C169.822 16.1598 170.633 15.8511 171.47 15.6529C172.302 15.4505 173.195 15.3488 174.142 15.3488C176.116 15.3488 177.797 15.7393 179.187 16.5121C180.576 17.2863 181.709 18.3478 182.585 19.6972C183.464 21.0466 184.101 22.6171 184.502 24.4086C184.907 26.2034 185.107 28.1162 185.107 30.1478ZM177.192 30.6911C177.192 29.5426 177.107 28.4397 176.934 27.386C176.767 26.33 176.472 25.387 176.058 24.5633C175.646 23.7347 175.102 23.0752 174.429 22.5824C173.754 22.0894 172.912 21.8437 171.905 21.8437C171.403 21.8435 170.903 21.9193 170.41 22.0694C169.918 22.2213 169.413 22.4664 168.901 22.8094C168.388 23.1536 167.857 23.5942 167.313 24.1387C166.771 24.6824 166.196 25.3555 165.594 26.1625V35.0401C166.659 36.3908 167.676 37.4325 168.643 38.1685C169.609 38.9037 170.617 39.2701 171.666 39.2701C172.652 39.2699 173.494 39.0155 174.187 38.5147C174.882 38.0117 175.45 37.3527 175.894 36.5383C176.335 35.7211 176.663 34.7977 176.876 33.7732C177.086 32.7465 177.192 31.7185 177.192 30.6911Z" fill="#E31F25"/>
<path fill-rule="evenodd" clip-rule="evenodd" d="M221.624 44.1035C221.624 44.3044 221.566 44.4779 221.455 44.6153C221.343 44.7577 221.149 44.8731 220.869 44.9635C220.585 45.0544 220.207 45.1195 219.733 45.1611C219.26 45.2004 218.659 45.2207 217.936 45.2207C217.211 45.2205 216.603 45.2006 216.108 45.1611C215.614 45.1193 215.213 45.0546 214.9 44.9635C214.588 44.8731 214.365 44.7579 214.236 44.6153C214.105 44.4779 214.04 44.3045 214.04 44.1035V32.0822C214.04 31.237 214.063 30.3598 214.114 29.4524C214.165 28.5497 214.239 27.6629 214.342 26.7958C213.859 27.6407 213.334 28.4747 212.771 29.2897C212.204 30.106 211.631 30.9151 211.048 31.7194L201.955 44.0701C201.774 44.2958 201.601 44.4805 201.44 44.632C201.28 44.7826 201.075 44.9025 200.822 44.9937C200.571 45.0867 200.254 45.1463 199.872 45.1751C199.488 45.2072 198.993 45.2207 198.39 45.2207C197.663 45.2205 197.077 45.2006 196.626 45.1611C196.169 45.1193 195.808 45.0546 195.535 44.9635C195.264 44.8731 195.073 44.7539 194.96 44.6018C194.849 44.4517 194.797 44.2736 194.797 44.0701V17.0419C194.797 16.8585 194.849 16.6939 194.96 16.5405C195.073 16.3909 195.274 16.2658 195.566 16.1635C195.858 16.0629 196.24 15.9913 196.716 15.9397C197.184 15.8888 197.783 15.862 198.513 15.862C199.94 15.8618 200.947 15.9651 201.531 16.1635C202.116 16.3641 202.408 16.661 202.408 17.0421V29.0002C202.408 29.8288 202.377 30.6814 202.316 31.5673C202.255 32.4526 202.177 33.3093 202.075 34.1357C202.557 33.3298 203.053 32.5304 203.555 31.734C204.058 30.9411 204.593 30.1696 205.159 29.4229L214.342 17.0419C214.502 16.8196 214.674 16.6348 214.854 16.4815C215.035 16.3321 215.262 16.2102 215.533 16.1198C215.806 16.0293 216.136 15.9651 216.529 15.9222C216.925 15.8819 217.432 15.862 218.055 15.862C218.76 15.8618 219.346 15.8821 219.808 15.9222C220.271 15.9651 220.639 16.0321 220.91 16.1352C221.183 16.2369 221.37 16.3643 221.471 16.527C221.571 16.6891 221.623 16.872 221.623 17.0741V44.1035H221.624Z" fill="#E31F25"/>
<path fill-rule="evenodd" clip-rule="evenodd" d="M259.577 44.3138C259.577 44.4779 259.52 44.6106 259.411 44.7231C259.301 44.8321 259.102 44.924 258.821 44.9937C258.538 45.0647 258.151 45.1195 257.656 45.1611C257.166 45.2004 256.544 45.2207 255.8 45.2207C254.954 45.2205 254.258 45.2006 253.716 45.1611C253.171 45.1193 252.741 45.0647 252.418 44.9937C252.095 44.924 251.86 44.8175 251.722 44.6749C251.582 44.5375 251.468 44.3641 251.39 44.1612L248.884 37.7306C248.582 36.8667 248.253 36.1407 247.901 35.5541C247.551 34.9732 247.162 34.5026 246.74 34.151C246.315 33.7974 245.829 33.5456 245.288 33.3949C244.741 33.2434 244.118 33.1705 243.413 33.1705H241.875V44.161C241.875 44.3044 241.801 44.4405 241.665 44.573C241.521 44.7036 241.301 44.8175 240.996 44.9187C240.695 45.0204 240.303 45.0933 239.82 45.1463C239.336 45.1972 238.752 45.2207 238.066 45.2207C237.363 45.2205 236.768 45.1972 236.287 45.1463C235.802 45.0933 235.41 45.0204 235.106 44.9187C234.804 44.8175 234.585 44.7036 234.459 44.573C234.327 44.4405 234.26 44.3045 234.26 44.1612V16.8885C234.26 16.7493 234.327 16.6134 234.459 16.4815C234.585 16.3543 234.804 16.2398 235.106 16.1513C235.41 16.0608 235.802 15.9913 236.287 15.9397C236.768 15.8888 237.362 15.862 238.066 15.862C238.752 15.8618 239.336 15.8888 239.82 15.9397C240.303 15.9913 240.695 16.061 240.996 16.1513C241.301 16.2396 241.521 16.3543 241.665 16.4815C241.801 16.6134 241.875 16.7493 241.875 16.8887L241.875 27.3715H243.413C244.038 27.3715 244.602 27.2952 245.104 27.1439C245.609 26.9938 246.067 26.7401 246.479 26.3912C246.894 26.0381 247.275 25.5681 247.628 24.9868C247.979 24.4008 248.317 23.6769 248.64 22.8103L250.904 17.0103C250.967 16.8089 251.068 16.6348 251.21 16.4815C251.348 16.3321 251.566 16.2102 251.856 16.1198C252.15 16.0293 252.551 15.9651 253.064 15.9222C253.58 15.8819 254.258 15.862 255.104 15.862C255.85 15.8618 256.458 15.8821 256.933 15.9222C257.407 15.9651 257.778 16.0255 258.048 16.1052C258.322 16.1847 258.509 16.2812 258.611 16.3911C258.711 16.5035 258.76 16.6383 258.76 16.7996C258.76 16.9991 258.721 17.2437 258.64 17.5261C258.56 17.806 258.419 18.1892 258.219 18.6728L256.074 23.8066C255.647 24.8347 255.199 25.7048 254.729 26.4193C254.255 27.135 253.773 27.7252 253.279 28.1859C252.784 28.6474 252.284 29.0231 251.783 29.305C251.279 29.5864 250.797 29.8066 250.33 29.9687V30.0295C250.957 30.2901 251.54 30.5714 252.085 30.8748C252.63 31.1768 253.146 31.5673 253.642 32.0535C254.134 32.5368 254.609 33.1358 255.062 33.8503C255.514 34.562 255.962 35.4241 256.403 36.4314L259.034 42.472C259.156 42.7346 259.249 42.9584 259.32 43.1518C259.391 43.344 259.448 43.5148 259.485 43.6682C259.526 43.817 259.549 43.9408 259.562 44.0393C259.571 44.1464 259.577 44.2362 259.577 44.3138Z" fill="#E31F25"/>
<path fill-rule="evenodd" clip-rule="evenodd" d="M279.457 20.3001H284.654C287.613 20.3001 289.97 20.5587 291.72 21.0737C293.474 21.5866 294.959 22.3454 296.178 23.3519C297.395 24.3604 298.336 25.5989 299.002 27.0688C299.666 28.5374 300 30.2091 300 32.0816C300 33.9318 299.72 35.6358 299.169 37.1841C298.615 38.7343 297.72 40.0887 296.478 41.2491C295.242 42.4077 293.625 43.3273 291.631 44.0098C289.639 44.6955 286.908 45.0391 283.444 45.0391H273.958C273.635 45.0391 273.329 44.9929 273.037 44.9018C272.743 44.8126 272.488 44.6601 272.264 44.4511C272.045 44.24 271.868 43.9756 271.739 43.6675C271.604 43.3522 271.54 42.9744 271.54 42.533V12.4491H263.264C263.063 12.4491 262.889 12.3948 262.749 12.2844C262.61 12.1725 262.482 11.9918 262.372 11.7399C262.26 11.4886 262.179 11.1613 262.131 10.7581C262.079 10.3554 262.057 9.8419 262.057 9.21847C262.057 7.99136 262.16 7.13765 262.372 6.66818C262.584 6.19396 262.881 5.95572 263.264 5.95572L276.796 5.95552C277.603 5.95552 278.248 6.19396 278.73 6.66818C279.215 7.13764 279.457 7.84688 279.457 8.79455L279.457 20.3001ZM291.841 32.7467C291.841 31.7595 291.705 30.8836 291.435 30.1187C291.162 29.3523 290.734 28.6976 290.15 28.1537C289.564 27.6119 288.815 27.1933 287.902 26.9008C286.983 26.612 285.608 26.4641 283.775 26.4641L279.457 26.4639V38.8742H283.927C285.819 38.8742 287.236 38.693 288.171 38.3178C289.109 37.9461 289.838 37.4613 290.362 36.868C290.884 36.2738 291.265 35.6157 291.494 34.8911C291.726 34.1636 291.841 33.4498 291.841 32.7467Z" fill="#E31F25"/>
<path fill-rule="evenodd" clip-rule="evenodd" d="M36.5742 1.11674V9.54297H37.9145V2.2309H40.334V9.54297H41.6743V1.11674H36.5742Z" fill="#E31F25"/>
<path fill-rule="evenodd" clip-rule="evenodd" d="M46.8003 12.8848H48.122V8.70824H48.1569C48.3831 9.178 48.8353 9.68292 49.6354 9.68292C50.9574 9.6827 52.2445 8.44734 52.2445 5.31488C52.2447 2.54788 51.2878 0.999342 49.8093 0.999342C49.1483 0.999118 48.4873 1.31252 48.0178 2.20001L47.9831 2.19978L47.9135 1.12101H46.7305C46.748 1.71244 46.8001 2.46091 46.8001 3.74877L46.8003 12.8848ZM48.122 4.30551C48.122 4.0793 48.1396 3.85309 48.1743 3.6618C48.2439 2.89598 48.8004 2.14774 49.4093 2.14774C50.4878 2.14774 50.9052 3.60953 50.9052 5.34981C50.9054 7.03758 50.5399 8.56923 49.4267 8.56923C49.0614 8.569 48.4526 8.36037 48.1916 7.15948C48.1396 6.95062 48.122 6.70706 48.122 6.4635V4.30551Z" fill="#E31F25"/>
<path fill-rule="evenodd" clip-rule="evenodd" d="M57.0195 1.11674V9.54297H58.3942C59.0208 8.18492 59.7865 6.26989 60.065 5.57362C60.4304 4.65083 60.7786 3.71067 61.0744 2.6488H61.1265C61.0395 3.95433 60.9872 4.94678 60.9872 6.7748L60.9874 9.54297H62.2231V1.11674H60.8133L59.4037 4.75518C59.0208 5.73028 58.5335 6.93145 58.1506 8.04562H58.1159C58.2203 6.7225 58.2376 5.46904 58.2376 4.00662V1.11674H57.0195Z" fill="#E31F25"/>
<path fill-rule="evenodd" clip-rule="evenodd" d="M67.3333 12.8848H68.6552V8.70824H68.6901C68.9163 9.178 69.3685 9.68292 70.1686 9.68292C71.4906 9.6827 72.7777 8.44734 72.7777 5.31488C72.7777 2.54788 71.821 0.999342 70.3425 0.999342C69.6815 0.999118 69.0205 1.31252 68.551 2.20001L68.5161 2.19978L68.4465 1.12101H67.2637C67.2812 1.71244 67.3333 2.46091 67.3333 3.74877V12.8848ZM68.6552 4.30551C68.6552 4.0793 68.6726 3.85309 68.7075 3.6618C68.7771 2.89598 69.3336 2.14774 69.9425 2.14774C71.0208 2.14774 71.4384 3.60953 71.4384 5.34981C71.4384 7.03758 71.0731 8.56923 69.9599 8.56923C69.5946 8.569 68.9858 8.36037 68.7248 7.15948C68.6726 6.95062 68.6552 6.70706 68.6552 6.4635V4.30551Z" fill="#E31F25"/>
<path fill-rule="evenodd" clip-rule="evenodd" d="M80.0214 1.00019C78.5745 1.00019 77.1973 2.28712 77.1973 5.34774C77.1975 8.3039 78.4176 9.67773 79.9343 9.67773C81.2415 9.67751 82.7408 8.58217 82.7408 5.33018C82.7408 2.4087 81.5379 1.00042 80.0214 1.00042V1.00019ZM79.969 2.06085C81.1544 2.06085 81.3984 4.04348 81.3984 5.33018C81.3984 6.65178 81.1544 8.61685 80.0038 8.61685C78.7837 8.61685 78.5397 6.72135 78.5397 5.33018C78.5397 4.04348 78.7663 2.06108 79.969 2.06108V2.06085Z" fill="#E31F25"/>
<path fill-rule="evenodd" clip-rule="evenodd" d="M88.231 1.11779V3.57273C88.231 4.72197 88.1095 5.74926 87.8485 6.70689C87.6747 7.33358 87.4138 7.9605 87.0663 8.50041L86.5098 8.51777L86.5793 11.791H87.6052L87.6921 9.54506H92.0389L92.126 11.791H93.1518L93.2212 8.51777L92.5085 8.50018V1.11779H88.231ZM89.4136 2.19715H91.187V8.48282H88.3877C88.6833 7.9605 88.8917 7.38588 89.0484 6.77654C89.344 5.74903 89.4136 4.60024 89.4136 3.43363V2.19715Z" fill="#E31F25"/>
<path fill-rule="evenodd" clip-rule="evenodd" d="M97.8496 1.11674V9.54297H99.191V5.83464H101.682V9.54297H103.024V1.11674H101.682V4.68554H99.191V1.11674H97.8496Z" fill="#E31F25"/>
<path fill-rule="evenodd" clip-rule="evenodd" d="M112.604 3.97353C112.604 2.09555 111.891 1.00019 110.203 1.00019C109.368 0.999969 108.602 1.29582 108.237 1.55654L108.532 2.49542C108.933 2.21736 109.402 2.06088 109.924 2.06088C110.968 2.06066 111.264 2.82594 111.264 3.95642V4.21715C109.368 4.23448 107.68 5.15625 107.68 7.27785C107.68 8.73863 108.55 9.67773 109.663 9.67773C110.394 9.67751 110.986 9.29498 111.351 8.65172L111.404 8.65149L111.49 9.53859H112.691C112.621 8.99935 112.604 8.26896 112.604 7.62571V3.97353ZM111.299 6.87776C111.299 7.03423 111.282 7.20828 111.247 7.36476C111.09 8.19962 110.603 8.63416 110.011 8.63416C109.542 8.63416 108.985 8.25163 108.985 7.13871C108.985 5.31251 110.603 5.17359 111.299 5.17359L111.299 6.87776Z" fill="#E31F25"/>
<path fill-rule="evenodd" clip-rule="evenodd" d="M122.506 1.18725C122.037 1.06532 121.393 1.01326 120.697 1.01326C119.775 1.01326 118.871 1.23954 118.366 1.63981C117.827 2.05744 117.514 2.59722 117.514 3.398C117.514 4.61662 118.384 5.26076 119.375 5.46946V5.50439C118.923 5.57381 118.558 5.81767 118.331 6.0613C117.757 6.70544 117.601 7.85442 117.375 8.67255C117.271 9.03789 117.149 9.28175 116.992 9.54297H118.401C118.488 9.36875 118.558 9.15982 118.627 8.91619C118.906 7.88891 119.01 6.84472 119.567 6.33987C119.81 6.11359 120.193 5.9396 120.802 5.9396H121.202V9.54297H122.506V1.18725ZM121.202 5.03425C121.132 5.03425 120.854 5.03425 120.68 5.03425C119.775 5.03425 118.853 4.45998 118.853 3.45028C118.853 2.37094 119.688 1.93573 120.628 1.93573C120.836 1.93551 121.028 1.95331 121.202 1.98802V5.03425Z" fill="#E31F25"/>
<path fill-rule="evenodd" clip-rule="evenodd" d="M133.639 1.11674V9.54297H134.979V2.2309H137.398V9.54297H138.739V1.11674H133.639Z" fill="#E31F25"/>
<path fill-rule="evenodd" clip-rule="evenodd" d="M143.869 1.11674V9.54297H145.244C145.871 8.18492 146.636 6.26989 146.915 5.57362C147.28 4.65083 147.628 3.71067 147.924 2.6488H147.976C147.889 3.95433 147.837 4.94678 147.837 6.7748V9.54297H149.073V1.11674H147.663L146.253 4.75518C145.871 5.73028 145.383 6.93145 145 8.04562H144.965C145.07 6.7225 145.087 5.46904 145.087 4.00662V1.11674H143.869Z" fill="#E31F25"/>
<path fill-rule="evenodd" clip-rule="evenodd" d="M153.373 1.11674V2.2309H155.284V9.54297H156.622V2.2309H158.532V1.11674H153.373Z" fill="#E31F25"/>
<path fill-rule="evenodd" clip-rule="evenodd" d="M162.805 1.11788V9.49349C163.344 9.58028 163.952 9.63281 164.525 9.63281C165.534 9.63281 166.507 9.3891 167.203 8.81444C167.776 8.36151 168.141 7.66511 168.141 6.75971C168.141 4.86144 166.646 4.04329 164.925 4.04329C164.699 4.04329 164.456 4.07801 164.126 4.09559V1.11788H162.805ZM164.126 5.12273C164.3 5.10537 164.456 5.08801 164.682 5.08801C165.795 5.08779 166.768 5.59302 166.768 6.81201C166.768 8.03078 165.829 8.58809 164.717 8.58809C164.508 8.58786 164.334 8.57073 164.126 8.55314V5.12273Z" fill="#E31F25"/>
<path fill-rule="evenodd" clip-rule="evenodd" d="M177.657 5.45294C177.674 5.2441 177.691 5.0179 177.691 4.68741C177.692 2.80804 176.996 0.998508 175.293 0.998508C173.608 0.998284 172.443 2.70373 172.443 5.41824C172.443 7.99331 173.486 9.64648 175.502 9.64648C176.18 9.64648 176.892 9.48991 177.361 9.24637L177.135 8.27177C176.805 8.44569 176.336 8.58514 175.745 8.58514C174.789 8.58492 173.764 8.04558 173.764 5.45294H177.657ZM173.782 4.46099C173.834 3.31246 174.268 2.0425 175.154 2.0425C175.797 2.0425 176.423 2.79069 176.405 4.46121L173.782 4.46099Z" fill="#E31F25"/>
<path fill-rule="evenodd" clip-rule="evenodd" d="M182.406 9.57495C182.737 9.60986 183.364 9.66211 184.13 9.66211C185.75 9.66189 187.787 9.17518 187.787 7.20943C187.787 6.06124 186.986 5.31328 185.767 5.10449L185.767 5.06958C186.725 4.82634 187.439 4.07815 187.439 3.08672C187.439 1.39912 185.697 0.999351 184.304 0.999351C183.643 0.999127 182.963 1.06872 182.406 1.17322L182.406 9.57495ZM183.73 2.04304C183.939 2.00813 184.165 1.97344 184.409 1.97344C185.349 1.97322 186.15 2.30385 186.15 3.26059C186.15 4.16531 185.14 4.68716 184.322 4.68716L183.73 4.68693V2.04304ZM183.712 5.64368H184.287C185.332 5.64368 186.446 6.07881 186.446 7.19209C186.446 8.34005 185.419 8.70536 184.391 8.70536C184.13 8.70536 183.869 8.67068 183.712 8.65333V5.64368Z" fill="#E31F25"/>
<path fill-rule="evenodd" clip-rule="evenodd" d="M196.969 3.97353C196.969 2.09555 196.256 1.00019 194.568 1.00019C193.733 0.999969 192.967 1.29582 192.602 1.55654L192.898 2.49542C193.298 2.21736 193.767 2.06088 194.289 2.06088C195.334 2.06066 195.629 2.82594 195.629 3.95642V4.21715C193.733 4.23448 192.045 5.15625 192.045 7.27785C192.045 8.73863 192.915 9.67773 194.029 9.67773C194.759 9.67751 195.351 9.29498 195.716 8.65172L195.769 8.65149L195.856 9.53859H197.056C196.986 8.99935 196.969 8.26896 196.969 7.62571V3.97353ZM195.664 6.87776C195.664 7.03423 195.647 7.20828 195.612 7.36476C195.455 8.19962 194.968 8.63416 194.377 8.63416C193.907 8.63416 193.35 8.25163 193.35 7.13871C193.35 5.31251 194.968 5.17359 195.664 5.17359L195.664 6.87776Z" fill="#E31F25"/>
<path fill-rule="evenodd" clip-rule="evenodd" d="M206.873 1.18725C206.404 1.06532 205.76 1.01326 205.064 1.01326C204.142 1.01326 203.238 1.23954 202.734 1.63981C202.194 2.05744 201.881 2.59722 201.881 3.398C201.881 4.61662 202.751 5.26076 203.742 5.46946V5.50439C203.29 5.57381 202.925 5.81767 202.699 6.0613C202.125 6.70544 201.968 7.85442 201.742 8.67255C201.638 9.03789 201.516 9.28175 201.359 9.54297H202.768C202.855 9.36875 202.925 9.15982 202.995 8.91619C203.273 7.88891 203.377 6.84472 203.934 6.33987C204.177 6.11359 204.56 5.9396 205.169 5.9396H205.569V9.54297H206.873V1.18725ZM205.569 5.03425C205.499 5.03425 205.221 5.03425 205.047 5.03425C204.142 5.03425 203.221 4.45998 203.221 3.45028C203.221 2.37094 204.055 1.93573 204.995 1.93573C205.204 1.93551 205.395 1.95331 205.569 1.98802V5.03425Z" fill="#E31F25"/>
<path fill-rule="evenodd" clip-rule="evenodd" d="M218.004 9.57495C218.335 9.60986 218.962 9.66211 219.728 9.66211C221.348 9.66189 223.385 9.17518 223.385 7.20943C223.385 6.06124 222.584 5.31328 221.365 5.10449V5.06958C222.323 4.82634 223.037 4.07815 223.037 3.08672C223.037 1.39912 221.295 0.999351 219.902 0.999351C219.24 0.999127 218.561 1.06872 218.004 1.17322L218.004 9.57495H218.004ZM219.327 2.04304C219.536 2.00813 219.763 1.97344 220.007 1.97344C220.947 1.97322 221.748 2.30385 221.748 3.26059C221.748 4.16531 220.738 4.68716 219.919 4.68716L219.327 4.68693V2.04304ZM219.31 5.64368H219.885C220.93 5.64368 222.044 6.07881 222.044 7.19209C222.044 8.34005 221.017 8.70536 219.989 8.70536C219.728 8.70536 219.467 8.67068 219.31 8.65333V5.64368Z" fill="#E31F25"/>
<path fill-rule="evenodd" clip-rule="evenodd" d="M230.534 1.00019C229.09 1.00019 227.717 2.28712 227.717 5.34774C227.717 8.3039 228.934 9.67773 230.446 9.67773C231.75 9.67751 233.246 8.58217 233.246 5.33018C233.246 2.4087 232.046 1.00042 230.534 1.00042V1.00019ZM230.482 2.06085C231.664 2.06085 231.907 4.04348 231.907 5.33018C231.907 6.65178 231.664 8.61685 230.516 8.61685C229.299 8.61685 229.055 6.72135 229.055 5.33018C229.055 4.04348 229.281 2.06108 230.481 2.06108L230.482 2.06085Z" fill="#E31F25"/>
<path fill-rule="evenodd" clip-rule="evenodd" d="M238.741 1.11779V3.57273C238.741 4.72197 238.619 5.74926 238.357 6.70689C238.183 7.33358 237.922 7.9605 237.573 8.50041L237.016 8.51777L237.086 11.791H238.114L238.201 9.54506H242.557L242.644 11.791H243.672L243.742 8.51777L243.028 8.50018V1.11779H238.741ZM239.926 2.19715H241.703V8.48282H238.898C239.194 7.9605 239.403 7.38588 239.56 6.77654C239.856 5.74903 239.926 4.60024 239.926 3.43363V2.19715Z" fill="#E31F25"/>
<path fill-rule="evenodd" clip-rule="evenodd" d="M252.864 3.97353C252.864 2.09555 252.15 1.00019 250.462 1.00019C249.627 0.999969 248.862 1.29582 248.496 1.55654L248.792 2.49542C249.192 2.21736 249.662 2.06088 250.184 2.06088C251.228 2.06066 251.524 2.82594 251.524 3.95642V4.21715C249.627 4.23448 247.939 5.15625 247.939 7.27785C247.939 8.73863 248.809 9.67773 249.923 9.67773C250.654 9.67751 251.245 9.29498 251.611 8.65172L251.663 8.65149L251.75 9.53859H252.951C252.881 8.99935 252.864 8.26896 252.864 7.62571V3.97353ZM251.559 6.87776C251.559 7.03423 251.541 7.20828 251.506 7.36476C251.35 8.19962 250.863 8.63416 250.271 8.63416C249.801 8.63416 249.245 8.25163 249.245 7.13871C249.245 5.31251 250.863 5.17359 251.559 5.17359L251.559 6.87776Z" fill="#E31F25"/>
</svg>
