<svg width="100" height="100" viewBox="0 0 100 100" fill="none" xmlns="http://www.w3.org/2000/svg">
<g clip-path="url(#clip0_1078_1274)">
<path fill-rule="evenodd" clip-rule="evenodd" d="M100 88.7947C100 97.4094 89.5813 102.792 81.2491 98.4824L6.24568 59.6879C-2.08189 55.3808 -2.08189 44.6195 6.24568 40.3124L81.2492 1.51749C89.5813 -2.79222 100 2.59077 100 11.2054V88.7947ZM9.37212 54.8443L84.3754 93.6388C88.5415 95.7938 93.7509 93.1023 93.7509 88.7947V11.2054C93.7509 6.89808 88.5415 4.20664 84.3755 6.36147L9.37212 45.156C5.20833 47.3098 5.20833 52.6905 9.37212 54.8443Z" fill="white"/>
</g>
<defs>
<clipPath id="clip0_1078_1274">
<rect width="100" height="100" fill="white" transform="matrix(-1 0 0 1 100 0)"/>
</clipPath>
</defs>
</svg>
