<svg width="100" height="100" viewBox="0 0 100 100" fill="none" xmlns="http://www.w3.org/2000/svg">
<path d="M45.5511 30.6236C45.3175 31.0295 45.1424 32.131 45.084 33.1167C45.0256 34.7401 44.6168 35.03 40.5293 37.0592L36.0331 39.2044L36.5586 41.0017C37.0257 42.6831 39.8286 47.8432 40.5877 48.5389C43.0436 51.5244 45.4343 53.8149 45.2008 54.1048C41.7297 53.9888 36.0331 47.3934 34.0656 41.0017C34.7113 38.9145 31.8288 40.0741 31.128 40.7698C30.0186 41.8714 36.3834 51.3798 40.0038 53.9888C43.0402 56.25 44.6168 56.9457 49.2883 58.1633C53.551 59.2649 54.6604 59.2069 54.6604 57.8734C54.6604 57.1773 51.8025 53.9888 51.0401 54.9165C50.4328 55.6553 48.8211 53.8149 47.4197 52.4234C44.2081 49.4086 43.5658 46.8575 45.0256 43.031C45.9015 40.8858 46.6606 40.0161 49.2299 38.5087C51.3904 37.2331 52.6751 36.0156 53.259 34.6821C53.9445 33.1167 51.3575 30.2166 50.1642 31.4353C48.5179 33.1167 47.5949 31.6092 47.3029 30.9135C46.8942 29.8119 46.1351 29.696 45.5511 30.6236Z" fill="white"/>
<path d="M75.4455 63.5063C81.7709 68.8473 90.52 82.3338 90.9874 86.6459C91.3379 89.4827 84.269 91.2984 82.458 88.8586C81.7569 87.8374 81.7569 87.3835 82.3995 85.4544C83.8016 81.5962 81.9906 77.5678 75.1554 69.3976C73.3443 67.2416 71.2412 64.8019 70.4233 63.9508C60.3165 53.6813 50.5602 42.4473 50.5602 41.1423C50.5602 40.8586 51.1444 40.6884 51.8455 40.6884C52.7218 40.6884 54.1823 41.8232 56.0518 43.9792C60.2581 48.8019 68.4997 56.4331 68.4997 56.4331L70.9096 58.9863L75.4455 63.5063Z" fill="white"/>
<path fill-rule="evenodd" clip-rule="evenodd" d="M100 88.7947C100 97.4094 89.5813 102.792 81.2491 98.4824L6.24568 59.6879C-2.08189 55.3808 -2.08189 44.6195 6.24568 40.3124L81.2492 1.51749C89.5813 -2.79222 100 2.59077 100 11.2054V88.7947ZM9.37212 54.8443L84.3754 93.6388C88.5415 95.7938 93.7509 93.1023 93.7509 88.7947V11.2054C93.7509 6.89808 88.5415 4.20664 84.3755 6.36147L9.37212 45.156C5.20833 47.3098 5.20833 52.6905 9.37212 54.8443Z" fill="white"/>
</svg>
