<svg width="100" height="100" viewBox="0 0 100 100" fill="none" xmlns="http://www.w3.org/2000/svg">
<path d="M54.4489 30.6236C54.6825 31.0295 54.8576 32.131 54.916 33.1167C54.9744 34.7401 55.3832 35.03 59.4707 37.0592L63.9669 39.2044L63.4414 41.0017C62.9743 42.6831 60.1714 47.8432 59.4123 48.5389C56.9564 51.5244 54.5657 53.8149 54.7992 54.1048C58.2703 53.9888 63.9669 47.3934 65.9344 41.0017C65.2887 38.9145 68.1712 40.0741 68.872 40.7698C69.9814 41.8714 63.6166 51.3798 59.9962 53.9888C56.9598 56.25 55.3832 56.9457 50.7117 58.1633C46.449 59.2649 45.3396 59.2069 45.3396 57.8734C45.3396 57.1773 48.1975 53.9888 48.9599 54.9165C49.5672 55.6553 51.1789 53.8149 52.5803 52.4234C55.7919 49.4086 56.4342 46.8575 54.9744 43.031C54.0985 40.8858 53.3394 40.0161 50.7701 38.5087C48.6096 37.2331 47.3249 36.0156 46.741 34.6821C46.0555 33.1167 48.6425 30.2166 49.8358 31.4353C51.4821 33.1167 52.4051 31.6092 52.6971 30.9135C53.1058 29.8119 53.8649 29.696 54.4489 30.6236Z" fill="white"/>
<path d="M24.5545 63.5063C18.2291 68.8473 9.47996 82.3338 9.01259 86.6459C8.66207 89.4827 15.731 91.2984 17.542 88.8586C18.2431 87.8374 18.2431 87.3835 17.6005 85.4544C16.1984 81.5962 18.0094 77.5678 24.8446 69.3976C26.6557 67.2416 28.7588 64.8019 29.5767 63.9508C39.6835 53.6813 49.4398 42.4473 49.4398 41.1423C49.4398 40.8586 48.8556 40.6884 48.1545 40.6884C47.2782 40.6884 45.8177 41.8232 43.9482 43.9792C39.7419 48.8019 31.5003 56.4331 31.5003 56.4331L29.0904 58.9863L24.5545 63.5063Z" fill="white"/>
<path fill-rule="evenodd" clip-rule="evenodd" d="M0 88.7947C0 97.4094 10.4187 102.792 18.7509 98.4824L93.7543 59.6879C102.082 55.3808 102.082 44.6195 93.7543 40.3124L18.7508 1.51749C10.4187 -2.79222 0 2.59077 0 11.2054V88.7947ZM90.6279 54.8443L15.6246 93.6388C11.4585 95.7938 6.24912 93.1023 6.24912 88.7947V11.2054C6.24912 6.89808 11.4585 4.20664 15.6245 6.36147L90.6279 45.156C94.7917 47.3098 94.7917 52.6905 90.6279 54.8443Z" fill="white"/>
</svg>
