<svg width="100" height="101" viewBox="0 0 100 101" fill="none" xmlns="http://www.w3.org/2000/svg">
<path d="M75.7481 1.58249C76.1374 2.25891 76.4294 4.09489 76.5267 5.7376C76.624 8.44326 77.3053 8.92641 84.1178 12.3085L91.6116 15.8838L90.7357 18.8793C89.9571 21.6816 85.2857 30.2817 84.0205 31.4413C79.9274 36.4171 75.9428 40.2347 76.3321 40.7178C82.1171 40.5246 91.6116 29.5322 94.8906 18.8793C93.8145 15.4006 98.6187 17.3333 99.7866 18.4928C101.636 20.3288 91.0276 36.1762 84.9937 40.5246C79.933 44.2931 77.3053 45.4527 69.5195 47.482C62.4151 49.3179 60.5659 49.2213 60.5659 46.9988C60.5659 45.8386 65.3291 40.5246 66.5999 42.0706C67.612 43.3021 70.2981 40.2347 72.6338 37.9155C77.9865 32.8908 79.0571 28.639 76.624 22.2614C75.1642 18.6861 73.899 17.2366 69.6169 14.7242C66.016 12.5984 63.8749 10.5691 62.9017 8.34663C61.7592 5.7376 66.0709 0.904107 68.0597 2.93532C70.8035 5.7376 72.3419 3.22521 72.8285 2.06565C73.5097 0.22967 74.7749 0.0364052 75.7481 1.58249Z" fill="white"/>
<path d="M25.9242 56.387C15.3818 65.2886 0.799932 87.7662 0.0209876 94.9529C-0.563221 99.6811 11.2183 102.707 14.2367 98.6409C15.4051 96.9388 15.4051 96.1822 14.3341 92.9671C11.9973 86.5369 15.0157 79.8229 26.4077 66.2059C29.4261 62.6125 32.9314 58.5463 34.2945 57.1279C51.1392 40.012 67.3997 21.2886 67.3997 19.1137C67.3997 18.6409 66.426 18.3572 65.2576 18.3572C63.797 18.3572 61.3628 20.2484 58.2471 23.8418C51.2366 31.8796 37.5004 44.5983 37.5004 44.5983L33.484 48.8536L25.9242 56.387Z" fill="white"/>
</svg>
