<svg width="100" height="101" viewBox="0 0 100 101" fill="none" xmlns="http://www.w3.org/2000/svg">
<path d="M24.2519 1.58249C23.8626 2.25891 23.5706 4.09489 23.4733 5.7376C23.376 8.44326 22.6947 8.92641 15.8822 12.3085L8.38843 15.8838L9.26433 18.8793C10.0429 21.6816 14.7143 30.2817 15.9795 31.4413C20.0726 36.4171 24.0572 40.2347 23.6679 40.7178C17.8829 40.5246 8.38843 29.5322 5.10939 18.8793C6.18549 15.4006 1.38127 17.3333 0.213412 18.4928C-1.6357 20.3288 8.97236 36.1762 15.0063 40.5246C20.067 44.2931 22.6947 45.4527 30.4805 47.482C37.5849 49.3179 39.4341 49.2213 39.4341 46.9988C39.4341 45.8386 34.6709 40.5246 33.4001 42.0706C32.388 43.3021 29.7019 40.2347 27.3662 37.9155C22.0135 32.8908 20.9429 28.639 23.376 22.2614C24.8358 18.6861 26.101 17.2366 30.3831 14.7242C33.984 12.5984 36.1251 10.5691 37.0983 8.34663C38.2408 5.7376 33.9291 0.904107 31.9403 2.93532C29.1965 5.7376 27.6581 3.22521 27.1715 2.06565C26.4903 0.22967 25.2251 0.0364052 24.2519 1.58249Z" fill="white"/>
<path d="M74.0758 56.387C84.6182 65.2886 99.2001 87.7662 99.979 94.9529C100.563 99.6811 88.7817 102.707 85.7633 98.6409C84.5949 96.9388 84.5949 96.1822 85.6659 92.9671C88.0027 86.5369 84.9843 79.8229 73.5923 66.2059C70.5739 62.6125 67.0686 58.5463 65.7055 57.1279C48.8608 40.012 32.6003 21.2886 32.6003 19.1137C32.6003 18.6409 33.574 18.3572 34.7424 18.3572C36.203 18.3572 38.6372 20.2484 41.7529 23.8418C48.7634 31.8796 62.4996 44.5983 62.4996 44.5983L66.516 48.8536L74.0758 56.387Z" fill="white"/>
</svg>
