<svg width="70" height="70" viewBox="0 0 70 70" fill="none" xmlns="http://www.w3.org/2000/svg">
<path fill-rule="evenodd" clip-rule="evenodd" d="M0 60C0 65.5228 4.47715 70 10 70H20C25.5228 70 30 65.5228 30 60L30 10C30 4.47715 25.5228 0 20 0H10C4.47715 0 0 4.47715 0 10L0 60ZM5 59C5 62.3137 7.68629 65 11 65H19C22.3137 65 25 62.3137 25 59L25 11C25 7.68629 22.3137 5 19 5H11C7.68629 5 5 7.68629 5 11L5 59Z" fill="white"/>
<path fill-rule="evenodd" clip-rule="evenodd" d="M40 60C40 65.5228 44.4772 70 50 70H60C65.5228 70 70 65.5228 70 60V10C70 4.47715 65.5228 0 60 0H50C44.4772 0 40 4.47715 40 10L40 60ZM45 59C45 62.3137 47.6863 65 51 65H59C62.3137 65 65 62.3137 65 59V11C65 7.68629 62.3137 5 59 5H51C47.6863 5 45 7.68629 45 11V59Z" fill="white"/>
</svg>
