<svg width="70" height="70" viewBox="0 0 70 70" fill="none" xmlns="http://www.w3.org/2000/svg">
<path fill-rule="evenodd" clip-rule="evenodd" d="M10 0C4.47715 0 0 4.47715 0 10V20C0 25.5228 4.47715 30 10 30H60C65.5229 30 70 25.5228 70 20V10C70 4.47715 65.5229 0 60 0H10ZM11 5C7.68629 5 5 7.68629 5 11V19C5 22.3137 7.68629 25 11 25H59C62.3137 25 65 22.3137 65 19V11C65 7.68629 62.3137 5 59 5H11Z" fill="white"/>
<path fill-rule="evenodd" clip-rule="evenodd" d="M10 40C4.47715 40 0 44.4772 0 50V60C0 65.5228 4.47715 70 10 70H60C65.5229 70 70 65.5228 70 60V50C70 44.4772 65.5229 40 60 40H10ZM11 45C7.68629 45 5 47.6863 5 51V59C5 62.3137 7.68629 65 11 65H59C62.3137 65 65 62.3137 65 59V51C65 47.6863 62.3137 45 59 45H11Z" fill="white"/>
</svg>
