<svg width="70" height="70" viewBox="0 0 70 70" fill="none" xmlns="http://www.w3.org/2000/svg">
<path fill-rule="evenodd" clip-rule="evenodd" d="M10 0C4.47715 0 0 4.47715 0 10V60C0 65.5229 4.47715 70 10 70H60C65.5229 70 70 65.5229 70 60V10C70 4.47715 65.5229 0 60 0H10ZM11 5C7.68629 5 5 7.68629 5 11V59C5 62.3137 7.68629 65 11 65H59C62.3137 65 65 62.3137 65 59V11C65 7.68629 62.3137 5 59 5H11Z" fill="white"/>
<rect y="22" width="70" height="5" fill="white"/>
<rect x="21" y="70" width="70" height="5" transform="rotate(-90 21 70)" fill="white"/>
<rect x="44" y="70" width="70" height="5" transform="rotate(-90 44 70)" fill="white"/>
<rect y="43" width="70" height="5" fill="white"/>
</svg>
