<svg width="100" height="100" viewBox="0 0 100 100" fill="none" xmlns="http://www.w3.org/2000/svg">
<path d="M94.1352 16.1405C95.5044 12.0308 95.2482 8.8631 93.3633 6.63606C91.1373 4.75203 87.9692 4.49606 83.8589 5.86364C79.7491 7.2337 76.0672 9.54532 72.8132 12.799L62.5394 23.0745L19.8381 12.864C19.1531 12.6496 18.5109 12.8208 17.912 13.3773L9.69211 21.5974C9.22182 22.0688 9.02862 22.6467 9.11453 23.3316C9.24296 24.0174 9.60709 24.5305 10.2063 24.8733L42.8272 42.7904L26.1953 59.4237L13.7378 56.0209C13.6524 55.9777 13.4817 55.9561 13.2246 55.9561C12.625 55.9561 12.1331 56.1485 11.7476 56.5342L5.5834 62.763C5.15539 63.2756 4.96309 63.8112 5.00583 64.3672C5.09084 65.0521 5.36906 65.5448 5.84048 65.845L22.0221 77.9817L34.1581 94.1642C34.5436 94.6361 35.0575 94.913 35.6997 95H35.8281C36.4277 95 36.9196 94.8077 37.3051 94.4228L43.4691 88.2588C44.0255 87.6585 44.1969 86.9949 43.9832 86.2673L40.5796 73.8087L57.2112 57.1744L75.1278 89.7998C75.3842 90.3565 75.8336 90.6989 76.4761 90.8275C76.6039 90.8705 76.7539 90.8914 76.9257 90.8914C77.4383 90.8914 77.8456 90.7627 78.145 90.5063L86.366 84.3416C87.0925 83.7426 87.3495 83.0368 87.1365 82.2232L76.8625 37.5268L87.2011 27.1878C90.4538 23.9328 92.7652 20.2503 94.1352 16.1405Z" fill="#A4A9AD"/>
</svg>
