<svg width="100" height="100" viewBox="0 0 100 100" fill="none" xmlns="http://www.w3.org/2000/svg">
<path d="M50.0035 24.9569L14.3389 55.991C14.3389 56.0348 14.3285 56.0992 14.3077 56.187C14.2872 56.2742 14.2764 56.3375 14.2764 56.3824V87.8077C14.2764 88.9423 14.6694 89.9256 15.4552 90.7536C16.2407 91.5822 17.171 91.999 18.2462 91.999H42.0634V66.8581H57.9438V92H81.7607C82.8357 92 83.7673 91.584 84.5518 90.7536C85.3376 89.9265 85.7319 88.9425 85.7319 87.8077V56.3824C85.7319 56.2081 85.7093 56.0765 85.6693 55.991L50.0035 24.9569Z" fill="#A4A9AD"/>
<path d="M99.3102 48.9195L85.7273 37.0039V10.292C85.7273 9.68132 85.5413 9.17913 85.1681 8.78608C84.7979 8.3935 84.3221 8.19721 83.7423 8.19721H71.8334C71.2542 8.19721 70.7787 8.3935 70.4061 8.78608C70.0344 9.17913 69.8486 9.68155 69.8486 10.292V23.0585L54.7145 9.70219C53.3928 8.56732 51.8212 8 50.0015 8C48.182 8 46.6106 8.56732 45.2876 9.70219L0.689241 48.9195C0.275812 49.2681 0.0492198 49.7372 0.00707313 50.3266C-0.0348563 50.9154 0.109616 51.4298 0.440923 51.8659L4.28648 56.7109C4.61779 57.1035 5.05142 57.3435 5.58911 57.4314C6.08553 57.4754 6.58195 57.3222 7.07837 56.9732L50.0002 19.1957L92.9224 56.973C93.2539 57.2775 93.6873 57.4295 94.225 57.4295H94.4114C94.9483 57.3433 95.381 57.1016 95.7141 56.7099L99.5601 51.8657C99.8907 51.4286 100.036 50.9152 99.9926 50.3256C99.9502 49.7379 99.7228 49.2687 99.3102 48.9195Z" fill="#A4A9AD"/>
</svg>
