<svg width="100" height="100" viewBox="0 0 100 100" fill="none" xmlns="http://www.w3.org/2000/svg">
<path d="M50 47.5C46.2112 47.5 42.5776 46.183 39.8985 43.8388C37.2194 41.4946 35.7143 38.3152 35.7143 35C35.7143 31.6848 37.2194 28.5054 39.8985 26.1612C42.5776 23.817 46.2112 22.5 50 22.5C53.7888 22.5 57.4224 23.817 60.1015 26.1612C62.7806 28.5054 64.2857 31.6848 64.2857 35C64.2857 36.6415 63.9162 38.267 63.1983 39.7835C62.4804 41.3001 61.4281 42.6781 60.1015 43.8388C58.775 44.9996 57.2001 45.9203 55.4669 46.5485C53.7337 47.1767 51.876 47.5 50 47.5ZM50 0C39.3913 0 29.2172 3.68749 21.7157 10.2513C14.2143 16.815 10 25.7174 10 35C10 61.25 50 100 50 100C50 100 90 61.25 90 35C90 25.7174 85.7857 16.815 78.2843 10.2513C70.7828 3.68749 60.6087 0 50 0Z" fill="white"/>
</svg>
