<svg width="100" height="100" viewBox="0 0 100 100" fill="none" xmlns="http://www.w3.org/2000/svg">
<g clip-path="url(#clip0_1076_1185)">
<path d="M48.446 31.3108C46.0632 31.9769 43.7473 33.4645 39.6499 36.9947C36.755 39.4813 34.9735 40.8135 33.5483 41.524C32.8358 41.9014 32.7467 41.9014 31.945 41.5462C31.0543 41.1243 30.5421 41.1465 28.1148 41.6794C27.2018 41.9014 26.6006 41.9014 25.9993 41.746L25.1309 41.524L26.1107 42.9005C27.7363 45.2096 28.9833 48.8508 29.7627 53.4689C30.0077 54.9121 30.0967 55.1341 30.364 54.9343C30.7871 54.579 31.3438 55.3117 31.2547 56.0888C31.1879 56.7327 31.1211 56.7327 33.2366 56.111C36.176 55.2451 38.3583 53.9796 40.3402 52.0035C42.9679 49.3837 43.8364 47.6741 45.9964 40.8801C47.1767 37.1279 47.7779 35.8179 49.3812 33.5311C50.3388 32.1545 50.4501 31.8881 50.2497 31.4662C49.9602 30.9334 49.8489 30.9334 48.446 31.3108Z" fill="white"/>
<path d="M1.45932 33.2202C-1.23517 33.7975 -3.99646 34.952 -6.26785 36.484L-7.20312 37.1278L-5.68887 37.5053C-1.94776 38.4822 -0.188552 40.5026 1.01395 45.1429L1.2589 46.0755L3.08492 45.9644C4.087 45.8978 5.04454 45.809 5.20042 45.7424C5.40084 45.698 5.46764 44.1882 5.46764 39.2149V32.7762L4.42103 32.7984C3.81978 32.7984 2.50594 32.9982 1.45932 33.2202Z" fill="white"/>
<path d="M6.9802 39.2371C6.93567 42.7895 6.95793 45.7202 7.02474 45.7646C7.09154 45.7868 8.02682 45.8534 9.11798 45.8978L11.0776 45.9866L11.4784 44.4103C12.5028 40.3916 14.1729 38.5932 17.8918 37.5275L19.5396 37.0612L18.4485 36.3952C16.4888 35.174 15.8431 34.841 14.262 34.2193C12.5473 33.5532 9.16251 32.7762 7.87094 32.7762H7.04701L6.9802 39.2371Z" fill="white"/>
<path d="M-10.0067 39.6812C-12.9906 42.834 -15.0616 46.897 -15.8187 51.0489L-15.9746 51.9148L-14.9057 51.0933C-12.3226 49.1395 -8.82643 47.8517 -2.99208 46.7416C-1.58917 46.4752 -0.342133 46.1866 -0.253059 46.0977C0.0141631 45.8757 -0.498012 43.9885 -1.25514 42.3677C-2.30176 40.1475 -4.32819 38.8597 -7.69073 38.2381C-8.47013 38.1048 -8.5592 38.1492 -10.0067 39.6812Z" fill="white"/>
<path d="M19.0513 38.4378C15.3547 39.3481 13.7069 40.9689 12.7271 44.6545C12.5044 45.5204 12.4598 46.0089 12.6157 46.1199C12.7493 46.1865 14.3527 46.5639 16.2232 46.9414C21.5677 48.0293 24.6184 49.1838 27.0234 51.0044C28.4041 52.048 28.4486 51.9369 27.6247 49.0728C26.9566 46.786 25.8877 44.4103 24.6852 42.5897C23.7054 41.1243 20.8996 38.1048 20.521 38.127C20.3874 38.127 19.7194 38.2824 19.0513 38.4378Z" fill="white"/>
<path d="M2.41711 47.3632L1.25915 47.452L0.991931 48.7175C0.85832 49.4058 0.56883 50.4493 0.346145 51.0488L-0.0546875 52.0923L1.19235 51.182C1.90494 50.6935 3.12971 49.8276 3.97591 49.2726C5.1116 48.4955 5.4679 48.1181 5.4679 47.7406C5.4679 47.1633 5.42336 47.1633 2.41711 47.3632Z" fill="white"/>
<path d="M6.91368 47.6962C6.93595 48.0737 7.51493 48.6065 9.05145 49.7167C10.2094 50.5604 11.4342 51.4485 11.7905 51.6927L12.414 52.1589L12.169 51.6927C12.0354 51.4485 11.7237 50.4271 11.4787 49.4058C11.256 48.4067 11.0333 47.563 10.9888 47.5408C10.9443 47.4964 10.009 47.4076 8.89557 47.3188L6.86914 47.1634L6.91368 47.6962Z" fill="white"/>
<path d="M12.5957 47.9405C12.5957 48.6288 13.3306 50.9378 14.0654 52.492C15.0007 54.5346 17.0717 57.865 17.3834 57.865C17.9624 57.865 24.2867 56.7327 26.2463 56.2886L28.4063 55.8002V54.7567C28.4063 53.8908 28.295 53.6243 27.6937 53.0471C25.0438 50.5826 21.8371 49.2282 16.2032 48.2069C12.7739 47.563 12.5957 47.563 12.5957 47.9405Z" fill="white"/>
<path d="M3.37359 50.8046C1.16901 52.5142 -0.300715 53.9796 -2.03766 56.2442L-3.4183 58.0426L-2.72798 58.1758C-2.34942 58.2424 -1.7259 58.3091 -1.34733 58.3091C-0.434326 58.3091 0.0110441 58.6199 -0.189372 59.0861C-0.300715 59.397 -0.5234 59.4414 -1.7259 59.3082C-5.95691 58.8641 -15.421 57.0657 -17.0021 56.3996C-17.4252 56.222 -17.7815 56.111 -17.8037 56.1332C-17.8483 56.1776 -17.5811 57.9982 -17.2025 60.1963C-16.7349 63.1048 -16.4454 64.2593 -16.1781 64.4813C-15.3765 65.0808 -10.9005 66.302 -6.22413 67.1679C0.434145 68.4112 1.79252 68.8108 4.08618 70.2318L5.24414 70.9645V60.1963C5.24414 54.2682 5.22187 49.4281 5.1996 49.4503C5.15506 49.4503 4.3534 50.0497 3.37359 50.8046ZM2.97275 54.0018C3.9303 54.6678 3.06183 56.0666 1.97067 55.6226C1.32488 55.3783 1.25808 54.2238 1.85933 53.8908C2.3715 53.5799 2.39377 53.5799 2.97275 54.0018ZM-10.6778 60.7291C-8.31737 62.6385 -8.2283 62.6829 -7.71612 62.3499L-7.20395 62.0169L-7.98334 61.2176C-8.74047 60.4627 -9.00769 59.8632 -8.60686 59.8632C-8.51779 59.8632 -8.00561 60.2185 -7.47117 60.6403C-6.93672 61.0622 -6.44682 61.4174 -6.38001 61.4174C-6.31321 61.4174 -5.8233 61.0622 -5.28886 60.6181L-4.30904 59.8188L-2.9952 60.9512C-2.28261 61.5728 -1.59229 62.0835 -1.48094 62.0835C-1.34733 62.0835 -0.768353 61.8837 -0.189372 61.6394C0.590025 61.3064 1.01313 61.2398 1.43623 61.373C1.99294 61.5728 1.9484 61.6172 0.612293 62.2611L-0.768353 62.9272L2.01521 65.5249C3.9303 67.3233 4.75423 68.2114 4.59835 68.3668C4.44247 68.5222 4.19752 68.4556 3.86349 68.167C0.857247 65.5027 -1.68136 63.4156 -1.85951 63.4156C-1.99312 63.4156 -2.63891 63.6821 -3.32923 64.0151L-4.554 64.6146L-5.44474 63.7487L-6.31321 62.905L-7.20395 63.5044C-8.2283 64.2149 -7.98334 64.3037 -10.7669 62.1279C-11.9249 61.2398 -12.9269 60.5959 -13.016 60.6847C-13.1051 60.7735 -13.4169 61.484 -13.6841 62.2389C-13.9958 63.1048 -14.3076 63.6377 -14.508 63.6377C-14.7084 63.6377 -14.7975 63.5044 -14.7307 63.349C-14.6862 63.2158 -14.3521 62.1057 -13.9958 60.9067C-13.6618 59.73 -13.3278 58.7531 -13.261 58.7531C-13.1942 58.7753 -12.0362 59.6634 -10.6778 60.7291Z" fill="white"/>
<path d="M7.02539 60.1519V70.9423L8.53965 70.0542C10.6106 68.8331 12.5925 68.2558 18.3823 67.1901C23.1255 66.302 27.6237 65.103 28.4699 64.4814C28.7372 64.2594 29.0267 63.1492 29.5166 60.2185C29.8729 58.0427 30.1846 56.222 30.1846 56.1776C30.1846 56.1332 29.7838 56.2443 29.2939 56.4219C26.978 57.2434 16.7345 59.1084 13.9286 59.2416C12.6148 59.3082 12.4812 59.2638 12.4812 58.8641C12.4812 58.4867 12.6816 58.3979 13.9954 58.2647C14.8416 58.1981 15.5765 58.0871 15.621 58.0205C15.6656 57.976 14.8639 56.8881 13.8173 55.5782C12.1249 53.4911 10.5661 52.0258 7.87159 50.0054L7.02539 49.3837V60.1519ZM10.3434 53.8686C10.9001 54.1572 11.0783 54.6901 10.811 55.1785C10.4993 55.8002 9.74215 55.9112 9.22997 55.4006C8.69553 54.8677 8.69553 54.6457 9.25224 54.0906C9.76441 53.58 9.80895 53.58 10.3434 53.8686ZM26.3544 61.0622C27.1784 63.7265 27.1561 63.6377 26.7775 63.6377C26.6217 63.6377 26.2431 62.9938 25.9759 62.1945C25.6864 61.3952 25.3746 60.707 25.2856 60.6403C25.1965 60.5737 24.1053 61.3286 22.8583 62.3055C21.6335 63.2824 20.5646 64.0817 20.4978 64.0817C20.431 64.0817 19.9634 63.8153 19.4735 63.4823L18.5827 62.905L17.7143 63.7487L16.8681 64.5702L15.5988 63.9929C14.8862 63.6821 14.2404 63.4157 14.1513 63.4157C14.04 63.4157 12.7707 64.437 11.3232 65.6803C7.76025 68.7443 7.9384 68.6332 7.69345 68.389C7.55983 68.2558 8.51738 67.1901 10.2989 65.5249L13.1047 62.8828L11.6795 62.2389C10.3211 61.6173 10.2766 61.5729 10.8333 61.3952C11.2564 61.2398 11.6795 61.3064 12.4589 61.6395C13.0379 61.8837 13.6169 62.0835 13.7505 62.0835C13.8841 62.0835 14.5744 61.5729 15.287 60.9512L16.6008 59.8189L17.6252 60.6625C18.3378 61.2398 18.7386 61.4174 18.939 61.2842C19.0949 61.1732 19.5848 60.7958 20.0079 60.4627C21.2104 59.508 21.4999 59.9521 20.431 61.0622L19.518 61.9725L20.0302 62.3277C20.4978 62.683 20.5869 62.6608 22.9696 60.7514C24.3057 59.6634 25.4637 58.7753 25.5305 58.7753C25.5973 58.7531 25.9759 59.7967 26.3544 61.0622Z" fill="white"/>
<path d="M15.7556 61.8837C15.377 62.2389 15.043 62.572 15.043 62.6386C15.043 62.683 15.3547 62.905 15.711 63.0826C16.3568 63.4157 16.4236 63.4157 17.0471 62.9272C17.8488 62.2833 17.8488 62.2167 17.0917 61.6839L16.4904 61.2398L15.7556 61.8837Z" fill="white"/>
<path d="M0.726005 73.0071C0.636931 74.6279 0.481052 76.2709 0.369709 76.6483C0.169293 77.3366 0.21383 77.381 1.77262 78.4689C2.64109 79.0684 3.77679 79.8899 4.31123 80.2895L5.24651 81V76.8925V72.7851L4.08855 71.897C3.08646 71.1643 1.23818 70.0764 0.94869 70.0764C0.904153 70.0764 0.792811 71.4085 0.726005 73.0071Z" fill="white"/>
<path d="M9.76441 70.8978C9.02955 71.3641 8.09428 71.9858 7.71571 72.2966L7.02539 72.8739L7.06993 76.8925L7.13673 80.9334L9.58627 79.135C11.1896 77.9804 12.0135 77.2255 11.969 76.9813C11.7463 75.5381 11.4791 72.6296 11.4791 71.4529C11.4791 70.698 11.39 70.0763 11.3009 70.0763C11.1896 70.0763 10.4993 70.4538 9.76441 70.8978Z" fill="white"/>
<path fill-rule="evenodd" clip-rule="evenodd" d="M0 88.7947C0 97.4094 10.4187 102.792 18.7509 98.4824L93.7543 59.6879C102.082 55.3808 102.082 44.6195 93.7543 40.3124L18.7508 1.51749C10.4187 -2.79222 0 2.59077 0 11.2054V88.7947ZM90.6279 54.8443L15.6246 93.6388C11.4585 95.7938 6.24912 93.1023 6.24912 88.7947V11.2054C6.24912 6.89808 11.4585 4.20664 15.6245 6.36147L90.6279 45.156C94.7917 47.3098 94.7917 52.6905 90.6279 54.8443Z" fill="white"/>
</g>
<defs>
<clipPath id="clip0_1076_1185">
<rect width="100" height="100" fill="white"/>
</clipPath>
</defs>
</svg>
