<svg width="100" height="100" viewBox="0 0 100 100" fill="none" xmlns="http://www.w3.org/2000/svg">
<g clip-path="url(#clip0_1076_1186)">
<path d="M51.554 31.3108C53.9368 31.9769 56.2527 33.4645 60.3501 36.9947C63.245 39.4813 65.0265 40.8135 66.4517 41.524C67.1642 41.9014 67.2533 41.9014 68.055 41.5462C68.9457 41.1243 69.4579 41.1465 71.8852 41.6794C72.7982 41.9014 73.3994 41.9014 74.0007 41.746L74.8691 41.524L73.8893 42.9005C72.2637 45.2096 71.0167 48.8508 70.2373 53.4689C69.9923 54.9121 69.9033 55.1341 69.636 54.9343C69.2129 54.579 68.6562 55.3117 68.7453 56.0888C68.8121 56.7327 68.8789 56.7327 66.7634 56.111C63.824 55.2451 61.6417 53.9796 59.6598 52.0035C57.0321 49.3837 56.1636 47.6741 54.0036 40.8801C52.8233 37.1279 52.2221 35.8179 50.6188 33.5311C49.6612 32.1545 49.5499 31.8881 49.7503 31.4662C50.0398 30.9334 50.1511 30.9334 51.554 31.3108Z" fill="white"/>
<path d="M98.5407 33.2202C101.235 33.7975 103.996 34.952 106.268 36.484L107.203 37.1278L105.689 37.5053C101.948 38.4822 100.189 40.5026 98.9861 45.1429L98.7411 46.0755L96.9151 45.9644C95.913 45.8978 94.9555 45.809 94.7996 45.7424C94.5992 45.698 94.5324 44.1882 94.5324 39.2149V32.7762L95.579 32.7984C96.1802 32.7984 97.4941 32.9982 98.5407 33.2202Z" fill="white"/>
<path d="M93.0198 39.2371C93.0643 42.7895 93.0421 45.7202 92.9753 45.7646C92.9085 45.7868 91.9732 45.8534 90.882 45.8978L88.9224 45.9866L88.5216 44.4103C87.4972 40.3916 85.8271 38.5932 82.1082 37.5275L80.4604 37.0612L81.5515 36.3952C83.5112 35.174 84.1569 34.841 85.738 34.2193C87.4527 33.5532 90.8375 32.7762 92.1291 32.7762H92.953L93.0198 39.2371Z" fill="white"/>
<path d="M110.007 39.6812C112.991 42.834 115.062 46.897 115.819 51.0489L115.975 51.9148L114.906 51.0933C112.323 49.1395 108.826 47.8517 102.992 46.7416C101.589 46.4752 100.342 46.1866 100.253 46.0977C99.9858 45.8757 100.498 43.9885 101.255 42.3677C102.302 40.1475 104.328 38.8597 107.691 38.2381C108.47 38.1048 108.559 38.1492 110.007 39.6812Z" fill="white"/>
<path d="M80.9487 38.4378C84.6453 39.3481 86.2931 40.9689 87.2729 44.6545C87.4956 45.5204 87.5402 46.0089 87.3843 46.1199C87.2507 46.1865 85.6473 46.5639 83.7768 46.9414C78.4323 48.0293 75.3816 49.1838 72.9766 51.0044C71.5959 52.048 71.5514 51.9369 72.3753 49.0728C73.0434 46.786 74.1123 44.4103 75.3148 42.5897C76.2946 41.1243 79.1004 38.1048 79.479 38.127C79.6126 38.127 80.2806 38.2824 80.9487 38.4378Z" fill="white"/>
<path d="M97.5829 47.3632L98.7408 47.452L99.0081 48.7175C99.1417 49.4058 99.4312 50.4493 99.6539 51.0488L100.055 52.0923L98.8077 51.182C98.0951 50.6935 96.8703 49.8276 96.0241 49.2726C94.8884 48.4955 94.5321 48.1181 94.5321 47.7406C94.5321 47.1633 94.5766 47.1633 97.5829 47.3632Z" fill="white"/>
<path d="M93.0863 47.6962C93.0641 48.0737 92.4851 48.6065 90.9485 49.7167C89.7906 50.5604 88.5658 51.4485 88.2095 51.6927L87.586 52.1589L87.831 51.6927C87.9646 51.4485 88.2763 50.4271 88.5213 49.4058C88.744 48.4067 88.9667 47.563 89.0112 47.5408C89.0557 47.4964 89.991 47.4076 91.1044 47.3188L93.1309 47.1634L93.0863 47.6962Z" fill="white"/>
<path d="M87.4043 47.9405C87.4043 48.6288 86.6694 50.9378 85.9346 52.492C84.9993 54.5346 82.9283 57.865 82.6166 57.865C82.0376 57.865 75.7133 56.7327 73.7537 56.2886L71.5937 55.8002V54.7567C71.5937 53.8908 71.705 53.6243 72.3063 53.0471C74.9562 50.5826 78.1629 49.2282 83.7968 48.2069C87.2261 47.563 87.4043 47.563 87.4043 47.9405Z" fill="white"/>
<path d="M96.6264 50.8046C98.831 52.5142 100.301 53.9796 102.038 56.2442L103.418 58.0426L102.728 58.1758C102.349 58.2424 101.726 58.3091 101.347 58.3091C100.434 58.3091 99.989 58.6199 100.189 59.0861C100.301 59.397 100.523 59.4414 101.726 59.3082C105.957 58.8641 115.421 57.0657 117.002 56.3996C117.425 56.222 117.781 56.111 117.804 56.1332C117.848 56.1776 117.581 57.9982 117.202 60.1963C116.735 63.1048 116.445 64.2593 116.178 64.4813C115.376 65.0808 110.901 66.302 106.224 67.1679C99.5659 68.4112 98.2075 68.8108 95.9138 70.2318L94.7559 70.9645V60.1963C94.7559 54.2682 94.7781 49.4281 94.8004 49.4503C94.8449 49.4503 95.6466 50.0497 96.6264 50.8046ZM97.0272 54.0018C96.0697 54.6678 96.9382 56.0666 98.0293 55.6226C98.6751 55.3783 98.7419 54.2238 98.1407 53.8908C97.6285 53.5799 97.6062 53.5799 97.0272 54.0018ZM110.678 60.7291C108.317 62.6385 108.228 62.6829 107.716 62.3499L107.204 62.0169L107.983 61.2176C108.74 60.4627 109.008 59.8632 108.607 59.8632C108.518 59.8632 108.006 60.2185 107.471 60.6403C106.937 61.0622 106.447 61.4174 106.38 61.4174C106.313 61.4174 105.823 61.0622 105.289 60.6181L104.309 59.8188L102.995 60.9512C102.283 61.5728 101.592 62.0835 101.481 62.0835C101.347 62.0835 100.768 61.8837 100.189 61.6394C99.41 61.3064 98.9869 61.2398 98.5638 61.373C98.0071 61.5728 98.0516 61.6172 99.3877 62.2611L100.768 62.9272L97.9848 65.5249C96.0697 67.3233 95.2458 68.2114 95.4016 68.3668C95.5575 68.5222 95.8025 68.4556 96.1365 68.167C99.1428 65.5027 101.681 63.4156 101.86 63.4156C101.993 63.4156 102.639 63.6821 103.329 64.0151L104.554 64.6146L105.445 63.7487L106.313 62.905L107.204 63.5044C108.228 64.2149 107.983 64.3037 110.767 62.1279C111.925 61.2398 112.927 60.5959 113.016 60.6847C113.105 60.7735 113.417 61.484 113.684 62.2389C113.996 63.1048 114.308 63.6377 114.508 63.6377C114.708 63.6377 114.798 63.5044 114.731 63.349C114.686 63.2158 114.352 62.1057 113.996 60.9067C113.662 59.73 113.328 58.7531 113.261 58.7531C113.194 58.7753 112.036 59.6634 110.678 60.7291Z" fill="white"/>
<path d="M92.9746 60.1519V70.9423L91.4604 70.0542C89.3894 68.8331 87.4075 68.2558 81.6177 67.1901C76.8745 66.302 72.3763 65.103 71.5301 64.4814C71.2628 64.2594 70.9733 63.1492 70.4834 60.2185C70.1271 58.0427 69.8154 56.222 69.8154 56.1776C69.8154 56.1332 70.2162 56.2443 70.7061 56.4219C73.022 57.2434 83.2655 59.1084 86.0714 59.2416C87.3852 59.3082 87.5188 59.2638 87.5188 58.8641C87.5188 58.4867 87.3184 58.3979 86.0046 58.2647C85.1584 58.1981 84.4235 58.0871 84.379 58.0205C84.3344 57.976 85.1361 56.8881 86.1827 55.5782C87.8751 53.4911 89.4339 52.0258 92.1284 50.0054L92.9746 49.3837V60.1519ZM89.6566 53.8686C89.0999 54.1572 88.9217 54.6901 89.189 55.1785C89.5007 55.8002 90.2579 55.9112 90.77 55.4006C91.3045 54.8677 91.3045 54.6457 90.7478 54.0906C90.2356 53.58 90.191 53.58 89.6566 53.8686ZM73.6456 61.0622C72.8216 63.7265 72.8439 63.6377 73.2225 63.6377C73.3783 63.6377 73.7569 62.9938 74.0241 62.1945C74.3136 61.3952 74.6254 60.707 74.7144 60.6403C74.8035 60.5737 75.8947 61.3286 77.1417 62.3055C78.3665 63.2824 79.4354 64.0817 79.5022 64.0817C79.569 64.0817 80.0366 63.8153 80.5265 63.4823L81.4173 62.905L82.2857 63.7487L83.1319 64.5702L84.4012 63.9929C85.1138 63.6821 85.7596 63.4157 85.8487 63.4157C85.96 63.4157 87.2293 64.437 88.6768 65.6803C92.2397 68.7443 92.0616 68.6332 92.3066 68.389C92.4402 68.2558 91.4826 67.1901 89.7011 65.5249L86.8953 62.8828L88.3205 62.2389C89.6789 61.6173 89.7234 61.5729 89.1667 61.3952C88.7436 61.2398 88.3205 61.3064 87.5411 61.6395C86.9621 61.8837 86.3831 62.0835 86.2495 62.0835C86.1159 62.0835 85.4256 61.5729 84.713 60.9512L83.3992 59.8189L82.3748 60.6625C81.6622 61.2398 81.2614 61.4174 81.061 61.2842C80.9051 61.1732 80.4152 60.7958 79.9921 60.4627C78.7896 59.508 78.5001 59.9521 79.569 61.0622L80.482 61.9725L79.9698 62.3277C79.5022 62.683 79.4131 62.6608 77.0304 60.7514C75.6943 59.6634 74.5363 58.7753 74.4695 58.7753C74.4027 58.7531 74.0241 59.7967 73.6456 61.0622Z" fill="white"/>
<path d="M84.2444 61.8837C84.623 62.2389 84.957 62.572 84.957 62.6386C84.957 62.683 84.6453 62.905 84.289 63.0826C83.6432 63.4157 83.5764 63.4157 82.9529 62.9272C82.1512 62.2833 82.1512 62.2167 82.9083 61.6839L83.5096 61.2398L84.2444 61.8837Z" fill="white"/>
<path d="M99.274 73.0071C99.3631 74.6279 99.5189 76.2709 99.6303 76.6483C99.8307 77.3366 99.7862 77.381 98.2274 78.4689C97.3589 79.0684 96.2232 79.8899 95.6888 80.2895L94.7535 81V76.8925V72.7851L95.9115 71.897C96.9135 71.1643 98.7618 70.0764 99.0513 70.0764C99.0958 70.0764 99.2072 71.4085 99.274 73.0071Z" fill="white"/>
<path d="M90.2356 70.8978C90.9704 71.3641 91.9057 71.9858 92.2843 72.2966L92.9746 72.8739L92.9301 76.8925L92.8633 80.9334L90.4137 79.135C88.8104 77.9804 87.9865 77.2255 88.031 76.9813C88.2537 75.5381 88.5209 72.6296 88.5209 71.4529C88.5209 70.698 88.61 70.0763 88.6991 70.0763C88.8104 70.0763 89.5007 70.4538 90.2356 70.8978Z" fill="white"/>
<path fill-rule="evenodd" clip-rule="evenodd" d="M100 88.7947C100 97.4094 89.5813 102.792 81.2491 98.4824L6.24568 59.6879C-2.08189 55.3808 -2.08189 44.6195 6.24568 40.3124L81.2492 1.51749C89.5813 -2.79222 100 2.59077 100 11.2054V88.7947ZM9.37212 54.8443L84.3754 93.6388C88.5415 95.7938 93.7509 93.1023 93.7509 88.7947V11.2054C93.7509 6.89808 88.5415 4.20664 84.3755 6.36147L9.37212 45.156C5.20833 47.3098 5.20833 52.6905 9.37212 54.8443Z" fill="white"/>
</g>
<defs>
<clipPath id="clip0_1076_1186">
<rect width="100" height="100" fill="white" transform="matrix(-1 0 0 1 100 0)"/>
</clipPath>
</defs>
</svg>
