<svg width="420" height="260" viewBox="0 0 420 260" fill="none" xmlns="http://www.w3.org/2000/svg">
<path fill-rule="evenodd" clip-rule="evenodd" d="M209.475 260C228.826 260 243.63 254.473 253.888 243.419C264.263 232.365 269.45 216.725 269.45 196.499V63.5007C269.45 43.2745 264.263 27.6346 253.888 16.5807C243.63 5.52691 228.826 0 209.475 0C190.241 0 175.495 5.52691 165.237 16.5807C154.979 27.6346 149.85 43.2745 149.85 63.5007V196.499C149.85 216.725 154.979 232.365 165.237 243.419C175.495 254.473 190.241 260 209.475 260ZM75.1873 210.611V256.472H114.53V210.611H133.239V174.45H114.53V3.52782H71.5154L0 174.45V210.611H75.1873ZM75.1873 174.45H35.8451L75.1873 74.0841V174.45ZM361.948 256.472V210.611H286.761V174.45L358.276 3.52782H401.291V174.45H420V210.611H401.291V256.472H361.948ZM322.606 174.45H361.948V74.0841L322.606 174.45ZM208.472 162.09C209.406 162.141 210.291 162.141 211.225 162.09C215.458 150.344 224.147 140.642 235.327 135.17C235.024 128.687 232.312 122.843 228.101 118.478C224.305 120.915 221.498 124.594 219.988 128.725C223.864 129.747 227.419 131.318 230.462 133.353C229.416 133.951 228.398 134.589 227.403 135.265C224.98 133.854 222.123 132.857 219.049 132.214C218.496 135.34 218.66 138.585 219.701 141.656C218.837 142.515 218.025 143.4 217.224 144.311C215.434 140.205 214.929 135.83 215.519 131.65C214.269 131.501 213.002 131.401 211.722 131.354L211.666 152.068C211.021 153.161 210.415 154.294 209.847 155.439C209.279 154.294 208.673 153.161 208.028 152.068L207.973 131.354C206.692 131.401 205.423 131.501 204.172 131.65C204.763 135.83 204.257 140.205 202.468 144.311C201.667 143.4 200.855 142.515 199.991 141.656C201.032 138.585 201.195 135.34 200.643 132.214C197.569 132.857 194.711 133.854 192.288 135.265C191.294 134.589 190.276 133.951 189.23 133.353C192.272 131.318 195.828 129.747 199.703 128.725C198.195 124.594 195.389 120.917 191.594 118.481C187.385 122.846 184.674 128.689 184.37 135.172C195.539 140.642 204.226 150.346 208.472 162.09ZM225.107 115.819C221.331 112.962 216.755 111.14 211.777 110.762L211.733 127.472C213.307 127.545 214.851 127.703 216.356 127.949C217.844 123.148 220.847 118.845 225.107 115.819ZM203.335 127.949C204.842 127.703 206.386 127.545 207.962 127.472L207.918 110.762C202.94 111.141 198.364 112.964 194.588 115.821C198.846 118.847 201.848 123.149 203.335 127.949ZM243.707 94.5538C249.251 98.1964 257.372 106.427 257.405 115.906C257.441 126.317 249.218 131.92 241.401 136.273C241.856 141.9 242.112 148.734 242.098 154.536C236.278 159.981 227.905 163.919 218.294 165.393C219.712 161.271 221.779 157.413 224.399 153.969C229.678 156.028 235.523 152.162 235.56 146.247C235.577 143.663 235.561 141.685 235.497 139.478C219.035 148.349 214.582 163.963 214.078 165.728C214.057 165.803 214.043 165.853 214.035 165.877C212.657 165.979 211.26 166.032 209.845 166.032C208.434 166.032 207.039 165.979 205.664 165.878C205.656 165.854 205.642 165.805 205.62 165.73C205.117 163.967 200.664 148.364 184.201 139.479C184.136 141.686 184.12 143.665 184.136 146.248C184.174 152.11 189.973 156.047 195.298 153.97C197.919 157.414 199.986 161.272 201.402 165.394C191.793 163.92 183.42 159.983 177.599 154.536C177.586 148.735 177.842 141.9 178.296 136.273C170.479 131.92 162.257 126.317 162.293 115.906C162.325 106.427 170.447 98.1964 175.991 94.5538H179.589C175.242 99.1264 173.122 103.214 173.738 107.21C174.394 111.462 178.833 113.129 183.911 115.034C185.242 115.534 186.618 116.05 187.981 116.634C193.363 110.58 201.171 106.761 209.849 106.761C218.527 106.761 226.334 110.58 231.717 116.634C233.08 116.05 234.455 115.534 235.787 115.034C240.864 113.128 245.304 111.462 245.96 107.21C246.576 103.214 244.456 99.1264 240.108 94.5538H243.707Z" fill="white"/>
</svg>
