<svg width="320" height="185" viewBox="0 0 320 185" fill="none" xmlns="http://www.w3.org/2000/svg">
<g clip-path="url(#clip0_1769_1578)">
<path d="M0 0H768V445.984H0V0Z" fill="#5B2A98"/>
<path d="M0 0H768V445.984H0V0Z" fill="url(#paint0_linear_1769_1578)" fill-opacity="0.6"/>
<path d="M85 153.824H100.253V138.658H122.775V126.317H100.253V122.551H122.775V110.053L85 109.966V153.824ZM142.908 97.6415C132.031 97.6415 126.034 105.015 126.034 115.718V136.706C126.034 147.409 132.031 154.783 142.908 154.783C153.786 154.783 159.695 147.409 159.695 136.706V115.718C159.695 104.998 153.786 97.6415 142.908 97.6415ZM139.3 115.37L140.241 105.521H141.095L141.27 113.487H141.862L142.298 105.521H143.327L143.762 113.487H144.355L144.529 105.521H145.384L146.325 115.37C146.412 116.659 145.732 117.339 144.617 117.601C143.675 117.862 143.85 118.629 143.85 119.483L145.052 143.818C145.139 144.847 144.024 145.439 142.821 145.439C141.618 145.439 140.503 144.847 140.59 143.818L141.793 119.483C141.793 118.629 141.967 117.862 141.026 117.601C139.91 117.339 139.213 116.659 139.3 115.37ZM179.218 88.4724C168.341 88.4724 162.345 95.846 162.345 106.549V136.706C162.345 147.409 168.341 154.783 179.218 154.783C190.096 154.783 196.005 147.409 196.005 136.706V106.549C196.005 95.846 190.096 88.4724 179.218 88.4724ZM103.844 31C92.6177 31 85 38.1993 85 50.6107V87.4439C85 99.8727 92.6177 106.811 103.844 106.811C115.157 106.811 122.775 99.8727 122.775 87.4439V62.6037H102.641V78.9721H107.016V89.1697C107.016 91.7321 106.162 93.3707 103.844 93.3707C101.7 93.3707 100.758 91.7496 100.758 89.1697V48.2051C100.758 45.9739 101.7 44.4399 103.844 44.4399C106.162 44.4399 107.016 45.9739 107.016 48.5537V58.6642H122.775V50.6107C122.775 38.1993 115.157 31 103.844 31ZM175.366 46.9326C175.366 44.6142 176.9 38.6177 179.218 38.6177C181.537 38.6177 183.071 44.6142 183.071 46.9326C183.071 48.5537 182.722 49.5822 182.042 50.1923C181.275 50.8722 180.665 50.8722 180.421 51.308C180.073 51.8135 180.16 53.4521 180.247 55.0732L181.363 76.6537C181.45 77.8565 180.334 78.362 179.218 78.362C178.103 78.362 176.987 77.8565 177.074 76.6537L178.19 55.0732C178.277 53.4521 178.364 51.8135 178.016 51.308C177.754 50.8722 177.162 50.8722 176.395 50.1923C175.715 49.5822 175.366 48.5537 175.366 46.9326ZM176.743 143.557L178.207 120.686C177.266 120.094 174.861 117.688 174.861 111.343C174.861 104.318 176.395 97.6415 179.654 96.5259H180.247V120.686L181.45 143.557C181.537 144.847 180.421 145.439 179.218 145.439C177.859 145.439 176.656 144.742 176.743 143.557ZM218.196 136.183C218.196 138.745 217.08 140.384 214.169 140.384V90.5293C217.08 90.5293 218.196 92.1505 218.196 94.7304V136.183ZM216.139 153.824C226.249 153.824 233.013 146.886 233.013 134.457V97.6415C233.013 85.2127 225.395 78.2748 216.139 78.2748H199.352V153.824H216.139ZM212.635 75.7995L215.198 63.3707H215.633L217.952 75.7995H229.003L235 31.9413H222.92L220.863 52.2493H220.183L218.37 40.7618H212.548L210.665 52.2318H209.898L207.929 31.9239H195.848L201.74 75.7995H212.635ZM145.052 56.7815C145.052 60.4596 143.937 61.5752 141.026 61.5752V44.4399C143.937 44.527 145.052 45.5555 145.052 49.1464V56.7815ZM153.96 66.0378C157.464 63.9808 159.521 60.7211 159.521 54.2191V48.9024C159.521 38.1993 156.435 31.9413 142.124 31.9413H126.191V94.8175H141.008V73.4811C143.919 73.5683 145.035 74.5096 145.035 78.2748V94.8001H159.678V75.4509C159.695 70.6572 157.464 66.8048 153.96 66.0378ZM179.218 31C168.341 31 162.345 38.3736 162.345 49.0767V67.6589C162.345 78.362 168.341 85.7356 179.218 85.7356C190.096 85.7356 196.005 78.362 196.005 67.6589V49.0767C196.005 38.3562 190.096 31 179.218 31Z" fill="white"/>
</g>
<defs>
<linearGradient id="paint0_linear_1769_1578" x1="384" y1="0" x2="384" y2="445.984" gradientUnits="userSpaceOnUse">
<stop stop-color="white"/>
<stop offset="0.918644" stop-color="#3D308E"/>
</linearGradient>
<clipPath id="clip0_1769_1578">
<rect width="320" height="185" fill="white"/>
</clipPath>
</defs>
</svg>
