<svg width="320" height="185" viewBox="0 0 320 185" fill="none" xmlns="http://www.w3.org/2000/svg">
<g clip-path="url(#clip0_1769_1578)">
<path d="M0 0H768V445.984H0V0Z" fill="#5B2A98"/>
<path d="M0 0H768V445.984H0V0Z" fill="url(#paint0_linear_1769_1578)" fill-opacity="0.6"/>
<path d="M266.88 109.219C266.748 109.813 266.638 110.407 266.462 110.978C265.318 114.498 263.14 117.138 259.774 118.766C259.62 118.832 259.466 118.92 259.224 119.052C262.568 122.77 263.866 127.17 263.844 132.076H256.584C256.408 130.866 256.342 129.678 256.056 128.512C255 124.024 251.128 120.636 246.508 120.152C245.607 120.064 244.705 119.998 243.803 119.998C239.161 119.976 234.497 119.976 229.855 119.976C229.811 119.976 229.745 119.954 229.613 119.932V112.892H253.966C256.694 112.892 258.872 111.066 259.378 108.493C259.95 105.501 257.772 102.663 254.626 102.355C253.746 102.267 252.888 102.223 252.008 102.223H230.647C229.547 102.223 229.547 102.223 229.547 101.079V96.1508C229.547 95.8648 229.569 95.5788 229.591 95.2488C229.921 95.2268 230.163 95.2048 230.427 95.2048H253.372C256.826 95.2048 259.972 96.0408 262.634 98.3948C264.9 100.397 266.264 102.861 266.704 105.831C266.726 106.007 266.814 106.183 266.858 106.359C266.88 107.305 266.88 108.251 266.88 109.219Z" fill="white"/>
<path d="M266.88 60.6436C262.59 60.6216 258.278 60.6216 253.988 60.5996H251.15V92.0589H243.275V60.6216H227.589V53.0318H265.868C266.22 53.0318 266.55 53.0098 266.902 53.0098C266.88 55.5617 266.88 58.1137 266.88 60.6436Z" fill="white"/>
<path d="M92.1161 53.0756V61.0835H66.2007C65.5187 61.0835 64.8147 61.1055 64.1548 61.2815C62.4608 61.7215 61.4708 63.4154 61.6908 65.2194C61.8228 66.3414 63.3188 68.0573 65.0127 68.0353C69.4566 67.9693 73.8785 67.9913 78.3224 68.0353C79.7084 68.0353 81.0944 68.0573 82.4584 68.2993C87.4082 69.1353 90.8402 71.8412 92.2041 76.7251C93.5901 81.675 92.3361 85.9209 88.3982 89.3308C85.8023 91.5748 82.7224 92.1468 79.4224 92.1468H54.079C53.881 92.1468 53.661 92.1248 53.375 92.1028V84.139H79.3124C79.7304 84.139 80.1704 84.139 80.5884 84.095C82.8543 83.919 84.4603 82.159 84.4383 79.8271C84.4163 77.8911 82.6344 76.1311 80.5224 76.0651C78.1245 75.9991 75.7485 76.0431 73.3506 76.0211C70.0946 75.9991 66.8167 76.0871 63.5608 75.8891C58.8089 75.6031 53.375 71.2472 53.419 64.9114C53.463 59.0595 56.6969 54.6816 62.1088 53.4276C63.2968 53.1636 64.5288 53.0317 65.7387 53.0317C74.3405 52.9877 82.9423 53.0096 91.5662 53.0096C91.7201 53.0316 91.8741 53.0536 92.1161 53.0756Z" fill="white"/>
<path d="M160.116 53.0319C171.116 52.8559 179.85 61.7877 179.872 72.5674C179.894 83.4352 170.94 92.235 160.138 92.147C149.116 92.059 140.426 83.5452 140.404 72.6334C140.36 61.7437 149.094 53.0539 160.116 53.0319ZM160.028 84.5572C166.65 84.5572 171.952 79.2113 171.996 72.4354C172.04 66.1436 166.518 60.5997 160.16 60.5777C153.714 60.5337 148.324 66.0116 148.214 72.5014C148.104 79.0573 153.912 84.8651 160.028 84.5572Z" fill="white"/>
<path d="M183.985 79.2552V71.7534H208.867C209.637 71.7534 210.429 71.7314 211.155 71.5554C213.751 70.9834 215.687 68.3434 215.533 65.7475C215.379 63.1956 213.223 60.9736 210.539 60.6656C209.725 60.5776 208.889 60.5116 208.075 60.5116H184.029V53.0098H184.777C192.961 53.0098 201.145 52.9878 209.329 53.0098C213.707 53.0098 217.469 54.4837 220.395 57.8717C223.716 61.6996 224.398 68.0134 221.825 72.3913C220.285 74.9873 218.261 77.0772 215.313 78.2212C218.877 82.1811 220.219 86.845 220.219 92.0589H212.519C212.321 90.7169 212.233 89.397 211.925 88.121C210.759 83.4131 206.623 79.7392 201.783 79.4532C197.845 79.2112 193.885 79.2992 189.925 79.2552H183.985Z" fill="white"/>
<path d="M104.743 86.031V92.0809H96.9111V78.3092H97.8571C104.501 78.3092 111.145 78.3312 117.789 78.2872C118.999 78.2872 120.231 78.1992 121.441 78.0012C125.269 77.3632 128.238 73.7113 128.414 69.7954C128.634 65.0655 124.785 60.5556 119.329 60.6216C112.201 60.6876 105.095 60.6436 97.9671 60.6436H96.9771V53.0317H118.339C121.199 53.0317 124.015 53.3617 126.676 54.5057C132.792 57.1016 136.708 63.8555 136.29 70.5214C135.828 77.8912 130.13 84.733 122.013 85.679C119.285 85.987 116.491 85.877 113.741 85.921C111.057 85.965 108.373 85.965 105.689 85.987C105.381 85.987 105.095 86.009 104.743 86.031Z" fill="white"/>
<path d="M53.066 95.271H60.4138V96.239C60.4138 101.739 60.3918 107.217 60.4358 112.717C60.4578 114.081 60.5898 115.489 60.9198 116.809C62.0858 121.582 66.7277 125.146 71.6116 125.168C77.2435 125.19 82.2374 120.68 82.7873 115.071C82.8973 113.993 82.9413 112.893 82.9413 111.815C82.9633 106.645 82.9413 101.475 82.9413 96.305V95.293H90.3112C90.3332 95.535 90.3552 95.755 90.3552 95.997V112.541C90.3332 116.325 89.7392 119.998 87.6712 123.276C84.5913 128.116 80.2794 131.196 74.5155 131.966C67.0357 132.956 60.9638 130.404 56.3879 124.376C54.43 121.802 53.286 118.81 53.198 115.621C53 108.911 53.044 102.201 53 95.491C53 95.425 53.044 95.381 53.066 95.271Z" fill="white"/>
<path d="M124.233 132.032V114.96C124.233 112.958 123.969 111 123.222 109.13C121.374 104.4 116.116 102.002 112.574 102.266C107.206 102.64 103.07 106.182 102.058 111.132C101.816 112.298 101.728 113.486 101.706 114.674C101.662 120.13 101.684 125.608 101.684 131.064V132.076H94.3141C94.2921 131.812 94.2701 131.592 94.2701 131.35C94.2701 125.674 94.2481 119.998 94.2921 114.322C94.3141 111.088 94.7981 107.92 96.4261 105.06C99.55 99.5605 104.17 96.1286 110.55 95.3806C117.37 94.5887 123.046 96.8326 127.467 102.068C130.019 105.082 131.405 108.646 131.493 112.562C131.647 118.854 131.603 125.146 131.647 131.416C131.647 131.812 131.669 132.164 131.097 132.164C128.919 132.142 126.741 132.142 124.563 132.142C124.475 132.142 124.387 132.098 124.233 132.032Z" fill="white"/>
<path d="M225.476 132.098C225.168 132.12 224.948 132.142 224.706 132.142C218.656 132.12 212.584 132.186 206.534 132.076C197.514 131.922 190.166 125.872 188.56 117.006C186.514 105.699 194.016 98.0428 201.474 95.9748C203.146 95.5128 204.928 95.2709 206.644 95.2489C212.672 95.1609 218.7 95.2049 224.728 95.1829C224.948 95.1829 225.146 95.2049 225.432 95.2269C225.454 95.4689 225.498 95.7108 225.498 95.9308C225.498 97.7788 225.476 99.6488 225.52 101.497C225.542 102.135 225.344 102.311 224.706 102.311C218.92 102.289 213.134 102.289 207.326 102.311C201.782 102.355 197.822 105.215 196.062 110.473C195.38 112.54 195.424 114.63 196.04 116.742C197.448 121.538 201.606 124.882 206.6 124.97C212.54 125.08 218.502 125.036 224.442 125.058C225.498 125.058 225.498 125.058 225.498 126.092V131.196C225.52 131.482 225.498 131.768 225.476 132.098Z" fill="white"/>
<path d="M165.945 133C159.61 120.328 153.34 107.855 147.048 95.2709C147.378 95.2489 147.598 95.2269 147.818 95.2269C149.622 95.2269 151.426 95.2709 153.23 95.2049C153.934 95.1829 154.308 95.4029 154.616 96.0408C158.202 103.103 161.832 110.165 165.439 117.204C165.571 117.468 165.703 117.71 165.923 118.084C166.143 117.71 166.297 117.446 166.429 117.182C170.103 110.099 173.799 103.037 177.451 95.9528C177.715 95.4249 178.023 95.1829 178.661 95.2049C180.663 95.2489 182.687 95.2269 184.843 95.2269C178.573 107.833 172.303 120.328 165.945 133Z" fill="white"/>
<path d="M135.608 95.271H142.868V132.12H135.608V95.271Z" fill="white"/>
<path d="M225.454 110.23C225.454 112.452 225.454 114.608 225.432 116.742C225.432 116.896 225.168 117.05 225.014 117.182C224.97 117.226 224.86 117.204 224.772 117.204H206.688C206.534 117.204 206.38 117.16 206.204 117.138V110.252C212.606 110.23 218.964 110.23 225.454 110.23Z" fill="white"/>
</g>
<defs>
<linearGradient id="paint0_linear_1769_1578" x1="384" y1="0" x2="384" y2="445.984" gradientUnits="userSpaceOnUse">
<stop stop-color="white"/>
<stop offset="0.918644" stop-color="#3D308E"/>
</linearGradient>
<clipPath id="clip0_1769_1578">
<rect width="320" height="185" fill="white"/>
</clipPath>
</defs>
</svg>
