<svg width="320" height="185" viewBox="0 0 320 185" fill="none" xmlns="http://www.w3.org/2000/svg">
<g clip-path="url(#clip0_1769_1578)">
<path d="M0 0H768V445.984H0V0Z" fill="#5B2A98"/>
<path d="M0 0H768V445.984H0V0Z" fill="url(#paint0_linear_1769_1578)" fill-opacity="0.6"/>
<path d="M125.378 131.95H46.0784V131.307L46.2232 78.0482C46.2232 77.4792 46.0543 77.0339 45.7406 76.5887C44.8959 75.4755 43.7376 74.8571 42.4585 74.4613C42.3137 74.4118 42.1689 74.3871 42 74.3376V52.0495C42.0724 52.0247 42.1448 52.0247 42.2172 52.0247C49.1191 52.1732 55.9487 52.8658 62.561 54.9685C72.0693 57.9864 79.4298 63.948 84.9803 72.3586L85.7043 73.4718C85.7284 73.4965 85.7525 73.5213 85.8249 73.5707C85.9456 73.4223 86.0421 73.2739 86.1628 73.1007C90.748 66.1496 96.6363 60.7569 104.069 57.1701C108.22 55.1663 112.588 53.8305 117.125 53.0142C120.986 52.3216 124.872 52 128.805 52H129.336C129.336 52.1979 129.36 52.3711 129.36 52.5195C129.36 59.6685 129.336 66.8175 129.336 73.9418C129.336 74.2881 129.264 74.486 128.902 74.6097C127.695 75.0797 126.657 75.8218 125.861 76.8855C125.62 77.2071 125.523 77.5534 125.523 77.9492C125.523 86.7556 125.499 95.562 125.475 104.368L125.402 131.381C125.378 131.604 125.378 131.752 125.378 131.95ZM91.2789 100.831C90.1447 100.831 89.1794 101.796 89.1794 102.958C89.1552 104.096 90.1205 105.111 91.2548 105.111C92.389 105.135 93.3784 104.121 93.3784 102.958C93.3566 102.397 93.1277 101.865 92.738 101.47C92.3482 101.075 91.8267 100.847 91.2789 100.831ZM66.6877 103.008C66.6877 104.171 67.653 105.135 68.7873 105.135C69.9215 105.135 70.8868 104.146 70.8868 102.983C70.8868 101.821 69.8974 100.806 68.7631 100.831C68.2103 100.85 67.6859 101.087 67.2993 101.493C66.9127 101.898 66.6936 102.441 66.6877 103.008ZM117.27 97.3184C117.27 98.481 118.235 99.4458 119.369 99.4458C120.504 99.4458 121.469 98.4563 121.469 97.3184C121.469 96.131 120.504 95.1415 119.345 95.1662C118.211 95.1662 117.27 96.1557 117.27 97.3184ZM93.3543 97.3431C93.3599 96.7786 93.1519 96.2338 92.7738 95.8233C92.3958 95.4127 91.8773 95.1683 91.3272 95.1415C90.7691 95.1387 90.2321 95.3596 89.8308 95.7571C89.4295 96.1546 89.1957 96.6971 89.1794 97.2689C89.1552 98.4068 90.1205 99.421 91.2306 99.4458C92.3407 99.4705 93.3302 98.5057 93.3543 97.3431ZM68.7873 95.1662C67.653 95.1662 66.6877 96.131 66.6877 97.2936C66.6636 98.4563 67.653 99.4705 68.7873 99.4705C69.9215 99.4705 70.8627 98.481 70.8627 97.3184C70.8652 97.0371 70.8134 96.7581 70.7103 96.4974C70.6072 96.2367 70.4549 95.9996 70.2619 95.7995C70.069 95.5995 69.8394 95.4405 69.5863 95.3318C69.3332 95.2232 69.0617 95.1669 68.7873 95.1662ZM121.469 85.9393C121.469 84.7767 120.528 83.7872 119.393 83.7872C118.259 83.7872 117.294 84.7272 117.27 85.8898C117.246 87.0525 118.235 88.0667 119.369 88.0667C120.504 88.0667 121.469 87.1019 121.469 85.9393ZM119.369 127.869C120.504 127.869 121.469 126.904 121.469 125.741C121.493 124.579 120.504 123.564 119.369 123.564C118.235 123.564 117.294 124.554 117.294 125.717C117.27 126.879 118.235 127.869 119.369 127.869ZM68.7631 127.869C69.8974 127.869 70.8627 126.904 70.8627 125.741C70.8868 124.603 69.9215 123.589 68.8114 123.564C68.2523 123.564 67.7158 123.79 67.3182 124.193C66.9206 124.596 66.6941 125.144 66.6877 125.717C66.6877 126.879 67.6289 127.869 68.7631 127.869ZM117.27 80.2498C117.27 81.4124 118.235 82.3772 119.369 82.3772C120.504 82.3772 121.469 81.3877 121.469 80.225C121.469 79.0376 120.504 78.0729 119.345 78.0729C118.211 78.1224 117.27 79.0871 117.27 80.2498ZM119.369 122.204C120.504 122.204 121.469 121.239 121.469 120.076C121.469 118.914 120.528 117.924 119.393 117.924C118.259 117.9 117.27 118.914 117.27 120.076C117.294 121.214 118.235 122.179 119.369 122.204ZM68.8114 122.204C69.9456 122.179 70.8868 121.19 70.8868 120.052C70.8868 118.889 69.9215 117.924 68.7873 117.924C68.2282 117.931 67.6942 118.163 67.3012 118.571C66.9081 118.978 66.6877 119.528 66.6877 120.101C66.7118 121.239 67.6772 122.204 68.8114 122.204ZM65.2398 120.076C65.2431 119.511 65.0304 118.966 64.647 118.559C64.2636 118.153 63.7401 117.916 63.1885 117.9C62.6294 117.9 62.0929 118.126 61.6953 118.528C61.2977 118.931 61.0712 119.479 61.0648 120.052C61.0648 121.214 62.006 122.204 63.1402 122.204C64.2744 122.204 65.2398 121.239 65.2398 120.076ZM68.7631 116.514C69.8974 116.514 70.8627 115.55 70.8627 114.387C70.8868 113.249 69.9215 112.235 68.7873 112.21C68.2282 112.21 67.6916 112.436 67.2941 112.839C66.8965 113.242 66.6699 113.789 66.6636 114.362C66.6877 115.525 67.6289 116.49 68.7631 116.514ZM121.469 108.673C121.469 107.51 120.504 106.545 119.369 106.521C118.211 106.521 117.246 107.51 117.27 108.697C117.294 109.86 118.259 110.825 119.369 110.825C119.922 110.812 120.449 110.581 120.84 110.181C121.231 109.78 121.457 109.24 121.469 108.673ZM121.469 102.983C121.469 101.821 120.504 100.856 119.369 100.856C118.81 100.862 118.276 101.094 117.883 101.502C117.49 101.91 117.27 102.46 117.27 103.033C117.294 104.195 118.259 105.16 119.393 105.135C120.528 105.111 121.469 104.121 121.469 102.983ZM115.846 120.052C115.846 118.889 114.929 117.9 113.771 117.9C112.636 117.875 111.647 118.889 111.647 120.052C111.647 121.214 112.612 122.179 113.746 122.179C114.881 122.179 115.846 121.214 115.846 120.052ZM65.2398 91.6288C65.2398 90.4662 64.3227 89.4767 63.1643 89.4767C62.6053 89.4767 62.0687 89.7026 61.6711 90.1055C61.2736 90.5084 61.047 91.0558 61.0407 91.6288C61.0407 92.7915 62.006 93.7562 63.1402 93.7562C64.2986 93.7562 65.2398 92.7915 65.2398 91.6288ZM65.2398 97.3184C65.2398 96.1557 64.3227 95.1662 63.1643 95.1662C62.6053 95.1662 62.0687 95.3921 61.6711 95.7951C61.2736 96.198 61.047 96.7453 61.0407 97.3184C61.0407 98.481 62.006 99.4458 63.1402 99.4705C64.2986 99.4458 65.2398 98.481 65.2398 97.3184ZM115.846 108.673C115.846 107.51 114.905 106.545 113.771 106.521C112.636 106.521 111.647 107.51 111.671 108.697C111.695 109.86 112.636 110.825 113.771 110.825C114.905 110.825 115.846 109.835 115.846 108.673ZM94.8023 97.2936C94.8023 98.4563 95.7434 99.421 96.8777 99.4458C98.0119 99.4705 98.9772 98.481 99.0013 97.3184C99.0255 96.1557 98.036 95.1415 96.9018 95.1415C95.7434 95.1662 94.8023 96.131 94.8023 97.2936ZM66.6877 85.9146C66.6877 87.0772 67.6048 88.0667 68.7631 88.0914C69.8974 88.1162 70.8868 87.1019 70.8868 85.9393C70.8868 84.7767 69.9215 83.8119 68.7873 83.8119C68.5147 83.8086 68.2442 83.8604 67.9912 83.9643C67.7382 84.0682 67.5076 84.2222 67.3126 84.4175C67.1176 84.6127 66.9621 84.8454 66.8549 85.1023C66.7477 85.3592 66.6909 85.6352 66.6877 85.9146ZM65.2398 108.697C65.2475 108.13 65.0362 107.583 64.6519 107.176C64.2676 106.768 63.7415 106.532 63.1885 106.521C62.6317 106.522 62.0971 106.744 61.6967 107.141C61.2964 107.538 61.0612 108.078 61.0407 108.648C61.0407 109.811 61.9818 110.8 63.1161 110.8C64.2744 110.825 65.2398 109.86 65.2398 108.697ZM119.393 66.7186C118.259 66.7186 117.294 67.6586 117.27 68.8212C117.246 69.9839 118.211 70.9981 119.369 70.9981C120.504 70.9981 121.469 70.0086 121.469 68.8707C121.469 67.7081 120.528 66.7433 119.393 66.7186ZM115.846 125.717C115.846 124.554 114.881 123.589 113.746 123.589C112.612 123.589 111.671 124.579 111.647 125.741C111.647 126.904 112.636 127.918 113.771 127.893C114.929 127.869 115.846 126.879 115.846 125.717ZM115.846 97.2689C115.846 96.1062 114.881 95.1415 113.746 95.1415C112.612 95.1415 111.671 96.131 111.671 97.2936C111.671 98.4563 112.66 99.4705 113.795 99.4458C114.929 99.421 115.846 98.4563 115.846 97.2689ZM65.2398 85.9393C65.2398 84.7767 64.3227 83.7872 63.1885 83.7872C62.911 83.7849 62.6358 83.8388 62.3787 83.9459C62.1216 84.0529 61.8877 84.2109 61.6904 84.4109C61.4931 84.6109 61.3362 84.8489 61.2289 85.1111C61.1215 85.3734 61.0657 85.6549 61.0648 85.9393C61.0648 87.1019 62.0301 88.0667 63.1643 88.0914C64.2744 88.0914 65.2398 87.1019 65.2398 85.9393ZM115.846 91.6041C115.846 90.4414 114.905 89.4767 113.746 89.4767C112.612 89.4767 111.671 90.4414 111.647 91.6041C111.647 92.7667 112.636 93.781 113.771 93.7562C114.905 93.7315 115.846 92.7667 115.846 91.6041ZM94.8023 91.6041C94.8023 92.7667 95.7434 93.7562 96.8777 93.7562C98.0119 93.781 99.0013 92.7667 99.0013 91.6041C99.0013 90.4414 98.036 89.4767 96.9018 89.4767C95.7434 89.4767 94.8023 90.4414 94.8023 91.6041ZM74.4102 89.4767C73.2759 89.4767 72.3348 90.4414 72.3106 91.6041C72.3106 92.7915 73.2518 93.781 74.4102 93.781C75.5444 93.781 76.4856 92.7915 76.4856 91.6288C76.4856 90.4414 75.5444 89.4767 74.4102 89.4767ZM115.846 74.5355C115.846 73.3728 114.881 72.4081 113.746 72.4081C112.612 72.4081 111.671 73.3728 111.647 74.5355C111.647 75.6981 112.636 76.7124 113.771 76.6876C114.929 76.6629 115.846 75.6981 115.846 74.5355ZM87.7314 108.673C87.7314 107.51 86.7902 106.545 85.656 106.521C84.5218 106.521 83.5806 107.461 83.5564 108.648C83.5323 109.835 84.4976 110.825 85.656 110.825C86.7902 110.8 87.7314 109.835 87.7314 108.673ZM87.7314 102.983C87.7314 101.796 86.8144 100.831 85.656 100.831C84.4976 100.831 83.5323 101.821 83.5564 102.983C83.5564 104.146 84.5218 105.111 85.656 105.111C86.7902 105.135 87.7314 104.171 87.7314 102.983ZM74.386 95.1662C73.2518 95.1662 72.3106 96.131 72.3106 97.3184C72.3106 98.481 73.2277 99.4458 74.386 99.4705C75.5203 99.4952 76.5097 98.481 76.4856 97.2936C76.4856 96.1062 75.5203 95.1415 74.386 95.1662ZM55.466 74.5355C55.4644 74.8149 55.5166 75.0918 55.6194 75.3506C55.7222 75.6093 55.8738 75.8447 56.0654 76.0434C56.257 76.2421 56.4849 76.4002 56.7361 76.5086C56.9873 76.617 57.2568 76.6736 57.5294 76.6753C57.8019 76.6769 58.0721 76.6235 58.3245 76.518C58.5769 76.4126 58.8066 76.2573 59.0004 76.0609C59.1943 75.8645 59.3485 75.6309 59.4542 75.3734C59.56 75.1159 59.6153 74.8396 59.6168 74.5602C59.6168 73.3481 58.6998 72.3834 57.5414 72.3834C56.3831 72.4081 55.466 73.3728 55.466 74.5355ZM49.8431 68.846C49.8431 70.0333 50.736 70.9734 51.8944 70.9981C53.0286 71.0228 53.9698 70.0581 53.9939 68.8954C54.001 68.6118 53.9526 68.3295 53.8514 68.0653C53.7502 67.8012 53.5984 67.5605 53.4049 67.3576C53.2114 67.1546 52.9802 66.9935 52.7249 66.8837C52.4695 66.774 52.1954 66.7178 51.9185 66.7186C50.7843 66.7186 49.8431 67.6833 49.8431 68.846ZM110.199 80.225C110.199 79.0376 109.282 78.0976 108.123 78.0976C107.573 78.0976 107.045 78.3218 106.656 78.7207C106.267 79.1197 106.048 79.6608 106.048 80.225C106.048 81.4124 106.989 82.4019 108.148 82.3772C109.282 82.3772 110.223 81.4124 110.199 80.225ZM53.9939 74.5602C53.9971 74.2809 53.9466 74.0036 53.8452 73.7442C53.7439 73.4849 53.5936 73.2485 53.4032 73.0487C53.2127 72.8488 52.9857 72.6894 52.7351 72.5795C52.4845 72.4696 52.2152 72.4113 51.9427 72.4081C51.6696 72.4029 51.3982 72.4533 51.1443 72.5565C50.8905 72.6597 50.6591 72.8136 50.4638 73.0092C50.2684 73.2049 50.1129 73.4384 50.0064 73.6961C49.8998 73.9539 49.8443 74.2308 49.8431 74.5108C49.819 75.7229 50.7602 76.6876 51.9185 76.6876C53.0528 76.7124 53.9939 75.7476 53.9939 74.5602ZM59.6168 102.983C59.6168 101.821 58.6757 100.856 57.5414 100.856C56.4072 100.856 55.466 101.821 55.466 102.983C55.466 104.171 56.4313 105.16 57.5656 105.135C58.7239 105.111 59.6168 104.146 59.6168 102.983ZM104.576 102.983C104.576 101.796 103.659 100.831 102.501 100.831C101.366 100.831 100.425 101.771 100.401 102.958C100.399 103.239 100.452 103.518 100.555 103.778C100.659 104.038 100.811 104.275 101.004 104.475C101.197 104.675 101.426 104.834 101.679 104.943C101.931 105.052 102.202 105.109 102.476 105.111C102.751 105.112 103.022 105.058 103.276 104.952C103.53 104.846 103.761 104.69 103.956 104.493C104.151 104.295 104.306 104.06 104.412 103.801C104.519 103.542 104.574 103.264 104.576 102.983ZM53.9939 102.983C53.9939 102.419 53.7753 101.878 53.3861 101.479C52.9968 101.08 52.469 100.856 51.9185 100.856C50.7602 100.856 49.8431 101.845 49.8431 103.033C49.8431 104.195 50.8084 105.16 51.9427 105.135C53.0769 105.111 53.9939 104.146 53.9939 102.983ZM110.199 97.3184C110.202 97.039 110.152 96.7617 110.05 96.5023C109.949 96.243 109.799 96.0066 109.608 95.8068C109.418 95.6069 109.191 95.4475 108.94 95.3376C108.689 95.2277 108.42 95.1695 108.148 95.1662C107.872 95.1662 107.599 95.2219 107.344 95.3301C107.089 95.4382 106.858 95.5967 106.663 95.7966C106.468 95.9964 106.313 96.2337 106.208 96.4948C106.102 96.7559 106.048 97.0357 106.048 97.3184C106.048 98.481 106.989 99.4458 108.123 99.4458C109.282 99.4458 110.199 98.481 110.199 97.3184ZM59.6168 80.225C59.6168 79.0376 58.6998 78.0976 57.5414 78.0976C56.3831 78.0976 55.4419 79.0624 55.466 80.2745C55.4902 81.4371 56.4313 82.4019 57.5656 82.4019C58.6998 82.3772 59.6168 81.4124 59.6168 80.225ZM110.199 114.387C110.199 113.2 109.306 112.235 108.148 112.21C107.871 112.208 107.597 112.262 107.342 112.37C107.086 112.477 106.854 112.636 106.659 112.836C106.463 113.036 106.309 113.274 106.204 113.536C106.099 113.798 106.046 114.079 106.048 114.362C106.048 115.55 106.989 116.49 108.123 116.514C109.258 116.514 110.199 115.55 110.199 114.387ZM49.8431 97.3184C49.8431 98.481 50.8084 99.4458 51.9427 99.4458C53.0769 99.4458 54.0181 98.481 54.0181 97.2936C54.0181 96.1062 53.101 95.1662 51.9427 95.1415C50.7602 95.1415 49.8431 96.131 49.8431 97.3184ZM104.576 91.6041C104.576 90.4167 103.659 89.4767 102.501 89.452C101.342 89.452 100.401 90.4167 100.401 91.6288C100.401 92.7915 101.342 93.7562 102.501 93.7562C103.659 93.7562 104.576 92.7915 104.576 91.6041ZM59.6168 91.6041C59.6168 90.4167 58.6998 89.4767 57.5414 89.4767C56.991 89.4767 56.4631 89.7008 56.0739 90.0998C55.6847 90.4988 55.466 91.0399 55.466 91.6041C55.466 92.7915 56.4072 93.781 57.5656 93.781C58.6998 93.7562 59.6168 92.7915 59.6168 91.6041ZM59.6168 125.717C59.6168 124.554 58.6757 123.589 57.5414 123.589C56.4072 123.589 55.466 124.554 55.466 125.741C55.466 126.929 56.3831 127.893 57.5173 127.893C58.6757 127.893 59.6168 126.904 59.6168 125.717ZM100.425 85.8651C100.401 87.0772 101.318 88.0419 102.476 88.0667C103.014 88.0515 103.526 87.8243 103.904 87.4323C104.283 87.0404 104.499 86.5139 104.509 85.9624C104.518 85.411 104.319 84.8771 103.954 84.4719C103.589 84.0667 103.086 83.8214 102.549 83.7872C102 83.7785 101.469 83.9915 101.072 84.3802C100.674 84.769 100.442 85.3023 100.425 85.8651ZM53.9939 108.673C53.9939 107.485 53.0528 106.545 51.9185 106.521C50.7602 106.521 49.819 107.485 49.8431 108.697C49.8431 109.86 50.8084 110.825 51.9427 110.825C53.0769 110.8 53.9939 109.835 53.9939 108.673ZM110.199 108.697C110.199 107.51 109.306 106.545 108.148 106.545C107.871 106.543 107.597 106.598 107.342 106.705C107.086 106.813 106.854 106.971 106.659 107.171C106.463 107.371 106.309 107.61 106.204 107.872C106.099 108.134 106.046 108.414 106.048 108.697C106.048 109.885 106.989 110.825 108.123 110.85C109.258 110.825 110.199 109.86 110.199 108.697ZM59.6168 114.387C59.62 114.108 59.5695 113.83 59.4681 113.571C59.3668 113.312 59.2166 113.075 59.0261 112.875C58.8356 112.676 58.6086 112.516 58.358 112.406C58.1074 112.296 57.8381 112.238 57.5656 112.235C57.2893 112.233 57.0154 112.287 56.7598 112.395C56.5042 112.502 56.272 112.661 56.0767 112.861C55.8813 113.061 55.7268 113.299 55.6219 113.561C55.5171 113.823 55.4641 114.104 55.466 114.387C55.466 115.574 56.4072 116.514 57.5414 116.539C58.6757 116.514 59.6168 115.55 59.6168 114.387ZM104.576 114.362C104.576 113.175 103.635 112.235 102.501 112.21C101.342 112.21 100.401 113.175 100.425 114.387C100.425 115.55 101.39 116.514 102.525 116.514C103.659 116.49 104.6 115.525 104.576 114.362ZM106.048 125.741C106.048 126.929 106.989 127.869 108.123 127.893C109.282 127.893 110.223 126.929 110.199 125.717C110.199 124.554 109.234 123.589 108.099 123.589C107.827 123.592 107.558 123.651 107.307 123.761C107.056 123.87 106.829 124.03 106.639 124.23C106.448 124.43 106.298 124.666 106.197 124.925C106.095 125.185 106.045 125.462 106.048 125.741ZM82.1085 97.2689C82.1085 96.1062 81.1673 95.1415 80.0089 95.1415C78.8747 95.1415 77.9335 96.1062 77.9335 97.2936C77.9335 98.481 78.8506 99.421 80.0089 99.4458C81.1673 99.4458 82.1085 98.481 82.1085 97.2689ZM53.9939 120.052C54.0003 119.488 53.7878 118.944 53.4031 118.54C53.0184 118.137 52.4931 117.906 51.9427 117.9C51.3922 117.893 50.8618 118.111 50.4681 118.505C50.0743 118.9 49.8495 119.438 49.8431 120.002C49.8431 121.214 50.7602 122.179 51.9185 122.179C53.0528 122.204 53.9939 121.239 53.9939 120.052ZM53.9939 85.9146C53.9939 85.3503 53.7753 84.8092 53.3861 84.4103C52.9968 84.0113 52.469 83.7872 51.9185 83.7872C50.7602 83.7872 49.8431 84.7767 49.8431 85.964C49.8672 87.1267 50.8084 88.0914 51.9427 88.0667C53.101 88.0419 53.9939 87.0772 53.9939 85.9146ZM110.199 85.9146C110.199 84.7272 109.282 83.7872 108.123 83.7624C106.989 83.7624 106.048 84.7024 106.024 85.8898C106.024 87.0772 106.965 88.0667 108.123 88.0667C109.282 88.0667 110.199 87.1019 110.199 85.9146ZM55.466 120.076C55.466 121.239 56.4313 122.204 57.5656 122.204C58.7239 122.204 59.641 121.214 59.641 120.002C59.6362 119.721 59.5775 119.444 59.4682 119.186C59.3589 118.929 59.2012 118.695 59.004 118.5C58.8068 118.305 58.574 118.151 58.3189 118.048C58.0638 117.945 57.7914 117.895 57.5173 117.9C57.2432 117.904 56.9727 117.965 56.7212 118.077C56.4698 118.189 56.2423 118.35 56.0518 118.553C55.8614 118.755 55.7116 118.993 55.6111 119.255C55.5106 119.516 55.4613 119.795 55.466 120.076ZM82.1085 102.958C82.1085 102.394 81.8898 101.853 81.5006 101.454C81.1114 101.055 80.5835 100.831 80.0331 100.831C78.8988 100.831 77.9577 101.796 77.9577 102.958C77.9577 104.146 78.923 105.135 80.0572 105.111C81.1914 105.111 82.1085 104.146 82.1085 102.958ZM100.425 120.052C100.425 121.214 101.366 122.179 102.501 122.179C103.635 122.179 104.576 121.214 104.576 120.052C104.576 118.864 103.635 117.875 102.476 117.9C101.342 117.924 100.425 118.864 100.425 120.052Z" fill="white"/>
<path d="M184.915 131.951H174.32V98.0857C174.079 98.2094 173.91 98.2589 173.765 98.3331C170.411 100.164 167.756 102.81 165.681 106.026C164.45 107.931 163.412 109.984 162.327 111.988C162.182 112.26 162.037 112.408 161.699 112.384C160.854 112.359 160.034 112.359 159.189 112.384C158.851 112.384 158.707 112.26 158.586 111.988C157.331 109.193 155.835 106.571 153.928 104.196C152.022 101.796 149.778 99.8173 147.099 98.3578C146.978 98.2836 146.833 98.2341 146.616 98.1352V132H135.974V84.3813C146.133 84.6287 154.242 88.8835 160.444 97.0715C166.622 88.9082 174.731 84.6287 184.891 84.3813C184.915 100.238 184.915 116.07 184.915 131.951Z" fill="white"/>
<path d="M247.926 104.888C248.022 104.764 248.143 104.64 248.239 104.492C253.114 97.8625 257.989 91.2082 262.84 84.5539C263.057 84.2571 263.298 84.1334 263.66 84.1334C267.545 84.1581 271.431 84.1334 275.316 84.1334H275.919C270.031 91.5545 264.215 98.852 258.375 106.199C264.674 114.758 270.948 123.317 277.295 131.925C277.078 131.95 276.933 131.95 276.788 131.95H264.288C263.95 131.95 263.757 131.827 263.539 131.554C258.447 124.282 253.355 116.984 248.239 109.712C248.143 109.55 248.01 109.415 247.853 109.316V131.901H237.211C237.211 131.752 237.187 131.579 237.187 131.431V84.6529C237.187 84.2076 237.307 84.1086 237.717 84.1086C240.903 84.1334 244.088 84.1334 247.274 84.1086C247.732 84.1086 247.853 84.2323 247.853 84.7023C247.829 91.2329 247.853 97.7388 247.853 104.269V104.814C247.853 104.863 247.877 104.863 247.926 104.888Z" fill="white"/>
<path d="M232.65 131.975H219.643C219.257 131.975 219.039 131.851 218.822 131.554C213.73 124.257 208.614 116.96 203.498 109.687L203.136 109.217V131.95H192.518V84.1829H203.088V104.838C203.112 104.863 203.16 104.888 203.184 104.888C203.281 104.764 203.401 104.64 203.498 104.492C208.349 97.8625 213.223 91.2329 218.074 84.6034C218.315 84.2571 218.581 84.1086 219.015 84.1086C222.852 84.1334 226.689 84.1086 230.527 84.1086H231.202C225.314 91.5298 219.498 98.8272 213.658 106.174C220.005 114.783 226.303 123.317 232.65 131.975Z" fill="white"/>
</g>
<defs>
<linearGradient id="paint0_linear_1769_1578" x1="384" y1="0" x2="384" y2="445.984" gradientUnits="userSpaceOnUse">
<stop stop-color="white"/>
<stop offset="0.918644" stop-color="#3D308E"/>
</linearGradient>
<clipPath id="clip0_1769_1578">
<rect width="320" height="185" fill="white"/>
</clipPath>
</defs>
</svg>
