<svg width="320" height="185" viewBox="0 0 320 185" fill="none" xmlns="http://www.w3.org/2000/svg">
<g clip-path="url(#clip0_1769_1578)">
<path d="M0 0H768V445.984H0V0Z" fill="#5B2A98"/>
<path d="M0 0H768V445.984H0V0Z" fill="url(#paint0_linear_1769_1578)" fill-opacity="0.6"/>
<path fill-rule="evenodd" clip-rule="evenodd" d="M120.757 112.077C120.056 111.049 119.027 110.488 117.672 110.488H114.119V138.114H117.672C119.027 138.114 120.056 137.6 120.757 136.525C121.318 135.684 121.645 134.375 121.832 132.599C121.972 130.822 122.066 128.017 122.066 124.231C122.066 120.491 121.972 117.733 121.832 115.957C121.645 114.227 121.318 112.919 120.757 112.077Z" fill="white"/>
<path fill-rule="evenodd" clip-rule="evenodd" d="M168.111 49.5781L164.839 65.6119H171.43L168.111 49.5781Z" fill="white"/>
<path fill-rule="evenodd" clip-rule="evenodd" d="M212.051 27H108.042C100.89 27 95 32.89 95 40.042V144.051C95 151.203 100.843 157.046 107.995 157.046H212.004C219.157 157.046 225 151.203 225 144.051V40.042C225.046 32.89 219.203 27 212.051 27ZM165.212 40.3225H171.055L180.358 78.6072H174.047L172.504 71.0344H163.623L162.127 78.6072H155.769L165.212 40.3225ZM134.453 40.3225H140.484V73.1847H150.534V78.6072H134.453V40.3225ZM121.178 64.0226C120.71 63.2746 119.775 62.5735 118.233 61.9658L113.652 60.0959C111.688 59.2545 110.286 58.1794 109.491 56.8237C108.696 55.4681 108.323 53.3646 108.323 50.4663C108.323 46.9137 109.351 44.2024 111.454 42.3326C113.231 40.79 115.381 40.042 117.999 40.042C120.991 40.042 123.281 40.79 124.87 42.3326C126.647 44.1089 127.582 46.8669 127.582 50.6533H121.598C121.598 48.7367 121.271 47.3344 120.663 46.5864C120.102 45.8385 119.214 45.4645 117.952 45.4645C116.877 45.4645 116.036 45.8385 115.381 46.5397C114.68 47.3344 114.353 48.5965 114.353 50.3261C114.353 51.9154 114.54 53.0373 114.96 53.6918C115.334 54.3462 116.223 54.9539 117.531 55.5149L122.066 57.3379C124.31 58.2729 125.852 59.4882 126.647 60.9841C127.442 62.48 127.862 64.864 127.862 68.0894C127.862 72.1096 127.021 74.9143 125.385 76.5504C123.608 78.2333 121.131 79.0747 117.905 79.0747C114.633 79.0747 112.156 78.2333 110.473 76.5504C108.837 74.9143 107.995 72.1563 107.995 68.3232H114.025C114.025 70.38 114.399 71.7824 115.101 72.6238C115.708 73.325 116.643 73.6522 117.905 73.6522C119.214 73.6522 120.196 73.2782 120.804 72.577C121.505 71.7824 121.832 70.38 121.832 68.3232C121.832 66.2196 121.645 64.8173 121.178 64.0226ZM127.628 135.029C127.301 137.273 126.507 139.096 125.291 140.405C123.421 142.555 120.944 143.584 117.812 143.584H107.995V105.019H117.812C120.897 105.019 123.421 106.094 125.291 108.197C126.507 109.553 127.301 111.329 127.628 113.526C127.956 115.77 128.096 119.323 128.096 124.231C128.143 129.186 127.956 132.785 127.628 135.029ZM155.115 134.141C155.115 137.039 154.227 139.377 152.45 141.246C150.627 143.116 148.243 144.051 145.298 144.051C142.353 144.051 139.923 143.116 138.1 141.246C136.323 139.423 135.435 137.039 135.435 134.141V105.065H141.512V134.468C141.512 135.824 141.886 136.806 142.587 137.507C143.288 138.208 144.223 138.582 145.298 138.582C146.374 138.582 147.262 138.208 147.963 137.507C148.664 136.806 149.038 135.777 149.038 134.468V105.065H155.115V134.141ZM182.929 143.63H177.553L168.437 120.725V143.63H162.361V105.065H167.783L176.852 127.971V105.065H182.929V143.63ZM205.507 143.63L199.29 127.737L196.345 133.674V143.584H190.268V105.019H196.345V123.156L204.759 105.019H210.883L203.123 121.006L212.051 143.584H205.507V143.63ZM212.051 95.2954H108.042V88.7978H212.051V95.2954ZM212.051 78.654H206.021V54.7669L200.785 70.4735H197.467L192.371 55.0474V78.654H186.341V40.3225H191.764L199.196 60.4232L206.582 40.3225H212.051V78.654Z" fill="white"/>
</g>
<defs>
<linearGradient id="paint0_linear_1769_1578" x1="384" y1="0" x2="384" y2="445.984" gradientUnits="userSpaceOnUse">
<stop stop-color="white"/>
<stop offset="0.918644" stop-color="#3D308E"/>
</linearGradient>
<clipPath id="clip0_1769_1578">
<rect width="320" height="185" fill="white"/>
</clipPath>
</defs>
</svg>
