<svg width="320" height="185" viewBox="0 0 320 185" fill="none" xmlns="http://www.w3.org/2000/svg">
<g clip-path="url(#clip0_1769_1578)">
<path d="M0 0H768V445.984H0V0Z" fill="#5B2A98"/>
<path d="M0 0H768V445.984H0V0Z" fill="url(#paint0_linear_1769_1578)" fill-opacity="0.6"/>
<path fill-rule="evenodd" clip-rule="evenodd" d="M96.0244 83.0838L102.525 77.5616V92.7386L96.0244 83.0838ZM244.442 74.772C238.143 74.772 233.936 75.4927 231.472 77.4683L232.281 75.2127H221.168L218.222 85.1475C217.817 86.6772 217.454 87.9424 217.086 89.3009C216.691 87.7661 216.162 86.4749 215.882 85.6712L211.835 75.2127H204.245L200.168 85.8268C199.519 87.4031 198.954 88.5801 198.59 89.8712C198.227 87.9424 197.983 86.1949 197.662 85.1475L194.912 75.2127H184.526V68.2335H174.311V75.4046H168.978V75.1349C168.978 73.8335 169.745 73.4705 171.079 73.4705H173.055V67.9016H167.234C161.227 67.9016 158.923 69.4416 158.923 74.2068V75.4046H152.781V77.3542C152.739 77.2349 152.62 77.152 152.454 76.9498C149.388 74.772 143.204 74.6838 139.608 74.6838C131.899 74.6838 127.292 75.8661 125.357 79.0394C124.346 76.0579 122.161 74.7305 118.442 74.7305C115.614 74.7305 113.472 75.4046 111.9 76.9498V75.2127H91.2982L84.0299 82.3268V68.2335H73.8096V98.1105H84.0299V93.0861L88.3462 89.1349L93.9233 98.1105H112.143V86.1949C112.143 83.5764 112.787 81.9949 114.566 81.9949C116.543 81.9949 117.072 83.8875 117.072 85.4794H126.047C126.047 84.3024 125.954 82.8816 125.886 81.7979H134.929C135.085 80.1386 136.698 79.9727 139.65 79.9727C140.988 79.9727 144.942 80.1386 144.942 82.1194C144.942 83.5246 143.173 83.8149 139.65 83.8149C138.28 83.8149 136.418 83.9705 134.322 84.1001C129.352 84.2505 125.886 84.6238 123.697 87.2372C122.841 88.3001 122.478 89.669 122.478 91.4372C122.478 96.3683 126.161 98.1105 133.793 98.1105C136.013 98.1105 138.037 97.9446 139.65 97.7424C141.746 97.4986 143.619 96.5653 145.186 94.9164C145.186 96.1972 145.549 97.0475 145.99 98.1105H156.869L156.817 97.0994C156.615 97.0164 156.412 96.7261 156.412 96.7261C155.888 96.1972 155.561 95.5127 155.561 94.6364V85.8268C155.561 84.3024 155.447 82.8816 155.12 81.7979H158.923V98.1105H169.185V81.7979H174.311V91.1157C174.311 94.1957 175.156 97.0994 177.258 97.6231C178.513 97.8253 181.019 98.1105 183.478 98.1105H188.526V91.7638H186.959C184.526 91.7638 184.526 90.3483 184.526 86.8846V81.7979H185.942L191.519 98.1105H202.954L207.026 88.5801C207.389 87.7661 207.566 86.6772 207.965 85.6712C208.121 86.6772 208.401 87.9424 208.769 88.8186L212.686 98.1105H224.318L229.853 82.1505L239.835 82.3268C239.913 80.6986 241.531 79.9727 244.395 79.9727H245.08C247.912 79.9727 249.526 81.0668 249.526 82.1194C249.526 83.5246 247.829 83.8512 244.442 83.8512C243.15 83.8512 241.204 83.9705 239.15 84.1001C234.144 84.3024 230.631 84.6238 228.566 87.2372C227.669 88.3001 227.316 89.669 227.316 91.4372C227.316 96.3683 230.989 98.1105 238.584 98.1105C240.8 98.1105 242.864 97.8616 244.442 97.7424C246.377 97.5453 248.364 96.5653 250.014 94.9164C250.014 96.1972 250.335 97.0475 250.745 98.1105H261.328V97.6231C260.436 97.0475 260.436 96.0105 260.436 94.6364V85.8268C260.436 84.4527 260.312 83.2912 260.068 82.1505L267.18 94.9164C266.371 97.6231 265.204 98.1105 262.413 98.1105H260.031V104.317H267.18C270.049 104.317 272.192 103.965 273.977 102.181C275.18 101.092 276.752 98.5927 278.615 95.1498L288.425 75.2127H277.437L273.764 83.8512C273.401 84.9038 272.96 85.9512 272.763 87.0038C272.436 85.8268 271.995 84.6238 271.388 83.3638L267.668 75.2127H256.312L257.484 77.3179C257.37 77.2349 257.246 77.1157 257.126 76.9498C255.098 75.4927 250.942 74.7305 244.883 74.7305C244.763 74.7305 244.556 74.772 244.442 74.772ZM139.65 92.9461C139.245 92.9772 138.436 93.0861 137.793 93.0861C135.531 93.0861 134.078 92.1683 134.078 90.7112C134.078 89.3009 135.168 88.8186 138.037 88.5801C138.555 88.5801 139.245 88.4142 139.65 88.4142C141.684 88.4142 143.442 88.212 145.186 87.4031V87.9424C145.186 90.5194 143.048 92.6194 139.65 92.9461ZM244.442 88.4972C244.078 88.4972 243.388 88.5801 242.823 88.5801C239.996 88.8186 238.906 89.3009 238.906 90.7112C238.906 92.1683 240.312 93.0861 242.621 93.0861C243.264 93.0861 244.078 92.9461 244.442 92.9461C247.788 92.6868 250.014 90.5194 250.014 87.9424C250.014 87.9424 250.014 87.5275 249.853 87.4031C248.281 88.212 246.423 88.4972 244.442 88.4972Z" fill="white"/>
<path fill-rule="evenodd" clip-rule="evenodd" d="M38.6212 104.156C47.0972 104.156 54.2099 97.903 54.2099 89.1763C54.2099 85.9874 53.0478 82.0726 51.8754 79.9726L40.1106 97.903H27.6735L38.6212 81.0667L43.4294 73.6778C41.8885 73.3511 40.3155 73.2681 38.6212 73.2681V73.2422C30.1378 73.2422 23.0293 79.9726 23.0293 88.8185C23.0293 97.903 30.018 104.156 38.6212 104.156ZM38.6212 107.636C27.9983 105.333 20 95.7304 20 84.1C20 73.0296 27.9983 63.6652 38.6212 61.5289C40.1604 61.197 41.8211 61 43.4294 61C47.6731 61 51.1439 61.5289 54.2099 63.1778L43.6732 79.9726H51.8754L59.7559 67.1807C63.5535 70.94 67.2577 77.9193 67.2577 84.1C67.2577 89.6793 65.3952 94.7919 62.2617 98.8519C57.9141 104.473 51.1075 108.076 43.4294 108.076C41.8211 108.076 40.1604 107.879 38.6212 107.636Z" fill="white"/>
<path d="M294.697 74.7927H295.584C296.009 74.7927 296.29 74.7305 296.45 74.606C296.606 74.4816 296.679 74.3157 296.679 74.0927C296.679 73.9683 296.648 73.849 296.57 73.7453C296.497 73.6416 296.398 73.5535 296.258 73.512C296.129 73.4497 295.885 73.4342 295.532 73.4342H294.697V74.7927ZM293.96 77.3335V72.8172H295.522C296.051 72.8172 296.435 72.8586 296.679 72.9468C296.907 73.0246 297.094 73.1697 297.239 73.3823C297.379 73.5846 297.462 73.8075 297.462 74.046C297.462 74.3727 297.338 74.6579 297.094 74.9016C296.865 75.1557 296.544 75.2905 296.155 75.3112C296.31 75.389 296.445 75.472 296.533 75.5549C296.72 75.7312 296.943 76.0372 297.208 76.452L297.758 77.3335H296.865L296.456 76.6283C296.144 76.0683 295.885 75.7209 295.708 75.5809C295.574 75.4772 295.382 75.4253 295.122 75.4201H294.697V77.3335H293.96ZM295.802 71.5209C295.21 71.5209 294.635 71.6712 294.079 71.9668C293.532 72.2668 293.078 72.7117 292.767 73.2527C292.456 73.8179 292.3 74.409 292.3 75.0209C292.3 75.6172 292.45 76.2031 292.762 76.7579C293.073 77.3023 293.509 77.7431 294.064 78.0438C294.609 78.3497 295.2 78.5157 295.802 78.5157C296.404 78.5157 296.985 78.3497 297.535 78.0438C298.084 77.748 298.537 77.3019 298.842 76.7579C299.148 76.2031 299.299 75.6172 299.299 75.0209C299.299 74.409 299.148 73.8179 298.826 73.2527C298.521 72.7073 298.066 72.2609 297.514 71.9668C296.954 71.6712 296.393 71.5209 295.802 71.5209ZM295.802 70.8157C296.513 70.8157 297.197 70.992 297.867 71.3601C298.536 71.7231 299.06 72.2364 299.433 72.9157C299.807 73.5846 299.999 74.2794 299.999 75.0209C299.999 75.7312 299.812 76.4312 299.439 77.1001C299.07 77.7638 298.551 78.2927 297.893 78.6505C297.257 79.0174 296.536 79.2088 295.802 79.2053C295.076 79.2053 294.38 79.029 293.711 78.6505C293.047 78.2927 292.523 77.7638 292.155 77.1001C291.786 76.4312 291.6 75.7312 291.6 75.0209C291.6 74.2794 291.786 73.5846 292.16 72.9157C292.544 72.2364 293.068 71.7231 293.737 71.3601C294.411 70.992 295.096 70.8157 295.802 70.8157Z" fill="white"/>
<path d="M76.3522 119.085C76.8502 119.085 77.2134 118.945 77.4728 118.665C77.7114 118.374 77.8411 118.058 77.8411 117.685C77.8411 117.342 77.7322 117.047 77.5091 116.777C77.2912 116.502 76.9073 116.373 76.3522 116.373H75.5428V119.085H76.3522ZM76.3522 114.993C77.3067 114.993 78.0175 115.165 78.4896 115.496C78.9565 115.818 79.2885 116.181 79.4649 116.575C79.5739 116.787 79.6258 117 79.6621 117.207C79.6984 117.415 79.7191 117.581 79.7191 117.731V117.876C79.6828 118.525 79.4182 119.116 78.9202 119.65C78.4222 120.189 77.6803 120.453 76.679 120.453H75.5428V123.741H73.7686V114.993H76.3522Z" fill="white"/>
<path d="M86.3995 116.175C86.2543 116.201 86.0986 116.243 85.9534 116.3C85.5539 116.445 85.2011 116.751 84.8743 117.202C84.5578 117.658 84.4022 118.374 84.4022 119.375C84.4022 120.355 84.5578 121.081 84.8743 121.532C85.2011 121.983 85.5539 122.289 85.9534 122.439C86.0986 122.501 86.2543 122.532 86.3995 122.548C86.55 122.574 86.6849 122.589 86.8146 122.589C86.9339 122.589 87.0791 122.574 87.2244 122.548C87.3697 122.532 87.5201 122.501 87.6706 122.439C88.0597 122.289 88.4124 121.983 88.7445 121.532C89.0558 121.081 89.2166 120.355 89.2166 119.375C89.2166 118.374 89.0558 117.658 88.7445 117.202C88.4124 116.751 88.0597 116.445 87.6706 116.3C87.526 116.245 87.3766 116.203 87.2244 116.175C87.0791 116.165 86.9339 116.149 86.8146 116.149C86.6849 116.149 86.55 116.165 86.3995 116.175ZM89.8599 116.041C90.6796 116.803 91.0894 117.912 91.0894 119.375C91.0894 120.821 90.6796 121.936 89.8599 122.688C89.0402 123.45 88.0233 123.824 86.8146 123.824C85.5954 123.824 84.5734 123.45 83.7537 122.688C82.934 121.936 82.5293 120.821 82.5293 119.375C82.5293 117.912 82.934 116.803 83.7537 116.041C84.5734 115.273 85.5954 114.905 86.8146 114.905C88.0233 114.905 89.0402 115.273 89.8599 116.041Z" fill="white"/>
<path d="M100.777 123.461C100.507 123.559 100.237 123.627 99.9517 123.673C99.6664 123.746 99.3811 123.777 99.0802 123.798C98.992 123.803 98.8986 123.818 98.7948 123.818C98.6963 123.824 98.6029 123.824 98.5147 123.824C97.2851 123.824 96.2164 123.456 95.3137 122.73C94.4214 121.978 93.9648 120.884 93.9648 119.411C93.9648 118.037 94.4006 116.938 95.2722 116.118C96.1386 115.31 97.3318 114.895 98.8363 114.895C99.1269 114.895 99.3811 114.91 99.6197 114.936C99.8532 114.978 100.087 115.014 100.315 115.056C100.393 115.087 100.465 115.118 100.548 115.128C100.631 115.144 100.699 115.164 100.777 115.201L100.699 116.694C100.419 116.575 100.133 116.497 99.848 116.45C99.5558 116.393 99.2586 116.365 98.9609 116.367C98.0789 116.367 97.3318 116.632 96.73 117.15C96.1386 117.674 95.8429 118.416 95.8429 119.39C95.8429 120.391 96.1023 121.112 96.6263 121.563C97.1503 122.004 97.7313 122.268 98.3642 122.336C98.4472 122.351 98.5302 122.351 98.6081 122.356C98.6859 122.367 98.7637 122.367 98.8363 122.367C99.1839 122.367 99.49 122.33 99.765 122.273C100.04 122.201 100.273 122.133 100.476 122.061L100.569 122.019L100.663 121.973L100.777 123.461Z" fill="white"/>
<path d="M110.396 123.461C110.126 123.559 109.856 123.627 109.571 123.673C109.286 123.746 109 123.777 108.71 123.798C108.611 123.803 108.513 123.818 108.414 123.818C108.315 123.824 108.222 123.824 108.134 123.824C106.904 123.824 105.836 123.456 104.928 122.73C104.041 121.978 103.584 120.884 103.584 119.411C103.584 118.037 104.025 116.938 104.891 116.118C105.753 115.31 106.951 114.895 108.455 114.895C108.746 114.895 109 114.91 109.239 114.936C109.467 114.978 109.706 115.014 109.934 115.056C110.007 115.087 110.085 115.118 110.162 115.128C110.245 115.144 110.318 115.164 110.396 115.201L110.318 116.694C110.038 116.575 109.747 116.497 109.462 116.45C109.187 116.393 108.891 116.367 108.58 116.367C107.693 116.367 106.951 116.632 106.349 117.15C105.753 117.674 105.462 118.416 105.462 119.39C105.462 120.391 105.721 121.112 106.245 121.563C106.769 122.004 107.35 122.268 107.983 122.336C108.066 122.351 108.149 122.351 108.222 122.356C108.305 122.367 108.383 122.367 108.455 122.367C108.798 122.367 109.109 122.33 109.384 122.273C109.659 122.201 109.887 122.133 110.095 122.061L110.199 122.019L110.276 121.973L110.396 123.461Z" fill="white"/>
<path d="M115.289 114.999V119.484L115.252 121.625H115.289L115.916 120.339L118.972 114.999H121.099V123.741H119.33V119.235L119.366 117.119H119.33L118.723 118.447L115.636 123.741H113.52V114.999H115.289Z" fill="white"/>
<path d="M130.603 112.924C130.457 113.272 130.286 113.557 130.068 113.754C129.856 113.951 129.627 114.091 129.389 114.19C129.197 114.273 129 114.324 128.797 114.355C128.611 114.376 128.434 114.387 128.294 114.387C128.154 114.387 127.983 114.376 127.796 114.355C127.599 114.324 127.407 114.273 127.21 114.2C126.971 114.101 126.743 113.951 126.53 113.759C126.307 113.562 126.125 113.282 125.98 112.924L126.893 112.442C126.914 112.484 126.935 112.535 126.966 112.593C127.002 112.66 127.039 112.722 127.096 112.784C127.194 112.904 127.339 113.013 127.526 113.111C127.713 113.204 127.972 113.246 128.294 113.246C128.621 113.246 128.875 113.204 129.057 113.111C129.249 113.013 129.389 112.904 129.487 112.784C129.539 112.722 129.591 112.66 129.617 112.593C129.648 112.535 129.674 112.484 129.695 112.442L130.603 112.924ZM126.369 115.004V119.489L126.333 121.62H126.369L126.997 120.339L130.053 115.004H132.18V123.741H130.406V119.235L130.442 117.124H130.406L129.804 118.441L126.722 123.741H124.59V115.004H126.369Z" fill="white"/>
<path d="M142.171 123.461C141.907 123.559 141.626 123.627 141.346 123.673C141.061 123.746 140.776 123.777 140.485 123.798C140.387 123.803 140.288 123.818 140.189 123.818C140.101 123.824 139.997 123.824 139.914 123.824C138.68 123.824 137.616 123.456 136.713 122.73C135.816 121.978 135.359 120.884 135.359 119.411C135.359 118.037 135.8 116.938 136.672 116.118C137.538 115.31 138.737 114.895 140.231 114.895C140.521 114.895 140.776 114.91 141.019 114.936C141.253 114.978 141.486 115.014 141.709 115.056C141.782 115.087 141.865 115.118 141.938 115.128C142.026 115.144 142.093 115.164 142.171 115.201L142.093 116.694C141.813 116.575 141.523 116.497 141.243 116.45C140.954 116.394 140.66 116.366 140.366 116.367C139.468 116.367 138.726 116.632 138.125 117.15C137.528 117.674 137.237 118.416 137.237 119.39C137.237 120.391 137.497 121.112 138.031 121.563C138.545 122.004 139.136 122.268 139.759 122.336C139.842 122.351 139.925 122.351 139.997 122.356C140.086 122.367 140.158 122.367 140.231 122.367C140.578 122.367 140.89 122.33 141.16 122.273C141.44 122.201 141.673 122.133 141.87 122.061L141.974 122.019L142.062 121.973L142.171 123.461Z" fill="white"/>
<path d="M147.064 114.999V118.737H147.111L150.27 114.999H152.382L148.729 118.955L152.6 123.741H150.348L147.111 119.39H147.064V123.741H145.295V114.999H147.064Z" fill="white"/>
<path d="M157.083 114.999V119.484L157.051 121.625H157.083L157.71 120.339L160.761 114.999H162.893V123.741H161.119V119.235L161.16 117.119H161.119L160.517 118.447L157.435 123.741H155.313V114.999H157.083Z" fill="white"/>
<path d="M171.614 114.999V116.549H168.169V118.524H171.302V119.95H168.169V122.185H171.614V123.741H166.395V114.999H171.614Z" fill="white"/>
<path d="M187.131 114.999V116.549H184.604V123.741H182.83V116.549H180.309V114.999H187.131Z" fill="white"/>
<path d="M195.156 114.999V116.549H191.717V118.524H194.845V119.95H191.717V122.185H195.156V123.741H189.942V114.999H195.156Z" fill="white"/>
<path d="M200.142 114.999L201.543 117.43L201.942 118.172H201.979L202.378 117.43L203.81 114.999H205.755L203.094 119.167L206.01 123.741H203.914L202.243 120.961L201.87 120.287H201.833L201.455 120.961L199.717 123.741H197.776L200.702 119.167L198.046 114.999H200.142Z" fill="white"/>
<path d="M210.659 114.999V118.524H214.207V114.999H215.987V123.741H214.207V119.95H210.659V123.741H208.89V114.999H210.659Z" fill="white"/>
<path d="M223.036 116.175C222.891 116.201 222.735 116.243 222.59 116.3C222.191 116.445 221.843 116.751 221.521 117.202C221.205 117.658 221.044 118.374 221.044 119.375C221.044 120.355 221.205 121.081 221.521 121.532C221.843 121.983 222.191 122.289 222.59 122.439C222.735 122.501 222.891 122.532 223.036 122.548C223.187 122.574 223.327 122.589 223.451 122.589C223.576 122.589 223.716 122.574 223.861 122.548C224.012 122.532 224.162 122.501 224.312 122.439C224.702 122.289 225.06 121.983 225.381 121.532C225.708 121.081 225.858 120.355 225.858 119.375C225.858 118.374 225.708 117.658 225.381 117.202C225.06 116.751 224.702 116.445 224.312 116.3C224.162 116.243 224.012 116.201 223.861 116.175C223.716 116.165 223.576 116.149 223.451 116.149C223.327 116.149 223.187 116.165 223.036 116.175ZM226.502 116.041C227.321 116.803 227.737 117.912 227.737 119.375C227.737 120.821 227.321 121.936 226.502 122.688C225.682 123.45 224.665 123.824 223.451 123.824C222.232 123.824 221.215 123.45 220.401 122.688C219.571 121.936 219.166 120.821 219.166 119.375C219.166 117.912 219.571 116.803 220.401 116.041C221.215 115.273 222.232 114.905 223.451 114.905C224.665 114.905 225.682 115.273 226.502 116.041Z" fill="white"/>
<path d="M237.651 114.999V123.741H235.882V116.549H233.568V118.296C233.568 119.966 233.448 121.314 233.21 122.315C232.976 123.321 232.245 123.829 231.02 123.829C230.948 123.829 230.886 123.829 230.818 123.824C230.74 123.824 230.668 123.808 230.6 123.803C230.517 123.787 230.455 123.772 230.372 123.767C230.31 123.751 230.232 123.746 230.175 123.741L230.247 122.351L230.299 122.356L230.356 122.382L230.419 122.387H230.471L230.6 122.408H230.72C231.249 122.408 231.591 122.092 231.721 121.459C231.856 120.827 231.923 120.116 231.923 119.364V118.556C231.913 118.431 231.908 118.307 231.908 118.203V114.999H237.651Z" fill="white"/>
<path d="M244.711 116.175C244.561 116.201 244.41 116.243 244.26 116.3C243.865 116.445 243.518 116.751 243.191 117.202C242.88 117.658 242.719 118.374 242.719 119.375C242.719 120.355 242.88 121.081 243.191 121.532C243.518 121.983 243.865 122.289 244.26 122.439C244.41 122.501 244.561 122.532 244.711 122.548C244.856 122.574 244.996 122.589 245.126 122.589C245.251 122.589 245.391 122.574 245.536 122.548C245.686 122.532 245.837 122.501 245.987 122.439C246.376 122.289 246.734 121.983 247.056 121.532C247.378 121.081 247.533 120.355 247.533 119.375C247.533 118.374 247.378 117.658 247.056 117.202C246.734 116.751 246.376 116.445 245.987 116.3C245.837 116.243 245.686 116.201 245.536 116.175C245.391 116.165 245.251 116.149 245.126 116.149C244.996 116.149 244.856 116.165 244.711 116.175ZM248.177 116.041C248.996 116.803 249.406 117.912 249.406 119.375C249.406 120.821 248.996 121.936 248.177 122.688C247.357 123.45 246.34 123.824 245.126 123.824C243.907 123.824 242.89 123.45 242.065 122.688C241.245 121.936 240.841 120.821 240.841 119.375C240.841 117.912 241.245 116.803 242.065 116.041C242.89 115.273 243.907 114.905 245.126 114.905C246.34 114.905 247.357 115.273 248.177 116.041Z" fill="white"/>
<path d="M257.968 114.999V116.549H254.362V123.741H252.593V114.999H257.968Z" fill="white"/>
<path d="M262.485 114.999V119.484L262.449 121.625H262.485L263.108 120.339L266.163 114.999H268.291V123.741H266.521V119.235L266.558 117.119H266.521L265.92 118.447L262.838 123.741H260.711V114.999H262.485Z" fill="white"/>
<path d="M273.563 114.999V119.484L273.532 121.625H273.563L274.186 120.339L277.252 114.999H279.368V123.741H277.599V119.235L277.641 117.119H277.599L276.997 118.447L273.916 123.741H271.794V114.999H273.563Z" fill="white"/>
</g>
<defs>
<linearGradient id="paint0_linear_1769_1578" x1="384" y1="0" x2="384" y2="445.984" gradientUnits="userSpaceOnUse">
<stop stop-color="white"/>
<stop offset="0.918644" stop-color="#3D308E"/>
</linearGradient>
<clipPath id="clip0_1769_1578">
<rect width="320" height="185" fill="white"/>
</clipPath>
</defs>
</svg>
