<svg width="135" height="544" viewBox="0 0 135 544" fill="none" xmlns="http://www.w3.org/2000/svg">
<mask id="mask0_1736_1732" style="mask-type:luminance" maskUnits="userSpaceOnUse" x="0" y="0" width="135" height="546">
<path d="M0.000717163 546L134.414 546L134.414 0L0.000764896 -1.17508e-05L0.000717163 546Z" fill="white"/>
</mask>
<g mask="url(#mask0_1736_1732)">
<path d="M37.7748 474.101C37.3254 476.166 37.0578 478.371 37.0578 480.885C37.0578 486.642 38.663 492.143 41.6592 496.894C38.6844 501.634 37.0792 507.135 37.0792 512.87C37.0792 518.617 38.6844 524.117 41.6699 528.868C38.6844 533.619 37.0792 539.109 37.0792 544.866C37.0792 550.612 38.6844 556.112 41.6699 560.864C38.6844 565.615 37.0792 571.115 37.0792 576.861C37.0792 579.344 37.3467 581.559 37.7748 583.646C29.7705 591.372 24.7732 602.19 24.7732 614.164C24.7732 626.149 29.7705 636.979 37.7855 644.705C37.3467 646.77 37.0685 648.964 37.0685 651.468C37.0685 657.214 38.6736 662.714 41.6592 667.465C38.6736 672.217 37.0685 677.706 37.0685 683.452C37.0685 689.199 38.6736 694.699 41.6699 699.45C35.5704 709.188 35.5704 721.687 41.6699 731.424C38.6843 736.176 37.0685 741.676 37.0685 747.433C37.0685 749.915 37.336 752.13 37.7641 754.217C29.7598 761.943 24.7625 772.762 24.7625 784.736C24.7625 796.721 29.7598 807.55 37.7748 815.276C37.336 817.341 37.0578 819.535 37.0578 822.039C37.0578 830.086 40.1931 837.652 45.886 843.345L67.2128 864.65L88.5182 843.345C94.211 837.652 97.3464 830.086 97.3464 822.039C97.3464 819.535 97.0681 817.331 96.6294 815.276C104.644 807.55 109.652 796.721 109.652 784.736C109.652 772.762 104.655 761.932 96.6508 754.206C97.0896 752.12 97.3464 749.905 97.3464 747.422C97.3464 741.676 95.7413 736.176 92.7557 731.424C95.7413 726.673 97.3464 721.173 97.3464 715.427C97.3464 709.68 95.7413 704.18 92.7557 699.429C95.7413 694.678 97.3464 689.188 97.3464 683.431C97.3464 677.685 95.7413 672.184 92.7557 667.433C95.7413 662.682 97.3464 657.182 97.3464 651.436C97.3464 648.932 97.0682 646.727 96.6294 644.673C104.644 636.947 109.652 626.117 109.652 614.132C109.652 602.158 104.655 591.329 96.6508 583.614C97.0896 581.527 97.3464 579.312 97.3464 576.829C97.3464 571.083 95.7413 565.583 92.7557 560.831C95.7413 556.08 97.3464 550.58 97.3464 544.834C97.3464 539.087 95.7413 533.587 92.745 528.836C98.8445 519.087 98.8445 506.589 92.7343 496.851C95.7199 492.1 97.325 486.61 97.325 480.864C97.325 478.36 97.0468 476.166 96.608 474.112C104.634 466.386 109.642 455.546 109.642 443.561C109.642 431.576 104.644 420.747 96.6295 413.021C97.0575 410.934 97.325 408.73 97.325 406.258C97.325 400.511 95.7199 395.022 92.745 390.281C95.7413 385.53 97.3464 380.03 97.3464 374.273C97.3464 368.527 95.7413 363.026 92.7557 358.275C95.7413 353.524 97.3464 348.034 97.3464 342.277C97.3464 336.531 95.7413 331.031 92.7558 326.28C95.7413 321.528 97.3464 316.028 97.3464 310.282C97.3464 307.778 97.0682 305.584 96.6295 303.519C104.644 295.793 109.652 284.964 109.652 272.979C109.652 261.004 104.655 250.175 96.6509 242.449C97.0896 240.362 97.3464 238.147 97.3464 235.665C97.3464 229.918 95.7413 224.418 92.7558 219.667C95.7413 214.916 97.3464 209.416 97.3464 203.669C97.3464 197.923 95.7413 192.423 92.7451 187.672C98.8445 177.923 98.8445 165.424 92.7344 155.687C95.7199 150.935 97.325 145.446 97.325 139.7C97.325 137.196 97.0468 135.002 96.6081 132.947C104.634 125.221 109.642 114.381 109.642 102.397C109.642 90.4116 104.644 79.5823 96.6295 71.8563C97.0575 69.7696 97.325 67.5652 97.325 65.0933C97.325 59.347 95.7199 53.8574 92.7451 49.117C95.7413 44.3658 97.3464 38.8656 97.3464 33.1085C97.3464 27.3622 95.7413 21.8619 92.7558 17.1107C95.7413 12.3595 97.3464 6.87003 97.3464 1.11298C97.3464 -4.63338 95.7413 -10.1337 92.7558 -14.8849C95.7413 -19.636 97.3464 -25.1362 97.3464 -30.8826C97.3464 -33.3866 97.0682 -35.5802 96.6295 -37.6455C104.644 -45.3715 109.642 -56.2008 109.642 -68.1857C109.642 -80.16 104.644 -90.9893 96.6402 -98.7153C97.0789 -100.802 97.3358 -103.017 97.3358 -105.5C97.3358 -111.246 95.7306 -116.746 92.7451 -121.497C95.7306 -126.249 97.3358 -131.749 97.3358 -137.495C97.3358 -143.241 95.7306 -148.742 92.7344 -153.493C98.8339 -163.241 98.8339 -175.74 92.7237 -185.478C95.7092 -190.229 97.3144 -195.718 97.3144 -201.465C97.3144 -203.969 97.0361 -206.162 96.5974 -208.217C104.623 -215.943 109.631 -226.783 109.631 -238.768C109.631 -250.753 104.634 -261.582 96.6188 -269.308C97.0468 -271.395 97.3144 -273.599 97.3144 -276.071C97.3144 -284.118 94.179 -291.684 88.4862 -297.377L67.1808 -318.693L45.8754 -297.387C40.1825 -291.694 37.0472 -284.129 37.0472 -276.082C37.0472 -273.589 37.3147 -271.384 37.7534 -269.287C29.7599 -261.561 24.7733 -250.742 24.7733 -238.779C24.7733 -226.804 29.7706 -215.975 37.7749 -208.249C37.3254 -206.184 37.0579 -203.98 37.0579 -201.465C37.0579 -195.708 38.663 -190.207 41.6593 -185.456C38.6844 -180.716 37.0793 -175.216 37.0793 -169.48C37.0793 -163.734 38.6844 -158.233 41.67 -153.482C38.6844 -148.731 37.0793 -143.241 37.0793 -137.484C37.0793 -131.738 38.6844 -126.238 41.67 -121.487C38.6844 -116.736 37.0793 -111.235 37.0793 -105.489C37.0793 -103.006 37.3468 -100.791 37.7748 -98.7046C29.7706 -90.9785 24.7733 -80.16 24.7733 -68.1857C24.7733 -56.2008 29.7706 -45.3715 37.7855 -37.6455C37.3468 -35.5802 37.0686 -33.3866 37.0686 -30.8826C37.0686 -25.1362 38.6737 -19.636 41.6592 -14.8849C38.6737 -10.1337 37.0686 -4.64409 37.0686 1.10226C37.0686 6.84862 38.6737 12.3488 41.6699 17.1C35.5705 26.8377 35.5705 39.315 41.6592 49.0528C38.663 53.8039 37.0472 59.3149 37.0472 65.072C37.0472 67.5653 37.3147 69.7696 37.7534 71.867C29.7599 79.593 24.7733 90.4115 24.7733 102.375C24.7733 114.349 29.7706 125.179 37.7748 132.894C37.3254 134.959 37.0579 137.164 37.0579 139.678C37.0579 145.435 38.663 150.935 41.6592 155.687C38.6844 160.427 37.0793 165.927 37.0793 171.663C37.0793 177.409 38.6844 182.91 41.6699 187.661C38.6844 192.412 37.0793 197.902 37.0793 203.659C37.0793 209.405 38.6844 214.905 41.6699 219.656C38.6844 224.408 37.0793 229.908 37.0793 235.654C37.0793 238.137 37.3468 240.352 37.7748 242.438C29.7706 250.165 24.7733 260.983 24.7733 272.957C24.7733 284.942 29.7706 295.771 37.7855 303.497C37.3468 305.563 37.0685 307.756 37.0685 310.26C37.0685 316.007 38.6737 321.507 41.6592 326.258C38.6737 331.009 37.0685 336.499 37.0685 342.245C37.0685 347.992 38.6737 353.492 41.6699 358.243C35.5704 367.981 35.5704 380.458 41.6592 390.196C38.663 394.947 37.0471 400.458 37.0471 406.215C37.0471 408.708 37.3147 410.913 37.7534 413.01C29.7599 420.736 24.7733 431.555 24.7733 443.518C24.7733 455.557 29.7599 466.386 37.7748 474.101Z" fill="#3F107D"/>
</g>
<mask id="mask1_1736_1732" style="mask-type:luminance" maskUnits="userSpaceOnUse" x="0" y="0" width="135" height="546">
<path d="M0.000717163 546L134.414 546L134.414 0L0.000764896 -1.17508e-05L0.000717163 546Z" fill="white"/>
</mask>
<g mask="url(#mask1_1736_1732)">
<path d="M70.2375 40.7268L75.3525 45.8418C76.2514 45.264 77.1075 44.5898 77.8779 43.8086C78.6591 43.0275 79.3332 42.1821 79.9004 41.2832L74.7854 36.1682L70.2375 40.7268Z" fill="white"/>
<path d="M70.2366 520.467L75.6084 525.839L77.8877 523.56C78.6582 522.789 79.3323 521.933 79.9102 521.034L74.7952 515.919L70.2366 520.467Z" fill="white"/>
<path d="M77.888 491.564C78.3803 491.072 78.819 490.537 79.2363 489.991C75.5659 488.054 71.4675 487.027 67.2086 487.027C62.9496 487.027 58.8512 488.054 55.1808 489.991C55.5982 490.537 56.0262 491.061 56.5291 491.564L59.8678 494.903C62.1685 493.961 64.6511 493.469 67.2086 493.469C69.7661 493.469 72.2487 493.961 74.5494 494.903L77.888 491.564Z" fill="white"/>
<path d="M53.4905 526.588C47.8083 520.906 46.3958 512.549 49.2529 505.54L45.9036 502.19C45.4006 501.687 44.9405 501.152 44.4697 500.617C42.4151 504.427 41.3771 508.654 41.3771 512.87C41.3771 519.483 43.8918 526.107 48.9319 531.147L59.6114 541.826L64.1699 537.268L53.4905 526.588Z" fill="white"/>
<path d="M45.8928 555.545L49.2422 552.196C48.3005 549.895 47.8083 547.413 47.8083 544.855C47.8083 542.298 48.3005 539.815 49.2422 537.514L45.9035 534.176C45.3899 533.662 44.9297 533.127 44.4589 532.592C42.4472 536.316 41.3664 540.51 41.3664 544.866C41.3664 549.221 42.4364 553.405 44.4589 557.129C44.919 556.594 45.3792 556.048 45.8928 555.545Z" fill="white"/>
<path d="M85.1651 537.525C86.1068 539.825 86.599 542.308 86.599 544.865C86.599 550.045 84.5766 554.914 80.9169 558.584C77.2572 562.244 72.3776 564.266 67.1984 564.266C64.6409 564.266 62.1583 563.774 59.8576 562.832L56.5082 566.182C56.016 566.674 55.5773 567.209 55.1599 567.744C58.8303 569.681 62.9288 570.708 67.1877 570.708C74.0897 570.708 80.5744 568.022 85.454 563.143C90.3336 558.263 93.0195 551.778 93.0195 544.865C93.0195 540.51 91.9387 536.315 89.927 532.592C89.4562 533.127 88.996 533.672 88.4931 534.186L85.1651 537.525Z" fill="white"/>
<path d="M55.1584 490.002C55.5757 490.548 56.0145 491.072 56.5067 491.564L59.8561 494.914C64.543 493.009 69.8293 493.009 74.5269 494.914L77.8763 491.564C78.3685 491.072 78.8073 490.548 79.2246 490.002C71.7019 486.064 62.6597 486.064 55.1584 490.002Z" fill="white"/>
<path d="M70.2356 211.299L75.3506 216.414C76.2494 215.836 77.1055 215.162 77.876 214.38C78.6571 213.599 79.3313 212.754 79.8984 211.855L74.7834 206.74L70.2356 211.299Z" fill="white"/>
<path d="M70.2366 179.313L75.6084 184.685L77.8877 182.406C78.6582 181.635 79.3323 180.779 79.9102 179.88L74.7952 174.765L70.2366 179.313Z" fill="white"/>
<path d="M77.888 150.41C78.3803 149.918 78.819 149.383 79.2363 148.837C75.5659 146.9 71.4675 145.873 67.2086 145.873C62.9496 145.873 58.8512 146.9 55.1808 148.837C55.5982 149.383 56.0262 149.907 56.5291 150.41L59.8678 153.749C62.1685 152.807 64.6511 152.315 67.2086 152.315C69.7661 152.315 72.2487 152.807 74.5494 153.749L77.888 150.41Z" fill="white"/>
<path d="M53.4905 185.435C47.8083 179.753 46.3958 171.395 49.2529 164.386L45.9036 161.037C45.4006 160.534 44.9405 159.999 44.4697 159.464C42.4151 163.273 41.3771 167.5 41.3771 171.716C41.3771 178.329 43.8918 184.953 48.9319 189.993L59.6114 200.673L64.1699 196.114L53.4905 185.435Z" fill="white"/>
<path d="M45.8928 214.391L49.2422 211.042C48.3005 208.741 47.8083 206.258 47.8083 203.701C47.8083 201.143 48.3005 198.661 49.2422 196.36L45.9035 193.021C45.3899 192.508 44.9297 191.973 44.4589 191.438C42.4472 195.161 41.3664 199.356 41.3664 203.711C41.3664 208.067 42.4364 212.251 44.4589 215.975C44.919 215.44 45.3792 214.894 45.8928 214.391Z" fill="white"/>
<path d="M85.1651 196.37C86.1068 198.671 86.599 201.154 86.599 203.711C86.599 208.89 84.5766 213.759 80.9169 217.43C77.2572 221.089 72.3776 223.112 67.1984 223.112C64.6409 223.112 62.1583 222.62 59.8576 221.678L56.5082 225.027C56.016 225.519 55.5773 226.055 55.1599 226.59C58.8303 228.526 62.9288 229.554 67.1877 229.554C74.0897 229.554 80.5744 226.868 85.454 221.988C90.3336 217.109 93.0195 210.624 93.0195 203.711C93.0195 199.356 91.9387 195.161 89.927 191.437C89.4562 191.972 88.996 192.518 88.4931 193.032L85.1651 196.37Z" fill="white"/>
<path d="M70.2375 381.881L75.3525 386.996C76.2514 386.418 77.1075 385.744 77.8779 384.962C78.6591 384.181 79.3332 383.336 79.9004 382.437L74.7854 377.322L70.2375 381.881Z" fill="white"/>
<path d="M70.2375 381.881L75.3525 386.996C76.2514 386.418 77.1075 385.744 77.8779 384.962C78.6591 384.181 79.3332 383.336 79.9004 382.437L74.7854 377.322L70.2375 381.881Z" fill="white"/>
<path d="M55.1584 148.849C55.5757 149.394 56.0145 149.919 56.5067 150.411L59.8561 153.76C64.543 151.856 69.8293 151.856 74.5269 153.76L77.8763 150.411C78.3685 149.919 78.8073 149.394 79.2246 148.849C71.7019 144.911 62.6597 144.911 55.1584 148.849Z" fill="white"/>
<path d="M77.888 320.993C78.3803 320.501 78.819 319.966 79.2363 319.42C75.5659 317.483 71.4675 316.456 67.2086 316.456C62.9496 316.456 58.8512 317.483 55.1808 319.42C55.5982 319.966 56.0262 320.49 56.5291 320.993L59.8678 324.332C62.1685 323.39 64.6511 322.898 67.2086 322.898C69.7661 322.898 72.2487 323.39 74.5494 324.332L77.888 320.993Z" fill="white"/>
<path d="M53.4905 356.017C47.8083 350.335 46.3958 341.977 49.2529 334.968L45.9036 331.619C45.4006 331.116 44.9405 330.581 44.4697 330.046C42.4151 333.855 41.3771 338.082 41.3771 342.298C41.3771 348.912 43.8918 355.535 48.9319 360.575L59.6114 371.255L64.1699 366.696L53.4905 356.017Z" fill="white"/>
<path d="M45.8928 384.963L49.2422 381.613C48.3005 379.313 47.8083 376.83 47.8083 374.273C47.8083 371.715 48.3005 369.232 49.2422 366.932L45.9035 363.593C45.3899 363.079 44.9297 362.544 44.4589 362.009C42.4472 365.733 41.3664 369.928 41.3664 374.283C41.3664 378.638 42.4364 382.822 44.4589 386.546C44.919 386.011 45.3792 385.476 45.8928 384.963Z" fill="white"/>
<path d="M85.1651 366.953C86.1068 369.254 86.599 371.736 86.599 374.294C86.599 379.473 84.5766 384.342 80.9169 388.012C77.2572 391.672 72.3776 393.694 67.1984 393.694C64.6409 393.694 62.1583 393.202 59.8576 392.26L56.5082 395.61C56.016 396.102 55.5773 396.637 55.1599 397.172C58.8303 399.109 62.9288 400.136 67.1877 400.136C74.0897 400.136 80.5744 397.45 85.454 392.571C90.3336 387.691 93.0195 381.206 93.0195 374.294C93.0195 369.938 91.9387 365.744 89.927 362.02C89.4562 362.555 88.996 363.101 88.4931 363.614L85.1651 366.953Z" fill="white"/>
<path d="M79.9141 9.29888L74.7991 4.18387L70.2405 8.74241L75.6016 14.1143L77.8809 11.835C78.6621 11.0538 79.3362 10.1977 79.9141 9.29888Z" fill="white"/>
<path d="M53.4905 14.863C47.8083 9.18089 46.3958 0.823519 49.2529 -6.18554L45.9036 -9.53491C45.4006 -10.0378 44.9405 -10.5729 44.4697 -11.1079C42.4151 -7.2984 41.3771 -3.07158 41.3771 1.14455C41.3771 7.75767 43.8918 14.3815 48.9319 19.4216L59.6114 30.1011L64.1699 25.5425L53.4905 14.863Z" fill="white"/>
<path d="M45.8928 43.8089L49.2422 40.4595C48.3005 38.1588 47.8083 35.6762 47.8083 33.1187C47.8083 30.5612 48.3005 28.0786 49.2422 25.7779L45.9035 22.4393C45.3899 21.9256 44.9297 21.3906 44.4589 20.8555C42.4472 24.5794 41.3664 28.7742 41.3664 33.1294C41.3664 37.4847 42.4364 41.6687 44.4589 45.3926C44.919 44.8682 45.3792 44.3225 45.8928 43.8089Z" fill="white"/>
<path d="M85.1651 25.7991C86.1068 28.0998 86.599 30.5824 86.599 33.1399C86.599 38.3191 84.5766 43.188 80.9169 46.8583C77.2572 50.518 72.3776 52.5405 67.1984 52.5405C64.6409 52.5405 62.1583 52.0483 59.8576 51.1066L56.5082 54.4559C56.016 54.9482 55.5773 55.4832 55.1599 56.0183C58.8303 57.9551 62.9288 58.9824 67.1877 58.9824C74.0897 58.9824 80.5744 56.2965 85.454 51.4169C90.3336 46.5373 93.0195 40.0526 93.0195 33.1399C93.0195 28.7846 91.9387 24.5899 89.927 20.866C89.4562 21.4011 88.996 21.9468 88.4931 22.4604L85.1651 25.7991Z" fill="white"/>
<path d="M79.9102 350.452L74.7952 345.337L70.2366 349.896L75.5977 355.268L77.877 352.988C78.6582 352.196 79.3323 351.351 79.9102 350.452Z" fill="white"/>
<path d="M64.1699 334.711L53.4798 324.032C49.9164 320.457 47.9153 315.749 47.819 310.72C45.6254 309.585 43.5494 308.258 41.6018 306.771C41.4627 307.895 41.3664 309.05 41.3664 310.313C41.3664 317.215 44.0523 323.7 48.9319 328.59L59.6114 339.27L64.1699 334.711Z" fill="white"/>
<path d="M47.8165 235.3C47.9235 230.271 49.9139 225.552 53.4773 221.989L85.4728 190.004C93.7232 181.753 95.2106 169.255 89.9351 159.474C89.4749 160.009 89.0148 160.544 88.5119 161.058L85.1625 164.407C86.1149 166.751 86.5964 169.244 86.5964 171.737C86.5964 176.703 84.7023 181.678 80.9249 185.456L48.9294 217.441C44.0498 222.32 41.3639 228.805 41.3639 235.707C41.3639 236.959 41.4602 238.125 41.5993 239.249C43.5469 237.762 45.6228 236.435 47.8165 235.3Z" fill="white"/>
<path d="M92.8036 239.238C92.9428 238.115 93.0391 236.948 93.0391 235.696C93.0391 231.341 91.969 227.157 89.9465 223.422C89.4757 223.957 89.0155 224.503 88.5019 225.006C87.3997 226.108 86.2226 227.071 84.992 227.981C85.9765 230.26 86.5222 232.732 86.5758 235.29C88.7801 236.424 90.8561 237.751 92.8036 239.238Z" fill="white"/>
<path d="M67.1965 346.846L85.4736 328.58C90.3532 323.7 93.0391 317.216 93.0391 310.303C93.0391 309.04 92.9428 307.885 92.8036 306.761C90.8561 308.248 88.7801 309.575 86.5865 310.699C86.4794 315.728 84.4891 320.447 80.9257 324.011L67.2072 337.729L63.9007 341.036L62.6487 342.288L54.4946 350.442C55.0725 351.341 55.7359 352.186 56.5171 352.967L58.7963 355.247L67.1965 346.846Z" fill="white"/>
<path d="M64.1699 505.283L53.4798 494.603C49.9164 491.029 47.9153 486.321 47.819 481.291C45.6254 480.157 43.5494 478.83 41.6018 477.343C41.4627 478.466 41.3664 479.622 41.3664 480.885C41.3664 487.787 44.0523 494.272 48.9319 499.162L59.6114 509.841L64.1699 505.283Z" fill="white"/>
<path d="M47.8165 405.872C47.9235 400.843 49.9139 396.124 53.4773 392.56L85.4728 360.576C93.7232 352.325 95.2106 339.827 89.9351 330.046C89.4749 330.581 89.0148 331.116 88.5119 331.63L85.1625 334.979C86.1149 337.323 86.5964 339.816 86.5964 342.309C86.5964 347.274 84.7023 352.25 80.9249 356.028L48.9294 388.012C44.0498 392.892 41.3639 399.377 41.3639 406.279C41.3639 407.531 41.4602 408.697 41.5993 409.821C43.5469 408.333 45.6228 407.006 47.8165 405.872Z" fill="white"/>
<path d="M92.8036 409.821C92.9428 408.697 93.0391 407.531 93.0391 406.279C93.0391 401.924 91.969 397.74 89.9465 394.005C89.4757 394.54 89.0155 395.086 88.5019 395.589C87.3997 396.691 86.2226 397.654 84.992 398.564C85.9765 400.843 86.5222 403.315 86.5758 405.872C88.7801 407.006 90.8561 408.333 92.8036 409.821Z" fill="white"/>
<path d="M67.1965 517.428L85.4736 499.162C90.3532 494.282 93.0391 487.797 93.0391 480.885C93.0391 479.622 92.9428 478.466 92.8036 477.343C90.8561 478.83 88.7801 480.157 86.5865 481.281C86.4794 486.31 84.4891 491.029 80.9257 494.592L67.2072 508.322L63.9007 511.628L62.6487 512.88L54.4946 521.034C55.0725 521.933 55.7359 522.778 56.5171 523.56L58.7963 525.839L67.1965 517.428Z" fill="white"/>
<path d="M47.8165 576.443C47.9235 571.414 49.9139 566.695 53.4773 563.132L85.4728 531.147C93.7232 522.896 95.2106 510.398 89.9351 500.617C89.4749 501.152 89.0148 501.687 88.5119 502.201L85.1625 505.55C86.1149 507.894 86.5964 510.387 86.5964 512.88C86.5964 517.846 84.7023 522.822 80.9249 526.599L48.9294 558.584C44.0498 563.463 41.3639 569.948 41.3639 576.85C41.3639 578.102 41.4602 579.268 41.5993 580.392C43.5469 578.915 45.6228 577.578 47.8165 576.443Z" fill="white"/>
<path d="M64.1699 164.129L53.4798 153.45C49.9164 149.876 47.9153 145.168 47.819 140.138C45.6254 139.004 43.5494 137.677 41.6018 136.19C41.4627 137.313 41.3664 138.469 41.3664 139.731C41.3664 146.634 44.0523 153.118 48.9319 158.009L59.6114 168.688L64.1699 164.129Z" fill="white"/>
<path d="M47.8165 64.7184C47.9235 59.689 49.9139 54.9699 53.4773 51.4065L85.4728 19.4217C93.7232 11.1714 95.2106 -1.32723 89.9351 -11.1078C89.4749 -10.5728 89.0148 -10.0377 88.5119 -9.5241L85.1625 -6.17473C86.1149 -3.83125 86.5964 -1.33794 86.5964 1.15535C86.5964 6.12055 84.7023 11.0964 80.9249 14.8738L48.9294 46.8587C44.0498 51.7382 41.3639 58.223 41.3639 65.125C41.3639 66.377 41.4602 67.5434 41.5993 68.667C43.5469 67.1796 45.6228 65.8527 47.8165 64.7184Z" fill="white"/>
<path d="M92.8036 68.667C92.9428 67.5434 93.0391 66.377 93.0391 65.125C93.0391 60.7698 91.969 56.5857 89.9465 52.8511C89.4757 53.3862 89.0155 53.9319 88.5019 54.4349C87.3997 55.5371 86.2226 56.5001 84.992 57.4097C85.9765 59.689 86.5222 62.1609 86.5758 64.7184C88.7801 65.8527 90.8561 67.1796 92.8036 68.667Z" fill="white"/>
<path d="M67.1965 176.274L85.4736 158.008C90.3532 153.128 93.0391 146.644 93.0391 139.731C93.0391 138.468 92.9428 137.312 92.8036 136.189C90.8561 137.676 88.7801 139.003 86.5865 140.127C86.4794 145.156 84.4891 149.875 80.9257 153.439L67.2072 167.157L63.9007 170.464L62.6487 171.716L54.4946 179.87C55.0725 180.769 55.7359 181.614 56.5171 182.395L58.7963 184.674L67.1965 176.274Z" fill="white"/>
<path d="M67.1965 5.6926L85.4736 -12.5737C90.3532 -17.4533 93.0391 -23.938 93.0391 -30.8508C93.0391 -32.1135 92.9428 -33.2692 92.8036 -34.3928C90.8561 -32.9053 88.7801 -31.5784 86.5865 -30.4549C86.4794 -25.4255 84.4891 -20.7064 80.9257 -17.143L67.2072 -3.42451L63.9007 -0.117953L62.6487 1.13406L54.4946 9.2881C55.0725 10.187 55.7359 11.0323 56.5171 11.8135L58.7963 14.0928L67.1965 5.6926Z" fill="white"/>
<path d="M105.344 273C105.344 251.973 88.2331 234.862 67.2059 234.862C46.1788 234.862 29.0681 251.973 29.0681 273C29.0681 294.027 46.1788 311.138 67.2059 311.138C88.2331 311.138 105.344 294.038 105.344 273ZM98.7413 269.779L89.5921 269.779C89.4637 271.93 89.453 274.07 89.5814 276.221L98.752 276.221C97.2432 291.138 85.3439 303.026 70.4376 304.535L70.4376 276.221L74.4932 276.221C74.3969 274.07 74.4076 271.93 74.5146 269.779L70.4376 269.779L70.4376 241.464C85.3332 242.973 97.2218 254.873 98.7413 269.779ZM35.6598 276.221L44.8305 276.221C44.9482 274.07 44.9482 271.93 44.8198 269.779L35.6705 269.779C37.1794 254.862 49.0787 242.973 63.985 241.464L63.985 269.779L59.9079 269.779C59.9615 270.902 59.9936 272.026 59.9936 273.16C59.9936 274.188 59.9722 275.204 59.9294 276.221L63.985 276.221L63.985 304.535C49.068 303.026 37.1687 291.138 35.6598 276.221Z" fill="white"/>
<path d="M55.6914 273.16C55.6914 265.531 54.3645 257.89 51.7 250.625L51.6465 250.475C49.6989 251.823 47.944 253.417 46.4031 255.215C50.1056 266.826 50.127 279.292 46.478 290.903C48.0189 292.69 49.7845 294.284 51.7321 295.622C54.3752 288.366 55.6914 280.769 55.6914 273.16Z" fill="white"/>
<path d="M82.6875 250.614C77.3691 265.124 77.3691 281.1 82.6554 295.611C84.6136 294.273 86.3685 292.679 87.9095 290.892C84.2498 279.281 84.2819 266.804 87.9844 255.204C86.4435 253.407 84.6885 251.812 82.741 250.464L82.6875 250.614Z" fill="white"/>
<path d="M105.344 443.582C105.344 422.555 88.2331 405.444 67.2059 405.444C46.1788 405.444 29.0681 422.555 29.0681 443.582C29.0681 464.609 46.1788 481.72 67.2059 481.72C88.2331 481.72 105.344 464.609 105.344 443.582ZM98.7413 440.361L89.5921 440.361C89.4637 442.512 89.453 444.652 89.5814 446.803L98.752 446.803C97.2432 461.72 85.3439 473.608 70.4376 475.117L70.4376 446.803L74.4932 446.803C74.3969 444.652 74.4076 442.512 74.5146 440.361L70.4376 440.361L70.4376 412.047C85.3332 413.555 97.2218 425.444 98.7413 440.361ZM35.6598 446.803L44.8305 446.803C44.9482 444.652 44.9482 442.512 44.8198 440.361L35.6705 440.361C37.1794 425.444 49.0787 413.555 63.985 412.047L63.985 440.361L59.9079 440.361C59.9615 441.485 59.9936 442.608 59.9936 443.742C59.9936 444.77 59.9722 445.786 59.9294 446.803L63.985 446.803L63.985 475.117C49.068 473.608 37.1687 461.72 35.6598 446.803Z" fill="white"/>
<path d="M55.6914 443.732C55.6914 436.102 54.3645 428.462 51.7 421.196L51.6465 421.035C49.6989 422.384 47.944 423.978 46.4031 425.776C50.1056 437.386 50.127 449.853 46.478 461.463C48.0189 463.25 49.7845 464.845 51.7321 466.182C54.3752 458.948 55.6914 451.34 55.6914 443.732Z" fill="white"/>
<path d="M82.6875 421.196C77.3691 435.706 77.3691 451.683 82.6554 466.193C84.6136 464.855 86.3685 463.261 87.9095 461.474C84.2498 449.863 84.2819 437.386 87.9844 425.786C86.4435 423.989 84.6885 422.394 82.741 421.046L82.6875 421.196Z" fill="white"/>
<path d="M105.344 102.428C105.344 81.4009 88.2331 64.2903 67.2059 64.2903C46.1788 64.2903 29.0681 81.4009 29.0681 102.428C29.0681 123.455 46.1788 140.566 67.2059 140.566C88.2331 140.566 105.344 123.455 105.344 102.428ZM98.7413 99.2071L89.5921 99.2071C89.4637 101.358 89.453 103.498 89.5814 105.649L98.752 105.649C97.2432 120.566 85.3439 132.455 70.4376 133.964L70.4376 105.649L74.4932 105.649C74.3969 103.498 74.4076 101.358 74.5146 99.2071L70.4376 99.2071L70.4376 70.8927C85.3332 72.4015 97.2218 84.2902 98.7413 99.2071ZM35.6598 105.649L44.8305 105.649C44.9482 103.498 44.9482 101.358 44.8198 99.2071L35.6705 99.2071C37.1794 84.2902 49.0787 72.4015 63.985 70.8927L63.985 99.2071L59.9079 99.2071C59.9615 100.331 59.9936 101.454 59.9936 102.589C59.9936 103.616 59.9722 104.632 59.9294 105.649L63.985 105.649L63.985 133.964C49.068 132.455 37.1687 120.566 35.6598 105.649Z" fill="white"/>
<path d="M55.6914 102.578C55.6914 94.9482 54.3645 87.3078 51.7 80.042L51.6465 79.8814C49.6989 81.2298 47.944 82.8242 46.4031 84.6219C50.1056 96.2323 50.127 108.699 46.478 120.309C48.0189 122.096 49.7845 123.691 51.7321 125.028C54.3752 117.795 55.6914 110.186 55.6914 102.578Z" fill="white"/>
<path d="M82.6875 80.042C77.3691 94.5524 77.3691 110.529 82.6554 125.039C84.6136 123.701 86.3685 122.107 87.9095 120.32C84.2498 108.71 84.2819 96.2324 87.9844 84.6327C86.4435 82.8349 84.6885 81.2405 82.741 79.8922L82.6875 80.042Z" fill="white"/>
</g>
</svg>
