<svg width="420" height="20" viewBox="0 0 420 20" fill="none" xmlns="http://www.w3.org/2000/svg">
<path d="M195.539 7.78508C195.64 7.90578 195.744 8.01441 195.844 8.12304C196.182 8.50928 196.524 8.88345 196.866 9.26969C198.627 7.38677 200.457 5.76939 202.438 5.29866C203.133 5.13417 203.855 5.12593 204.553 5.27452C205.092 4.74344 205.644 4.22443 206.213 3.76577C204.955 3.17434 203.477 3.0295 201.991 3.37953C199.547 3.94682 197.479 5.73318 195.539 7.78508Z" fill="white"/>
<path d="M192.932 6.39722C192.685 6.50585 192.452 6.62655 192.243 6.79553C191.931 7.03693 191.691 7.37489 191.488 7.74906C192.196 8.48533 192.903 9.28195 193.622 10.0906C194.553 11.1407 195.496 12.215 196.481 13.1806C197.038 12.8788 197.59 12.4805 198.14 12.0218C197.104 11.0321 196.095 9.90959 195.103 8.78708C194.395 7.97633 193.671 7.17956 192.932 6.39722Z" fill="white"/>
<path d="M203.561 7.77301C204.008 8.26788 204.448 8.76275 204.887 9.25762C207.154 6.72292 209.345 4.48997 211.832 4.24857C213.636 4.07959 214.916 4.62274 216.4 5.25038C217.489 5.72111 218.697 6.21598 220.197 6.46945V4.45376C219.09 4.22443 218.141 3.85026 217.174 3.43988C215.589 2.76396 213.948 2.0639 211.644 2.28116C208.505 2.58291 205.967 5.09347 203.561 7.77301Z" fill="white"/>
<path d="M201.28 6.81958C200.724 7.12133 200.17 7.51964 199.621 7.9783C200.661 8.96804 201.672 10.0906 202.665 11.2251C203.371 12.0218 204.086 12.8184 204.817 13.5788C205.067 13.4822 205.314 13.3736 205.525 13.2046C205.836 12.9632 206.078 12.6253 206.279 12.2511C205.551 11.4868 204.84 10.7061 204.147 9.9095C203.213 8.85941 202.267 7.78518 201.28 6.81958Z" fill="white"/>
<path d="M235.325 13.4099C235.844 13.0237 236.364 12.5529 236.886 12.0339C236.658 11.3822 236.541 10.6967 236.541 10.0062C236.541 8.28015 237.131 6.86796 238.199 6.02306C239.188 5.23851 240.502 4.98504 241.9 5.29886C242.232 5.38335 242.561 5.49198 242.885 5.62475C243.42 5.12988 243.97 4.67122 244.54 4.24877C243.841 3.86253 243.113 3.54871 242.346 3.37973C240.378 2.92107 238.419 3.31938 236.97 4.46603C235.42 5.70924 234.566 7.66458 234.566 10.0062C234.566 11.2735 234.841 12.4202 235.325 13.4099Z" fill="white"/>
<path d="M224.146 4.45376V6.46945C225.646 6.21598 226.852 5.72111 227.941 5.25038C229.426 4.62274 230.706 4.07959 232.512 4.24857C233.377 4.33306 234.205 4.67102 235.015 5.16589C235.392 4.61459 235.843 4.11891 236.358 3.69335L236.379 3.68128C235.236 2.92087 234.021 2.40186 232.699 2.28116C230.393 2.0639 228.753 2.76396 227.165 3.43988C226.202 3.85026 225.253 4.22443 224.146 4.45376Z" fill="white"/>
<path d="M188.752 13.4099C189.271 13.0237 189.791 12.5529 190.314 12.0339C190.085 11.3823 189.968 10.6967 189.969 10.0062C189.969 8.28015 190.558 6.86796 191.627 6.02306C192.616 5.23851 193.93 4.98504 195.326 5.29886C195.659 5.38335 195.988 5.49198 196.313 5.62475C196.847 5.12988 197.397 4.67122 197.968 4.24877C197.268 3.86253 196.541 3.54871 195.774 3.37973C193.805 2.92107 191.847 3.31938 190.398 4.46603C188.848 5.70924 187.994 7.66458 187.994 10.0062C187.994 11.2735 188.269 12.4202 188.752 13.4099Z" fill="white"/>
<path d="M177.572 4.45376V6.46945C179.07 6.21598 180.278 5.72111 181.367 5.25038C182.852 4.62274 184.131 4.07959 185.937 4.24857C186.803 4.33306 187.632 4.67102 188.441 5.16589C188.817 4.61459 189.269 4.11891 189.783 3.69335L189.805 3.68128C188.662 2.92087 187.447 2.40186 186.125 2.28116C183.819 2.0639 182.18 2.76396 180.592 3.43988C179.626 3.85026 178.678 4.22443 177.572 4.45376Z" fill="white"/>
<path d="M142.179 13.4099C142.699 13.0237 143.219 12.5529 143.741 12.0339C143.513 11.3822 143.397 10.6967 143.396 10.0062C143.396 8.28015 143.986 6.86796 145.055 6.02306C146.044 5.23851 147.357 4.98504 148.755 5.29886C149.087 5.38335 149.415 5.49198 149.741 5.62475C150.275 5.12988 150.825 4.67122 151.396 4.24877C150.695 3.86253 149.969 3.54871 149.202 3.37973C147.233 2.92107 145.274 3.31938 143.826 4.46603C142.276 5.70924 141.422 7.66458 141.422 10.0062C141.422 11.2735 141.697 12.4202 142.179 13.4099Z" fill="white"/>
<path d="M143.211 3.69349L143.233 3.68142C142.153 2.96929 141.009 2.47441 139.773 2.3175V4.32113C140.492 4.4539 141.187 4.75565 141.869 5.16603C142.245 4.61473 142.697 4.11904 143.211 3.69349Z" fill="white"/>
<path d="M147.642 12.2149C147.194 11.7321 146.746 11.2372 146.307 10.7423C144.167 13.1442 142.089 15.2444 139.773 15.6789V17.6826C142.813 17.2843 145.292 14.834 147.642 12.2149Z" fill="white"/>
<path d="M155.653 12.2149C155.552 12.1062 155.449 11.9855 155.349 11.8769C155.011 11.4907 154.67 11.1165 154.329 10.7423C152.568 12.6132 150.735 14.2426 148.754 14.7013C148.012 14.8703 147.298 14.8703 146.641 14.7254C146.101 15.2686 145.548 15.7755 144.979 16.2462C146.238 16.8256 147.715 16.9704 149.2 16.6325C151.646 16.0531 153.713 14.2668 155.653 12.2149Z" fill="white"/>
<path d="M156.984 7.77301C157.432 8.26788 157.873 8.76275 158.311 9.25762C160.577 6.72292 162.77 4.48997 165.256 4.24857C167.059 4.07959 168.34 4.62274 169.824 5.25038C170.914 5.72111 172.12 6.21598 173.621 6.46945V4.45376C172.514 4.22443 171.564 3.85026 170.598 3.43988C169.012 2.76396 167.373 2.0639 165.068 2.28116C161.927 2.58291 159.391 5.09347 156.984 7.77301Z" fill="white"/>
<path d="M146.36 6.39722C146.113 6.50585 145.88 6.62655 145.671 6.79553C145.359 7.03693 145.117 7.37489 144.916 7.74906C145.623 8.48533 146.331 9.28195 147.05 10.0906C147.981 11.1407 148.924 12.215 149.908 13.1806C150.466 12.8788 151.019 12.4805 151.568 12.0218C150.532 11.0321 149.522 9.90959 148.531 8.78708C147.823 7.97633 147.099 7.17956 146.36 6.39722Z" fill="white"/>
<path d="M154.705 6.81958C154.149 7.12133 153.596 7.51964 153.047 7.9783C154.087 8.96804 155.097 10.0906 156.091 11.2251C156.798 12.0218 157.511 12.8184 158.243 13.5788C158.493 13.4822 158.74 13.3736 158.95 13.2046C159.262 12.9632 159.503 12.6253 159.705 12.2511C158.976 11.4871 158.265 10.7064 157.572 9.9095C156.639 8.85941 155.693 7.78518 154.705 6.81958Z" fill="white"/>
<path d="M239.501 6.39722C239.255 6.49842 239.024 6.6324 238.814 6.79553C238.501 7.03693 238.261 7.37489 238.059 7.74906C238.767 8.48533 239.473 9.28195 240.192 10.0906C241.123 11.1407 242.065 12.215 243.051 13.1806C243.608 12.8788 244.162 12.4805 244.711 12.0218C243.673 11.0321 242.665 9.90959 241.673 8.78708C240.965 7.97603 240.241 7.17925 239.501 6.39722Z" fill="white"/>
<path d="M148.963 7.78508C149.064 7.90578 149.168 8.01441 149.268 8.12304C149.606 8.50928 149.948 8.88345 150.29 9.26969C152.051 7.38677 153.882 5.76939 155.862 5.29866C156.556 5.13413 157.279 5.12589 157.976 5.27452C158.516 4.74344 159.068 4.22443 159.639 3.76577C158.379 3.17434 156.901 3.0295 155.416 3.37953C152.971 3.94682 150.901 5.73318 148.963 7.78508Z" fill="white"/>
<path d="M335.256 7.78508L335.557 8.12304C335.895 8.50928 336.245 8.88345 336.583 9.26969C338.344 7.38677 340.177 5.76939 342.155 5.29866C342.903 5.12968 343.614 5.12968 344.266 5.27452C344.809 4.74344 345.363 4.22443 345.93 3.76577C344.676 3.17434 343.192 3.0295 341.709 3.37953C339.26 3.94682 337.198 5.73318 335.256 7.78508Z" fill="white"/>
<path d="M375.045 13.4099C375.564 13.0237 376.082 12.5529 376.601 12.0339C376.396 11.4183 376.263 10.7424 376.263 10.0062C376.263 8.28015 376.854 6.86796 377.916 6.02306C378.905 5.23851 380.219 4.98504 381.619 5.29886C381.956 5.38335 382.282 5.49198 382.608 5.62475C383.138 5.12988 383.693 4.67122 384.26 4.24877C383.56 3.86253 382.837 3.54871 382.065 3.37973C380.099 2.92107 378.133 3.31938 376.685 4.46603C375.142 5.70924 374.285 7.66458 374.285 10.0062C374.285 11.2735 374.563 12.4202 375.045 13.4099Z" fill="white"/>
<path d="M363.867 4.45376V6.46945C365.363 6.21598 366.569 5.72111 367.655 5.25038C369.15 4.62274 370.429 4.07959 372.226 4.24857C373.094 4.33306 373.927 4.67102 374.735 5.16589C375.121 4.62274 375.555 4.1158 376.073 3.69335L376.098 3.68128C374.952 2.92087 373.746 2.40186 372.419 2.28116C370.115 2.0639 368.475 2.76396 366.883 3.43988C365.918 3.85026 364.977 4.22443 363.867 4.45376Z" fill="white"/>
<path d="M343.277 7.77301C343.724 8.26788 344.17 8.76275 344.604 9.25762C346.872 6.72292 349.067 4.48997 351.552 4.24857C353.349 4.07959 354.639 4.62274 356.123 5.25038C357.208 5.72111 358.415 6.21598 359.91 6.46945V4.45376C358.813 4.22443 357.86 3.85026 356.895 3.43988C355.303 2.76396 353.662 2.0639 351.359 2.28116C348.223 2.58291 345.69 5.09347 343.277 7.77301Z" fill="white"/>
<path d="M165.257 15.7514C164.391 15.6669 163.562 15.329 162.753 14.8341C162.376 15.3854 161.925 15.8811 161.41 16.3066L161.389 16.3187C162.532 17.0791 163.747 17.5981 165.069 17.7188C166.035 17.8154 166.867 17.7188 167.645 17.5619C167.125 17.0088 166.661 16.4065 166.258 15.7635C165.937 15.7756 165.614 15.7876 165.257 15.7514Z" fill="white"/>
<path d="M340.998 6.81958C340.444 7.12133 339.889 7.51964 339.334 7.9783C340.383 8.96804 341.397 10.0906 342.386 11.2251C343.085 12.0218 343.809 12.8184 344.532 13.5788C344.786 13.4822 345.039 13.3736 345.244 13.2046C345.558 12.9632 345.799 12.6253 346.004 12.2511C345.292 11.5148 344.581 10.7303 343.869 9.9095C342.928 8.85941 341.988 7.78518 340.998 6.81958Z" fill="white"/>
<path d="M381.824 7.78508C381.933 7.90578 382.029 8.01441 382.138 8.12304C382.476 8.50928 382.813 8.88345 383.151 9.26969C384.912 7.38677 386.745 5.76939 388.723 5.29866C389.421 5.13419 390.146 5.12595 390.846 5.27452C391.377 4.74344 391.932 4.22443 392.499 3.76577C391.244 3.17434 389.761 3.0295 388.277 3.37953C385.841 3.94682 383.766 5.73318 381.824 7.78508Z" fill="white"/>
<path d="M379.22 6.39722C378.979 6.50585 378.738 6.62655 378.533 6.79553C378.219 7.03693 377.978 7.37489 377.785 7.74906C378.485 8.48533 379.196 9.28195 379.92 10.0906C380.849 11.1407 381.79 12.215 382.779 13.1806C383.333 12.8788 383.888 12.4805 384.431 12.0218C383.394 11.0321 382.381 9.90959 381.392 8.78708C380.68 7.97839 379.956 7.1697 379.22 6.39722Z" fill="white"/>
<path d="M389.848 7.77301C390.306 8.26788 390.74 8.76275 391.174 9.25762C393.442 6.72292 395.637 4.48997 398.122 4.24857C399.931 4.07959 401.21 4.62274 402.693 5.25038C403.779 5.72111 404.985 6.21598 406.493 6.46945V4.45376C405.383 4.22443 404.43 3.85026 403.465 3.43988C401.885 2.76396 400.245 2.0639 397.941 2.28116C394.793 2.58291 392.26 5.09347 389.848 7.77301Z" fill="white"/>
<path d="M387.567 6.81958C387.012 7.12133 386.457 7.51964 385.914 7.9783C386.951 8.96804 387.965 10.0906 388.954 11.2251C389.665 12.0218 390.377 12.8184 391.113 13.5788C391.354 13.4822 391.607 13.3736 391.812 13.2046C392.126 12.9632 392.367 12.6253 392.572 12.2511C391.86 11.5148 391.161 10.7303 390.437 9.9095C389.508 8.85941 388.556 7.78518 387.567 6.81958Z" fill="white"/>
<path d="M332.652 6.39722C332.411 6.50585 332.17 6.62655 331.965 6.79553C331.651 7.03693 331.41 7.37489 331.205 7.74906C331.917 8.48533 332.628 9.28195 333.34 10.0906C334.269 11.1407 335.222 12.215 336.199 13.1806C336.753 12.8788 337.308 12.4805 337.863 12.0218C336.826 11.0321 335.813 9.90959 334.824 8.78708C334.112 7.97839 333.388 7.1697 332.652 6.39722Z" fill="white"/>
<path d="M286.08 6.39722C285.827 6.50585 285.598 6.62655 285.393 6.79553C285.079 7.03693 284.838 7.37489 284.633 7.74906C285.344 8.48533 286.044 9.28195 286.768 10.0906C287.696 11.1407 288.637 12.215 289.626 13.1806C290.181 12.8788 290.736 12.4805 291.291 12.0218C290.253 11.0321 289.24 9.90959 288.251 8.78708C287.54 7.97839 286.816 7.1697 286.08 6.39722Z" fill="white"/>
<path d="M270.717 4.45376V6.46945C272.215 6.21598 273.422 5.72111 274.511 5.25038C275.996 4.62274 277.276 4.07959 279.081 4.24857C279.947 4.33306 280.775 4.67102 281.585 5.16589C281.969 4.62274 282.402 4.1158 282.931 3.69335L282.944 3.68128C281.806 2.92087 280.592 2.40186 279.271 2.28116C276.963 2.0639 275.324 2.76396 273.736 3.43988C272.771 3.85026 271.823 4.22443 270.717 4.45376Z" fill="white"/>
<path d="M281.9 13.4099C282.42 13.0237 282.935 12.5529 283.466 12.0339C283.249 11.4183 283.116 10.7424 283.116 10.0062C283.116 8.28015 283.707 6.86796 284.78 6.02306C285.769 5.23851 287.072 4.98504 288.471 5.29886C288.809 5.38335 289.135 5.49198 289.46 5.62475C289.991 5.12988 290.546 4.67122 291.113 4.24877C290.413 3.86253 289.689 3.54871 288.917 3.37973C286.951 2.92107 284.997 3.31938 283.55 4.46603C281.995 5.70924 281.143 7.66458 281.143 10.0062C281.143 11.2735 281.418 12.4202 281.9 13.4099Z" fill="white"/>
<path d="M242.111 7.78508C242.213 7.90578 242.315 8.01441 242.416 8.12304C242.754 8.50928 243.097 8.88345 243.438 9.26969C245.199 7.38677 247.03 5.76939 249.011 5.29866C249.705 5.13413 250.427 5.12589 251.125 5.27452C251.664 4.74344 252.216 4.22443 252.787 3.76577C251.528 3.17434 250.049 3.0295 248.564 3.37953C246.119 3.94682 244.05 5.73318 242.111 7.78508Z" fill="white"/>
<path d="M250.133 7.77301C250.58 8.26788 251.022 8.76275 251.46 9.25762C253.726 6.72292 255.919 4.48997 258.405 4.24857C260.207 4.07959 261.489 4.62274 262.971 5.25038C264.063 5.72111 265.269 6.21598 266.768 6.46945V4.45376C265.661 4.22443 264.713 3.85026 263.748 3.43988C262.162 2.76396 260.521 2.0639 258.216 2.28116C255.077 2.58291 252.539 5.09347 250.133 7.77301Z" fill="white"/>
<path d="M328.477 13.4099C328.995 13.0237 329.514 12.5529 330.033 12.0339C329.816 11.4183 329.683 10.7424 329.683 10.0062C329.683 8.28015 330.274 6.86796 331.347 6.02306C332.336 5.23851 333.651 4.98504 335.05 5.29886C335.376 5.38335 335.702 5.49198 336.027 5.62475C336.57 5.12988 337.113 4.67122 337.692 4.24877C336.992 3.86253 336.256 3.54871 335.496 3.37973C333.53 2.92107 331.564 3.31938 330.117 4.46603C328.561 5.70924 327.717 7.66458 327.717 10.0062C327.717 11.2735 327.994 12.4202 328.477 13.4099Z" fill="white"/>
<path d="M247.85 6.81958C247.294 7.12133 246.74 7.51964 246.191 7.9783C247.231 8.96804 248.242 10.0906 249.236 11.2251C249.943 12.0218 250.655 12.8184 251.388 13.5788C251.637 13.4822 251.884 13.3736 252.094 13.2046C252.407 12.9632 252.648 12.6253 252.849 12.2511C252.121 11.4871 251.41 10.7064 250.717 9.9095C249.783 8.85941 248.838 7.78518 247.85 6.81958Z" fill="white"/>
<path d="M296.705 7.77301C297.151 8.26788 297.586 8.76275 298.032 9.25762C300.299 6.72292 302.483 4.48997 304.979 4.24857C306.776 4.07959 308.055 4.62274 309.539 5.25038C310.636 5.72111 311.842 6.21598 313.338 6.46945V4.45376C312.228 4.22443 311.287 3.85026 310.323 3.43988C308.73 2.76396 307.09 2.0639 304.786 2.28116C301.65 2.58291 299.105 5.09347 296.705 7.77301Z" fill="white"/>
<path d="M317.297 4.45376V6.46945C318.793 6.21598 319.999 5.72111 321.084 5.25038C322.568 4.62274 323.846 4.07959 325.655 4.24857C326.524 4.33306 327.356 4.67102 328.164 5.16589C328.538 4.62274 328.972 4.1158 329.503 3.69335L329.527 3.68128C328.381 2.92087 327.163 2.40186 325.848 2.28116C323.545 2.0639 321.904 2.76396 320.312 3.43988C319.347 3.85026 318.394 4.22443 317.297 4.45376Z" fill="white"/>
<path d="M288.688 7.78508C288.784 7.90578 288.893 8.01441 288.989 8.12304C289.327 8.50928 289.664 8.88345 290.014 9.26969C291.775 7.38677 293.609 5.76939 295.587 5.29866C296.322 5.12968 297.046 5.12968 297.697 5.27452C298.24 4.74344 298.795 4.22443 299.362 3.76577C298.095 3.17434 296.624 3.0295 295.14 3.37953C292.692 3.94682 290.629 5.73318 288.688 7.78508Z" fill="white"/>
<path d="M294.428 6.81958C293.873 7.12133 293.319 7.51964 292.764 7.9783C293.801 8.96804 294.814 10.0906 295.815 11.2251C296.515 12.0218 297.226 12.8184 297.962 13.5788C298.215 13.4822 298.457 13.3736 298.674 13.2046C298.987 12.9632 299.217 12.6253 299.422 12.2511C298.722 11.5148 298.01 10.7303 297.287 9.9095C296.358 8.85941 295.417 7.78518 294.428 6.81958Z" fill="white"/>
<path d="M162.436 6.57812C161.917 6.97644 161.397 7.44717 160.875 7.96618C161.091 8.56968 161.222 9.2456 161.222 10.006C161.222 11.7199 160.633 13.1321 159.563 13.9891C158.576 14.7737 157.26 15.0271 155.862 14.7012C155.527 14.6158 155.197 14.5069 154.877 14.3753C154.341 14.8702 153.791 15.3289 153.221 15.7513C153.921 16.1376 154.648 16.4514 155.416 16.6324C157.383 17.079 159.344 16.6807 160.793 15.5341C162.344 14.3029 163.198 12.3355 163.198 10.006C163.198 8.72659 162.921 7.57994 162.436 6.57812Z" fill="white"/>
<path d="M341.95 12.2149C341.841 12.1062 341.745 11.9855 341.648 11.8769C341.311 11.4907 340.961 11.1165 340.623 10.7423C338.862 12.6132 337.029 14.2426 335.051 14.7013C334.303 14.8703 333.591 14.8703 332.928 14.7254C332.397 15.2686 331.842 15.7755 331.275 16.2462C332.53 16.8256 334.013 16.9704 335.497 16.6325C337.933 16.0531 340.008 14.2668 341.95 12.2149Z" fill="white"/>
<path d="M362.875 17.924V16.3911C362.547 16.3472 362.217 16.323 361.886 16.3187H360.897V17.924C357.278 17.4774 354.42 14.6168 353.961 10.9958H360.897V12.3597H361.886C362.236 12.3597 362.549 12.408 362.875 12.4321V10.9958H369.81C369.352 14.6168 366.505 17.4774 362.875 17.924ZM370.703 5.28667C370.039 5.3953 369.4 5.61256 368.737 5.8781C369.304 6.81956 369.69 7.88172 369.834 9.0163H362.875V2.03984C363.84 2.17261 364.732 2.47436 365.564 2.90888C365.878 2.78818 366.18 2.65541 366.505 2.52264C366.927 2.34159 367.374 2.14847 367.832 1.97949C366.117 0.692262 364.03 -0.00243331 361.886 6.40416e-06C359.654 6.40416e-06 357.604 0.736277 355.939 1.97949C356.398 2.16054 356.844 2.34159 357.278 2.52264C357.592 2.65541 357.905 2.78818 358.207 2.90888C359.039 2.47436 359.944 2.17261 360.897 2.03984V9.0163H353.937C354.082 7.88172 354.468 6.81956 355.035 5.8781C354.371 5.61256 353.744 5.3953 353.069 5.28667C352.321 6.69886 351.887 8.30417 351.887 10.006C351.887 15.522 356.374 20 361.886 20C367.398 20 371.885 15.522 371.885 10.006C371.885 8.30417 371.451 6.69886 370.703 5.28667Z" fill="white"/>
<path d="M304.969 15.7514C304.113 15.6669 303.28 15.329 302.472 14.8341C302.086 15.3773 301.652 15.8842 301.133 16.3066L301.109 16.3187C302.255 17.0791 303.461 17.5981 304.788 17.7188C305.753 17.8154 306.585 17.7188 307.369 17.5619C306.839 17.0067 306.38 16.4032 305.982 15.7635C305.657 15.7756 305.331 15.7876 304.969 15.7514Z" fill="white"/>
<path d="M358.283 16.0049C359.332 15.6186 360.442 15.329 361.889 15.329V13.3495C359.622 13.3495 358.005 13.9651 356.582 14.5565C357.064 15.1238 357.631 15.6186 358.283 16.0049Z" fill="white"/>
<path d="M361.889 15.329C363.336 15.329 364.446 15.6186 365.495 16.017C366.146 15.6186 366.713 15.1238 367.208 14.5565C365.785 13.9651 364.156 13.3495 361.889 13.3495V15.329Z" fill="white"/>
<path d="M351.553 15.7514C350.685 15.6669 349.853 15.329 349.045 14.8341C348.659 15.3773 348.224 15.8842 347.706 16.3066L347.682 16.3187C348.827 17.0791 350.046 17.5981 351.36 17.7188C352.325 17.8154 353.158 17.7188 353.942 17.5619C353.411 17.0067 352.953 16.4032 352.555 15.7635C352.229 15.7756 351.903 15.7876 351.553 15.7514Z" fill="white"/>
<path d="M171.991 16.0049C173.036 15.6186 174.148 15.329 175.598 15.329V13.3495C173.334 13.3495 171.709 13.9651 170.283 14.5565C170.773 15.1238 171.343 15.6186 171.991 16.0049Z" fill="white"/>
<path d="M311.713 16.0049C312.75 15.6186 313.872 15.329 315.319 15.329V13.3495C313.052 13.3495 311.423 13.9651 310 14.5565C310.495 15.1238 311.061 15.6186 311.713 16.0049Z" fill="white"/>
<path d="M333.93 12.2149C333.484 11.7321 333.037 11.2372 332.603 10.7423C330.336 13.2891 328.14 15.522 325.656 15.7514C325.294 15.7876 324.98 15.7755 324.655 15.7634C324.257 16.4031 323.786 17.0066 323.268 17.5619C324.052 17.7188 324.884 17.8153 325.849 17.7188C328.985 17.417 331.53 14.9065 333.93 12.2149Z" fill="white"/>
<path d="M316.306 17.924V16.3911C315.981 16.3549 315.667 16.3187 315.317 16.3187H314.328V17.924C312.567 17.706 310.928 16.9062 309.672 15.6514C308.416 14.3965 307.614 12.7582 307.393 10.9958H314.328V12.3597H315.317C315.667 12.3597 315.969 12.408 316.306 12.4321V10.9958H323.242C322.783 14.6168 319.925 17.4774 316.306 17.924ZM324.134 5.28667C323.459 5.3953 322.832 5.61256 322.156 5.8781C322.735 6.81956 323.121 7.88172 323.266 9.0163H316.306V2.03984C317.259 2.17261 318.164 2.47436 318.996 2.90888C319.298 2.78818 319.611 2.65541 319.925 2.52264C320.359 2.34159 320.793 2.14847 321.264 1.97949C319.548 0.692262 317.461 -0.00243331 315.317 6.40416e-06C313.086 6.40416e-06 311.023 0.736277 309.359 1.97949C309.829 2.16054 310.276 2.34159 310.71 2.52264C311.023 2.65541 311.325 2.78818 311.639 2.90888C312.459 2.47436 313.363 2.17261 314.328 2.03984V9.0163H307.369C307.514 7.88172 307.9 6.81956 308.466 5.8781C307.803 5.61256 307.164 5.3953 306.5 5.28667C305.753 6.69886 305.318 8.30417 305.318 10.006C305.318 15.522 309.805 20 315.317 20C320.829 20 325.316 15.522 325.316 10.006C325.316 8.30417 324.882 6.69886 324.134 5.28667Z" fill="white"/>
<path d="M348.729 6.57812C348.21 6.97644 347.691 7.44717 347.173 7.96618C347.39 8.56968 347.523 9.2456 347.523 10.006C347.523 11.7199 346.932 13.1321 345.858 13.9891C344.869 14.7737 343.554 15.0271 342.155 14.7012C341.818 14.6163 341.488 14.5074 341.166 14.3753C340.635 14.8702 340.081 15.3289 339.514 15.7513C340.213 16.1376 340.937 16.4514 341.709 16.6324C343.675 17.079 345.641 16.6807 347.088 15.5341C348.632 14.3029 349.489 12.3355 349.489 10.006C349.489 8.72659 349.211 7.57994 348.729 6.57812Z" fill="white"/>
<path d="M417.803 15.7633C417.405 16.403 416.935 17.0065 416.416 17.5617C417.188 17.7187 418.02 17.8152 418.985 17.7187C419.335 17.6945 419.661 17.6221 419.998 17.5376V15.4736C419.6 15.6064 419.202 15.715 418.804 15.7512C418.442 15.7875 418.117 15.7754 417.803 15.7633Z" fill="white"/>
<path d="M380.51 12.2149C380.064 11.7321 379.606 11.2372 379.172 10.7423C376.904 13.2891 374.709 15.522 372.224 15.7514C371.874 15.7876 371.549 15.7755 371.223 15.7634C370.825 16.4031 370.367 17.0066 369.836 17.5619C370.62 17.7188 371.452 17.8153 372.417 17.7188C375.565 17.417 378.098 14.9065 380.51 12.2149Z" fill="white"/>
<path d="M418.987 2.28116C416.683 2.0639 415.043 2.76396 413.463 3.43988C412.498 3.85026 411.545 4.22443 410.436 4.45376V6.46945C411.931 6.21598 413.137 5.72111 414.235 5.25038C415.718 4.62274 416.997 4.07959 418.806 4.24857C419.204 4.28478 419.602 4.39341 420 4.52618V2.45014C419.663 2.37772 419.337 2.31737 418.987 2.28116Z" fill="white"/>
<path d="M408.457 15.329C409.916 15.329 411.026 15.6186 412.063 16.017C412.715 15.6186 413.282 15.1238 413.776 14.5565C412.353 13.9651 410.725 13.3495 408.457 13.3495V15.329Z" fill="white"/>
<path d="M409.447 17.924V16.3911C409.119 16.3472 408.789 16.323 408.458 16.3187H407.481V17.924C405.719 17.708 404.079 16.9089 402.822 15.6537C401.566 14.3984 400.765 12.759 400.546 10.9958H407.481V12.3597H408.458C408.82 12.3597 409.121 12.408 409.447 12.4321V10.9958H416.382C415.936 14.6168 413.078 17.4774 409.447 17.924ZM417.275 5.28667C416.612 5.3953 415.972 5.61256 415.309 5.8781C415.876 6.81956 416.262 7.88172 416.407 9.0163H409.447V2.03984C410.412 2.17261 411.317 2.47436 412.149 2.90888C412.45 2.78818 412.764 2.65541 413.078 2.52264C413.5 2.34159 413.946 2.14847 414.416 1.97949C412.696 0.692129 410.606 -0.00243163 408.458 6.39651e-06C406.227 6.39651e-06 404.176 0.736277 402.512 1.97949C402.982 2.16054 403.428 2.34159 403.851 2.52264C404.164 2.65541 404.478 2.78818 404.779 2.90888C405.611 2.47436 406.516 2.17261 407.481 2.03984V9.0163H400.509C400.666 7.88172 401.052 6.81956 401.619 5.8781C400.956 5.61256 400.316 5.3953 399.653 5.28667C398.839 6.80963 398.434 8.51754 398.476 10.244C398.518 11.9705 399.006 13.6567 399.892 15.1383C400.779 16.6199 402.034 17.8465 403.535 18.6985C405.036 19.5505 406.732 19.9989 408.458 20C413.97 20 418.457 15.522 418.457 10.006C418.457 8.30417 418.035 6.69886 417.275 5.28667Z" fill="white"/>
<path d="M388.52 12.2149L388.219 11.8769C387.881 11.4907 387.543 11.1165 387.193 10.7423C385.432 12.6132 383.599 14.2426 381.621 14.7013C380.873 14.8703 380.161 14.8703 379.51 14.7254C378.967 15.2686 378.413 15.7755 377.846 16.2462C379.1 16.8256 380.584 16.9704 382.067 16.6325C384.516 16.0531 386.578 14.2668 388.52 12.2149Z" fill="white"/>
<path d="M404.851 16.0049C405.9 15.6186 407.01 15.329 408.457 15.329V13.3495C406.202 13.3495 404.574 13.9651 403.15 14.5565C403.633 15.1238 404.212 15.6186 404.851 16.0049Z" fill="white"/>
<path d="M395.299 6.57812C394.78 6.97644 394.262 7.44717 393.743 7.96618C393.96 8.56968 394.093 9.2456 394.093 10.006C394.093 11.7199 393.502 13.1321 392.428 13.9891C391.439 14.7737 390.125 15.0271 388.725 14.7012C388.393 14.6145 388.067 14.5056 387.748 14.3753C387.206 14.8702 386.663 15.3289 386.084 15.7513C386.773 16.1425 387.511 16.4389 388.279 16.6324C390.257 17.079 392.211 16.6807 393.659 15.5341C395.215 14.3029 396.071 12.3355 396.071 10.006C396.071 8.72659 395.793 7.57994 395.299 6.57812Z" fill="white"/>
<path d="M398.122 15.7514C397.253 15.6669 396.433 15.329 395.613 14.8341C395.239 15.3773 394.805 15.8842 394.274 16.3066L394.25 16.3187C395.396 17.0791 396.614 17.5981 397.929 17.7188C398.906 17.8154 399.738 17.7188 400.51 17.5619C399.991 17.0067 399.521 16.4032 399.123 15.7635C398.797 15.7756 398.484 15.7876 398.122 15.7514Z" fill="white"/>
<path d="M315.318 15.329C316.766 15.329 317.875 15.6186 318.925 16.017C319.564 15.6186 320.143 15.1238 320.625 14.5565C319.202 13.9651 317.574 13.3495 315.318 13.3495V15.329Z" fill="white"/>
<path d="M211.831 15.7514C210.965 15.6669 210.136 15.329 209.326 14.8341C208.943 15.3773 208.51 15.8842 207.985 16.3066L207.963 16.3187C209.106 17.0791 210.321 17.5981 211.643 17.7188C212.609 17.8154 213.441 17.7188 214.219 17.5619C213.699 17.0091 213.235 16.4068 212.832 15.7635C212.511 15.7756 212.187 15.7876 211.831 15.7514Z" fill="white"/>
<path d="M209.01 6.57812C208.49 6.97644 207.971 7.44717 207.449 7.96618C207.665 8.56968 207.797 9.2456 207.797 10.006C207.797 11.7199 207.207 13.1321 206.137 13.9891C205.149 14.7737 203.834 15.0271 202.436 14.7012C202.101 14.6158 201.771 14.5069 201.451 14.3753C200.915 14.8702 200.365 15.3289 199.795 15.7513C200.496 16.1376 201.223 16.4514 201.989 16.6324C203.959 17.079 205.919 16.6807 207.367 15.5341C208.917 14.3029 209.771 12.3355 209.771 10.006C209.771 8.72659 209.495 7.57994 209.01 6.57812Z" fill="white"/>
<path d="M218.564 16.0049C219.609 15.6186 220.721 15.329 222.171 15.329V13.3495C219.905 13.3495 218.282 13.9651 216.857 14.5565C217.345 15.1278 217.921 15.6169 218.564 16.0049Z" fill="white"/>
<path d="M222.17 15.329C223.619 15.329 224.732 15.6186 225.776 16.017C226.417 15.6206 226.993 15.128 227.484 14.5565C226.059 13.9651 224.434 13.3495 222.17 13.3495V15.329Z" fill="white"/>
<path d="M176.584 17.924V16.3911C176.268 16.3549 175.952 16.3187 175.596 16.3187H174.61V17.924C172.848 17.7063 171.209 16.9067 169.953 15.6517C168.697 14.3967 167.896 12.7582 167.675 10.9958H174.61V12.3597H175.596C175.95 12.3597 176.256 12.408 176.584 12.4321V10.9958H183.518C183.298 12.7581 182.496 14.3964 181.24 15.6513C179.984 16.9061 178.345 17.7059 176.584 17.924ZM184.412 5.28667C183.744 5.3953 183.108 5.61256 182.444 5.8781C183.01 6.81956 183.399 7.88172 183.546 9.0163H176.584V2.03984C177.525 2.17165 178.436 2.46568 179.277 2.90888C179.585 2.78818 179.891 2.65541 180.21 2.52264C180.637 2.34159 181.081 2.14847 181.546 1.97949C179.829 0.692222 177.741 -0.00243225 175.596 6.39894e-06C173.365 6.39894e-06 171.311 0.736277 169.645 1.97949C170.113 2.16054 170.558 2.34159 170.986 2.52264C171.302 2.65541 171.609 2.78818 171.915 2.90888C172.756 2.46514 173.668 2.17108 174.61 2.03984V9.0163H167.646C167.795 7.88172 168.182 6.81956 168.749 5.8781C168.084 5.61256 167.449 5.3953 166.78 5.28667C166.005 6.73871 165.599 8.35969 165.6 10.006C165.6 15.522 170.084 20 175.596 20C181.11 20 185.593 15.522 185.593 10.006C185.593 8.30417 185.163 6.69886 184.412 5.28667Z" fill="white"/>
<path d="M223.156 17.924V16.3911C222.839 16.3549 222.524 16.3186 222.168 16.3186H221.181V17.924C219.419 17.7057 217.781 16.9059 216.525 15.651C215.269 14.3962 214.467 12.758 214.246 10.9958H221.181V12.3597H222.168C222.522 12.3597 222.828 12.408 223.156 12.4321V10.9958H230.09C229.87 12.7581 229.068 14.3964 227.812 15.6513C226.556 16.9061 224.918 17.7059 223.156 17.924ZM230.984 5.28667C230.316 5.3953 229.68 5.61256 229.016 5.8781C229.583 6.81956 229.971 7.88172 230.118 9.0163H223.156V2.03984C224.118 2.17261 225.02 2.47436 225.85 2.90888C226.156 2.78818 226.464 2.65541 226.782 2.52264C227.209 2.34159 227.653 2.14847 228.118 1.97949C226.402 0.692378 224.314 -0.00225865 222.168 5.51752e-06C219.938 5.51752e-06 217.883 0.736276 216.219 1.97949C216.685 2.16054 217.13 2.34159 217.56 2.52264C217.876 2.65541 218.181 2.78818 218.487 2.90888C219.328 2.4655 220.239 2.17145 221.181 2.03984V9.0163H214.219C214.367 7.88172 214.754 6.81956 215.321 5.8781C214.658 5.61256 214.021 5.3953 213.353 5.28667C212.577 6.73871 212.172 8.35969 212.172 10.006C212.172 15.522 216.655 20 222.168 20C227.682 20 232.165 15.522 232.165 10.006C232.165 8.30417 231.736 6.69886 230.984 5.28667Z" fill="white"/>
<path d="M175.598 15.329C177.046 15.329 178.16 15.6186 179.203 16.017C179.844 15.6209 180.421 15.1283 180.912 14.5565C179.488 13.9651 177.862 13.3495 175.598 13.3495V15.329Z" fill="white"/>
<path d="M202.227 12.2149C202.126 12.1062 202.023 11.9855 201.923 11.8769C201.585 11.4907 201.244 11.1165 200.903 10.7423C199.142 12.6132 197.308 14.2426 195.327 14.7013C194.586 14.8703 193.872 14.8703 193.214 14.7254C192.676 15.2686 192.122 15.7755 191.553 16.2462C192.812 16.8256 194.291 16.9704 195.774 16.6325C198.219 16.0531 200.288 14.2668 202.227 12.2149Z" fill="white"/>
<path d="M194.215 12.2149C193.766 11.7321 193.317 11.2372 192.88 10.7423C190.613 13.2891 188.42 15.522 185.936 15.7514C185.58 15.7876 185.257 15.7755 184.936 15.7634C184.534 16.407 184.069 17.0094 183.549 17.5619C184.327 17.7188 185.158 17.8153 186.124 17.7188C189.267 17.417 191.806 14.9065 194.215 12.2149Z" fill="white"/>
<path d="M269.731 17.924V16.3911C269.414 16.3549 269.098 16.3186 268.743 16.3186H267.755V17.924C265.993 17.7059 264.355 16.9061 263.099 15.6513C261.843 14.3964 261.041 12.7581 260.821 10.9958H267.755V12.3597H268.743C269.097 12.3597 269.402 12.408 269.731 12.4321V10.9958H276.665C276.444 12.7581 275.642 14.3964 274.386 15.6513C273.13 16.9061 271.492 17.7059 269.731 17.924ZM277.558 5.28667C276.89 5.3953 276.255 5.61256 275.59 5.8781C276.158 6.81956 276.544 7.88172 276.692 9.0163H269.731V2.03984C270.691 2.17261 271.594 2.47436 272.423 2.90888C272.731 2.78818 273.038 2.65541 273.356 2.52264C273.783 2.34159 274.227 2.14847 274.693 1.97949C272.976 0.692378 270.888 -0.00225865 268.743 5.51752e-06C266.511 5.51752e-06 264.457 0.736276 262.792 1.97949C263.26 2.16054 263.705 2.34159 264.133 2.52264C264.45 2.65541 264.755 2.78818 265.06 2.90888C265.902 2.46548 266.813 2.17144 267.755 2.03984V9.0163H260.793C260.939 7.90517 261.315 6.83656 261.895 5.8781C261.232 5.61256 260.595 5.3953 259.927 5.28667C259.152 6.73871 258.746 8.35969 258.746 10.006C258.746 15.522 263.229 20 268.743 20C274.256 20 278.739 15.522 278.739 10.006C278.739 8.30417 278.31 6.69886 277.558 5.28667Z" fill="white"/>
<path d="M302.158 6.57812C301.64 6.97644 301.121 7.44717 300.59 7.96618C300.807 8.56968 300.94 9.2456 300.94 10.006C300.94 11.7199 300.349 13.1321 299.288 13.9891C298.299 14.7737 296.984 15.0271 295.585 14.7012C295.248 14.6163 294.917 14.5074 294.596 14.3753C294.065 14.8702 293.51 15.3289 292.943 15.7513C293.643 16.1376 294.367 16.4514 295.139 16.6324C297.105 17.079 299.059 16.6807 300.518 15.5341C302.062 14.3029 302.918 12.3355 302.918 10.006C302.918 8.72659 302.641 7.57994 302.158 6.57812Z" fill="white"/>
<path d="M287.358 12.2149C286.912 11.7321 286.466 11.2372 286.019 10.7423C283.752 13.2891 281.565 15.522 279.08 15.7514C278.723 15.7876 278.401 15.7755 278.08 15.7634C277.678 16.407 277.214 17.0094 276.693 17.5619C277.471 17.7188 278.302 17.8153 279.268 17.7188C282.413 17.417 284.946 14.9065 287.358 12.2149Z" fill="white"/>
<path d="M268.742 15.329C270.191 15.329 271.304 15.6186 272.347 16.017C272.989 15.6209 273.565 15.1283 274.056 14.5565C272.631 13.9651 271.006 13.3495 268.742 13.3495V15.329Z" fill="white"/>
<path d="M295.368 12.2149C295.271 12.1062 295.175 11.9855 295.066 11.8769C294.732 11.496 294.394 11.1178 294.053 10.7423C292.292 12.6132 290.459 14.2426 288.469 14.7013C287.733 14.8703 287.021 14.8703 286.358 14.7254C285.815 15.2686 285.272 15.7755 284.693 16.2462C285.96 16.8256 287.431 16.9704 288.915 16.6325C291.363 16.0531 293.438 14.2668 295.368 12.2149Z" fill="white"/>
<path d="M258.401 15.7514C257.535 15.6669 256.707 15.329 255.897 14.8341C255.521 15.3854 255.069 15.8811 254.555 16.3066L254.533 16.3187C255.677 17.0791 256.891 17.5981 258.213 17.7188C259.179 17.8154 260.012 17.7188 260.79 17.5619C260.27 17.0091 259.805 16.4068 259.402 15.7635C259.082 15.7756 258.757 15.7876 258.401 15.7514Z" fill="white"/>
<path d="M248.798 12.2149C248.698 12.1062 248.596 11.9855 248.495 11.8769C248.158 11.4907 247.816 11.1165 247.475 10.7423C245.714 12.6132 243.881 14.2426 241.9 14.7013C241.157 14.8703 240.444 14.8703 239.787 14.7254C239.248 15.2686 238.694 15.7755 238.125 16.2462C239.384 16.8256 240.862 16.9704 242.347 16.6325C244.793 16.0531 246.86 14.2668 248.798 12.2149Z" fill="white"/>
<path d="M255.582 6.57812C255.062 6.97644 254.544 7.44717 254.021 7.96618C254.237 8.56968 254.369 9.2456 254.369 10.006C254.369 11.7199 253.779 13.1321 252.709 13.9891C251.721 14.7737 250.407 15.0271 249.009 14.7012C248.673 14.6158 248.344 14.5069 248.023 14.3753C247.488 14.8702 246.938 15.3289 246.367 15.7513C247.067 16.1376 247.794 16.4514 248.562 16.6324C250.53 17.079 252.491 16.6807 253.939 15.5341C255.489 14.3029 256.343 12.3355 256.343 10.006C256.343 8.72659 256.067 7.57994 255.582 6.57812Z" fill="white"/>
<path d="M265.136 16.0049C266.18 15.6186 267.292 15.329 268.742 15.329V13.3495C266.478 13.3495 264.853 13.9651 263.428 14.5565C263.919 15.1238 264.488 15.6186 265.136 16.0049Z" fill="white"/>
<path d="M240.788 12.2149C240.339 11.7321 239.892 11.2372 239.453 10.7423C237.186 13.2891 234.993 15.522 232.509 15.7514C232.153 15.7876 231.83 15.7755 231.509 15.7634C231.107 16.4067 230.643 17.009 230.123 17.5619C230.9 17.7188 231.732 17.8153 232.697 17.7188C235.841 17.417 238.379 14.9065 240.788 12.2149Z" fill="white"/>
<path d="M55.7656 7.78508C55.8669 7.90578 55.9695 8.01441 56.0708 8.12304C56.4085 8.50928 56.751 8.88345 57.0924 9.26969C58.8522 7.38677 60.6831 5.76939 62.6648 5.29866C63.3591 5.13413 64.0813 5.12589 64.7792 5.27452C65.3171 4.74344 65.8708 4.22443 66.4401 3.76577C65.182 3.17434 63.7033 3.0295 62.2173 3.37953C59.7737 3.94682 57.7039 5.73318 55.7656 7.78508Z" fill="white"/>
<path d="M53.1574 6.39722C52.9113 6.50585 52.6774 6.62655 52.4687 6.79553C52.1575 7.03693 51.9163 7.37489 51.7148 7.74906C52.4216 8.48533 53.1297 9.28195 53.8485 10.0906C54.7797 11.1407 55.7217 12.215 56.7071 13.1806C57.2643 12.8788 57.8168 12.4805 58.3668 12.0218C57.3295 11.0321 56.3211 9.90959 55.3297 8.78708C54.6216 7.97603 53.8974 7.17925 53.1574 6.39722Z" fill="white"/>
<path d="M63.7871 7.77301C64.2334 8.26788 64.6748 8.76275 65.1127 9.25762C67.3778 6.72292 69.5718 4.48997 72.0589 4.24857C73.8609 4.07959 75.143 4.62274 76.6254 5.25038C77.7157 5.72111 78.9231 6.21598 80.4224 6.46945V4.45376C79.3151 4.22443 78.3659 3.85026 77.4009 3.43988C75.8148 2.76396 74.1757 2.0639 71.8707 2.28116C68.7299 2.58291 66.1934 5.09347 63.7871 7.77301Z" fill="white"/>
<path d="M61.5042 6.81958C60.9469 7.12133 60.3945 7.51964 59.8457 7.9783C60.8854 8.96804 61.8962 10.0906 62.89 11.2251C63.5968 12.0218 64.3097 12.8184 65.0418 13.5788C65.2915 13.4822 65.5375 13.3736 65.7486 13.2046C66.061 12.9632 66.301 12.6253 66.5037 12.2511C65.7749 11.4871 65.0639 10.7064 64.3712 9.9095C63.4376 8.85941 62.492 7.78518 61.5042 6.81958Z" fill="white"/>
<path d="M95.5516 13.4099C96.0715 13.0237 96.5913 12.5529 97.1136 12.0339C96.885 11.3823 96.7684 10.6967 96.7686 10.0062C96.7686 8.28015 97.3585 6.86796 98.4271 6.02306C99.4149 5.23851 100.73 4.98504 102.126 5.29886C102.459 5.38335 102.787 5.49198 103.112 5.62475C103.647 5.12988 104.197 4.67122 104.768 4.24877C104.067 3.86253 103.341 3.54871 102.574 3.37973C100.605 2.92107 98.6466 3.31938 97.1968 4.46603C95.6469 5.70924 94.793 7.66458 94.793 10.0062C94.793 11.2735 95.0692 12.4202 95.5516 13.4099Z" fill="white"/>
<path d="M84.373 4.45376V6.46945C85.8711 6.21598 87.0784 5.72111 88.1676 5.25038C89.6524 4.62274 90.9321 4.07959 92.7377 4.24857C93.6037 4.33306 94.4311 4.67102 95.2417 5.16589C95.624 4.62274 96.0582 4.1158 96.5841 3.69335L96.6058 3.68128C95.4624 2.92087 94.2478 2.40186 92.9259 2.28116C90.6197 2.0639 88.9793 2.76396 87.392 3.43988C86.4271 3.85026 85.4791 4.22443 84.373 4.45376Z" fill="white"/>
<path d="M48.9801 13.4099C49.5 13.0237 50.0198 12.5529 50.5421 12.0339C50.3141 11.3822 50.1975 10.6967 50.1971 10.0062C50.1971 8.28015 50.7869 6.86796 51.8544 6.02306C52.8446 5.23851 54.1581 4.98504 55.5548 5.29886C55.8877 5.38335 56.2158 5.49198 56.5403 5.62475C57.0758 5.12988 57.6258 4.67122 58.1963 4.24877C57.4955 3.86253 56.7682 3.54871 56.0023 3.37973C54.0339 2.92107 52.0751 3.31938 50.6265 4.46603C49.0766 5.70924 48.2227 7.66458 48.2227 10.0062C48.2227 11.2735 48.4977 12.4202 48.9801 13.4099Z" fill="white"/>
<path d="M37.7988 4.45376V6.46945C39.2981 6.21598 40.5054 5.72111 41.5946 5.25038C43.0782 4.62274 44.3591 4.07959 46.1647 4.24857C47.0307 4.33306 47.8581 4.67102 48.6687 5.16589C49.0451 4.61459 49.497 4.11891 50.0111 3.69335L50.0316 3.68128C48.8894 2.92087 47.6748 2.40186 46.3529 2.28116C44.0467 2.0639 42.4063 2.76396 40.819 3.43988C39.8541 3.85026 38.9049 4.22443 37.7988 4.45376Z" fill="white"/>
<path d="M2.40711 13.4099C2.92696 13.0237 3.44681 12.5529 3.96907 12.0339C3.74051 11.3823 3.62388 10.6967 3.62411 10.0062C3.62411 8.28015 4.21392 6.86796 5.28136 6.02306C6.27041 5.23851 7.58511 4.98504 8.98184 5.29886C9.31473 5.38335 9.64281 5.49198 9.96726 5.62475C10.5028 5.12988 11.0528 4.67122 11.6233 4.24877C10.9225 3.86253 10.1964 3.54871 9.42932 3.37973C7.46088 2.92107 5.50209 3.31938 4.0535 4.46603C2.50239 5.70924 1.64844 7.66458 1.64844 10.0062C1.64844 11.2735 1.92465 12.4202 2.40711 13.4099Z" fill="white"/>
<path d="M3.43753 3.69349L3.45924 3.68142C2.37974 2.96929 1.2351 2.47441 0 2.3175V4.32113C0.71766 4.4539 1.41361 4.75565 2.09509 5.16603C2.47744 4.62288 2.91165 4.11594 3.43753 3.69349Z" fill="white"/>
<path d="M7.86773 12.2149C7.42024 11.7321 6.97155 11.2372 6.53372 10.7423C4.39401 13.1442 2.31581 15.2444 0 15.6789V17.6826C3.0395 17.2843 5.51814 14.834 7.86773 12.2149Z" fill="white"/>
<path d="M15.8815 12.2149C15.7802 12.1062 15.6776 11.9855 15.5775 11.8769C15.2398 11.4907 14.8985 11.1165 14.5571 10.7423C12.7949 12.6132 10.9628 14.2426 8.98108 14.7013C8.2405 14.8703 7.52646 14.8703 6.8679 14.7254C6.32996 15.2686 5.77633 15.7755 5.20703 16.2462C6.46625 16.8256 7.94379 16.9704 9.42856 16.6325C11.8734 16.0531 13.942 14.2668 15.8815 12.2149Z" fill="white"/>
<path d="M17.2139 7.77301C17.6613 8.26788 18.1016 8.76275 18.5406 9.25762C20.807 6.72292 22.9986 4.48997 25.4857 4.24857C27.2888 4.07959 28.5698 4.62274 30.0533 5.25038C31.1425 5.72111 32.3499 6.21598 33.8491 6.46945V4.45376C32.7431 4.22443 31.7926 3.85026 30.8277 3.43988C29.2416 2.76396 27.6012 2.0639 25.2975 2.28116C22.1567 2.58291 19.6201 5.09347 17.2139 7.77301Z" fill="white"/>
<path d="M6.58416 6.39722C6.3381 6.50585 6.10532 6.62655 5.89545 6.79553C5.58426 7.03693 5.34303 7.37489 5.1416 7.74906C5.84841 8.48533 6.55642 9.28195 7.27528 10.0906C8.20523 11.1407 9.14844 12.215 10.1339 13.1806C10.6911 12.8788 11.2435 12.4805 11.7935 12.0218C10.7562 11.0321 9.74789 9.90959 8.75644 8.78708C8.04802 7.97633 7.32379 7.17955 6.58416 6.39722Z" fill="white"/>
<path d="M14.9319 6.81958C14.3747 7.12133 13.8222 7.51964 13.2734 7.9783C14.3119 8.96804 15.3239 10.0906 16.3178 11.2251C17.0234 12.0218 17.7386 12.8184 18.4695 13.5788C18.7192 13.4822 18.9665 13.3736 19.1763 13.2046C19.4887 12.9632 19.7288 12.6253 19.9314 12.2511C19.2023 11.4874 18.4913 10.7067 17.7989 9.9095C16.8641 8.85941 15.9185 7.78518 14.9319 6.81958Z" fill="white"/>
<path d="M99.7309 6.39722C99.4836 6.50585 99.2496 6.62655 99.041 6.79553C98.7286 7.03693 98.4885 7.37489 98.2871 7.74906C98.9939 8.48533 99.7019 9.28195 100.421 10.0906C101.351 11.1407 102.295 12.215 103.278 13.1806C103.837 12.8788 104.389 12.4805 104.938 12.0218C103.902 11.0321 102.893 9.90959 101.902 8.78708C101.194 7.97633 100.47 7.17956 99.7309 6.39722Z" fill="white"/>
<path d="M9.19141 7.78508C9.29272 7.90578 9.39645 8.01441 9.49656 8.12304C9.83429 8.50928 10.1768 8.88345 10.5182 9.26969C12.2792 7.38677 14.1089 5.76939 16.0906 5.29866C16.7849 5.13413 17.5071 5.12589 18.205 5.27452C18.7441 4.74344 19.2965 4.22443 19.8658 3.76577C18.6078 3.17434 17.1291 3.0295 15.6431 3.37953C13.1982 3.94682 11.1309 5.73318 9.19141 7.78508Z" fill="white"/>
<path d="M195.484 7.78508C195.586 7.90578 195.688 8.01441 195.79 8.12304C196.126 8.50928 196.47 8.88345 196.81 9.26969C198.571 7.38677 200.402 5.76939 202.384 5.29866C203.078 5.13413 203.8 5.12589 204.498 5.27452C205.037 4.74344 205.59 4.22443 206.159 3.76577C204.9 3.17434 203.422 3.0295 201.936 3.37953C199.492 3.94682 197.423 5.73318 195.484 7.78508Z" fill="white"/>
<path d="M235.274 13.4099C235.794 13.0237 236.314 12.5529 236.836 12.0339C236.608 11.3823 236.491 10.6967 236.491 10.0062C236.491 8.28015 237.081 6.86796 238.149 6.02306C239.138 5.23851 240.452 4.98504 241.849 5.29886C242.182 5.38335 242.51 5.49198 242.834 5.62475C243.37 5.12988 243.92 4.67122 244.491 4.24877C243.79 3.86253 243.064 3.54871 242.297 3.37973C240.328 2.92107 238.369 3.31938 236.921 4.46603C235.37 5.70924 234.516 7.66458 234.516 10.0062C234.516 11.2735 234.792 12.4202 235.274 13.4099Z" fill="white"/>
<path d="M224.092 4.45376V6.46945C225.59 6.21598 226.797 5.72111 227.886 5.25038C229.371 4.62274 230.651 4.07959 232.456 4.24857C233.322 4.33306 234.15 4.67102 234.96 5.16589C235.343 4.62274 235.777 4.1158 236.303 3.69335L236.325 3.68128C235.181 2.92087 233.967 2.40186 232.645 2.28116C230.338 2.0639 228.698 2.76396 227.111 3.43988C226.146 3.85026 225.198 4.22443 224.092 4.45376Z" fill="white"/>
<path d="M203.506 7.77301C203.953 8.26788 204.394 8.76275 204.833 9.25762C207.098 6.72292 209.292 4.48997 211.778 4.24857C213.58 4.07959 214.862 4.62274 216.344 5.25038C217.436 5.72111 218.642 6.21598 220.141 6.46945V4.45376C219.034 4.22443 218.085 3.85026 217.12 3.43988C215.534 2.76396 213.893 2.0639 211.589 2.28116C208.449 2.58291 205.912 5.09347 203.506 7.77301Z" fill="white"/>
<path d="M25.4822 15.7514C24.6161 15.6669 23.7887 15.329 22.9782 14.8341C22.5958 15.3773 22.1628 15.8842 21.6357 16.3066L21.6152 16.3187C22.7587 17.0791 23.9733 17.5981 25.294 17.7188C26.2613 17.8154 27.0936 17.7188 27.8715 17.5619C27.3517 17.0091 26.8871 16.4068 26.4845 15.7635C26.1505 15.7834 25.8155 15.7794 25.4822 15.7514Z" fill="white"/>
<path d="M201.225 6.81958C200.668 7.12133 200.115 7.51964 199.566 7.9783C200.605 8.96804 201.617 10.0906 202.611 11.2251C203.312 12.0245 204.029 12.8092 204.763 13.5788C205.012 13.4822 205.259 13.3736 205.469 13.2046C205.782 12.9632 206.023 12.6253 206.224 12.2511C205.496 11.4871 204.785 10.7064 204.092 9.9095C203.158 8.85941 202.211 7.78518 201.225 6.81958Z" fill="white"/>
<path d="M242.057 7.78508C242.158 7.90578 242.26 8.01441 242.361 8.12304C242.7 8.50928 243.041 8.88345 243.383 9.26969C245.144 7.38677 246.974 5.76939 248.956 5.29866C249.65 5.13413 250.372 5.12589 251.07 5.27452C251.608 4.74344 252.162 4.22443 252.731 3.76577C251.473 3.17434 249.994 3.0295 248.508 3.37953C246.065 3.94682 243.995 5.73318 242.057 7.78508Z" fill="white"/>
<path d="M239.45 6.39722C239.204 6.50585 238.97 6.62655 238.762 6.79553C238.45 7.03693 238.209 7.37489 238.008 7.74906C238.715 8.48533 239.423 9.28195 240.141 10.0906C241.071 11.1407 242.015 12.215 243 13.1806C243.557 12.8788 244.11 12.4805 244.66 12.0218C243.622 11.0321 242.614 9.90959 241.623 8.78708C240.914 7.97633 240.19 7.17955 239.45 6.39722Z" fill="white"/>
<path d="M250.078 7.77301C250.526 8.26788 250.966 8.76275 251.405 9.25762C253.67 6.72292 255.863 4.48997 258.35 4.24857C260.152 4.07959 261.434 4.62274 262.916 5.25038C264.007 5.72111 265.214 6.21598 266.713 6.46945V4.45376C265.606 4.22443 264.657 3.85026 263.692 3.43988C262.106 2.76396 260.465 2.0639 258.162 2.28116C255.021 2.58291 252.484 5.09347 250.078 7.77301Z" fill="white"/>
<path d="M247.797 6.81958C247.24 7.12133 246.687 7.51964 246.139 7.9783C247.177 8.96804 248.189 10.0906 249.183 11.2251C249.884 12.0239 250.601 12.8086 251.334 13.5788C251.583 13.4822 251.832 13.3736 252.042 13.2046C252.354 12.9632 252.594 12.6253 252.797 12.2511C252.068 11.4871 251.357 10.7064 250.664 9.9095C249.729 8.85941 248.785 7.78518 247.797 6.81958Z" fill="white"/>
<path d="M192.876 6.39722C192.63 6.50585 192.396 6.62655 192.187 6.79553C191.876 7.03693 191.635 7.37489 191.434 7.74906C192.159 8.51578 192.87 9.29645 193.566 10.0906C194.497 11.1407 195.44 12.215 196.426 13.1806C196.982 12.8788 197.536 12.4805 198.086 12.0218C197.048 11.0321 196.04 9.90959 195.047 8.78708C194.336 7.97839 193.614 7.1697 192.876 6.39722Z" fill="white"/>
<path d="M146.304 6.39722C146.058 6.49842 145.827 6.6324 145.616 6.79553C145.304 7.03693 145.064 7.37489 144.861 7.74906C145.568 8.48533 146.275 9.28195 146.995 10.0906C147.925 11.1407 148.868 12.215 149.854 13.1806C150.411 12.8788 150.963 12.4805 151.513 12.0218C150.476 11.0321 149.468 9.90959 148.476 8.78708C147.768 7.97603 147.044 7.17925 146.304 6.39722Z" fill="white"/>
<path d="M130.945 4.45376V6.46945C132.445 6.21598 133.652 5.72111 134.741 5.25038C136.225 4.62274 137.506 4.07959 139.311 4.24857C140.177 4.33306 141.005 4.67102 141.815 5.16589C142.199 4.62274 142.631 4.1158 143.158 3.69335L143.179 3.68128C142.036 2.92087 140.82 2.40186 139.499 2.28116C137.193 2.0639 135.553 2.76396 133.966 3.43988C133.001 3.85026 132.051 4.22443 130.945 4.45376Z" fill="white"/>
<path d="M142.125 13.4099C142.644 13.0237 143.164 12.5529 143.687 12.0339C143.458 11.3823 143.341 10.6967 143.342 10.0062C143.342 8.28015 143.931 6.86796 144.999 6.02306C145.988 5.23851 147.301 4.98504 148.699 5.29886C149.032 5.38335 149.362 5.49198 149.685 5.62475C150.22 5.12988 150.77 4.67122 151.341 4.24877C150.64 3.86253 149.914 3.54871 149.147 3.37973C147.178 2.92107 145.22 3.31938 143.771 4.46603C142.221 5.70924 141.367 7.66458 141.367 10.0062C141.367 11.2735 141.642 12.4202 142.125 13.4099Z" fill="white"/>
<path d="M102.34 7.78508C102.441 7.90578 102.544 8.01441 102.645 8.12304C102.982 8.50928 103.325 8.88345 103.667 9.26969C105.428 7.38677 107.257 5.76939 109.239 5.29866C109.933 5.13413 110.656 5.12589 111.353 5.27452C111.893 4.74344 112.445 4.22443 113.014 3.76577C111.755 3.17434 110.278 3.0295 108.792 3.37953C106.347 3.94682 104.278 5.73318 102.34 7.78508Z" fill="white"/>
<path d="M110.357 7.77301C110.805 8.26788 111.245 8.76275 111.684 9.25762C113.951 6.72292 116.142 4.48997 118.629 4.24857C120.431 4.07959 121.713 4.62274 123.196 5.25038C124.286 5.72111 125.493 6.21598 126.993 6.46945V4.45376C125.885 4.22443 124.936 3.85026 123.971 3.43988C122.385 2.76396 120.745 2.0639 118.441 2.28116C115.3 2.58291 112.764 5.09347 110.357 7.77301Z" fill="white"/>
<path d="M188.698 13.4099C189.217 13.0237 189.738 12.5529 190.26 12.0339C190.032 11.3823 189.915 10.6967 189.915 10.0062C189.915 8.28015 190.505 6.86796 191.572 6.02306C192.561 5.23851 193.876 4.98504 195.273 5.29886C195.606 5.38335 195.934 5.49198 196.258 5.62475C196.794 5.12988 197.344 4.67122 197.914 4.24877C197.214 3.86253 196.487 3.54871 195.72 3.37973C193.752 2.92107 191.793 3.31938 190.345 4.46603C188.793 5.70924 187.939 7.66458 187.939 10.0062C187.939 11.2735 188.216 12.4202 188.698 13.4099Z" fill="white"/>
<path d="M108.078 6.81958C107.522 7.12133 106.969 7.51964 106.42 7.9783C107.458 8.96804 108.47 10.0906 109.464 11.2251C110.165 12.0245 110.883 12.8092 111.616 13.5788C111.866 13.4822 112.113 13.3736 112.323 13.2046C112.635 12.9632 112.876 12.6253 113.078 12.2511C112.349 11.4871 111.638 10.7064 110.945 9.9095C110.012 8.85941 109.065 7.78518 108.078 6.81958Z" fill="white"/>
<path d="M156.932 7.77301C157.378 8.26788 157.819 8.76275 158.257 9.25762H158.258C160.524 6.72292 162.716 4.48997 165.203 4.24857C167.005 4.07959 168.288 4.62274 169.77 5.25038C170.86 5.72111 172.068 6.21598 173.567 6.46945V4.45376C172.46 4.22443 171.51 3.85026 170.545 3.43988C168.961 2.76396 167.319 2.0639 165.015 2.28116C161.874 2.58291 159.338 5.09347 156.932 7.77301Z" fill="white"/>
<path d="M177.52 4.45376V6.46945C179.019 6.21598 180.226 5.72111 181.315 5.25038C182.799 4.62274 184.08 4.07959 185.885 4.24857C186.751 4.33306 187.579 4.67102 188.389 5.16589C188.772 4.62274 189.206 4.1158 189.732 3.69335L189.754 3.68128C188.61 2.92087 187.395 2.40186 186.074 2.28116C183.767 2.0639 182.127 2.76396 180.54 3.43988C179.575 3.85026 178.626 4.22443 177.52 4.45376Z" fill="white"/>
<path d="M148.912 7.78508C149.012 7.90578 149.116 8.01441 149.216 8.12304C149.555 8.50928 149.896 8.88345 150.239 9.26969C152 7.38677 153.83 5.76939 155.811 5.29866C156.506 5.13413 157.228 5.12589 157.926 5.27452C158.464 4.74344 159.017 4.22443 159.587 3.76577C158.329 3.17434 156.85 3.0295 155.364 3.37953C152.92 3.94682 150.85 5.73318 148.912 7.78508Z" fill="white"/>
<path d="M154.651 6.81958C154.093 7.12133 153.541 7.51964 152.992 7.9783C154.031 8.96804 155.041 10.0906 156.037 11.2251C156.742 12.0218 157.456 12.8184 158.187 13.5788C158.437 13.4822 158.684 13.3736 158.895 13.2046C159.207 12.9632 159.448 12.6253 159.65 12.2511C158.921 11.4874 158.21 10.7067 157.518 9.9095C156.584 8.85941 155.638 7.78518 154.651 6.81958Z" fill="white"/>
<path d="M22.6654 6.57812C22.1456 6.97644 21.6269 7.44717 21.1047 7.96618C21.3194 8.56968 21.452 9.2456 21.452 10.006C21.452 11.7199 20.861 13.1321 19.7924 13.9891C18.8045 14.7737 17.4898 15.0271 16.0919 14.7012C15.7562 14.6158 15.4269 14.5069 15.1065 14.3753C14.5709 14.8702 14.0209 15.3289 13.4492 15.7513C14.15 16.1376 14.8773 16.4514 15.6444 16.6324C17.6129 17.079 19.5741 16.6807 21.0226 15.5341C22.5726 14.3029 23.4265 12.3355 23.4265 10.006C23.4265 8.72659 23.1491 7.57994 22.6654 6.57812Z" fill="white"/>
<path d="M202.173 12.2149C202.073 12.1062 201.971 11.9855 201.87 11.8769C201.533 11.4907 201.191 11.1165 200.85 10.7423C199.089 12.6132 197.256 14.2426 195.274 14.7013C194.532 14.8703 193.819 14.8703 193.161 14.7254C192.623 15.2686 192.069 15.7755 191.5 16.2462C192.759 16.8256 194.237 16.9704 195.722 16.6325C198.166 16.0531 200.235 14.2668 202.173 12.2149Z" fill="white"/>
<path d="M223.104 17.924V16.3911C222.788 16.3549 222.473 16.3186 222.118 16.3186H221.13V17.924C219.368 17.7061 217.73 16.9064 216.474 15.6515C215.218 14.3966 214.416 12.7582 214.196 10.9958H221.13V12.3597H222.118C222.471 12.3597 222.777 12.408 223.104 12.4321V10.9958H230.038C229.818 12.7582 229.016 14.3966 227.76 15.6515C226.504 16.9064 224.866 17.7061 223.104 17.924ZM230.932 5.28667C230.265 5.3953 229.628 5.61256 228.965 5.8781C229.532 6.81956 229.919 7.88172 230.067 9.0163H223.104V2.03984C224.066 2.17261 224.969 2.47436 225.798 2.90888C226.105 2.78818 226.413 2.65541 226.731 2.52264C227.158 2.34159 227.602 2.14847 228.068 1.97949C226.351 0.692378 224.263 -0.00225865 222.118 5.51752e-06C219.886 5.51752e-06 217.832 0.736276 216.167 1.97949C216.633 2.16054 217.08 2.34159 217.508 2.52264C217.824 2.65541 218.13 2.78818 218.435 2.90888C219.277 2.46548 220.188 2.17144 221.13 2.03984V9.0163H214.168C214.315 7.88172 214.702 6.81956 215.27 5.8781C214.606 5.61256 213.97 5.3953 213.302 5.28667C212.527 6.73871 212.121 8.35969 212.121 10.006C212.121 15.522 216.604 20 222.118 20C223.844 20.0009 225.542 19.5539 227.045 18.7027C228.547 17.8515 229.804 16.625 230.692 15.143C231.579 13.661 232.068 11.974 232.11 10.2466C232.153 8.51917 231.747 6.8103 230.932 5.28667Z" fill="white"/>
<path d="M165.201 15.7514C164.336 15.6669 163.507 15.329 162.697 14.8341C162.315 15.3773 161.88 15.8842 161.354 16.3066L161.334 16.3187C162.477 17.0791 163.692 17.5981 165.014 17.7188C165.98 17.8154 166.812 17.7188 167.59 17.5619C167.07 17.0095 166.605 16.4071 166.203 15.7635C165.869 15.7834 165.534 15.7794 165.201 15.7514Z" fill="white"/>
<path d="M218.509 16.0049C219.552 15.6186 220.665 15.329 222.114 15.329V13.3495C219.85 13.3495 218.226 13.9651 216.801 14.5565C217.29 15.1238 217.861 15.6186 218.509 16.0049Z" fill="white"/>
<path d="M222.115 15.329C223.564 15.329 224.676 15.6186 225.72 16.017C226.368 15.6186 226.939 15.1238 227.43 14.5565C226.004 13.9651 224.378 13.3495 222.115 13.3495V15.329Z" fill="white"/>
<path d="M211.775 15.7514C210.909 15.6669 210.082 15.329 209.271 14.8341C208.889 15.3773 208.456 15.8842 207.929 16.3066L207.908 16.3187C209.052 17.0791 210.266 17.5981 211.587 17.7188C212.554 17.8154 213.387 17.7188 214.165 17.5619C213.644 17.0095 213.18 16.4071 212.777 15.7635C212.457 15.7756 212.132 15.7876 211.775 15.7514Z" fill="white"/>
<path d="M32.2177 16.0049C33.2622 15.6186 34.3743 15.329 35.8241 15.329V13.3495C33.5589 13.3495 31.9354 13.9651 30.5098 14.5565C30.9995 15.1238 31.57 15.6186 32.2177 16.0049Z" fill="white"/>
<path d="M171.938 16.0049C172.983 15.6186 174.095 15.329 175.545 15.329V13.3495C173.28 13.3495 171.656 13.9651 170.23 14.5565C170.721 15.1238 171.291 15.6186 171.938 16.0049Z" fill="white"/>
<path d="M194.162 12.2149C193.713 11.7321 193.265 11.2372 192.827 10.7423C190.561 13.2891 188.368 15.522 185.883 15.7514C185.526 15.7876 185.204 15.7755 184.883 15.7634C184.48 16.4065 184.016 17.0088 183.496 17.5619C184.273 17.7188 185.105 17.8153 186.071 17.7188C189.216 17.417 191.753 14.9065 194.162 12.2149Z" fill="white"/>
<path d="M176.53 17.924V16.3911C176.214 16.3549 175.899 16.3186 175.543 16.3186H174.556V17.924C172.794 17.7061 171.156 16.9064 169.9 15.6515C168.644 14.3966 167.842 12.7582 167.621 10.9958H174.556V12.3597H175.543C175.897 12.3597 176.202 12.408 176.53 12.4321V10.9958H183.464C183.244 12.7582 182.442 14.3966 181.186 15.6515C179.93 16.9064 178.292 17.7061 176.53 17.924ZM184.359 5.28667C183.691 5.3953 183.055 5.61256 182.39 5.8781C182.958 6.81956 183.345 7.88172 183.493 9.0163H176.53V2.03984C177.491 2.17261 178.395 2.47436 179.223 2.90888C179.531 2.78818 179.839 2.65541 180.157 2.52264C180.584 2.34159 181.027 2.14847 181.493 1.97949C179.777 0.692378 177.689 -0.00225865 175.543 5.51752e-06C173.312 5.51752e-06 171.257 0.736276 169.592 1.97949C170.06 2.16054 170.505 2.34159 170.934 2.52264C171.25 2.65541 171.555 2.78818 171.861 2.90888C172.702 2.46548 173.614 2.17144 174.556 2.03984V9.0163H167.594C167.74 7.90517 168.116 6.83656 168.696 5.8781C168.033 5.61256 167.396 5.3953 166.728 5.28667C165.952 6.73871 165.547 8.35969 165.547 10.006C165.547 15.522 170.03 20 175.543 20C181.056 20 185.54 15.522 185.54 10.006C185.54 8.30417 185.111 6.69886 184.359 5.28667Z" fill="white"/>
<path d="M208.957 6.57812C208.437 6.97644 207.917 7.44717 207.396 7.96618C207.611 8.56968 207.744 9.2456 207.744 10.006C207.744 11.7199 207.154 13.1321 206.084 13.9891C205.096 14.7737 203.782 15.0271 202.384 14.7012C202.048 14.6158 201.719 14.5069 201.398 14.3753C200.863 14.8702 200.313 15.3289 199.742 15.7513C200.442 16.1376 201.169 16.4514 201.936 16.6324C203.905 17.079 205.866 16.6807 207.314 15.5341C208.864 14.3029 209.718 12.3355 209.718 10.006C209.718 8.72659 209.442 7.57994 208.957 6.57812Z" fill="white"/>
<path d="M278.028 15.7633C277.625 16.4066 277.16 17.009 276.641 17.5617C277.417 17.7187 278.25 17.8152 279.216 17.7187C279.558 17.6945 279.892 17.6221 280.222 17.5376V15.4736C279.83 15.6064 279.433 15.715 279.028 15.7512C278.672 15.7875 278.349 15.7754 278.028 15.7633Z" fill="white"/>
<path d="M240.733 12.2149C240.286 11.7321 239.837 11.2372 239.399 10.7423C237.133 13.2891 234.94 15.522 232.455 15.7514C232.098 15.7876 231.776 15.7755 231.455 15.7634C231.052 16.4065 230.588 17.0088 230.068 17.5619C230.845 17.7188 231.677 17.8153 232.643 17.7188C235.787 17.417 238.326 14.9065 240.733 12.2149Z" fill="white"/>
<path d="M279.216 2.28116C276.91 2.0639 275.27 2.76396 273.682 3.43988C272.717 3.85026 271.768 4.22443 270.662 4.45376V6.46945C272.161 6.21598 273.369 5.72111 274.458 5.25038C275.941 4.62274 277.222 4.07959 279.028 4.24857C279.433 4.28478 279.83 4.39341 280.221 4.52618V2.45014C279.889 2.37507 279.554 2.31865 279.216 2.28116Z" fill="white"/>
<path d="M268.689 15.329C270.138 15.329 271.251 15.6186 272.295 16.017C272.942 15.6186 273.513 15.1238 274.003 14.5565C272.578 13.9651 270.953 13.3495 268.689 13.3495V15.329Z" fill="white"/>
<path d="M269.677 17.924V16.3911C269.361 16.3549 269.046 16.3186 268.69 16.3186H267.702V17.924C265.941 17.7061 264.302 16.9064 263.046 15.6515C261.79 14.3966 260.988 12.7582 260.768 10.9958H267.702V12.3597H268.69C269.043 12.3597 269.35 12.408 269.677 12.4321V10.9958H276.612C276.391 12.7582 275.589 14.3965 274.333 15.6514C273.077 16.9062 271.438 17.706 269.677 17.924ZM277.505 5.28667C276.838 5.3953 276.202 5.61256 275.536 5.8781C276.104 6.81956 276.491 7.88172 276.638 9.0163H269.677V2.03984C270.638 2.17261 271.541 2.47436 272.37 2.90888C272.677 2.78818 272.985 2.65541 273.303 2.52264C273.73 2.34159 274.174 2.14847 274.64 1.97949C272.923 0.692378 270.835 -0.00225865 268.69 5.51752e-06C266.459 5.51752e-06 264.403 0.736276 262.739 1.97949C263.207 2.16054 263.652 2.34159 264.08 2.52264C264.396 2.65541 264.701 2.78818 265.008 2.90888C265.849 2.46548 266.76 2.17144 267.702 2.03984V9.0163H260.74C260.887 7.90517 261.262 6.83656 261.843 5.8781C261.178 5.61256 260.542 5.3953 259.874 5.28667C259.099 6.73871 258.693 8.35969 258.693 10.006C258.693 15.522 263.177 20 268.69 20C274.202 20 278.687 15.522 278.687 10.006C278.687 8.30417 278.257 6.69886 277.505 5.28667Z" fill="white"/>
<path d="M248.745 12.2149C248.645 12.1062 248.543 11.9855 248.443 11.8769C248.105 11.4907 247.764 11.1165 247.422 10.7423C245.66 12.6132 243.828 14.2426 241.846 14.7013C241.106 14.8703 240.392 14.8703 239.733 14.7254C239.195 15.2686 238.642 15.7755 238.072 16.2462C239.331 16.8256 240.809 16.9704 242.294 16.6325C244.739 16.0531 246.807 14.2668 248.745 12.2149Z" fill="white"/>
<path d="M265.083 16.0049C266.127 15.6186 267.24 15.329 268.689 15.329V13.3495C266.424 13.3495 264.801 13.9651 263.375 14.5565C263.865 15.1238 264.435 15.6186 265.083 16.0049Z" fill="white"/>
<path d="M255.531 6.57812C255.011 6.97644 254.492 7.44717 253.97 7.96618C254.185 8.56968 254.317 9.2456 254.317 10.006C254.317 11.7199 253.726 13.1321 252.658 13.9891C251.67 14.7737 250.354 15.0271 248.957 14.7012C248.621 14.6158 248.292 14.5069 247.972 14.3753C247.436 14.8702 246.886 15.3289 246.314 15.7513C247.015 16.1376 247.743 16.4514 248.51 16.6324C250.478 17.079 252.439 16.6807 253.888 15.5341C255.438 14.3029 256.292 12.3355 256.292 10.006C256.292 8.72659 256.014 7.57994 255.531 6.57812Z" fill="white"/>
<path d="M258.347 15.7514C257.481 15.6669 256.654 15.329 255.843 14.8341C255.461 15.3773 255.027 15.8842 254.501 16.3066L254.48 16.3187C255.624 17.0791 256.838 17.5981 258.159 17.7188C259.127 17.8154 259.959 17.7188 260.737 17.5619C260.217 17.0095 259.752 16.4071 259.35 15.7635C259.016 15.7834 258.681 15.7794 258.347 15.7514Z" fill="white"/>
<path d="M175.543 15.329C176.992 15.329 178.105 15.6186 179.148 16.017C179.796 15.6186 180.366 15.1238 180.856 14.5565C179.432 13.9651 177.807 13.3495 175.543 13.3495V15.329Z" fill="white"/>
<path d="M72.0544 15.7514C71.1884 15.6669 70.361 15.329 69.5505 14.8341C69.1681 15.3773 68.7351 15.8842 68.208 16.3066L68.1875 16.3187C69.3309 17.0791 70.5455 17.5981 71.8663 17.7188C72.8336 17.8154 73.6658 17.7188 74.4438 17.5619C73.9236 17.0095 73.459 16.4071 73.0567 15.7635C72.7228 15.7834 72.3878 15.7794 72.0544 15.7514Z" fill="white"/>
<path d="M69.2365 6.57812C68.7166 6.97644 68.198 7.44717 67.6757 7.96618C67.8916 8.56968 68.0231 9.2456 68.0231 10.006C68.0231 11.7199 67.4333 13.1321 66.3634 13.9891C65.3756 14.7737 64.0597 15.0271 62.663 14.7012C62.3273 14.6158 61.998 14.5069 61.6775 14.3753C61.142 14.8702 60.592 15.3289 60.0215 15.7513C60.7211 16.1376 61.4484 16.4514 62.2155 16.6324C64.1839 17.079 66.1439 16.6807 67.5937 15.5341C69.1436 14.3029 69.9976 12.3355 69.9976 10.006C69.9976 8.72659 69.7214 7.57994 69.2365 6.57812Z" fill="white"/>
<path d="M78.7899 16.0049C79.8333 15.6186 80.9465 15.329 82.3951 15.329V13.3495C80.1324 13.3495 78.5077 13.9651 77.082 14.5565C77.5717 15.1238 78.1422 15.6186 78.7899 16.0049Z" fill="white"/>
<path d="M82.3965 15.329C83.8451 15.329 84.9583 15.6186 86.0017 16.017C86.6494 15.6186 87.2199 15.1238 87.7096 14.5565C86.2851 13.9651 84.6592 13.3495 82.3965 13.3495V15.329Z" fill="white"/>
<path d="M36.8116 17.924V16.3911C36.4944 16.3549 36.1795 16.3186 35.8237 16.3186H34.8359V17.924C33.0744 17.7061 31.4359 16.9064 30.1799 15.6515C28.9239 14.3966 28.1222 12.7582 27.9017 10.9958H34.8359V12.3597H35.8237C36.1771 12.3597 36.4835 12.408 36.8116 12.4321V10.9958H43.7457C43.5249 12.758 42.723 14.3962 41.4671 15.651C40.2112 16.9059 38.5729 17.7057 36.8116 17.924ZM44.6383 5.28667C43.9713 5.3953 43.3356 5.61256 42.6698 5.8781C43.2379 6.81956 43.6251 7.88172 43.7735 9.0163H36.8116V2.03984C37.7717 2.17261 38.6751 2.47436 39.5037 2.90888C39.8113 2.78818 40.1188 2.65541 40.4373 2.52264C40.8642 2.34159 41.3081 2.14847 41.7737 1.97949C40.0569 0.692378 37.9689 -0.00225865 35.8237 5.51752e-06C33.5924 5.51752e-06 31.5371 0.736276 29.8726 1.97949C30.3406 2.16054 30.7856 2.34159 31.2138 2.52264C31.5298 2.65541 31.8362 2.78818 32.1414 2.90888C32.9826 2.46548 33.8943 2.17144 34.8359 2.03984V9.0163H27.874C28.0205 7.90517 28.3959 6.83656 28.9764 5.8781C28.3118 5.61256 27.6762 5.3953 27.008 5.28667C26.2326 6.73871 25.827 8.35969 25.8271 10.006C25.8271 15.522 30.3104 20 35.8237 20C41.337 20 45.8203 15.522 45.8203 10.006C45.8203 8.30417 45.3909 6.69886 44.6383 5.28667Z" fill="white"/>
<path d="M83.3836 17.924V16.3911C83.0676 16.3549 82.7528 16.3186 82.397 16.3186H81.4091V17.924C79.6477 17.7059 78.0093 16.9061 76.7534 15.6513C75.4974 14.3964 74.6956 12.7581 74.475 10.9958H81.4091V12.3597H82.397C82.7504 12.3597 83.0555 12.408 83.3836 12.4321V10.9958H90.3178C90.0973 12.7582 89.2956 14.3966 88.0396 15.6515C86.7836 16.9064 85.1451 17.7061 83.3836 17.924ZM91.2127 5.28667C90.5445 5.3953 89.9089 5.61256 89.2443 5.8781C89.8112 6.81956 90.1984 7.88172 90.3467 9.0163H83.3836V2.03984C84.3449 2.17261 85.2483 2.47436 86.0769 2.90888C86.3845 2.78818 86.6921 2.65541 87.0105 2.52264C87.4375 2.34159 87.8801 2.14847 88.3469 1.97949C86.6301 0.692378 84.5422 -0.00225865 82.397 5.51752e-06C80.1656 5.51752e-06 78.1103 0.736276 76.4458 1.97949C76.9138 2.16054 77.3589 2.34159 77.7871 2.52264C78.1031 2.65541 78.4094 2.78818 78.7146 2.90888C79.5558 2.46548 80.4675 2.17144 81.4091 2.03984V9.0163H74.4472C74.5938 7.90517 74.9692 6.83656 75.5497 5.8781C74.8851 5.61256 74.2494 5.3953 73.5812 5.28667C72.8058 6.73871 72.4003 8.35969 72.4004 10.006C72.4004 15.522 76.8837 20 82.397 20C87.9091 20 92.3936 15.522 92.3936 10.006C92.3936 8.30417 91.9642 6.69886 91.2127 5.28667Z" fill="white"/>
<path d="M35.8242 15.329C37.2728 15.329 38.3861 15.6186 39.4294 16.017C40.0771 15.6186 40.6476 15.1238 41.1373 14.5565C39.7128 13.9651 38.0882 13.3495 35.8242 13.3495V15.329Z" fill="white"/>
<path d="M62.4525 12.2149C62.3524 12.1062 62.2499 11.9855 62.1498 11.8769C61.8121 11.4907 61.4707 11.1165 61.1294 10.7423C59.3672 12.6132 57.535 14.2426 55.5533 14.7013C54.8116 14.8703 54.0987 14.8703 53.4402 14.7254C52.901 15.2686 52.3486 15.7755 51.7793 16.2462C53.0385 16.8256 54.5161 16.9704 56.0008 16.6325C58.4457 16.0531 60.5142 14.2668 62.4525 12.2149Z" fill="white"/>
<path d="M54.4414 12.2149C53.9927 11.7321 53.5452 11.2372 53.1062 10.7423C50.8398 13.2891 48.647 15.522 46.1624 15.7514C45.8065 15.7876 45.4833 15.7755 45.1625 15.7634C44.7598 16.4067 44.2952 17.0091 43.7754 17.5619C44.5522 17.7188 45.3844 17.8153 46.3505 17.7188C49.4938 17.417 52.0327 14.9065 54.4414 12.2149Z" fill="white"/>
<path d="M129.957 17.924V16.3911C129.64 16.3549 129.325 16.3186 128.969 16.3186H127.981V17.924C126.22 17.7061 124.581 16.9064 123.325 15.6515C122.069 14.3966 121.268 12.7582 121.047 10.9958H127.981V12.3597H128.969C129.323 12.3597 129.629 12.408 129.957 12.4321V10.9958H136.891C136.67 12.758 135.869 14.3962 134.613 15.651C133.357 16.9059 131.718 17.7057 129.957 17.924ZM137.784 5.28667C137.117 5.3953 136.48 5.61256 135.817 5.8781C136.383 6.81956 136.771 7.88172 136.919 9.0163H129.957V2.03984C130.917 2.17261 131.821 2.47436 132.649 2.90888C132.957 2.78818 133.264 2.65541 133.583 2.52264C134.01 2.34159 134.454 2.14847 134.919 1.97949C133.202 0.692378 131.114 -0.00225865 128.969 5.51752e-06C126.738 5.51752e-06 124.684 0.736276 123.018 1.97949C123.486 2.16054 123.931 2.34159 124.359 2.52264C124.675 2.65541 124.982 2.78818 125.288 2.90888C126.129 2.46531 127.04 2.17126 127.981 2.03984V9.0163H121.019C121.167 7.88172 121.554 6.81956 122.122 5.8781C121.457 5.61256 120.822 5.3953 120.153 5.28667C119.378 6.73871 118.973 8.35969 118.973 10.006C118.973 15.522 123.456 20 128.969 20C134.483 20 138.966 15.522 138.966 10.006C138.966 8.30417 138.536 6.69886 137.784 5.28667Z" fill="white"/>
<path d="M162.385 6.57812C161.865 6.97644 161.346 7.44717 160.824 7.96618C161.04 8.56968 161.172 9.2456 161.172 10.006C161.172 11.7199 160.581 13.1321 159.512 13.9891C158.524 14.7737 157.208 15.0271 155.811 14.7012C155.476 14.6158 155.146 14.5069 154.826 14.3753C154.29 14.8702 153.74 15.3289 153.17 15.7513C153.869 16.1376 154.597 16.4514 155.364 16.6324C157.332 17.079 159.292 16.6807 160.742 15.5341C162.292 14.3029 163.146 12.3355 163.146 10.006C163.146 8.72659 162.869 7.57994 162.385 6.57812Z" fill="white"/>
<path d="M147.588 12.2149C147.139 11.7321 146.69 11.2372 146.253 10.7423C143.985 13.2891 141.794 15.522 139.309 15.7514C138.953 15.7876 138.63 15.7755 138.309 15.7634C137.906 16.4067 137.442 17.0091 136.922 17.5619C137.7 17.7188 138.531 17.8153 139.497 17.7188C142.64 17.417 145.179 14.9065 147.588 12.2149Z" fill="white"/>
<path d="M128.973 15.329C130.421 15.329 131.533 15.6186 132.578 16.017C133.226 15.6186 133.796 15.1238 134.287 14.5565C132.861 13.9651 131.237 13.3495 128.973 13.3495V15.329Z" fill="white"/>
<path d="M155.601 12.2149C155.501 12.1062 155.398 11.9855 155.298 11.8769C154.961 11.4907 154.618 11.1165 154.278 10.7423C152.516 12.6132 150.683 14.2426 148.702 14.7013C147.96 14.8703 147.247 14.8703 146.589 14.7254C146.049 15.2686 145.497 15.7755 144.928 16.2462C146.187 16.8256 147.664 16.9704 149.149 16.6325C151.594 16.0531 153.663 14.2668 155.601 12.2149Z" fill="white"/>
<path d="M118.63 15.7514C117.763 15.6669 116.935 15.329 116.125 14.8341C115.742 15.3773 115.309 15.8842 114.783 16.3066L114.762 16.3187C115.905 17.0791 117.12 17.5981 118.44 17.7188C119.408 17.8154 120.24 17.7188 121.018 17.5619C120.498 17.0095 120.033 16.4071 119.631 15.7635C119.31 15.7756 118.986 15.7876 118.63 15.7514Z" fill="white"/>
<path d="M109.027 12.2149C108.927 12.1062 108.824 11.9855 108.724 11.8769C108.386 11.4907 108.045 11.1165 107.702 10.7423C105.941 12.6132 104.109 14.2426 102.128 14.7013C101.387 14.8703 100.673 14.8703 100.014 14.7254C99.4764 15.2686 98.9228 15.7755 98.3535 16.2462C99.6127 16.8256 101.09 16.9704 102.575 16.6325C105.02 16.0531 107.088 14.2668 109.027 12.2149Z" fill="white"/>
<path d="M115.814 6.57812C115.294 6.97644 114.774 7.44717 114.253 7.96618C114.468 8.56968 114.6 9.2456 114.6 10.006C114.6 11.7199 114.011 13.1321 112.941 13.9891C111.953 14.7737 110.638 15.0271 109.24 14.7012C108.905 14.6158 108.575 14.5069 108.255 14.3753C107.719 14.8702 107.169 15.3289 106.598 15.7513C107.298 16.1376 108.026 16.4514 108.793 16.6324C110.761 17.079 112.722 16.6807 114.171 15.5341C115.721 14.3029 116.575 12.3355 116.575 10.006C116.575 8.72659 116.298 7.57994 115.814 6.57812Z" fill="white"/>
<path d="M125.364 16.0049C126.407 15.6186 127.521 15.329 128.971 15.329V13.3495C126.705 13.3495 125.082 13.9651 123.656 14.5565C124.146 15.1238 124.716 15.6186 125.364 16.0049Z" fill="white"/>
<path d="M101.014 12.2149C100.564 11.7321 100.116 11.2372 99.6784 10.7423C97.4121 13.2891 95.2193 15.522 92.7346 15.7514C92.3776 15.7876 92.0556 15.7755 91.7347 15.7634C91.3321 16.4067 90.8675 17.0091 90.3477 17.5619C91.1244 17.7188 91.9567 17.8153 92.9228 17.7188C96.066 17.417 98.6038 14.9065 101.014 12.2149Z" fill="white"/>
</svg>
