<svg width="126" height="605" viewBox="0 0 126 605" fill="none" xmlns="http://www.w3.org/2000/svg">
<g clip-path="url(#clip0_37_378)">
<g clip-path="url(#clip1_37_378)">
<mask id="mask0_37_378" style="mask-type:luminance" maskUnits="userSpaceOnUse" x="0" y="213" width="126" height="481">
<path d="M125.61 213H0V693.459H125.61V213Z" fill="white"/>
</mask>
<g mask="url(#mask0_37_378)">
<path d="M90.31 276.268C90.73 274.451 90.98 272.511 90.98 270.298C90.98 265.232 89.48 260.392 86.68 256.212C89.46 252.04 90.96 247.2 90.96 242.153C90.96 237.096 89.46 232.256 86.67 228.076C89.46 223.895 90.96 219.064 90.96 213.998C90.96 208.941 89.46 204.101 86.67 199.921C89.46 195.74 90.96 190.9 90.96 185.843C90.96 183.659 90.71 181.709 90.31 179.873C97.79 173.075 102.46 163.555 102.46 153.018C102.46 142.472 97.79 132.942 90.3 126.144C90.71 124.326 90.97 122.396 90.97 120.192C90.97 115.136 89.47 110.296 86.68 106.115C89.47 101.934 90.97 97.1036 90.97 92.047C90.97 86.9904 89.47 82.1505 86.67 77.9696C92.37 69.4007 92.37 58.4024 86.67 49.8336C89.46 45.6527 90.97 40.8127 90.97 35.7467C90.97 33.5621 90.72 31.6129 90.32 29.7767C97.8 22.9781 102.47 13.4582 102.47 2.92134C102.47 -7.62497 97.8 -17.1543 90.31 -23.9529C90.72 -25.7703 90.98 -27.7006 90.98 -29.904C90.98 -36.9851 88.05 -43.6425 82.73 -48.652L62.8 -67.3999L42.89 -48.652C37.57 -43.6425 34.64 -36.9851 34.64 -29.904C34.64 -27.7006 34.9 -25.7608 35.31 -23.9529C27.82 -17.1543 23.14 -7.62497 23.14 2.92134C23.14 13.4582 27.81 22.9876 35.29 29.7862C34.88 31.6223 34.64 33.5715 34.64 35.7561C34.64 40.8127 36.14 45.6527 38.93 49.8336C36.14 54.0144 34.64 58.8544 34.64 63.911C34.64 68.9676 36.14 73.8076 38.93 77.9884C36.14 82.1693 34.64 86.9999 34.64 92.0659C34.64 97.1224 36.14 101.962 38.93 106.143C36.14 110.324 34.64 115.164 34.64 120.221C34.64 122.424 34.9 124.364 35.31 126.172C27.82 132.97 23.14 142.5 23.14 153.046C23.14 163.583 27.81 173.112 35.29 179.902C34.88 181.738 34.64 183.687 34.64 185.871C34.64 190.928 36.14 195.768 38.93 199.949C36.14 204.13 34.64 208.97 34.64 214.026C34.64 219.083 36.14 223.923 38.94 228.104C33.24 236.682 33.24 247.68 38.95 256.249C36.16 260.43 34.66 265.261 34.66 270.317C34.66 272.521 34.92 274.451 35.33 276.259C27.83 283.058 23.15 292.596 23.15 303.143C23.15 313.689 27.82 323.218 35.31 330.017C34.91 331.853 34.66 333.793 34.66 335.968C34.66 341.025 36.16 345.855 38.94 350.027C36.14 354.207 34.64 359.047 34.64 364.113C34.64 369.17 36.14 374.01 38.93 378.191C36.14 382.372 34.64 387.202 34.64 392.268C34.64 397.325 36.14 402.165 38.93 406.346C36.14 410.527 34.64 415.367 34.64 420.423C34.64 422.627 34.9 424.557 35.31 426.374C27.82 433.173 23.14 442.702 23.14 453.248C23.14 463.785 27.81 473.315 35.29 480.113C34.88 481.95 34.64 483.899 34.64 486.083C34.64 491.14 36.14 495.98 38.93 500.161C36.14 504.342 34.64 509.182 34.64 514.238C34.64 519.295 36.14 524.135 38.94 528.316C33.24 536.894 33.24 547.892 38.95 556.461C36.16 560.642 34.66 565.472 34.66 570.529C34.66 572.732 34.92 574.663 35.33 576.471C27.83 583.269 23.15 592.808 23.15 603.354C23.15 613.901 27.82 623.43 35.31 630.229C34.91 632.065 34.66 634.005 34.66 636.18C34.66 641.236 36.16 646.067 38.94 650.238C36.14 654.419 34.64 659.259 34.64 664.325C34.64 669.382 36.14 674.222 38.93 678.403C36.14 682.584 34.64 687.414 34.64 692.48C34.64 697.537 36.14 702.377 38.93 706.558C36.14 710.738 34.64 715.578 34.64 720.635C34.64 722.838 34.9 724.769 35.31 726.586C27.82 733.385 23.15 742.914 23.15 753.46C23.15 763.997 27.82 773.527 35.3 780.325C34.89 782.161 34.65 784.111 34.65 786.295C34.65 791.352 36.15 796.192 38.94 800.373C36.15 804.553 34.65 809.393 34.65 814.45C34.65 819.507 36.15 824.347 38.95 828.527C33.25 837.106 33.25 848.104 38.96 856.673C36.17 860.854 34.67 865.684 34.67 870.741C34.67 872.944 34.93 874.875 35.34 876.683C27.84 883.481 23.16 893.02 23.16 903.566C23.16 914.113 27.83 923.642 35.32 930.44C34.92 932.277 34.67 934.216 34.67 936.392C34.67 943.473 37.6 950.13 42.92 955.14L62.83 973.897L82.74 955.149C88.06 950.14 90.99 943.482 90.99 936.401C90.99 934.207 90.74 932.267 90.33 930.422C97.8 923.623 102.46 914.103 102.46 903.576C102.46 893.039 97.79 883.509 90.31 876.711C90.73 874.893 90.98 872.954 90.98 870.741C90.98 865.675 89.48 860.835 86.68 856.654C89.46 852.483 90.96 847.643 90.96 842.595C90.96 837.539 89.46 832.699 86.67 828.518C89.46 824.337 90.96 819.507 90.96 814.441C90.96 809.384 89.46 804.544 86.67 800.363C89.46 796.182 90.96 791.342 90.96 786.286C90.96 784.101 90.71 782.152 90.31 780.316C97.79 773.517 102.46 763.997 102.46 753.46C102.46 742.914 97.79 733.385 90.3 726.586C90.71 724.769 90.97 722.838 90.97 720.635C90.97 715.578 89.47 710.738 86.68 706.558C89.47 702.377 90.97 697.546 90.97 692.49C90.97 687.433 89.47 682.593 86.67 678.412C92.37 669.843 92.37 658.864 86.68 650.295C89.48 646.114 90.99 641.265 90.99 636.199C90.99 634.005 90.74 632.065 90.33 630.219C97.8 623.421 102.46 613.901 102.46 603.373C102.46 592.836 97.79 583.307 90.31 576.518C90.73 574.7 90.98 572.761 90.98 570.548C90.98 565.482 89.48 560.642 86.68 556.461C89.46 552.29 90.96 547.45 90.96 542.402C90.96 537.346 89.46 532.506 86.67 528.325C89.46 524.144 90.96 519.314 90.96 514.248C90.96 509.191 89.46 504.351 86.67 500.17C89.46 495.989 90.96 491.149 90.96 486.093C90.96 483.908 90.71 481.959 90.31 480.123C97.79 473.324 102.46 463.804 102.46 453.267C102.46 442.721 97.79 433.192 90.3 426.393C90.71 424.576 90.97 422.645 90.97 420.442C90.97 415.385 89.47 410.545 86.68 406.365C89.47 402.184 90.97 397.353 90.97 392.297C90.97 387.24 89.47 382.4 86.67 378.219C92.37 369.65 92.37 358.671 86.68 350.102C89.48 345.921 90.99 341.072 90.99 336.006C90.99 333.812 90.74 331.872 90.33 330.026C97.8 323.228 102.46 313.708 102.46 303.18C102.46 292.587 97.8 283.058 90.31 276.268Z" fill="#60269E"/>
</g>
<mask id="mask1_37_378" style="mask-type:luminance" maskUnits="userSpaceOnUse" x="0" y="213" width="126" height="484">
<path d="M125.61 213H0V697H125.61V213Z" fill="white"/>
</mask>
<g mask="url(#mask1_37_378)">
<path d="M59.9701 506.583L55.1901 502.082C54.3501 502.59 53.5501 503.183 52.8301 503.871C52.1001 504.558 51.4701 505.302 50.9401 506.093L55.7201 510.594L59.9701 506.583Z" fill="white"/>
<path d="M59.9701 534.728L54.9501 530.001L52.8201 532.007C52.1001 532.685 51.4701 533.438 50.9301 534.229L55.7101 538.73L59.9701 534.728Z" fill="white"/>
<path d="M52.8201 560.162C52.3601 560.595 51.9501 561.066 51.5601 561.546C54.9901 563.25 58.8201 564.154 62.8001 564.154C66.7801 564.154 70.6101 563.25 74.0401 561.546C73.6501 561.066 73.2501 560.604 72.7801 560.162L69.6601 557.224C67.5101 558.053 65.1901 558.486 62.8001 558.486C60.4101 558.486 58.0901 558.053 55.9401 557.224L52.8201 560.162Z" fill="white"/>
<path d="M75.62 529.342C80.93 534.342 82.25 541.696 79.58 547.864L82.71 550.811C83.18 551.254 83.61 551.725 84.05 552.195C85.97 548.843 86.94 545.124 86.94 541.414C86.94 535.594 84.59 529.766 79.88 525.331L69.9 515.933L65.64 519.944L75.62 529.342Z" fill="white"/>
<path d="M82.7201 503.862L79.5901 506.809C80.4701 508.833 80.9301 511.018 80.9301 513.269C80.9301 515.519 80.4701 517.704 79.5901 519.728L82.7101 522.666C83.1901 523.118 83.6201 523.589 84.0601 524.06C85.9401 520.783 86.9501 517.092 86.9501 513.259C86.9501 509.427 85.9501 505.745 84.0601 502.468C83.6301 502.939 83.2001 503.419 82.7201 503.862Z" fill="white"/>
<path d="M46.0201 519.719C45.1401 517.694 44.6801 515.51 44.6801 513.259C44.6801 508.702 46.5701 504.417 49.9901 501.187C53.4101 497.967 57.9701 496.187 62.8101 496.187C65.2001 496.187 67.5201 496.62 69.6701 497.449L72.8001 494.502C73.2601 494.069 73.6701 493.598 74.0601 493.127C70.6301 491.423 66.8001 490.519 62.8201 490.519C56.3701 490.519 50.3101 492.882 45.7501 497.176C41.1901 501.47 38.6801 507.176 38.6801 513.259C38.6801 517.091 39.6901 520.783 41.5701 524.06C42.0101 523.589 42.4401 523.109 42.9101 522.657L46.0201 519.719Z" fill="white"/>
<path d="M59.9701 356.477L55.1901 351.976C54.3501 352.484 53.5501 353.078 52.8301 353.765C52.1001 354.452 51.4701 355.196 50.9401 355.987L55.7201 360.488L59.9701 356.477Z" fill="white"/>
<path d="M59.9701 356.477L55.1901 351.976C54.3501 352.484 53.5501 353.078 52.8301 353.765C52.1001 354.452 51.4701 355.196 50.9401 355.987L55.7201 360.488L59.9701 356.477Z" fill="white"/>
<path d="M74.0601 561.536C73.6701 561.056 73.2601 560.595 72.8001 560.162L69.6701 557.214C65.2901 558.89 60.3501 558.89 55.9601 557.214L52.8301 560.162C52.3701 560.595 51.9601 561.056 51.5701 561.536C58.6001 565.002 67.0501 565.002 74.0601 561.536Z" fill="white"/>
<path d="M52.8201 410.056C52.3601 410.489 51.9501 410.96 51.5601 411.44C54.9901 413.145 58.8201 414.049 62.8001 414.049C66.7801 414.049 70.6101 413.145 74.0401 411.44C73.6501 410.96 73.2501 410.499 72.7801 410.056L69.6601 407.118C67.5101 407.947 65.1901 408.38 62.8001 408.38C60.4101 408.38 58.0901 407.947 55.9401 407.118L52.8201 410.056Z" fill="white"/>
<path d="M75.62 379.236C80.93 384.236 82.25 391.591 79.58 397.758L82.71 400.706C83.18 401.148 83.61 401.619 84.05 402.09C85.97 398.738 86.94 395.018 86.94 391.308C86.94 385.489 84.59 379.66 79.88 375.225L69.9 365.827L65.64 369.839L75.62 379.236Z" fill="white"/>
<path d="M82.7201 353.765L79.5901 356.712C80.4701 358.737 80.9301 360.921 80.9301 363.172C80.9301 365.422 80.4701 367.607 79.5901 369.631L82.7101 372.569C83.1901 373.021 83.6201 373.492 84.0601 373.963C85.9401 370.686 86.9501 366.995 86.9501 363.162C86.9501 359.33 85.9501 355.648 84.0601 352.371C83.6301 352.842 83.2001 353.313 82.7201 353.765Z" fill="white"/>
<path d="M46.0201 369.613C45.1401 367.588 44.6801 365.404 44.6801 363.153C44.6801 358.596 46.5701 354.311 49.9901 351.081C53.4101 347.861 57.9701 346.081 62.8101 346.081C65.2001 346.081 67.5201 346.514 69.6701 347.343L72.8001 344.396C73.2601 343.963 73.6701 343.492 74.0601 343.021C70.6301 341.317 66.8001 340.413 62.8201 340.413C56.3701 340.413 50.3101 342.776 45.7501 347.07C41.1901 351.364 38.6801 357.07 38.6801 363.153C38.6801 366.986 39.6901 370.677 41.5701 373.954C42.0101 373.483 42.4401 373.003 42.9101 372.551L46.0201 369.613Z" fill="white"/>
<path d="M50.9301 384.133L55.7101 388.634L59.9701 384.623L54.9601 379.896L52.8301 381.901C52.1001 382.598 51.4701 383.342 50.9301 384.133Z" fill="white"/>
<path d="M65.64 397.984L75.63 407.382C78.96 410.527 80.83 414.67 80.92 419.096C82.97 420.094 84.91 421.261 86.73 422.57C86.86 421.582 86.95 420.565 86.95 419.454C86.95 413.38 84.44 407.674 79.88 403.37L69.9 393.973L65.64 397.984Z" fill="white"/>
<path d="M80.9201 485.462C80.8201 489.888 78.9601 494.04 75.6301 497.176L45.7301 525.321C38.0201 532.581 36.6301 543.58 41.5601 552.186C41.9901 551.715 42.4201 551.245 42.8901 550.793L46.0201 547.845C45.1301 545.783 44.6801 543.589 44.6801 541.395C44.6801 537.026 46.4501 532.647 49.9801 529.323L79.8801 501.178C84.4401 496.884 86.9501 491.178 86.9501 485.104C86.9501 484.002 86.8601 482.976 86.7301 481.987C84.9101 483.296 82.9701 484.464 80.9201 485.462Z" fill="white"/>
<path d="M38.88 481.997C38.75 482.986 38.66 484.012 38.66 485.114C38.66 488.946 39.66 492.628 41.55 495.914C41.99 495.443 42.42 494.963 42.9 494.521C43.93 493.551 45.03 492.703 46.18 491.903C45.26 489.897 44.75 487.722 44.7 485.471C42.64 484.473 40.7 483.306 38.88 481.997Z" fill="white"/>
<path d="M62.81 387.306L45.73 403.38C41.17 407.673 38.66 413.38 38.66 419.463C38.66 420.574 38.75 421.591 38.88 422.58C40.7 421.271 42.64 420.103 44.69 419.114C44.79 414.689 46.65 410.536 49.98 407.4L62.8 395.329L65.89 392.419L67.06 391.317L74.68 384.142C74.14 383.351 73.52 382.607 72.79 381.92L70.66 379.914L62.81 387.306Z" fill="white"/>
<path d="M80.9201 335.365C80.8201 339.791 78.9601 343.944 75.6301 347.079L45.7301 375.225C38.0201 382.485 36.6301 393.483 41.5601 402.089C41.9901 401.619 42.4201 401.148 42.8901 400.696L46.0201 397.749C45.1301 395.686 44.6801 393.492 44.6801 391.298C44.6801 386.929 46.4501 382.551 49.9801 379.227L79.8801 351.081C84.4401 346.787 86.9501 341.081 86.9501 335.007C86.9501 333.906 86.8601 332.879 86.7301 331.891C84.9101 333.199 82.9701 334.367 80.9201 335.365Z" fill="white"/>
<path d="M38.88 331.891C38.75 332.879 38.66 333.906 38.66 335.007C38.66 338.84 39.66 342.522 41.55 345.808C41.99 345.337 42.42 344.857 42.9 344.414C43.93 343.444 45.03 342.597 46.18 341.797C45.26 339.791 44.75 337.616 44.7 335.365C42.64 334.367 40.7 333.199 38.88 331.891Z" fill="white"/>
<path d="M65.64 548.09L75.63 557.487C78.96 560.633 80.83 564.776 80.92 569.201C82.97 570.2 84.91 571.367 86.73 572.676C86.86 571.687 86.95 570.67 86.95 569.559C86.95 563.486 84.44 557.779 79.88 553.476L69.9 544.079L65.64 548.09Z" fill="white"/>
<path d="M62.81 537.403L45.73 553.476C41.17 557.77 38.66 563.476 38.66 569.559C38.66 570.671 38.75 571.687 38.88 572.676C40.7 571.367 42.64 570.2 44.69 569.211C44.79 564.785 46.65 560.633 49.98 557.497L62.8 545.425L65.89 542.516L67.06 541.414L74.68 534.239C74.14 533.448 73.52 532.704 72.79 532.016L70.66 530.011L62.81 537.403Z" fill="white"/>
<path d="M27.16 452.288C27.16 470.791 43.15 485.848 62.8 485.848C82.45 485.848 98.44 470.791 98.44 452.288C98.44 433.785 82.45 418.728 62.8 418.728C43.15 418.728 27.16 433.776 27.16 452.288ZM33.33 455.122H41.88C42 453.23 42.01 451.346 41.89 449.454H33.32C34.73 436.327 45.85 425.866 59.78 424.538V449.454H55.99C56.08 451.346 56.07 453.23 55.97 455.122H59.78V480.038C45.86 478.71 34.75 468.239 33.33 455.122ZM92.28 449.454H83.71C83.6 451.346 83.6 453.23 83.72 455.122H92.27C90.86 468.249 79.74 478.71 65.81 480.038V455.122H69.62C69.57 454.134 69.54 453.145 69.54 452.147C69.54 451.243 69.56 450.348 69.6 449.454H65.81V424.538C79.75 425.866 90.87 436.327 92.28 449.454Z" fill="white"/>
<path d="M73.5601 452.147C73.5601 458.861 74.8001 465.584 77.2901 471.978L77.3401 472.109C79.1601 470.923 80.8001 469.52 82.2401 467.938C78.7801 457.721 78.7601 446.751 82.1701 436.534C80.7301 434.962 79.0801 433.559 77.2601 432.382C74.7901 438.766 73.5601 445.452 73.5601 452.147Z" fill="white"/>
<path d="M48.33 471.987C53.3 459.219 53.3 445.16 48.36 432.391C46.53 433.568 44.89 434.971 43.45 436.544C46.87 446.761 46.84 457.74 43.38 467.947C44.82 469.529 46.46 470.932 48.28 472.119L48.33 471.987Z" fill="white"/>
<path d="M27.16 302.182C27.16 320.685 43.15 335.742 62.8 335.742C82.45 335.742 98.44 320.685 98.44 302.182C98.44 283.679 82.45 268.622 62.8 268.622C43.15 268.622 27.16 283.679 27.16 302.182ZM33.33 305.016H41.88C42 303.124 42.01 301.241 41.89 299.348H33.32C34.73 286.221 45.85 275.76 59.78 274.432V299.348H55.99C56.08 301.241 56.07 303.124 55.97 305.016H59.78V329.932C45.86 328.604 34.75 318.143 33.33 305.016ZM92.28 299.348H83.71C83.6 301.241 83.6 303.124 83.72 305.016H92.27C90.86 318.143 79.74 328.604 65.81 329.932V305.016H69.62C69.57 304.028 69.54 303.039 69.54 302.041C69.54 301.137 69.56 300.242 69.6 299.348H65.81V274.432C79.75 275.76 90.87 286.221 92.28 299.348Z" fill="white"/>
<path d="M73.5601 302.05C73.5601 308.764 74.8001 315.488 77.2901 321.881L77.3401 322.022C79.1601 320.836 80.8001 319.433 82.2401 317.851C78.7801 307.634 78.7601 296.664 82.1701 286.448C80.7301 284.875 79.0801 283.472 77.2601 282.295C74.7901 288.66 73.5601 295.355 73.5601 302.05Z" fill="white"/>
<path d="M48.33 321.881C53.3 309.113 53.3 295.054 48.36 282.286C46.53 283.463 44.89 284.866 43.45 286.438C46.87 296.655 46.84 307.634 43.38 317.842C44.82 319.424 46.46 320.827 48.28 322.013L48.33 321.881Z" fill="white"/>
<path d="M27.16 602.385C27.16 620.888 43.15 635.945 62.8 635.945C82.45 635.945 98.44 620.888 98.44 602.385C98.44 583.882 82.45 568.825 62.8 568.825C43.15 568.825 27.16 583.882 27.16 602.385ZM33.33 605.219H41.88C42 603.326 42.01 601.443 41.89 599.55H33.32C34.73 586.424 45.85 575.963 59.78 574.635V599.55H55.99C56.08 601.443 56.07 603.326 55.97 605.219H59.78V630.135C45.86 628.807 34.75 618.345 33.33 605.219ZM92.28 599.55H83.71C83.6 601.443 83.6 603.326 83.72 605.219H92.27C90.86 618.345 79.74 628.807 65.81 630.135V605.219H69.62C69.57 604.23 69.54 603.242 69.54 602.244C69.54 601.34 69.56 600.445 69.6 599.55H65.81V574.635C79.75 575.963 90.87 586.424 92.28 599.55Z" fill="white"/>
<path d="M73.5601 602.253C73.5601 608.967 74.8001 615.69 77.2901 622.084L77.3401 622.225C79.1601 621.038 80.8001 619.635 82.2401 618.053C78.7801 607.837 78.7601 596.867 82.1701 586.65C80.7301 585.077 79.0801 583.674 77.2601 582.497C74.7901 588.863 73.5601 595.558 73.5601 602.253Z" fill="white"/>
<path d="M48.33 622.084C53.3 609.315 53.3 595.257 48.36 582.488C46.53 583.665 44.89 585.068 43.45 586.641C46.87 596.857 46.84 607.837 43.38 618.044C44.82 619.626 46.46 621.029 48.28 622.216L48.33 622.084Z" fill="white"/>
</g>
</g>
<g clip-path="url(#clip2_37_378)">
<mask id="mask2_37_378" style="mask-type:luminance" maskUnits="userSpaceOnUse" x="0" y="-87" width="126" height="481">
<path d="M125.61 -87H0V393.459H125.61V-87Z" fill="white"/>
</mask>
<g mask="url(#mask2_37_378)">
<path d="M90.31 -23.7317C90.73 -25.549 90.98 -27.4888 90.98 -29.7016C90.98 -34.7676 89.48 -39.6076 86.68 -43.7885C89.46 -47.9599 90.96 -52.7999 90.96 -57.8471C90.96 -62.9036 89.46 -67.7436 86.67 -71.9245C89.46 -76.1053 90.96 -80.9359 90.96 -86.0019C90.96 -91.0585 89.46 -95.8985 86.67 -100.079C89.46 -104.26 90.96 -109.1 90.96 -114.157C90.96 -116.341 90.71 -118.291 90.31 -120.127C97.79 -126.925 102.46 -136.445 102.46 -146.982C102.46 -157.528 97.79 -167.058 90.3 -173.856C90.71 -175.674 90.97 -177.604 90.97 -179.808C90.97 -184.864 89.47 -189.704 86.68 -193.885C89.47 -198.066 90.97 -202.896 90.97 -207.953C90.97 -213.01 89.47 -217.85 86.67 -222.03C92.37 -230.599 92.37 -241.598 86.67 -250.166C89.46 -254.347 90.97 -259.187 90.97 -264.253C90.97 -266.438 90.72 -268.387 90.32 -270.223C97.8 -277.022 102.47 -286.542 102.47 -297.079C102.47 -307.625 97.8 -317.154 90.31 -323.953C90.72 -325.77 90.98 -327.701 90.98 -329.904C90.98 -336.985 88.05 -343.642 82.73 -348.652L62.8 -367.4L42.89 -348.652C37.57 -343.642 34.64 -336.985 34.64 -329.904C34.64 -327.701 34.9 -325.761 35.31 -323.953C27.82 -317.154 23.14 -307.625 23.14 -297.079C23.14 -286.542 27.81 -277.012 35.29 -270.214C34.88 -268.378 34.64 -266.428 34.64 -264.244C34.64 -259.187 36.14 -254.347 38.93 -250.166C36.14 -245.986 34.64 -241.146 34.64 -236.089C34.64 -231.032 36.14 -226.192 38.93 -222.012C36.14 -217.831 34.64 -213 34.64 -207.934C34.64 -202.878 36.14 -198.038 38.93 -193.857C36.14 -189.676 34.64 -184.836 34.64 -179.779C34.64 -177.576 34.9 -175.636 35.31 -173.828C27.82 -167.03 23.14 -157.5 23.14 -146.954C23.14 -136.417 27.81 -126.888 35.29 -120.098C34.88 -118.262 34.64 -116.313 34.64 -114.129C34.64 -109.072 36.14 -104.232 38.93 -100.051C36.14 -95.8702 34.64 -91.0303 34.64 -85.9737C34.64 -80.9171 36.14 -76.0771 38.94 -71.8962C33.24 -63.318 33.24 -52.3197 38.95 -43.7508C36.16 -39.57 34.66 -34.7394 34.66 -29.6828C34.66 -27.4794 34.92 -25.549 35.33 -23.7411C27.83 -16.9425 23.15 -7.40371 23.15 3.1426C23.15 13.6889 27.82 23.2182 35.31 30.0168C34.91 31.853 34.66 33.7928 34.66 35.968C34.66 41.0245 36.16 45.8551 38.94 50.0265C36.14 54.2074 34.64 59.0474 34.64 64.1134C34.64 69.17 36.14 74.01 38.93 78.1908C36.14 82.3717 34.64 87.2023 34.64 92.2683C34.64 97.3248 36.14 102.165 38.93 106.346C36.14 110.527 34.64 115.367 34.64 120.423C34.64 122.627 34.9 124.557 35.31 126.374C27.82 133.173 23.14 142.702 23.14 153.248C23.14 163.785 27.81 173.315 35.29 180.113C34.88 181.95 34.64 183.899 34.64 186.083C34.64 191.14 36.14 195.98 38.93 200.161C36.14 204.342 34.64 209.182 34.64 214.238C34.64 219.295 36.14 224.135 38.94 228.316C33.24 236.894 33.24 247.892 38.95 256.461C36.16 260.642 34.66 265.472 34.66 270.529C34.66 272.732 34.92 274.663 35.33 276.471C27.83 283.269 23.15 292.808 23.15 303.354C23.15 313.901 27.82 323.43 35.31 330.229C34.91 332.065 34.66 334.005 34.66 336.18C34.66 341.236 36.16 346.067 38.94 350.238C36.14 354.419 34.64 359.259 34.64 364.325C34.64 369.382 36.14 374.222 38.93 378.403C36.14 382.584 34.64 387.414 34.64 392.48C34.64 397.537 36.14 402.377 38.93 406.558C36.14 410.738 34.64 415.578 34.64 420.635C34.64 422.838 34.9 424.769 35.31 426.586C27.82 433.385 23.15 442.914 23.15 453.46C23.15 463.997 27.82 473.527 35.3 480.325C34.89 482.161 34.65 484.111 34.65 486.295C34.65 491.352 36.15 496.192 38.94 500.373C36.15 504.553 34.65 509.393 34.65 514.45C34.65 519.507 36.15 524.347 38.95 528.527C33.25 537.106 33.25 548.104 38.96 556.673C36.17 560.854 34.67 565.684 34.67 570.741C34.67 572.944 34.93 574.875 35.34 576.683C27.84 583.481 23.16 593.02 23.16 603.566C23.16 614.113 27.83 623.642 35.32 630.44C34.92 632.277 34.67 634.216 34.67 636.392C34.67 643.473 37.6 650.13 42.92 655.14L62.83 673.897L82.74 655.149C88.06 650.14 90.99 643.482 90.99 636.401C90.99 634.207 90.74 632.267 90.33 630.422C97.8 623.623 102.46 614.103 102.46 603.576C102.46 593.039 97.79 583.509 90.31 576.711C90.73 574.893 90.98 572.954 90.98 570.741C90.98 565.675 89.48 560.835 86.68 556.654C89.46 552.483 90.96 547.643 90.96 542.595C90.96 537.539 89.46 532.699 86.67 528.518C89.46 524.337 90.96 519.507 90.96 514.441C90.96 509.384 89.46 504.544 86.67 500.363C89.46 496.182 90.96 491.342 90.96 486.286C90.96 484.101 90.71 482.152 90.31 480.316C97.79 473.517 102.46 463.997 102.46 453.46C102.46 442.914 97.79 433.385 90.3 426.586C90.71 424.769 90.97 422.838 90.97 420.635C90.97 415.578 89.47 410.738 86.68 406.558C89.47 402.377 90.97 397.546 90.97 392.49C90.97 387.433 89.47 382.593 86.67 378.412C92.37 369.843 92.37 358.864 86.68 350.295C89.48 346.114 90.99 341.265 90.99 336.199C90.99 334.005 90.74 332.065 90.33 330.219C97.8 323.421 102.46 313.901 102.46 303.373C102.46 292.836 97.79 283.307 90.31 276.518C90.73 274.7 90.98 272.761 90.98 270.548C90.98 265.482 89.48 260.642 86.68 256.461C89.46 252.29 90.96 247.45 90.96 242.402C90.96 237.346 89.46 232.506 86.67 228.325C89.46 224.144 90.96 219.314 90.96 214.248C90.96 209.191 89.46 204.351 86.67 200.17C89.46 195.989 90.96 191.149 90.96 186.093C90.96 183.908 90.71 181.959 90.31 180.123C97.79 173.324 102.46 163.804 102.46 153.267C102.46 142.721 97.79 133.192 90.3 126.393C90.71 124.576 90.97 122.645 90.97 120.442C90.97 115.385 89.47 110.545 86.68 106.365C89.47 102.184 90.97 97.3531 90.97 92.2965C90.97 87.2399 89.47 82.3999 86.67 78.2191C92.37 69.6502 92.37 58.6708 86.68 50.1019C89.48 45.921 90.99 41.0716 90.99 36.0056C90.99 33.8116 90.74 31.8718 90.33 30.0262C97.8 23.2276 102.46 13.7077 102.46 3.18024C102.46 -7.41314 97.8 -16.9425 90.31 -23.7317Z" fill="#60269E"/>
</g>
<mask id="mask3_37_378" style="mask-type:luminance" maskUnits="userSpaceOnUse" x="0" y="-87" width="126" height="484">
<path d="M125.61 -87H0V397H125.61V-87Z" fill="white"/>
</mask>
<g mask="url(#mask3_37_378)">
<path d="M59.9701 206.583L55.1901 202.082C54.3501 202.59 53.5501 203.183 52.8301 203.871C52.1001 204.558 51.4701 205.302 50.9401 206.093L55.7201 210.594L59.9701 206.583Z" fill="white"/>
<path d="M59.9701 234.728L54.9501 230.001L52.8201 232.007C52.1001 232.685 51.4701 233.438 50.9301 234.229L55.7101 238.73L59.9701 234.728Z" fill="white"/>
<path d="M52.8201 260.162C52.3601 260.595 51.9501 261.066 51.5601 261.546C54.9901 263.25 58.8201 264.154 62.8001 264.154C66.7801 264.154 70.6101 263.25 74.0401 261.546C73.6501 261.066 73.2501 260.604 72.7801 260.162L69.6601 257.224C67.5101 258.053 65.1901 258.486 62.8001 258.486C60.4101 258.486 58.0901 258.053 55.9401 257.224L52.8201 260.162Z" fill="white"/>
<path d="M75.62 229.342C80.93 234.342 82.25 241.696 79.58 247.864L82.71 250.811C83.18 251.254 83.61 251.725 84.05 252.195C85.97 248.843 86.94 245.124 86.94 241.414C86.94 235.594 84.59 229.766 79.88 225.331L69.9 215.933L65.64 219.944L75.62 229.342Z" fill="white"/>
<path d="M82.7201 203.862L79.5901 206.809C80.4701 208.833 80.9301 211.018 80.9301 213.269C80.9301 215.519 80.4701 217.704 79.5901 219.728L82.7101 222.666C83.1901 223.118 83.6201 223.589 84.0601 224.06C85.9401 220.783 86.9501 217.092 86.9501 213.259C86.9501 209.427 85.9501 205.745 84.0601 202.468C83.6301 202.939 83.2001 203.419 82.7201 203.862Z" fill="white"/>
<path d="M46.0201 219.719C45.1401 217.694 44.6801 215.51 44.6801 213.259C44.6801 208.702 46.5701 204.417 49.9901 201.187C53.4101 197.967 57.9701 196.187 62.8101 196.187C65.2001 196.187 67.5201 196.62 69.6701 197.449L72.8001 194.502C73.2601 194.069 73.6701 193.598 74.0601 193.127C70.6301 191.423 66.8001 190.519 62.8201 190.519C56.3701 190.519 50.3101 192.882 45.7501 197.176C41.1901 201.47 38.6801 207.176 38.6801 213.259C38.6801 217.091 39.6901 220.783 41.5701 224.06C42.0101 223.589 42.4401 223.109 42.9101 222.657L46.0201 219.719Z" fill="white"/>
<path d="M59.9701 56.4768L55.1901 51.9758C54.3501 52.4843 53.5501 53.0776 52.8301 53.7649C52.1001 54.4523 51.4701 55.1962 50.9401 55.9872L55.7201 60.4882L59.9701 56.4768Z" fill="white"/>
<path d="M59.9701 56.4768L55.1901 51.9758C54.3501 52.4843 53.5501 53.0776 52.8301 53.7649C52.1001 54.4523 51.4701 55.1962 50.9401 55.9872L55.7201 60.4882L59.9701 56.4768Z" fill="white"/>
<path d="M74.0601 261.536C73.6701 261.056 73.2601 260.595 72.8001 260.162L69.6701 257.214C65.2901 258.89 60.3501 258.89 55.9601 257.214L52.8301 260.162C52.3701 260.595 51.9601 261.056 51.5701 261.536C58.6001 265.002 67.0501 265.002 74.0601 261.536Z" fill="white"/>
<path d="M52.8201 110.056C52.3601 110.489 51.9501 110.96 51.5601 111.44C54.9901 113.145 58.8201 114.049 62.8001 114.049C66.7801 114.049 70.6101 113.145 74.0401 111.44C73.6501 110.96 73.2501 110.499 72.7801 110.056L69.6601 107.118C67.5101 107.947 65.1901 108.38 62.8001 108.38C60.4101 108.38 58.0901 107.947 55.9401 107.118L52.8201 110.056Z" fill="white"/>
<path d="M75.62 79.2363C80.93 84.2363 82.25 91.5905 79.58 97.7582L82.71 100.706C83.18 101.148 83.61 101.619 84.05 102.09C85.97 98.7375 86.94 95.0181 86.94 91.308C86.94 85.4887 84.59 79.66 79.88 75.2249L69.9 65.8274L65.64 69.8387L75.62 79.2363Z" fill="white"/>
<path d="M82.7201 53.765L79.5901 56.7123C80.4701 58.7368 80.9301 60.9214 80.9301 63.1719C80.9301 65.4224 80.4701 67.607 79.5901 69.6315L82.7101 72.5694C83.1901 73.0214 83.6201 73.4922 84.0601 73.963C85.9401 70.6861 86.9501 66.9949 86.9501 63.1625C86.9501 59.33 85.9501 55.6482 84.0601 52.3713C83.6301 52.8422 83.2001 53.313 82.7201 53.765Z" fill="white"/>
<path d="M46.0201 69.6127C45.1401 67.5882 44.6801 65.4036 44.6801 63.1531C44.6801 58.5956 46.5701 54.3111 49.9901 51.0813C53.4101 47.8609 57.9701 46.0812 62.8101 46.0812C65.2001 46.0812 67.5201 46.5144 69.6701 47.343L72.8001 44.3957C73.2601 43.9626 73.6701 43.4917 74.0601 43.0209C70.6301 41.3166 66.8001 40.4126 62.8201 40.4126C56.3701 40.4126 50.3101 42.7761 45.7501 47.07C41.1901 51.3638 38.6801 57.0701 38.6801 63.1531C38.6801 66.9855 39.6901 70.6767 41.5701 73.9536C42.0101 73.4828 42.4401 73.0026 42.9101 72.5506L46.0201 69.6127Z" fill="white"/>
<path d="M50.9301 84.1329L55.7101 88.6339L59.9701 84.6225L54.9601 79.8955L52.8301 81.9012C52.1001 82.598 51.4701 83.3419 50.9301 84.1329Z" fill="white"/>
<path d="M65.64 97.9843L75.63 107.382C78.96 110.527 80.83 114.67 80.92 119.096C82.97 120.094 84.91 121.261 86.73 122.57C86.86 121.582 86.95 120.565 86.95 119.454C86.95 113.38 84.44 107.674 79.88 103.37L69.9 93.9729L65.64 97.9843Z" fill="white"/>
<path d="M80.9201 185.462C80.8201 189.888 78.9601 194.04 75.6301 197.176L45.7301 225.321C38.0201 232.581 36.6301 243.58 41.5601 252.186C41.9901 251.715 42.4201 251.245 42.8901 250.793L46.0201 247.845C45.1301 245.783 44.6801 243.589 44.6801 241.395C44.6801 237.026 46.4501 232.647 49.9801 229.323L79.8801 201.178C84.4401 196.884 86.9501 191.178 86.9501 185.104C86.9501 184.002 86.8601 182.976 86.7301 181.987C84.9101 183.296 82.9701 184.464 80.9201 185.462Z" fill="white"/>
<path d="M38.88 181.997C38.75 182.986 38.66 184.012 38.66 185.114C38.66 188.946 39.66 192.628 41.55 195.914C41.99 195.443 42.42 194.963 42.9 194.521C43.93 193.551 45.03 192.703 46.18 191.903C45.26 189.897 44.75 187.722 44.7 185.471C42.64 184.473 40.7 183.306 38.88 181.997Z" fill="white"/>
<path d="M62.81 87.3059L45.73 103.38C41.17 107.673 38.66 113.38 38.66 119.463C38.66 120.574 38.75 121.591 38.88 122.58C40.7 121.271 42.64 120.103 44.69 119.114C44.79 114.689 46.65 110.536 49.98 107.4L62.8 95.3286L65.89 92.419L67.06 91.3173L74.68 84.142C74.14 83.351 73.52 82.6071 72.79 81.9197L70.66 79.9141L62.81 87.3059Z" fill="white"/>
<path d="M80.9201 35.3653C80.8201 39.7909 78.9601 43.9435 75.6301 47.0792L45.7301 75.2246C38.0201 82.4846 36.6301 93.4829 41.5601 102.089C41.9901 101.619 42.4201 101.148 42.8901 100.696L46.0201 97.7485C45.1301 95.6863 44.6801 93.4923 44.6801 91.2983C44.6801 86.9292 46.4501 82.5505 49.9801 79.2266L79.8801 51.0811C84.4401 46.7873 86.9501 41.081 86.9501 35.0074C86.9501 33.9057 86.8601 32.8793 86.7301 31.8906C84.9101 33.1995 82.9701 34.3671 80.9201 35.3653Z" fill="white"/>
<path d="M38.88 31.8906C38.75 32.8793 38.66 33.9057 38.66 35.0074C38.66 38.8399 39.66 42.5217 41.55 45.808C41.99 45.3372 42.42 44.8569 42.9 44.4144C43.93 43.4445 45.03 42.597 46.18 41.7966C45.26 39.7909 44.75 37.6158 44.7 35.3653C42.64 34.3671 40.7 33.1995 38.88 31.8906Z" fill="white"/>
<path d="M65.64 248.09L75.63 257.487C78.96 260.633 80.83 264.776 80.92 269.201C82.97 270.2 84.91 271.367 86.73 272.676C86.86 271.687 86.95 270.67 86.95 269.559C86.95 263.486 84.44 257.779 79.88 253.476L69.9 244.079L65.64 248.09Z" fill="white"/>
<path d="M62.81 237.403L45.73 253.476C41.17 257.77 38.66 263.476 38.66 269.559C38.66 270.671 38.75 271.687 38.88 272.676C40.7 271.367 42.64 270.2 44.69 269.211C44.79 264.785 46.65 260.633 49.98 257.497L62.8 245.425L65.89 242.516L67.06 241.414L74.68 234.239C74.14 233.448 73.52 232.704 72.79 232.016L70.66 230.011L62.81 237.403Z" fill="white"/>
<path d="M27.16 152.288C27.16 170.791 43.15 185.848 62.8 185.848C82.45 185.848 98.44 170.791 98.44 152.288C98.44 133.785 82.45 118.728 62.8 118.728C43.15 118.728 27.16 133.776 27.16 152.288ZM33.33 155.122H41.88C42 153.23 42.01 151.346 41.89 149.454H33.32C34.73 136.327 45.85 125.866 59.78 124.538V149.454H55.99C56.08 151.346 56.07 153.23 55.97 155.122H59.78V180.038C45.86 178.71 34.75 168.239 33.33 155.122ZM92.28 149.454H83.71C83.6 151.346 83.6 153.23 83.72 155.122H92.27C90.86 168.249 79.74 178.71 65.81 180.038V155.122H69.62C69.57 154.134 69.54 153.145 69.54 152.147C69.54 151.243 69.56 150.348 69.6 149.454H65.81V124.538C79.75 125.866 90.87 136.327 92.28 149.454Z" fill="white"/>
<path d="M73.5601 152.147C73.5601 158.861 74.8001 165.584 77.2901 171.978L77.3401 172.109C79.1601 170.923 80.8001 169.52 82.2401 167.938C78.7801 157.721 78.7601 146.751 82.1701 136.534C80.7301 134.962 79.0801 133.559 77.2601 132.382C74.7901 138.766 73.5601 145.452 73.5601 152.147Z" fill="white"/>
<path d="M48.33 171.987C53.3 159.219 53.3 145.16 48.36 132.391C46.53 133.568 44.89 134.971 43.45 136.544C46.87 146.761 46.84 157.74 43.38 167.947C44.82 169.529 46.46 170.932 48.28 172.119L48.33 171.987Z" fill="white"/>
<path d="M27.16 2.18216C27.16 20.6853 43.15 35.742 62.8 35.742C82.45 35.742 98.44 20.6853 98.44 2.18216C98.44 -16.321 82.45 -31.3777 62.8 -31.3777C43.15 -31.3777 27.16 -16.321 27.16 2.18216ZM33.33 5.01648H41.88C42 3.1238 42.01 1.24052 41.89 -0.652161H33.32C34.73 -13.7785 45.85 -24.2401 59.78 -25.5678V-0.652161H55.99C56.08 1.24052 56.07 3.1238 55.97 5.01648H59.78V29.9321C45.86 28.6044 34.75 18.1429 33.33 5.01648ZM92.28 -0.652161H83.71C83.6 1.24052 83.6 3.1238 83.72 5.01648H92.27C90.86 18.1429 79.74 28.6044 65.81 29.9321V5.01648H69.62C69.57 4.02777 69.54 3.03905 69.54 2.04091C69.54 1.13694 69.56 0.242392 69.6 -0.652161H65.81V-25.5678C79.75 -24.2401 90.87 -13.7785 92.28 -0.652161Z" fill="white"/>
<path d="M73.5601 2.05041C73.5601 8.76426 74.8001 15.4875 77.2901 21.8812L77.3401 22.0225C79.1601 20.836 80.8001 19.433 82.2401 17.851C78.7801 7.6343 78.7601 -3.33574 82.1701 -13.5525C80.7301 -15.125 79.0801 -16.528 77.2601 -17.7051C74.7901 -11.3396 73.5601 -4.64461 73.5601 2.05041Z" fill="white"/>
<path d="M48.33 21.8814C53.3 9.1128 53.3 -4.94579 48.36 -17.7144C46.53 -16.5373 44.89 -15.1343 43.45 -13.5618C46.87 -3.34502 46.84 7.63443 43.38 17.8417C44.82 19.4237 46.46 20.8267 48.28 22.0132L48.33 21.8814Z" fill="white"/>
<path d="M27.16 302.385C27.16 320.888 43.15 335.945 62.8 335.945C82.45 335.945 98.44 320.888 98.44 302.385C98.44 283.882 82.45 268.825 62.8 268.825C43.15 268.825 27.16 283.882 27.16 302.385ZM33.33 305.219H41.88C42 303.326 42.01 301.443 41.89 299.55H33.32C34.73 286.424 45.85 275.963 59.78 274.635V299.55H55.99C56.08 301.443 56.07 303.326 55.97 305.219H59.78V330.135C45.86 328.807 34.75 318.345 33.33 305.219ZM92.28 299.55H83.71C83.6 301.443 83.6 303.326 83.72 305.219H92.27C90.86 318.345 79.74 328.807 65.81 330.135V305.219H69.62C69.57 304.23 69.54 303.242 69.54 302.244C69.54 301.34 69.56 300.445 69.6 299.55H65.81V274.635C79.75 275.963 90.87 286.424 92.28 299.55Z" fill="white"/>
<path d="M73.5601 302.253C73.5601 308.967 74.8001 315.69 77.2901 322.084L77.3401 322.225C79.1601 321.038 80.8001 319.635 82.2401 318.053C78.7801 307.837 78.7601 296.867 82.1701 286.65C80.7301 285.077 79.0801 283.674 77.2601 282.497C74.7901 288.863 73.5601 295.558 73.5601 302.253Z" fill="white"/>
<path d="M48.33 322.084C53.3 309.315 53.3 295.257 48.36 282.488C46.53 283.665 44.89 285.068 43.45 286.641C46.87 296.857 46.84 307.837 43.38 318.044C44.82 319.626 46.46 321.029 48.28 322.216L48.33 322.084Z" fill="white"/>
</g>
</g>
</g>
<defs>
<clipPath id="clip0_37_378">
<rect width="126" height="605" fill="white"/>
</clipPath>
<clipPath id="clip1_37_378">
<rect width="126" height="305" fill="white" transform="translate(0 300)"/>
</clipPath>
<clipPath id="clip2_37_378">
<rect width="126" height="305" fill="white"/>
</clipPath>
</defs>
</svg>
