<svg width="270" height="46" viewBox="0 0 270 46" fill="none" xmlns="http://www.w3.org/2000/svg">
<g clip-path="url(#clip0_1040_954)">
<path d="M18.024 28.0975C16.995 26.9767 15.9703 25.8529 14.9669 24.712C10.0638 30.2263 5.30587 35.0572 0 36.0451V40.6601C6.96395 39.748 12.6399 34.1265 18.024 28.0975ZM124.689 28.0975C123.662 26.9767 122.637 25.8529 121.632 24.712C116.44 30.5523 111.419 35.682 105.729 36.2281C104.912 36.3068 104.173 36.2767 103.439 36.2367C102.525 37.7255 101.46 39.1154 100.262 40.3842C102.043 40.7559 103.947 40.9661 106.159 40.7531C113.36 40.0611 119.173 34.2752 124.689 28.0975ZM82.0488 35.2545C85.3664 35.2545 87.9154 35.9293 90.3065 36.8186C91.7798 35.923 93.1008 34.7959 94.219 33.4803C90.9555 32.1006 87.2337 30.7067 82.0488 30.7067V35.2545ZM36.3739 28.0918C36.1434 27.8302 35.9085 27.5728 35.6794 27.3126C34.9055 26.4341 34.126 25.5606 33.341 24.692C29.3075 29.0125 25.1104 32.7469 20.5716 33.8034C18.9832 34.1872 17.3291 34.2058 15.7326 33.8577C14.522 35.0833 13.2519 36.248 11.9268 37.3476C14.8103 38.6915 18.1962 39.0232 21.5964 38.2325C27.1954 36.9272 31.9334 32.8155 36.3739 28.0918ZM73.7897 36.8172C76.1807 35.9293 78.7298 35.2545 82.0488 35.2545V30.7067C76.8639 30.7067 73.1435 32.1006 69.8786 33.4788C70.9959 34.7948 72.3164 35.922 73.7897 36.8172ZM143.039 28.0918C142.809 27.8302 142.574 27.5728 142.345 27.3126C141.571 26.4345 140.792 25.5609 140.008 24.692C135.973 29.0125 131.777 32.7469 127.238 33.8034C125.649 34.1872 123.995 34.2058 122.398 33.8577C121.187 35.083 119.918 36.2476 118.594 37.3476C121.477 38.6915 124.862 39.0232 128.262 38.2325C133.862 36.9272 138.599 32.8155 143.039 28.0918ZM51.9101 15.1403C50.6538 16.1225 49.4602 17.183 48.3363 18.3156C48.8302 19.7225 49.1319 21.2794 49.1319 23.0021C49.1319 26.9524 47.7798 30.202 45.3304 32.1564C43.0689 33.9649 40.0559 34.5497 36.8564 33.8034C36.0835 33.6209 35.3281 33.3703 34.5991 33.0542C33.3968 34.184 32.1298 35.2423 30.8048 36.2238C32.4088 37.1174 34.074 37.8237 35.8317 38.2325C40.3405 39.2805 44.8295 38.3655 48.1485 35.7163C51.6995 32.8798 53.655 28.3649 53.655 23.0021C53.655 20.0699 53.0202 17.4292 51.9101 15.1403ZM58.3645 36.2281C56.3819 36.038 54.4862 35.2445 52.6303 34.1065C51.7535 35.3675 50.7615 36.5341 49.5561 37.4963L49.5077 37.5277C52.1264 39.2705 54.9089 40.4628 57.9347 40.7531C60.1479 40.9675 62.055 40.7559 63.8355 40.3842C62.6376 39.1154 61.5735 37.7255 60.6602 36.2367C59.923 36.2767 59.1829 36.3068 58.3645 36.2281ZM84.3103 41.2234V37.6878C83.5859 37.6092 82.8643 37.5277 82.0488 37.5277H79.7873V41.2234C75.7512 40.7179 71.9981 38.875 69.1216 35.9863C66.2452 33.0977 64.4096 29.3281 63.9052 25.2739H79.7873V28.4335H82.0488C82.8586 28.4335 83.5589 28.5407 84.3103 28.5993V25.2739H100.191C99.6871 29.3281 97.8519 33.0977 94.9756 35.9865C92.0994 38.8752 88.3463 40.718 84.3103 41.2234ZM102.239 12.1766C100.709 12.4196 99.253 12.9 97.7301 13.5262C99.0608 15.7238 99.9207 18.1759 100.255 20.7261H84.3103V4.69936C86.5107 4.99388 88.5786 5.70586 90.4787 6.70235C91.1818 6.41927 91.8863 6.12333 92.615 5.81166C93.6257 5.37151 94.6465 4.95488 95.6764 4.56211C91.8635 1.7099 87.1568 0 82.0488 0C76.9393 0 72.2327 1.7099 68.4198 4.56211C69.4901 4.96528 70.5105 5.39705 71.4911 5.81737C72.2156 6.12761 72.9158 6.42213 73.6161 6.70378C75.5161 5.70586 77.5855 4.99388 79.7873 4.69936V20.7261H63.8412C64.177 18.1763 65.0368 15.7245 66.366 13.5262C64.846 12.9014 63.3886 12.4196 61.8586 12.1766C60.0807 15.5042 59.1516 19.2227 59.1544 22.9993C59.1544 35.682 69.4232 46 82.0488 46C94.6744 46 104.943 35.682 104.943 22.9993C104.943 19.0891 103.96 15.4048 102.239 12.1766ZM249.705 28.0918C249.477 27.8302 249.235 27.5728 249.007 27.3126C248.239 26.432 247.456 25.5598 246.673 24.692C242.645 29.0125 238.447 32.7469 233.906 33.8034C232.199 34.1994 230.576 34.1951 229.067 33.8577C227.829 35.1001 226.562 36.271 225.253 37.3476C228.142 38.6915 231.53 39.0232 234.931 38.2325C240.525 36.9272 245.264 32.8155 249.705 28.0918ZM265.246 15.1403C264.051 16.061 262.87 17.1219 261.674 18.3156C262.158 19.7225 262.471 21.2794 262.471 23.0021C262.471 26.9524 261.105 30.202 258.657 32.1564C256.408 33.9649 253.391 34.5497 250.188 33.8034C249.414 33.6201 248.657 33.3694 247.925 33.0542C246.701 34.1966 245.449 35.2645 244.14 36.2238C245.748 37.1174 247.413 37.8237 249.164 38.2325C253.675 39.2805 258.159 38.3655 261.475 35.7163C265.033 32.8798 266.983 28.3649 266.983 23.0021C266.983 20.0699 266.356 17.4292 265.246 15.1403ZM262.884 37.4963L262.841 37.5277C265.09 39.0232 267.467 40.074 270 40.5372V35.9064C268.619 35.539 267.282 34.9171 265.958 34.1065C265.09 35.3675 264.094 36.5341 262.884 37.4963ZM158.577 15.1403C157.32 16.1224 156.126 17.183 155.002 18.3156C155.495 19.7225 155.797 21.2794 155.797 23.0021C155.797 26.9524 154.447 30.202 151.996 32.1564C149.736 33.9649 146.723 34.5497 143.522 33.8034C142.749 33.6209 141.993 33.3703 141.264 33.0542C140.062 34.1843 138.795 35.2427 137.47 36.2238C139.075 37.1174 140.741 37.8237 142.498 38.2325C147.006 39.2805 151.496 38.3655 154.814 35.7163C158.365 32.8798 160.32 28.3649 160.32 23.0021C160.32 20.0699 159.687 17.4292 158.577 15.1403ZM231.359 28.0975C230.334 26.9767 229.295 25.8529 228.299 24.712C223.104 30.5523 218.08 35.682 212.401 36.2281C211.576 36.3068 210.836 36.2767 210.11 36.2367C209.194 37.727 208.125 39.1171 206.922 40.3842C208.715 40.7559 210.608 40.9661 212.828 40.7531C220.03 40.0611 225.837 34.2752 231.359 28.0975ZM165.031 36.2281C163.049 36.038 161.151 35.2445 159.296 34.1065C158.42 35.3675 157.427 36.5341 156.223 37.4963L156.173 37.5277C158.792 39.2705 161.574 40.4628 164.6 40.7531C166.815 40.9675 168.72 40.7559 170.501 40.3842C169.303 39.115 168.239 37.7251 167.326 36.2367C166.59 36.2767 165.848 36.3068 165.031 36.2281ZM188.718 35.2545C192.035 35.2545 194.582 35.9293 196.973 36.8186C198.446 35.9215 199.767 34.7946 200.887 33.4803C197.628 32.1006 193.899 30.7067 188.718 30.7067V35.2545ZM180.449 36.8172C182.84 35.9293 185.388 35.2545 188.718 35.2545V30.7067C183.523 30.7067 179.809 32.1006 176.55 33.4788C177.674 34.7927 178.969 35.9193 180.449 36.8172ZM190.981 41.2234V37.6878C190.255 37.6092 189.53 37.5277 188.718 37.5277H186.455V41.2234C182.419 40.7191 178.665 38.8767 175.788 35.9878C172.911 33.0989 171.075 29.3287 170.572 25.2739H186.455V28.4335H188.718C189.53 28.4335 190.227 28.5407 190.981 28.5993V25.2739H206.851C206.35 29.3275 204.517 33.0974 201.643 35.9865C198.768 38.8756 195.016 40.7185 190.981 41.2234ZM208.9 12.1766C207.377 12.4196 205.925 12.9 204.403 13.5262C205.727 15.7262 206.585 18.1774 206.922 20.7261H190.981V4.69936C193.173 4.99388 195.251 5.70586 197.144 6.70235C197.856 6.41927 198.553 6.12333 199.279 5.81166C200.261 5.39276 201.271 4.96242 202.339 4.56211C198.525 1.7099 193.828 0 188.718 0C183.609 0 178.898 1.7099 175.084 4.56211C176.151 4.96528 177.176 5.39705 178.158 5.81737C178.884 6.12761 179.581 6.42213 180.278 6.70378C182.186 5.70586 184.249 4.99388 186.455 4.69936V20.7261H170.501C170.843 18.1765 171.705 15.7254 173.034 13.5262C171.511 12.9014 170.06 12.4196 168.525 12.1766C166.747 15.5041 165.817 19.2225 165.82 22.9993C165.82 35.682 176.094 46 188.718 46C201.343 46 211.604 35.682 211.604 22.9993C211.604 19.0891 210.622 15.4048 208.9 12.1766ZM218.848 30.8525C220.03 29.939 221.225 28.861 222.421 27.6743C221.901 26.1721 221.636 24.5926 221.638 23.0021C221.638 19.0534 222.99 15.8023 225.424 13.8465C227.701 12.0408 230.704 11.456 233.906 12.2023C234.661 12.3796 235.415 12.6327 236.155 12.9515C237.393 11.8077 238.646 10.7412 239.955 9.78045C238.347 8.8869 236.682 8.18207 234.931 7.77318C230.419 6.72236 225.936 7.64022 222.62 10.2866C219.062 13.123 217.112 17.638 217.112 23.0021C217.112 25.9287 217.738 28.565 218.848 30.8525ZM193.244 10.2522V14.8901C196.674 14.304 199.435 13.1588 201.926 12.0908C205.328 10.6354 208.26 9.37728 212.401 9.77473C214.379 9.96488 216.272 10.7584 218.137 11.8978C219.005 10.6368 220.001 9.47021 221.211 8.5066L221.254 8.47658C218.635 6.7338 215.86 5.54145 212.828 5.24979C207.548 4.74082 203.791 6.35207 200.161 7.90757C197.941 8.85402 195.778 9.72612 193.244 10.2522ZM7.87483 8.5066L7.92322 8.47658C5.45388 6.83102 2.82942 5.70586 0 5.337V9.93486C1.6467 10.2508 3.23931 10.9399 4.80061 11.8978C5.67733 10.6368 6.67076 9.47021 7.87483 8.5066ZM140.867 15.6879C139.592 16.3884 138.325 17.2906 137.069 18.3543C139.448 20.616 141.764 23.218 144.041 25.8057C145.658 27.6443 147.293 29.49 148.968 31.2385C149.541 31.0084 150.107 30.7639 150.588 30.3779C151.304 29.8074 151.855 29.0368 152.317 28.1776C150.698 26.4863 149.078 24.6649 147.433 22.7948C145.294 20.3658 143.127 17.9082 140.867 15.6879ZM252.75 17.8825C253.775 19.0062 254.785 20.1485 255.796 21.2894V21.2908C260.464 16.0396 265.004 11.3946 270 10.1064V5.48426C263.396 6.69234 257.931 12.0851 252.75 17.8825ZM127.721 17.9139C127.951 18.1755 128.188 18.4315 128.42 18.6917C129.192 19.5723 129.977 20.4387 130.758 21.308C134.791 16.9889 138.984 13.2589 143.522 12.2023C145.111 11.8185 146.766 11.8 148.364 12.148C149.574 10.9224 150.844 9.75769 152.169 8.65815C149.286 7.31282 145.9 6.9797 142.498 7.77318C136.899 9.07562 132.16 13.1902 127.721 17.9139ZM228.413 14.7214C227.858 14.9545 227.317 15.2447 226.833 15.625C226.121 16.1969 225.566 16.9675 225.111 17.8267C226.733 19.5166 228.356 21.3394 229.993 23.208C232.127 25.6328 234.291 28.0832 236.539 30.2992C237.82 29.6058 239.087 28.6894 240.34 27.6357C237.977 25.3768 235.657 22.7791 233.394 20.1971C231.757 18.3442 230.106 16.4828 228.413 14.7214ZM243.741 18.3543C246.118 20.616 248.424 23.218 250.701 25.8057C252.323 27.6443 253.96 29.49 255.639 31.2385C256.209 31.0084 256.778 30.7639 257.248 30.3779C257.974 29.8074 258.514 29.0368 258.984 28.1776C257.317 26.4205 255.689 24.6258 254.102 22.7948C251.953 20.3658 249.79 17.9082 247.527 15.6879C246.26 16.3884 244.994 17.2906 243.741 18.3543ZM234.39 17.9139C234.618 18.1755 234.86 18.4315 235.088 18.6917C235.856 19.5723 236.639 20.4387 237.422 21.308C241.464 16.9889 245.648 13.2589 250.188 12.2023C251.777 11.8185 253.431 11.7999 255.027 12.148C256.266 10.9056 257.532 9.7347 258.842 8.65815C255.953 7.31282 252.565 6.9797 249.164 7.77318C243.57 9.07562 238.831 13.1902 234.39 17.9139ZM146.091 17.8825C147.115 19.0062 148.124 20.1485 149.128 21.2894L149.129 21.2908C154.318 15.4506 159.341 10.3223 165.036 9.77473C169.164 9.37728 172.095 10.6354 175.496 12.0908C177.987 13.1602 180.762 14.3054 184.192 14.8916V10.2522C181.659 9.72755 179.481 8.85545 177.275 7.90757C173.632 6.35207 169.882 4.74082 164.604 5.24979C157.413 5.94033 151.601 11.7148 146.091 17.8825ZM21.0541 17.9139C21.2861 18.1755 21.5223 18.4315 21.7529 18.6917C22.5257 19.5723 23.3099 20.4387 24.0927 21.308C28.1248 16.9889 32.3177 13.2589 36.8564 12.2023C38.4458 11.8185 40.1008 11.8 41.6983 12.148C42.9084 10.9224 44.178 9.75771 45.5026 8.65815C42.6191 7.31282 39.2332 6.9797 35.8317 7.77318C30.2326 9.07562 25.4946 13.1902 21.0541 17.9139ZM15.0836 14.7214C14.5179 14.9468 13.9865 15.251 13.5052 15.625C12.7907 16.1969 12.2414 16.9675 11.7774 17.8267C13.3985 19.5166 15.0181 21.3394 16.6648 23.208C18.7968 25.6328 20.9559 28.0832 23.2117 30.2992C24.487 29.6058 25.7551 28.6894 27.0118 27.6357C24.6393 25.3768 22.3279 22.7791 20.0564 20.1971C18.4239 18.3442 16.773 16.4828 15.0836 14.7214ZM121.749 14.7214C121.184 14.9468 120.653 15.251 120.172 15.625C119.457 16.1969 118.907 16.9675 118.444 17.8267C120.064 19.5166 121.685 21.3394 123.33 23.208C125.462 25.6328 127.621 28.0832 129.877 30.2992C131.154 29.6058 132.42 28.6894 133.679 27.6357C131.305 25.3768 128.995 22.7791 126.723 20.1971C125.091 18.3442 123.438 16.4828 121.749 14.7214ZM5.51366 30.8525C6.7035 29.939 7.89333 28.861 9.09028 27.6743C8.56422 26.1734 8.29708 24.5934 8.30038 23.0021C8.30038 19.0534 9.65104 15.8023 12.0976 13.8465C14.362 12.0408 17.3722 11.456 20.573 12.2023C21.3454 12.3852 22.1002 12.6359 22.8289 12.9515C24.0543 11.8077 25.3139 10.7412 26.6204 9.78045C25.0164 8.8869 23.3526 8.18207 21.5964 7.77318C17.0875 6.72236 12.6014 7.64022 9.28242 10.2866C5.73284 13.123 3.77588 17.638 3.77588 23.0021C3.77588 25.9287 4.4078 28.565 5.51366 30.8525ZM34.2006 15.6879C32.9254 16.3884 31.6601 17.2906 30.402 18.3543C32.7817 20.616 35.0987 23.218 37.3745 25.8057C38.9913 27.6443 40.6266 29.49 42.3032 31.2385C42.8739 31.0084 43.4404 30.7639 43.9228 30.3779C44.6373 29.8074 45.1881 29.0368 45.6507 28.1776C44.0324 26.4863 42.4113 24.6649 40.7675 22.7948C38.6284 20.3658 36.4622 17.9082 34.2006 15.6879ZM86.5733 10.2522V14.8901C90.0062 14.304 92.7701 13.1588 95.2651 12.0908C98.6638 10.6354 101.596 9.37728 105.732 9.77473C107.714 9.96488 109.61 10.7584 111.466 11.8978C112.344 10.6368 113.336 9.47021 114.542 8.5066L114.59 8.47658C111.971 6.7338 109.19 5.54145 106.163 5.24979C100.881 4.74082 97.1238 6.35207 93.4889 7.90757C91.2785 8.85402 89.1053 9.72612 86.5733 10.2522ZM112.179 30.8525C113.369 29.939 114.56 28.861 115.756 27.6743C115.23 26.1733 114.963 24.5933 114.966 23.0021C114.966 19.0534 116.318 15.8023 118.763 13.8465C121.029 12.0408 124.037 11.456 127.238 12.2023C128.011 12.3852 128.766 12.6359 129.496 12.9515C130.721 11.8077 131.981 10.7412 133.287 9.78045C131.683 8.8869 130.018 8.18207 128.262 7.77318C123.754 6.72236 119.268 7.64022 115.949 10.2866C112.398 13.123 110.443 17.638 110.443 23.0021C110.443 25.9287 111.073 28.565 112.179 30.8525ZM39.4254 17.8825C40.4487 19.0062 41.4592 20.1485 42.4626 21.2894L42.464 21.2908C47.6517 15.4506 52.6744 10.3223 58.3688 9.77473C62.4976 9.37728 65.4338 10.6354 68.8297 12.0908C71.326 13.1602 74.0914 14.3054 77.5257 14.8916V10.2522C74.9895 9.72755 72.8162 8.85545 70.6045 7.90757C66.9723 6.35207 63.2164 4.74082 57.939 5.24979C50.7459 5.94033 44.9362 11.7148 39.4254 17.8825Z" fill="#00534D"/>
</g>
<defs>
<clipPath id="clip0_1040_954">
<rect width="270" height="46" fill="white"/>
</clipPath>
</defs>
</svg>
