<svg width="270" height="20" viewBox="0 0 270 20" fill="none" xmlns="http://www.w3.org/2000/svg">
<g clip-path="url(#clip0_1040_957)">
<path d="M108.539 7.78508C108.64 7.90578 108.744 8.01441 108.844 8.12304C109.182 8.50928 109.524 8.88345 109.866 9.26969C111.627 7.38677 113.457 5.76939 115.438 5.29866C116.133 5.13417 116.855 5.12593 117.553 5.27452C118.092 4.74344 118.644 4.22443 119.213 3.76577C117.955 3.17434 116.477 3.0295 114.991 3.37953C112.547 3.94682 110.479 5.73318 108.539 7.78508Z" fill="#00534D"/>
<path d="M105.932 6.39722C105.685 6.50585 105.452 6.62655 105.243 6.79553C104.931 7.03693 104.691 7.37489 104.488 7.74906C105.196 8.48533 105.903 9.28195 106.622 10.0906C107.553 11.1407 108.496 12.215 109.481 13.1806C110.038 12.8788 110.59 12.4805 111.14 12.0218C110.104 11.0321 109.095 9.90959 108.103 8.78708C107.395 7.97633 106.671 7.17956 105.932 6.39722Z" fill="#00534D"/>
<path d="M116.561 7.77301C117.008 8.26788 117.448 8.76275 117.887 9.25762C120.154 6.72292 122.345 4.48997 124.832 4.24857C126.636 4.07959 127.916 4.62274 129.4 5.25038C130.489 5.72111 131.697 6.21598 133.197 6.46945V4.45376C132.09 4.22443 131.141 3.85026 130.174 3.43988C128.589 2.76396 126.948 2.0639 124.644 2.28116C121.505 2.58291 118.967 5.09347 116.561 7.77301Z" fill="#00534D"/>
<path d="M114.28 6.81958C113.724 7.12133 113.17 7.51964 112.621 7.9783C113.661 8.96804 114.672 10.0906 115.665 11.2251C116.371 12.0218 117.086 12.8184 117.817 13.5788C118.067 13.4822 118.314 13.3736 118.525 13.2046C118.836 12.9632 119.078 12.6253 119.279 12.2511C118.551 11.4868 117.84 10.7061 117.147 9.9095C116.213 8.85941 115.267 7.78518 114.28 6.81958Z" fill="#00534D"/>
<path d="M148.325 13.4099C148.844 13.0237 149.364 12.5529 149.886 12.0339C149.658 11.3822 149.541 10.6967 149.541 10.0062C149.541 8.28015 150.131 6.86796 151.199 6.02306C152.188 5.23851 153.502 4.98504 154.9 5.29886C155.232 5.38335 155.561 5.49198 155.885 5.62475C156.42 5.12988 156.97 4.67122 157.54 4.24877C156.841 3.86253 156.113 3.54871 155.346 3.37973C153.378 2.92107 151.419 3.31938 149.97 4.46603C148.42 5.70924 147.566 7.66458 147.566 10.0062C147.566 11.2735 147.841 12.4202 148.325 13.4099Z" fill="#00534D"/>
<path d="M137.146 4.45376V6.46945C138.646 6.21598 139.852 5.72111 140.941 5.25038C142.426 4.62274 143.706 4.07959 145.512 4.24857C146.377 4.33306 147.205 4.67102 148.015 5.16589C148.392 4.61459 148.843 4.11891 149.358 3.69335L149.379 3.68128C148.236 2.92087 147.021 2.40186 145.699 2.28116C143.393 2.0639 141.753 2.76396 140.165 3.43988C139.202 3.85026 138.253 4.22443 137.146 4.45376Z" fill="#00534D"/>
<path d="M101.752 13.4099C102.271 13.0237 102.791 12.5529 103.314 12.0339C103.085 11.3823 102.968 10.6967 102.969 10.0062C102.969 8.28015 103.558 6.86796 104.627 6.02306C105.616 5.23851 106.93 4.98504 108.326 5.29886C108.659 5.38335 108.988 5.49198 109.313 5.62475C109.847 5.12988 110.397 4.67122 110.968 4.24877C110.268 3.86253 109.541 3.54871 108.774 3.37973C106.805 2.92107 104.847 3.31938 103.398 4.46603C101.848 5.70924 100.994 7.66458 100.994 10.0062C100.994 11.2735 101.269 12.4202 101.752 13.4099Z" fill="#00534D"/>
<path d="M90.5723 4.45376V6.46945C92.0703 6.21598 93.2777 5.72111 94.3668 5.25038C95.8516 4.62274 97.1313 4.07959 98.9369 4.24857C99.8029 4.33306 100.632 4.67102 101.441 5.16589C101.817 4.61459 102.269 4.11891 102.783 3.69335L102.805 3.68128C101.662 2.92087 100.447 2.40186 99.1251 2.28116C96.8189 2.0639 95.1798 2.76396 93.5925 3.43988C92.6263 3.85026 91.6783 4.22443 90.5723 4.45376Z" fill="#00534D"/>
<path d="M55.1793 13.4099C55.6992 13.0237 56.219 12.5529 56.7413 12.0339C56.5133 11.3822 56.3967 10.6967 56.3963 10.0062C56.3963 8.28015 56.9862 6.86796 58.0548 6.02306C59.0438 5.23851 60.3573 4.98504 61.7553 5.29886C62.087 5.38335 62.415 5.49198 62.7407 5.62475C63.275 5.12988 63.825 4.67122 64.3955 4.24877C63.6948 3.86253 62.9687 3.54871 62.2015 3.37973C60.2331 2.92107 58.2743 3.31938 56.8257 4.46603C55.2758 5.70924 54.4219 7.66458 54.4219 10.0062C54.4219 11.2735 54.6969 12.4202 55.1793 13.4099Z" fill="#00534D"/>
<path d="M56.211 3.69349L56.2327 3.68142C55.1532 2.96929 54.0085 2.47441 52.7734 2.3175V4.32113C53.4923 4.4539 54.187 4.75565 54.8685 5.16603C55.2449 4.61473 55.6968 4.11904 56.211 3.69349Z" fill="#00534D"/>
<path d="M60.6424 12.2149C60.1937 11.7321 59.7462 11.2372 59.3072 10.7423C57.1674 13.1442 55.0892 15.2444 52.7734 15.6789V17.6826C55.8129 17.2843 58.2916 14.834 60.6424 12.2149Z" fill="#00534D"/>
<path d="M68.653 12.2149C68.5516 12.1062 68.4491 11.9855 68.349 11.8769C68.0113 11.4907 67.6699 11.1165 67.3286 10.7423C65.5676 12.6132 63.7355 14.2426 61.7538 14.7013C61.012 14.8703 60.298 14.8703 59.6406 14.7254C59.1014 15.2686 58.5478 15.7755 57.9785 16.2462C59.2377 16.8256 60.7153 16.9704 62.2 16.6325C64.6461 16.0531 66.7135 14.2668 68.653 12.2149Z" fill="#00534D"/>
<path d="M69.9844 7.77301C70.4319 8.26788 70.8733 8.76275 71.3111 9.25762C73.5775 6.72292 75.7703 4.48997 78.2561 4.24857C80.0593 4.07959 81.3403 4.62274 82.8238 5.25038C83.9142 5.72111 85.1204 6.21598 86.6208 6.46945V4.45376C85.5136 4.22443 84.5643 3.85026 83.5982 3.43988C82.0121 2.76396 80.373 2.0639 78.068 2.28116C74.9272 2.58291 72.3906 5.09347 69.9844 7.77301Z" fill="#00534D"/>
<path d="M59.3598 6.39722C59.1125 6.50585 58.8797 6.62655 58.6711 6.79553C58.3587 7.03693 58.1174 7.37489 57.916 7.74906C58.6228 8.48533 59.3308 9.28195 60.0497 10.0906C60.9808 11.1407 61.9241 12.215 62.9083 13.1806C63.4655 12.8788 64.0191 12.4805 64.5679 12.0218C63.5319 11.0321 62.5223 9.90959 61.5308 8.78708C60.8228 7.97633 60.099 7.17956 59.3598 6.39722Z" fill="#00534D"/>
<path d="M67.7053 6.81958C67.1493 7.12133 66.5957 7.51964 66.0469 7.9783C67.0866 8.96804 68.0973 10.0906 69.0912 11.2251C69.798 12.0218 70.5108 12.8184 71.243 13.5788C71.4926 13.4822 71.7399 13.3736 71.9498 13.2046C72.2622 12.9632 72.5034 12.6253 72.7048 12.2511C71.976 11.4871 71.265 10.7064 70.5724 9.9095C69.6388 8.85941 68.6932 7.78518 67.7053 6.81958Z" fill="#00534D"/>
<path d="M152.501 6.39722C152.255 6.49842 152.024 6.6324 151.814 6.79553C151.501 7.03693 151.261 7.37489 151.059 7.74906C151.767 8.48533 152.473 9.28195 153.192 10.0906C154.123 11.1407 155.065 12.215 156.051 13.1806C156.608 12.8788 157.162 12.4805 157.711 12.0218C156.673 11.0321 155.665 9.90959 154.673 8.78708C153.965 7.97603 153.241 7.17925 152.501 6.39722Z" fill="#00534D"/>
<path d="M61.9629 7.78508C62.0642 7.90578 62.1679 8.01441 62.2681 8.12304C62.6058 8.50928 62.9483 8.88345 63.2897 9.26969C65.0506 7.38677 66.8816 5.76939 68.8621 5.29866C69.5564 5.13413 70.2786 5.12589 70.9765 5.27452C71.5156 4.74344 72.068 4.22443 72.6385 3.76577C71.3793 3.17434 69.9006 3.0295 68.4158 3.37953C65.9709 3.94682 63.9012 5.73318 61.9629 7.78508Z" fill="#00534D"/>
<path d="M248.256 7.78508L248.557 8.12304C248.895 8.50928 249.245 8.88345 249.583 9.26969C251.344 7.38677 253.177 5.76939 255.155 5.29866C255.903 5.12968 256.614 5.12968 257.266 5.27452C257.809 4.74344 258.363 4.22443 258.93 3.76577C257.676 3.17434 256.192 3.0295 254.709 3.37953C252.26 3.94682 250.198 5.73318 248.256 7.78508Z" fill="#00534D"/>
<path d="M256.277 7.77301C256.724 8.26788 257.17 8.76275 257.604 9.25762C259.872 6.72292 262.067 4.48997 264.552 4.24857C266.349 4.07959 267.639 4.62274 269.123 5.25038C270.208 5.72111 271.415 6.21598 272.91 6.46945V4.45376C271.813 4.22443 270.86 3.85026 269.895 3.43988C268.303 2.76396 266.662 2.0639 264.359 2.28116C261.223 2.58291 258.69 5.09347 256.277 7.77301Z" fill="#00534D"/>
<path d="M78.2568 15.7514C77.3908 15.6669 76.5622 15.329 75.7528 14.8341C75.3764 15.3854 74.9245 15.8811 74.4104 16.3066L74.3887 16.3187C75.5321 17.0791 76.7467 17.5981 78.0686 17.7188C79.0348 17.8154 79.867 17.7188 80.645 17.5619C80.1255 17.0088 79.661 16.4065 79.2579 15.7635C78.9371 15.7756 78.6138 15.7876 78.2568 15.7514Z" fill="#00534D"/>
<path d="M253.998 6.81958C253.444 7.12133 252.889 7.51964 252.334 7.9783C253.383 8.96804 254.397 10.0906 255.386 11.2251C256.085 12.0218 256.809 12.8184 257.532 13.5788C257.786 13.4822 258.039 13.3736 258.244 13.2046C258.558 12.9632 258.799 12.6253 259.004 12.2511C258.292 11.5148 257.581 10.7303 256.869 9.9095C255.928 8.85941 254.988 7.78518 253.998 6.81958Z" fill="#00534D"/>
<path d="M245.652 6.39722C245.411 6.50585 245.17 6.62655 244.965 6.79553C244.651 7.03693 244.41 7.37489 244.205 7.74906C244.917 8.48533 245.628 9.28195 246.34 10.0906C247.269 11.1407 248.222 12.215 249.199 13.1806C249.753 12.8788 250.308 12.4805 250.863 12.0218C249.826 11.0321 248.813 9.90959 247.824 8.78708C247.112 7.97839 246.388 7.1697 245.652 6.39722Z" fill="#00534D"/>
<path d="M199.08 6.39722C198.827 6.50585 198.598 6.62655 198.393 6.79553C198.079 7.03693 197.838 7.37489 197.633 7.74906C198.344 8.48533 199.044 9.28195 199.768 10.0906C200.696 11.1407 201.637 12.215 202.626 13.1806C203.181 12.8788 203.736 12.4805 204.291 12.0218C203.253 11.0321 202.24 9.90959 201.251 8.78708C200.54 7.97839 199.816 7.1697 199.08 6.39722Z" fill="#00534D"/>
<path d="M183.717 4.45376V6.46945C185.215 6.21598 186.422 5.72111 187.511 5.25038C188.996 4.62274 190.276 4.07959 192.081 4.24857C192.947 4.33306 193.775 4.67102 194.585 5.16589C194.969 4.62274 195.402 4.1158 195.931 3.69335L195.944 3.68128C194.806 2.92087 193.592 2.40186 192.271 2.28116C189.963 2.0639 188.324 2.76396 186.736 3.43988C185.771 3.85026 184.823 4.22443 183.717 4.45376Z" fill="#00534D"/>
<path d="M194.9 13.4099C195.42 13.0237 195.935 12.5529 196.466 12.0339C196.249 11.4183 196.116 10.7424 196.116 10.0062C196.116 8.28015 196.707 6.86796 197.78 6.02306C198.769 5.23851 200.072 4.98504 201.471 5.29886C201.809 5.38335 202.135 5.49198 202.46 5.62475C202.991 5.12988 203.546 4.67122 204.113 4.24877C203.413 3.86253 202.689 3.54871 201.917 3.37973C199.951 2.92107 197.997 3.31938 196.55 4.46603C194.995 5.70924 194.143 7.66458 194.143 10.0062C194.143 11.2735 194.418 12.4202 194.9 13.4099Z" fill="#00534D"/>
<path d="M155.111 7.78508C155.213 7.90578 155.315 8.01441 155.416 8.12304C155.754 8.50928 156.097 8.88345 156.438 9.26969C158.199 7.38677 160.03 5.76939 162.011 5.29866C162.705 5.13413 163.427 5.12589 164.125 5.27452C164.664 4.74344 165.216 4.22443 165.787 3.76577C164.528 3.17434 163.049 3.0295 161.564 3.37953C159.119 3.94682 157.05 5.73318 155.111 7.78508Z" fill="#00534D"/>
<path d="M163.133 7.77301C163.58 8.26788 164.022 8.76275 164.46 9.25762C166.726 6.72292 168.919 4.48997 171.405 4.24857C173.207 4.07959 174.489 4.62274 175.971 5.25038C177.063 5.72111 178.269 6.21598 179.768 6.46945V4.45376C178.661 4.22443 177.713 3.85026 176.748 3.43988C175.162 2.76396 173.521 2.0639 171.216 2.28116C168.077 2.58291 165.539 5.09347 163.133 7.77301Z" fill="#00534D"/>
<path d="M241.477 13.4099C241.995 13.0237 242.514 12.5529 243.033 12.0339C242.816 11.4183 242.683 10.7424 242.683 10.0062C242.683 8.28015 243.274 6.86796 244.347 6.02306C245.336 5.23851 246.651 4.98504 248.05 5.29886C248.376 5.38335 248.702 5.49198 249.027 5.62475C249.57 5.12988 250.113 4.67122 250.692 4.24877C249.992 3.86253 249.256 3.54871 248.496 3.37973C246.53 2.92107 244.564 3.31938 243.117 4.46603C241.561 5.70924 240.717 7.66458 240.717 10.0062C240.717 11.2735 240.994 12.4202 241.477 13.4099Z" fill="#00534D"/>
<path d="M160.85 6.81958C160.294 7.12133 159.74 7.51964 159.191 7.9783C160.231 8.96804 161.242 10.0906 162.236 11.2251C162.943 12.0218 163.655 12.8184 164.388 13.5788C164.637 13.4822 164.884 13.3736 165.094 13.2046C165.407 12.9632 165.648 12.6253 165.849 12.2511C165.121 11.4871 164.41 10.7064 163.717 9.9095C162.783 8.85941 161.838 7.78518 160.85 6.81958Z" fill="#00534D"/>
<path d="M209.705 7.77301C210.151 8.26788 210.586 8.76275 211.032 9.25762C213.299 6.72292 215.483 4.48997 217.979 4.24857C219.776 4.07959 221.055 4.62274 222.539 5.25038C223.636 5.72111 224.842 6.21598 226.338 6.46945V4.45376C225.228 4.22443 224.287 3.85026 223.323 3.43988C221.73 2.76396 220.09 2.0639 217.786 2.28116C214.65 2.58291 212.105 5.09347 209.705 7.77301Z" fill="#00534D"/>
<path d="M230.297 4.45376V6.46945C231.793 6.21598 232.999 5.72111 234.084 5.25038C235.568 4.62274 236.846 4.07959 238.655 4.24857C239.524 4.33306 240.356 4.67102 241.164 5.16589C241.538 4.62274 241.972 4.1158 242.503 3.69335L242.527 3.68128C241.381 2.92087 240.163 2.40186 238.848 2.28116C236.545 2.0639 234.904 2.76396 233.312 3.43988C232.347 3.85026 231.394 4.22443 230.297 4.45376Z" fill="#00534D"/>
<path d="M201.688 7.78508C201.784 7.90578 201.893 8.01441 201.989 8.12304C202.327 8.50928 202.664 8.88345 203.014 9.26969C204.775 7.38677 206.609 5.76939 208.587 5.29866C209.322 5.12968 210.046 5.12968 210.697 5.27452C211.24 4.74344 211.795 4.22443 212.362 3.76577C211.095 3.17434 209.624 3.0295 208.14 3.37953C205.692 3.94682 203.629 5.73318 201.688 7.78508Z" fill="#00534D"/>
<path d="M207.428 6.81958C206.873 7.12133 206.319 7.51964 205.764 7.9783C206.801 8.96804 207.814 10.0906 208.815 11.2251C209.515 12.0218 210.226 12.8184 210.962 13.5788C211.215 13.4822 211.457 13.3736 211.674 13.2046C211.987 12.9632 212.217 12.6253 212.422 12.2511C211.722 11.5148 211.01 10.7303 210.287 9.9095C209.358 8.85941 208.417 7.78518 207.428 6.81958Z" fill="#00534D"/>
<path d="M75.4357 6.57812C74.9171 6.97644 74.3972 7.44717 73.8749 7.96618C74.0909 8.56968 74.2223 9.2456 74.2223 10.006C74.2223 11.7199 73.6325 13.1321 72.5627 13.9891C71.576 14.7737 70.2601 15.0271 68.8622 14.7012C68.5265 14.6158 68.1972 14.5069 67.8768 14.3753C67.3412 14.8702 66.7912 15.3289 66.2207 15.7513C66.9215 16.1376 67.6476 16.4514 68.4159 16.6324C70.3831 17.079 72.3443 16.6807 73.7929 15.5341C75.344 14.3029 76.198 12.3355 76.198 10.006C76.198 8.72659 75.9206 7.57994 75.4357 6.57812Z" fill="#00534D"/>
<path d="M254.95 12.2149C254.841 12.1062 254.745 11.9855 254.648 11.8769C254.311 11.4907 253.961 11.1165 253.623 10.7423C251.862 12.6132 250.029 14.2426 248.051 14.7013C247.303 14.8703 246.591 14.8703 245.928 14.7254C245.397 15.2686 244.842 15.7755 244.275 16.2462C245.53 16.8256 247.013 16.9704 248.497 16.6325C250.933 16.0531 253.008 14.2668 254.95 12.2149Z" fill="#00534D"/>
<path d="M275.875 17.924V16.3911C275.547 16.3472 275.217 16.323 274.886 16.3187H273.897V17.924C270.278 17.4774 267.42 14.6168 266.961 10.9958H273.897V12.3597H274.886C275.236 12.3597 275.549 12.408 275.875 12.4321V10.9958H282.81C282.352 14.6168 279.505 17.4774 275.875 17.924ZM283.703 5.28667C283.039 5.3953 282.4 5.61256 281.737 5.8781C282.304 6.81956 282.69 7.88172 282.834 9.0163H275.875V2.03984C276.84 2.17261 277.732 2.47436 278.564 2.90888C278.878 2.78818 279.18 2.65541 279.505 2.52264C279.927 2.34159 280.374 2.14847 280.832 1.97949C279.117 0.692262 277.03 -0.00243331 274.886 6.40416e-06C272.654 6.40416e-06 270.604 0.736277 268.939 1.97949C269.398 2.16054 269.844 2.34159 270.278 2.52264C270.592 2.65541 270.905 2.78818 271.207 2.90888C272.039 2.47436 272.944 2.17261 273.897 2.03984V9.0163H266.937C267.082 7.88172 267.468 6.81956 268.035 5.8781C267.371 5.61256 266.744 5.3953 266.069 5.28667C265.321 6.69886 264.887 8.30417 264.887 10.006C264.887 15.522 269.374 20 274.886 20C280.398 20 284.885 15.522 284.885 10.006C284.885 8.30417 284.451 6.69886 283.703 5.28667Z" fill="#00534D"/>
<path d="M217.969 15.7514C217.113 15.6669 216.28 15.329 215.472 14.8341C215.086 15.3773 214.652 15.8842 214.133 16.3066L214.109 16.3187C215.255 17.0791 216.461 17.5981 217.788 17.7188C218.753 17.8154 219.585 17.7188 220.369 17.5619C219.839 17.0067 219.38 16.4032 218.982 15.7635C218.657 15.7756 218.331 15.7876 217.969 15.7514Z" fill="#00534D"/>
<path d="M271.283 16.0049C272.332 15.6186 273.442 15.329 274.889 15.329V13.3495C272.622 13.3495 271.005 13.9651 269.582 14.5565C270.064 15.1238 270.631 15.6186 271.283 16.0049Z" fill="#00534D"/>
<path d="M264.553 15.7514C263.685 15.6669 262.853 15.329 262.045 14.8341C261.659 15.3773 261.224 15.8842 260.706 16.3066L260.682 16.3187C261.827 17.0791 263.046 17.5981 264.36 17.7188C265.325 17.8154 266.158 17.7188 266.942 17.5619C266.411 17.0067 265.953 16.4032 265.555 15.7635C265.229 15.7756 264.903 15.7876 264.553 15.7514Z" fill="#00534D"/>
<path d="M84.9911 16.0049C86.0356 15.6186 87.1477 15.329 88.5975 15.329V13.3495C86.3336 13.3495 84.7089 13.9651 83.2832 14.5565C83.7729 15.1238 84.3434 15.6186 84.9911 16.0049Z" fill="#00534D"/>
<path d="M224.713 16.0049C225.75 15.6186 226.872 15.329 228.319 15.329V13.3495C226.052 13.3495 224.423 13.9651 223 14.5565C223.495 15.1238 224.061 15.6186 224.713 16.0049Z" fill="#00534D"/>
<path d="M246.93 12.2149C246.484 11.7321 246.037 11.2372 245.603 10.7423C243.336 13.2891 241.14 15.522 238.656 15.7514C238.294 15.7876 237.98 15.7755 237.655 15.7634C237.257 16.4031 236.786 17.0066 236.268 17.5619C237.052 17.7188 237.884 17.8153 238.849 17.7188C241.985 17.417 244.53 14.9065 246.93 12.2149Z" fill="#00534D"/>
<path d="M229.306 17.924V16.3911C228.981 16.3549 228.667 16.3187 228.317 16.3187H227.328V17.924C225.567 17.706 223.928 16.9062 222.672 15.6514C221.416 14.3965 220.614 12.7582 220.393 10.9958H227.328V12.3597H228.317C228.667 12.3597 228.969 12.408 229.306 12.4321V10.9958H236.242C235.783 14.6168 232.925 17.4774 229.306 17.924ZM237.134 5.28667C236.459 5.3953 235.832 5.61256 235.156 5.8781C235.735 6.81956 236.121 7.88172 236.266 9.0163H229.306V2.03984C230.259 2.17261 231.164 2.47436 231.996 2.90888C232.298 2.78818 232.611 2.65541 232.925 2.52264C233.359 2.34159 233.793 2.14847 234.264 1.97949C232.548 0.692262 230.461 -0.00243331 228.317 6.40416e-06C226.086 6.40416e-06 224.023 0.736277 222.359 1.97949C222.829 2.16054 223.276 2.34159 223.71 2.52264C224.023 2.65541 224.325 2.78818 224.639 2.90888C225.459 2.47436 226.363 2.17261 227.328 2.03984V9.0163H220.369C220.514 7.88172 220.9 6.81956 221.466 5.8781C220.803 5.61256 220.164 5.3953 219.5 5.28667C218.753 6.69886 218.318 8.30417 218.318 10.006C218.318 15.522 222.805 20 228.317 20C233.829 20 238.316 15.522 238.316 10.006C238.316 8.30417 237.882 6.69886 237.134 5.28667Z" fill="#00534D"/>
<path d="M261.729 6.57812C261.21 6.97644 260.691 7.44717 260.173 7.96618C260.39 8.56968 260.523 9.2456 260.523 10.006C260.523 11.7199 259.932 13.1321 258.858 13.9891C257.869 14.7737 256.554 15.0271 255.155 14.7012C254.818 14.6163 254.488 14.5074 254.166 14.3753C253.635 14.8702 253.081 15.3289 252.514 15.7513C253.213 16.1376 253.937 16.4514 254.709 16.6324C256.675 17.079 258.641 16.6807 260.088 15.5341C261.632 14.3029 262.489 12.3355 262.489 10.006C262.489 8.72659 262.211 7.57994 261.729 6.57812Z" fill="#00534D"/>
<path d="M228.318 15.329C229.766 15.329 230.875 15.6186 231.925 16.017C232.564 15.6186 233.143 15.1238 233.625 14.5565C232.202 13.9651 230.574 13.3495 228.318 13.3495V15.329Z" fill="#00534D"/>
<path d="M124.831 15.7514C123.965 15.6669 123.136 15.329 122.326 14.8341C121.943 15.3773 121.51 15.8842 120.985 16.3066L120.963 16.3187C122.106 17.0791 123.321 17.5981 124.643 17.7188C125.609 17.8154 126.441 17.7188 127.219 17.5619C126.699 17.0091 126.235 16.4068 125.832 15.7635C125.511 15.7756 125.187 15.7876 124.831 15.7514Z" fill="#00534D"/>
<path d="M122.01 6.57812C121.49 6.97644 120.971 7.44717 120.449 7.96618C120.665 8.56968 120.797 9.2456 120.797 10.006C120.797 11.7199 120.207 13.1321 119.137 13.9891C118.149 14.7737 116.834 15.0271 115.436 14.7012C115.101 14.6158 114.771 14.5069 114.451 14.3753C113.915 14.8702 113.365 15.3289 112.795 15.7513C113.496 16.1376 114.223 16.4514 114.989 16.6324C116.959 17.079 118.919 16.6807 120.367 15.5341C121.917 14.3029 122.771 12.3355 122.771 10.006C122.771 8.72659 122.495 7.57994 122.01 6.57812Z" fill="#00534D"/>
<path d="M131.564 16.0049C132.609 15.6186 133.721 15.329 135.171 15.329V13.3495C132.905 13.3495 131.282 13.9651 129.857 14.5565C130.345 15.1278 130.921 15.6169 131.564 16.0049Z" fill="#00534D"/>
<path d="M135.17 15.329C136.619 15.329 137.732 15.6186 138.776 16.017C139.417 15.6206 139.993 15.128 140.484 14.5565C139.059 13.9651 137.434 13.3495 135.17 13.3495V15.329Z" fill="#00534D"/>
<path d="M89.584 17.924V16.3911C89.268 16.3549 88.952 16.3187 88.5962 16.3187H87.6096V17.924C85.848 17.7063 84.2094 16.9067 82.9533 15.6517C81.6973 14.3967 80.8956 12.7582 80.6754 10.9958H87.6096V12.3597H88.5962C88.9496 12.3597 89.256 12.408 89.584 12.4321V10.9958H96.5182C96.2975 12.7581 95.4958 14.3964 94.2398 15.6513C92.9838 16.9061 91.3454 17.7059 89.584 17.924ZM97.412 5.28667C96.7437 5.3953 96.1081 5.61256 95.4435 5.8781C96.0104 6.81956 96.3988 7.88172 96.5459 9.0163H89.584V2.03984C90.5252 2.17165 91.4365 2.46568 92.2774 2.90888C92.5849 2.78818 92.8913 2.65541 93.2097 2.52264C93.6367 2.34159 94.0806 2.14847 94.5461 1.97949C92.8294 0.692222 90.7414 -0.00243225 88.5962 6.39894e-06C86.3648 6.39894e-06 84.3107 0.736277 82.645 1.97949C83.113 2.16054 83.5581 2.34159 83.9863 2.52264C84.3023 2.65541 84.6086 2.78818 84.915 2.90888C85.7561 2.46514 86.6678 2.17108 87.6096 2.03984V9.0163H80.6464C80.7948 7.88172 81.182 6.81956 81.7489 5.8781C81.0843 5.61256 80.4486 5.3953 79.7804 5.28667C79.0051 6.73871 78.5995 8.35969 78.5996 10.006C78.5996 15.522 83.0841 20 88.5962 20C94.1095 20 98.5928 15.522 98.5928 10.006C98.5928 8.30417 98.1634 6.69886 97.412 5.28667Z" fill="#00534D"/>
<path d="M136.156 17.924V16.3911C135.839 16.3549 135.524 16.3186 135.168 16.3186H134.181V17.924C132.419 17.7057 130.781 16.9059 129.525 15.651C128.269 14.3962 127.467 12.758 127.246 10.9958H134.181V12.3597H135.168C135.522 12.3597 135.828 12.408 136.156 12.4321V10.9958H143.09C142.87 12.7581 142.068 14.3964 140.812 15.6513C139.556 16.9061 137.918 17.7059 136.156 17.924ZM143.984 5.28667C143.316 5.3953 142.68 5.61256 142.016 5.8781C142.583 6.81956 142.971 7.88172 143.118 9.0163H136.156V2.03984C137.118 2.17261 138.02 2.47436 138.85 2.90888C139.156 2.78818 139.464 2.65541 139.782 2.52264C140.209 2.34159 140.653 2.14847 141.118 1.97949C139.402 0.692378 137.314 -0.00225865 135.168 5.51752e-06C132.938 5.51752e-06 130.883 0.736276 129.219 1.97949C129.685 2.16054 130.13 2.34159 130.56 2.52264C130.876 2.65541 131.181 2.78818 131.487 2.90888C132.328 2.4655 133.239 2.17145 134.181 2.03984V9.0163H127.219C127.367 7.88172 127.754 6.81956 128.321 5.8781C127.658 5.61256 127.021 5.3953 126.353 5.28667C125.577 6.73871 125.172 8.35969 125.172 10.006C125.172 15.522 129.655 20 135.168 20C140.682 20 145.165 15.522 145.165 10.006C145.165 8.30417 144.736 6.69886 143.984 5.28667Z" fill="#00534D"/>
<path d="M88.5977 15.329C90.0462 15.329 91.1595 15.6186 92.2028 16.017C92.8442 15.6209 93.4207 15.1283 93.912 14.5565C92.4875 13.9651 90.8616 13.3495 88.5977 13.3495V15.329Z" fill="#00534D"/>
<path d="M115.227 12.2149C115.126 12.1062 115.023 11.9855 114.923 11.8769C114.585 11.4907 114.244 11.1165 113.903 10.7423C112.142 12.6132 110.308 14.2426 108.327 14.7013C107.586 14.8703 106.872 14.8703 106.214 14.7254C105.676 15.2686 105.122 15.7755 104.553 16.2462C105.812 16.8256 107.291 16.9704 108.774 16.6325C111.219 16.0531 113.288 14.2668 115.227 12.2149Z" fill="#00534D"/>
<path d="M107.215 12.2149C106.766 11.7321 106.317 11.2372 105.88 10.7423C103.613 13.2891 101.42 15.522 98.9358 15.7514C98.58 15.7876 98.2567 15.7755 97.9359 15.7634C97.5336 16.407 97.069 17.0094 96.5488 17.5619C97.3268 17.7188 98.1578 17.8153 99.124 17.7188C102.267 17.417 104.806 14.9065 107.215 12.2149Z" fill="#00534D"/>
<path d="M182.731 17.924V16.3911C182.414 16.3549 182.098 16.3186 181.743 16.3186H180.755V17.924C178.993 17.7059 177.355 16.9061 176.099 15.6513C174.843 14.3964 174.041 12.7581 173.821 10.9958H180.755V12.3597H181.743C182.097 12.3597 182.402 12.408 182.731 12.4321V10.9958H189.665C189.444 12.7581 188.642 14.3964 187.386 15.6513C186.13 16.9061 184.492 17.7059 182.731 17.924ZM190.558 5.28667C189.89 5.3953 189.255 5.61256 188.59 5.8781C189.158 6.81956 189.544 7.88172 189.692 9.0163H182.731V2.03984C183.691 2.17261 184.594 2.47436 185.423 2.90888C185.731 2.78818 186.038 2.65541 186.356 2.52264C186.783 2.34159 187.227 2.14847 187.693 1.97949C185.976 0.692378 183.888 -0.00225865 181.743 5.51752e-06C179.511 5.51752e-06 177.457 0.736276 175.792 1.97949C176.26 2.16054 176.705 2.34159 177.133 2.52264C177.45 2.65541 177.755 2.78818 178.06 2.90888C178.902 2.46548 179.813 2.17144 180.755 2.03984V9.0163H173.793C173.939 7.90517 174.315 6.83656 174.895 5.8781C174.232 5.61256 173.595 5.3953 172.927 5.28667C172.152 6.73871 171.746 8.35969 171.746 10.006C171.746 15.522 176.229 20 181.743 20C187.256 20 191.739 15.522 191.739 10.006C191.739 8.30417 191.31 6.69886 190.558 5.28667Z" fill="#00534D"/>
<path d="M215.158 6.57812C214.64 6.97644 214.121 7.44717 213.59 7.96618C213.807 8.56968 213.94 9.2456 213.94 10.006C213.94 11.7199 213.349 13.1321 212.288 13.9891C211.299 14.7737 209.984 15.0271 208.585 14.7012C208.248 14.6163 207.917 14.5074 207.596 14.3753C207.065 14.8702 206.51 15.3289 205.943 15.7513C206.643 16.1376 207.367 16.4514 208.139 16.6324C210.105 17.079 212.059 16.6807 213.518 15.5341C215.062 14.3029 215.918 12.3355 215.918 10.006C215.918 8.72659 215.641 7.57994 215.158 6.57812Z" fill="#00534D"/>
<path d="M200.358 12.2149C199.912 11.7321 199.466 11.2372 199.019 10.7423C196.752 13.2891 194.565 15.522 192.08 15.7514C191.723 15.7876 191.401 15.7755 191.08 15.7634C190.678 16.407 190.214 17.0094 189.693 17.5619C190.471 17.7188 191.302 17.8153 192.268 17.7188C195.413 17.417 197.946 14.9065 200.358 12.2149Z" fill="#00534D"/>
<path d="M181.742 15.329C183.191 15.329 184.304 15.6186 185.347 16.017C185.989 15.6209 186.565 15.1283 187.056 14.5565C185.631 13.9651 184.006 13.3495 181.742 13.3495V15.329Z" fill="#00534D"/>
<path d="M208.368 12.2149C208.271 12.1062 208.175 11.9855 208.066 11.8769C207.732 11.496 207.394 11.1178 207.053 10.7423C205.292 12.6132 203.459 14.2426 201.469 14.7013C200.733 14.8703 200.021 14.8703 199.358 14.7254C198.815 15.2686 198.272 15.7755 197.693 16.2462C198.96 16.8256 200.431 16.9704 201.915 16.6325C204.363 16.0531 206.438 14.2668 208.368 12.2149Z" fill="#00534D"/>
<path d="M171.401 15.7514C170.535 15.6669 169.707 15.329 168.897 14.8341C168.521 15.3854 168.069 15.8811 167.555 16.3066L167.533 16.3187C168.677 17.0791 169.891 17.5981 171.213 17.7188C172.179 17.8154 173.012 17.7188 173.79 17.5619C173.27 17.0091 172.805 16.4068 172.402 15.7635C172.082 15.7756 171.757 15.7876 171.401 15.7514Z" fill="#00534D"/>
<path d="M161.798 12.2149C161.698 12.1062 161.596 11.9855 161.495 11.8769C161.158 11.4907 160.816 11.1165 160.475 10.7423C158.714 12.6132 156.881 14.2426 154.9 14.7013C154.157 14.8703 153.444 14.8703 152.787 14.7254C152.248 15.2686 151.694 15.7755 151.125 16.2462C152.384 16.8256 153.862 16.9704 155.347 16.6325C157.793 16.0531 159.86 14.2668 161.798 12.2149Z" fill="#00534D"/>
<path d="M168.582 6.57812C168.062 6.97644 167.544 7.44717 167.021 7.96618C167.237 8.56968 167.369 9.2456 167.369 10.006C167.369 11.7199 166.779 13.1321 165.709 13.9891C164.721 14.7737 163.407 15.0271 162.009 14.7012C161.673 14.6158 161.344 14.5069 161.023 14.3753C160.488 14.8702 159.938 15.3289 159.367 15.7513C160.067 16.1376 160.794 16.4514 161.562 16.6324C163.53 17.079 165.491 16.6807 166.939 15.5341C168.489 14.3029 169.343 12.3355 169.343 10.006C169.343 8.72659 169.067 7.57994 168.582 6.57812Z" fill="#00534D"/>
<path d="M178.136 16.0049C179.18 15.6186 180.292 15.329 181.742 15.329V13.3495C179.478 13.3495 177.853 13.9651 176.428 14.5565C176.919 15.1238 177.488 15.6186 178.136 16.0049Z" fill="#00534D"/>
<path d="M153.788 12.2149C153.339 11.7321 152.892 11.2372 152.453 10.7423C150.186 13.2891 147.993 15.522 145.509 15.7514C145.153 15.7876 144.83 15.7755 144.509 15.7634C144.107 16.4067 143.643 17.009 143.123 17.5619C143.9 17.7188 144.732 17.8153 145.697 17.7188C148.841 17.417 151.379 14.9065 153.788 12.2149Z" fill="#00534D"/>
<path d="M8.55164 13.4099C9.07149 13.0237 9.59134 12.5529 10.1136 12.0339C9.88504 11.3823 9.76841 10.6967 9.76865 10.0062C9.76865 8.28015 10.3585 6.86796 11.4271 6.02306C12.4149 5.23851 13.7296 4.98504 15.1264 5.29886C15.4593 5.38335 15.7873 5.49198 16.1118 5.62475C16.6473 5.12988 17.1973 4.67122 17.7678 4.24877C17.0671 3.86253 16.341 3.54871 15.5738 3.37973C13.6054 2.92107 11.6466 3.31938 10.1968 4.46603C8.64692 5.70924 7.79297 7.66458 7.79297 10.0062C7.79297 11.2735 8.06917 12.4202 8.55164 13.4099Z" fill="#00534D"/>
<path d="M-2.62793 4.45376V6.46945C-1.12989 6.21598 0.0774631 5.72111 1.16662 5.25038C2.65139 4.62274 3.93112 4.07959 5.73673 4.24857C6.60274 4.33306 7.43016 4.67102 8.24069 5.16589C8.62304 4.62274 9.05726 4.1158 9.58314 3.69335L9.60486 3.68128C8.46142 2.92087 7.24683 2.40186 5.92488 2.28116C3.61872 2.0639 1.97836 2.76396 0.391065 3.43988C-0.573856 3.85026 -1.52189 4.22443 -2.62793 4.45376Z" fill="#00534D"/>
<path d="M12.7299 6.39722C12.4826 6.50585 12.2486 6.62655 12.04 6.79553C11.7276 7.03693 11.4876 7.37489 11.2861 7.74906C11.9929 8.48533 12.701 9.28195 13.4198 10.0906C14.3498 11.1407 15.2942 12.215 16.2772 13.1806C16.8356 12.8788 17.3881 12.4805 17.9369 12.0218C16.9008 11.0321 15.8924 9.90959 14.901 8.78708C14.193 7.97633 13.4691 7.17956 12.7299 6.39722Z" fill="#00534D"/>
<path d="M108.484 7.78508C108.586 7.90578 108.688 8.01441 108.79 8.12304C109.126 8.50928 109.47 8.88345 109.81 9.26969C111.571 7.38677 113.402 5.76939 115.384 5.29866C116.078 5.13413 116.8 5.12589 117.498 5.27452C118.037 4.74344 118.59 4.22443 119.159 3.76577C117.9 3.17434 116.422 3.0295 114.936 3.37953C112.492 3.94682 110.423 5.73318 108.484 7.78508Z" fill="#00534D"/>
<path d="M148.274 13.4099C148.794 13.0237 149.314 12.5529 149.836 12.0339C149.608 11.3823 149.491 10.6967 149.491 10.0062C149.491 8.28015 150.081 6.86796 151.149 6.02306C152.138 5.23851 153.452 4.98504 154.849 5.29886C155.182 5.38335 155.51 5.49198 155.834 5.62475C156.37 5.12988 156.92 4.67122 157.491 4.24877C156.79 3.86253 156.064 3.54871 155.297 3.37973C153.328 2.92107 151.369 3.31938 149.921 4.46603C148.37 5.70924 147.516 7.66458 147.516 10.0062C147.516 11.2735 147.792 12.4202 148.274 13.4099Z" fill="#00534D"/>
<path d="M137.092 4.45376V6.46945C138.59 6.21598 139.797 5.72111 140.886 5.25038C142.371 4.62274 143.651 4.07959 145.456 4.24857C146.322 4.33306 147.15 4.67102 147.96 5.16589C148.343 4.62274 148.777 4.1158 149.303 3.69335L149.325 3.68128C148.181 2.92087 146.967 2.40186 145.645 2.28116C143.338 2.0639 141.698 2.76396 140.111 3.43988C139.146 3.85026 138.198 4.22443 137.092 4.45376Z" fill="#00534D"/>
<path d="M116.506 7.77301C116.953 8.26788 117.394 8.76275 117.833 9.25762C120.098 6.72292 122.292 4.48997 124.778 4.24857C126.58 4.07959 127.862 4.62274 129.344 5.25038C130.436 5.72111 131.642 6.21598 133.141 6.46945V4.45376C132.034 4.22443 131.085 3.85026 130.12 3.43988C128.534 2.76396 126.893 2.0639 124.589 2.28116C121.449 2.58291 118.912 5.09347 116.506 7.77301Z" fill="#00534D"/>
<path d="M114.225 6.81958C113.668 7.12133 113.115 7.51964 112.566 7.9783C113.605 8.96804 114.617 10.0906 115.611 11.2251C116.312 12.0245 117.029 12.8092 117.763 13.5788C118.012 13.4822 118.259 13.3736 118.469 13.2046C118.782 12.9632 119.023 12.6253 119.224 12.2511C118.496 11.4871 117.785 10.7064 117.092 9.9095C116.158 8.85941 115.211 7.78518 114.225 6.81958Z" fill="#00534D"/>
<path d="M155.057 7.78508C155.158 7.90578 155.26 8.01441 155.361 8.12304C155.7 8.50928 156.041 8.88345 156.383 9.26969C158.144 7.38677 159.974 5.76939 161.956 5.29866C162.65 5.13413 163.372 5.12589 164.07 5.27452C164.608 4.74344 165.162 4.22443 165.731 3.76577C164.473 3.17434 162.994 3.0295 161.508 3.37953C159.065 3.94682 156.995 5.73318 155.057 7.78508Z" fill="#00534D"/>
<path d="M152.45 6.39722C152.204 6.50585 151.97 6.62655 151.762 6.79553C151.45 7.03693 151.209 7.37489 151.008 7.74906C151.715 8.48533 152.423 9.28195 153.141 10.0906C154.071 11.1407 155.015 12.215 156 13.1806C156.557 12.8788 157.11 12.4805 157.66 12.0218C156.622 11.0321 155.614 9.90959 154.623 8.78708C153.914 7.97633 153.19 7.17955 152.45 6.39722Z" fill="#00534D"/>
<path d="M163.078 7.77301C163.526 8.26788 163.966 8.76275 164.405 9.25762C166.67 6.72292 168.863 4.48997 171.35 4.24857C173.152 4.07959 174.434 4.62274 175.916 5.25038C177.007 5.72111 178.214 6.21598 179.713 6.46945V4.45376C178.606 4.22443 177.657 3.85026 176.692 3.43988C175.106 2.76396 173.465 2.0639 171.162 2.28116C168.021 2.58291 165.484 5.09347 163.078 7.77301Z" fill="#00534D"/>
<path d="M160.797 6.81958C160.24 7.12133 159.687 7.51964 159.139 7.9783C160.177 8.96804 161.189 10.0906 162.183 11.2251C162.884 12.0239 163.601 12.8086 164.334 13.5788C164.583 13.4822 164.832 13.3736 165.042 13.2046C165.354 12.9632 165.594 12.6253 165.797 12.2511C165.068 11.4871 164.357 10.7064 163.664 9.9095C162.729 8.85941 161.785 7.78518 160.797 6.81958Z" fill="#00534D"/>
<path d="M105.876 6.39722C105.63 6.50585 105.396 6.62655 105.187 6.79553C104.876 7.03693 104.635 7.37489 104.434 7.74906C105.159 8.51578 105.87 9.29645 106.566 10.0906C107.497 11.1407 108.44 12.215 109.426 13.1806C109.982 12.8788 110.536 12.4805 111.086 12.0218C110.048 11.0321 109.04 9.90959 108.047 8.78708C107.336 7.97839 106.614 7.1697 105.876 6.39722Z" fill="#00534D"/>
<path d="M59.3039 6.39722C59.0578 6.49842 58.8266 6.6324 58.6164 6.79553C58.304 7.03693 58.064 7.37489 57.8613 7.74906C58.5681 8.48533 59.2749 9.28195 59.995 10.0906C60.925 11.1407 61.8682 12.215 62.8536 13.1806C63.4108 12.8788 63.9632 12.4805 64.5133 12.0218C63.476 11.0321 62.4676 9.90959 61.4762 8.78708C60.7681 7.97603 60.0438 7.17925 59.3039 6.39722Z" fill="#00534D"/>
<path d="M43.9453 4.45376V6.46945C45.4446 6.21598 46.6519 5.72111 47.7411 5.25038C49.2246 4.62274 50.5056 4.07959 52.3112 4.24857C53.1772 4.33306 54.0046 4.67102 54.8151 5.16589C55.1987 4.62274 55.6305 4.1158 56.1576 3.69335L56.1793 3.68128C55.0359 2.92087 53.8201 2.40186 52.4993 2.28116C50.1932 2.0639 48.5528 2.76396 46.9655 3.43988C46.0006 3.85026 45.0514 4.22443 43.9453 4.45376Z" fill="#00534D"/>
<path d="M55.1246 13.4099C55.6445 13.0237 56.1643 12.5529 56.6866 12.0339C56.4581 11.3823 56.3414 10.6967 56.3417 10.0062C56.3417 8.28015 56.9315 6.86796 57.9989 6.02306C58.988 5.23851 60.3015 4.98504 61.6994 5.29886C62.0323 5.38335 62.3616 5.49198 62.6848 5.62475C63.2203 5.12988 63.7703 4.67122 64.3408 4.24877C63.6401 3.86253 62.914 3.54871 62.1469 3.37973C60.1784 2.92107 58.2196 3.31938 56.771 4.46603C55.2211 5.70924 54.3672 7.66458 54.3672 10.0062C54.3672 11.2735 54.6422 12.4202 55.1246 13.4099Z" fill="#00534D"/>
<path d="M15.3398 7.78508C15.4412 7.90578 15.5437 8.01441 15.645 8.12304C15.9815 8.50928 16.3253 8.88345 16.6666 9.26969C18.4276 7.38677 20.2573 5.76939 22.239 5.29866C22.9334 5.13413 23.6555 5.12589 24.3534 5.27452C24.8926 4.74344 25.445 4.22443 26.0143 3.76577C24.7551 3.17434 23.2775 3.0295 21.7915 3.37953C19.3467 3.94682 17.2781 5.73318 15.3398 7.78508Z" fill="#00534D"/>
<path d="M23.3574 7.77301C23.8049 8.26788 24.2451 8.76275 24.6842 9.25762C26.9505 6.72292 29.1421 4.48997 31.6292 4.24857C33.4312 4.07959 34.7133 4.62274 36.1957 5.25038C37.2861 5.72111 38.4934 6.21598 39.9927 6.46945V4.45376C38.8854 4.22443 37.9362 3.85026 36.9712 3.43988C35.3852 2.76396 33.7448 2.0639 31.441 2.28116C28.3002 2.58291 25.7637 5.09347 23.3574 7.77301Z" fill="#00534D"/>
<path d="M101.698 13.4099C102.217 13.0237 102.738 12.5529 103.26 12.0339C103.032 11.3823 102.915 10.6967 102.915 10.0062C102.915 8.28015 103.505 6.86796 104.572 6.02306C105.561 5.23851 106.876 4.98504 108.273 5.29886C108.606 5.38335 108.934 5.49198 109.258 5.62475C109.794 5.12988 110.344 4.67122 110.914 4.24877C110.214 3.86253 109.487 3.54871 108.72 3.37973C106.752 2.92107 104.793 3.31938 103.345 4.46603C101.793 5.70924 100.939 7.66458 100.939 10.0062C100.939 11.2735 101.216 12.4202 101.698 13.4099Z" fill="#00534D"/>
<path d="M21.0774 6.81958C20.5214 7.12133 19.9677 7.51964 19.4189 7.9783C20.4574 8.96804 21.4694 10.0906 22.4633 11.2251C23.1642 12.0245 23.8816 12.8092 24.615 13.5788C24.8647 13.4822 25.112 13.3736 25.3218 13.2046C25.6342 12.9632 25.8755 12.6253 26.0769 12.2511C25.3481 11.4871 24.6371 10.7064 23.9444 9.9095C23.0109 8.85941 22.064 7.78518 21.0774 6.81958Z" fill="#00534D"/>
<path d="M69.9316 7.77301C70.3779 8.26788 70.8194 8.76275 71.2572 9.25762H71.2584C73.5236 6.72292 75.7163 4.48997 78.2034 4.24857C80.0054 4.07959 81.2876 4.62274 82.7699 5.25038C83.8603 5.72111 85.0676 6.21598 86.5669 6.46945V4.45376C85.4596 4.22443 84.5104 3.85026 83.5455 3.43988C81.9606 2.76396 80.319 2.0639 78.0153 2.28116C74.8744 2.58291 72.3379 5.09347 69.9316 7.77301Z" fill="#00534D"/>
<path d="M90.5195 4.45376V6.46945C92.0188 6.21598 93.2261 5.72111 94.3153 5.25038C95.7989 4.62274 97.0798 4.07959 98.8854 4.24857C99.7514 4.33306 100.579 4.67102 101.389 5.16589C101.772 4.62274 102.206 4.1158 102.732 3.69335L102.754 3.68128C101.61 2.92087 100.395 2.40186 99.0736 2.28116C96.7674 2.0639 95.127 2.76396 93.5397 3.43988C92.5748 3.85026 91.6256 4.22443 90.5195 4.45376Z" fill="#00534D"/>
<path d="M61.9121 7.78508C62.0122 7.90578 62.1159 8.01441 62.2161 8.12304C62.555 8.50928 62.8963 8.88345 63.2389 9.26969C64.9999 7.38677 66.8296 5.76939 68.8113 5.29866C69.5056 5.13413 70.2278 5.12589 70.9257 5.27452C71.4636 4.74344 72.0172 4.22443 72.5865 3.76577C71.3285 3.17434 69.8498 3.0295 68.3638 3.37953C65.9202 3.94682 63.8504 5.73318 61.9121 7.78508Z" fill="#00534D"/>
<path d="M67.6506 6.81958C67.0934 7.12133 66.541 7.51964 65.9922 7.9783C67.0307 8.96804 68.0414 10.0906 69.0365 11.2251C69.7421 12.0218 70.4562 12.8184 71.1871 13.5788C71.4368 13.4822 71.684 13.3736 71.8951 13.2046C72.2075 12.9632 72.4475 12.6253 72.6501 12.2511C71.921 11.4874 71.21 10.7067 70.5177 9.9095C69.5841 8.85941 68.6385 7.78518 67.6506 6.81958Z" fill="#00534D"/>
<path d="M115.173 12.2149C115.073 12.1062 114.971 11.9855 114.87 11.8769C114.533 11.4907 114.191 11.1165 113.85 10.7423C112.089 12.6132 110.256 14.2426 108.274 14.7013C107.532 14.8703 106.819 14.8703 106.161 14.7254C105.623 15.2686 105.069 15.7755 104.5 16.2462C105.759 16.8256 107.237 16.9704 108.722 16.6325C111.166 16.0531 113.235 14.2668 115.173 12.2149Z" fill="#00534D"/>
<path d="M136.104 17.924V16.3911C135.788 16.3549 135.473 16.3186 135.118 16.3186H134.13V17.924C132.368 17.7061 130.73 16.9064 129.474 15.6515C128.218 14.3966 127.416 12.7582 127.196 10.9958H134.13V12.3597H135.118C135.471 12.3597 135.777 12.408 136.104 12.4321V10.9958H143.038C142.818 12.7582 142.016 14.3966 140.76 15.6515C139.504 16.9064 137.866 17.7061 136.104 17.924ZM143.932 5.28667C143.265 5.3953 142.628 5.61256 141.965 5.8781C142.532 6.81956 142.919 7.88172 143.067 9.0163H136.104V2.03984C137.066 2.17261 137.969 2.47436 138.798 2.90888C139.105 2.78818 139.413 2.65541 139.731 2.52264C140.158 2.34159 140.602 2.14847 141.068 1.97949C139.351 0.692378 137.263 -0.00225865 135.118 5.51752e-06C132.886 5.51752e-06 130.832 0.736276 129.167 1.97949C129.633 2.16054 130.08 2.34159 130.508 2.52264C130.824 2.65541 131.13 2.78818 131.435 2.90888C132.277 2.46548 133.188 2.17144 134.13 2.03984V9.0163H127.168C127.315 7.88172 127.702 6.81956 128.27 5.8781C127.606 5.61256 126.97 5.3953 126.302 5.28667C125.527 6.73871 125.121 8.35969 125.121 10.006C125.121 15.522 129.604 20 135.118 20C136.844 20.0009 138.542 19.5539 140.045 18.7027C141.547 17.8515 142.804 16.625 143.692 15.143C144.579 13.661 145.068 11.974 145.11 10.2466C145.153 8.51917 144.747 6.8103 143.932 5.28667Z" fill="#00534D"/>
<path d="M78.2009 15.7514C77.3361 15.6669 76.5075 15.329 75.6969 14.8341C75.3146 15.3773 74.8804 15.8842 74.3545 16.3066L74.334 16.3187C75.4774 17.0791 76.692 17.5981 78.014 17.7188C78.9801 17.8154 79.8123 17.7188 80.5903 17.5619C80.0701 17.0095 79.6055 16.4071 79.2032 15.7635C78.8693 15.7834 78.5343 15.7794 78.2009 15.7514Z" fill="#00534D"/>
<path d="M131.509 16.0049C132.552 15.6186 133.665 15.329 135.114 15.329V13.3495C132.85 13.3495 131.226 13.9651 129.801 14.5565C130.29 15.1238 130.861 15.6186 131.509 16.0049Z" fill="#00534D"/>
<path d="M135.115 15.329C136.564 15.329 137.676 15.6186 138.72 16.017C139.368 15.6186 139.939 15.1238 140.43 14.5565C139.004 13.9651 137.378 13.3495 135.115 13.3495V15.329Z" fill="#00534D"/>
<path d="M124.775 15.7514C123.909 15.6669 123.082 15.329 122.271 14.8341C121.889 15.3773 121.456 15.8842 120.929 16.3066L120.908 16.3187C122.052 17.0791 123.266 17.5981 124.587 17.7188C125.554 17.8154 126.387 17.7188 127.165 17.5619C126.644 17.0095 126.18 16.4071 125.777 15.7635C125.457 15.7756 125.132 15.7876 124.775 15.7514Z" fill="#00534D"/>
<path d="M84.9384 16.0049C85.9829 15.6186 87.095 15.329 88.5448 15.329V13.3495C86.2796 13.3495 84.6561 13.9651 83.2305 14.5565C83.7214 15.1238 84.2907 15.6186 84.9384 16.0049Z" fill="#00534D"/>
<path d="M107.162 12.2149C106.713 11.7321 106.265 11.2372 105.827 10.7423C103.561 13.2891 101.368 15.522 98.8831 15.7514C98.5261 15.7876 98.204 15.7755 97.8832 15.7634C97.4801 16.4065 97.0156 17.0088 96.4961 17.5619C97.2729 17.7188 98.1051 17.8153 99.0712 17.7188C102.216 17.417 104.753 14.9065 107.162 12.2149Z" fill="#00534D"/>
<path d="M89.5301 17.924V16.3911C89.2141 16.3549 88.8993 16.3186 88.5435 16.3186H87.5556V17.924C85.7941 17.7061 84.1556 16.9064 82.8996 15.6515C81.6436 14.3966 80.8419 12.7582 80.6215 10.9958H87.5556V12.3597H88.5435C88.8969 12.3597 89.202 12.408 89.5301 12.4321V10.9958H96.4642C96.2438 12.7582 95.4421 14.3966 94.1861 15.6515C92.9301 16.9064 91.2916 17.7061 89.5301 17.924ZM97.3592 5.28667C96.691 5.3953 96.0554 5.61256 95.3896 5.8781C95.9577 6.81956 96.3448 7.88172 96.4932 9.0163H89.5301V2.03984C90.4914 2.17261 91.3948 2.47436 92.2234 2.90888C92.531 2.78818 92.8386 2.65541 93.157 2.52264C93.584 2.34159 94.0266 2.14847 94.4934 1.97949C92.7766 0.692378 90.6886 -0.00225865 88.5435 5.51752e-06C86.3121 5.51752e-06 84.2568 0.736276 82.5923 1.97949C83.0603 2.16054 83.5054 2.34159 83.9336 2.52264C84.2496 2.65541 84.5547 2.78818 84.8611 2.90888C85.7023 2.46548 86.614 2.17144 87.5556 2.03984V9.0163H80.5937C80.7403 7.90517 81.1156 6.83656 81.6961 5.8781C81.0328 5.61256 80.3959 5.3953 79.7277 5.28667C78.9523 6.73871 78.5467 8.35969 78.5469 10.006C78.5469 15.522 83.0301 20 88.5435 20C94.0556 20 98.54 15.522 98.54 10.006C98.54 8.30417 98.1107 6.69886 97.3592 5.28667Z" fill="#00534D"/>
<path d="M121.957 6.57812C121.437 6.97644 120.917 7.44717 120.396 7.96618C120.611 8.56968 120.744 9.2456 120.744 10.006C120.744 11.7199 120.154 13.1321 119.084 13.9891C118.096 14.7737 116.782 15.0271 115.384 14.7012C115.048 14.6158 114.719 14.5069 114.398 14.3753C113.863 14.8702 113.313 15.3289 112.742 15.7513C113.442 16.1376 114.169 16.4514 114.936 16.6324C116.905 17.079 118.866 16.6807 120.314 15.5341C121.864 14.3029 122.718 12.3355 122.718 10.006C122.718 8.72659 122.442 7.57994 121.957 6.57812Z" fill="#00534D"/>
<path d="M191.028 15.7633C190.625 16.4066 190.16 17.009 189.641 17.5617C190.417 17.7187 191.25 17.8152 192.216 17.7187C192.558 17.6945 192.892 17.6221 193.222 17.5376V15.4736C192.83 15.6064 192.433 15.715 192.028 15.7512C191.672 15.7875 191.349 15.7754 191.028 15.7633Z" fill="#00534D"/>
<path d="M153.733 12.2149C153.286 11.7321 152.837 11.2372 152.399 10.7423C150.133 13.2891 147.94 15.522 145.455 15.7514C145.098 15.7876 144.776 15.7755 144.455 15.7634C144.052 16.4065 143.588 17.0088 143.068 17.5619C143.845 17.7188 144.677 17.8153 145.643 17.7188C148.787 17.417 151.326 14.9065 153.733 12.2149Z" fill="#00534D"/>
<path d="M192.216 2.28116C189.91 2.0639 188.27 2.76396 186.682 3.43988C185.717 3.85026 184.768 4.22443 183.662 4.45376V6.46945C185.161 6.21598 186.369 5.72111 187.458 5.25038C188.941 4.62274 190.222 4.07959 192.028 4.24857C192.433 4.28478 192.83 4.39341 193.221 4.52618V2.45014C192.889 2.37507 192.554 2.31865 192.216 2.28116Z" fill="#00534D"/>
<path d="M181.689 15.329C183.138 15.329 184.251 15.6186 185.295 16.017C185.942 15.6186 186.513 15.1238 187.003 14.5565C185.578 13.9651 183.953 13.3495 181.689 13.3495V15.329Z" fill="#00534D"/>
<path d="M182.677 17.924V16.3911C182.361 16.3549 182.046 16.3186 181.69 16.3186H180.702V17.924C178.941 17.7061 177.302 16.9064 176.046 15.6515C174.79 14.3966 173.988 12.7582 173.768 10.9958H180.702V12.3597H181.69C182.043 12.3597 182.35 12.408 182.677 12.4321V10.9958H189.612C189.391 12.7582 188.589 14.3965 187.333 15.6514C186.077 16.9062 184.438 17.706 182.677 17.924ZM190.505 5.28667C189.838 5.3953 189.202 5.61256 188.536 5.8781C189.104 6.81956 189.491 7.88172 189.638 9.0163H182.677V2.03984C183.638 2.17261 184.541 2.47436 185.37 2.90888C185.677 2.78818 185.985 2.65541 186.303 2.52264C186.73 2.34159 187.174 2.14847 187.64 1.97949C185.923 0.692378 183.835 -0.00225865 181.69 5.51752e-06C179.459 5.51752e-06 177.403 0.736276 175.739 1.97949C176.207 2.16054 176.652 2.34159 177.08 2.52264C177.396 2.65541 177.701 2.78818 178.008 2.90888C178.849 2.46548 179.76 2.17144 180.702 2.03984V9.0163H173.74C173.887 7.90517 174.262 6.83656 174.843 5.8781C174.178 5.61256 173.542 5.3953 172.874 5.28667C172.099 6.73871 171.693 8.35969 171.693 10.006C171.693 15.522 176.177 20 181.69 20C187.202 20 191.687 15.522 191.687 10.006C191.687 8.30417 191.257 6.69886 190.505 5.28667Z" fill="#00534D"/>
<path d="M161.745 12.2149C161.645 12.1062 161.543 11.9855 161.443 11.8769C161.105 11.4907 160.764 11.1165 160.422 10.7423C158.66 12.6132 156.828 14.2426 154.846 14.7013C154.106 14.8703 153.392 14.8703 152.733 14.7254C152.195 15.2686 151.642 15.7755 151.072 16.2462C152.331 16.8256 153.809 16.9704 155.294 16.6325C157.739 16.0531 159.807 14.2668 161.745 12.2149Z" fill="#00534D"/>
<path d="M178.083 16.0049C179.127 15.6186 180.24 15.329 181.689 15.329V13.3495C179.424 13.3495 177.801 13.9651 176.375 14.5565C176.865 15.1238 177.435 15.6186 178.083 16.0049Z" fill="#00534D"/>
<path d="M168.531 6.57812C168.011 6.97644 167.492 7.44717 166.97 7.96618C167.185 8.56968 167.317 9.2456 167.317 10.006C167.317 11.7199 166.726 13.1321 165.658 13.9891C164.67 14.7737 163.354 15.0271 161.957 14.7012C161.621 14.6158 161.292 14.5069 160.972 14.3753C160.436 14.8702 159.886 15.3289 159.314 15.7513C160.015 16.1376 160.743 16.4514 161.51 16.6324C163.478 17.079 165.439 16.6807 166.888 15.5341C168.438 14.3029 169.292 12.3355 169.292 10.006C169.292 8.72659 169.014 7.57994 168.531 6.57812Z" fill="#00534D"/>
<path d="M171.347 15.7514C170.481 15.6669 169.654 15.329 168.843 14.8341C168.461 15.3773 168.027 15.8842 167.501 16.3066L167.48 16.3187C168.624 17.0791 169.838 17.5981 171.159 17.7188C172.127 17.8154 172.959 17.7188 173.737 17.5619C173.217 17.0095 172.752 16.4071 172.35 15.7635C172.016 15.7834 171.681 15.7794 171.347 15.7514Z" fill="#00534D"/>
<path d="M88.543 15.329C89.9916 15.329 91.1049 15.6186 92.1482 16.017C92.7959 15.6186 93.3664 15.1238 93.8561 14.5565C92.4316 13.9651 90.8069 13.3495 88.543 13.3495V15.329Z" fill="#00534D"/>
<path d="M-4.60254 15.329C-3.15395 15.329 -2.04068 15.6186 -0.997354 16.017C-0.349651 15.6186 0.220859 15.1238 0.710557 14.5565C-0.713908 13.9651 -2.3398 13.3495 -4.60254 13.3495V15.329Z" fill="#00534D"/>
<path d="M-3.61639 17.924V16.3911C-3.9324 16.3549 -4.24721 16.3186 -4.60302 16.3186H-5.59086V17.924C-7.35226 17.7059 -8.99066 16.9061 -10.2466 15.6513C-11.5026 14.3964 -12.3044 12.7581 -12.525 10.9958H-5.59086V12.3597H-4.60302C-4.24962 12.3597 -3.94446 12.408 -3.61639 12.4321V10.9958H3.31776C3.09732 12.7582 2.29561 14.3966 1.0396 15.6515C-0.21641 16.9064 -1.85491 17.7061 -3.61639 17.924ZM4.21273 5.28667C3.54453 5.3953 2.90888 5.61256 2.24429 5.8781C2.81118 6.81956 3.19836 7.88172 3.34671 9.0163H-3.61639V2.03984C-2.65509 2.17261 -1.75169 2.47436 -0.923063 2.90888C-0.615494 2.78818 -0.307923 2.65541 0.0105009 2.52264C0.437478 2.34159 0.880138 2.14847 1.34692 1.97949C-0.369902 0.692378 -2.45785 -0.00225865 -4.60302 5.51752e-06C-6.8344 5.51752e-06 -8.88969 0.736276 -10.5542 1.97949C-10.0862 2.16054 -9.64113 2.34159 -9.21294 2.52264C-8.89693 2.65541 -8.59056 2.78818 -8.28541 2.90888C-7.44419 2.46548 -6.5325 2.17144 -5.59086 2.03984V9.0163H-12.5528C-12.4062 7.90517 -12.0308 6.83656 -11.4503 5.8781C-12.1149 5.61256 -12.7506 5.3953 -13.4188 5.28667C-14.1942 6.73871 -14.5997 8.35969 -14.5996 10.006C-14.5996 15.522 -10.1163 20 -4.60302 20C0.909088 20 5.39355 15.522 5.39355 10.006C5.39355 8.30417 4.96417 6.69886 4.21273 5.28667Z" fill="#00534D"/>
<path d="M42.9571 17.924V16.3911C42.6399 16.3549 42.3251 16.3186 41.9692 16.3186H40.9814V17.924C39.2199 17.7061 37.5814 16.9064 36.3254 15.6515C35.0694 14.3966 34.2677 12.7582 34.0472 10.9958H40.9814V12.3597H41.9692C42.3226 12.3597 42.629 12.408 42.9571 12.4321V10.9958H49.8912C49.6704 12.758 48.8685 14.3962 47.6126 15.651C46.3567 16.9059 44.7184 17.7057 42.9571 17.924ZM50.7838 5.28667C50.1168 5.3953 49.4799 5.61256 48.8166 5.8781C49.3834 6.81956 49.7706 7.88172 49.919 9.0163H42.9571V2.03984C43.9172 2.17261 44.8206 2.47436 45.6492 2.90888C45.9568 2.78818 46.2643 2.65541 46.5828 2.52264C47.0097 2.34159 47.4536 2.14847 47.9192 1.97949C46.2024 0.692378 44.1144 -0.00225865 41.9692 5.51752e-06C39.7379 5.51752e-06 37.6838 0.736276 36.0181 1.97949C36.4861 2.16054 36.9311 2.34159 37.3593 2.52264C37.6753 2.65541 37.9817 2.78818 38.2881 2.90888C39.1288 2.46531 40.0401 2.17126 40.9814 2.03984V9.0163H34.0195C34.1666 7.88172 34.5538 6.81956 35.1219 5.8781C34.4573 5.61256 33.8217 5.3953 33.1535 5.28667C32.3781 6.73871 31.9725 8.35969 31.9727 10.006C31.9727 15.522 36.4559 20 41.9692 20C47.4826 20 51.9658 15.522 51.9658 10.006C51.9658 8.30417 51.5364 6.69886 50.7838 5.28667Z" fill="#00534D"/>
<path d="M75.3849 6.57812C74.8651 6.97644 74.3464 7.44717 73.8242 7.96618C74.0401 8.56968 74.1715 9.2456 74.1715 10.006C74.1715 11.7199 73.5805 13.1321 72.5119 13.9891C71.524 14.7737 70.2081 15.0271 68.8114 14.7012C68.4757 14.6158 68.1464 14.5069 67.826 14.3753C67.2904 14.8702 66.7404 15.3289 66.1699 15.7513C66.8695 16.1376 67.5968 16.4514 68.3639 16.6324C70.3324 17.079 72.2924 16.6807 73.7421 15.5341C75.2921 14.3029 76.146 12.3355 76.146 10.006C76.146 8.72659 75.8686 7.57994 75.3849 6.57812Z" fill="#00534D"/>
<path d="M60.5879 12.2149C60.1392 11.7321 59.6905 11.2372 59.2527 10.7423C56.9851 13.2891 54.7935 15.522 52.3089 15.7514C51.953 15.7876 51.6298 15.7755 51.309 15.7634C50.9063 16.4067 50.4417 17.0091 49.9219 17.5619C50.6998 17.7188 51.5309 17.8153 52.497 17.7188C55.6402 17.417 58.1792 14.9065 60.5879 12.2149Z" fill="#00534D"/>
<path d="M41.9727 15.329C43.4212 15.329 44.5333 15.6186 45.5778 16.017C46.2255 15.6186 46.7961 15.1238 47.287 14.5565C45.8613 13.9651 44.2366 13.3495 41.9727 13.3495V15.329Z" fill="#00534D"/>
<path d="M68.601 12.2149C68.5009 12.1062 68.3983 11.9855 68.2982 11.8769C67.9605 11.4907 67.618 11.1165 67.2778 10.7423C65.5156 12.6132 63.6835 14.2426 61.7018 14.7013C60.96 14.8703 60.2472 14.8703 59.5886 14.7254C59.0495 15.2686 58.497 15.7755 57.9277 16.2462C59.187 16.8256 60.6645 16.9704 62.1493 16.6325C64.5941 16.0531 66.6627 14.2668 68.601 12.2149Z" fill="#00534D"/>
<path d="M31.6289 15.7514C30.7616 15.6669 29.9342 15.329 29.1237 14.8341C28.7413 15.3773 28.3083 15.8842 27.7825 16.3066L27.7607 16.3187C28.9042 17.0791 30.1188 17.5981 31.4395 17.7188C32.4068 17.8154 33.2391 17.7188 34.017 17.5619C33.4968 17.0095 33.0322 16.4071 32.63 15.7635C32.3091 15.7756 31.9847 15.7876 31.6289 15.7514Z" fill="#00534D"/>
<path d="M22.0258 12.2149C21.9257 12.1062 21.8231 11.9855 21.723 11.8769C21.3853 11.4907 21.044 11.1165 20.7014 10.7423C18.9404 12.6132 17.1083 14.2426 15.1266 14.7013C14.386 14.8703 13.672 14.8703 13.0134 14.7254C12.4755 15.2686 11.9218 15.7755 11.3525 16.2462C12.6118 16.8256 14.0893 16.9704 15.5741 16.6325C18.0189 16.0531 20.0875 14.2668 22.0258 12.2149Z" fill="#00534D"/>
<path d="M28.8129 6.57812C28.293 6.97644 27.7732 7.44717 27.2521 7.96618C27.4668 8.56968 27.5995 9.2456 27.5995 10.006C27.5995 11.7199 27.0097 13.1321 25.9398 13.9891C24.952 14.7737 23.6373 15.0271 22.2394 14.7012C21.9037 14.6158 21.5744 14.5069 21.2539 14.3753C20.7184 14.8702 20.1684 15.3289 19.5967 15.7513C20.2975 16.1376 21.0248 16.4514 21.7919 16.6324C23.7603 17.079 25.7215 16.6807 27.1701 15.5341C28.72 14.3029 29.574 12.3355 29.574 10.006C29.574 8.72659 29.2965 7.57994 28.8129 6.57812Z" fill="#00534D"/>
<path d="M38.3651 16.0049C39.4084 15.6186 40.5217 15.329 41.9715 15.329V13.3495C39.7064 13.3495 38.0829 13.9651 36.6572 14.5565C37.1469 15.1238 37.7174 15.6186 38.3651 16.0049Z" fill="#00534D"/>
<path d="M14.0146 12.2149C13.5647 11.7321 13.1173 11.2372 12.6794 10.7423C10.4131 13.2891 8.22028 15.522 5.73561 15.7514C5.37859 15.7876 5.05655 15.7755 4.73571 15.7634C4.33305 16.4067 3.86848 17.0091 3.34863 17.5619C4.12539 17.7188 4.95764 17.8153 5.92377 17.7188C9.067 17.417 11.6047 14.9065 14.0146 12.2149Z" fill="#00534D"/>
</g>
<defs>
<clipPath id="clip0_1040_957">
<rect width="270" height="20" fill="white"/>
</clipPath>
</defs>
</svg>
