<svg width="172" height="142" viewBox="0 0 172 142" fill="none" xmlns="http://www.w3.org/2000/svg">
<path d="M33.2099 1.47116C32.6768 2.42857 32.277 5.02728 32.1437 7.35243C32.0105 11.1821 31.0776 11.866 21.7487 16.6531L11.4869 21.7137L12.6863 25.9537C13.7525 29.9201 20.1495 42.093 21.882 43.7343C27.4869 50.7772 32.9434 56.1807 32.4103 56.8645C24.4883 56.591 11.4869 41.0321 6.99667 25.9537C8.47025 21.0298 1.89148 23.7653 0.292241 25.4066C-2.23989 28.0053 12.2865 50.4362 20.5493 56.591C27.4793 61.9252 31.0776 63.5665 41.7392 66.4387C51.4679 69.0374 54 68.9006 54 65.7548C54 64.1127 47.4774 56.591 45.7373 58.7794C44.3513 60.5224 40.673 56.1807 37.4745 52.8981C30.1447 45.7859 28.6787 39.7678 32.0105 30.7408C34.0095 25.6801 35.742 23.6285 41.6059 20.0724C46.5369 17.0634 49.4688 14.1911 50.8015 11.0453C52.366 7.35243 46.4616 0.510948 43.7382 3.38599C39.981 7.35243 37.8743 3.79632 37.208 2.15503C36.2751 -0.443671 34.5426 -0.717224 33.2099 1.47116Z" fill="#00534D"/>
<path d="M138.79 1.928C139.323 2.88542 139.723 5.48413 139.856 7.80928C139.99 11.6389 140.922 12.3228 150.251 17.1099L160.513 22.1705L159.314 26.4105C158.248 30.377 151.851 42.5498 150.118 44.1911C144.513 51.2341 139.057 56.6375 139.59 57.3214C147.512 57.0478 160.513 41.4889 165.003 26.4105C163.53 21.4867 170.109 24.2221 171.708 25.8634C174.24 28.4621 159.713 50.893 151.451 57.0478C144.521 62.382 140.922 64.0233 130.261 66.8956C120.532 69.4943 118 69.3575 118 66.2117C118 64.5695 124.523 57.0478 126.263 59.2362C127.649 60.9792 131.327 56.6375 134.525 53.3549C141.855 46.2427 143.321 40.2247 139.99 31.1976C137.99 26.137 136.258 24.0854 130.394 20.5292C125.463 17.5202 122.531 14.648 121.198 11.5022C119.634 7.80928 125.538 0.967796 128.262 3.84284C132.019 7.80928 134.126 4.25316 134.792 2.61188C135.725 0.0131766 137.457 -0.260376 138.79 1.928Z" fill="#00534D"/>
<path d="M73 76.9004C57.1333 92.4266 36.1589 123.915 35.0922 134.087C34.2922 140.78 50.4255 145.063 54.5589 139.307C56.1589 136.898 56.1589 135.827 54.6922 131.277C51.4922 122.175 55.6255 112.672 71.2255 93.3979C75.3589 88.3117 80.1589 82.5563 82.0255 80.5486C105.092 56.3223 127.359 29.8206 127.359 26.7421C127.359 26.0729 126.026 25.6713 124.426 25.6713C122.426 25.6713 119.092 28.3483 114.826 33.4344C105.226 44.8114 86.4156 62.8139 86.4156 62.8139L80.9156 68.837L73 76.9004Z" fill="#00534D"/>
<path d="M86.4156 62.8139L80.9156 68.837C57.849 44.6107 45.4151 29.8206 45.4151 26.7421C45.4151 26.0729 46.7484 25.6713 48.3484 25.6713C50.3484 25.6713 53.6818 28.3483 57.9485 33.4344C67.5485 44.8114 86.4156 62.8139 86.4156 62.8139Z" fill="#00534D"/>
<path d="M96 72.7342C111.5 87.2901 137.2 123.797 138.266 133.969C139.066 140.662 122.933 144.945 118.8 139.189C117.2 136.78 117.2 135.709 118.666 131.158C121.866 122.057 117.733 112.554 102.133 93.2797C97.9995 88.1935 91.8667 80.765 90 78.7573C92.5 74.7419 96 72.7342 96 72.7342Z" fill="#00534D"/>
</svg>
