<svg width="200" height="150" viewBox="0 0 200 150" fill="none" xmlns="http://www.w3.org/2000/svg">
<path d="M102.893 141.285C100.93 141.393 99.0696 141.393 97.105 141.285C88.1766 116.805 69.9084 96.5767 46.4234 85.1745C47.0622 71.6621 52.7623 59.4813 61.6149 50.3831C69.593 55.4623 75.4947 63.1269 78.6652 71.7359C70.5174 73.8682 63.0404 77.1425 56.6435 81.3831C58.8417 82.631 60.984 83.9606 63.0723 85.3702C68.1675 82.4273 74.179 80.3489 80.6417 79.0093C81.8037 85.5259 81.4603 92.2901 79.2701 98.691C81.087 100.482 82.796 102.327 84.479 104.225C88.2425 95.6662 89.3046 86.5461 88.0628 77.8333C90.6942 77.5239 93.3616 77.3142 96.0549 77.2164L96.1707 120.395C97.5283 122.673 98.8021 125.035 99.996 127.421C101.19 125.035 102.466 122.673 103.821 120.395L103.939 77.2164C106.63 77.3142 109.294 77.5239 111.923 77.8333C110.683 86.5461 111.744 95.6662 115.509 104.225C117.192 102.327 118.901 100.482 120.718 98.691C118.528 92.2901 118.182 85.5259 119.346 79.0093C125.809 80.3489 131.819 82.4273 136.914 85.3702C139.004 83.9606 141.146 82.631 143.344 81.3831C136.946 77.1425 129.471 73.8682 121.321 71.7359C124.495 63.1249 130.399 55.4563 138.381 50.3772C147.236 59.4753 152.938 71.6581 153.575 85.1705C130.066 96.5767 111.795 116.801 102.893 141.285ZM104.055 34.2932C114.523 35.0818 124.144 38.8792 132.084 44.8348C123.128 51.1418 116.813 60.1122 113.684 70.1188C110.518 69.6057 107.271 69.2762 103.961 69.1245L104.055 34.2932ZM96.0329 69.1245C92.7187 69.2762 89.4723 69.6057 86.3019 70.1188C83.1753 60.1142 76.8623 51.1458 67.9099 44.8388C75.8501 38.8832 85.4713 35.0838 95.9391 34.2932L96.0329 69.1245ZM200 45.0165C199.932 25.2569 182.854 8.10082 171.196 0.508053H163.629C172.771 10.0394 177.229 18.5606 175.934 26.8901C174.193 38.0766 159.772 40.6781 145.984 46.5339C134.666 33.9138 118.248 25.9537 100 25.9537C81.7518 25.9537 65.3344 33.9138 54.0161 46.5339C40.2262 40.6781 25.8073 38.0786 24.0663 26.8901C22.7706 18.5606 27.2288 10.0394 36.3709 0.508053H28.8041C17.1464 8.10082 0.0681305 25.2569 0.00024878 45.0165C-0.075619 66.7167 17.2143 78.3963 33.6516 87.4705C32.6953 99.2001 32.1582 113.447 32.1862 125.54C44.4248 136.892 62.0322 145.1 82.2389 148.173C79.2601 139.58 74.9137 131.538 69.4033 124.36C58.2048 128.689 46.0121 120.483 45.9322 108.262C45.8983 102.88 45.9322 98.7529 46.068 94.1529C82.1471 113.455 90.796 147.969 91.1993 149.181C94.0923 149.393 97.0252 149.502 99.992 149.502C102.967 149.502 105.906 149.393 108.803 149.179C109.202 147.983 117.845 113.429 153.932 94.1509C154.068 98.7509 154.102 102.876 154.066 108.26C153.988 120.591 141.697 128.649 130.597 124.358C125.086 131.536 120.74 139.578 117.759 148.171C137.968 145.098 155.575 136.888 167.814 125.538C167.842 113.445 167.305 99.2001 166.348 87.4705C182.786 78.3963 200.076 66.7167 200 45.0165Z" fill="#93D500"/>
</svg>
