<svg width="134" height="70" viewBox="0 0 134 70" fill="none" xmlns="http://www.w3.org/2000/svg">
<path d="M111.465 52.1694H109.773V28.7201C110.347 28.8894 110.911 29.0787 111.465 29.2894V52.1694ZM107.057 0.578718V7.70138H124.409C121.177 14.5414 114.755 19.5787 107.057 20.8827V20.888V23.6281V23.6334C107.064 23.6321 107.069 23.6321 107.076 23.6307C115.719 24.8587 125.345 30.7121 129.375 41.7174V7.25339C126.317 15.6081 120.308 20.0574 116.861 22.0081C117.817 22.4574 118.748 22.9521 119.652 23.4894C122.293 21.7921 124.656 19.7001 126.66 17.2974V31.6707C123.007 27.2947 118.16 23.9534 112.62 22.1454C120.176 19.1947 126.043 12.8454 128.331 4.98539H109.773V3.29338H131.067V52.0961H129.375L129.372 51.0734C129.249 38.0401 119.595 27.2454 107.057 25.3401V54.8841H114.181V30.5254C121.607 34.4921 126.66 42.3161 126.66 51.3227V54.8107H133.783V0.578718H107.057ZM92.0039 0.578718H99.1266V54.8841H92.0039V51.3227C92.0039 40.6281 84.8786 31.6001 75.1173 28.7201V52.1694H76.8093V31.1174C77.7493 31.5081 78.6559 31.9627 79.5253 32.4761V54.8841H72.4026V25.3401C84.8146 27.2267 94.4039 37.8267 94.7106 50.6867L94.7186 52.1694H96.4106V3.29338H94.7186V41.7174C93.8813 39.4267 92.0879 35.4134 88.2173 31.5427C82.1186 25.4427 75.2546 24.0307 72.4026 23.6281V0.578718H79.5253V20.8907C78.6306 20.5654 77.7253 20.2801 76.8093 20.0347V3.29338H75.1173V21.3641C81.8439 22.8574 87.7386 26.5601 92.0039 31.6707V0.578718ZM60.0639 3.29338H61.7559V52.1694H49.1399C48.7093 60.1814 42.0893 66.7067 33.7813 66.7067C25.2773 66.7067 18.3973 59.8254 18.3973 51.3227C18.3973 42.8201 25.2773 35.9401 33.7813 35.9401C42.0946 35.9401 48.7093 42.4721 49.1399 50.4774H60.0479C59.6719 38.6654 51.4666 28.7974 40.4613 25.9027V3.29338H42.1533V24.6227C44.7253 25.4281 49.2759 27.2561 53.5613 31.5427C57.4333 35.4134 59.2253 39.4281 60.0639 41.7174V3.29338ZM57.3479 31.6707C54.0426 27.7121 49.7599 24.5974 44.8693 22.7014V0.578718H37.7466V28.0894C47.7186 29.7801 55.5573 37.7334 57.0786 47.7614H51.5279C49.8733 39.4721 42.5573 33.2241 33.7813 33.2241C23.7853 33.2241 15.6826 41.3281 15.6826 51.3227C15.6826 61.3187 23.7853 69.4214 33.7813 69.4214C42.5573 69.4214 49.8733 63.1747 51.5279 54.8841H64.4706V0.578718H57.3479V31.6707ZM5.81861 52.1694L5.80528 51.3227C5.80661 47.8134 6.49728 39.0441 13.9999 31.5427C18.2866 27.2561 22.8346 25.4281 25.4079 24.6227V4.98539H4.67594L4.07195 3.29338H27.0999V25.9027C15.8333 28.8667 7.49862 39.1387 7.49862 51.3227V52.1694H5.81861ZM29.8146 28.0894V0.578718H0.217285L2.76261 7.70138H22.6919V22.7014C15.1853 25.6121 9.10928 31.3881 5.80528 38.6881V13.5147H7.49862V32.4054C8.32662 31.2561 9.23194 30.16 10.2133 29.12V10.8001H3.09062V54.8841H10.1826H10.2133V51.3227C10.2133 39.6587 18.6879 29.9761 29.8146 28.0894ZM35.1386 49.9654V47.2961C37.7013 47.0507 40.2079 46.1081 42.3506 44.4694C43.5879 46.0147 44.4146 47.9014 44.6693 49.9654H35.1386ZM35.1386 55.3507V52.6814H44.6693C44.4146 54.7454 43.5879 56.6321 42.3506 58.1774C40.2079 56.5387 37.7013 55.5961 35.1386 55.3507ZM35.1386 58.0841C36.9879 58.3041 38.7933 58.9747 40.3759 60.0974C38.8813 61.2227 37.0879 61.9721 35.1386 62.2121V58.0841ZM32.4226 58.0841V62.2121C30.4733 61.9721 28.6813 61.2227 27.1853 60.0974C28.7679 58.9747 30.5733 58.3041 32.4226 58.0841ZM32.4226 52.6814V55.3507C29.8599 55.5961 27.3533 56.5387 25.2106 58.1774C23.9733 56.6321 23.1466 54.7454 22.8919 52.6814H32.4226ZM32.4226 47.2961V49.9654H22.8919C23.1466 47.9014 23.9733 46.0147 25.2106 44.4694C27.3533 46.1081 29.8599 47.0507 32.4226 47.2961ZM32.4226 44.5627C30.5733 44.3427 28.7679 43.6721 27.1853 42.5494C28.6813 41.4241 30.4733 40.6747 32.4226 40.4347V44.5627ZM35.1386 40.4347C37.0879 40.6747 38.8813 41.4241 40.3759 42.5494C38.7933 43.6721 36.9879 44.3427 35.1386 44.5627V40.4347ZM33.7813 37.6321C26.2319 37.6321 20.0893 43.7734 20.0893 51.3227C20.0893 58.8721 26.2319 65.0147 33.7813 65.0147C41.3306 65.0147 47.4719 58.8721 47.4719 51.3227C47.4719 43.7734 41.3306 37.6321 33.7813 37.6321Z" fill="white"/>
</svg>
