<svg width="400" height="400" viewBox="0 0 400 400" fill="none" xmlns="http://www.w3.org/2000/svg">
<g clip-path="url(#clip0_15_2)">
<mask id="mask0_15_2" style="mask-type:luminance" maskUnits="userSpaceOnUse" x="0" y="0" width="400" height="400">
<path d="M0 0H400V400H0V0Z" fill="white"/>
</mask>
<g mask="url(#mask0_15_2)">
<path d="M204.629 306.851C201.489 307.024 198.512 307.024 195.369 306.851C181.083 267.684 151.854 235.318 114.278 217.075C115.3 195.455 124.42 175.966 138.584 161.409C151.349 169.535 160.792 181.799 165.865 195.573C152.828 198.985 140.865 204.224 130.63 211.009C134.147 213.005 137.575 215.133 140.916 217.388C149.068 212.679 158.687 209.354 169.027 207.21C170.886 217.637 170.337 228.46 166.833 238.701C169.74 241.567 172.474 244.518 175.167 247.556C181.188 233.862 182.888 219.269 180.901 205.329C185.111 204.834 189.379 204.498 193.688 204.342L193.874 273.428C196.046 277.073 198.084 280.852 199.994 284.669C201.904 280.852 203.946 277.073 206.115 273.428L206.303 204.342C210.609 204.498 214.871 204.834 219.078 205.329C217.094 219.269 218.79 233.862 224.815 247.556C227.508 244.518 230.242 241.567 233.149 238.701C229.645 228.46 229.092 217.637 230.955 207.21C241.295 209.354 250.91 212.679 259.062 217.388C262.407 215.133 265.835 213.005 269.352 211.009C259.113 204.224 247.154 198.985 234.114 195.573C239.193 181.796 248.639 169.526 261.41 161.399C275.578 175.956 284.701 195.449 285.72 217.068C248.105 235.318 218.873 267.678 204.629 306.851ZM206.488 135.665C223.237 136.926 238.631 143.002 251.335 152.531C237.005 162.623 226.901 176.975 221.895 192.986C216.829 192.165 211.635 191.638 206.338 191.395L206.488 135.665ZM193.653 191.395C188.35 191.638 183.156 192.165 178.083 192.986C173.081 176.978 162.98 162.629 148.656 152.538C161.361 143.009 176.755 136.93 193.503 135.665L193.653 191.395ZM360 152.822C359.891 121.207 332.566 93.7569 313.914 81.6085H301.807C316.434 96.8587 323.568 110.493 321.494 123.82C318.709 141.718 295.635 145.88 273.575 155.25C255.465 135.058 229.198 122.322 200 122.322C170.803 122.322 144.536 135.058 126.426 155.25C104.362 145.88 81.2921 141.721 78.5066 123.82C76.4334 110.493 83.5666 96.8587 98.1939 81.6085H86.087C67.4347 93.7569 40.1095 121.207 40.0009 152.822C39.8795 187.542 67.5433 206.23 93.8431 220.748C92.3129 239.516 91.4536 262.311 91.4983 281.66C111.08 299.823 139.252 312.956 171.583 317.872C166.817 304.123 159.862 291.256 151.046 279.772C133.128 286.698 113.62 273.568 113.492 254.015C113.438 245.403 113.492 238.8 113.709 231.44C171.436 262.324 185.274 317.546 185.919 319.485C190.548 319.824 195.241 320 199.988 320C204.747 320 209.45 319.824 214.085 319.482C214.724 317.569 228.552 262.282 286.292 231.437C286.509 238.797 286.563 245.397 286.506 254.012C286.381 273.741 266.716 286.634 248.955 279.769C240.139 291.253 233.184 304.12 228.415 317.869C260.749 312.953 288.921 299.817 308.503 281.657C308.547 262.308 307.688 239.516 306.158 220.748C332.458 206.23 360.121 187.542 360 152.822Z" fill="white"/>
</g>
</g>
<defs>
<clipPath id="clip0_15_2">
<rect width="400" height="400" fill="white"/>
</clipPath>
</defs>
</svg>
