<svg width="300" height="160" viewBox="0 0 300 160" fill="none" xmlns="http://www.w3.org/2000/svg">
<path d="M35.2307 16.1546C34.6517 17.1359 34.9991 17.9441 38.1835 22.7354C42.3522 28.8544 43.0469 30.4708 47.2156 43.6902C51.4422 56.9673 54.974 63.779 60.5322 69.3208C65.6851 74.4584 70.4328 77.2293 78.6543 80.0002C81.8387 81.097 84.6178 81.9629 84.7915 81.9629C84.9073 81.9629 84.9073 81.4434 84.7336 80.7506C84.3862 79.5384 85.3126 76.7675 86.0653 76.7675C86.239 76.7675 86.6443 76.9984 86.9916 77.3448C87.3969 77.7488 87.9759 75.6707 88.8444 71.2835C91.3919 58.4682 95.0974 48.5969 99.0924 44.3252C99.9029 43.4593 100.54 42.6511 100.54 42.5356C100.54 42.4202 99.4976 42.5934 98.2239 42.882C96.4869 43.3438 95.0974 43.3438 92.6078 42.7665C86.7601 41.3811 84.8494 41.3234 82.823 42.4202C81.086 43.3438 80.8544 43.3438 78.4806 42.3047C75.3541 40.9193 70.0854 36.9362 61.8638 29.8358C53.9318 23.024 50.8632 20.7727 45.7682 18.2327C42.468 16.6164 38.0677 15.1155 36.2729 15.0001C36.0992 15.0001 35.636 15.5196 35.2307 16.1546Z" fill="#0F524D"/>
<path d="M259.769 15.8074C253.574 17.5392 247.552 21.4069 236.899 30.5854C229.372 37.0508 224.74 40.5144 221.035 42.3617C219.182 43.343 218.951 43.343 216.866 42.4194C214.55 41.3226 213.219 41.3803 206.908 42.7657C204.534 43.343 202.971 43.343 201.407 42.9389L199.149 42.3617L201.697 45.9407C205.923 51.9443 209.166 61.4114 211.192 73.4186C211.829 77.1708 212.061 77.7481 212.755 77.2285C213.856 76.3049 215.303 78.2099 215.071 80.2303C214.898 81.9044 214.724 81.9044 220.224 80.288C227.867 78.0367 233.541 74.7463 238.694 69.6086C245.526 62.7969 247.784 58.3519 253.4 40.6876C256.469 30.9318 258.032 27.5259 262.2 21.5801C264.69 18.001 264.98 17.3083 264.459 16.2115C263.706 14.8261 263.416 14.8261 259.769 15.8074Z" fill="#0F524D"/>
<path d="M137.601 20.7719C130.596 22.2728 123.416 25.2745 117.511 29.2577L115.079 30.9317L119.016 31.9131C128.743 34.4531 133.317 39.7062 136.444 51.771L137.08 54.1956L141.828 53.9069C144.433 53.7337 146.923 53.5028 147.328 53.3297C147.849 53.2142 148.023 49.2888 148.023 36.358V19.6173L145.302 19.6751C143.739 19.6751 140.323 20.1946 137.601 20.7719Z" fill="#0F524D"/>
<path d="M151.953 36.4167C151.837 45.6529 151.895 53.2729 152.069 53.3883C152.242 53.446 154.674 53.6192 157.511 53.7347L162.606 53.9656L163.648 49.867C166.312 39.4185 170.654 34.7426 180.323 31.9717L184.607 30.7595L181.77 29.0277C176.675 25.8527 174.996 24.9868 170.886 23.3705C166.427 21.6387 157.627 19.6183 154.269 19.6183H152.127L151.953 36.4167Z" fill="#0F524D"/>
<path d="M107.778 37.5716C100.02 45.7687 94.6355 56.3327 92.667 67.1276L92.2617 69.3789L95.0408 67.243C101.757 62.1631 110.847 58.8149 126.016 55.9286C129.664 55.2359 132.906 54.4855 133.138 54.2545C133.833 53.6773 132.501 48.7705 130.532 44.5565C127.811 38.7838 122.542 35.4357 113.8 33.8193C111.773 33.473 111.542 33.5884 107.778 37.5716Z" fill="#0F524D"/>
<path d="M183.338 34.3376C173.727 36.7044 169.442 40.9184 166.895 50.5011C166.316 52.7524 166.2 54.0224 166.605 54.311C166.953 54.4842 171.121 55.4655 175.985 56.4469C189.88 59.2755 197.812 62.2773 204.065 67.0109C207.655 69.724 207.771 69.4354 205.629 61.9886C203.892 56.0428 201.112 49.8661 197.986 45.1325C195.438 41.3225 188.143 33.4717 187.159 33.5294C186.812 33.5294 185.075 33.9335 183.338 34.3376Z" fill="#0F524D"/>
<path d="M140.093 57.5441L137.082 57.775L136.387 61.0654C136.04 62.8549 135.287 65.5681 134.708 67.1267L133.666 69.8398L136.908 67.4731C138.761 66.2031 141.945 63.9517 144.146 62.5086C147.098 60.4881 148.025 59.5068 148.025 58.5254C148.025 57.0245 147.909 57.0245 140.093 57.5441Z" fill="#0F524D"/>
<path d="M151.784 58.4106C151.842 59.392 153.347 60.7774 157.342 63.6637C160.353 65.8574 163.537 68.1664 164.463 68.8014L166.085 70.0137L165.448 68.8014C165.1 68.1664 164.29 65.511 163.653 62.8556C163.074 60.2579 162.495 58.0643 162.379 58.0065C162.263 57.8911 159.832 57.6602 156.937 57.4293L151.668 57.0252L151.784 58.4106Z" fill="#0F524D"/>
<path d="M123.406 59.7381C119.585 60.4308 114.49 61.5853 112.116 62.3358C106.326 64.0676 98.6256 68.0507 94.9202 71.3411C92.0253 73.8233 91.8516 74.112 91.8516 76.7097V79.4806L97.5256 80.7505C102.679 81.9628 119.064 84.8491 120.627 84.8491C121.959 84.8491 129.485 71.5143 131.454 65.6262C131.975 64.1253 132.554 61.8739 132.728 60.604C133.191 57.7754 133.365 57.8331 123.406 59.7381Z" fill="#0F524D"/>
<path d="M166.55 59.0453C166.55 60.8349 168.46 66.8384 170.371 70.8793C172.803 76.1901 178.187 84.8491 178.998 84.8491C180.503 84.8491 196.946 81.9051 202.041 80.7505L207.657 79.4805V76.7674C207.657 74.5161 207.368 73.8233 205.805 72.3225C198.915 65.9148 190.578 62.3935 175.929 59.7381C167.013 58.064 166.55 58.064 166.55 59.0453Z" fill="#0F524D"/>
<path d="M142.574 66.4925C136.842 70.9374 133.021 74.7474 128.504 80.6355L124.915 85.3113L126.71 85.6577C127.694 85.8309 129.315 86.0041 130.299 86.0041C132.673 86.0041 133.831 86.8122 133.31 88.0245C133.021 88.8327 132.442 88.9481 129.315 88.6018C118.314 87.4472 93.7077 82.7714 89.5969 81.0396C88.4969 80.5778 87.5705 80.2891 87.5126 80.3469C87.3968 80.4623 88.0916 85.1959 89.0759 90.9108C90.2917 98.473 91.0444 101.475 91.7392 102.052C93.8235 103.611 105.461 106.786 117.62 109.037C134.931 112.27 138.463 113.309 144.426 117.003L147.437 118.908V90.9108C147.437 75.4978 147.379 62.9134 147.321 62.9712C147.206 62.9712 145.121 64.5298 142.574 66.4925ZM141.532 74.8051C144.021 76.5369 141.763 80.1737 138.926 79.0191C137.247 78.3842 137.073 75.3824 138.637 74.5165C139.968 73.7083 140.026 73.7083 141.532 74.8051ZM106.04 92.2963C112.177 97.2607 112.409 97.3762 113.74 96.5103L115.072 95.6444L113.046 93.5662C111.077 91.6035 110.382 90.0449 111.425 90.0449C111.656 90.0449 112.988 90.9685 114.377 92.0654C115.767 93.1622 117.041 94.0858 117.214 94.0858C117.388 94.0858 118.662 93.1622 120.051 92.0076L122.599 89.9295L126.015 92.8735C127.868 94.4899 129.662 95.8176 129.952 95.8176C130.299 95.8176 131.805 95.298 133.31 94.663C135.336 93.7971 136.437 93.624 137.537 93.9703C138.984 94.4899 138.868 94.6053 135.394 96.2794L131.805 98.0112L139.042 104.765C144.021 109.441 146.163 111.75 145.758 112.154C145.353 112.558 144.716 112.385 143.848 111.635C136.031 104.707 129.431 99.2812 128.968 99.2812C128.62 99.2812 126.941 99.9739 125.146 100.84L121.962 102.398L119.646 100.147L117.388 97.9535L115.072 99.5121C112.409 101.359 113.046 101.59 105.808 95.933C102.798 93.624 100.192 91.9499 99.9607 92.1808C99.7291 92.4117 98.9185 94.259 98.2238 96.2217C97.4132 98.473 96.6026 99.8584 96.0815 99.8584C95.5604 99.8584 95.3289 99.5121 95.5025 99.108C95.6183 98.7616 96.4868 95.8753 97.4132 92.7581C98.2817 89.6986 99.1501 87.1586 99.3238 87.1586C99.4975 87.2163 102.508 89.5254 106.04 92.2963Z" fill="#0F524D"/>
<path d="M121.209 94.8933L119.646 96.1633L121.325 97.7797L123.004 99.396L125.088 98.2992L127.23 97.2024L125.03 95.4129L122.772 93.6233L121.209 94.8933Z" fill="#0F524D"/>
<path d="M152.071 90.795V118.85L156.008 116.541C161.393 113.366 166.546 111.865 181.599 109.094C193.932 106.785 205.627 103.668 207.827 102.052C208.522 101.474 209.275 98.5881 210.548 90.9682C211.475 85.311 212.285 80.5774 212.285 80.4619C212.285 80.3465 211.243 80.6351 209.969 81.0969C203.948 83.2328 177.315 88.0818 170.02 88.4282C166.604 88.6014 166.256 88.4859 166.256 87.4468C166.256 86.4655 166.777 86.2346 170.193 85.8882C172.394 85.715 174.304 85.4264 174.42 85.2532C174.536 85.1378 172.451 82.3092 169.73 78.9033C165.33 73.477 161.277 69.667 154.271 64.4139L152.071 62.7976V90.795ZM160.698 74.4584C162.146 75.2088 162.609 76.5942 161.914 77.8642C161.103 79.4806 159.135 79.7692 157.803 78.4415C156.414 77.056 156.414 76.4788 157.861 75.0356C159.193 73.7079 159.309 73.7079 160.698 74.4584ZM202.327 93.1618C204.469 100.089 204.411 99.8581 203.427 99.8581C203.022 99.8581 202.037 98.184 201.343 96.1058C200.59 94.0277 199.779 92.2381 199.548 92.065C199.316 91.8918 196.479 93.8545 193.237 96.3945C190.052 98.9344 187.273 101.013 187.1 101.013C186.926 101.013 185.71 100.32 184.436 99.454L182.12 97.9531L179.862 100.147L177.662 102.283L174.362 100.782C172.509 99.9735 170.83 99.2808 170.599 99.2808C170.309 99.2808 167.009 101.936 163.246 105.169C153.982 113.135 154.445 112.847 153.808 112.212C153.461 111.865 155.95 109.094 160.582 104.765L167.877 97.8953L164.172 96.2213C160.64 94.6049 160.524 94.4895 161.972 94.0277C163.072 93.6236 164.172 93.7968 166.198 94.6627C167.704 95.2976 169.209 95.8172 169.557 95.8172C169.904 95.8172 171.699 94.4895 173.552 92.8731L176.967 89.9291L179.631 92.1227C181.484 93.6236 182.526 94.0854 183.047 93.739C183.452 93.4504 184.726 92.469 185.826 91.6031C188.952 89.1209 189.705 90.2754 186.926 93.1618L184.552 95.5286L185.884 96.4522C187.1 97.3758 187.331 97.3181 193.526 92.3536C197 89.525 200.011 87.2159 200.185 87.2159C200.358 87.1582 201.343 89.8714 202.327 93.1618Z" fill="#0F524D"/>
<path d="M174.767 95.2976C173.783 96.2213 172.914 97.0872 172.914 97.2603C172.914 97.3758 173.725 97.9531 174.651 98.4149C176.33 99.2808 176.504 99.2808 178.125 98.0108C180.209 96.3367 180.209 96.1635 178.241 94.7781L176.677 93.6236L174.767 95.2976Z" fill="#0F524D"/>
<path d="M135.678 124.218C135.447 128.432 135.042 132.704 134.752 133.686C134.231 135.475 134.347 135.591 138.4 138.419C140.658 139.978 143.61 142.114 145 143.153L147.432 145V134.321V123.641L144.421 121.332C141.816 119.427 137.01 116.599 136.257 116.599C136.142 116.599 135.852 120.062 135.678 124.218Z" fill="#0F524D"/>
<path d="M159.193 118.735C157.282 119.947 154.85 121.564 153.866 122.372L152.071 123.873L152.187 134.321L152.361 144.828L158.73 140.152C162.898 137.15 165.04 135.187 164.925 134.552C164.346 130.8 163.651 123.238 163.651 120.178C163.651 118.216 163.419 116.599 163.188 116.599C162.898 116.599 161.103 117.581 159.193 118.735Z" fill="#0F524D"/>
</svg>
