<svg width="530" height="448" viewBox="0 0 530 448" fill="none" xmlns="http://www.w3.org/2000/svg">
<g clip-path="url(#clip0_1019_1008)">
<mask id="mask0_1019_1008" style="mask-type:luminance" maskUnits="userSpaceOnUse" x="0" y="0" width="530" height="448">
<path d="M530 0H0V448H530V0Z" fill="white"/>
</mask>
<g mask="url(#mask0_1019_1008)">
<path d="M241.502 0.722886C178.037 7.40447 117.912 42.416 81.8369 93.5969L75.1562 102.951L80.3672 107.361C86.1124 112.439 106.02 125 108.158 125C108.96 125 113.102 120.189 117.511 114.176C133.143 92.7951 160.4 70.2114 184.584 58.719C263.414 21.4358 356.541 43.8859 408.515 112.973C413.726 119.922 418.135 125.802 418.269 126.069C419.338 127.806 446.728 110.702 450.736 105.757C454.878 100.813 422.01 63.1289 397.693 44.8213C359.614 16.2242 318.194 1.79194 269.827 0.188359C260.341 -0.212536 247.514 0.0547276 241.502 0.722886ZM254.996 15.0215C256.199 22.7721 255.932 32.7945 254.462 32.7945C253.794 32.7945 252.725 30.2555 252.191 27.0483L251.255 21.4358L250.053 27.0483C247.781 38.407 243.773 31.1909 243.773 15.8233C243.773 9.80984 246.846 10.6117 247.915 16.8923C248.45 19.9659 248.85 20.5004 248.984 18.3623C249.118 14.7542 251.389 10.0771 252.992 10.0771C253.66 10.0771 254.462 12.3489 254.996 15.0215ZM275.573 11.6807C276.508 12.6161 277.176 16.8923 277.176 21.5694C277.176 30.5228 275.439 33.329 270.228 32.5272C267.422 32.1263 267.155 31.3246 266.754 23.0394C266.353 13.4179 267.689 10.0771 271.698 10.0771C272.9 10.0771 274.637 10.7453 275.573 11.6807ZM292.274 17.6941C291.606 21.4358 291.873 22.3712 293.343 21.8367C294.412 21.5694 295.347 19.2977 295.614 17.026C295.881 14.2197 296.817 12.7498 298.153 12.7498C299.89 12.7498 300.157 14.0861 299.355 21.0349C298.019 32.5272 297.217 35.7344 295.347 35.0662C294.545 34.799 293.877 32.6609 293.877 30.3891C293.877 24.7766 291.339 24.2421 290.804 29.721C290.537 32.5272 289.602 34.1308 288.399 34.1308C286.662 34.1308 286.395 32.6609 287.197 25.0439C288.399 13.4179 288.934 11.4134 291.205 12.2152C292.408 12.7498 292.808 14.3533 292.274 17.6941ZM230.679 15.0215C233.352 17.4269 233.886 20.7677 231.615 20.7677C230.679 20.7677 229.21 19.6986 228.274 18.3623C226.671 16.3578 226.537 16.4914 226.671 20.0995C226.805 26.5138 228.274 32.1263 229.744 31.7255C230.412 31.5918 231.08 30.3891 231.08 29.1864C231.08 27.9838 231.882 26.7811 232.817 26.3802C234.153 25.9793 234.554 27.0483 234.153 30.2555C233.886 33.9972 233.218 34.9326 230.145 35.1999C225.736 35.7344 224.266 33.1954 222.93 23.4403C222.128 17.4269 222.395 16.0906 224.4 14.487C227.606 12.2152 227.74 12.3489 230.679 15.0215ZM320.733 20.634C320.332 21.8367 319.664 26.5138 319.263 31.0573C318.595 36.9371 317.794 39.4761 316.457 39.4761C315.389 39.4761 314.587 38.6743 314.587 37.6052C314.587 34.3981 311.915 33.5963 310.044 36.2689C306.169 41.4806 306.971 35.3335 311.247 26.3802C315.121 18.3623 316.19 17.026 318.595 17.6941C320.332 18.095 321.134 19.1641 320.733 20.634ZM210.37 20.0995C211.306 21.1686 211.573 23.173 211.038 24.3757C210.237 26.6474 210.103 26.6474 208.233 24.2421C205.293 20.2331 204.625 22.6385 206.629 29.721C208.366 35.868 211.038 38.0061 211.038 33.1954C211.038 31.9927 211.84 30.79 212.775 30.3891C215.581 29.4537 214.245 38.2734 211.306 40.0106C209.302 41.2133 208.366 40.946 206.362 38.5407C202.755 34.1308 200.216 22.6385 202.354 20.0995C204.492 17.5605 208.233 17.5605 210.37 20.0995ZM341.175 24.9102C343.447 25.712 345.317 26.9147 345.317 27.5829C345.317 28.7856 338.637 46.2913 337.702 47.3603C337.434 47.7612 336.633 47.3603 335.831 46.5586C334.896 45.6231 335.43 42.6832 337.835 36.9371C339.973 31.5918 340.507 28.7856 339.572 28.7856C338.637 28.7856 336.766 31.9927 335.297 35.7344C333.292 40.946 331.823 42.9505 329.551 43.2178C326.345 43.7523 325.276 40.2779 328.349 39.0752C329.418 38.6743 331.555 35.0662 333.292 30.9237C334.896 26.7811 336.365 23.4403 336.633 23.4403C336.766 23.4403 338.77 24.1084 341.175 24.9102ZM189.661 25.9793C190.062 26.6474 189.126 27.5829 187.657 28.1174C184.717 29.0528 184.45 29.8546 186.053 32.5272C186.721 33.4627 188.191 33.8636 189.394 33.329C190.997 32.7945 191.665 33.1954 191.665 34.6653C191.665 35.868 190.997 36.8035 190.195 36.8035C189.394 36.8035 188.993 38.1398 189.26 39.7433C189.527 41.4806 190.462 42.6832 191.398 42.416C192.199 42.2823 193.669 42.0151 194.471 41.7478C195.272 41.6142 196.208 42.1487 196.609 42.9505C197.143 44.4205 189.527 48.4294 188.325 47.2267C187.924 46.9595 185.92 42.416 183.782 37.2043L179.907 27.7165L182.847 26.3802C186.454 24.5093 188.592 24.5093 189.661 25.9793ZM359.347 35.0662C357.342 39.877 357.075 42.1487 358.411 42.1487C362.42 42.1487 360.015 52.9729 355.739 54.5765C353.601 55.2446 347.99 52.8392 347.99 51.3693C347.99 48.4294 356.808 32.7945 358.411 32.7945C359.747 32.7945 360.015 33.5963 359.347 35.0662ZM172.959 41.3469C175.765 46.024 176.567 51.5029 174.429 51.5029C173.761 51.5029 172.959 52.4384 172.692 53.7747C172.158 56.5809 165.076 57.1155 162.003 54.5765C157.995 51.102 156.392 45.3559 158.396 41.0797C159.866 37.7389 160.934 37.0707 165.21 37.0707C169.486 36.9371 170.554 37.6052 172.959 41.3469ZM378.72 44.8213C378.72 45.6231 377.785 47.6276 376.582 49.3648C374.979 51.9038 374.979 52.8392 376.182 53.641C377.117 54.1756 378.052 54.0419 378.319 53.2401C379.522 49.7657 382.595 46.8258 383.931 48.1621C384.866 49.0976 383.664 51.9038 380.591 56.8482C378.052 60.8571 375.38 65.1334 374.712 66.2024C373.777 67.6724 373.108 67.806 372.04 66.7369C370.837 65.5343 370.971 64.3316 372.708 61.7926C373.91 59.7881 374.578 57.65 374.044 56.7146C373.376 55.7791 372.04 56.7146 370.436 59.3872C368.967 61.6589 367.23 63.1289 366.428 62.728C364.825 61.6589 365.626 59.7881 371.372 50.8348C375.647 44.0196 378.72 41.6142 378.72 44.8213ZM148.642 53.7747C150.78 56.5809 153.319 60.3226 154.254 62.0598C155.724 64.9997 155.59 65.6679 152.918 67.806C151.314 69.1423 149.444 70.2114 148.776 70.2114C147.44 70.2114 136.884 56.5809 136.884 54.8437C136.884 52.9729 141.16 48.8303 143.031 48.8303C143.966 48.8303 146.504 51.102 148.642 53.7747ZM396.758 62.1935C394.62 64.5988 394.486 65.4006 395.956 67.806C397.426 70.2114 397.292 71.1468 395.021 74.0867C391.814 78.4965 387.939 79.031 384.866 75.6903C382.461 73.0176 382.595 72.7504 389.409 64.8661C394.219 59.2536 396.891 57.1155 397.826 58.0509C398.762 58.9863 398.495 60.3226 396.758 62.1935ZM130.872 65.6679C134.613 69.6768 135.014 71.5477 132.609 73.953C131.406 75.1557 131.674 76.0912 133.411 78.0956C134.747 79.5656 135.415 81.4364 134.88 82.2382C133.811 83.9754 129.536 80.501 123.123 72.3495L118.981 67.1378L122.054 64.7325C126.062 61.3917 126.997 61.5253 130.872 65.6679ZM407.446 67.0042C407.446 67.806 404.373 71.9486 400.499 76.3584C395.956 81.57 393.15 83.7082 392.215 82.9064C391.413 81.9709 393.284 78.7638 397.826 73.2849C404.106 65.8015 407.446 63.6634 407.446 67.0042ZM425.083 77.5611C426.152 78.7638 426.686 80.1001 426.286 80.6346C425.217 81.7037 421.208 79.2983 420.407 77.1602C419.739 74.8885 422.678 75.1557 425.083 77.5611ZM119.916 85.4454C125.394 90.2561 126.73 92.9287 123.523 92.9287C122.855 92.9287 119.515 90.5234 116.175 87.5835C112.701 84.6436 109.227 82.6391 108.425 83.1736C107.624 83.7082 109.761 86.5144 114.171 90.2561C118.313 94.1314 120.851 97.2049 120.317 98.1404C119.381 99.6103 117.645 98.5413 106.288 88.6525L101.878 84.7772L105.486 80.9019C109.628 76.492 109.093 76.3584 119.916 85.4454ZM418.803 78.2293C418.803 79.031 417.2 81.1692 415.196 83.04L411.455 86.2472L416.532 83.9754C420.139 82.3718 421.876 82.1046 422.945 83.1736C424.148 84.3763 422.411 86.648 416.666 91.9933C411.321 96.9377 408.382 98.9422 407.446 98.0067C406.511 97.2049 407.847 95.2005 411.455 91.9933L416.799 87.3162L411.188 90.1225C399.43 96.0023 398.495 93.0624 409.183 83.7082C416.933 76.8929 418.803 75.8239 418.803 78.2293Z" fill="#3D308E"/>
<path d="M271.496 23.5192C271.496 28.4635 272.031 31.2698 272.832 30.7353C273.634 30.3344 274.168 26.5927 274.168 22.5837C274.168 18.5748 273.634 15.3676 272.832 15.3676C272.031 15.3676 271.496 18.9757 271.496 23.5192Z" fill="#3D308E"/>
<path d="M315.321 28.7308C314.385 31.9379 314.92 33.8088 316.39 32.4725C316.79 31.9379 316.924 30.2007 316.657 28.4635L316.256 25.39L315.321 28.7308Z" fill="#3D308E"/>
<path d="M354.334 48.6424C353.532 50.3794 353.532 51.5819 354.2 52.1163C355.403 52.7843 358.342 48.9096 358.342 46.9055C358.342 45.0349 355.67 46.371 354.334 48.6424Z" fill="#3D308E"/>
<path d="M167.279 43.0293C167.279 43.6975 168.482 45.8356 169.952 48.1073C172.891 52.5172 173.559 50.9136 171.02 45.4347C169.684 42.3612 167.279 40.8912 167.279 43.0293Z" fill="#3D308E"/>
<path d="M161.934 46.3702C162.067 48.6419 167.144 55.3235 167.278 53.1854C167.278 50.78 164.339 44.7666 163.002 44.7666C162.468 44.7666 161.934 45.5684 161.934 46.3702Z" fill="#3D308E"/>
<path d="M141.893 54.9226C141.893 56.927 150.176 67.484 151.379 66.8159C152.715 65.8805 145.099 54.1208 143.229 54.1208C142.427 54.1208 141.893 54.5217 141.893 54.9226Z" fill="#3D308E"/>
<path d="M389.741 72.8297C387.871 74.9675 387.737 75.502 389.207 75.502C391.345 75.502 394.418 72.9633 394.418 71.2264C394.418 69.3559 392.28 70.0239 389.741 72.8297Z" fill="#3D308E"/>
<path d="M125.859 68.2866C125.859 70.2907 128.799 74.1655 130.001 73.4974C131.471 72.5621 129.066 67.4849 127.195 67.4849C126.394 67.4849 125.859 67.8857 125.859 68.2866Z" fill="#3D308E"/>
<path d="M0.532372 75.5019C-0.803737 77.7736 -0.00207138 79.6445 7.34653 90.7359C16.9665 104.901 18.5698 108.643 28.1898 139.244C37.9434 169.979 46.0937 185.748 58.9203 198.577C70.8117 210.47 81.7678 216.884 100.741 223.298C108.089 225.837 114.502 227.842 114.903 227.842C115.17 227.842 115.17 226.639 114.77 225.036C113.968 222.229 116.106 215.815 117.843 215.815C118.244 215.815 119.179 216.35 119.98 217.151C120.916 218.087 122.252 213.276 124.256 203.12C130.135 173.454 138.686 150.603 147.905 140.714C149.776 138.71 151.245 136.839 151.245 136.572C151.245 136.304 148.84 136.705 145.901 137.373C141.893 138.442 138.686 138.442 132.941 137.106C119.446 133.899 115.037 133.765 110.36 136.304C106.352 138.442 105.818 138.442 100.34 136.037C93.1247 132.83 80.9661 123.609 61.9934 107.173C43.6887 91.404 36.6073 86.1924 24.8495 80.3126C17.2337 76.5709 7.0793 73.0965 2.93737 72.8292C2.53653 72.8292 1.46765 74.0319 0.532372 75.5019Z" fill="#3D308E"/>
<path d="M518.676 74.7C504.379 78.709 490.484 87.6623 465.899 108.91C448.53 123.876 437.841 131.894 429.29 136.171C425.015 138.442 424.48 138.442 419.67 136.304C414.326 133.765 411.253 133.899 396.689 137.106C391.211 138.442 387.603 138.442 383.996 137.507L378.785 136.171L384.664 144.456C394.418 158.353 401.9 180.269 406.576 208.064C408.046 216.75 408.58 218.087 410.184 216.884C412.722 214.746 416.063 219.156 415.528 223.833C415.127 227.708 414.726 227.708 427.42 223.967C445.056 218.755 458.15 211.138 470.041 199.245C485.807 183.476 491.018 173.187 503.979 132.295C511.06 109.712 514.667 101.827 524.287 88.0632C530.033 79.778 530.701 78.1745 529.498 75.6355C527.761 72.4283 527.093 72.4283 518.676 74.7Z" fill="#3D308E"/>
<path d="M236.758 86.1924C220.591 89.6668 204.023 96.6156 190.395 105.836L184.783 109.712L193.869 111.983C216.315 117.863 226.871 130.024 234.086 157.953L235.555 163.565L246.511 162.897C252.524 162.496 258.269 161.961 259.204 161.561C260.407 161.293 260.808 152.206 260.808 122.273V83.5197L254.528 83.6534C250.921 83.6534 243.038 84.856 236.758 86.1924Z" fill="#3D308E"/>
<path d="M269.893 122.407C269.626 143.788 269.759 161.427 270.16 161.694C270.561 161.828 276.173 162.229 282.72 162.496L294.477 163.031L296.882 153.543C303.028 129.355 313.049 118.531 335.362 112.117L345.249 109.311L338.703 105.302C326.945 97.9519 323.07 95.9474 313.584 92.2058C303.296 88.1968 282.987 83.5197 275.237 83.5197H270.294L269.893 122.407Z" fill="#3D308E"/>
<path d="M167.948 125.079C150.044 144.055 137.619 168.509 133.076 193.499L132.141 198.71L138.554 193.766C154.053 182.006 175.03 174.256 210.036 167.574C218.453 165.97 225.935 164.233 226.47 163.699C228.073 162.362 225 151.004 220.457 141.249C214.178 127.885 202.019 120.135 181.844 116.393C177.167 115.591 176.633 115.859 167.948 125.079Z" fill="#3D308E"/>
<path d="M342.308 117.596C320.128 123.075 310.241 132.83 304.362 155.013C303.026 160.224 302.759 163.164 303.694 163.832C304.496 164.233 314.116 166.505 325.339 168.777C357.406 175.325 375.711 182.274 390.141 193.231C398.424 199.512 398.692 198.844 393.748 181.605C389.74 167.841 383.326 153.543 376.111 142.585C370.233 133.765 353.398 115.591 351.126 115.725C350.325 115.725 346.316 116.66 342.308 117.596Z" fill="#3D308E"/>
<path d="M242.501 171.316L235.553 171.85L233.95 179.467C233.148 183.61 231.411 189.891 230.075 193.499L227.67 199.779L235.152 194.3C239.428 191.361 246.776 186.149 251.853 182.808C258.668 178.131 260.805 175.859 260.805 173.587C260.805 170.113 260.538 170.113 242.501 171.316Z" fill="#3D308E"/>
<path d="M269.49 173.32C269.623 175.592 273.097 178.799 282.317 185.481C289.264 190.559 296.613 195.904 298.751 197.374L302.492 200.18L301.022 197.374C300.22 195.904 298.35 189.757 296.88 183.61C295.544 177.596 294.208 172.518 293.941 172.385C293.673 172.118 288.062 171.583 281.381 171.048L269.223 170.113L269.49 173.32Z" fill="#3D308E"/>
<path d="M204.023 176.394C195.205 177.997 183.447 180.67 177.969 182.407C164.608 186.416 146.838 195.637 138.286 203.254C131.606 209 131.205 209.668 131.205 215.681V222.096L144.299 225.036C156.19 227.842 194.002 234.523 197.61 234.523C200.683 234.523 218.052 203.655 222.595 190.024C223.797 186.55 225.134 181.338 225.534 178.398C226.603 171.85 227.004 171.984 204.023 176.394Z" fill="#3D308E"/>
<path d="M303.562 174.79C303.562 178.933 307.973 192.83 312.382 202.185C317.993 214.479 330.418 234.523 332.289 234.523C335.763 234.523 373.708 227.708 385.466 225.036L398.426 222.096V215.815C398.426 210.603 397.758 209 394.151 205.525C378.251 190.692 359.011 182.541 325.207 176.394C304.631 172.518 303.562 172.518 303.562 174.79Z" fill="#3D308E"/>
<path d="M248.247 192.029C235.02 202.318 226.202 211.138 215.78 224.768L207.496 235.592L211.638 236.394C213.909 236.795 217.65 237.196 219.922 237.196C225.4 237.196 228.072 239.067 226.87 241.873C226.202 243.744 224.865 244.011 217.65 243.209C192.264 240.537 135.48 229.713 125.993 225.704C123.455 224.635 121.317 223.967 121.183 224.1C120.916 224.367 122.519 235.325 124.791 248.555C127.597 266.06 129.334 273.009 130.937 274.346C135.747 277.954 162.603 285.303 190.661 290.515C230.611 297.998 238.761 300.404 252.523 308.956L259.471 313.366V248.555C259.471 212.875 259.337 183.743 259.203 183.877C258.936 183.877 254.126 187.485 248.247 192.029ZM245.842 211.272C251.588 215.28 246.377 223.699 239.83 221.027C235.955 219.557 235.554 212.608 239.162 210.603C242.235 208.733 242.368 208.733 245.842 211.272ZM163.939 251.762C178.102 263.254 178.636 263.521 181.709 261.517L184.782 259.513L180.106 254.702C175.563 250.158 173.96 246.55 176.365 246.55C176.899 246.55 179.972 248.688 183.179 251.227C186.385 253.766 189.325 255.904 189.726 255.904C190.127 255.904 193.066 253.766 196.273 251.094L202.152 246.283L210.035 253.098C214.31 256.84 218.452 259.913 219.12 259.913C219.922 259.913 223.396 258.711 226.87 257.241C231.546 255.236 234.085 254.835 236.623 255.637C239.963 256.84 239.696 257.107 231.68 260.982L223.396 264.991L240.097 280.626C251.588 291.451 256.531 296.796 255.596 297.731C254.661 298.667 253.191 298.266 251.187 296.529C233.149 280.493 217.918 267.931 216.849 267.931C216.047 267.931 212.172 269.535 208.03 271.539L200.682 275.147L195.337 269.936L190.127 264.858L184.782 268.466C178.636 272.742 180.106 273.277 163.404 260.181C156.457 254.835 150.444 250.96 149.91 251.495C149.375 252.029 147.505 256.305 145.901 260.849C144.031 266.06 142.16 269.268 140.958 269.268C139.755 269.268 139.221 268.466 139.622 267.53C139.889 266.729 141.893 260.047 144.031 252.831C146.035 245.748 148.039 239.869 148.44 239.869C148.841 240.002 155.789 245.348 163.939 251.762Z" fill="#3D308E"/>
<path d="M198.945 257.775L195.338 260.715L199.213 264.457L203.087 268.199L207.897 265.66L212.841 263.121L207.764 258.978L202.553 254.835L198.945 257.775Z" fill="#3D308E"/>
<path d="M270.158 248.288V313.232L279.244 307.887C291.67 300.537 303.561 297.063 338.3 290.649C366.759 285.303 393.748 278.087 398.825 274.346C400.429 273.009 402.166 266.328 405.105 248.688C407.243 235.593 409.113 224.635 409.113 224.367C409.113 224.1 406.709 224.768 403.769 225.837C389.874 230.782 328.413 242.007 311.578 242.809C303.695 243.21 302.893 242.942 302.893 240.537C302.893 238.265 304.095 237.731 311.978 236.929C317.056 236.528 321.465 235.86 321.732 235.459C321.999 235.192 317.189 228.644 310.91 220.759C300.755 208.198 291.402 199.378 275.235 187.218L270.158 183.476V248.288ZM290.066 210.47C293.406 212.207 294.475 215.414 292.872 218.354C291.001 222.096 286.459 222.764 283.386 219.69C280.179 216.483 280.179 215.147 283.519 211.806C286.592 208.733 286.86 208.733 290.066 210.47ZM386.132 253.766C391.076 269.802 390.942 269.268 388.671 269.268C387.736 269.268 385.464 265.392 383.861 260.582C382.124 255.771 380.254 251.628 379.719 251.227C379.185 250.827 372.638 255.37 365.156 261.25C357.807 267.13 351.394 271.94 350.993 271.94C350.592 271.94 347.786 270.337 344.847 268.332L339.502 264.858L334.291 269.936L329.214 274.88L321.598 271.406C317.323 269.535 313.448 267.931 312.914 267.931C312.246 267.931 304.63 274.078 295.945 281.562C274.567 300.003 275.636 299.335 274.167 297.865C273.365 297.063 279.11 290.649 289.799 280.626L306.634 264.724L298.083 260.849C289.933 257.107 289.665 256.84 293.006 255.771C295.544 254.835 298.083 255.236 302.759 257.241C306.233 258.711 309.707 259.913 310.509 259.913C311.31 259.913 315.452 256.84 319.728 253.098L327.611 246.283L333.757 251.361C338.033 254.835 340.438 255.905 341.64 255.103C342.575 254.435 345.515 252.163 348.053 250.158C355.268 244.412 357.005 247.085 350.592 253.766L345.114 259.245L348.187 261.383C350.993 263.522 351.527 263.388 365.824 251.896C373.84 245.348 380.788 240.002 381.189 240.002C381.59 239.869 383.861 246.149 386.132 253.766Z" fill="#3D308E"/>
<path d="M322.533 258.711C320.262 260.849 318.258 262.853 318.258 263.254C318.258 263.522 320.128 264.858 322.266 265.927C326.141 267.931 326.542 267.931 330.283 264.991C335.093 261.116 335.093 260.715 330.55 257.508L326.943 254.835L322.533 258.711Z" fill="#3D308E"/>
<path d="M42.4863 202.804C41.1502 214.564 41.6847 239.82 43.5552 254.52C55.313 342.449 117.041 413.942 203.354 439.466C236.222 449.221 274.702 450.691 309.975 443.475C337.098 437.996 371.035 423.296 393.749 407.127C416.062 391.091 442.116 362.895 456.413 339.108C479.394 300.756 491.152 250.377 487.143 207.615L486.208 198.795L481.532 204.007C476.054 210.154 463.227 219.909 453.741 225.254L446.926 229.13L446.125 240.221C443.185 282.315 424.48 322.271 393.215 353.407C365.157 381.336 331.62 398.708 293.14 404.989C277.641 407.528 241.166 406.86 227.404 403.652C193.333 395.768 163.939 380.267 139.755 357.015C111.43 330.021 93.5257 297.683 85.7763 259.865C84.3065 252.649 83.104 244.096 83.104 240.755C83.104 229.263 82.1688 227.392 74.0185 222.849C65.2002 218.038 55.1794 209.619 48.2316 201.601L43.4216 195.989L42.4863 202.804ZM91.7887 307.972C94.3274 312.783 94.3274 313.317 91.9224 313.317C90.8535 313.317 89.5174 312.115 89.1165 310.645C87.7804 306.502 83.2377 309.442 84.0393 313.852C84.5738 316.525 83.9057 317.594 80.2982 319.331C75.8891 321.603 75.8891 321.603 72.816 318.128C71.0791 316.124 69.743 313.986 69.743 313.451C69.743 312.516 86.7115 303.963 88.7157 303.963C89.2501 303.963 90.5862 305.7 91.7887 307.972ZM448.931 309.442C454.676 311.179 458.551 313.05 458.551 314.119C458.551 315.188 457.348 315.99 455.878 315.99C453.073 315.99 452.137 319.197 454.542 320.667C455.344 321.202 455.611 322.137 455.077 322.805C454.676 323.473 450.267 321.202 445.457 317.861C440.513 314.386 436.371 311.447 436.104 311.313C435.436 310.778 437.44 306.636 438.375 306.636C438.776 306.636 443.586 307.972 448.931 309.442ZM440.246 328.551C444.388 331.224 447.862 333.897 447.862 334.565C447.862 337.104 445.858 337.104 442.517 334.699C439.311 332.427 437.173 332.293 437.173 334.699C437.173 335.099 439.043 336.569 441.315 337.906C443.987 339.509 444.922 340.846 444.121 341.647C442.517 343.251 425.148 333.496 425.148 330.957C425.148 328.819 427.82 328.952 431.027 331.358C433.432 333.229 435.837 332.961 435.837 330.823C435.837 330.289 434.367 329.086 432.496 328.284C430.626 327.482 429.156 325.745 429.156 324.543C429.156 321.87 430.626 322.404 440.246 328.551ZM101.542 325.745C102.745 327.082 101.275 329.086 95.129 334.431C90.8535 338.307 86.7115 341.38 85.9099 341.38C84.0393 341.38 84.0393 339.108 85.7763 338.039C88.0476 336.703 85.6426 333.229 82.9704 334.03C81.3671 334.565 80.4318 334.298 80.4318 333.095C80.4318 332.16 84.1729 329.754 88.8493 327.75C98.6029 323.607 99.6718 323.473 101.542 325.745ZM112.231 341.647C114.503 343.919 114.235 347.394 111.83 349.398C109.025 351.67 107.555 349.933 109.559 346.725C110.895 344.587 110.895 344.053 109.425 344.053C106.887 344.053 97.6676 352.071 98.6029 353.541C99.0037 354.342 100.073 354.209 101.275 353.273C103.68 351.402 105.15 352.472 103.947 355.411C102.878 358.351 96.5987 357.55 94.5946 354.342C93.3921 352.204 94.0601 351.002 99.8054 345.924C106.62 339.91 109.425 338.841 112.231 341.647ZM426.217 347.26C431.695 354.209 433.298 359.019 430.492 360.757C429.691 361.158 428.622 360.089 427.954 358.351C427.152 356.213 424.613 354.342 420.204 352.739C412.455 349.933 410.584 348.463 413.39 347.394C414.593 346.859 417.532 347.527 420.071 348.73L424.48 351.002L420.872 347.126C418.735 344.988 417.131 342.583 417.131 341.647C417.131 338.173 420.739 340.445 426.217 347.26ZM124.523 355.679C124.523 356.213 123.187 357.95 121.718 359.688L118.778 362.628L122.92 361.158C125.86 359.955 127.596 359.955 128.532 360.89C129.467 361.826 128.398 362.761 124.791 363.83C120.515 365.167 119.179 366.369 117.442 370.779C116.373 373.719 114.77 376.124 113.968 376.124C112.098 376.124 112.098 372.65 113.968 369.042C115.571 366.236 115.438 366.236 112.899 368.374C110.093 370.913 107.154 371.581 107.154 369.576C107.154 367.706 120.916 354.743 122.92 354.743C123.722 354.743 124.523 355.144 124.523 355.679ZM411.787 360.757C414.593 363.697 414.86 364.632 413.39 366.904C411.92 369.175 412.054 369.977 414.726 372.115C417.131 373.986 417.398 374.922 416.196 376.258C414.993 377.461 412.989 376.258 406.843 370.378C399.227 363.028 399.227 362.895 401.632 360.222C404.973 356.48 407.912 356.748 411.787 360.757ZM143.229 375.723C143.229 377.995 141.893 377.995 139.221 375.456C137.35 373.719 136.949 373.853 135.479 376.124C134.544 377.728 134.411 378.797 135.212 378.797C135.88 378.797 136.548 379.732 136.548 380.801C136.548 383.073 134.945 383.34 133.075 381.47C130.536 378.931 127.997 383.34 130.135 386.681C132.674 390.957 130.135 391.759 126.26 387.884L122.786 384.409L130.001 376.258L137.083 368.106L140.156 371.046C141.893 372.65 143.229 374.654 143.229 375.723ZM383.06 380C383.461 380.801 382.526 382.004 380.923 382.806C378.384 384.276 378.25 384.543 380.121 386.548C381.858 388.285 382.66 388.285 384.397 386.815C386.133 385.345 386.935 385.612 389.741 388.151C393.883 392.16 394.017 394.833 389.875 398.708L386.534 401.782L380.522 393.496C377.182 388.953 374.376 384.677 374.376 384.009C374.376 382.806 379.72 378.797 381.323 378.797C381.858 378.797 382.526 379.331 383.06 380ZM155.388 382.94C159.797 386.013 160.331 388.151 156.724 388.151C155.254 388.151 152.448 390.824 149.776 394.833C145.5 400.98 141.893 403.385 141.893 400.044C141.893 399.376 144.031 395.902 146.569 392.561C150.043 388.018 150.978 385.612 150.444 383.34C149.375 379.465 150.444 379.331 155.388 382.94ZM369.165 398.708C372.238 408.196 371.971 412.205 368.23 412.205C366.76 412.205 366.359 411.537 366.894 409.933C367.562 408.463 365.958 405.791 361.549 401.381C357.14 396.837 355.937 394.833 357.14 394.031C358.209 393.363 360.079 394.565 362.618 397.505C366.894 402.717 367.161 402.45 364.355 395.768C362.618 391.492 362.752 389.487 365.157 389.487C365.691 389.487 367.562 393.63 369.165 398.708ZM172.891 393.63C175.563 395.635 176.364 396.971 175.429 397.906C174.494 398.842 173.425 398.708 171.955 397.505C170.085 395.902 169.55 396.035 168.481 397.639C166.878 400.312 167.012 401.113 169.283 402.049C171.955 402.984 171.822 407.26 168.882 410.869C166.878 413.274 165.542 413.808 162.736 413.007C160.732 412.472 158.861 411.269 158.461 410.334C157.793 408.73 166.878 390.824 168.348 390.824C168.615 390.824 170.619 392.16 172.891 393.63ZM351.662 408.998C356.205 419.02 356.472 420.223 353.933 420.223C352.864 420.223 350.459 416.615 348.589 412.071C346.718 407.661 344.447 404.321 343.779 404.855C342.977 405.256 343.779 408.463 345.917 412.873C348.856 418.886 349.123 420.356 347.787 422.094C345.115 425.301 343.779 424.633 343.912 420.49C343.912 418.486 342.576 413.942 340.973 410.468C339.37 406.86 338.301 403.786 338.568 403.652C340.171 402.182 344.58 400.312 345.917 400.178C346.852 400.178 349.39 404.187 351.662 408.998ZM193.066 404.321C194.001 405.791 193.333 408.597 190.661 414.61C187.721 421.158 186.385 422.895 183.98 422.895C182.377 422.895 180.239 421.96 179.304 420.891C177.701 418.886 178.101 416.615 182.11 407.127C184.247 402.182 185.183 401.381 188.122 401.782C190.126 402.049 192.264 403.118 193.066 404.321ZM328.146 412.606C327.478 417.55 327.879 418.886 330.952 422.762C333.491 425.702 334.159 427.572 333.357 428.374C332.422 429.31 331.086 428.642 329.215 426.37C325.875 421.96 324.672 421.96 326.276 426.37C328.013 430.78 328.013 430.913 325.741 430.913C324.539 430.913 322.802 427.439 321.065 421.693C317.725 410.735 317.591 409.532 320.263 409.532C321.332 409.532 322.267 410.735 322.267 412.071C322.267 413.541 322.936 415.145 323.604 415.546C324.405 416.08 324.94 414.744 324.94 412.472C324.94 410.334 325.341 408.196 325.875 407.795C328.013 405.523 328.814 407.26 328.146 412.606ZM214.31 410.334C215.379 411.002 210.435 429.711 208.698 431.448C206.293 433.853 205.892 428.374 207.897 421.425C210.302 413.274 210.435 412.205 208.832 412.205C208.164 412.205 206.961 415.145 206.026 418.753C204.289 425.969 200.949 430.111 198.277 428.374C196.94 427.572 196.94 427.038 198.41 425.702C199.479 424.9 201.483 420.49 202.819 416.214C205.358 408.33 205.492 408.196 209.366 408.998C211.638 409.532 213.775 410.067 214.31 410.334ZM292.873 412.205C292.873 414.209 289.266 415.278 286.593 414.209C284.456 413.274 284.589 413.007 287.529 412.205C292.339 410.735 292.873 410.735 292.873 412.205ZM226.468 417.684C225.934 420.891 226.201 422.227 227.805 423.163C231.947 425.434 229.809 436.259 225.266 436.259C224.197 436.259 222.059 435.724 220.723 434.922C218.719 433.853 218.452 432.784 219.387 429.31C220.055 426.904 221.258 422.361 222.059 419.154C223.796 412.338 227.805 411.002 226.468 417.684ZM296.213 423.831C296.614 428.107 297.416 432.918 297.817 434.521C298.351 436.793 297.95 437.595 296.347 437.595C294.744 437.595 294.209 436.259 294.209 431.982C294.209 425.301 291.938 426.503 291.27 433.586C291.003 436.659 290.201 438.263 288.865 438.263C287.395 438.263 286.46 435.59 285.391 427.84C284.589 421.826 284.456 417.149 285.124 416.615C286.727 415.679 286.994 415.947 288.598 422.227L289.934 427.572L290.067 421.96C290.201 417.016 291.938 414.343 294.343 415.679C294.877 415.947 295.679 419.688 296.213 423.831ZM242.101 420.891C242.101 423.43 242.769 425.568 243.437 425.568C244.239 425.568 244.773 424.365 244.773 423.029C244.773 419.02 246.243 416.347 247.98 417.016C249.182 417.416 249.316 419.822 248.648 425.301C248.113 429.443 247.579 434.254 247.579 435.858C247.445 437.728 246.644 438.931 245.308 438.931C243.571 438.931 243.303 437.862 243.704 434.254C244.105 431.047 243.704 429.577 242.502 429.577C241.433 429.577 240.765 431.181 240.765 433.452C240.765 437.728 238.894 439.867 237.425 437.461C236.89 436.659 236.89 431.581 237.425 426.103C238.093 418.886 238.894 416.214 240.23 416.214C241.433 416.214 242.101 417.684 242.101 420.891ZM263.479 421.559C263.479 424.232 264.147 425.568 265.483 425.568C268.289 425.568 270.56 430.646 269.491 434.655C268.422 438.798 266.685 440.267 262.543 440.267C259.604 440.267 259.47 439.867 259.47 428.909C259.47 419.688 259.871 417.55 261.475 417.55C262.811 417.55 263.479 418.886 263.479 421.559ZM275.236 428.508C274.969 435.724 274.301 439.599 273.232 440C271.896 440.401 271.495 437.595 271.495 429.042C271.495 419.555 271.896 417.55 273.5 417.55C275.236 417.55 275.504 419.421 275.236 428.508Z" fill="#3D308E"/>
<path d="M76.5575 313.233C73.618 315.104 76.023 317.642 79.2297 316.039C80.6994 315.237 81.5011 314.035 81.1002 313.233C80.0314 311.763 78.9625 311.763 76.5575 313.233Z" fill="#3D308E"/>
<path d="M445.723 313.901C448.796 316.306 450.533 316.573 450.533 314.703C450.533 313.901 449.998 313.367 449.33 313.367C448.662 313.367 446.925 312.966 445.589 312.565C443.451 311.897 443.451 312.03 445.723 313.901Z" fill="#3D308E"/>
<path d="M92.1884 330.204C90.0506 331.273 88.4473 332.476 88.4473 332.743C88.4473 334.213 90.9859 333.277 93.9253 330.739C97.8 327.666 97.132 327.398 92.1884 330.204Z" fill="#3D308E"/>
<path d="M406.175 364.414C407.778 366.017 409.382 366.952 409.916 366.418C411.252 365.082 407.778 361.474 405.373 361.474C403.636 361.474 403.77 362.009 406.175 364.414Z" fill="#3D308E"/>
<path d="M384.663 390.339C383.594 391.541 386.133 396.218 387.736 396.218C388.538 396.218 389.072 395.416 389.072 394.347C389.072 392.209 385.866 389.27 384.663 390.339Z" fill="#3D308E"/>
<path d="M163.536 405.84C161.399 407.978 161.532 409.581 163.937 409.581C165.006 409.581 165.941 409.314 165.941 409.046C165.941 408.779 166.342 407.577 166.743 406.374C167.678 403.836 165.808 403.568 163.536 405.84Z" fill="#3D308E"/>
<path d="M184.65 411.719C181.577 418.801 181.577 418.935 183.314 418.935C184.115 418.935 185.986 416.129 187.322 412.788C190.395 405.706 190.395 405.572 188.658 405.572C187.856 405.572 185.986 408.378 184.65 411.719Z" fill="#3D308E"/>
<path d="M224.332 426.552C222.863 427.888 223.263 432.298 224.733 432.298C225.535 432.298 226.069 430.828 226.069 428.957C226.069 425.483 225.802 425.082 224.332 426.552Z" fill="#3D308E"/>
<path d="M263.479 432.966C263.479 434.837 264.147 436.307 264.815 436.307C265.616 436.307 266.151 434.837 266.151 432.966C266.151 431.096 265.616 429.626 264.815 429.626C264.147 429.626 263.479 431.096 263.479 432.966Z" fill="#3D308E"/>
<path d="M97.1333 260.715C98.603 262.987 107.288 276.217 116.507 290.248L133.208 315.772L155.521 321.25C182.644 328.066 202.819 334.48 213.776 339.692C223.262 344.235 223.396 344.101 223.396 331.273C223.396 323.255 223.128 322.72 220.456 322.72C217.116 322.72 180.106 314.302 173.024 311.896C169.818 310.827 167.546 308.422 163.805 302.141L158.861 293.589L144.031 289.312C129.2 284.903 129.2 284.903 111.83 270.738C99.9391 261.116 95.2627 257.909 97.1333 260.715Z" fill="#3D308E"/>
<path d="M417.131 271.272C400.564 284.903 400.43 285.036 385.733 289.312L371.036 293.589L366.359 301.607C363.286 307.085 360.347 310.293 357.675 311.362C352.731 313.5 313.182 322.72 309.174 322.72C306.502 322.72 306.234 323.388 306.234 330.337C306.234 334.614 306.635 339.291 307.036 340.761C307.704 343.433 307.838 343.433 315.32 339.959C326.276 334.747 348.589 327.665 374.242 321.25L396.422 315.771L415.528 286.907C425.95 271.139 434.367 257.909 434.1 257.775C433.966 257.642 426.351 263.655 417.131 271.272Z" fill="#3D308E"/>
<path d="M232.346 325.66C231.812 335.415 230.877 345.304 230.208 347.576C229.006 351.718 229.273 351.986 238.626 358.534C243.837 362.142 250.651 367.086 253.858 369.491L259.469 373.768V349.046V324.324L252.522 318.979C246.509 314.569 235.419 308.021 233.682 308.021C233.415 308.021 232.747 316.039 232.346 325.66Z" fill="#3D308E"/>
<path d="M286.592 312.965C282.183 315.772 276.572 319.513 274.3 321.384L270.158 324.858L270.425 349.046L270.826 373.367L285.523 362.543C295.143 355.594 300.087 351.05 299.82 349.58C298.484 340.894 296.88 323.389 296.88 316.306C296.88 311.763 296.346 308.021 295.811 308.021C295.143 308.021 291.001 310.293 286.592 312.965Z" fill="#3D308E"/>
<path d="M42.7407 203.351C41.4073 215.085 41.9407 240.285 43.8073 254.951C55.5407 342.685 117.141 414.018 203.274 439.485C236.074 449.218 274.474 450.685 309.674 443.485C336.741 438.018 370.607 423.351 393.274 407.218C415.541 391.218 441.541 363.085 455.807 339.351C478.741 301.085 490.474 250.818 486.474 208.151L485.541 199.351L480.874 204.551C475.407 210.685 462.607 220.418 453.141 225.751L446.341 229.618L445.541 240.685C442.607 282.685 423.941 322.551 392.741 353.618C364.741 381.485 331.274 398.818 292.874 405.085C277.407 407.618 241.007 406.951 227.274 403.751C193.274 395.885 163.941 380.418 139.807 357.218C111.541 330.285 93.674 298.018 85.9407 260.285C84.474 253.085 83.274 244.551 83.274 241.218C83.274 229.751 82.3407 227.885 74.2073 223.351C65.4073 218.551 55.4073 210.151 48.474 202.151L43.674 196.551L42.7407 203.351Z" fill="#3D308E"/>
<path d="M241 1.72127C177.667 8.38794 117.667 43.3213 81.6667 94.3879L75 103.721L80.2 108.121C85.9333 113.188 105.8 125.721 107.933 125.721C108.733 125.721 112.867 120.921 117.267 114.921C132.867 93.5879 160.067 71.0546 184.2 59.5879C262.867 22.3879 355.8 44.7879 407.667 113.721C412.867 120.655 417.267 126.521 417.4 126.788C418.467 128.521 445.8 111.455 449.8 106.521C453.933 101.588 421.133 63.9879 396.867 45.7213C358.867 17.1879 317.533 2.78794 269.267 1.18794C259.8 0.787939 247 1.05461 241 1.72127Z" fill="#3D308E"/>
</g>
</g>
<defs>
<clipPath id="clip0_1019_1008">
<rect width="530" height="448" fill="white"/>
</clipPath>
</defs>
</svg>
