<svg width="530" height="301" viewBox="0 0 530 301" fill="none" xmlns="http://www.w3.org/2000/svg">
<path d="M0.532372 3.432C-0.803737 5.69666 -0.00207136 7.56167 7.34653 18.6185C16.9665 32.7393 18.5698 36.4693 28.1898 66.9755C37.9434 97.6149 46.0937 113.334 58.9203 126.123C70.8117 137.979 81.7678 144.373 100.741 150.768C108.089 153.299 114.502 155.297 114.903 155.297C115.17 155.297 115.17 154.098 114.77 152.499C113.968 149.702 116.106 143.308 117.843 143.308C118.244 143.308 119.179 143.841 119.98 144.64C120.916 145.572 122.252 140.777 124.256 130.652C130.135 101.079 138.686 78.2988 147.905 68.4409C149.776 66.4427 151.245 64.5776 151.245 64.3112C151.245 64.0448 148.84 64.4444 145.901 65.1105C141.893 66.1762 138.686 66.1762 132.941 64.8441C119.446 61.6469 115.037 61.5137 110.36 64.0448C106.352 66.1762 105.818 66.1762 100.34 63.7784C93.1247 60.5812 80.9661 51.3894 61.9934 35.0039C43.6887 19.2846 36.6073 14.0892 24.8495 8.22774C17.2337 4.49772 7.0793 1.03414 2.93737 0.767706C2.53653 0.767706 1.46765 1.96664 0.532372 3.432Z" fill="#0F524D"/>
<path d="M518.676 2.63277C504.379 6.62921 490.484 15.5546 465.899 36.7358C448.53 51.6558 437.841 59.6487 429.29 63.9116C425.015 66.1763 424.48 66.1763 419.67 64.0448C414.326 61.5138 411.253 61.647 396.689 64.8441C391.211 66.1763 387.603 66.1763 383.996 65.2438L378.785 63.9116L384.664 72.1709C394.418 86.0253 401.9 107.873 406.576 135.581C408.046 144.24 408.58 145.572 410.184 144.373C412.722 142.242 416.063 146.638 415.528 151.301C415.127 155.164 414.726 155.164 427.42 151.434C445.056 146.238 458.15 138.645 470.041 126.789C485.807 111.07 491.018 100.812 503.979 60.0484C511.06 37.5351 514.667 29.6754 524.287 15.9543C530.033 7.69493 530.701 6.09635 529.498 3.56527C527.761 0.368112 527.093 0.368112 518.676 2.63277Z" fill="#0F524D"/>
<path d="M236.758 14.0891C220.591 17.5527 204.023 24.4798 190.395 33.6717L184.783 37.5349L193.869 39.7996C216.315 45.661 226.871 57.7836 234.086 85.6255L235.555 91.2205L246.511 90.5544C252.524 90.1548 258.269 89.6219 259.204 89.2223C260.407 88.9559 260.808 79.8973 260.808 50.0571V11.4248L254.528 11.558C250.921 11.558 243.038 12.7569 236.758 14.0891Z" fill="#0F524D"/>
<path d="M269.893 50.1904C269.626 71.5048 269.759 89.0892 270.16 89.3556C270.561 89.4888 276.173 89.8885 282.72 90.1549L294.477 90.6877L296.882 81.2295C303.028 57.1176 313.049 46.3272 335.362 39.9329L345.249 37.1353L338.703 33.1389C326.945 25.8121 323.07 23.8139 313.584 20.0838C303.296 16.0874 282.987 11.4249 275.237 11.4249H270.294L269.893 50.1904Z" fill="#0F524D"/>
<path d="M167.948 52.8547C150.044 71.7713 137.619 96.1496 133.076 121.061L132.141 126.256L138.554 121.327C154.053 109.604 175.03 101.878 210.036 95.2171C218.453 93.6185 225.935 91.8867 226.47 91.3539C228.073 90.0217 225 78.6984 220.457 68.9737C214.178 55.6523 202.019 47.9258 181.844 44.1958C177.167 43.3965 176.633 43.6629 167.948 52.8547Z" fill="#0F524D"/>
<path d="M342.308 45.3946C320.128 50.8564 310.241 60.5811 304.362 82.6948C303.026 87.8902 302.759 90.8209 303.694 91.487C304.496 91.8866 314.116 94.1513 325.339 96.4159C357.406 102.943 375.711 109.871 390.141 120.794C398.424 127.055 398.692 126.389 393.748 109.205C389.74 95.4834 383.326 81.2294 376.111 70.3058C370.233 61.5136 353.398 43.3964 351.126 43.5296C350.325 43.5296 346.316 44.4621 342.308 45.3946Z" fill="#0F524D"/>
<path d="M242.501 98.9471L235.553 99.4799L233.95 107.073C233.148 111.203 231.411 117.464 230.075 121.061L227.67 127.322L235.152 121.86C239.428 118.929 246.776 113.734 251.853 110.404C258.668 105.741 260.805 103.476 260.805 101.212C260.805 97.7481 260.538 97.7481 242.501 98.9471Z" fill="#0F524D"/>
<path d="M269.49 100.945C269.623 103.21 273.097 106.407 282.317 113.068C289.264 118.13 296.613 123.459 298.751 124.924L302.492 127.721L301.022 124.924C300.22 123.459 298.35 117.331 296.88 111.203C295.544 105.208 294.208 100.146 293.941 100.013C293.673 99.7463 288.062 99.2134 281.381 98.6806L269.223 97.7481L269.49 100.945Z" fill="#0F524D"/>
<path d="M204.023 104.009C195.205 105.608 183.447 108.272 177.969 110.004C164.608 114 146.838 123.192 138.286 130.785C131.606 136.514 131.205 137.18 131.205 143.174V149.569L144.299 152.499C156.19 155.297 194.002 161.958 197.61 161.958C200.683 161.958 218.052 131.185 222.595 117.597C223.797 114.134 225.134 108.938 225.534 106.007C226.603 99.4799 227.004 99.6131 204.023 104.009Z" fill="#0F524D"/>
<path d="M303.562 102.411C303.562 106.54 307.972 120.395 312.381 129.72C317.992 141.975 330.418 161.958 332.289 161.958C335.763 161.958 373.708 155.164 385.466 152.499L398.426 149.569V143.308C398.426 138.112 397.758 136.514 394.151 133.05C378.251 118.263 359.011 110.137 325.207 104.009C304.631 100.146 303.562 100.146 303.562 102.411Z" fill="#0F524D"/>
<path d="M248.247 119.595C235.02 129.853 226.202 138.645 215.78 152.233L207.496 163.023L211.638 163.823C213.909 164.222 217.65 164.622 219.922 164.622C225.4 164.622 228.072 166.487 226.87 169.285C226.202 171.15 224.865 171.416 217.65 170.617C192.264 167.952 135.48 157.162 125.993 153.166C123.455 152.1 121.317 151.434 121.183 151.567C120.916 151.833 122.519 162.757 124.791 175.945C127.597 193.396 129.334 200.324 130.937 201.656C135.747 205.253 162.603 212.579 190.661 217.775C230.611 225.235 238.761 227.633 252.523 236.158L259.471 240.555V175.945C259.471 140.377 259.337 111.336 259.203 111.469C258.936 111.469 254.126 115.066 248.247 119.595ZM245.842 138.778C251.588 142.775 246.377 151.167 239.83 148.503C235.955 147.038 235.554 140.11 239.162 138.112C242.235 136.247 242.368 136.247 245.842 138.778ZM163.939 179.142C178.102 190.599 178.636 190.865 181.709 188.867L184.782 186.869L180.106 182.073C175.563 177.544 173.96 173.947 176.365 173.947C176.899 173.947 179.972 176.078 183.179 178.61C186.385 181.141 189.325 183.272 189.726 183.272C190.127 183.272 193.066 181.141 196.273 178.476L202.152 173.681L210.035 180.475C214.31 184.205 218.452 187.269 219.12 187.269C219.922 187.269 223.396 186.07 226.87 184.604C231.546 182.606 234.085 182.206 236.623 183.006C239.963 184.205 239.696 184.471 231.68 188.334L223.396 192.331L240.097 207.917C251.588 218.707 256.531 224.036 255.596 224.968C254.661 225.901 253.191 225.501 251.187 223.769C233.149 207.784 217.918 195.261 216.849 195.261C216.047 195.261 212.172 196.86 208.03 198.858L200.682 202.455L195.337 197.26L190.127 192.197L184.782 195.794C178.636 200.057 180.106 200.59 163.404 187.535C156.457 182.206 150.444 178.343 149.91 178.876C149.375 179.409 147.505 183.672 145.901 188.201C144.031 193.396 142.16 196.594 140.958 196.594C139.755 196.594 139.221 195.794 139.622 194.862C139.889 194.062 141.893 187.402 144.031 180.208C146.035 173.148 148.039 167.286 148.44 167.286C148.841 167.42 155.789 172.748 163.939 179.142Z" fill="#0F524D"/>
<path d="M198.945 185.137L195.338 188.068L199.213 191.798L203.087 195.528L207.897 192.997L212.841 190.466L207.764 186.336L202.553 182.206L198.945 185.137Z" fill="#0F524D"/>
<path d="M270.158 175.679V240.421L279.244 235.093C291.67 227.766 303.561 224.302 338.3 217.908C366.759 212.579 393.748 205.386 398.825 201.656C400.429 200.324 402.166 193.663 405.105 176.079C407.243 163.023 409.113 152.1 409.113 151.833C409.113 151.567 406.709 152.233 403.769 153.299C389.874 158.228 328.413 169.418 311.578 170.217C303.695 170.617 302.893 170.35 302.893 167.952C302.893 165.688 304.095 165.155 311.978 164.356C317.056 163.956 321.465 163.29 321.732 162.89C321.999 162.624 317.189 156.096 310.91 148.237C300.755 135.714 291.402 126.922 275.235 114.8L270.158 111.07V175.679ZM290.066 137.979C293.406 139.711 294.475 142.908 292.872 145.839C291.001 149.569 286.459 150.235 283.386 147.171C280.179 143.974 280.179 142.642 283.519 139.311C286.592 136.247 286.86 136.247 290.066 137.979ZM386.132 181.141C391.076 197.126 390.942 196.594 388.671 196.594C387.736 196.594 385.464 192.73 383.861 187.935C382.124 183.139 380.254 179.009 379.719 178.61C379.185 178.21 372.638 182.739 365.156 188.601C357.807 194.462 351.394 199.258 350.993 199.258C350.592 199.258 347.786 197.659 344.847 195.661L339.502 192.198L334.291 197.26L329.214 202.189L321.598 198.725C317.323 196.86 313.448 195.261 312.914 195.261C312.246 195.261 304.63 201.389 295.945 208.849C274.567 227.233 275.636 226.567 274.167 225.102C273.365 224.302 279.11 217.908 289.799 207.917L306.634 192.064L298.083 188.201C289.933 184.471 289.665 184.205 293.006 183.139C295.544 182.206 298.083 182.606 302.759 184.604C306.233 186.07 309.707 187.269 310.509 187.269C311.31 187.269 315.452 184.205 319.728 180.475L327.611 173.681L333.757 178.743C338.033 182.206 340.438 183.272 341.64 182.473C342.575 181.807 345.515 179.542 348.053 177.544C355.268 171.816 357.005 174.48 350.592 181.141L345.114 186.602L348.187 188.734C350.993 190.865 351.527 190.732 365.824 179.276C373.84 172.748 380.788 167.42 381.189 167.42C381.59 167.286 383.861 173.547 386.132 181.141Z" fill="#0F524D"/>
<path d="M322.533 186.07C320.262 188.201 318.258 190.199 318.258 190.599C318.258 190.865 320.128 192.198 322.266 193.263C326.141 195.261 326.542 195.261 330.283 192.331C335.093 188.468 335.093 188.068 330.55 184.871L326.943 182.206L322.533 186.07Z" fill="#0F524D"/>
<path d="M232.346 252.81C231.812 262.535 230.877 272.393 230.208 274.658C229.006 278.787 229.273 279.054 238.626 285.581C243.837 289.178 250.651 294.107 253.858 296.505L259.469 300.768V276.123V251.478L252.522 246.15C246.509 241.753 235.419 235.226 233.682 235.226C233.415 235.226 232.747 243.219 232.346 252.81Z" fill="#0F524D"/>
<path d="M286.592 240.155C282.183 242.952 276.572 246.682 274.3 248.547L270.158 252.011L270.425 276.123L270.826 300.368L285.523 289.578C295.143 282.65 300.087 278.121 299.82 276.656C298.484 267.997 296.88 250.546 296.88 243.485C296.88 238.956 296.346 235.226 295.811 235.226C295.143 235.226 291.001 237.491 286.592 240.155Z" fill="#0F524D"/>
</svg>
