<svg width="201" height="150" viewBox="0 0 201 150" fill="none" xmlns="http://www.w3.org/2000/svg">
<path d="M103.11 141.533C101.148 141.641 99.2869 141.641 97.3223 141.533C88.3939 117.053 70.1257 96.8237 46.6406 85.4211C47.2795 71.9082 52.9796 59.7269 61.8322 50.6284C69.8103 55.7078 75.712 63.3727 78.8825 71.982C70.7347 74.1144 63.2577 77.3888 56.8608 81.6296C59.059 82.8775 61.2013 84.2072 63.2896 85.6168C68.3848 82.6738 74.3963 80.5954 80.859 79.2556C82.021 85.7725 81.6776 92.537 79.4874 98.9381C81.3042 100.729 83.0133 102.574 84.6963 104.473C88.4598 95.9132 89.5219 86.7928 88.2801 78.0796C90.9115 77.7702 93.5788 77.5605 96.2722 77.4627L96.388 120.643C97.7456 122.921 99.0194 125.283 100.213 127.669C101.407 125.283 102.683 122.921 104.039 120.643L104.156 77.4627C106.848 77.5605 109.511 77.7702 112.141 78.0796C110.901 86.7928 111.961 95.9132 115.726 104.473C117.409 102.574 119.118 100.729 120.935 98.9381C118.745 92.537 118.4 85.7725 119.564 79.2556C126.026 80.5954 132.036 82.6738 137.131 85.6168C139.221 84.2072 141.364 82.8775 143.562 81.6296C137.163 77.3888 129.688 74.1144 121.538 71.982C124.713 63.3707 130.616 55.7018 138.598 50.6224C147.453 59.7209 153.155 71.9042 153.792 85.4171C130.283 96.8237 112.013 117.049 103.11 141.533ZM104.272 34.5379C114.74 35.3265 124.361 39.124 132.301 45.0799C123.345 51.3871 117.03 60.3578 113.901 70.3648C110.735 69.8517 107.489 69.5222 104.178 69.3705L104.272 34.5379ZM96.2502 69.3705C92.936 69.5222 89.6896 69.8517 86.5192 70.3648C83.3926 60.3598 77.0796 51.3911 68.1272 45.0839C76.0674 39.128 85.6886 35.3285 96.1564 34.5379L96.2502 69.3705ZM200.217 45.2616C200.149 25.5013 183.071 8.34452 171.413 0.751463H163.846C172.988 10.2832 177.447 18.8047 176.151 27.1345C174.41 38.3214 159.989 40.923 146.201 46.779C134.883 34.1585 118.465 26.1981 100.217 26.1981C81.9691 26.1981 65.5517 34.1585 54.2334 46.779C40.4434 40.923 26.0246 38.3234 24.2836 27.1345C22.9879 18.8047 27.4461 10.2832 36.5882 0.751463H29.0213C17.3637 8.34452 0.285416 25.5013 0.217534 45.2616C0.141666 66.9626 17.4315 78.6427 33.8689 87.7172C32.9126 99.4472 32.3755 113.695 32.4034 125.788C44.6421 137.141 62.2494 145.349 82.4562 148.422C79.4774 139.828 75.131 131.786 69.6206 124.608C58.4221 128.937 46.2294 120.731 46.1495 108.51C46.1156 103.127 46.1495 99 46.2853 94.3998C82.3644 113.703 91.0133 148.218 91.4166 149.43C94.3096 149.642 97.2425 149.751 100.209 149.751C103.184 149.751 106.123 149.642 109.02 149.428C109.419 148.232 118.062 113.677 154.149 94.3978C154.285 98.998 154.319 103.123 154.283 108.508C154.205 120.839 141.915 128.897 130.814 124.606C125.304 131.784 120.957 139.826 117.976 148.42C138.185 145.347 155.792 137.137 168.031 125.786C168.059 113.693 167.522 99.4472 166.566 87.7172C183.003 78.6427 200.293 66.9626 200.217 45.2616Z" fill="white"/>
</svg>
