<svg width="250" height="130" viewBox="0 0 250 130" fill="none" xmlns="http://www.w3.org/2000/svg">
<path fill-rule="evenodd" clip-rule="evenodd" d="M125 106.387C102.143 106.387 83.6126 87.8577 83.6126 64.9998C83.6126 42.1422 102.143 23.6123 125 23.6123C147.858 23.6123 166.388 42.1422 166.388 64.9998C166.388 87.8577 147.858 106.387 125 106.387ZM125 8.08393C93.5663 8.08393 68.084 33.566 68.084 64.9998C68.084 96.4337 93.5663 121.916 125 121.916C156.434 121.916 181.916 96.4337 181.916 64.9998C181.916 33.566 156.434 8.08393 125 8.08393Z" fill="#2B378C"/>
<path d="M125.969 64.3788H134.455L140.2 42.274L138.817 39.3028C131.306 44.0635 124.738 50.2012 119.478 57.3393L121.47 67.8066L125.969 64.3788Z" fill="#F9A50D"/>
<path d="M137.615 36.722L132.697 26.1584C132.528 25.8425 132.29 25.6262 132.041 25.5633C131.727 25.4843 131.386 25.652 131.152 25.8108L115.612 37.032L118.769 53.6172C124.029 46.9729 130.409 41.2394 137.615 36.722Z" fill="#F9A50D"/>
<path d="M129.267 80.3496L132.469 67.2034H126.922L122.06 70.9079L123.678 79.4096L129.267 80.3496Z" fill="#F9A50D"/>
<path d="M133.94 95.2852L130.066 83.3453L123.522 82.2449L122.595 92.1535C126.269 93.5401 130.062 94.5877 133.94 95.2852Z" fill="#F9A50D"/>
<path d="M128.426 101.007C130.871 101.007 133.258 100.76 135.566 100.296L136.11 101.975L134.923 98.3137C130.614 97.6369 126.401 96.5484 122.324 95.0622L121.824 100.401C123.964 100.798 126.171 101.007 128.426 101.007Z" fill="#F9A50D"/>
<path d="M117.179 71.0762L121.47 67.8074L119.478 57.3401C117.941 59.4253 116.515 61.5953 115.21 63.842L117.179 71.0762Z" fill="#F2581A"/>
<path d="M114.187 60.082C115.599 57.8445 117.131 55.6873 118.77 53.6174L115.613 37.0322L109.177 41.6798L114.187 60.082Z" fill="#F2581A"/>
<path d="M120.271 78.835L123.679 79.4082L122.06 70.9065L119.031 73.2144L120.271 78.835Z" fill="#F2581A"/>
<path d="M117.726 90.0847C119.323 90.8425 120.947 91.5325 122.595 92.1543L123.522 82.2457L120.111 81.672L117.726 90.0847Z" fill="#F2581A"/>
<path d="M135.566 100.295C133.258 100.759 130.871 101.006 128.426 101.006C126.171 101.006 123.965 100.797 121.825 100.4L122.324 95.0612C120.503 94.3977 118.709 93.6551 116.946 92.8339L115.327 98.5474L114.319 102.099C114.674 102.202 115.031 102.297 115.39 102.389C115.463 102.408 115.535 102.426 115.608 102.444C115.918 102.522 116.228 102.596 116.54 102.666C116.573 102.673 116.605 102.682 116.638 102.689C116.693 102.701 116.749 102.713 116.805 102.725C116.892 102.744 116.978 102.763 117.065 102.781C117.176 102.805 117.287 102.828 117.399 102.85C117.469 102.864 117.539 102.877 117.61 102.89C117.742 102.916 117.875 102.942 118.009 102.967C118.032 102.971 118.055 102.976 118.079 102.98C118.117 102.987 118.154 102.995 118.192 103.002C118.279 103.017 118.366 103.03 118.453 103.045C118.63 103.075 118.808 103.105 118.987 103.133C119.019 103.138 119.05 103.144 119.081 103.149C119.117 103.154 119.152 103.16 119.187 103.165C119.242 103.173 119.298 103.181 119.352 103.188C119.53 103.215 119.709 103.241 119.887 103.264C119.913 103.268 119.939 103.271 119.965 103.274C120.487 103.342 121.011 103.403 121.539 103.45L121.54 103.446C122.682 103.548 123.838 103.602 125.007 103.602C126.515 103.602 128.002 103.515 129.465 103.347C129.487 103.344 129.509 103.341 129.531 103.338C129.848 103.301 130.164 103.26 130.479 103.215C130.506 103.211 130.534 103.207 130.561 103.204C130.584 103.2 130.608 103.197 130.631 103.194C130.924 103.151 131.215 103.104 131.505 103.055C131.639 103.032 131.773 103.008 131.906 102.984C132.06 102.956 132.213 102.926 132.367 102.897L132.368 102.897C132.692 102.834 133.016 102.767 133.337 102.696C133.378 102.687 133.419 102.678 133.46 102.669C133.461 102.669 133.462 102.669 133.463 102.669C134.133 102.518 134.797 102.35 135.454 102.165C135.674 102.103 135.892 102.039 136.11 101.974L135.566 100.295Z" fill="#F2581A"/>
<path d="M150.779 93.7124C150.73 93.5881 150.678 93.4654 150.628 93.342C147.016 96.176 142.849 98.3338 138.316 99.6264L138.781 101.061C143.234 99.3536 147.292 96.8457 150.779 93.7124Z" fill="#2B3889"/>
<path d="M92.4215 65.001C92.4215 57.115 94.9588 49.8225 99.2588 43.8915C98.1175 42.4599 97.0913 40.9354 96.2008 39.3296C92.2641 43.7419 89.3249 49.0611 87.7364 54.9295C87.7066 55.0404 87.6755 55.1506 87.6466 55.2618C87.6135 55.3892 87.5826 55.5174 87.5506 55.645C87.5042 55.8316 87.4575 56.018 87.4138 56.2057C87.3946 56.288 87.3765 56.3711 87.3576 56.4537C87.3042 56.6907 87.2517 56.9282 87.2024 57.1668C87.1927 57.2141 87.1835 57.2613 87.1738 57.3083C87.1173 57.5878 87.0631 57.8679 87.0128 58.1493C87.0103 58.1629 87.0081 58.1768 87.0055 58.1905C86.612 60.4013 86.4062 62.6773 86.4062 65.001C86.4062 66.9705 86.5548 68.905 86.8392 70.7949C88.745 70.0557 90.6717 69.3758 92.615 68.7501C92.4877 67.5178 92.4215 66.2672 92.4215 65.001Z" fill="#2B378C"/>
<path d="M125.502 26.4086C125.337 26.4066 125.172 26.4013 125.007 26.4013C123.011 26.4013 121.051 26.5529 119.137 26.8449C119.117 26.8482 119.097 26.8516 119.076 26.8549C118.79 26.8988 118.506 26.9461 118.222 26.9964C118.127 27.0131 118.033 27.0318 117.938 27.0493C117.732 27.0877 117.525 27.1266 117.319 27.168C117.161 27.2003 117.002 27.2351 116.844 27.2693C116.706 27.299 116.567 27.3282 116.429 27.3594C116.214 27.4083 116 27.46 115.786 27.5126C115.708 27.5318 115.63 27.5501 115.552 27.5699C115.286 27.6369 115.021 27.707 114.757 27.7798C114.734 27.786 114.711 27.7921 114.688 27.7985C108.433 29.5358 102.812 32.8117 98.2598 37.1915C99.0626 38.7452 100.003 40.2216 101.059 41.6079C103.014 44.1742 105.373 46.4271 108.041 48.2559L105.939 40.5345L120.79 29.8113L125.502 26.4086Z" fill="#2B378C"/>
<path d="M99.7072 86.7168C96.3962 82.3448 94.061 77.1939 93.0245 71.5869C91.1226 72.209 89.2374 72.8842 87.373 73.6181C87.3767 73.6334 87.3794 73.6487 87.3831 73.664C87.4734 74.0575 87.5705 74.4485 87.6728 74.8373C87.6876 74.8932 87.7034 74.9488 87.7184 75.005C87.8183 75.3773 87.9228 75.7478 88.0335 76.1157C88.0405 76.1385 88.0472 76.1616 88.0541 76.1847C89.8239 82.0222 92.9417 87.2796 97.0447 91.5918C97.7875 89.8759 98.6808 88.246 99.7072 86.7168Z" fill="#2B378C"/>
<path d="M111.635 101.217L112.715 97.4055C108.476 95.3462 104.703 92.479 101.593 89.0047C100.665 90.4828 99.8704 92.0563 99.2285 93.7123C102.822 96.9416 107.022 99.5082 111.635 101.217Z" fill="#2B378C"/>
<path d="M163.231 59.5917C163.16 59.0814 163.08 58.5736 162.989 58.0686C162.987 58.0539 162.984 58.0394 162.981 58.0247C162.892 57.5288 162.793 57.0352 162.685 56.5446C162.676 56.5068 162.666 56.469 162.658 56.4312C162.553 55.9645 162.441 55.5004 162.319 55.039C162.3 54.9659 162.278 54.8938 162.258 54.8207C162.143 54.3949 162.023 53.9706 161.893 53.5495C161.856 53.4302 161.815 53.3129 161.776 53.1941C161.657 52.8192 161.535 52.4449 161.404 52.0742C161.343 51.9012 161.275 51.731 161.211 51.5589C161.093 51.2419 160.977 50.9243 160.851 50.6103C160.764 50.3948 160.669 50.1826 160.578 49.9685C160.464 49.6979 160.353 49.4256 160.232 49.1575C160.229 49.1522 160.226 49.147 160.224 49.1414C154.336 53.9686 147.04 57.1411 139.045 57.9476L136.625 67.0898C136.275 67.0703 135.674 67.0575 135.417 67.0339L133.602 74.4872C136.579 75.3626 139.408 76.7044 141.987 78.4367L141.987 78.437C142.515 78.7913 143.031 79.1634 143.536 79.5508C143.717 79.6879 143.896 79.8258 144.073 79.9668C144.242 80.1025 144.41 80.2385 144.576 80.3778C144.953 80.6924 145.326 81.013 145.688 81.3475C146.073 81.7043 146.449 82.0709 146.815 82.4466C146.973 82.6082 147.121 82.7775 147.275 82.9424C147.478 83.1602 147.685 83.3749 147.882 83.5987C148.074 83.8179 148.256 84.0459 148.443 84.2703C148.589 84.4472 148.741 84.6199 148.884 84.7998C149.089 85.0585 149.282 85.3252 149.479 85.5902C149.592 85.7437 149.711 85.8933 149.822 86.0488C150.027 86.3366 150.22 86.6319 150.415 86.9265C150.507 87.0658 150.604 87.2015 150.694 87.3422C150.89 87.6492 151.074 87.9632 151.259 88.2769C151.339 88.4118 151.423 88.5433 151.5 88.6793C151.681 88.998 151.851 89.3231 152.02 89.6479C152.092 89.7847 152.168 89.9188 152.237 90.0564C152.399 90.3785 152.549 90.7063 152.7 91.0342C152.76 91.1641 152.826 91.2909 152.883 91.4216C152.909 91.4797 152.936 91.5373 152.962 91.5957C153.287 91.2545 153.604 90.9063 153.916 90.5528C153.929 90.5378 153.942 90.522 153.955 90.507C154.259 90.1621 154.556 89.8125 154.847 89.4577C155.169 89.0664 155.481 88.6676 155.787 88.2638C155.815 88.2266 155.843 88.189 155.872 88.1515C156.171 87.7541 156.463 87.3511 156.746 86.942C156.753 86.9328 156.759 86.9234 156.766 86.9142C157.664 85.6147 158.485 84.2576 159.222 82.8498C159.228 82.8381 159.235 82.8262 159.241 82.8145C159.977 81.4037 160.63 79.9423 161.191 78.4367H161.193C161.774 76.8755 162.26 75.2683 162.637 73.6201C162.859 72.6937 163.034 71.7607 163.173 70.7957C163.459 68.9055 163.608 66.9713 163.608 65.0024C163.608 63.7023 163.538 62.4155 163.413 61.141C163.363 60.631 163.304 60.1232 163.234 59.6179C163.233 59.609 163.232 59.6004 163.231 59.5917Z" fill="#2B378C"/>
<path d="M151.609 37.457C151.658 37.3653 151.709 37.2749 151.757 37.1825C151.715 37.1425 151.673 37.1016 151.631 37.0616C151.449 36.8883 151.265 36.717 151.08 36.5474C151.014 36.4873 150.949 36.427 150.883 36.3672C150.642 36.1494 150.398 35.9344 150.152 35.7228C150.138 35.7114 150.125 35.6997 150.112 35.6883C146.495 32.5939 142.328 30.1784 137.85 28.5927C137.757 28.5599 137.662 28.5293 137.569 28.497C137.334 28.4158 137.098 28.3354 136.861 28.2587C136.833 28.2498 136.805 28.2414 136.776 28.2323L137.695 30.2045C142.887 31.5845 147.619 34.0946 151.609 37.457Z" fill="#2B378C"/>
<path d="M143.189 42.0025L141.478 48.5859C145.724 45.7975 149.229 41.9542 151.61 37.4568C147.619 34.0946 142.888 31.5842 137.695 30.2046L143.189 42.0025Z" fill="#2B378C"/>
<path d="M115.279 74.8409L113.194 67.183C106.323 67.9692 99.5697 69.4464 93.0244 71.5869C94.0609 77.1939 96.3961 82.3448 99.7068 86.7168C103.41 81.2002 108.854 76.9993 115.279 74.8409Z" fill="#2B378C"/>
<path d="M88.0338 76.1152C87.9232 75.7473 87.8186 75.3769 87.7188 75.0045C87.8183 75.3772 87.9234 75.7473 88.0338 76.1152Z" fill="white"/>
<path d="M87.6726 74.8379C87.57 74.4491 87.4732 74.0581 87.3828 73.6646C87.4729 74.0581 87.5705 74.4491 87.6726 74.8379Z" fill="white"/>
<path d="M130.631 103.194C130.58 103.201 130.529 103.208 130.479 103.215C130.529 103.208 130.58 103.201 130.631 103.194Z" fill="white"/>
<path d="M133.337 102.696C133.015 102.767 132.692 102.833 132.367 102.896C132.692 102.834 133.015 102.767 133.337 102.696Z" fill="white"/>
<path d="M117.398 102.852C117.276 102.827 117.153 102.802 117.03 102.776C117.153 102.802 117.276 102.827 117.398 102.852Z" fill="white"/>
<path d="M136.861 28.2578C137.098 28.3345 137.334 28.4149 137.569 28.4961C137.334 28.4152 137.099 28.3342 136.861 28.2578Z" fill="white"/>
<path d="M150.152 35.7228C150.399 35.9345 150.642 36.1494 150.883 36.3672C150.643 36.1492 150.399 35.9347 150.152 35.7228Z" fill="white"/>
<path d="M115.786 27.5137C116 27.4611 116.214 27.4094 116.429 27.3604C116.214 27.4094 116 27.4614 115.786 27.5137Z" fill="white"/>
<path d="M114.757 27.7812C115.021 27.7084 115.286 27.6386 115.552 27.5713C115.285 27.6383 115.021 27.7087 114.757 27.7812Z" fill="white"/>
<path d="M112.716 97.4062L117.643 80.0274L117.029 77.247C110.554 79.1931 105.108 83.4029 101.593 89.0055C104.702 92.4798 108.476 95.3469 112.716 97.4062Z" fill="#3D4FAA"/>
<path d="M92.6154 68.75C99.0584 66.676 105.695 65.2257 112.443 64.4253L109.126 52.2391C105.312 50.1331 101.958 47.277 99.2592 43.8915C94.959 49.8224 92.4219 57.115 92.4219 65.001C92.4219 66.2671 92.4881 67.5178 92.6154 68.75Z" fill="#3D4FAA"/>
<path d="M132.933 77.2321L132.126 80.5439L138.317 99.627C142.85 98.3344 147.017 96.1766 150.629 93.3425C147.492 85.6262 140.911 79.6248 132.933 77.2321Z" fill="#3D4FAA"/>
<path d="M155.135 40.8682C154.709 40.3373 154.268 39.8203 153.816 39.3142C153.816 39.3153 153.815 39.3167 153.814 39.3178C153.796 39.3512 153.776 39.3837 153.757 39.4171C150.682 44.9248 146.048 49.4881 140.469 52.4657L139.044 57.9473C147.039 57.1408 154.336 53.968 160.224 49.1408C158.901 46.2155 157.199 43.442 155.135 40.8682Z" fill="#3D4FAA"/>
<path fill-rule="evenodd" clip-rule="evenodd" d="M87.4964 92.4635L87.4383 92.4593L84.4835 97.6912L84.4805 97.7482L85.203 98.6264L85.2608 98.6328L90.9587 96.722L90.9651 96.6639L90.1879 95.7245L90.1308 95.7181L86.1588 97.1011L88.2673 93.4619L88.2715 93.4051L87.4964 92.4635Z" fill="white"/>
<path fill-rule="evenodd" clip-rule="evenodd" d="M91.8063 97.4759L91.7485 97.477L91.0224 98.2457L91.0232 98.3024L92.2351 99.447L89.1357 102.728L89.138 102.784L89.9055 103.51L89.9634 103.509L93.0625 100.229L94.2753 101.373L94.3309 101.371L95.0573 100.604L95.0562 100.546L91.8063 97.4759Z" fill="white"/>
<path fill-rule="evenodd" clip-rule="evenodd" d="M95.1245 104.766L95.6409 105.162C95.9632 105.409 96.0925 105.71 95.8205 106.066C95.55 106.42 95.2246 106.377 94.9023 106.13L94.3858 105.737L95.1245 104.766ZM96.4549 103.021L96.7794 103.268C97.1348 103.538 97.1718 103.824 96.9755 104.082C96.7772 104.341 96.4933 104.379 96.1367 104.107L95.8144 103.86L96.4549 103.021ZM96.2722 101.449L96.2152 101.458L92.8135 105.919L92.8229 105.975L94.2763 107.084C95.1161 107.727 96.1326 107.735 96.8228 106.829C97.1935 106.343 97.2472 105.669 96.9819 105.212C97.3403 105.281 97.7555 105.138 98.0509 104.749C98.6418 103.973 98.3081 103.005 97.4694 102.362L96.2722 101.449Z" fill="white"/>
<path fill-rule="evenodd" clip-rule="evenodd" d="M101.928 105.312L101.873 105.329L100.463 108.124C99.71 109.611 100.286 110.996 101.521 111.617C102.755 112.241 104.211 111.883 104.962 110.395L106.372 107.601L106.355 107.546L105.41 107.07L105.357 107.088L104.02 109.738C103.525 110.717 102.741 110.914 102.053 110.566C101.363 110.219 101.057 109.471 101.552 108.491L102.89 105.842L102.87 105.788L101.928 105.312Z" fill="white"/>
<path fill-rule="evenodd" clip-rule="evenodd" d="M107.655 108.072L107.603 108.099L105.82 113.417L105.845 113.469L106.848 113.805L106.899 113.78L108.074 110.273L109.598 114.684L109.66 114.748L110.701 115.098L110.754 115.072L112.537 109.753L112.512 109.701L111.509 109.364L111.459 109.392L110.282 112.899L108.76 108.485L108.696 108.421L107.655 108.072Z" fill="white"/>
<path fill-rule="evenodd" clip-rule="evenodd" d="M114.106 110.081L114.055 110.11L112.797 115.577L112.828 115.628L113.858 115.865L113.905 115.834L115.166 110.366L115.135 110.319L114.106 110.081Z" fill="white"/>
<path fill-rule="evenodd" clip-rule="evenodd" d="M116.56 110.634L116.515 110.669L116.38 111.717L116.415 111.763L118.067 111.976L117.486 116.451L117.523 116.498L118.57 116.633L118.615 116.598L119.195 112.123L120.848 112.337L120.894 112.302L121.029 111.254L120.995 111.209L116.56 110.634Z" fill="white"/>
<path fill-rule="evenodd" clip-rule="evenodd" d="M122.315 111.287L122.274 111.327L122.176 116.937L122.216 116.975L126.119 117.045L126.158 117.005L126.177 115.949L126.137 115.907L123.333 115.859L123.355 114.597L125.345 114.633L125.387 114.593L125.406 113.537L125.367 113.495L123.375 113.459L123.393 112.444L126.116 112.49L126.156 112.45L126.175 111.394L126.135 111.352L122.315 111.287Z" fill="white"/>
<path fill-rule="evenodd" clip-rule="evenodd" d="M128.928 112.319L129.738 112.252C130.793 112.166 131.578 112.797 131.658 113.81C131.741 114.822 131.065 115.57 130.013 115.657L129.203 115.721L128.928 112.319ZM127.742 111.271L127.705 111.314L128.155 116.907L128.201 116.943L130.104 116.79C131.845 116.65 133 115.277 132.874 113.712C132.748 112.149 131.389 110.977 129.646 111.118L127.742 111.271Z" fill="white"/>
<path fill-rule="evenodd" clip-rule="evenodd" d="M135.468 110.135L135.439 110.185L136.851 115.613L136.902 115.643L140.049 114.825L140.079 114.775L139.811 113.752L139.762 113.722L137.677 114.265L136.54 109.898L136.491 109.87L135.468 110.135Z" fill="white"/>
<path fill-rule="evenodd" clip-rule="evenodd" d="M139.81 108.91L139.787 108.962L141.82 114.192L141.873 114.215L145.511 112.801L145.534 112.747L145.15 111.763L145.098 111.741L142.483 112.756L142.026 111.581L143.884 110.86L143.907 110.808L143.523 109.822L143.471 109.798L141.615 110.521L141.246 109.573L143.786 108.586L143.808 108.532L143.425 107.549L143.373 107.526L139.81 108.91Z" fill="white"/>
<path fill-rule="evenodd" clip-rule="evenodd" d="M147.176 107.292L148.812 108.569L147.613 109.21L147.176 107.292ZM145.858 106.349L145.843 106.404L146.902 112.154L146.963 112.168L148.122 111.546L148.138 111.493L147.895 110.341L149.766 109.34L150.758 110.091L150.817 110.105L151.978 109.485L151.993 109.43L146.964 105.803L146.905 105.789L145.858 106.349Z" fill="white"/>
<path fill-rule="evenodd" clip-rule="evenodd" d="M154.093 102.69L153.26 101.746C152.615 101.936 152.073 102.306 151.494 102.818C150.185 103.974 150.068 105.868 151.145 107.087C152.249 108.336 154.146 108.395 155.456 107.237C156.003 106.753 156.384 106.201 156.624 105.553L154.659 103.33L154.602 103.325L153.14 104.618L153.136 104.675L153.838 105.467L153.892 105.471L154.534 104.905L155.233 105.697C155.135 105.892 154.887 106.165 154.675 106.355C153.822 107.109 152.734 106.983 152.088 106.251C151.443 105.521 151.453 104.427 152.274 103.7C152.792 103.242 153.391 102.878 154.09 102.746L154.093 102.69Z" fill="white"/>
<path fill-rule="evenodd" clip-rule="evenodd" d="M154.677 100.521L154.675 100.578L156.802 102.875C157.932 104.1 159.431 104.043 160.445 103.106C161.461 102.166 161.634 100.677 160.503 99.4552L158.377 97.1557L158.319 97.1534L157.544 97.872L157.542 97.9299L159.555 100.107C160.301 100.914 160.213 101.716 159.646 102.239C159.078 102.764 158.271 102.791 157.526 101.984L155.512 99.8068L155.455 99.8043L154.677 100.521Z" fill="white"/>
<path fill-rule="evenodd" clip-rule="evenodd" d="M159.646 95.7456L159.651 95.8032L164.026 99.3145L164.083 99.3094L166.527 96.2668L166.52 96.2089L165.696 95.5473L165.638 95.5546L163.881 97.7399L162.901 96.952L164.148 95.3988L164.141 95.341L163.317 94.6794L163.259 94.6844L162.012 96.2379L161.22 95.6021L162.925 93.4786L162.92 93.4207L162.094 92.7594L162.039 92.7664L159.646 95.7456Z" fill="white"/>
<path fill-rule="evenodd" clip-rule="evenodd" d="M82.4355 34.9141L82.4428 34.9719L86.9023 38.375L86.9582 38.3689L89.3265 35.2662L89.3193 35.21L88.4789 34.5684L88.4221 34.5756L86.721 36.8043L85.7188 36.0407L86.9282 34.4577L86.9188 34.4007L86.0786 33.7589L86.0224 33.7661L84.813 35.3501L84.0062 34.7336L85.6576 32.5692L85.6515 32.511L84.8108 31.8692L84.7549 31.8784L82.4355 34.9141Z" fill="white"/>
<path fill-rule="evenodd" clip-rule="evenodd" d="M89.1418 28.7981L90.4661 27.5375L92.8185 30.012L91.2581 31.497C91.1463 31.3207 91.0916 31.2631 91.0365 31.1794L89.1418 28.7981ZM87.6501 28.6462L87.6484 28.7021L90.0821 31.8293C90.2103 32.0465 90.2965 32.1861 90.3504 32.3594L89.8432 32.8405L89.8435 32.8984L91.5799 34.7266H91.6358L92.4014 33.9988L92.4036 33.9409L91.4233 32.9106L94.0741 30.3882L95.0553 31.4189L95.112 31.4208L95.8787 30.6942L95.8807 30.6363L94.1431 28.8081L94.0864 28.8062L93.6442 29.2264L90.5351 25.9573L90.4772 25.9554L87.6501 28.6462Z" fill="white"/>
<path fill-rule="evenodd" clip-rule="evenodd" d="M93.4322 23.5331L93.4199 23.5879L96.6025 28.2085L96.6584 28.2188L97.5641 27.5969L97.6075 27.5174L97.8514 22.8576L99.9516 25.9047L100.007 25.9142L100.877 25.314L100.887 25.2592L97.7068 20.6387L97.6489 20.6261L96.7451 21.2502L96.7017 21.3297L96.4559 25.9895L94.3577 22.9421L94.302 22.933L93.4322 23.5331Z" fill="white"/>
<path fill-rule="evenodd" clip-rule="evenodd" d="M100.53 19.0112L100.511 19.0657L102.907 24.1385L102.96 24.1582L103.915 23.7071L103.936 23.6518L102.929 21.5207L105.28 20.4086L106.287 22.5405L106.343 22.56L107.298 22.1089L107.316 22.0536L104.921 16.9827L104.868 16.9622L103.91 17.4152L103.891 17.4686L104.795 19.3785L102.441 20.4909L101.539 18.5787L101.485 18.5604L100.53 19.0112Z" fill="white"/>
<path fill-rule="evenodd" clip-rule="evenodd" d="M110.726 16.4738L111.871 18.1368L110.62 18.4897L110.726 16.4738ZM109.78 15.2204L109.754 15.2707L109.202 21.2543L109.253 21.2832L110.465 20.9409L110.494 20.8897L110.577 19.6855L112.533 19.1341L113.233 20.1174L113.282 20.1463L114.496 19.804L114.522 19.7528L110.928 14.939L110.877 14.9103L109.78 15.2204Z" fill="white"/>
<path fill-rule="evenodd" clip-rule="evenodd" d="M118.841 14.4986L118.987 15.6262L118.583 15.6785C118.139 15.7358 117.878 15.6048 117.826 15.2027C117.774 14.8008 117.995 14.6078 118.439 14.5508L118.841 14.4986ZM119.784 13.2282L118.212 13.4318C117.084 13.5767 116.496 14.4307 116.615 15.3587C116.7 16.005 116.999 16.4163 117.554 16.5898L115.951 19.4209L115.997 19.4551L117.286 19.2888L117.321 19.2437L118.73 16.8087L119.133 16.7564L119.418 18.9748L119.464 19.009L120.511 18.8747L120.546 18.8288L119.83 13.2638L119.784 13.2282Z" fill="white"/>
<path fill-rule="evenodd" clip-rule="evenodd" d="M127.532 13.0241L127.447 13.0583L126.485 16.8874C126.315 17.4041 125.929 17.6127 125.442 17.5693L125.398 17.6043L125.308 18.6024L125.343 18.6614C126.395 18.7573 127.161 18.4194 127.51 17.2678L128.319 14.2399L130.101 14.4032L129.69 18.8958L129.725 18.94L130.778 19.0352L130.824 18.999L131.332 13.4115L131.296 13.3681L127.532 13.0241Z" fill="white"/>
<path fill-rule="evenodd" clip-rule="evenodd" d="M134.449 13.8325L134.402 13.8631L133.134 19.3285L133.164 19.3774L134.233 19.6241L134.322 19.6033L137.93 16.6424L137.094 20.2462L137.125 20.2954L138.153 20.5352L138.202 20.5043L139.471 15.0391L139.44 14.9899L138.37 14.7435L138.283 14.7644L134.674 17.723L135.51 14.1192L135.48 14.0722L134.449 13.8325Z" fill="white"/>
<path fill-rule="evenodd" clip-rule="evenodd" d="M142.765 16.1161L142.711 16.1398L140.576 21.3266L140.598 21.3802L141.575 21.7812L141.629 21.7596L143.347 17.5881L145.791 18.5934L145.842 18.5715L146.245 17.5945L146.223 17.5428L142.765 16.1161Z" fill="white"/>
<path fill-rule="evenodd" clip-rule="evenodd" d="M149.042 20.5939L148.698 22.582L147.557 21.9582L149.042 20.5939ZM149.242 19.036L149.188 19.0521L144.612 22.9463L144.627 23.0014L145.733 23.604L145.789 23.5882L146.689 22.7836L148.475 23.7561L148.287 24.9495L148.302 25.0053L149.408 25.6094L149.464 25.5921L150.259 19.6347L150.241 19.5819L149.242 19.036Z" fill="white"/>
<path fill-rule="evenodd" clip-rule="evenodd" d="M154.939 26.7213L155.443 27.1304C155.759 27.3866 155.878 27.6925 155.595 28.0395C155.313 28.3874 154.99 28.334 154.674 28.0776L154.17 27.6685L154.939 26.7213ZM156.321 25.0169L156.637 25.273C156.983 25.5531 157.014 25.8392 156.807 26.0912C156.603 26.3454 156.317 26.3751 155.971 26.0931L155.655 25.837L156.321 25.0169ZM156.184 23.4415L156.129 23.4479L152.595 27.804L152.601 27.8607L154.021 29.0134C154.843 29.6789 155.858 29.7181 156.575 28.8327C156.959 28.3596 157.035 27.6863 156.781 27.2214C157.138 27.3009 157.556 27.1696 157.864 26.7906C158.479 26.0333 158.174 25.0539 157.352 24.3867L156.184 23.4415Z" fill="white"/>
<path fill-rule="evenodd" clip-rule="evenodd" d="M160.714 27.203L160.658 27.1999L159.895 27.9338L159.894 27.9917L161.049 29.1936L157.795 32.32L157.795 32.3778L158.527 33.1395L158.584 33.1406L161.838 30.0123L162.991 31.2145L163.049 31.2154L163.812 30.4837V30.4258L160.714 27.203Z" fill="white"/>
<path fill-rule="evenodd" clip-rule="evenodd" d="M163.765 35.6124L164.175 36.1697C164.464 36.5613 164.502 36.8867 164.141 37.1525C163.75 37.4415 163.451 37.3105 163.16 36.9159L162.75 36.3608L163.765 35.6124ZM165.762 32.7753L165.706 32.7669L161.192 36.0952L161.184 36.1533L162.294 37.6581C162.945 38.5402 163.951 38.8105 164.868 38.1348C165.783 37.4587 165.79 36.4425 165.139 35.5574L164.68 34.9367L165.499 34.3335L166.873 36.1987L166.931 36.207L167.781 35.5788L167.789 35.5229L165.762 32.7753Z" fill="white"/>
<path d="M97.7997 58.2123V58.2268C97.9496 58.2805 98.092 58.3764 98.1673 58.4376C98.3998 58.6286 98.5022 58.8817 98.5022 59.209C98.5022 59.7482 98.2149 60.1367 97.7449 60.2597C97.6014 60.3011 97.4515 60.3145 97.1718 60.3145H95.7451V56.3705H97.0074C97.2666 56.3705 97.4443 56.3838 97.6014 56.4253C98.0581 56.5482 98.3587 56.8622 98.3587 57.3599C98.3587 57.6255 98.2636 57.8505 98.1064 58.0015C98.0383 58.0697 97.9424 58.1514 97.7997 58.2123ZM96.5374 58.6286V59.6657H97.0828C97.246 59.6657 97.3967 59.6523 97.5052 59.55C97.6148 59.4476 97.6623 59.3175 97.6623 59.1473C97.6623 59.018 97.6281 58.895 97.56 58.8063C97.4443 58.6626 97.3008 58.6286 97.0558 58.6286H96.5374ZM96.5302 57.9467H96.9732C97.1097 57.9467 97.1779 57.9467 97.246 57.9262C97.4309 57.8714 97.5466 57.7081 97.5466 57.4829C97.5466 57.2165 97.4237 57.1008 97.246 57.046C97.1718 57.0254 97.0961 57.019 96.9465 57.019H96.5302V57.9467ZM99.6891 60.3145V57.0326H98.5497V56.3705H101.716L101.491 57.0326H100.481V60.3145H99.6891ZM101.962 60.3145V56.3705H104.527L104.302 57.0326H102.746V57.9056H103.381C103.893 57.9056 104.159 58.0282 104.343 58.1853C104.487 58.3083 104.731 58.5811 104.731 59.1203C104.731 59.6523 104.479 59.9457 104.267 60.0956C104.022 60.2669 103.762 60.3145 103.237 60.3145H101.962ZM102.746 59.6523H103.34C103.565 59.6523 103.701 59.5975 103.796 59.4746C103.845 59.4137 103.913 59.3041 103.913 59.0997C103.913 58.895 103.845 58.7515 103.709 58.6492C103.626 58.5883 103.517 58.5541 103.332 58.5541H102.746V59.6523Z" fill="white"/>
<path d="M95.0888 55.3861H91.7728L91.5342 56.043H94.8491L95.0888 55.3861Z" fill="white"/>
<path d="M94.7306 56.3702H91.4145L91.1748 57.0273H94.4908L94.7306 56.3702Z" fill="white"/>
<path d="M94.3712 57.3557H91.0551L90.8154 58.0137H94.1315L94.3712 57.3557Z" fill="white"/>
<path fill-rule="evenodd" clip-rule="evenodd" d="M125.004 121.912C93.5731 121.912 68.093 96.4316 68.093 65C68.093 33.5686 93.5731 8.08855 125.004 8.08855C156.436 8.08855 181.916 33.5686 181.916 65C181.916 96.4316 156.436 121.912 125.004 121.912ZM125 5.00001C91.8628 5.00001 65 31.8631 65 65C65 98.1372 91.8628 125 125 125C158.137 125 185 98.1372 185 65C185 31.8631 158.137 5.00001 125 5.00001Z" fill="white"/>
<path d="M143.137 59.4392L140.318 60.7029L141.211 57.3716L145.087 55.8645H147.389L142.582 74.9551H139.278L143.137 59.4392Z" fill="white"/>
<path d="M160.001 58.8157L160.686 55.864H149.421L147.112 64.9341L148.885 66.3165C149.809 65.8563 150.984 65.5315 151.931 65.5315C154.396 65.5315 155.84 66.7501 155.93 68.4559C156.032 70.4054 154.281 72.1382 151.601 72.1382C149.721 72.1382 147.52 70.9836 146.04 69.1467L145.177 72.5367C146.666 74.0318 149.014 75.1172 151.486 75.1172C156.468 75.1172 159.546 71.8406 159.352 68.1311C159.18 64.8546 156.632 62.7424 153.112 62.7424C152.327 62.7424 151.362 62.9321 150.698 63.1754L151.904 58.8157H160.001Z" fill="white"/>
<path d="M152.02 89.6465C151.851 89.3214 151.681 88.9963 151.5 88.6776C151.681 88.9963 151.851 89.3217 152.02 89.6465Z" fill="white"/>
<path d="M155.871 88.1513C155.843 88.1889 155.814 88.2264 155.786 88.2637C155.814 88.2261 155.843 88.1889 155.871 88.1513Z" fill="white"/>
<path d="M143.536 79.5508C143.03 79.1634 142.514 78.7913 141.986 78.4367C142.514 78.7913 143.029 79.1651 143.536 79.5508Z" fill="white"/>
<path d="M160.578 49.9675C160.669 50.1817 160.764 50.3938 160.851 50.6094C160.764 50.3938 160.669 50.1817 160.578 49.9675Z" fill="white"/>
<path d="M160.224 49.1396L160.224 49.1401C160.226 49.1454 160.229 49.1507 160.231 49.1562C160.229 49.1507 160.227 49.1451 160.224 49.1396Z" fill="white"/>
<path d="M161.21 51.5589C161.274 51.7308 161.342 51.9012 161.403 52.0742C161.342 51.9012 161.274 51.7308 161.21 51.5589Z" fill="white"/>
<path d="M144.575 80.377C144.409 80.2376 144.241 80.1016 144.072 79.9662C144.242 80.1011 144.409 80.2382 144.575 80.377Z" fill="white"/>
<path d="M162.606 73.6338C161.035 80.5005 157.628 86.6754 152.931 91.6119C151.251 87.7483 148.771 84.2423 145.657 81.3624C142.207 78.1706 138.052 75.8185 133.572 74.5009L135.387 67.0467C135.659 67.0593 136.028 67.0687 136.624 67.0971C136.624 67.0971 137.107 65.2502 137.336 64.4176L140.44 52.477C146.054 49.4802 150.712 44.8785 153.786 39.3235C154.238 39.8297 154.679 40.3469 155.105 40.8778C160.647 47.7894 163.577 56.1359 163.577 65.015C163.577 66.2945 163.514 67.5593 163.391 68.8071C163.325 69.4795 163.028 71.684 162.606 73.6338ZM138.753 101.079L132.097 80.5598L132.903 77.2476C141.009 79.679 147.674 85.8344 150.749 93.7304C147.263 96.864 143.205 99.3725 138.753 101.079ZM124.976 103.623C121.27 103.623 117.686 103.097 114.291 102.118L116.918 92.8514C122.628 95.5119 128.661 97.3521 134.893 98.331L136.081 101.992C132.562 103.051 128.835 103.623 124.976 103.623ZM99.2014 93.7296C102.276 85.7949 108.817 79.7213 117.001 77.2613L117.614 80.0422L111.607 101.235C106.994 99.5263 102.794 96.9594 99.2014 93.7296ZM87.3453 73.6332C95.6256 70.3722 104.298 68.2114 113.166 67.1966L115.251 74.8557C107.046 77.6125 100.439 83.7014 97.0175 91.6088C92.3218 86.6726 88.9163 80.4986 87.3453 73.6332ZM86.3747 65.015C86.3747 55.1659 90.0832 46.1683 96.174 39.3402C99.1697 44.7436 103.672 49.2544 109.098 52.2514L112.415 64.4393C103.63 65.4813 95.0344 67.6205 86.8097 70.8111C86.5238 68.92 86.3747 66.9847 86.3747 65.015ZM124.976 26.4068C125.143 26.4068 125.31 26.4115 125.478 26.4137L105.911 40.5449L108.013 48.2671C103.903 45.45 100.522 41.6317 98.2325 37.2014C105.175 30.5206 114.604 26.4068 124.976 26.4068ZM131.124 25.8186C131.357 25.6598 131.698 25.4921 132.012 25.5708C132.261 25.6336 132.499 25.85 132.668 26.1662L137.586 36.7311C128.135 42.6565 120.104 50.6727 114.158 60.0943L109.148 41.6896L131.124 25.8186ZM125.94 64.3923L117.151 71.09L115.182 63.855C120.952 53.9153 129.083 45.4653 138.788 39.313L140.171 42.2844L134.426 64.3923H125.94ZM130.038 83.3619L133.911 95.3034C128.295 94.2928 122.856 92.5485 117.697 90.1013L120.082 81.6872L130.038 83.3619ZM129.239 80.364L120.243 78.8509L119.002 73.2294L126.894 67.2161H132.44L129.239 80.364ZM151.728 37.1891C149.346 41.8069 145.782 45.7506 141.448 48.597L143.159 42.0127L136.746 28.2375C142.336 30.032 147.481 33.1111 151.728 37.1891ZM157.307 39.1111C151.676 32.088 143.832 27.0425 135.161 24.8466C134.612 23.8096 133.74 23.0941 132.7 22.8326C131.652 22.569 130.521 22.8062 129.512 23.4998L129.109 23.791C127.741 23.6555 126.355 23.583 124.976 23.583C102.134 23.583 83.5518 42.1693 83.5518 65.015C83.5518 87.8609 102.134 106.447 124.976 106.447C147.817 106.447 166.4 87.8609 166.4 65.015C166.4 55.6228 163.171 46.4233 157.307 39.1111Z" fill="white"/>
</svg>
