<svg width="250" height="130" viewBox="0 0 250 130" fill="none" xmlns="http://www.w3.org/2000/svg">
<g clip-path="url(#clip0_1909_1870)">
<path fill-rule="evenodd" clip-rule="evenodd" d="M74.7339 57.3507L79.8414 53.0119V64.9367L74.7339 57.3507ZM191.348 50.82C186.399 50.82 183.093 51.3863 181.156 52.9385L181.792 51.1663H173.061L170.746 58.9722C170.428 60.1741 170.143 61.1682 169.853 62.2356C169.544 61.0297 169.128 60.0153 168.908 59.3837L165.728 51.1663H159.765L156.56 59.506C156.051 60.7444 155.607 61.6693 155.322 62.6837C155.036 61.1682 154.844 59.7953 154.591 58.9722L152.431 51.1663H144.271V45.6826H136.244V51.317H132.055V51.1053C132.055 50.0826 132.657 49.7974 133.705 49.7974H135.258V45.4219H130.685C125.964 45.4219 124.154 46.6319 124.154 50.3759V51.317H119.328V52.8489C119.296 52.7553 119.202 52.69 119.071 52.5312C116.662 50.82 111.803 50.7508 108.979 50.7508C102.921 50.7508 99.3015 51.6797 97.781 54.1729C96.9861 51.8304 95.2701 50.7874 92.3474 50.7874C90.1258 50.7874 88.4423 51.317 87.2072 52.5312V51.1663H71.0204L65.3095 56.756V45.6826H57.2793V69.1575H65.3095V65.2097L68.701 62.1053L73.083 69.1575H87.3988V59.7953C87.3988 57.7378 87.9043 56.4953 89.3024 56.4953C90.8555 56.4953 91.2713 57.9822 91.2713 59.2329H98.3232C98.3232 58.3082 98.2498 57.1919 98.1968 56.3404H105.302C105.424 55.0367 106.692 54.9063 109.011 54.9063C110.063 54.9063 113.169 55.0367 113.169 56.5929C113.169 57.697 111.779 57.9253 109.011 57.9253C107.935 57.9253 106.472 58.0475 104.825 58.1493C100.92 58.2675 98.1968 58.5607 96.4766 60.6141C95.804 61.4493 95.5187 62.5248 95.5187 63.9141C95.5187 67.7885 98.4128 69.1575 104.409 69.1575C106.154 69.1575 107.743 69.027 109.011 68.8682C110.658 68.6767 112.129 67.9434 113.36 66.6478C113.36 67.6541 113.646 68.3222 113.992 69.1575H122.54L122.499 68.3629C122.34 68.2978 122.181 68.0697 122.181 68.0697C121.77 67.6541 121.513 67.1163 121.513 66.4278V59.506C121.513 58.3082 121.423 57.1919 121.167 56.3404H124.154V69.1575H132.217V56.3404H136.244V63.6615C136.244 66.0815 136.909 68.3629 138.56 68.7744C139.547 68.9334 141.516 69.1575 143.447 69.1575H147.414V64.1707H146.183C144.271 64.1707 144.271 63.0585 144.271 60.337V56.3404H145.383L149.766 69.1575H158.749L161.949 61.6693C162.235 61.0297 162.374 60.1741 162.687 59.3837C162.809 60.1741 163.029 61.1682 163.319 61.8567L166.397 69.1575H175.535L179.885 56.6175L187.728 56.756C187.789 55.4767 189.061 54.9063 191.31 54.9063H191.848C194.075 54.9063 195.342 55.766 195.342 56.5929C195.342 57.697 194.009 57.9537 191.348 57.9537C190.333 57.9537 188.804 58.0475 187.19 58.1493C183.256 58.3082 180.496 58.5607 178.874 60.6141C178.169 61.4493 177.892 62.5248 177.892 63.9141C177.892 67.7885 180.778 69.1575 186.745 69.1575C188.486 69.1575 190.108 68.9619 191.348 68.8682C192.868 68.7134 194.429 67.9434 195.725 66.6478C195.725 67.6541 195.978 68.3222 196.3 69.1575H204.616V68.7744C203.914 68.3222 203.914 67.5075 203.914 66.4278V59.506C203.914 58.4263 203.816 57.5137 203.625 56.6175L209.214 66.6478C208.578 68.7744 207.661 69.1575 205.467 69.1575H203.596V74.0341H209.214C211.468 74.0341 213.151 73.757 214.553 72.3556C215.499 71.5 216.735 69.5363 218.198 66.8311L225.905 51.1663H217.273L214.386 57.9537C214.101 58.7807 213.755 59.6037 213.6 60.4307C213.342 59.506 212.996 58.5607 212.52 57.5707L209.597 51.1663H200.674L201.595 52.8204C201.505 52.7553 201.407 52.6615 201.314 52.5312C199.72 51.3863 196.455 50.7874 191.694 50.7874C191.6 50.7874 191.437 50.82 191.348 50.82ZM109.011 65.0997C108.693 65.1241 108.057 65.2097 107.552 65.2097C105.775 65.2097 104.633 64.4885 104.633 63.3437C104.633 62.2356 105.489 61.8567 107.743 61.6693C108.151 61.6693 108.693 61.5389 109.011 61.5389C110.609 61.5389 111.991 61.38 113.36 60.7444V61.1682C113.36 63.1929 111.681 64.8429 109.011 65.0997ZM191.348 61.6041C191.062 61.6041 190.52 61.6693 190.075 61.6693C187.854 61.8567 186.998 62.2356 186.998 63.3437C186.998 64.4885 188.103 65.2097 189.917 65.2097C190.422 65.2097 191.062 65.0997 191.348 65.0997C193.977 64.896 195.725 63.1929 195.725 61.1682C195.725 61.1682 195.725 60.8422 195.599 60.7444C194.364 61.38 192.904 61.6041 191.348 61.6041Z" fill="#93D500"/>
<path fill-rule="evenodd" clip-rule="evenodd" d="M29.6309 73.9085C36.2907 73.9085 41.8793 68.9952 41.8793 62.1385C41.8793 59.6329 40.9662 56.5571 40.0449 54.9071L30.8012 68.9952H21.0292L29.6309 55.7666L33.4088 49.9611C32.1982 49.7044 30.9622 49.6393 29.6309 49.6393V49.6189C22.9654 49.6189 17.3801 54.9071 17.3801 61.8574C17.3801 68.9952 22.8712 73.9085 29.6309 73.9085ZM29.6309 76.6422C21.2844 74.8334 15 67.2881 15 58.15C15 49.4518 21.2844 42.0941 29.6309 40.4156C30.8403 40.1548 32.1452 40 33.4088 40C36.7432 40 39.4702 40.4156 41.8793 41.7111L33.6003 54.9071H40.0449L46.2367 44.8563C49.2206 47.81 52.1311 53.2937 52.1311 58.15C52.1311 62.5337 50.6676 66.5507 48.2056 69.7407C44.7896 74.1571 39.4417 76.9885 33.4088 76.9885C32.1452 76.9885 30.8403 76.8337 29.6309 76.6422Z" fill="#93D500"/>
<path d="M230.834 50.8377H231.531C231.865 50.8377 232.085 50.7888 232.212 50.691C232.334 50.5933 232.391 50.4629 232.391 50.2877C232.391 50.1899 232.367 50.0962 232.305 50.0147C232.248 49.9333 232.171 49.864 232.061 49.8314C231.959 49.7825 231.767 49.7703 231.49 49.7703H230.834V50.8377ZM230.255 52.834V49.2855H231.481C231.897 49.2855 232.2 49.3181 232.391 49.3873C232.57 49.4484 232.717 49.5625 232.831 49.7296C232.941 49.8884 233.006 50.0636 233.006 50.251C233.006 50.5077 232.909 50.7318 232.717 50.9233C232.537 51.1229 232.286 51.2288 231.98 51.2451C232.102 51.3062 232.207 51.3715 232.277 51.4366C232.424 51.5751 232.599 51.8155 232.807 52.1415L233.239 52.834H232.537L232.216 52.2799C231.971 51.8399 231.767 51.5669 231.629 51.4569C231.523 51.3755 231.371 51.3347 231.168 51.3306H230.834V52.834H230.255ZM231.703 48.267C231.237 48.267 230.785 48.3851 230.348 48.6173C229.918 48.8531 229.562 49.2027 229.318 49.6277C229.072 50.0718 228.95 50.5362 228.95 51.0169C228.95 51.4855 229.069 51.9459 229.313 52.3818C229.558 52.8096 229.901 53.1559 230.336 53.3922C230.764 53.6325 231.23 53.7629 231.703 53.7629C232.174 53.7629 232.632 53.6325 233.063 53.3922C233.496 53.1597 233.851 52.8093 234.091 52.3818C234.332 51.9459 234.449 51.4855 234.449 51.0169C234.449 50.5362 234.332 50.0718 234.079 49.6277C233.839 49.1991 233.481 48.8485 233.047 48.6173C232.607 48.3851 232.167 48.267 231.703 48.267ZM231.703 47.7129C232.26 47.7129 232.798 47.8514 233.324 48.1407C233.851 48.4259 234.262 48.8292 234.556 49.3629C234.849 49.8884 235 50.4344 235 51.0169C235 51.5751 234.853 52.1251 234.559 52.6506C234.27 53.1722 233.863 53.5877 233.345 53.8688C232.845 54.1571 232.279 54.3075 231.703 54.3047C231.132 54.3047 230.585 54.1662 230.059 53.8688C229.538 53.5877 229.126 53.1722 228.837 52.6506C228.547 52.1251 228.4 51.5751 228.4 51.0169C228.4 50.4344 228.547 49.8884 228.84 49.3629C229.142 48.8292 229.554 48.4259 230.08 48.1407C230.609 47.8514 231.148 47.7129 231.703 47.7129Z" fill="#93D500"/>
<path d="M59.2771 85.6382C59.6684 85.6382 59.9537 85.5282 60.1576 85.3082C60.3451 85.0801 60.447 84.8315 60.447 84.5382C60.447 84.2693 60.3614 84.0371 60.186 83.8252C60.0149 83.6093 59.7133 83.5074 59.2771 83.5074H58.6412V85.6382H59.2771ZM59.2771 82.4238C60.0271 82.4238 60.5856 82.5582 60.9565 82.8189C61.3233 83.0715 61.5843 83.3567 61.7229 83.6664C61.8084 83.8334 61.8492 84.0005 61.8777 84.1634C61.9063 84.3264 61.9226 84.4567 61.9226 84.5749V84.6889C61.894 85.1982 61.6861 85.6627 61.2948 86.0823C60.9036 86.506 60.3206 86.7138 59.5339 86.7138H58.6412V89.2967H57.2471V82.4238H59.2771Z" fill="#93D500"/>
<path d="M67.1717 83.3517C67.0575 83.372 66.9353 83.4046 66.8211 83.4494C66.5073 83.5635 66.2301 83.8039 65.9732 84.1583C65.7246 84.5168 65.6023 85.079 65.6023 85.8654C65.6023 86.6354 65.7246 87.2057 65.9732 87.5601C66.2301 87.9146 66.5073 88.1549 66.8211 88.2731C66.9353 88.322 67.0575 88.3464 67.1717 88.3586C67.2899 88.379 67.3959 88.3913 67.4978 88.3913C67.5916 88.3913 67.7056 88.379 67.8198 88.3586C67.934 88.3464 68.0521 88.322 68.1704 88.2731C68.4761 88.1549 68.7533 87.9146 69.0142 87.5601C69.2587 87.2057 69.3851 86.6354 69.3851 85.8654C69.3851 85.079 69.2587 84.5168 69.0142 84.1583C68.7533 83.8039 68.4761 83.5635 68.1704 83.4494C68.0568 83.4061 67.9395 83.3733 67.8198 83.3517C67.7056 83.3435 67.5916 83.3313 67.4978 83.3313C67.3959 83.3313 67.2899 83.3435 67.1717 83.3517ZM69.8906 83.2457C70.5346 83.8446 70.8566 84.7164 70.8566 85.8654C70.8566 87.002 70.5346 87.8779 69.8906 88.4686C69.2465 89.0676 68.4476 89.3608 67.4978 89.3608C66.5399 89.3608 65.7369 89.0676 65.0928 88.4686C64.4488 87.8779 64.1309 87.002 64.1309 85.8654C64.1309 84.7164 64.4488 83.8446 65.0928 83.2457C65.7369 82.6427 66.5399 82.3535 67.4978 82.3535C68.4476 82.3535 69.2465 82.6427 69.8906 83.2457Z" fill="#93D500"/>
<path d="M78.4674 89.0762C78.2554 89.1535 78.0435 89.2065 77.8193 89.2431C77.5951 89.3002 77.3709 89.3247 77.1344 89.3409C77.0651 89.345 76.9917 89.3572 76.9102 89.3572C76.8328 89.3613 76.7594 89.3613 76.6901 89.3613C75.7241 89.3613 74.8844 89.0721 74.1751 88.5016C73.4739 87.9109 73.1152 87.0513 73.1152 85.8943C73.1152 84.8147 73.4577 83.9509 74.1425 83.3072C74.8232 82.6716 75.7607 82.3457 76.9429 82.3457C77.1712 82.3457 77.3709 82.3579 77.5584 82.3784C77.7418 82.4109 77.9252 82.4394 78.1046 82.4721C78.1658 82.4965 78.2229 82.5209 78.288 82.5291C78.3532 82.5413 78.4062 82.5576 78.4674 82.5862L78.4062 83.7594C78.1861 83.6657 77.9619 83.6047 77.7378 83.5679C77.5082 83.5229 77.2747 83.5011 77.0407 83.5028C76.3477 83.5028 75.7607 83.7106 75.288 84.1179C74.8232 84.5294 74.5909 85.1121 74.5909 85.8779C74.5909 86.6643 74.7947 87.2306 75.2064 87.585C75.6181 87.9313 76.0747 88.1391 76.572 88.1921C76.6371 88.2043 76.7023 88.2043 76.7635 88.2084C76.8247 88.2165 76.8858 88.2165 76.9429 88.2165C77.216 88.2165 77.4565 88.1879 77.6725 88.1431C77.8886 88.0862 78.0719 88.0331 78.231 87.9762L78.3044 87.9435L78.3777 87.9069L78.4674 89.0762Z" fill="#93D500"/>
<path d="M86.026 89.0762C85.814 89.1535 85.602 89.2065 85.3779 89.2431C85.1537 89.3002 84.9295 89.3247 84.7011 89.3409C84.6237 89.345 84.5463 89.3572 84.4688 89.3572C84.3914 89.3613 84.318 89.3613 84.2487 89.3613C83.2827 89.3613 82.443 89.0721 81.7296 88.5016C81.0325 87.9109 80.6738 87.0513 80.6738 85.8943C80.6738 84.8147 81.0203 83.9509 81.7011 83.3072C82.3777 82.6716 83.3193 82.3457 84.5015 82.3457C84.7298 82.3457 84.9295 82.3579 85.1169 82.3784C85.2964 82.4109 85.4838 82.4394 85.6632 82.4721C85.7203 82.4965 85.7815 82.5209 85.8425 82.5291C85.9077 82.5413 85.9648 82.5576 86.026 82.5862L85.9648 83.7594C85.7447 83.6657 85.5165 83.6047 85.2923 83.5679C85.0762 83.5231 84.8438 83.5028 84.5993 83.5028C83.9022 83.5028 83.3193 83.7106 82.8465 84.1179C82.3777 84.5294 82.1495 85.1121 82.1495 85.8779C82.1495 86.6643 82.3533 87.2306 82.7649 87.585C83.1767 87.9313 83.6333 88.1391 84.1306 88.1921C84.1957 88.2043 84.2609 88.2043 84.318 88.2084C84.3832 88.2165 84.4444 88.2165 84.5015 88.2165C84.7705 88.2165 85.0151 88.1879 85.2311 88.1431C85.4472 88.0862 85.6265 88.0331 85.7896 87.9762L85.8711 87.9435L85.9323 87.9069L86.026 89.0762Z" fill="#93D500"/>
<path d="M89.8695 82.4277V85.9518L89.841 87.6344H89.8695L90.3627 86.624L92.7637 82.4277H94.4349V89.2967H93.0449V85.7562L93.0734 84.094H93.0449L92.568 85.137L90.1426 89.2967H88.4795V82.4277H89.8695Z" fill="#93D500"/>
<path d="M101.902 80.7968C101.788 81.0698 101.654 81.2939 101.482 81.4487C101.315 81.6035 101.136 81.7135 100.948 81.7909C100.798 81.8561 100.643 81.8968 100.484 81.9213C100.337 81.9376 100.198 81.9458 100.088 81.9458C99.9781 81.9458 99.8437 81.9376 99.6968 81.9213C99.542 81.8968 99.3912 81.8561 99.2363 81.799C99.0487 81.7217 98.8694 81.6035 98.7023 81.4527C98.527 81.298 98.3843 81.078 98.2703 80.7968L98.9877 80.418C99.004 80.4505 99.0202 80.4913 99.0447 80.5361C99.0733 80.589 99.1017 80.638 99.1466 80.6868C99.2241 80.7805 99.3381 80.8661 99.485 80.9435C99.6317 81.0168 99.8354 81.0495 100.088 81.0495C100.345 81.0495 100.545 81.0168 100.687 80.9435C100.838 80.8661 100.948 80.7805 101.026 80.6868C101.067 80.638 101.107 80.589 101.128 80.5361C101.152 80.4913 101.172 80.4505 101.189 80.418L101.902 80.7968ZM98.5759 82.4305V85.9546L98.5473 87.629H98.5759L99.0692 86.6227L101.47 82.4305H103.141V89.2954H101.747V85.7549L101.776 84.0968H101.747L101.274 85.1317L98.8531 89.2954H97.1777V82.4305H98.5759Z" fill="#93D500"/>
<path d="M110.992 89.0762C110.784 89.1535 110.564 89.2065 110.344 89.2431C110.12 89.3002 109.895 89.3247 109.667 89.3409C109.59 89.345 109.512 89.3572 109.435 89.3572C109.365 89.3613 109.284 89.3613 109.219 89.3613C108.249 89.3613 107.413 89.0721 106.704 88.5016C105.998 87.9109 105.64 87.0513 105.64 85.8943C105.64 84.8147 105.986 83.9509 106.671 83.3072C107.352 82.6716 108.293 82.3457 109.467 82.3457C109.696 82.3457 109.895 82.3579 110.087 82.3784C110.27 82.4109 110.454 82.4394 110.629 82.4721C110.686 82.4965 110.751 82.5209 110.808 82.5291C110.878 82.5413 110.931 82.5576 110.992 82.5862L110.931 83.7594C110.711 83.6657 110.482 83.6047 110.262 83.5679C110.035 83.5234 109.804 83.5015 109.573 83.5028C108.868 83.5028 108.285 83.7106 107.812 84.1179C107.344 84.5294 107.115 85.1121 107.115 85.8779C107.115 86.6643 107.319 87.2306 107.739 87.585C108.142 87.9313 108.607 88.1391 109.096 88.1921C109.162 88.2043 109.227 88.2043 109.284 88.2084C109.353 88.2165 109.41 88.2165 109.467 88.2165C109.74 88.2165 109.985 88.1879 110.197 88.1431C110.417 88.0862 110.6 88.0331 110.755 87.9762L110.837 87.9435L110.906 87.9069L110.992 89.0762Z" fill="#93D500"/>
<path d="M114.835 82.4277V85.3652H114.872L117.354 82.4277H119.014L116.144 85.5362L119.185 89.2967H117.416L114.872 85.8784H114.835V89.2967H113.445V82.4277H114.835Z" fill="#93D500"/>
<path d="M122.707 82.4277V85.9518L122.683 87.6344H122.707L123.201 86.624L125.597 82.4277H127.272V89.2967H125.879V85.7562L125.912 84.094H125.879L125.406 85.137L122.985 89.2967H121.317V82.4277H122.707Z" fill="#93D500"/>
<path d="M134.124 82.4277V83.6459H131.418V85.1981H133.88V86.3185H131.418V88.0744H134.124V89.2967H130.023V82.4277H134.124Z" fill="#93D500"/>
<path d="M146.317 82.4277V83.6459H144.332V89.2967H142.938V83.6459H140.957V82.4277H146.317Z" fill="#93D500"/>
<path d="M152.623 82.4277V83.6459H149.92V85.1981H152.379V86.3185H149.92V88.0744H152.623V89.2967H148.526V82.4277H152.623Z" fill="#93D500"/>
<path d="M156.541 82.4277L157.642 84.3385L157.955 84.9211H157.984L158.297 84.3385L159.423 82.4277H160.952L158.861 85.7033L161.151 89.2967H159.504L158.192 87.113L157.898 86.5833H157.869L157.572 87.113L156.206 89.2967H154.682L156.981 85.7033L154.894 82.4277H156.541Z" fill="#93D500"/>
<path d="M164.803 82.4277V85.1981H167.591V82.4277H168.989V89.2967H167.591V86.3185H164.803V89.2967H163.413V82.4277H164.803Z" fill="#93D500"/>
<path d="M174.529 83.3517C174.414 83.372 174.292 83.4046 174.178 83.4494C173.864 83.5635 173.591 83.8039 173.338 84.1583C173.09 84.5168 172.963 85.079 172.963 85.8654C172.963 86.6354 173.09 87.2057 173.338 87.5601C173.591 87.9146 173.864 88.1549 174.178 88.2731C174.292 88.322 174.414 88.3464 174.529 88.3586C174.647 88.379 174.757 88.3913 174.855 88.3913C174.953 88.3913 175.063 88.379 175.177 88.3586C175.295 88.3464 175.413 88.322 175.532 88.2731C175.838 88.1549 176.118 87.9146 176.371 87.5601C176.629 87.2057 176.746 86.6354 176.746 85.8654C176.746 85.079 176.629 84.5168 176.371 84.1583C176.118 83.8039 175.838 83.5635 175.532 83.4494C175.413 83.4046 175.295 83.372 175.177 83.3517C175.063 83.3435 174.953 83.3313 174.855 83.3313C174.757 83.3313 174.647 83.3435 174.529 83.3517ZM177.252 83.2457C177.896 83.8446 178.222 84.7164 178.222 85.8654C178.222 87.002 177.896 87.8779 177.252 88.4686C176.608 89.0676 175.809 89.3608 174.855 89.3608C173.897 89.3608 173.098 89.0676 172.458 88.4686C171.806 87.8779 171.488 87.002 171.488 85.8654C171.488 84.7164 171.806 83.8446 172.458 83.2457C173.098 82.6427 173.897 82.3535 174.855 82.3535C175.809 82.3535 176.608 82.6427 177.252 83.2457Z" fill="#93D500"/>
<path d="M186.012 82.4277V89.2967H184.621V83.6459H182.804V85.0189C182.804 86.3308 182.709 87.3899 182.522 88.1762C182.339 88.9667 181.765 89.3659 180.802 89.3659C180.745 89.3659 180.697 89.3659 180.644 89.3618C180.582 89.3618 180.525 89.3496 180.472 89.3455C180.407 89.3333 180.358 89.3211 180.293 89.317C180.243 89.3048 180.183 89.3008 180.138 89.2967L180.195 88.2048L180.236 88.2089L180.281 88.2292L180.329 88.2333H180.37L180.472 88.2496H180.566C180.981 88.2496 181.251 88.0011 181.352 87.504C181.459 87.007 181.512 86.4489 181.512 85.8581V85.2226C181.503 85.1248 181.5 85.027 181.5 84.9455V82.4277H186.012Z" fill="#93D500"/>
<path d="M191.559 83.3517C191.44 83.372 191.323 83.4046 191.204 83.4494C190.895 83.5635 190.621 83.8039 190.364 84.1583C190.119 84.5168 189.994 85.079 189.994 85.8654C189.994 86.6354 190.119 87.2057 190.364 87.5601C190.621 87.9146 190.895 88.1549 191.204 88.2731C191.323 88.322 191.44 88.3464 191.559 88.3586C191.672 88.379 191.782 88.3913 191.885 88.3913C191.983 88.3913 192.093 88.379 192.207 88.3586C192.325 88.3464 192.443 88.322 192.561 88.2731C192.867 88.1549 193.149 87.9146 193.402 87.5601C193.653 87.2057 193.776 86.6354 193.776 85.8654C193.776 85.079 193.653 84.5168 193.402 84.1583C193.149 83.8039 192.867 83.5635 192.561 83.4494C192.443 83.4046 192.325 83.372 192.207 83.3517C192.093 83.3435 191.983 83.3313 191.885 83.3313C191.782 83.3313 191.672 83.3435 191.559 83.3517ZM194.282 83.2457C194.926 83.8446 195.247 84.7164 195.247 85.8654C195.247 87.002 194.926 87.8779 194.282 88.4686C193.638 89.0676 192.838 89.3608 191.885 89.3608C190.927 89.3608 190.128 89.0676 189.48 88.4686C188.835 87.8779 188.518 87.002 188.518 85.8654C188.518 84.7164 188.835 83.8446 189.48 83.2457C190.128 82.6427 190.927 82.3535 191.885 82.3535C192.838 82.3535 193.638 82.6427 194.282 83.2457Z" fill="#93D500"/>
<path d="M201.975 82.4277V83.6459H199.141V89.2967H197.752V82.4277H201.975Z" fill="#93D500"/>
<path d="M205.525 82.4277V85.9518L205.496 87.6344H205.525L206.014 86.624L208.414 82.4277H210.086V89.2967H208.696V85.7562L208.724 84.094H208.696L208.223 85.137L205.802 89.2967H204.131V82.4277H205.525Z" fill="#93D500"/>
<path d="M214.227 82.4277V85.9518L214.203 87.6344H214.227L214.717 86.624L217.126 82.4277H218.789V89.2967H217.398V85.7562L217.432 84.094H217.398L216.925 85.137L214.504 89.2967H212.838V82.4277H214.227Z" fill="#93D500"/>
</g>
<defs>
<clipPath id="clip0_1909_1870">
<rect width="220" height="49.5" fill="white" transform="translate(15 40)"/>
</clipPath>
</defs>
</svg>
