<svg width="250" height="130" viewBox="0 0 250 130" fill="none" xmlns="http://www.w3.org/2000/svg">
<g clip-path="url(#clip0_1909_1870)">
<path d="M53.9588 48.5147V61.5323C56.2723 61.7509 58.9385 61.9695 61.2519 61.9695C66.9768 61.9695 71.1723 59.505 71.1723 54.934C71.1723 50.6412 67.957 48.2961 61.1539 48.2961C59.0366 48.2961 56.1742 48.3954 53.9588 48.5147ZM40.5292 94.3444V46.6266L39 36.9877C43.7641 36.2126 53.4491 35.4375 59.7033 35.4375C79.23 35.4375 85.5038 43.6654 85.5038 54.934C85.5038 66.8982 76.799 74.828 61.6833 74.828C60.0365 74.828 56.5075 74.7088 53.9588 74.4903V94.3444H40.5292Z" fill="#93D500"/>
<path d="M178.805 70.1776V81.7046C181.334 81.8239 183.745 81.943 186.745 81.943C194.469 81.943 196.998 79.6973 196.998 75.7821C196.998 71.8869 194.136 69.7404 186.627 69.7404C184.529 69.7404 181.216 69.7404 178.805 70.1776ZM206.625 48.5148H178.805V57.4582C180.902 57.1204 185.196 57.001 188.294 57.001C202.076 57.001 210.428 63.2614 210.428 75.1262C210.428 88.5413 201.39 94.7819 185.314 94.7819C177.275 94.7819 169.1 94.3445 165.336 94.3445V46.6268L163.826 35.6562H208.467L206.625 48.5148Z" fill="#93D500"/>
<path d="M130.439 76.9145V53.0855C139.811 53.96 143.594 59.9221 143.594 64.9901C143.594 71.3895 139.614 76.1792 130.439 76.9145ZM103.737 64.9901C103.737 59.8229 107.815 53.9401 116.872 53.0657V76.9145C108.089 76.1593 103.737 71.1908 103.737 64.9901ZM157.926 64.9901C157.926 49.528 146.692 41.3398 130.439 40.5051V35H116.872V40.4853C100.541 41.3398 89.3857 50.164 89.3857 64.9901C89.3857 80.0149 100.365 88.7595 116.872 89.5148V95H130.439V89.5148C146.908 88.839 157.926 79.9751 157.926 64.9901Z" fill="#93D500"/>
</g>
<defs>
<clipPath id="clip0_1909_1870">
<rect width="171.429" height="60" fill="white" transform="translate(39 35)"/>
</clipPath>
</defs>
</svg>
