<svg width="300" height="160" viewBox="0 0 300 160" fill="none" xmlns="http://www.w3.org/2000/svg">
<g clip-path="url(#clip0_1326_1105)">
<path d="M83 133.957H96.5307V120.503H116.51V109.555H96.5307V106.215H116.51V95.1276L83 95.0502V133.957ZM134.37 84.1175C124.721 84.1175 119.401 90.6586 119.401 100.153V118.771C119.401 128.266 124.721 134.807 134.37 134.807C144.019 134.807 149.262 128.266 149.262 118.771V100.153C149.262 90.6431 144.019 84.1175 134.37 84.1175ZM131.169 99.844L132.004 91.107H132.762L132.917 98.1739H133.442L133.829 91.107H134.741L135.128 98.1739H135.654L135.808 91.107H136.566L137.401 99.844C137.478 100.988 136.875 101.591 135.886 101.823C135.051 102.055 135.205 102.736 135.205 103.493L136.272 125.08C136.35 125.993 135.36 126.518 134.293 126.518C133.226 126.518 132.236 125.993 132.314 125.08L133.381 103.493C133.381 102.736 133.535 102.055 132.7 101.823C131.71 101.591 131.092 100.988 131.169 99.844ZM166.581 75.9836C156.932 75.9836 151.612 82.5247 151.612 92.0194V118.771C151.612 128.266 156.932 134.807 166.581 134.807C176.23 134.807 181.472 128.266 181.472 118.771V92.0194C181.472 82.5247 176.23 75.9836 166.581 75.9836ZM99.7162 25C89.7576 25 83 31.3865 83 42.3966V75.0712C83 86.0967 89.7576 92.2513 99.7162 92.2513C109.752 92.2513 116.51 86.0967 116.51 75.0712V53.0355H98.6492V67.5559H102.531V76.6022C102.531 78.8752 101.773 80.3288 99.7162 80.3288C97.8142 80.3288 96.9791 78.8908 96.9791 76.6022V40.2626C96.9791 38.2833 97.8142 36.9225 99.7162 36.9225C101.773 36.9225 102.531 38.2833 102.531 40.5718V49.5408H116.51V42.3966C116.51 31.3865 109.752 25 99.7162 25ZM163.163 39.1338C163.163 37.0771 164.524 31.7576 166.581 31.7576C168.638 31.7576 169.998 37.0771 169.998 39.1338C169.998 40.5718 169.689 41.4842 169.086 42.0254C168.406 42.6286 167.864 42.6286 167.648 43.0152C167.339 43.4636 167.416 44.9172 167.493 46.3553L168.483 65.4993C168.56 66.5663 167.571 67.0147 166.581 67.0147C165.591 67.0147 164.602 66.5663 164.679 65.4993L165.669 46.3553C165.746 44.9172 165.823 43.4636 165.514 43.0152C165.282 42.6286 164.756 42.6286 164.076 42.0254C163.473 41.4842 163.163 40.5718 163.163 39.1338ZM164.385 124.849L165.684 104.56C164.849 104.035 162.715 101.901 162.715 96.2718C162.715 90.04 164.076 84.1175 166.968 83.1278H167.493V104.56L168.56 124.849C168.638 125.993 167.648 126.518 166.581 126.518C165.375 126.518 164.308 125.9 164.385 124.849ZM201.158 118.307C201.158 120.58 200.168 122.034 197.585 122.034V77.8082C200.168 77.8082 201.158 79.2464 201.158 81.535V118.307ZM199.333 133.957C208.302 133.957 214.302 127.802 214.302 116.776V84.1175C214.302 73.0919 207.544 66.9373 199.333 66.9373H184.441V133.957H199.333ZM196.225 64.7415L198.498 53.7159H198.884L200.941 64.7415H210.745L216.065 25.835H205.348L203.524 43.8502H202.92L201.312 33.6596H196.147L194.477 43.8347H193.797L192.05 25.8196H181.333L186.56 64.7415H196.225ZM136.272 47.8707C136.272 51.1335 135.283 52.1232 132.7 52.1232V36.9225C135.283 36.9998 136.272 37.9121 136.272 41.0976V47.8707ZM144.174 56.0819C147.282 54.2572 149.107 51.3655 149.107 45.5976V40.8812C149.107 31.3865 146.37 25.835 133.674 25.835H119.541V81.6123H132.685V62.6848C135.267 62.7622 136.257 63.5972 136.257 66.9373V81.5969H149.246V64.4323C149.262 60.1798 147.282 56.7623 144.174 56.0819ZM166.581 25C156.932 25 151.612 31.5411 151.612 41.0358V57.52C151.612 67.0147 156.932 73.5558 166.581 73.5558C176.23 73.5558 181.472 67.0147 181.472 57.52V41.0358C181.472 31.5257 176.23 25 166.581 25Z" fill="#00B923"/>
</g>
<defs>
<clipPath id="clip0_1326_1105">
<rect width="133.065" height="110" fill="white" transform="translate(83 25)"/>
</clipPath>
</defs>
</svg>
