<svg width="150" height="124" viewBox="0 0 150 124" fill="none" xmlns="http://www.w3.org/2000/svg">
<path d="M0 122.824H15.2528V107.658H37.7745V95.3167H15.2528V91.5514H37.7745V79.0529L0 78.9657V122.824ZM57.9082 66.6415C47.0308 66.6415 41.0343 74.0151 41.0343 84.7182V105.706C41.0343 116.409 47.0308 123.783 57.9082 123.783C68.7856 123.783 74.6949 116.409 74.6949 105.706V84.7182C74.6949 73.9977 68.7856 66.6415 57.9082 66.6415ZM54.2998 84.3696L55.2411 74.5206H56.0953L56.2696 82.4869H56.8623L57.2981 74.5206H58.3265L58.7623 82.4869H59.355L59.5293 74.5206H60.3835L61.3248 84.3696C61.412 85.6595 60.7321 86.3393 59.6165 86.6008C58.6752 86.8623 58.8495 87.6293 58.8495 88.4834L60.0523 112.818C60.1395 113.847 59.0238 114.439 57.821 114.439C56.6182 114.439 55.5026 113.847 55.5898 112.818L56.7926 88.4834C56.7926 87.6293 56.9669 86.8623 56.0256 86.6008C54.9099 86.3393 54.2127 85.6595 54.2998 84.3696ZM94.2185 57.4724C83.3411 57.4724 77.3446 64.846 77.3446 75.5491V105.706C77.3446 116.409 83.3411 123.783 94.2185 123.783C105.096 123.783 111.005 116.409 111.005 105.706V75.5491C111.005 64.846 105.096 57.4724 94.2185 57.4724ZM18.8437 0C7.61766 0 0 7.1993 0 19.6107V56.4439C0 68.8727 7.61766 75.8106 18.8437 75.8106C30.1569 75.8106 37.7745 68.8727 37.7745 56.4439V31.6037H17.6409V47.9721H22.0163V58.1697C22.0163 60.7321 21.1621 62.3707 18.8437 62.3707C16.6996 62.3707 15.7583 60.7496 15.7583 58.1697V17.2051C15.7583 14.9739 16.6996 13.4399 18.8437 13.4399C21.1621 13.4399 22.0163 14.9739 22.0163 17.5537V27.6642H37.7745V19.6107C37.7745 7.1993 30.1569 0 18.8437 0ZM90.3661 15.9326C90.3661 13.6142 91.9001 7.61766 94.2185 7.61766C96.5369 7.61766 98.0709 13.6142 98.0709 15.9326C98.0709 17.5537 97.7223 18.5822 97.0424 19.1923C96.2754 19.8722 95.6653 19.8722 95.4213 20.308C95.0726 20.8135 95.1598 22.4521 95.247 24.0732L96.3626 45.6537C96.4497 46.8565 95.3341 47.362 94.2185 47.362C93.1028 47.362 91.9872 46.8565 92.0744 45.6537L93.19 24.0732C93.2772 22.4521 93.3643 20.8135 93.0157 20.308C92.7542 19.8722 92.1615 19.8722 91.3945 19.1923C90.7147 18.5822 90.3661 17.5537 90.3661 15.9326ZM91.7432 112.557L93.2074 89.6862C92.2661 89.0935 89.8605 86.688 89.8605 80.3428C89.8605 73.3178 91.3945 66.6415 94.6543 65.5259H95.247V89.6862L96.4497 112.557C96.5369 113.847 95.4213 114.439 94.2185 114.439C92.8588 114.439 91.656 113.742 91.7432 112.557ZM133.196 105.183C133.196 107.745 132.08 109.384 129.169 109.384V59.5293C132.08 59.5293 133.196 61.1505 133.196 63.7304V105.183ZM131.139 122.824C141.249 122.824 148.013 115.886 148.013 103.457V66.6415C148.013 54.2127 140.395 47.2748 131.139 47.2748H114.352V122.824H131.139ZM127.635 44.7995L130.198 32.3707H130.633L132.952 44.7995H144.003L150 0.941312H137.92L135.863 21.2493H135.183L133.37 9.76177H127.548L125.665 21.2318H124.898L122.929 0.923882H110.848L116.74 44.7995H127.635ZM60.0523 25.7815C60.0523 29.4596 58.9367 30.5752 56.0256 30.5752V13.4399C58.9367 13.527 60.0523 14.5555 60.0523 18.1464V25.7815ZM68.9599 35.0378C72.4637 32.9808 74.5206 29.7211 74.5206 23.2191V17.9024C74.5206 7.1993 71.4352 0.941312 57.1238 0.941312H41.1912V63.8175H56.0081V42.4811C58.9192 42.5683 60.0349 43.5096 60.0349 47.2748V63.8001H74.6775V44.4509C74.6949 39.6572 72.4637 35.8048 68.9599 35.0378ZM94.2185 0C83.3411 0 77.3446 7.37362 77.3446 18.0767V36.6589C77.3446 47.362 83.3411 54.7356 94.2185 54.7356C105.096 54.7356 111.005 47.362 111.005 36.6589V18.0767C111.005 7.35619 105.096 0 94.2185 0Z" fill="#3A3A3A"/>
</svg>
