<svg width="150" height="125" viewBox="0 0 150 125" fill="none" xmlns="http://www.w3.org/2000/svg">
<g clip-path="url(#clip0_1751_1629)">
<path d="M0 123.324H15.2528V108.158H37.7745V95.8167H15.2528V92.0514H37.7745V79.5529L0 79.4657V123.324ZM57.9082 67.1415C47.0308 67.1415 41.0343 74.5151 41.0343 85.2182V106.206C41.0343 116.909 47.0308 124.283 57.9082 124.283C68.7856 124.283 74.6949 116.909 74.6949 106.206V85.2182C74.6949 74.4977 68.7856 67.1415 57.9082 67.1415ZM54.2998 84.8696L55.2411 75.0206H56.0953L56.2696 82.9869H56.8623L57.2981 75.0206H58.3265L58.7623 82.9869H59.355L59.5293 75.0206H60.3835L61.3248 84.8696C61.412 86.1595 60.7321 86.8393 59.6165 87.1008C58.6752 87.3623 58.8495 88.1293 58.8495 88.9834L60.0523 113.318C60.1395 114.347 59.0238 114.939 57.821 114.939C56.6182 114.939 55.5026 114.347 55.5898 113.318L56.7926 88.9834C56.7926 88.1293 56.9669 87.3623 56.0256 87.1008C54.9099 86.8393 54.2127 86.1595 54.2998 84.8696ZM94.2185 57.9724C83.3411 57.9724 77.3446 65.346 77.3446 76.0491V106.206C77.3446 116.909 83.3411 124.283 94.2185 124.283C105.096 124.283 111.005 116.909 111.005 106.206V76.0491C111.005 65.346 105.096 57.9724 94.2185 57.9724ZM18.8437 0.5C7.61766 0.5 0 7.6993 0 20.1107V56.9439C0 69.3727 7.61766 76.3106 18.8437 76.3106C30.1569 76.3106 37.7745 69.3727 37.7745 56.9439V32.1037H17.6409V48.4721H22.0163V58.6697C22.0163 61.2321 21.1621 62.8707 18.8437 62.8707C16.6996 62.8707 15.7583 61.2496 15.7583 58.6697V17.7051C15.7583 15.4739 16.6996 13.9399 18.8437 13.9399C21.1621 13.9399 22.0163 15.4739 22.0163 18.0537V28.1642H37.7745V20.1107C37.7745 7.6993 30.1569 0.5 18.8437 0.5ZM90.3661 16.4326C90.3661 14.1142 91.9001 8.11766 94.2185 8.11766C96.5369 8.11766 98.0709 14.1142 98.0709 16.4326C98.0709 18.0537 97.7223 19.0822 97.0424 19.6923C96.2754 20.3722 95.6653 20.3722 95.4213 20.808C95.0726 21.3135 95.1598 22.9521 95.247 24.5732L96.3626 46.1537C96.4497 47.3565 95.3341 47.862 94.2185 47.862C93.1028 47.862 91.9872 47.3565 92.0744 46.1537L93.19 24.5732C93.2772 22.9521 93.3643 21.3135 93.0157 20.808C92.7542 20.3722 92.1615 20.3722 91.3945 19.6923C90.7147 19.0822 90.3661 18.0537 90.3661 16.4326ZM91.7432 113.057L93.2074 90.1862C92.2661 89.5935 89.8605 87.188 89.8605 80.8428C89.8605 73.8178 91.3945 67.1415 94.6543 66.0259H95.247V90.1862L96.4497 113.057C96.5369 114.347 95.4213 114.939 94.2185 114.939C92.8588 114.939 91.656 114.242 91.7432 113.057ZM133.196 105.683C133.196 108.245 132.08 109.884 129.169 109.884V60.0293C132.08 60.0293 133.196 61.6505 133.196 64.2304V105.683ZM131.139 123.324C141.249 123.324 148.013 116.386 148.013 103.957V67.1415C148.013 54.7127 140.395 47.7748 131.139 47.7748H114.352V123.324H131.139ZM127.635 45.2995L130.198 32.8707H130.633L132.952 45.2995H144.003L150 1.44131H137.92L135.863 21.7493H135.183L133.37 10.2618H127.548L125.665 21.7318H124.898L122.929 1.42388H110.848L116.74 45.2995H127.635ZM60.0523 26.2815C60.0523 29.9596 58.9367 31.0752 56.0256 31.0752V13.9399C58.9367 14.027 60.0523 15.0555 60.0523 18.6464V26.2815ZM68.9599 35.5378C72.4637 33.4808 74.5206 30.2211 74.5206 23.7191V18.4024C74.5206 7.6993 71.4352 1.44131 57.1238 1.44131H41.1912V64.3175H56.0081V42.9811C58.9192 43.0683 60.0349 44.0096 60.0349 47.7748V64.3001H74.6775V44.9509C74.6949 40.1572 72.4637 36.3048 68.9599 35.5378ZM94.2185 0.5C83.3411 0.5 77.3446 7.87362 77.3446 18.5767V37.1589C77.3446 47.862 83.3411 55.2356 94.2185 55.2356C105.096 55.2356 111.005 47.862 111.005 37.1589V18.5767C111.005 7.85619 105.096 0.5 94.2185 0.5Z" fill="#5B2A98"/>
</g>
<defs>
<clipPath id="clip0_1751_1629">
<rect width="150" height="124" fill="white" transform="translate(0 0.5)"/>
</clipPath>
</defs>
</svg>
