<svg width="300" height="160" viewBox="0 0 300 160" fill="none" xmlns="http://www.w3.org/2000/svg">
<g clip-path="url(#clip0_1326_1105)">
<path fill-rule="evenodd" clip-rule="evenodd" d="M90.594 71.5064L96.6301 66.3787V80.4716L90.594 71.5064ZM228.41 63.7883C222.562 63.7883 218.655 64.4576 216.366 66.292L217.117 64.1976H206.799L204.063 73.4228C203.687 74.8431 203.35 76.0179 203.007 77.2795C202.642 75.8543 202.15 74.6554 201.89 73.9091L198.132 64.1976H191.085L187.298 74.0535C186.696 75.5172 186.171 76.6102 185.834 77.8091C185.496 76.0179 185.27 74.3954 184.971 73.4228L182.418 64.1976H172.774V57.7168H163.288V64.3757H158.337V64.1254C158.337 62.9168 159.049 62.5798 160.287 62.5798H162.122V57.4087H156.718C151.138 57.4087 149 58.8387 149 63.2635V64.3757H143.296V66.186C143.258 66.0754 143.147 65.9983 142.993 65.8106C140.146 63.7883 134.403 63.7065 131.065 63.7065C123.906 63.7065 119.628 64.8043 117.831 67.7509C116.892 64.9824 114.864 63.7498 111.41 63.7498C108.784 63.7498 106.795 64.3757 105.335 65.8106V64.1976H86.2053L79.4561 70.8035V57.7168H69.9658V85.4598H79.4561V80.7943L83.4642 77.1254L88.6429 85.4598H105.562V74.3954C105.562 71.9639 106.159 70.4954 107.811 70.4954C109.647 70.4954 110.138 72.2528 110.138 73.7309H118.472C118.472 72.6379 118.385 71.3187 118.323 70.3124H126.72C126.864 68.7716 128.362 68.6176 131.103 68.6176C132.346 68.6176 136.017 68.7716 136.017 70.6109C136.017 71.9157 134.374 72.1854 131.103 72.1854C129.832 72.1854 128.102 72.3298 126.156 72.4502C121.541 72.5898 118.323 72.9364 116.29 75.3631C115.495 76.3502 115.158 77.6212 115.158 79.2631C115.158 83.842 118.578 85.4598 125.665 85.4598C127.726 85.4598 129.605 85.3057 131.103 85.1179C133.05 84.8916 134.789 84.025 136.244 82.4939C136.244 83.6831 136.581 84.4728 136.99 85.4598H147.092L147.044 84.5209C146.856 84.4439 146.668 84.1743 146.668 84.1743C146.182 83.6831 145.878 83.0476 145.878 82.2339V74.0535C145.878 72.6379 145.772 71.3187 145.469 70.3124H149V85.4598H158.529V70.3124H163.288V78.9647C163.288 81.8247 164.073 84.5209 166.025 85.0072C167.191 85.195 169.518 85.4598 171.801 85.4598H176.488V79.5664H175.034C172.774 79.5664 172.774 78.252 172.774 75.0357V70.3124H174.089L179.268 85.4598H189.885L193.667 76.6102C194.005 75.8543 194.168 74.8431 194.539 73.9091C194.683 74.8431 194.943 76.0179 195.285 76.8316L198.923 85.4598H209.723L214.863 70.6398L224.132 70.8035C224.205 69.2916 225.708 68.6176 228.366 68.6176H229.002C231.633 68.6176 233.131 69.6335 233.131 70.6109C233.131 71.9157 231.555 72.2191 228.41 72.2191C227.211 72.2191 225.404 72.3298 223.496 72.4502C218.848 72.6379 215.586 72.9364 213.668 75.3631C212.835 76.3502 212.508 77.6212 212.508 79.2631C212.508 83.842 215.919 85.4598 222.971 85.4598C225.028 85.4598 226.945 85.2287 228.41 85.1179C230.207 84.935 232.052 84.025 233.583 82.4939C233.583 83.6831 233.882 84.4728 234.263 85.4598H244.091V85.0072C243.262 84.4728 243.262 83.5098 243.262 82.2339V74.0535C243.262 72.7776 243.146 71.6991 242.92 70.6398L249.525 82.4939C248.774 85.0072 247.689 85.4598 245.097 85.4598H242.886V91.2231H249.525C252.189 91.2231 254.178 90.8957 255.835 89.2395C256.953 88.2283 258.413 85.9076 260.142 82.7105L269.251 64.1976H259.049L255.638 72.2191C255.301 73.1964 254.891 74.1691 254.708 75.1464C254.404 74.0535 253.994 72.9364 253.432 71.7664L249.977 64.1976H239.432L240.521 66.1524C240.415 66.0754 240.299 65.9647 240.188 65.8106C238.305 64.4576 234.446 63.7498 228.82 63.7498C228.708 63.7498 228.516 63.7883 228.41 63.7883ZM131.103 80.6643C130.728 80.6931 129.976 80.7943 129.379 80.7943C127.278 80.7943 125.93 79.942 125.93 78.5891C125.93 77.2795 126.941 76.8316 129.605 76.6102C130.087 76.6102 130.728 76.456 131.103 76.456C132.992 76.456 134.625 76.2683 136.244 75.5172V76.0179C136.244 78.4109 134.259 80.3609 131.103 80.6643ZM228.41 76.5331C228.072 76.5331 227.432 76.6102 226.906 76.6102C224.282 76.8316 223.27 77.2795 223.27 78.5891C223.27 79.942 224.575 80.7943 226.719 80.7943C227.316 80.7943 228.072 80.6643 228.41 80.6643C231.517 80.4235 233.583 78.4109 233.583 76.0179C233.583 76.0179 233.583 75.6328 233.435 75.5172C231.975 76.2683 230.25 76.5331 228.41 76.5331Z" fill="#3A3A3A"/>
<path fill-rule="evenodd" clip-rule="evenodd" d="M37.291 91.0737C45.1618 91.0737 51.7664 85.2671 51.7664 77.1637C51.7664 74.2025 50.6873 70.5675 49.5985 68.6175L38.6741 85.2671H27.1254L37.291 69.6333L41.7559 62.7722C40.3251 62.4689 38.8644 62.3918 37.291 62.3918V62.3678C29.4137 62.3678 22.8129 68.6175 22.8129 76.8315C22.8129 85.2671 29.3024 91.0737 37.291 91.0737ZM37.291 94.3044C27.427 92.1667 20 83.2496 20 72.45C20 62.1704 27.427 53.4748 37.291 51.4911C38.7204 51.183 40.2624 51 41.7559 51C45.6964 51 48.9193 51.4911 51.7664 53.0222L41.9822 68.6175H49.5985L56.9161 56.7393C60.4425 60.23 63.8821 66.7108 63.8821 72.45C63.8821 77.6308 62.1526 82.3781 59.243 86.1481C55.2059 91.3675 48.8856 94.7137 41.7559 94.7137C40.2624 94.7137 38.7204 94.5308 37.291 94.3044Z" fill="#3A3A3A"/>
<path d="M275.076 63.8077H275.9C276.295 63.8077 276.555 63.7499 276.705 63.6344C276.849 63.5188 276.917 63.3647 276.917 63.1577C276.917 63.0422 276.888 62.9314 276.815 62.8351C276.748 62.7388 276.657 62.657 276.527 62.6185C276.406 62.5607 276.18 62.5462 275.852 62.5462H275.076V63.8077ZM274.392 66.167V61.9733H275.841C276.333 61.9733 276.69 62.0118 276.917 62.0936C277.129 62.1659 277.301 62.3007 277.437 62.4981C277.567 62.6859 277.643 62.8929 277.643 63.1144C277.643 63.4177 277.529 63.6825 277.301 63.9088C277.089 64.1447 276.792 64.2699 276.43 64.2891C276.575 64.3614 276.699 64.4385 276.781 64.5155C276.956 64.6791 277.162 64.9633 277.408 65.3485L277.919 66.167H277.089L276.71 65.5122C276.42 64.9922 276.179 64.6695 276.016 64.5395C275.891 64.4433 275.712 64.3951 275.471 64.3903H275.076V66.167H274.392ZM276.103 60.7696C275.553 60.7696 275.019 60.9092 274.502 61.1836C273.994 61.4622 273.573 61.8754 273.284 62.3777C272.994 62.9025 272.85 63.4514 272.85 64.0195C272.85 64.5733 272.991 65.1174 273.279 65.6326C273.568 66.1381 273.973 66.5474 274.488 66.8266C274.994 67.1107 275.544 67.2647 276.103 67.2647C276.66 67.2647 277.201 67.1107 277.711 66.8266C278.222 66.5519 278.642 66.1377 278.925 65.6326C279.21 65.1174 279.349 64.5733 279.349 64.0195C279.349 63.4514 279.21 62.9025 278.911 62.3777C278.627 61.8712 278.205 61.4568 277.691 61.1836C277.171 60.9092 276.651 60.7696 276.103 60.7696ZM276.103 60.1147C276.762 60.1147 277.398 60.2785 278.019 60.6203C278.642 60.9573 279.128 61.434 279.475 62.0647C279.821 62.6859 280 63.331 280 64.0195C280 64.6791 279.826 65.3291 279.479 65.9503C279.137 66.5666 278.656 67.0577 278.044 67.3899C277.453 67.7306 276.784 67.9083 276.103 67.9051C275.428 67.9051 274.782 67.7414 274.161 67.3899C273.544 67.0577 273.058 66.5666 272.716 65.9503C272.373 65.3291 272.2 64.6791 272.2 64.0195C272.2 63.331 272.373 62.6859 272.72 62.0647C273.076 61.434 273.564 60.9573 274.185 60.6203C274.811 60.2785 275.448 60.1147 276.103 60.1147Z" fill="#3A3A3A"/>
<path d="M72.3269 104.936C72.7893 104.936 73.1265 104.806 73.3674 104.546C73.5891 104.276 73.7094 103.982 73.7094 103.636C73.7094 103.318 73.6083 103.043 73.4011 102.793C73.1988 102.538 72.8423 102.417 72.3269 102.417H71.5754V104.936H72.3269ZM72.3269 101.137C73.2132 101.137 73.8732 101.296 74.3116 101.604C74.7451 101.902 75.0535 102.239 75.2173 102.605C75.3184 102.803 75.3667 103 75.4003 103.193C75.4341 103.385 75.4534 103.539 75.4534 103.679V103.814C75.4196 104.416 75.1739 104.964 74.7115 105.46C74.2491 105.961 73.5601 106.207 72.6303 106.207H71.5754V109.259H69.9277V101.137H72.3269Z" fill="#3A3A3A"/>
<path d="M81.6572 102.234C81.5223 102.258 81.3778 102.297 81.2429 102.35C80.872 102.485 80.5444 102.769 80.2408 103.188C79.947 103.611 79.8025 104.276 79.8025 105.205C79.8025 106.115 79.947 106.789 80.2408 107.208C80.5444 107.627 80.872 107.911 81.2429 108.051C81.3778 108.108 81.5223 108.137 81.6572 108.152C81.7969 108.176 81.9221 108.19 82.0426 108.19C82.1534 108.19 82.2882 108.176 82.4232 108.152C82.5581 108.137 82.6977 108.108 82.8375 108.051C83.1987 107.911 83.5263 107.627 83.8347 107.208C84.1237 106.789 84.2731 106.115 84.2731 105.205C84.2731 104.276 84.1237 103.611 83.8347 103.188C83.5263 102.769 83.1987 102.485 82.8375 102.35C82.7032 102.299 82.5646 102.26 82.4232 102.234C82.2882 102.225 82.1534 102.21 82.0426 102.21C81.9221 102.21 81.7969 102.225 81.6572 102.234ZM84.8704 102.109C85.6316 102.817 86.0121 103.847 86.0121 105.205C86.0121 106.548 85.6316 107.584 84.8704 108.282C84.1093 108.989 83.1651 109.336 82.0426 109.336C80.9105 109.336 79.9615 108.989 79.2003 108.282C78.4392 107.584 78.0635 106.548 78.0635 105.205C78.0635 103.847 78.4392 102.817 79.2003 102.109C79.9615 101.396 80.9105 101.055 82.0426 101.055C83.1651 101.055 84.1093 101.396 84.8704 102.109Z" fill="#3A3A3A"/>
<path d="M95.0069 109C94.7564 109.091 94.5059 109.154 94.241 109.197C93.976 109.264 93.7111 109.293 93.4316 109.312C93.3497 109.317 93.263 109.332 93.1666 109.332C93.0751 109.337 92.9884 109.337 92.9065 109.337C91.7649 109.337 90.7724 108.995 89.9342 108.321C89.1056 107.623 88.6816 106.607 88.6816 105.239C88.6816 103.963 89.0863 102.942 89.8957 102.182C90.7001 101.431 91.8081 101.045 93.2052 101.045C93.475 101.045 93.7111 101.06 93.9326 101.084C94.1494 101.123 94.3662 101.156 94.5782 101.195C94.6505 101.224 94.7179 101.252 94.7949 101.262C94.872 101.277 94.9346 101.296 95.0069 101.33L94.9346 102.716C94.6745 102.605 94.4096 102.533 94.1446 102.49C93.8733 102.437 93.5973 102.411 93.3208 102.413C92.5018 102.413 91.8081 102.658 91.2494 103.14C90.7002 103.626 90.4256 104.315 90.4256 105.22C90.4256 106.149 90.6665 106.818 91.1531 107.237C91.6395 107.647 92.1792 107.892 92.7669 107.955C92.8438 107.969 92.9209 107.969 92.9932 107.974C93.0655 107.984 93.1378 107.984 93.2052 107.984C93.528 107.984 93.8122 107.95 94.0675 107.897C94.3229 107.83 94.5396 107.767 94.7275 107.7L94.8143 107.661L94.901 107.618L95.0069 109Z" fill="#3A3A3A"/>
<path d="M103.94 109C103.689 109.091 103.439 109.154 103.174 109.197C102.909 109.264 102.644 109.293 102.374 109.312C102.282 109.317 102.191 109.332 102.099 109.332C102.008 109.337 101.921 109.337 101.839 109.337C100.697 109.337 99.705 108.995 98.862 108.321C98.0382 107.623 97.6143 106.607 97.6143 105.239C97.6143 103.963 98.0238 102.942 98.8283 102.182C99.628 101.431 100.741 101.045 102.138 101.045C102.408 101.045 102.644 101.06 102.865 101.084C103.077 101.123 103.299 101.156 103.511 101.195C103.578 101.224 103.651 101.252 103.723 101.262C103.8 101.277 103.867 101.296 103.94 101.33L103.867 102.716C103.607 102.605 103.337 102.533 103.072 102.49C102.817 102.437 102.542 102.413 102.253 102.413C101.43 102.413 100.741 102.658 100.182 103.14C99.628 103.626 99.3582 104.315 99.3582 105.22C99.3582 106.149 99.5991 106.818 100.086 107.237C100.572 107.647 101.112 107.892 101.7 107.955C101.776 107.969 101.854 107.969 101.921 107.974C101.998 107.984 102.07 107.984 102.138 107.984C102.456 107.984 102.745 107.95 103 107.897C103.255 107.83 103.467 107.767 103.66 107.7L103.757 107.661L103.829 107.618L103.94 109Z" fill="#3A3A3A"/>
<path d="M108.483 101.142V105.306L108.449 107.295H108.483L109.065 106.101L111.903 101.142H113.878V109.259H112.235V105.075L112.269 103.111H112.235L111.672 104.343L108.805 109.259H106.84V101.142H108.483Z" fill="#3A3A3A"/>
<path d="M122.703 99.2153C122.568 99.538 122.409 99.8028 122.206 99.9857C122.009 100.169 121.797 100.299 121.575 100.39C121.397 100.467 121.214 100.515 121.026 100.544C120.853 100.564 120.689 100.573 120.559 100.573C120.429 100.573 120.27 100.564 120.096 100.544C119.913 100.515 119.735 100.467 119.552 100.4C119.33 100.308 119.118 100.169 118.921 99.9905C118.714 99.8076 118.545 99.5476 118.41 99.2153L119.258 98.7676C119.277 98.8061 119.297 98.8543 119.325 98.9072C119.359 98.9697 119.393 99.0276 119.446 99.0853C119.538 99.1961 119.672 99.2972 119.846 99.3887C120.019 99.4753 120.26 99.5139 120.559 99.5139C120.862 99.5139 121.098 99.4753 121.267 99.3887C121.445 99.2972 121.575 99.1961 121.667 99.0853C121.715 99.0276 121.763 98.9697 121.787 98.9072C121.816 98.8543 121.84 98.8061 121.859 98.7676L122.703 99.2153ZM118.772 101.146V105.311L118.738 107.29H118.772L119.354 106.1L122.192 101.146H124.167V109.259H122.519V105.075L122.553 103.115H122.519L121.961 104.338L119.099 109.259H117.119V101.146H118.772Z" fill="#3A3A3A"/>
<path d="M133.444 109C133.199 109.091 132.939 109.154 132.678 109.197C132.414 109.264 132.149 109.293 131.879 109.312C131.787 109.317 131.696 109.332 131.604 109.332C131.522 109.337 131.426 109.337 131.349 109.337C130.202 109.337 129.215 108.995 128.377 108.321C127.543 107.623 127.119 106.607 127.119 105.239C127.119 103.963 127.529 102.942 128.338 102.182C129.142 101.431 130.255 101.045 131.643 101.045C131.912 101.045 132.149 101.06 132.375 101.084C132.592 101.123 132.808 101.156 133.016 101.195C133.083 101.224 133.16 101.252 133.228 101.262C133.309 101.277 133.372 101.296 133.444 101.33L133.372 102.716C133.112 102.605 132.842 102.533 132.582 102.49C132.314 102.437 132.041 102.411 131.768 102.413C130.935 102.413 130.246 102.658 129.687 103.14C129.133 103.626 128.863 104.315 128.863 105.22C128.863 106.149 129.104 106.818 129.6 107.237C130.077 107.647 130.626 107.892 131.204 107.955C131.281 107.969 131.358 107.969 131.426 107.974C131.508 107.984 131.575 107.984 131.643 107.984C131.965 107.984 132.255 107.95 132.505 107.897C132.765 107.83 132.982 107.767 133.165 107.7L133.261 107.661L133.343 107.618L133.444 109Z" fill="#3A3A3A"/>
<path d="M137.987 101.142V104.613H138.031L140.965 101.142H142.925L139.534 104.815L143.128 109.259H141.037L138.031 105.22H137.987V109.259H136.345V101.142H137.987Z" fill="#3A3A3A"/>
<path d="M147.291 101.142V105.306L147.262 107.295H147.291L147.874 106.101L150.706 101.142H152.686V109.259H151.039V105.075L151.078 103.111H151.039L150.48 104.343L147.619 109.259H145.648V101.142H147.291Z" fill="#3A3A3A"/>
<path d="M160.784 101.142V102.581H157.586V104.416H160.495V105.74H157.586V107.815H160.784V109.259H155.938V101.142H160.784Z" fill="#3A3A3A"/>
<path d="M175.192 101.142V102.581H172.846V109.259H171.199V102.581H168.857V101.142H175.192Z" fill="#3A3A3A"/>
<path d="M182.646 101.142V102.581H179.452V104.416H182.357V105.74H179.452V107.815H182.646V109.259H177.805V101.142H182.646Z" fill="#3A3A3A"/>
<path d="M187.275 101.142L188.576 103.4L188.947 104.088H188.981L189.351 103.4L190.681 101.142H192.488L190.017 105.013L192.723 109.259H190.777L189.226 106.679L188.879 106.053H188.846L188.495 106.679L186.88 109.259H185.078L187.795 105.013L185.329 101.142H187.275Z" fill="#3A3A3A"/>
<path d="M197.041 101.142V104.416H200.335V101.142H201.987V109.259H200.335V105.74H197.041V109.259H195.397V101.142H197.041Z" fill="#3A3A3A"/>
<path d="M208.534 102.234C208.398 102.258 208.254 102.297 208.119 102.35C207.748 102.485 207.426 102.769 207.127 103.188C206.833 103.611 206.684 104.276 206.684 105.205C206.684 106.115 206.833 106.789 207.127 107.208C207.426 107.627 207.748 107.911 208.119 108.051C208.254 108.108 208.398 108.137 208.534 108.152C208.674 108.176 208.804 108.19 208.92 108.19C209.035 108.19 209.165 108.176 209.299 108.152C209.44 108.137 209.579 108.108 209.719 108.051C210.081 107.911 210.412 107.627 210.711 107.208C211.015 106.789 211.154 106.115 211.154 105.205C211.154 104.276 211.015 103.611 210.711 103.188C210.412 102.769 210.081 102.485 209.719 102.35C209.579 102.297 209.44 102.258 209.299 102.234C209.165 102.225 209.035 102.21 208.92 102.21C208.804 102.21 208.674 102.225 208.534 102.234ZM211.752 102.109C212.513 102.817 212.899 103.847 212.899 105.205C212.899 106.548 212.513 107.584 211.752 108.282C210.991 108.989 210.047 109.336 208.92 109.336C207.787 109.336 206.842 108.989 206.087 108.282C205.316 107.584 204.94 106.548 204.94 105.205C204.94 103.847 205.316 102.817 206.087 102.109C206.842 101.396 207.787 101.055 208.92 101.055C210.047 101.055 210.991 101.396 211.752 102.109Z" fill="#3A3A3A"/>
<path d="M222.104 101.142V109.259H220.461V102.581H218.313V104.204C218.313 105.754 218.202 107.006 217.981 107.935C217.763 108.869 217.085 109.341 215.947 109.341C215.88 109.341 215.823 109.341 215.76 109.336C215.687 109.336 215.62 109.322 215.557 109.317C215.481 109.303 215.422 109.288 215.345 109.284C215.287 109.269 215.215 109.264 215.162 109.259L215.23 107.969L215.278 107.974L215.331 107.998L215.388 108.003H215.436L215.557 108.022H215.668C216.159 108.022 216.478 107.728 216.597 107.141C216.723 106.554 216.786 105.894 216.786 105.196V104.445C216.775 104.329 216.772 104.213 216.772 104.117V101.142H222.104Z" fill="#3A3A3A"/>
<path d="M228.66 102.234C228.52 102.258 228.38 102.297 228.24 102.35C227.875 102.485 227.551 102.769 227.248 103.188C226.958 103.611 226.81 104.276 226.81 105.205C226.81 106.115 226.958 106.789 227.248 107.208C227.551 107.627 227.875 107.911 228.24 108.051C228.38 108.108 228.52 108.137 228.66 108.152C228.794 108.176 228.924 108.19 229.045 108.19C229.16 108.19 229.29 108.176 229.426 108.152C229.565 108.137 229.705 108.108 229.844 108.051C230.206 107.911 230.538 107.627 230.837 107.208C231.135 106.789 231.279 106.115 231.279 105.205C231.279 104.276 231.135 103.611 230.837 103.188C230.538 102.769 230.206 102.485 229.844 102.35C229.705 102.297 229.565 102.258 229.426 102.234C229.29 102.225 229.16 102.21 229.045 102.21C228.924 102.21 228.794 102.225 228.66 102.234ZM231.877 102.109C232.639 102.817 233.019 103.847 233.019 105.205C233.019 106.548 232.639 107.584 231.877 108.282C231.117 108.989 230.172 109.336 229.045 109.336C227.912 109.336 226.969 108.989 226.203 108.282C225.441 107.584 225.065 106.548 225.065 105.205C225.065 103.847 225.441 102.817 226.203 102.109C226.969 101.396 227.912 101.055 229.045 101.055C230.172 101.055 231.117 101.396 231.877 102.109Z" fill="#3A3A3A"/>
<path d="M240.97 101.142V102.581H237.621V109.259H235.979V101.142H240.97Z" fill="#3A3A3A"/>
<path d="M245.166 101.142V105.306L245.132 107.295H245.166L245.744 106.101L248.581 101.142H250.557V109.259H248.914V105.075L248.947 103.111H248.914L248.355 104.343L245.493 109.259H243.519V101.142H245.166Z" fill="#3A3A3A"/>
<path d="M255.45 101.142V105.306L255.422 107.295H255.45L256.029 106.101L258.876 101.142H260.842V109.259H259.198V105.075L259.237 103.111H259.198L258.639 104.343L255.778 109.259H253.809V101.142H255.45Z" fill="#3A3A3A"/>
</g>
<defs>
<clipPath id="clip0_1326_1105">
<rect width="260" height="58.5" fill="white" transform="translate(20 51)"/>
</clipPath>
</defs>
</svg>
