<svg width="200" height="45" viewBox="0 0 200 45" fill="none" xmlns="http://www.w3.org/2000/svg">
<path fill-rule="evenodd" clip-rule="evenodd" d="M54.3033 15.7741L58.9465 11.8297V22.6704L54.3033 15.7741ZM160.316 9.83709C155.817 9.83709 152.812 10.3519 151.051 11.763L151.629 10.1519H143.692L141.587 17.2482C141.298 18.3408 141.039 19.2445 140.775 20.2149C140.494 19.1186 140.116 18.1964 139.916 17.6223L137.025 10.1519H131.604L128.691 17.7334C128.228 18.8593 127.824 19.7001 127.565 20.6223C127.305 19.2445 127.131 17.9964 126.901 17.2482L124.937 10.1519H117.519V5.16672H110.222V10.2889H106.413V10.0964C106.413 9.16672 106.961 8.90746 107.913 8.90746H109.325V4.92969H105.168C100.876 4.92969 99.231 6.02969 99.231 9.43339V10.2889H94.8435V11.6815C94.8139 11.5964 94.7286 11.5371 94.6101 11.3927C92.42 9.8371 88.0028 9.77413 85.4348 9.77413C79.9281 9.77413 76.6375 10.6186 75.2552 12.8852C74.5326 10.7556 72.9726 9.80746 70.3156 9.80746C68.296 9.80746 66.7655 10.2889 65.6427 11.3927V10.1519H50.9274L45.7357 15.2334V5.16672H38.4355V26.5075H45.7357V22.9186L48.8189 20.0964L52.8025 26.5075H65.8169V17.9964C65.8169 16.126 66.2764 14.9964 67.5474 14.9964C68.9593 14.9964 69.3373 16.3482 69.3373 17.4852H75.7481C75.7481 16.6445 75.6814 15.6297 75.6332 14.8556H82.0922C82.2034 13.6704 83.3559 13.5519 85.4644 13.5519C86.4205 13.5519 89.2442 13.6704 89.2442 15.0852C89.2442 16.0889 87.9806 16.2964 85.4644 16.2964C84.4861 16.2964 83.1558 16.4075 81.6587 16.5001C78.1086 16.6075 75.6332 16.8741 74.0694 18.7408C73.458 19.5001 73.1986 20.4778 73.1986 21.7408C73.1986 25.263 75.8296 26.5075 81.2807 26.5075C82.8667 26.5075 84.3119 26.3889 85.4644 26.2445C86.9615 26.0704 88.2993 25.4038 89.4184 24.226C89.4184 25.1408 89.6778 25.7482 89.9928 26.5075H97.7636L97.7265 25.7852C97.582 25.726 97.4375 25.5186 97.4375 25.5186C97.0632 25.1408 96.8298 24.6519 96.8298 24.026V17.7334C96.8298 16.6445 96.7482 15.6297 96.5148 14.8556H99.231V26.5075H106.561V14.8556H110.222V21.5112C110.222 23.7112 110.826 25.7852 112.327 26.1593C113.224 26.3038 115.014 26.5075 116.77 26.5075H120.376V21.9741H119.257C117.519 21.9741 117.519 20.963 117.519 18.4889V14.8556H118.53L122.514 26.5075H130.681L133.59 19.7001C133.85 19.1186 133.976 18.3408 134.261 17.6223C134.372 18.3408 134.572 19.2445 134.835 19.8704L137.633 26.5075H145.941L149.895 15.1075L157.025 15.2334C157.081 14.0704 158.237 13.5519 160.282 13.5519H160.771C162.795 13.5519 163.947 14.3334 163.947 15.0852C163.947 16.0889 162.735 16.3223 160.316 16.3223C159.393 16.3223 158.003 16.4075 156.536 16.5001C152.96 16.6445 150.451 16.8741 148.976 18.7408C148.335 19.5001 148.083 20.4778 148.083 21.7408C148.083 25.263 150.707 26.5075 156.132 26.5075C157.714 26.5075 159.189 26.3297 160.316 26.2445C161.698 26.1038 163.117 25.4038 164.295 24.226C164.295 25.1408 164.525 25.7482 164.818 26.5075H172.378V26.1593C171.74 25.7482 171.74 25.0075 171.74 24.026V17.7334C171.74 16.7519 171.651 15.9223 171.477 15.1075L176.558 24.226C175.98 26.1593 175.146 26.5075 173.152 26.5075H171.451V30.9408H176.558C178.607 30.9408 180.137 30.6889 181.412 29.4149C182.272 28.6371 183.395 26.8519 184.725 24.3926L191.732 10.1519H183.884L181.26 16.3223C181.001 17.0741 180.686 17.8223 180.545 18.5741C180.311 17.7334 179.996 16.8741 179.563 15.9741L176.906 10.1519H168.794L169.632 11.6556C169.55 11.5964 169.461 11.5112 169.376 11.3927C167.927 10.3519 164.959 9.80746 160.631 9.80746C160.545 9.80746 160.397 9.83709 160.316 9.83709ZM85.4644 22.8186C85.1754 22.8408 84.5973 22.9186 84.1378 22.9186C82.5221 22.9186 81.4845 22.263 81.4845 21.2223C81.4845 20.2149 82.2627 19.8704 84.3119 19.7001C84.6825 19.7001 85.1754 19.5815 85.4644 19.5815C86.917 19.5815 88.1733 19.4371 89.4184 18.8593V19.2445C89.4184 21.0852 87.8916 22.5852 85.4644 22.8186ZM160.316 19.6408C160.056 19.6408 159.563 19.7001 159.159 19.7001C157.14 19.8704 156.362 20.2149 156.362 21.2223C156.362 22.263 157.366 22.9186 159.015 22.9186C159.474 22.9186 160.056 22.8186 160.316 22.8186C162.706 22.6334 164.295 21.0852 164.295 19.2445C164.295 19.2445 164.295 18.9482 164.181 18.8593C163.058 19.4371 161.731 19.6408 160.316 19.6408Z" fill="#030404"/>
<path fill-rule="evenodd" clip-rule="evenodd" d="M13.3008 30.8259C19.3552 30.8259 24.4357 26.3593 24.4357 20.1259C24.4357 17.8481 23.6056 15.0519 22.7681 13.5519L14.3647 26.3593H5.48108L13.3008 14.3333L16.7353 9.05556C15.6347 8.82222 14.5111 8.76296 13.3008 8.76296V8.74445C7.24128 8.74445 2.16375 13.5519 2.16375 19.8704C2.16375 26.3593 7.15568 30.8259 13.3008 30.8259ZM13.3008 33.3111C5.71306 31.6667 0 24.8074 0 16.5C0 8.59259 5.71306 1.9037 13.3008 0.377778C14.4003 0.140741 15.5865 0 16.7353 0C19.7665 0 22.2456 0.377778 24.4357 1.55556L16.9094 13.5519H22.7681L28.397 4.41482C31.1096 7.1 33.7555 12.0852 33.7555 16.5C33.7555 20.4852 32.4251 24.137 30.1869 27.037C27.0815 31.0519 22.2197 33.6259 16.7353 33.6259C15.5865 33.6259 14.4003 33.4852 13.3008 33.3111Z" fill="#030404"/>
<path d="M196.212 9.85197H196.846C197.15 9.85197 197.35 9.80753 197.465 9.71864C197.576 9.62975 197.628 9.51123 197.628 9.35197C197.628 9.26308 197.606 9.1779 197.55 9.10382C197.498 9.02975 197.428 8.96679 197.328 8.93716C197.235 8.89271 197.061 8.8816 196.809 8.8816H196.212V9.85197ZM195.686 11.6668V8.44086H196.801C197.179 8.44086 197.454 8.47049 197.628 8.53345C197.791 8.58901 197.924 8.69271 198.028 8.84456C198.128 8.98901 198.187 9.14827 198.187 9.31864C198.187 9.55197 198.099 9.75567 197.924 9.92975C197.761 10.1112 197.532 10.2075 197.254 10.2223C197.365 10.2779 197.461 10.3372 197.524 10.3964C197.658 10.5223 197.817 10.7409 198.006 11.0372L198.399 11.6668H197.761L197.469 11.1631C197.246 10.7631 197.061 10.5149 196.935 10.4149C196.839 10.3409 196.701 10.3038 196.516 10.3001H196.212V11.6668H195.686ZM197.002 7.51493C196.579 7.51493 196.168 7.62234 195.771 7.83345C195.38 8.04777 195.056 8.36556 194.834 8.75197C194.611 9.15567 194.5 9.5779 194.5 10.0149C194.5 10.4409 194.608 10.8594 194.83 11.2557C195.052 11.6446 195.364 11.9594 195.76 12.1742C196.149 12.3927 196.572 12.5112 197.002 12.5112C197.431 12.5112 197.847 12.3927 198.239 12.1742C198.632 11.9629 198.955 11.6443 199.173 11.2557C199.392 10.8594 199.499 10.4409 199.499 10.0149C199.499 9.5779 199.392 9.15567 199.162 8.75197C198.944 8.36237 198.619 8.04356 198.224 7.83345C197.824 7.62234 197.424 7.51493 197.002 7.51493ZM197.002 7.01123C197.509 7.01123 197.998 7.13716 198.476 7.40012C198.955 7.65938 199.329 8.02605 199.596 8.51123C199.862 8.98901 200 9.4853 200 10.0149C200 10.5223 199.866 11.0223 199.599 11.5001C199.336 11.9742 198.966 12.352 198.495 12.6075C198.041 12.8696 197.526 13.0063 197.002 13.0038C196.483 13.0038 195.986 12.8779 195.508 12.6075C195.034 12.352 194.66 11.9742 194.397 11.5001C194.133 11.0223 194 10.5223 194 10.0149C194 9.4853 194.133 8.98901 194.4 8.51123C194.674 8.02605 195.049 7.65938 195.527 7.40012C196.008 7.13716 196.498 7.01123 197.002 7.01123Z" fill="#030404"/>
<path d="M40.2517 41.4889C40.6074 41.4889 40.8668 41.3889 41.0521 41.1889C41.2226 40.9815 41.3152 40.7555 41.3152 40.4889C41.3152 40.2444 41.2374 40.0333 41.078 39.8407C40.9224 39.6444 40.6482 39.5518 40.2517 39.5518H39.6736V41.4889H40.2517ZM40.2517 38.5667C40.9335 38.5667 41.4412 38.6889 41.7784 38.9259C42.1119 39.1555 42.3491 39.4148 42.4751 39.6963C42.5529 39.8481 42.59 40 42.6159 40.1481C42.6419 40.2963 42.6567 40.4148 42.6567 40.5222V40.6259C42.6307 41.0889 42.4417 41.5111 42.086 41.8926C41.7303 42.2778 41.2003 42.4667 40.4851 42.4667H39.6736V44.8148H38.4062V38.5667H40.2517Z" fill="#030404"/>
<path d="M47.4285 39.4111C47.3247 39.4296 47.2136 39.4592 47.1098 39.5C46.8245 39.6037 46.5725 39.8222 46.339 40.1444C46.113 40.4703 46.0018 40.9814 46.0018 41.6963C46.0018 42.3963 46.113 42.9148 46.339 43.237C46.5725 43.5592 46.8245 43.7777 47.1098 43.8851C47.2136 43.9296 47.3247 43.9518 47.4285 43.9629C47.536 43.9814 47.6323 43.9926 47.725 43.9926C47.8102 43.9926 47.9139 43.9814 48.0177 43.9629C48.1215 43.9518 48.2289 43.9296 48.3364 43.8851C48.6143 43.7777 48.8663 43.5592 49.1035 43.237C49.3258 42.9148 49.4407 42.3963 49.4407 41.6963C49.4407 40.9814 49.3258 40.4703 49.1035 40.1444C48.8663 39.8222 48.6143 39.6037 48.3364 39.5C48.2331 39.4606 48.1265 39.4308 48.0177 39.4111C47.9139 39.4037 47.8102 39.3926 47.725 39.3926C47.6323 39.3926 47.536 39.4037 47.4285 39.4111ZM49.9002 39.3148C50.4857 39.8592 50.7784 40.6518 50.7784 41.6963C50.7784 42.7296 50.4857 43.5259 49.9002 44.0629C49.3147 44.6074 48.5884 44.874 47.725 44.874C46.8541 44.874 46.1241 44.6074 45.5386 44.0629C44.9531 43.5259 44.6641 42.7296 44.6641 41.6963C44.6641 40.6518 44.9531 39.8592 45.5386 39.3148C46.1241 38.7666 46.8541 38.5037 47.725 38.5037C48.5884 38.5037 49.3147 38.7666 49.9002 39.3148Z" fill="#030404"/>
<path d="M57.6976 44.6149C57.5049 44.6852 57.3122 44.7334 57.1084 44.7667C56.9046 44.8186 56.7008 44.8408 56.4858 44.8556C56.4228 44.8593 56.3561 44.8704 56.282 44.8704C56.2116 44.8741 56.1449 44.8741 56.0819 44.8741C55.2037 44.8741 54.4403 44.6112 53.7955 44.0926C53.1581 43.5556 52.832 42.7741 52.832 41.7223C52.832 40.7408 53.1433 39.9556 53.7659 39.3704C54.3847 38.7926 55.237 38.4963 56.3117 38.4963C56.5192 38.4963 56.7008 38.5074 56.8712 38.526C57.038 38.5556 57.2047 38.5815 57.3678 38.6112C57.4234 38.6334 57.4753 38.6556 57.5345 38.663C57.5938 38.6741 57.642 38.6889 57.6976 38.7149L57.642 39.7815C57.4419 39.6963 57.2381 39.6408 57.0343 39.6074C56.8256 39.5665 56.6133 39.5467 56.4006 39.5482C55.7706 39.5482 55.237 39.7371 54.8072 40.1074C54.3847 40.4815 54.1735 41.0112 54.1735 41.7074C54.1735 42.4223 54.3588 42.9371 54.7331 43.2593C55.1073 43.5741 55.5224 43.763 55.9745 43.8112C56.0337 43.8223 56.093 43.8223 56.1486 43.826C56.2042 43.8334 56.2598 43.8334 56.3117 43.8334C56.56 43.8334 56.7786 43.8074 56.975 43.7667C57.1714 43.7149 57.3381 43.6667 57.4827 43.6149L57.5494 43.5852L57.6161 43.5519L57.6976 44.6149Z" fill="#030404"/>
<path d="M64.5687 44.6149C64.376 44.6852 64.1833 44.7334 63.9795 44.7667C63.7757 44.8186 63.5719 44.8408 63.3643 44.8556C63.2939 44.8593 63.2235 44.8704 63.1531 44.8704C63.0827 44.8741 63.016 44.8741 62.953 44.8741C62.0748 44.8741 61.3114 44.6112 60.6629 44.0926C60.0292 43.5556 59.7031 42.7741 59.7031 41.7223C59.7031 40.7408 60.0181 39.9556 60.637 39.3704C61.2521 38.7926 62.1081 38.4963 63.1828 38.4963C63.3903 38.4963 63.5719 38.5074 63.7423 38.526C63.9054 38.5556 64.0758 38.5815 64.2389 38.6112C64.2908 38.6334 64.3464 38.6556 64.4019 38.663C64.4612 38.6741 64.5131 38.6889 64.5687 38.7149L64.5131 39.7815C64.313 39.6963 64.1055 39.6408 63.9017 39.6074C63.7053 39.5667 63.494 39.5482 63.2717 39.5482C62.638 39.5482 62.1081 39.7371 61.6783 40.1074C61.2521 40.4815 61.0446 41.0112 61.0446 41.7074C61.0446 42.4223 61.2299 42.9371 61.6041 43.2593C61.9784 43.5741 62.3935 43.763 62.8456 43.8112C62.9048 43.8223 62.9641 43.8223 63.016 43.826C63.0753 43.8334 63.1309 43.8334 63.1828 43.8334C63.4273 43.8334 63.6497 43.8074 63.8461 43.7667C64.0425 43.7149 64.2055 43.6667 64.3538 43.6149L64.4279 43.5852L64.4835 43.5519L64.5687 44.6149Z" fill="#030404"/>
<path d="M68.0634 38.5703V41.774L68.0375 43.3036H68.0634L68.5118 42.3851L70.6945 38.5703H72.2138V44.8148H70.9502V41.5962L70.9761 40.0851H70.9502L70.5166 41.0333L68.3117 44.8148H66.7998V38.5703H68.0634Z" fill="#030404"/>
<path d="M79.0019 37.0888C78.8982 37.337 78.7759 37.5407 78.6202 37.6814C78.4683 37.8222 78.3053 37.9222 78.1348 37.9925C77.9977 38.0518 77.8569 38.0888 77.7123 38.1111C77.5789 38.1259 77.4529 38.1333 77.3529 38.1333C77.2528 38.1333 77.1306 38.1259 76.9971 38.1111C76.8563 38.0888 76.7192 38.0518 76.5784 37.9999C76.4079 37.9296 76.2449 37.8222 76.093 37.6851C75.9336 37.5444 75.8039 37.3444 75.7002 37.0888L76.3524 36.7444C76.3672 36.774 76.382 36.8111 76.4042 36.8518C76.4302 36.8999 76.4561 36.9444 76.4969 36.9888C76.5673 37.074 76.671 37.1518 76.8045 37.2222C76.9379 37.2888 77.1231 37.3185 77.3529 37.3185C77.5863 37.3185 77.7679 37.2888 77.8976 37.2222C78.0347 37.1518 78.1348 37.074 78.2052 36.9888C78.2423 36.9444 78.2793 36.8999 78.2978 36.8518C78.3201 36.8111 78.3386 36.774 78.3534 36.7444L79.0019 37.0888ZM75.9781 38.574V41.7777L75.9521 43.2999H75.9781L76.4265 42.3851L78.6091 38.574H80.1285V44.8148H78.8611V41.5962L78.887 40.0888H78.8611L78.4312 41.0296L76.2301 44.8148H74.707V38.574H75.9781Z" fill="#030404"/>
<path d="M87.265 44.6149C87.076 44.6852 86.8759 44.7334 86.6758 44.7667C86.472 44.8186 86.2682 44.8408 86.0606 44.8556C85.9902 44.8593 85.9198 44.8704 85.8494 44.8704C85.7864 44.8741 85.7123 44.8741 85.653 44.8741C84.7711 44.8741 84.0114 44.6112 83.3666 44.0926C82.7255 43.5556 82.3994 42.7741 82.3994 41.7223C82.3994 40.7408 82.7144 39.9556 83.337 39.3704C83.9558 38.7926 84.8118 38.4963 85.8791 38.4963C86.0866 38.4963 86.2682 38.5074 86.4423 38.526C86.6091 38.5556 86.7758 38.5815 86.9352 38.6112C86.9871 38.6334 87.0463 38.6556 87.0982 38.663C87.1612 38.6741 87.2094 38.6889 87.265 38.7149L87.2094 39.7815C87.0093 39.6963 86.8018 39.6408 86.6017 39.6074C86.3954 39.5669 86.1856 39.547 85.9754 39.5482C85.3343 39.5482 84.8044 39.7371 84.3745 40.1074C83.9484 40.4815 83.7409 41.0112 83.7409 41.7074C83.7409 42.4223 83.9262 42.9371 84.3078 43.2593C84.6747 43.5741 85.0972 43.763 85.5418 43.8112C85.6011 43.8223 85.6604 43.8223 85.7123 43.826C85.7753 43.8334 85.8272 43.8334 85.8791 43.8334C86.1273 43.8334 86.3497 43.8074 86.5424 43.7667C86.7425 43.7149 86.9092 43.6667 87.0501 43.6149L87.1242 43.5852L87.1872 43.5519L87.265 44.6149Z" fill="#030404"/>
<path d="M90.7597 38.5703V41.2407H90.7931L93.0498 38.5703H94.5581L91.9493 41.3962L94.7137 44.8148H93.1054L90.7931 41.7073H90.7597V44.8148H89.4961V38.5703H90.7597Z" fill="#030404"/>
<path d="M97.916 38.5703V41.774L97.8937 43.3036H97.916L98.3644 42.3851L100.543 38.5703H102.066V44.8148H100.799V41.5962L100.829 40.0851H100.799L100.369 41.0333L98.168 44.8148H96.6523V38.5703H97.916Z" fill="#030404"/>
<path d="M108.295 38.5703V39.6777H105.835V41.0888H108.073V42.1074H105.835V43.7036H108.295V44.8148H104.567V38.5703H108.295Z" fill="#030404"/>
<path d="M119.379 38.5703V39.6777H117.574V44.8148H116.307V39.6777H114.506V38.5703H119.379Z" fill="#030404"/>
<path d="M125.112 38.5703V39.6777H122.655V41.0888H124.89V42.1074H122.655V43.7036H125.112V44.8148H121.388V38.5703H125.112Z" fill="#030404"/>
<path d="M128.673 38.5703L129.674 40.3074L129.959 40.837H129.985L130.27 40.3074L131.293 38.5703H132.683L130.782 41.5481L132.864 44.8148H131.367L130.174 42.8296L129.907 42.3481H129.881L129.611 42.8296L128.369 44.8148H126.983L129.073 41.5481L127.176 38.5703H128.673Z" fill="#030404"/>
<path d="M136.185 38.5703V41.0888H138.719V38.5703H139.99V44.8148H138.719V42.1074H136.185V44.8148H134.921V38.5703H136.185Z" fill="#030404"/>
<path d="M145.026 39.4111C144.922 39.4296 144.811 39.4592 144.707 39.5C144.422 39.6037 144.174 39.8222 143.944 40.1444C143.718 40.4703 143.603 40.9814 143.603 41.6963C143.603 42.3963 143.718 42.9148 143.944 43.237C144.174 43.5592 144.422 43.7777 144.707 43.8851C144.811 43.9296 144.922 43.9518 145.026 43.9629C145.134 43.9814 145.234 43.9926 145.323 43.9926C145.412 43.9926 145.512 43.9814 145.615 43.9629C145.723 43.9518 145.83 43.9296 145.938 43.8851C146.216 43.7777 146.471 43.5592 146.701 43.237C146.935 42.9148 147.042 42.3963 147.042 41.6963C147.042 40.9814 146.935 40.4703 146.701 40.1444C146.471 39.8222 146.216 39.6037 145.938 39.5C145.83 39.4592 145.723 39.4296 145.615 39.4111C145.512 39.4037 145.412 39.3926 145.323 39.3926C145.234 39.3926 145.134 39.4037 145.026 39.4111ZM147.502 39.3148C148.087 39.8592 148.384 40.6518 148.384 41.6963C148.384 42.7296 148.087 43.5259 147.502 44.0629C146.916 44.6074 146.19 44.874 145.323 44.874C144.452 44.874 143.725 44.6074 143.144 44.0629C142.551 43.5259 142.262 42.7296 142.262 41.6963C142.262 40.6518 142.551 39.8592 143.144 39.3148C143.725 38.7666 144.452 38.5037 145.323 38.5037C146.19 38.5037 146.916 38.7666 147.502 39.3148Z" fill="#030404"/>
<path d="M155.465 38.5703V44.8148H154.201V39.6777H152.549V40.9259C152.549 42.1185 152.463 43.0814 152.293 43.7962C152.126 44.5148 151.604 44.8777 150.729 44.8777C150.677 44.8777 150.633 44.8777 150.585 44.874C150.529 44.874 150.477 44.8629 150.429 44.8592C150.37 44.8481 150.325 44.837 150.266 44.8333C150.221 44.8222 150.166 44.8185 150.125 44.8148L150.177 43.8222L150.214 43.8259L150.255 43.8444L150.299 43.8481H150.336L150.429 43.8629H150.514C150.892 43.8629 151.137 43.637 151.229 43.1851C151.326 42.7333 151.374 42.2259 151.374 41.6888V41.1111C151.366 41.0222 151.363 40.9333 151.363 40.8592V38.5703H155.465Z" fill="#030404"/>
<path d="M160.508 39.4111C160.4 39.4296 160.293 39.4592 160.185 39.5C159.904 39.6037 159.655 39.8222 159.422 40.1444C159.199 40.4703 159.085 40.9814 159.085 41.6963C159.085 42.3963 159.199 42.9148 159.422 43.237C159.655 43.5592 159.904 43.7777 160.185 43.8851C160.293 43.9296 160.4 43.9518 160.508 43.9629C160.611 43.9814 160.711 43.9926 160.804 43.9926C160.893 43.9926 160.993 43.9814 161.097 43.9629C161.204 43.9518 161.312 43.9296 161.419 43.8851C161.697 43.7777 161.953 43.5592 162.183 43.237C162.412 42.9148 162.523 42.3963 162.523 41.6963C162.523 40.9814 162.412 40.4703 162.183 40.1444C161.953 39.8222 161.697 39.6037 161.419 39.5C161.312 39.4592 161.204 39.4296 161.097 39.4111C160.993 39.4037 160.893 39.3926 160.804 39.3926C160.711 39.3926 160.611 39.4037 160.508 39.4111ZM162.983 39.3148C163.569 39.8592 163.861 40.6518 163.861 41.6963C163.861 42.7296 163.569 43.5259 162.983 44.0629C162.398 44.6074 161.671 44.874 160.804 44.874C159.933 44.874 159.207 44.6074 158.618 44.0629C158.032 43.5259 157.743 42.7296 157.743 41.6963C157.743 40.6518 158.032 39.8592 158.618 39.3148C159.207 38.7666 159.933 38.5037 160.804 38.5037C161.671 38.5037 162.398 38.7666 162.983 39.3148Z" fill="#030404"/>
<path d="M169.977 38.5703V39.6777H167.401V44.8148H166.138V38.5703H169.977Z" fill="#030404"/>
<path d="M173.204 38.5703V41.774L173.178 43.3036H173.204L173.649 42.3851L175.831 38.5703H177.351V44.8148H176.087V41.5962L176.113 40.0851H176.087L175.657 41.0333L173.456 44.8148H171.937V38.5703H173.204Z" fill="#030404"/>
<path d="M181.116 38.5703V41.774L181.094 43.3036H181.116L181.561 42.3851L183.751 38.5703H185.263V44.8148H183.999V41.5962L184.029 40.0851H183.999L183.569 41.0333L181.368 44.8148H179.853V38.5703H181.116Z" fill="#030404"/>
</svg>
