<svg width="200" height="46" viewBox="0 0 200 46" fill="none" xmlns="http://www.w3.org/2000/svg">
<g clip-path="url(#clip0_1751_1631)">
<path fill-rule="evenodd" clip-rule="evenodd" d="M54.3033 16.2741L58.9465 12.3297V23.1704L54.3033 16.2741ZM160.316 10.3371C155.817 10.3371 152.812 10.8519 151.051 12.263L151.629 10.6519H143.692L141.587 17.7482C141.298 18.8408 141.039 19.7445 140.775 20.7149C140.494 19.6186 140.116 18.6964 139.916 18.1223L137.025 10.6519H131.604L128.691 18.2334C128.228 19.3593 127.824 20.2001 127.565 21.1223C127.305 19.7445 127.131 18.4964 126.901 17.7482L124.937 10.6519H117.519V5.66672H110.222V10.7889H106.413V10.5964C106.413 9.66672 106.961 9.40746 107.913 9.40746H109.325V5.42969H105.168C100.876 5.42969 99.231 6.52969 99.231 9.93339V10.7889H94.8435V12.1815C94.8139 12.0964 94.7286 12.0371 94.6101 11.8927C92.42 10.3371 88.0028 10.2741 85.4348 10.2741C79.9281 10.2741 76.6375 11.1186 75.2552 13.3852C74.5326 11.2556 72.9726 10.3075 70.3156 10.3075C68.296 10.3075 66.7655 10.7889 65.6427 11.8927V10.6519H50.9274L45.7357 15.7334V5.66672H38.4355V27.0075H45.7357V23.4186L48.8189 20.5964L52.8025 27.0075H65.8169V18.4964C65.8169 16.626 66.2764 15.4964 67.5474 15.4964C68.9593 15.4964 69.3373 16.8482 69.3373 17.9852H75.7481C75.7481 17.1445 75.6814 16.1297 75.6332 15.3556H82.0922C82.2034 14.1704 83.3559 14.0519 85.4644 14.0519C86.4205 14.0519 89.2442 14.1704 89.2442 15.5852C89.2442 16.5889 87.9806 16.7964 85.4644 16.7964C84.4861 16.7964 83.1558 16.9075 81.6587 17.0001C78.1086 17.1075 75.6332 17.3741 74.0694 19.2408C73.458 20.0001 73.1986 20.9778 73.1986 22.2408C73.1986 25.763 75.8296 27.0075 81.2807 27.0075C82.8667 27.0075 84.3119 26.8889 85.4644 26.7445C86.9615 26.5704 88.2993 25.9038 89.4184 24.726C89.4184 25.6408 89.6778 26.2482 89.9928 27.0075H97.7636L97.7265 26.2852C97.582 26.226 97.4375 26.0186 97.4375 26.0186C97.0632 25.6408 96.8298 25.1519 96.8298 24.526V18.2334C96.8298 17.1445 96.7482 16.1297 96.5148 15.3556H99.231V27.0075H106.561V15.3556H110.222V22.0112C110.222 24.2112 110.826 26.2852 112.327 26.6593C113.224 26.8038 115.014 27.0075 116.77 27.0075H120.376V22.4741H119.257C117.519 22.4741 117.519 21.463 117.519 18.9889V15.3556H118.53L122.514 27.0075H130.681L133.59 20.2001C133.85 19.6186 133.976 18.8408 134.261 18.1223C134.372 18.8408 134.572 19.7445 134.835 20.3704L137.633 27.0075H145.941L149.895 15.6075L157.025 15.7334C157.081 14.5704 158.237 14.0519 160.282 14.0519H160.771C162.795 14.0519 163.947 14.8334 163.947 15.5852C163.947 16.5889 162.735 16.8223 160.316 16.8223C159.393 16.8223 158.003 16.9075 156.536 17.0001C152.96 17.1445 150.451 17.3741 148.976 19.2408C148.335 20.0001 148.083 20.9778 148.083 22.2408C148.083 25.763 150.707 27.0075 156.132 27.0075C157.714 27.0075 159.189 26.8297 160.316 26.7445C161.698 26.6038 163.117 25.9038 164.295 24.726C164.295 25.6408 164.525 26.2482 164.818 27.0075H172.378V26.6593C171.74 26.2482 171.74 25.5075 171.74 24.526V18.2334C171.74 17.2519 171.651 16.4223 171.477 15.6075L176.558 24.726C175.98 26.6593 175.146 27.0075 173.152 27.0075H171.451V31.4408H176.558C178.607 31.4408 180.137 31.1889 181.412 29.9149C182.272 29.1371 183.395 27.3519 184.725 24.8926L191.732 10.6519H183.884L181.26 16.8223C181.001 17.5741 180.686 18.3223 180.545 19.0741C180.311 18.2334 179.996 17.3741 179.563 16.4741L176.906 10.6519H168.794L169.632 12.1556C169.55 12.0964 169.461 12.0112 169.376 11.8927C167.927 10.8519 164.959 10.3075 160.631 10.3075C160.545 10.3075 160.397 10.3371 160.316 10.3371ZM85.4644 23.3186C85.1754 23.3408 84.5973 23.4186 84.1378 23.4186C82.5221 23.4186 81.4845 22.763 81.4845 21.7223C81.4845 20.7149 82.2627 20.3704 84.3119 20.2001C84.6825 20.2001 85.1754 20.0815 85.4644 20.0815C86.917 20.0815 88.1733 19.9371 89.4184 19.3593V19.7445C89.4184 21.5852 87.8916 23.0852 85.4644 23.3186ZM160.316 20.1408C160.056 20.1408 159.563 20.2001 159.159 20.2001C157.14 20.3704 156.362 20.7149 156.362 21.7223C156.362 22.763 157.366 23.4186 159.015 23.4186C159.474 23.4186 160.056 23.3186 160.316 23.3186C162.706 23.1334 164.295 21.5852 164.295 19.7445C164.295 19.7445 164.295 19.4482 164.181 19.3593C163.058 19.9371 161.731 20.1408 160.316 20.1408Z" fill="#5B2A98"/>
<path fill-rule="evenodd" clip-rule="evenodd" d="M13.3008 31.3259C19.3552 31.3259 24.4357 26.8593 24.4357 20.6259C24.4357 18.3481 23.6056 15.5519 22.7681 14.0519L14.3647 26.8593H5.48108L13.3008 14.8333L16.7353 9.55556C15.6347 9.32222 14.5111 9.26296 13.3008 9.26296V9.24445C7.24128 9.24445 2.16375 14.0519 2.16375 20.3704C2.16375 26.8593 7.15568 31.3259 13.3008 31.3259ZM13.3008 33.8111C5.71306 32.1667 0 25.3074 0 17C0 9.09259 5.71306 2.4037 13.3008 0.877778C14.4003 0.640741 15.5865 0.5 16.7353 0.5C19.7665 0.5 22.2456 0.877778 24.4357 2.05556L16.9094 14.0519H22.7681L28.397 4.91482C31.1096 7.6 33.7555 12.5852 33.7555 17C33.7555 20.9852 32.4251 24.637 30.1869 27.537C27.0815 31.5519 22.2197 34.1259 16.7353 34.1259C15.5865 34.1259 14.4003 33.9852 13.3008 33.8111Z" fill="#5B2A98"/>
<path d="M196.212 10.352H196.846C197.15 10.352 197.35 10.3075 197.465 10.2186C197.576 10.1298 197.628 10.0112 197.628 9.85197C197.628 9.76308 197.606 9.6779 197.55 9.60382C197.498 9.52975 197.428 9.46679 197.328 9.43716C197.235 9.39271 197.061 9.3816 196.809 9.3816H196.212V10.352ZM195.686 12.1668V8.94086H196.801C197.179 8.94086 197.454 8.97049 197.628 9.03345C197.791 9.08901 197.924 9.19271 198.028 9.34456C198.128 9.48901 198.187 9.64827 198.187 9.81864C198.187 10.052 198.099 10.2557 197.924 10.4298C197.761 10.6112 197.532 10.7075 197.254 10.7223C197.365 10.7779 197.461 10.8372 197.524 10.8964C197.658 11.0223 197.817 11.2409 198.006 11.5372L198.399 12.1668H197.761L197.469 11.6631C197.246 11.2631 197.061 11.0149 196.935 10.9149C196.839 10.8409 196.701 10.8038 196.516 10.8001H196.212V12.1668H195.686ZM197.002 8.01493C196.579 8.01493 196.168 8.12234 195.771 8.33345C195.38 8.54777 195.056 8.86556 194.834 9.25197C194.611 9.65567 194.5 10.0779 194.5 10.5149C194.5 10.9409 194.608 11.3594 194.83 11.7557C195.052 12.1446 195.364 12.4594 195.76 12.6742C196.149 12.8927 196.572 13.0112 197.002 13.0112C197.431 13.0112 197.847 12.8927 198.239 12.6742C198.632 12.4629 198.955 12.1443 199.173 11.7557C199.392 11.3594 199.499 10.9409 199.499 10.5149C199.499 10.0779 199.392 9.65567 199.162 9.25197C198.944 8.86237 198.619 8.54356 198.224 8.33345C197.824 8.12234 197.424 8.01493 197.002 8.01493ZM197.002 7.51123C197.509 7.51123 197.998 7.63716 198.476 7.90012C198.955 8.15938 199.329 8.52605 199.596 9.01123C199.862 9.48901 200 9.9853 200 10.5149C200 11.0223 199.866 11.5223 199.599 12.0001C199.336 12.4742 198.966 12.852 198.495 13.1075C198.041 13.3696 197.526 13.5063 197.002 13.5038C196.483 13.5038 195.986 13.3779 195.508 13.1075C195.034 12.852 194.66 12.4742 194.397 12.0001C194.133 11.5223 194 11.0223 194 10.5149C194 9.9853 194.133 9.48901 194.4 9.01123C194.674 8.52605 195.049 8.15938 195.527 7.90012C196.008 7.63716 196.498 7.51123 197.002 7.51123Z" fill="#5B2A98"/>
<path d="M40.2518 41.9891C40.6075 41.9891 40.8669 41.8891 41.0522 41.6891C41.2227 41.4817 41.3153 41.2557 41.3153 40.9891C41.3153 40.7446 41.2374 40.5335 41.078 40.3409C40.9224 40.1446 40.6483 40.052 40.2518 40.052H39.6736V41.9891H40.2518ZM40.2518 39.0669C40.9336 39.0669 41.4413 39.1891 41.7785 39.4261C42.112 39.6557 42.3492 39.915 42.4752 40.1965C42.553 40.3483 42.59 40.5002 42.6159 40.6483C42.6419 40.7965 42.6567 40.915 42.6567 41.0224V41.1261C42.6307 41.5891 42.4417 42.0113 42.086 42.3928C41.7303 42.778 41.2003 42.9669 40.4851 42.9669H39.6736V45.315H38.4062V39.0669H40.2518Z" fill="#5B2A98"/>
<path d="M47.4285 39.9113C47.3247 39.9298 47.2136 39.9594 47.1098 40.0002C46.8245 40.1039 46.5725 40.3224 46.339 40.6446C46.113 40.9705 46.0018 41.4816 46.0018 42.1965C46.0018 42.8965 46.113 43.415 46.339 43.7372C46.5725 44.0594 46.8245 44.2779 47.1098 44.3853C47.2136 44.4298 47.3247 44.452 47.4285 44.4631C47.536 44.4816 47.6323 44.4928 47.725 44.4928C47.8102 44.4928 47.9139 44.4816 48.0177 44.4631C48.1215 44.452 48.2289 44.4298 48.3364 44.3853C48.6143 44.2779 48.8663 44.0594 49.1035 43.7372C49.3258 43.415 49.4407 42.8965 49.4407 42.1965C49.4407 41.4816 49.3258 40.9705 49.1035 40.6446C48.8663 40.3224 48.6143 40.1039 48.3364 40.0002C48.2331 39.9608 48.1265 39.931 48.0177 39.9113C47.9139 39.9039 47.8102 39.8928 47.725 39.8928C47.6323 39.8928 47.536 39.9039 47.4285 39.9113ZM49.9002 39.815C50.4857 40.3594 50.7784 41.152 50.7784 42.1965C50.7784 43.2298 50.4857 44.0261 49.9002 44.5631C49.3147 45.1076 48.5884 45.3742 47.725 45.3742C46.8541 45.3742 46.1241 45.1076 45.5386 44.5631C44.9531 44.0261 44.6641 43.2298 44.6641 42.1965C44.6641 41.152 44.9531 40.3594 45.5386 39.815C46.1241 39.2668 46.8541 39.0039 47.725 39.0039C48.5884 39.0039 49.3147 39.2668 49.9002 39.815Z" fill="#5B2A98"/>
<path d="M57.6976 45.1147C57.5049 45.185 57.3122 45.2332 57.1084 45.2665C56.9046 45.3184 56.7008 45.3406 56.4858 45.3554C56.4228 45.3591 56.3561 45.3702 56.282 45.3702C56.2116 45.3739 56.1449 45.3739 56.0819 45.3739C55.2037 45.3739 54.4403 45.111 53.7955 44.5924C53.1581 44.0554 52.832 43.2739 52.832 42.2221C52.832 41.2406 53.1433 40.4554 53.7659 39.8702C54.3847 39.2924 55.237 38.9961 56.3117 38.9961C56.5192 38.9961 56.7008 39.0072 56.8712 39.0258C57.038 39.0554 57.2047 39.0813 57.3678 39.111C57.4234 39.1332 57.4753 39.1554 57.5345 39.1628C57.5938 39.1739 57.642 39.1887 57.6976 39.2147L57.642 40.2813C57.4419 40.1961 57.2381 40.1406 57.0343 40.1072C56.8256 40.0663 56.6133 40.0465 56.4006 40.048C55.7706 40.048 55.237 40.2369 54.8072 40.6072C54.3847 40.9813 54.1735 41.511 54.1735 42.2072C54.1735 42.9221 54.3588 43.4369 54.7331 43.7591C55.1073 44.0739 55.5224 44.2628 55.9745 44.311C56.0337 44.3221 56.093 44.3221 56.1486 44.3258C56.2042 44.3332 56.2598 44.3332 56.3117 44.3332C56.56 44.3332 56.7786 44.3072 56.975 44.2665C57.1714 44.2147 57.3381 44.1665 57.4827 44.1147L57.5494 44.085L57.6161 44.0517L57.6976 45.1147Z" fill="#5B2A98"/>
<path d="M64.5687 45.1147C64.376 45.185 64.1833 45.2332 63.9795 45.2665C63.7757 45.3184 63.5719 45.3406 63.3643 45.3554C63.2939 45.3591 63.2235 45.3702 63.1531 45.3702C63.0827 45.3739 63.016 45.3739 62.953 45.3739C62.0748 45.3739 61.3114 45.111 60.6629 44.5924C60.0292 44.0554 59.7031 43.2739 59.7031 42.2221C59.7031 41.2406 60.0181 40.4554 60.637 39.8702C61.2521 39.2924 62.1081 38.9961 63.1828 38.9961C63.3903 38.9961 63.5719 39.0072 63.7423 39.0258C63.9054 39.0554 64.0758 39.0813 64.2389 39.111C64.2908 39.1332 64.3464 39.1554 64.4019 39.1628C64.4612 39.1739 64.5131 39.1887 64.5687 39.2147L64.5131 40.2813C64.313 40.1961 64.1055 40.1406 63.9017 40.1072C63.7053 40.0665 63.494 40.048 63.2717 40.048C62.638 40.048 62.1081 40.2369 61.6783 40.6072C61.2521 40.9813 61.0446 41.511 61.0446 42.2072C61.0446 42.9221 61.2299 43.4369 61.6041 43.7591C61.9784 44.0739 62.3935 44.2628 62.8456 44.311C62.9048 44.3221 62.9641 44.3221 63.016 44.3258C63.0753 44.3332 63.1309 44.3332 63.1828 44.3332C63.4273 44.3332 63.6497 44.3072 63.8461 44.2665C64.0425 44.2147 64.2055 44.1665 64.3538 44.1147L64.4279 44.085L64.4835 44.0517L64.5687 45.1147Z" fill="#5B2A98"/>
<path d="M68.0624 39.0703V42.274L68.0365 43.8036H68.0624L68.5108 42.8851L70.6935 39.0703H72.2128V45.3148H70.9492V42.0962L70.9751 40.5851H70.9492L70.5156 41.5333L68.3107 45.3148H66.7988V39.0703H68.0624Z" fill="#5B2A98"/>
<path d="M79.0019 37.589C78.8982 37.8372 78.7759 38.0409 78.6202 38.1816C78.4683 38.3224 78.3053 38.4224 78.1348 38.4927C77.9977 38.552 77.8569 38.589 77.7123 38.6113C77.5789 38.6261 77.4529 38.6335 77.3529 38.6335C77.2528 38.6335 77.1306 38.6261 76.9971 38.6113C76.8563 38.589 76.7192 38.552 76.5784 38.5001C76.4079 38.4298 76.2449 38.3224 76.093 38.1853C75.9336 38.0446 75.8039 37.8446 75.7002 37.589L76.3524 37.2446C76.3672 37.2742 76.382 37.3113 76.4042 37.352C76.4302 37.4001 76.4561 37.4446 76.4969 37.489C76.5673 37.5742 76.671 37.652 76.8045 37.7224C76.9379 37.789 77.1231 37.8187 77.3529 37.8187C77.5863 37.8187 77.7679 37.789 77.8976 37.7224C78.0347 37.652 78.1348 37.5742 78.2052 37.489C78.2423 37.4446 78.2793 37.4001 78.2978 37.352C78.3201 37.3113 78.3386 37.2742 78.3534 37.2446L79.0019 37.589ZM75.9781 39.0742V42.2779L75.9521 43.8001H75.9781L76.4265 42.8853L78.6091 39.0742H80.1285V45.315H78.8611V42.0964L78.887 40.589H78.8611L78.4312 41.5298L76.2301 45.315H74.707V39.0742H75.9781Z" fill="#5B2A98"/>
<path d="M87.264 45.1147C87.075 45.185 86.8749 45.2332 86.6748 45.2665C86.471 45.3184 86.2672 45.3406 86.0596 45.3554C85.9892 45.3591 85.9188 45.3702 85.8484 45.3702C85.7854 45.3739 85.7113 45.3739 85.652 45.3739C84.7701 45.3739 84.0104 45.111 83.3656 44.5924C82.7245 44.0554 82.3984 43.2739 82.3984 42.2221C82.3984 41.2406 82.7134 40.4554 83.336 39.8702C83.9548 39.2924 84.8108 38.9961 85.8781 38.9961C86.0856 38.9961 86.2672 39.0072 86.4413 39.0258C86.6081 39.0554 86.7748 39.0813 86.9342 39.111C86.9861 39.1332 87.0453 39.1554 87.0972 39.1628C87.1602 39.1739 87.2084 39.1887 87.264 39.2147L87.2084 40.2813C87.0083 40.1961 86.8008 40.1406 86.6007 40.1072C86.3944 40.0667 86.1846 40.0468 85.9744 40.048C85.3333 40.048 84.8034 40.2369 84.3735 40.6072C83.9474 40.9813 83.7399 41.511 83.7399 42.2072C83.7399 42.9221 83.9252 43.4369 84.3068 43.7591C84.6737 44.0739 85.0962 44.2628 85.5408 44.311C85.6001 44.3221 85.6594 44.3221 85.7113 44.3258C85.7743 44.3332 85.8262 44.3332 85.8781 44.3332C86.1263 44.3332 86.3487 44.3072 86.5414 44.2665C86.7415 44.2147 86.9082 44.1665 87.0491 44.1147L87.1232 44.085L87.1862 44.0517L87.264 45.1147Z" fill="#5B2A98"/>
<path d="M90.7597 39.0703V41.7407H90.7931L93.0498 39.0703H94.5581L91.9493 41.8962L94.7137 45.3148H93.1054L90.7931 42.2073H90.7597V45.3148H89.4961V39.0703H90.7597Z" fill="#5B2A98"/>
<path d="M97.916 39.0703V42.274L97.8937 43.8036H97.916L98.3644 42.8851L100.543 39.0703H102.066V45.3148H100.799V42.0962L100.829 40.5851H100.799L100.369 41.5333L98.168 45.3148H96.6523V39.0703H97.916Z" fill="#5B2A98"/>
<path d="M108.294 39.0703V40.1777H105.834V41.5888H108.072V42.6074H105.834V44.2036H108.294V45.3148H104.566V39.0703H108.294Z" fill="#5B2A98"/>
<path d="M119.379 39.0703V40.1777H117.574V45.3148H116.307V40.1777H114.506V39.0703H119.379Z" fill="#5B2A98"/>
<path d="M125.113 39.0703V40.1777H122.656V41.5888H124.891V42.6074H122.656V44.2036H125.113V45.3148H121.389V39.0703H125.113Z" fill="#5B2A98"/>
<path d="M128.672 39.0703L129.673 40.8074L129.958 41.337H129.984L130.269 40.8074L131.292 39.0703H132.682L130.781 42.0481L132.863 45.3148H131.366L130.173 43.3296L129.906 42.8481H129.88L129.61 43.3296L128.368 45.3148H126.982L129.072 42.0481L127.175 39.0703H128.672Z" fill="#5B2A98"/>
<path d="M136.186 39.0703V41.5888H138.72V39.0703H139.991V45.3148H138.72V42.6074H136.186V45.3148H134.922V39.0703H136.186Z" fill="#5B2A98"/>
<path d="M145.026 39.9113C144.922 39.9298 144.811 39.9594 144.707 40.0002C144.422 40.1039 144.174 40.3224 143.944 40.6446C143.718 40.9705 143.603 41.4816 143.603 42.1965C143.603 42.8965 143.718 43.415 143.944 43.7372C144.174 44.0594 144.422 44.2779 144.707 44.3853C144.811 44.4298 144.922 44.452 145.026 44.4631C145.134 44.4816 145.234 44.4928 145.323 44.4928C145.412 44.4928 145.512 44.4816 145.615 44.4631C145.723 44.452 145.83 44.4298 145.938 44.3853C146.216 44.2779 146.471 44.0594 146.701 43.7372C146.935 43.415 147.042 42.8965 147.042 42.1965C147.042 41.4816 146.935 40.9705 146.701 40.6446C146.471 40.3224 146.216 40.1039 145.938 40.0002C145.83 39.9594 145.723 39.9298 145.615 39.9113C145.512 39.9039 145.412 39.8928 145.323 39.8928C145.234 39.8928 145.134 39.9039 145.026 39.9113ZM147.502 39.815C148.087 40.3594 148.384 41.152 148.384 42.1965C148.384 43.2298 148.087 44.0261 147.502 44.5631C146.916 45.1076 146.19 45.3742 145.323 45.3742C144.452 45.3742 143.725 45.1076 143.144 44.5631C142.551 44.0261 142.262 43.2298 142.262 42.1965C142.262 41.152 142.551 40.3594 143.144 39.815C143.725 39.2668 144.452 39.0039 145.323 39.0039C146.19 39.0039 146.916 39.2668 147.502 39.815Z" fill="#5B2A98"/>
<path d="M155.465 39.0703V45.3148H154.201V40.1777H152.549V41.4259C152.549 42.6185 152.463 43.5814 152.293 44.2962C152.126 45.0148 151.604 45.3777 150.729 45.3777C150.677 45.3777 150.633 45.3777 150.585 45.374C150.529 45.374 150.477 45.3629 150.429 45.3592C150.37 45.3481 150.325 45.337 150.266 45.3333C150.221 45.3222 150.166 45.3185 150.125 45.3148L150.177 44.3222L150.214 44.3259L150.255 44.3444L150.299 44.3481H150.336L150.429 44.3629H150.514C150.892 44.3629 151.137 44.137 151.229 43.6851C151.326 43.2333 151.374 42.7259 151.374 42.1888V41.6111C151.366 41.5222 151.363 41.4333 151.363 41.3592V39.0703H155.465Z" fill="#5B2A98"/>
<path d="M160.507 39.9113C160.399 39.9298 160.292 39.9594 160.184 40.0002C159.903 40.1039 159.654 40.3224 159.421 40.6446C159.198 40.9705 159.084 41.4816 159.084 42.1965C159.084 42.8965 159.198 43.415 159.421 43.7372C159.654 44.0594 159.903 44.2779 160.184 44.3853C160.292 44.4298 160.399 44.452 160.507 44.4631C160.61 44.4816 160.71 44.4928 160.803 44.4928C160.892 44.4928 160.992 44.4816 161.096 44.4631C161.203 44.452 161.311 44.4298 161.418 44.3853C161.696 44.2779 161.952 44.0594 162.182 43.7372C162.411 43.415 162.522 42.8965 162.522 42.1965C162.522 41.4816 162.411 40.9705 162.182 40.6446C161.952 40.3224 161.696 40.1039 161.418 40.0002C161.311 39.9594 161.203 39.9298 161.096 39.9113C160.992 39.9039 160.892 39.8928 160.803 39.8928C160.71 39.8928 160.61 39.9039 160.507 39.9113ZM162.982 39.815C163.568 40.3594 163.86 41.152 163.86 42.1965C163.86 43.2298 163.568 44.0261 162.982 44.5631C162.397 45.1076 161.67 45.3742 160.803 45.3742C159.932 45.3742 159.206 45.1076 158.617 44.5631C158.031 44.0261 157.742 43.2298 157.742 42.1965C157.742 41.152 158.031 40.3594 158.617 39.815C159.206 39.2668 159.932 39.0039 160.803 39.0039C161.67 39.0039 162.397 39.2668 162.982 39.815Z" fill="#5B2A98"/>
<path d="M169.978 39.0703V40.1777H167.402V45.3148H166.139V39.0703H169.978Z" fill="#5B2A98"/>
<path d="M173.204 39.0703V42.274L173.178 43.8036H173.204L173.65 42.8851L175.831 39.0703H177.352V45.3148H176.088V42.0962L176.114 40.5851H176.088L175.658 41.5333L173.456 45.3148H171.938V39.0703H173.204Z" fill="#5B2A98"/>
<path d="M181.117 39.0703V42.274L181.095 43.8036H181.117L181.562 42.8851L183.752 39.0703H185.264V45.3148H184V42.0962L184.03 40.5851H184L183.57 41.5333L181.369 45.3148H179.854V39.0703H181.117Z" fill="#5B2A98"/>
</g>
<defs>
<clipPath id="clip0_1751_1631">
<rect width="200" height="45" fill="white" transform="translate(0 0.5)"/>
</clipPath>
</defs>
</svg>
