<svg width="100" height="35" viewBox="0 0 100 35" fill="none" xmlns="http://www.w3.org/2000/svg">
<g clip-path="url(#clip0_1751_1655)">
<path d="M35.4359 34.479H1.73333V34.2056L1.79487 11.5705C1.79487 11.3287 1.72308 11.1395 1.58974 10.9502C1.23077 10.4771 0.738461 10.2143 0.194872 10.0461C0.133333 10.0251 0.0717949 10.0145 0 9.99351V0.521027C0.0307692 0.510513 0.0615385 0.510513 0.0923077 0.510513C3.02564 0.573593 5.92821 0.867965 8.73846 1.7616C12.7795 3.04422 15.9077 5.57792 18.2667 9.15244L18.5744 9.62554C18.5846 9.63605 18.5949 9.64657 18.6256 9.66759C18.6769 9.60451 18.7179 9.54143 18.7692 9.46784C20.7179 6.5136 23.2205 4.22171 26.3795 2.69728C28.1436 1.8457 30 1.27798 31.9282 0.931045C33.5692 0.636673 35.2205 0.5 36.8923 0.5H37.1179C37.1179 0.584106 37.1282 0.657699 37.1282 0.720779C37.1282 3.75912 37.1179 6.79746 37.1179 9.82529C37.1179 9.97248 37.0872 10.0566 36.9333 10.1091C36.4205 10.3089 35.9795 10.6243 35.641 11.0764C35.5385 11.213 35.4974 11.3602 35.4974 11.5284C35.4974 15.2712 35.4872 19.0139 35.4769 22.7566L35.4462 34.2372C35.4359 34.3318 35.4359 34.3949 35.4359 34.479ZM20.9436 21.2532C20.4615 21.2532 20.0513 21.6633 20.0513 22.1574C20.041 22.641 20.4513 23.072 20.9333 23.072C21.4154 23.0826 21.8359 22.6515 21.8359 22.1574C21.8266 21.9188 21.7293 21.6928 21.5637 21.5249C21.3981 21.3571 21.1764 21.26 20.9436 21.2532ZM10.4923 22.1784C10.4923 22.6725 10.9026 23.0826 11.3846 23.0826C11.8667 23.0826 12.2769 22.662 12.2769 22.1679C12.2769 21.6738 11.8564 21.2427 11.3744 21.2532C11.1394 21.2614 10.9166 21.3621 10.7522 21.5344C10.5879 21.7068 10.4948 21.9374 10.4923 22.1784ZM31.9897 19.7604C31.9897 20.2545 32.4 20.6645 32.8821 20.6645C33.3641 20.6645 33.7744 20.244 33.7744 19.7604C33.7744 19.2557 33.3641 18.8352 32.8718 18.8457C32.3897 18.8457 31.9897 19.2662 31.9897 19.7604ZM21.8256 19.7709C21.828 19.531 21.7396 19.2994 21.5789 19.1249C21.4183 18.9505 21.1979 18.8466 20.9641 18.8352C20.7269 18.834 20.4987 18.9279 20.3282 19.0968C20.1576 19.2657 20.0582 19.4963 20.0513 19.7393C20.041 20.2229 20.4513 20.654 20.9231 20.6645C21.3949 20.675 21.8154 20.265 21.8256 19.7709ZM11.3846 18.8457C10.9026 18.8457 10.4923 19.2557 10.4923 19.7498C10.4821 20.244 10.9026 20.675 11.3846 20.675C11.8667 20.675 12.2667 20.2545 12.2667 19.7604C12.2677 19.6408 12.2457 19.5222 12.2019 19.4115C12.1581 19.3007 12.0933 19.1999 12.0114 19.1148C11.9294 19.0298 11.8318 18.9623 11.7242 18.9161C11.6167 18.8699 11.5012 18.846 11.3846 18.8457ZM33.7744 14.9242C33.7744 14.4301 33.3744 14.0096 32.8923 14.0096C32.4103 14.0096 32 14.4091 31.9897 14.9032C31.9795 15.3973 32.4 15.8284 32.8821 15.8284C33.3641 15.8284 33.7744 15.4184 33.7744 14.9242ZM32.8821 32.7443C33.3641 32.7443 33.7744 32.3343 33.7744 31.8401C33.7846 31.346 33.3641 30.915 32.8821 30.915C32.4 30.915 32 31.3355 32 31.8296C31.9897 32.3237 32.4 32.7443 32.8821 32.7443ZM11.3744 32.7443C11.8564 32.7443 12.2667 32.3343 12.2667 31.8401C12.2769 31.3565 11.8667 30.9255 11.3949 30.915C11.1573 30.9149 10.9292 31.011 10.7603 31.1822C10.5913 31.3534 10.495 31.5861 10.4923 31.8296C10.4923 32.3237 10.8923 32.7443 11.3744 32.7443ZM31.9897 12.5062C31.9897 13.0003 32.4 13.4103 32.8821 13.4103C33.3641 13.4103 33.7744 12.9898 33.7744 12.4957C33.7744 11.991 33.3641 11.581 32.8718 11.581C32.3897 11.602 31.9897 12.0121 31.9897 12.5062ZM32.8821 30.3367C33.3641 30.3367 33.7744 29.9267 33.7744 29.4326C33.7744 28.9385 33.3744 28.5179 32.8923 28.5179C32.4103 28.5074 31.9897 28.9385 31.9897 29.4326C32 29.9162 32.4 30.3262 32.8821 30.3367ZM11.3949 30.3367C11.8769 30.3262 12.2769 29.9057 12.2769 29.4221C12.2769 28.9279 11.8667 28.5179 11.3846 28.5179C11.147 28.5207 10.9201 28.6194 10.753 28.7926C10.586 28.9658 10.4923 29.1995 10.4923 29.4431C10.5026 29.9267 10.9128 30.3367 11.3949 30.3367ZM9.87692 29.4326C9.87836 29.1922 9.78793 28.9608 9.62499 28.7879C9.46206 28.6149 9.23956 28.5143 9.00513 28.5074C8.76752 28.5074 8.53949 28.6034 8.37052 28.7747C8.20155 28.9459 8.10526 29.1785 8.10256 29.4221C8.10256 29.9162 8.50256 30.3367 8.98462 30.3367C9.46667 30.3367 9.87692 29.9267 9.87692 29.4326ZM11.3744 27.9187C11.8564 27.9187 12.2667 27.5087 12.2667 27.0145C12.2769 26.5309 11.8667 26.0999 11.3846 26.0894C11.147 26.0893 10.919 26.1854 10.75 26.3566C10.581 26.5278 10.4848 26.7605 10.4821 27.004C10.4923 27.4981 10.8923 27.9082 11.3744 27.9187ZM33.7744 24.586C33.7744 24.0918 33.3641 23.6818 32.8821 23.6713C32.3897 23.6713 31.9795 24.0918 31.9897 24.5965C32 25.0906 32.4103 25.5006 32.8821 25.5006C33.1171 25.4953 33.341 25.3972 33.5072 25.2268C33.6734 25.0564 33.7691 24.8269 33.7744 24.586ZM33.7744 22.1679C33.7744 21.6738 33.3641 21.2638 32.8821 21.2638C32.6445 21.2665 32.4175 21.3652 32.2505 21.5384C32.0834 21.7116 31.9897 21.9454 31.9897 22.1889C32 22.6831 32.4103 23.0931 32.8923 23.0826C33.3744 23.072 33.7744 22.6515 33.7744 22.1679ZM31.3846 29.4221C31.3846 28.9279 30.9949 28.5074 30.5026 28.5074C30.0205 28.4969 29.6 28.9279 29.6 29.4221C29.6 29.9162 30.0103 30.3262 30.4923 30.3262C30.9744 30.3262 31.3846 29.9162 31.3846 29.4221ZM9.87692 17.3423C9.87692 16.8482 9.48718 16.4276 8.99487 16.4276C8.75726 16.4276 8.52923 16.5237 8.36026 16.6949C8.19129 16.8661 8.09501 17.0988 8.09231 17.3423C8.09231 17.8364 8.50256 18.2464 8.98462 18.2464C9.47692 18.2464 9.87692 17.8364 9.87692 17.3423ZM9.87692 19.7604C9.87692 19.2662 9.48718 18.8457 8.99487 18.8457C8.75726 18.8457 8.52923 18.9417 8.36026 19.1129C8.19129 19.2842 8.09501 19.5168 8.09231 19.7604C8.09231 20.2545 8.50256 20.6645 8.98462 20.675C9.47692 20.6645 9.87692 20.2545 9.87692 19.7604ZM31.3846 24.586C31.3846 24.0918 30.9846 23.6818 30.5026 23.6713C30.0205 23.6713 29.6 24.0918 29.6103 24.5965C29.6205 25.0906 30.0205 25.5006 30.5026 25.5006C30.9846 25.5006 31.3846 25.0801 31.3846 24.586ZM22.441 19.7498C22.441 20.244 22.841 20.654 23.3231 20.6645C23.8051 20.675 24.2154 20.2545 24.2256 19.7604C24.2359 19.2662 23.8154 18.8352 23.3333 18.8352C22.841 18.8457 22.441 19.2557 22.441 19.7498ZM10.4923 14.9137C10.4923 15.4079 10.8821 15.8284 11.3744 15.8389C11.8564 15.8494 12.2769 15.4184 12.2769 14.9242C12.2769 14.4301 11.8667 14.0201 11.3846 14.0201C11.2688 14.0187 11.1538 14.0407 11.0463 14.0849C10.9387 14.129 10.8407 14.1945 10.7579 14.2775C10.675 14.3604 10.6089 14.4593 10.5634 14.5685C10.5178 14.6777 10.4936 14.795 10.4923 14.9137ZM9.87692 24.5965C9.88022 24.3555 9.79041 24.123 9.62708 23.9497C9.46375 23.7763 9.24017 23.6763 9.00513 23.6713C8.7685 23.672 8.5413 23.7664 8.37114 23.935C8.20097 24.1035 8.10105 24.3331 8.09231 24.5754C8.09231 25.0696 8.49231 25.4901 8.97436 25.4901C9.46667 25.5006 9.87692 25.0906 9.87692 24.5965ZM32.8923 6.75541C32.4103 6.75541 32 7.15492 31.9897 7.64904C31.9795 8.14317 32.3897 8.57421 32.8821 8.57421C33.3641 8.57421 33.7744 8.15368 33.7744 7.67007C33.7744 7.17594 33.3744 6.76592 32.8923 6.75541ZM31.3846 31.8296C31.3846 31.3355 30.9744 30.9255 30.4923 30.9255C30.0103 30.9255 29.6103 31.346 29.6 31.8401C29.6 32.3343 30.0205 32.7653 30.5026 32.7548C30.9949 32.7443 31.3846 32.3237 31.3846 31.8296ZM31.3846 19.7393C31.3846 19.2452 30.9744 18.8352 30.4923 18.8352C30.0103 18.8352 29.6103 19.2557 29.6103 19.7498C29.6103 20.244 30.0308 20.675 30.5128 20.6645C30.9949 20.654 31.3846 20.244 31.3846 19.7393ZM9.87692 14.9242C9.87692 14.4301 9.48718 14.0096 9.00513 14.0096C8.8872 14.0086 8.77025 14.0315 8.66098 14.077C8.55172 14.1225 8.4523 14.1897 8.36844 14.2747C8.28457 14.3597 8.21791 14.4608 8.17229 14.5723C8.12666 14.6837 8.10297 14.8034 8.10256 14.9242C8.10256 15.4184 8.51282 15.8284 8.99487 15.8389C9.46667 15.8389 9.87692 15.4184 9.87692 14.9242ZM31.3846 17.3318C31.3846 16.8377 30.9846 16.4276 30.4923 16.4276C30.0103 16.4276 29.6103 16.8377 29.6 17.3318C29.6 17.8259 30.0205 18.257 30.5026 18.2464C30.9846 18.2359 31.3846 17.8259 31.3846 17.3318ZM22.441 17.3318C22.441 17.8259 22.841 18.2464 23.3231 18.2464C23.8051 18.257 24.2256 17.8259 24.2256 17.3318C24.2256 16.8377 23.8154 16.4276 23.3333 16.4276C22.841 16.4276 22.441 16.8377 22.441 17.3318ZM13.7744 16.4276C13.2923 16.4276 12.8923 16.8377 12.8821 17.3318C12.8821 17.8364 13.2821 18.257 13.7744 18.257C14.2564 18.257 14.6564 17.8364 14.6564 17.3423C14.6564 16.8377 14.2564 16.4276 13.7744 16.4276ZM31.3846 10.0776C31.3846 9.58349 30.9744 9.17347 30.4923 9.17347C30.0103 9.17347 29.6103 9.58349 29.6 10.0776C29.6 10.5717 30.0205 11.0028 30.5026 10.9923C30.9949 10.9818 31.3846 10.5717 31.3846 10.0776ZM19.4359 24.586C19.4359 24.0918 19.0359 23.6818 18.5538 23.6713C18.0718 23.6713 17.6718 24.0708 17.6615 24.5754C17.6513 25.0801 18.0615 25.5006 18.5538 25.5006C19.0359 25.4901 19.4359 25.0801 19.4359 24.586ZM19.4359 22.1679C19.4359 21.6633 19.0462 21.2532 18.5538 21.2532C18.0615 21.2532 17.6513 21.6738 17.6615 22.1679C17.6615 22.662 18.0718 23.072 18.5538 23.072C19.0359 23.0826 19.4359 22.6725 19.4359 22.1679ZM13.7641 18.8457C13.2821 18.8457 12.8821 19.2557 12.8821 19.7604C12.8821 20.2545 13.2718 20.6645 13.7641 20.675C14.2462 20.6855 14.6667 20.2545 14.6564 19.7498C14.6564 19.2452 14.2462 18.8352 13.7641 18.8457ZM5.72308 10.0776C5.7224 10.1964 5.74455 10.3141 5.78826 10.424C5.83196 10.534 5.89637 10.634 5.9778 10.7185C6.05923 10.8029 6.15609 10.8701 6.26284 10.9162C6.3696 10.9623 6.48417 10.9863 6.6 10.987C6.71583 10.9877 6.83066 10.965 6.93794 10.9202C7.04521 10.8754 7.14282 10.8094 7.22521 10.7259C7.30759 10.6424 7.37313 10.5432 7.41807 10.4337C7.46302 10.3243 7.48651 10.2069 7.48718 10.0881C7.48718 9.57297 7.09744 9.16295 6.60513 9.16295C6.11282 9.17347 5.72308 9.58349 5.72308 10.0776ZM3.33333 7.65955C3.33333 8.16419 3.71282 8.5637 4.20513 8.57421C4.68718 8.58472 5.08718 8.17471 5.09744 7.68058C5.10045 7.56001 5.07985 7.44005 5.03685 7.32779C4.99385 7.21552 4.92933 7.11324 4.84709 7.02698C4.76485 6.94073 4.66658 6.87225 4.55807 6.8256C4.44957 6.77896 4.33304 6.75509 4.21538 6.75541C3.73333 6.75541 3.33333 7.16543 3.33333 7.65955ZM28.9846 12.4957C28.9846 11.991 28.5949 11.5915 28.1026 11.5915C27.8686 11.5915 27.6443 11.6868 27.4789 11.8563C27.3134 12.0259 27.2205 12.2559 27.2205 12.4957C27.2205 13.0003 27.6205 13.4208 28.1128 13.4103C28.5949 13.4103 28.9949 13.0003 28.9846 12.4957ZM5.09744 10.0881C5.09879 9.96939 5.07731 9.85154 5.03423 9.74131C4.99115 9.63109 4.92731 9.53064 4.84636 9.4457C4.7654 9.36077 4.66892 9.29301 4.56242 9.2463C4.45591 9.19959 4.34148 9.17484 4.22564 9.17347C4.10959 9.17124 3.99426 9.19267 3.88636 9.23653C3.77846 9.28039 3.68014 9.34579 3.59711 9.42894C3.51409 9.51209 3.44801 9.61132 3.40273 9.72088C3.35745 9.83043 3.33386 9.94812 3.33333 10.0671C3.32308 10.5823 3.72308 10.9923 4.21538 10.9923C4.69744 11.0028 5.09744 10.5928 5.09744 10.0881ZM7.48718 22.1679C7.48718 21.6738 7.08718 21.2638 6.60513 21.2638C6.12308 21.2638 5.72308 21.6738 5.72308 22.1679C5.72308 22.6725 6.13333 23.0931 6.61538 23.0826C7.10769 23.072 7.48718 22.662 7.48718 22.1679ZM26.5949 22.1679C26.5949 21.6633 26.2051 21.2532 25.7128 21.2532C25.2308 21.2532 24.8308 21.6527 24.8205 22.1574C24.8198 22.2768 24.8421 22.3952 24.8861 22.5058C24.93 22.6164 24.9948 22.717 25.0767 22.802C25.1586 22.8869 25.2561 22.9545 25.3634 23.0008C25.4708 23.0471 25.5861 23.0714 25.7026 23.072C25.8191 23.0727 25.9346 23.0499 26.0425 23.0048C26.1504 22.9598 26.2485 22.8934 26.3314 22.8094C26.4143 22.7254 26.4802 22.6256 26.5254 22.5155C26.5706 22.4054 26.5942 22.2873 26.5949 22.1679ZM5.09744 22.1679C5.09744 21.9281 5.00451 21.6981 4.83909 21.5286C4.67367 21.359 4.44932 21.2638 4.21538 21.2638C3.72308 21.2638 3.33333 21.6843 3.33333 22.1889C3.33333 22.6831 3.74359 23.0931 4.22564 23.0826C4.70769 23.072 5.09744 22.662 5.09744 22.1679ZM28.9846 19.7604C28.986 19.6416 28.9645 19.5238 28.9214 19.4135C28.8783 19.3033 28.8145 19.2029 28.7335 19.1179C28.6526 19.033 28.5561 18.9652 28.4496 18.9185C28.3431 18.8718 28.2287 18.8471 28.1128 18.8457C27.9956 18.8457 27.8796 18.8694 27.7713 18.9153C27.6631 18.9613 27.5647 19.0287 27.4819 19.1136C27.399 19.1985 27.3333 19.2994 27.2884 19.4103C27.2436 19.5213 27.2205 19.6402 27.2205 19.7604C27.2205 20.2545 27.6205 20.6645 28.1026 20.6645C28.5949 20.6645 28.9846 20.2545 28.9846 19.7604ZM7.48718 12.4957C7.48718 11.991 7.09744 11.5915 6.60513 11.5915C6.11282 11.5915 5.71282 12.0015 5.72308 12.5167C5.73333 13.0108 6.13333 13.4208 6.61538 13.4208C7.09744 13.4103 7.48718 13.0003 7.48718 12.4957ZM28.9846 27.0145C28.9846 26.5099 28.6051 26.0999 28.1128 26.0894C27.9954 26.0885 27.879 26.1116 27.7704 26.1573C27.6618 26.2029 27.5631 26.2703 27.48 26.3554C27.397 26.4405 27.3313 26.5417 27.2868 26.653C27.2422 26.7644 27.2197 26.8837 27.2205 27.004C27.2205 27.5087 27.6205 27.9082 28.1026 27.9187C28.5846 27.9187 28.9846 27.5087 28.9846 27.0145ZM3.33333 19.7604C3.33333 20.2545 3.74359 20.6645 4.22564 20.6645C4.70769 20.6645 5.10769 20.2545 5.10769 19.7498C5.10769 19.2452 4.71795 18.8457 4.22564 18.8352C3.72308 18.8352 3.33333 19.2557 3.33333 19.7604ZM26.5949 17.3318C26.5949 16.8271 26.2051 16.4276 25.7128 16.4171C25.2205 16.4171 24.8205 16.8271 24.8205 17.3423C24.8205 17.8364 25.2205 18.2464 25.7128 18.2464C26.2051 18.2464 26.5949 17.8364 26.5949 17.3318ZM7.48718 17.3318C7.48718 16.8271 7.09744 16.4276 6.60513 16.4276C6.37119 16.4276 6.14684 16.5229 5.98142 16.6925C5.81601 16.862 5.72308 17.092 5.72308 17.3318C5.72308 17.8364 6.12308 18.257 6.61538 18.257C7.09744 18.2464 7.48718 17.8364 7.48718 17.3318ZM7.48718 31.8296C7.48718 31.3355 7.08718 30.9255 6.60513 30.9255C6.12308 30.9255 5.72308 31.3355 5.72308 31.8401C5.72308 32.3448 6.11282 32.7548 6.59487 32.7548C7.08718 32.7548 7.48718 32.3343 7.48718 31.8296ZM24.8308 14.8927C24.8205 15.4079 25.2103 15.8179 25.7026 15.8284C25.9312 15.8219 26.1485 15.7254 26.3094 15.5588C26.4703 15.3922 26.5623 15.1684 26.5662 14.9341C26.5702 14.6997 26.4858 14.4728 26.3307 14.3006C26.1755 14.1284 25.9616 14.0241 25.7333 14.0096C25.4999 14.0059 25.2744 14.0964 25.1056 14.2616C24.9367 14.4269 24.838 14.6535 24.8308 14.8927ZM5.09744 24.586C5.09744 24.0813 4.69744 23.6818 4.21538 23.6713C3.72308 23.6713 3.32308 24.0813 3.33333 24.5965C3.33333 25.0906 3.74359 25.5006 4.22564 25.5006C4.70769 25.4901 5.09744 25.0801 5.09744 24.586ZM28.9846 24.5965C28.9846 24.0918 28.6051 23.6818 28.1128 23.6818C27.9954 23.681 27.879 23.7041 27.7704 23.7497C27.6618 23.7954 27.5631 23.8627 27.48 23.9478C27.397 24.0329 27.3313 24.1341 27.2868 24.2455C27.2422 24.3568 27.2197 24.4761 27.2205 24.5965C27.2205 25.1011 27.6205 25.5006 28.1026 25.5111C28.5846 25.5006 28.9846 25.0906 28.9846 24.5965ZM7.48718 27.0145C7.48853 26.8958 7.46706 26.7779 7.42398 26.6677C7.3809 26.5575 7.31706 26.457 7.2361 26.3721C7.15515 26.2872 7.05866 26.2194 6.95216 26.1727C6.84566 26.126 6.73122 26.1012 6.61538 26.0999C6.49798 26.099 6.38158 26.1221 6.27295 26.1678C6.16432 26.2135 6.06563 26.2808 5.9826 26.3659C5.89958 26.451 5.83389 26.5522 5.78933 26.6635C5.74478 26.7749 5.72226 26.8942 5.72308 27.0145C5.72308 27.5192 6.12308 27.9187 6.60513 27.9292C7.08718 27.9187 7.48718 27.5087 7.48718 27.0145ZM26.5949 27.004C26.5949 26.4994 26.1949 26.0999 25.7128 26.0894C25.2205 26.0894 24.8205 26.4994 24.8308 27.0145C24.8308 27.5087 25.241 27.9187 25.7231 27.9187C26.2051 27.9082 26.6051 27.4981 26.5949 27.004ZM27.2205 31.8401C27.2205 32.3448 27.6205 32.7443 28.1026 32.7548C28.5949 32.7548 28.9949 32.3448 28.9846 31.8296C28.9846 31.3355 28.5744 30.9255 28.0923 30.9255C27.9765 30.9268 27.862 30.9516 27.7555 30.9983C27.649 31.045 27.5525 31.1128 27.4716 31.1977C27.3906 31.2826 27.3268 31.3831 27.2837 31.4933C27.2406 31.6035 27.2192 31.7214 27.2205 31.8401ZM17.0462 19.7393C17.0462 19.2452 16.6462 18.8352 16.1538 18.8352C15.6718 18.8352 15.2718 19.2452 15.2718 19.7498C15.2718 20.2545 15.6615 20.654 16.1538 20.6645C16.6462 20.6645 17.0462 20.2545 17.0462 19.7393ZM5.09744 29.4221C5.10016 29.1823 5.00983 28.9512 4.84634 28.7797C4.68285 28.6081 4.45958 28.5102 4.22564 28.5074C3.99171 28.5046 3.76627 28.5972 3.59893 28.7648C3.43159 28.9324 3.33605 29.1613 3.33333 29.401C3.33333 29.9162 3.72308 30.3262 4.21538 30.3262C4.69744 30.3367 5.09744 29.9267 5.09744 29.4221ZM5.09744 14.9137C5.09744 14.6739 5.00451 14.444 4.83909 14.2744C4.67367 14.1048 4.44932 14.0096 4.21538 14.0096C3.72308 14.0096 3.33333 14.4301 3.33333 14.9348C3.34359 15.4289 3.74359 15.8389 4.22564 15.8284C4.71795 15.8179 5.09744 15.4079 5.09744 14.9137ZM28.9846 14.9137C28.9846 14.4091 28.5949 14.0096 28.1026 13.9991C27.6205 13.9991 27.2205 14.3986 27.2103 14.9032C27.2103 15.4079 27.6103 15.8284 28.1026 15.8284C28.5949 15.8284 28.9846 15.4184 28.9846 14.9137ZM5.72308 29.4326C5.72308 29.9267 6.13333 30.3367 6.61538 30.3367C7.10769 30.3367 7.49744 29.9162 7.49744 29.401C7.49542 29.2816 7.47047 29.1638 7.42402 29.0542C7.37756 28.9447 7.31052 28.8456 7.22671 28.7626C7.1429 28.6796 7.04396 28.6144 6.93555 28.5706C6.82714 28.5268 6.71138 28.5053 6.59487 28.5074C6.47837 28.5095 6.3634 28.5351 6.25653 28.5827C6.14967 28.6303 6.053 28.699 5.97205 28.7849C5.89109 28.8708 5.82744 28.9722 5.78472 29.0834C5.742 29.1945 5.72106 29.3132 5.72308 29.4326ZM17.0462 22.1574C17.0462 21.9176 16.9532 21.6876 16.7878 21.5181C16.6224 21.3485 16.398 21.2532 16.1641 21.2532C15.6821 21.2532 15.282 21.6633 15.282 22.1574C15.282 22.662 15.6923 23.0826 16.1744 23.072C16.6564 23.072 17.0462 22.662 17.0462 22.1574ZM24.8308 29.4221C24.8308 29.9162 25.2308 30.3262 25.7128 30.3262C26.1949 30.3262 26.5949 29.9162 26.5949 29.4221C26.5949 28.9174 26.1949 28.4969 25.7026 28.5074C25.2205 28.5179 24.8308 28.9174 24.8308 29.4221Z" fill="white"/>
<path d="M60.7395 34.4792H56.2369V20.0865C56.1344 20.1391 56.0626 20.1601 56.001 20.1917C54.5754 20.9696 53.4472 22.0946 52.5651 23.4613C52.042 24.2708 51.601 25.1434 51.1395 25.995C51.0779 26.1106 51.0164 26.1737 50.8728 26.1632C50.5138 26.1527 50.1651 26.1527 49.8061 26.1632C49.6626 26.1632 49.601 26.1106 49.5497 25.995C49.0164 24.807 48.3805 23.6926 47.5702 22.6833C46.76 21.6635 45.8061 20.8225 44.6677 20.2022C44.6164 20.1706 44.5549 20.1496 44.4626 20.1076V34.5003H39.9395V14.2622C44.2574 14.3673 47.7036 16.1756 50.3395 19.6555C52.9651 16.1861 56.4113 14.3673 60.7292 14.2622C60.7395 21.0012 60.7395 27.7297 60.7395 34.4792Z" fill="white"/>
<path d="M87.5172 22.9772C87.5582 22.9246 87.6095 22.8721 87.6505 22.809C89.7223 19.9914 91.7941 17.1634 93.8557 14.3353C93.948 14.2091 94.0505 14.1566 94.2044 14.1566C95.8557 14.1671 97.5069 14.1566 99.1582 14.1566H99.4146C96.9121 17.3105 94.4403 20.412 91.9582 23.5344C94.6352 27.172 97.3018 30.8096 99.999 34.4682C99.9069 34.4788 99.8454 34.4788 99.7839 34.4788H94.4711C94.3275 34.4788 94.2454 34.4262 94.1531 34.3105C91.989 31.2196 89.8249 28.1182 87.6505 25.0273C87.6095 24.9588 87.5533 24.9012 87.4864 24.8591V34.4577H82.9634C82.9634 34.3946 82.9531 34.3211 82.9531 34.258V14.3773C82.9531 14.1881 83.0044 14.146 83.1787 14.146C84.5326 14.1566 85.8864 14.1566 87.2403 14.146C87.4352 14.146 87.4864 14.1986 87.4864 14.3984C87.4762 17.1739 87.4864 19.9389 87.4864 22.7144V22.9457C87.4864 22.9667 87.4967 22.9667 87.5172 22.9772Z" fill="white"/>
<path d="M81.0252 34.4893H75.497C75.3329 34.4893 75.2406 34.4367 75.1483 34.3105C72.9842 31.2091 70.8098 28.1077 68.6354 25.0168L68.4815 24.817V34.4788H63.9688V14.1776H68.461V22.9562C68.4713 22.9667 68.4918 22.9772 68.5021 22.9772C68.5431 22.9246 68.5944 22.8721 68.6354 22.809C70.6969 19.9914 72.7687 17.1739 74.8303 14.3563C74.9328 14.2091 75.0457 14.146 75.2304 14.146C76.8611 14.1566 78.4918 14.146 80.1226 14.146H80.4098C77.9072 17.3 75.4355 20.4015 72.9534 23.5239C75.6509 27.1825 78.3278 30.8096 81.0252 34.4893Z" fill="white"/>
</g>
<defs>
<clipPath id="clip0_1751_1655">
<rect width="100" height="34" fill="white" transform="translate(0 0.5)"/>
</clipPath>
</defs>
</svg>
