<svg width="300" height="160" viewBox="0 0 300 160" fill="none" xmlns="http://www.w3.org/2000/svg">
<g clip-path="url(#clip0_1326_1105)">
<path d="M112.133 124.345H24.5067V123.635L24.6667 64.7833C24.6667 64.1546 24.48 63.6627 24.1333 63.1705C23.2 61.9405 21.92 61.2571 20.5067 60.8198C20.3467 60.7651 20.1867 60.7378 20 60.6831V36.0547C20.08 36.0273 20.16 36.0273 20.24 36.0273C27.8667 36.1913 35.4133 36.9567 42.72 39.2802C53.2267 42.615 61.36 49.2026 67.4934 58.4963L68.2934 59.7264C68.32 59.7537 68.3467 59.7811 68.4266 59.8357C68.5599 59.6717 68.6665 59.5077 68.7999 59.3164C73.8665 51.6354 80.3733 45.6764 88.5867 41.7129C93.1734 39.4988 98 38.0228 103.013 37.1207C107.28 36.3553 111.573 36 115.92 36H116.507C116.507 36.2187 116.533 36.41 116.533 36.574C116.533 44.4737 116.507 52.3734 116.507 60.2458C116.507 60.6284 116.427 60.8471 116.027 60.9838C114.693 61.5031 113.547 62.3232 112.667 63.4986C112.4 63.8538 112.293 64.2365 112.293 64.6738C112.293 74.4051 112.267 84.1361 112.24 93.8672L112.16 123.717C112.133 123.963 112.133 124.127 112.133 124.345ZM74.4534 89.9583C73.1999 89.9583 72.1334 91.0246 72.1334 92.3092C72.1066 93.5666 73.1734 94.6872 74.4266 94.6872C75.68 94.7148 76.7733 93.5939 76.7733 92.3092C76.7492 91.6889 76.4962 91.1013 76.0656 90.6647C75.6351 90.2285 75.0586 89.976 74.4534 89.9583ZM47.28 92.3638C47.28 93.6485 48.3468 94.7148 49.6 94.7148C50.8534 94.7148 51.9199 93.6212 51.9199 92.3365C51.9199 91.0519 50.8266 89.931 49.5734 89.9583C48.9624 89.9796 48.3832 90.2415 47.9557 90.6894C47.5285 91.1377 47.2865 91.7372 47.28 92.3638ZM103.173 86.077C103.173 87.3617 104.24 88.4277 105.493 88.4277C106.747 88.4277 107.813 87.3344 107.813 86.077C107.813 84.7648 106.747 83.6715 105.467 83.6988C104.213 83.6988 103.173 84.7921 103.173 86.077ZM76.7466 86.1043C76.7528 85.4806 76.523 84.8784 76.1051 84.4247C75.6876 83.9713 75.1145 83.7012 74.5067 83.6715C73.8899 83.6684 73.2966 83.9125 72.8533 84.3517C72.4098 84.7908 72.1513 85.3904 72.1334 86.0222C72.1066 87.2795 73.1734 88.4004 74.4001 88.4277C75.6267 88.455 76.72 87.389 76.7466 86.1043ZM49.6 83.6988C48.3468 83.6988 47.28 84.7648 47.28 86.0495C47.2532 87.3344 48.3468 88.455 49.6 88.455C50.8534 88.455 51.8934 87.3617 51.8934 86.077C51.896 85.7661 51.8388 85.4577 51.7249 85.1699C51.6111 84.8818 51.4426 84.6197 51.2296 84.3985C51.0164 84.1775 50.7627 84.002 50.4829 83.8819C50.2034 83.7617 49.9031 83.6996 49.6 83.6988ZM107.813 73.5029C107.813 72.2183 106.773 71.125 105.52 71.125C104.267 71.125 103.2 72.1637 103.173 73.4483C103.147 74.733 104.24 75.8538 105.493 75.8538C106.747 75.8538 107.813 74.7878 107.813 73.5029ZM105.493 119.835C106.747 119.835 107.813 118.769 107.813 117.484C107.84 116.2 106.747 115.079 105.493 115.079C104.24 115.079 103.2 116.172 103.2 117.457C103.173 118.742 104.24 119.835 105.493 119.835ZM49.5734 119.835C50.8266 119.835 51.8934 118.769 51.8934 117.484C51.9199 116.227 50.8534 115.106 49.6267 115.079C49.009 115.079 48.4159 115.329 47.9768 115.774C47.5374 116.219 47.287 116.824 47.28 117.457C47.28 118.742 48.32 119.835 49.5734 119.835ZM103.173 67.2161C103.173 68.5008 104.24 69.5668 105.493 69.5668C106.747 69.5668 107.813 68.4735 107.813 67.1888C107.813 65.8766 106.747 64.8106 105.467 64.8106C104.213 64.8652 103.173 65.9315 103.173 67.2161ZM105.493 113.575C106.747 113.575 107.813 112.509 107.813 111.225C107.813 109.94 106.773 108.847 105.52 108.847C104.267 108.819 103.173 109.94 103.173 111.225C103.2 112.482 104.24 113.548 105.493 113.575ZM49.6267 113.575C50.8799 113.548 51.9199 112.455 51.9199 111.197C51.9199 109.913 50.8534 108.847 49.6 108.847C48.9822 108.854 48.3923 109.11 47.9578 109.561C47.5236 110.011 47.28 110.619 47.28 111.252C47.3068 112.509 48.3733 113.575 49.6267 113.575ZM45.68 111.225C45.6837 110.6 45.4486 109.998 45.025 109.549C44.6014 109.099 44.0229 108.837 43.4133 108.819C42.7956 108.819 42.2027 109.069 41.7634 109.514C41.324 109.959 41.0737 110.564 41.0667 111.197C41.0667 112.482 42.1067 113.575 43.36 113.575C44.6133 113.575 45.68 112.509 45.68 111.225ZM49.5734 107.289C50.8266 107.289 51.8934 106.223 51.8934 104.938C51.9199 103.68 50.8534 102.56 49.6 102.532C48.9822 102.532 48.3894 102.782 47.95 103.227C47.5106 103.672 47.2605 104.277 47.2535 104.91C47.28 106.195 48.32 107.261 49.5734 107.289ZM107.813 98.6236C107.813 97.3387 106.747 96.2727 105.493 96.2454C104.213 96.2454 103.147 97.3387 103.173 98.6509C103.2 99.9356 104.267 101.002 105.493 101.002C106.104 100.988 106.687 100.733 107.119 100.29C107.551 99.8466 107.8 99.2499 107.813 98.6236ZM107.813 92.3365C107.813 91.0519 106.747 89.9859 105.493 89.9859C104.876 89.9929 104.286 90.2495 103.851 90.6998C103.417 91.1502 103.173 91.758 103.173 92.3911C103.2 93.6761 104.267 94.7421 105.52 94.7148C106.773 94.6872 107.813 93.5939 107.813 92.3365ZM101.6 111.197C101.6 109.913 100.587 108.819 99.3068 108.819C98.0533 108.792 96.96 109.913 96.96 111.197C96.96 112.482 98.0268 113.548 99.28 113.548C100.533 113.548 101.6 112.482 101.6 111.197ZM45.68 79.79C45.68 78.5053 44.6667 77.4118 43.3867 77.4118C42.7689 77.4118 42.176 77.6616 41.7367 78.1067C41.2974 78.5519 41.047 79.1569 41.04 79.79C41.04 81.0746 42.1067 82.1406 43.36 82.1406C44.64 82.1406 45.68 81.0746 45.68 79.79ZM45.68 86.077C45.68 84.7921 44.6667 83.6988 43.3867 83.6988C42.7689 83.6988 42.176 83.9484 41.7367 84.3935C41.2974 84.8389 41.047 85.4437 41.04 86.077C41.04 87.3617 42.1067 88.4277 43.36 88.455C44.64 88.4277 45.68 87.3617 45.68 86.077ZM101.6 98.6236C101.6 97.3387 100.56 96.2727 99.3068 96.2454C98.0533 96.2454 96.96 97.3387 96.9868 98.6509C97.0133 99.9356 98.0533 101.002 99.3068 101.002C100.56 101.002 101.6 99.9083 101.6 98.6236ZM78.3466 86.0495C78.3466 87.3344 79.3866 88.4004 80.6401 88.4277C81.8933 88.455 82.96 87.3617 82.9866 86.077C83.0133 84.7921 81.92 83.6715 80.6666 83.6715C79.3866 83.6988 78.3466 84.7648 78.3466 86.0495ZM47.28 73.4756C47.28 74.7605 48.2935 75.8538 49.5734 75.8811C50.8266 75.9084 51.9199 74.7878 51.9199 73.5029C51.9199 72.2183 50.8534 71.1523 49.6 71.1523C49.2989 71.1486 48.9999 71.2058 48.7204 71.3207C48.4406 71.4354 48.1858 71.6057 47.9705 71.8215C47.755 72.037 47.5831 72.2942 47.4648 72.5781C47.3463 72.862 47.2834 73.167 47.28 73.4756ZM45.68 98.6509C45.6886 98.0243 45.4551 97.4198 45.0304 96.9692C44.6058 96.5184 44.0244 96.2584 43.4133 96.2454C42.7981 96.2472 42.2074 96.4926 41.765 96.931C41.3225 97.3691 41.0627 97.9661 41.04 98.596C41.04 99.881 42.08 100.974 43.3333 100.974C44.6133 101.002 45.68 99.9356 45.68 98.6509ZM105.52 52.2641C104.267 52.2641 103.2 53.3028 103.173 54.5875C103.147 55.8722 104.213 56.9929 105.493 56.9929C106.747 56.9929 107.813 55.8996 107.813 54.6422C107.813 53.3574 106.773 52.2914 105.52 52.2641ZM101.6 117.457C101.6 116.172 100.533 115.106 99.28 115.106C98.0268 115.106 96.9868 116.2 96.96 117.484C96.96 118.769 98.0533 119.89 99.3068 119.862C100.587 119.835 101.6 118.742 101.6 117.457ZM101.6 86.0222C101.6 84.7375 100.533 83.6715 99.28 83.6715C98.0268 83.6715 96.9868 84.7648 96.9868 86.0495C96.9868 87.3344 98.0801 88.455 99.3333 88.4277C100.587 88.4004 101.6 87.3344 101.6 86.0222ZM45.68 73.5029C45.68 72.2183 44.6667 71.125 43.4133 71.125C43.1067 71.1224 42.8027 71.1819 42.5185 71.3002C42.2345 71.4185 41.976 71.5932 41.7579 71.8142C41.5399 72.0352 41.3666 72.2981 41.248 72.588C41.1293 72.8776 41.0677 73.1888 41.0667 73.5029C41.0667 74.7878 42.1333 75.8538 43.3867 75.8811C44.6133 75.8811 45.68 74.7878 45.68 73.5029ZM101.6 79.7627C101.6 78.478 100.56 77.4118 99.28 77.4118C98.0268 77.4118 96.9868 78.478 96.96 79.7627C96.96 81.0473 98.0533 82.1682 99.3068 82.1406C100.56 82.1133 101.6 81.0473 101.6 79.7627ZM78.3466 79.7627C78.3466 81.0473 79.3866 82.1406 80.6401 82.1406C81.8933 82.1682 82.9866 81.0473 82.9866 79.7627C82.9866 78.478 81.92 77.4118 80.6666 77.4118C79.3866 77.4118 78.3466 78.478 78.3466 79.7627ZM55.8134 77.4118C54.56 77.4118 53.52 78.478 53.4935 79.7627C53.4935 81.0746 54.5335 82.1682 55.8134 82.1682C57.0666 82.1682 58.1066 81.0746 58.1066 79.79C58.1066 78.478 57.0666 77.4118 55.8134 77.4118ZM101.6 60.9018C101.6 59.6171 100.533 58.551 99.28 58.551C98.0268 58.551 96.9868 59.6171 96.96 60.9018C96.96 62.1864 98.0533 63.3073 99.3068 63.28C100.587 63.2527 101.6 62.1864 101.6 60.9018ZM70.5333 98.6236C70.5333 97.3387 69.4933 96.2727 68.2399 96.2454C66.9867 96.2454 65.9467 97.2841 65.9199 98.596C65.8934 99.9083 66.9599 101.002 68.2399 101.002C69.4933 100.974 70.5333 99.9083 70.5333 98.6236ZM70.5333 92.3365C70.5333 91.0246 69.5201 89.9583 68.2399 89.9583C66.9599 89.9583 65.8934 91.0519 65.9199 92.3365C65.9199 93.6212 66.9867 94.6872 68.2399 94.6872C69.4933 94.7148 70.5333 93.6485 70.5333 92.3365ZM55.7867 83.6988C54.5335 83.6988 53.4935 84.7648 53.4935 86.077C53.4935 87.3617 54.5067 88.4277 55.7867 88.455C57.0401 88.4823 58.1334 87.3617 58.1066 86.0495C58.1066 84.7375 57.0401 83.6715 55.7867 83.6988ZM34.88 60.9018C34.8782 61.2105 34.9358 61.5165 35.0495 61.8024C35.1631 62.0884 35.3306 62.3484 35.5423 62.5681C35.754 62.7875 36.0058 62.9623 36.2834 63.0821C36.561 63.202 36.8588 63.2644 37.16 63.2662C37.4612 63.268 37.7597 63.209 38.0386 63.0925C38.3175 62.976 38.5713 62.8044 38.7855 62.5873C38.9997 62.3702 39.1701 62.1123 39.287 61.8277C39.4039 61.5432 39.4649 61.2378 39.4667 60.9291C39.4667 59.5897 38.4533 58.5237 37.1733 58.5237C35.8933 58.551 34.88 59.6171 34.88 60.9018ZM28.6667 54.6148C28.6667 55.9269 29.6533 56.9656 30.9333 56.9929C32.1867 57.0203 33.2267 55.9542 33.2533 54.6695C33.2612 54.356 33.2076 54.0441 33.0958 53.7523C32.984 53.4604 32.8163 53.1944 32.6024 52.9701C32.3886 52.7459 32.1331 52.5678 31.851 52.4466C31.5689 52.3253 31.2659 52.2632 30.96 52.2641C29.7067 52.2641 28.6667 53.3301 28.6667 54.6148ZM95.36 67.1888C95.36 65.8766 94.3467 64.8379 93.0668 64.8379C92.4584 64.8379 91.8752 65.0857 91.4451 65.5264C91.0148 65.9673 90.7733 66.5653 90.7733 67.1888C90.7733 68.5008 91.8133 69.5941 93.0933 69.5668C94.3467 69.5668 95.3867 68.5008 95.36 67.1888ZM33.2533 60.9291C33.2569 60.6204 33.201 60.314 33.089 60.0274C32.977 59.7408 32.811 59.4797 32.6005 59.2588C32.39 59.038 32.1392 58.8618 31.8623 58.7404C31.5854 58.6189 31.2878 58.5546 30.9867 58.551C30.6849 58.5452 30.3851 58.6009 30.1045 58.715C29.824 58.829 29.5684 58.9991 29.3525 59.2152C29.1366 59.4314 28.9648 59.6894 28.8471 59.9743C28.7294 60.2591 28.668 60.5651 28.6667 60.8745C28.64 62.214 29.68 63.28 30.96 63.28C32.2133 63.3073 33.2533 62.2413 33.2533 60.9291ZM39.4667 92.3365C39.4667 91.0519 38.4267 89.9859 37.1733 89.9859C35.92 89.9859 34.88 91.0519 34.88 92.3365C34.88 93.6485 35.9467 94.7421 37.2 94.7148C38.48 94.6872 39.4667 93.6212 39.4667 92.3365ZM89.1467 92.3365C89.1467 91.0246 88.1333 89.9583 86.8533 89.9583C85.6001 89.9583 84.5601 90.9973 84.5333 92.3092C84.5315 92.6197 84.5895 92.9275 84.7039 93.2151C84.818 93.5026 84.9865 93.7642 85.1994 93.9852C85.4124 94.2059 85.6659 94.3817 85.9448 94.5021C86.2241 94.6225 86.5239 94.6856 86.8268 94.6872C87.1297 94.689 87.43 94.6297 87.7105 94.5125C87.991 94.3955 88.2461 94.2228 88.4616 94.0044C88.6772 93.786 88.8485 93.5266 88.966 93.2403C89.0836 92.954 89.1449 92.647 89.1467 92.3365ZM33.2533 92.3365C33.2533 91.7131 33.0117 91.1151 32.5816 90.6744C32.1515 90.2334 31.5682 89.9859 30.96 89.9859C29.68 89.9859 28.6667 91.0792 28.6667 92.3911C28.6667 93.6761 29.7333 94.7421 30.9867 94.7148C32.24 94.6872 33.2533 93.6212 33.2533 92.3365ZM95.36 86.077C95.3636 85.7682 95.3077 85.4619 95.1956 85.1751C95.0836 84.8886 94.9177 84.6275 94.7071 84.4065C94.4968 84.1858 94.2459 84.0095 93.969 83.8881C93.6921 83.7667 93.3946 83.7025 93.0933 83.6988C92.7886 83.6988 92.487 83.7604 92.2054 83.8798C91.9241 83.9994 91.6682 84.1746 91.4529 84.3954C91.2374 84.6161 91.0666 84.8784 90.9498 85.1668C90.8334 85.4554 90.7733 85.7645 90.7733 86.077C90.7733 87.3617 91.8133 88.4277 93.0668 88.4277C94.3467 88.4277 95.36 87.3617 95.36 86.077ZM39.4667 67.1888C39.4667 65.8766 38.4533 64.8379 37.1733 64.8379C35.8933 64.8379 34.8533 65.9039 34.88 67.2434C34.9067 68.5281 35.9467 69.5941 37.2 69.5941C38.4533 69.5668 39.4667 68.5008 39.4667 67.1888ZM95.36 104.938C95.36 103.626 94.3733 102.56 93.0933 102.532C92.788 102.53 92.4854 102.59 92.203 102.709C91.9207 102.828 91.6641 103.003 91.448 103.224C91.2322 103.445 91.0614 103.708 90.9457 103.998C90.8297 104.287 90.7712 104.598 90.7733 104.91C90.7733 106.223 91.8133 107.261 93.0668 107.289C94.32 107.289 95.36 106.223 95.36 104.938ZM28.6667 86.077C28.6667 87.3617 29.7333 88.4277 30.9867 88.4277C32.24 88.4277 33.28 87.3617 33.28 86.0495C33.28 84.7375 32.2667 83.6988 30.9867 83.6715C29.68 83.6715 28.6667 84.7648 28.6667 86.077ZM89.1467 79.7627C89.1467 78.4505 88.1333 77.4118 86.8533 77.3845C85.5733 77.3845 84.5333 78.4505 84.5333 79.79C84.5333 81.0746 85.5733 82.1406 86.8533 82.1406C88.1333 82.1406 89.1467 81.0746 89.1467 79.7627ZM39.4667 79.7627C39.4667 78.4505 38.4533 77.4118 37.1733 77.4118C36.5651 77.4118 35.9818 77.6595 35.5517 78.1005C35.1216 78.5412 34.88 79.1392 34.88 79.7627C34.88 81.0746 35.92 82.1682 37.2 82.1682C38.4533 82.1406 39.4667 81.0746 39.4667 79.7627ZM39.4667 117.457C39.4667 116.172 38.4267 115.106 37.1733 115.106C35.92 115.106 34.88 116.172 34.88 117.484C34.88 118.796 35.8933 119.862 37.1467 119.862C38.4267 119.862 39.4667 118.769 39.4667 117.457ZM84.5601 73.421C84.5333 74.7605 85.5468 75.8265 86.8268 75.8538C87.4211 75.8369 87.9861 75.586 88.4044 75.1529C88.8228 74.7197 89.062 74.1378 89.0721 73.5287C89.0825 72.9192 88.8631 72.3293 88.4598 71.8816C88.0563 71.4338 87.5002 71.1627 86.9066 71.125C86.2997 71.1153 85.7134 71.3506 85.2746 71.7802C84.8354 72.2099 84.5788 72.7991 84.5601 73.421ZM33.2533 98.6236C33.2533 97.3114 32.2133 96.2727 30.96 96.2454C29.68 96.2454 28.64 97.3114 28.6667 98.6509C28.6667 99.9356 29.7333 101.002 30.9867 101.002C32.24 100.974 33.2533 99.9083 33.2533 98.6236ZM95.36 98.6509C95.36 97.3387 94.3733 96.2727 93.0933 96.2727C92.788 96.2706 92.4854 96.3307 92.203 96.4492C91.9207 96.568 91.6641 96.743 91.448 96.9643C91.2322 97.1855 91.0614 97.4487 90.9457 97.7383C90.8297 98.0277 90.7712 98.3379 90.7733 98.6509C90.7733 99.9629 91.8133 101.002 93.0668 101.029C94.32 101.002 95.36 99.9356 95.36 98.6509ZM39.4667 104.938C39.4702 104.629 39.4144 104.323 39.3023 104.036C39.1903 103.749 39.0244 103.488 38.8139 103.267C38.6034 103.047 38.3525 102.87 38.0756 102.749C37.7987 102.628 37.5012 102.563 37.2 102.56C36.8947 102.557 36.5921 102.617 36.3097 102.736C36.0272 102.855 35.7706 103.03 35.5548 103.251C35.3389 103.473 35.1681 103.736 35.0523 104.025C34.9364 104.315 34.8779 104.625 34.88 104.938C34.88 106.25 35.92 107.289 37.1733 107.316C38.4267 107.289 39.4667 106.223 39.4667 104.938ZM89.1467 104.91C89.1467 103.598 88.1067 102.56 86.8533 102.532C85.5733 102.532 84.5333 103.598 84.5601 104.938C84.5601 106.223 85.6266 107.289 86.8801 107.289C88.1333 107.261 89.1733 106.195 89.1467 104.91ZM90.7733 117.484C90.7733 118.796 91.8133 119.835 93.0668 119.862C94.3467 119.862 95.3867 118.796 95.36 117.457C95.36 116.172 94.2934 115.106 93.04 115.106C92.7389 115.11 92.4412 115.174 92.1643 115.296C91.8874 115.417 91.6365 115.593 91.4262 115.814C91.2156 116.035 91.0497 116.296 90.9376 116.583C90.8256 116.869 90.7699 117.176 90.7733 117.484ZM64.3201 86.0222C64.3201 84.7375 63.2801 83.6715 61.9999 83.6715C60.7467 83.6715 59.7067 84.7375 59.7067 86.0495C59.7067 87.3617 60.7199 88.4004 61.9999 88.4277C63.2801 88.4277 64.3201 87.3617 64.3201 86.0222ZM33.2533 111.197C33.2604 110.574 33.0256 109.973 32.6005 109.527C32.1754 109.081 31.5949 108.827 30.9867 108.819C30.3784 108.812 29.7923 109.053 29.3572 109.488C28.9221 109.924 28.6737 110.519 28.6667 111.143C28.6667 112.482 29.68 113.548 30.96 113.548C32.2133 113.575 33.2533 112.509 33.2533 111.197ZM33.2533 73.4756C33.2533 72.8521 33.0117 72.2544 32.5816 71.8134C32.1515 71.3725 31.5682 71.125 30.96 71.125C29.68 71.125 28.6667 72.2183 28.6667 73.5305C28.6933 74.8151 29.7333 75.8811 30.9867 75.8538C32.2667 75.8265 33.2533 74.7605 33.2533 73.4756ZM95.36 73.4756C95.36 72.1637 94.3467 71.125 93.0668 71.0977C91.8133 71.0977 90.7733 72.1364 90.7468 73.4483C90.7468 74.7605 91.7868 75.8538 93.0668 75.8538C94.3467 75.8538 95.36 74.7878 95.36 73.4756ZM34.88 111.225C34.88 112.509 35.9467 113.575 37.2 113.575C38.48 113.575 39.4933 112.482 39.4933 111.143C39.4881 110.832 39.4232 110.526 39.3025 110.241C39.1817 109.956 39.0074 109.699 38.7894 109.483C38.5715 109.267 38.3143 109.097 38.0324 108.984C37.7506 108.87 37.4496 108.814 37.1467 108.819C36.8437 108.825 36.5448 108.891 36.267 109.015C35.9891 109.139 35.7378 109.317 35.5273 109.541C35.3168 109.764 35.1513 110.028 35.0403 110.317C34.9292 110.606 34.8748 110.914 34.88 111.225ZM64.3201 92.3092C64.3201 91.6858 64.0783 91.0878 63.6483 90.6471C63.2182 90.2061 62.6348 89.9583 62.0267 89.9583C60.7735 89.9583 59.7335 91.0246 59.7335 92.3092C59.7335 93.6212 60.8 94.7148 62.0534 94.6872C63.3066 94.6872 64.3201 93.6212 64.3201 92.3092ZM84.5601 111.197C84.5601 112.482 85.6001 113.548 86.8533 113.548C88.1067 113.548 89.1467 112.482 89.1467 111.197C89.1467 109.885 88.1067 108.792 86.8268 108.819C85.5733 108.847 84.5601 109.885 84.5601 111.197Z" fill="#EC1010"/>
<path d="M177.92 124.345H166.213V86.9244C165.947 87.0612 165.76 87.1158 165.6 87.1979C161.893 89.2205 158.96 92.1455 156.666 95.6989C155.306 97.8036 154.16 100.072 152.96 102.287C152.8 102.587 152.64 102.751 152.266 102.724C151.333 102.697 150.426 102.697 149.493 102.724C149.12 102.724 148.96 102.587 148.826 102.287C147.44 99.1977 145.786 96.3003 143.68 93.6761C141.573 91.0246 139.093 88.838 136.133 87.2252C136 87.1431 135.84 87.0885 135.6 86.9793V124.4H123.84V71.7812C135.066 72.0545 144.027 76.7561 150.88 85.8038C157.706 76.7834 166.667 72.0545 177.893 71.7812C177.92 89.3027 177.92 106.797 177.92 124.345Z" fill="#EC1010"/>
<path d="M247.547 94.4411C247.654 94.3043 247.787 94.1678 247.894 94.0038C253.281 86.678 258.667 79.3252 264.027 71.9722C264.267 71.644 264.534 71.5075 264.934 71.5075C269.227 71.5348 273.521 71.5075 277.814 71.5075H278.481C271.974 79.7077 265.547 87.7716 259.094 95.8898C266.054 105.348 272.987 114.805 280 124.318C279.761 124.345 279.601 124.345 279.441 124.345H265.627C265.254 124.345 265.041 124.208 264.801 123.908C259.174 115.871 253.547 107.808 247.894 99.7714C247.787 99.5933 247.641 99.4435 247.467 99.334V124.29H235.707C235.707 124.126 235.681 123.935 235.681 123.771V72.0814C235.681 71.5894 235.814 71.48 236.267 71.48C239.787 71.5075 243.307 71.5075 246.827 71.48C247.334 71.48 247.467 71.6167 247.467 72.1362C247.441 79.3525 247.467 86.5415 247.467 93.7578V94.3592C247.467 94.4138 247.494 94.4138 247.547 94.4411Z" fill="#EC1010"/>
<path d="M230.668 124.373H216.295C215.868 124.373 215.628 124.236 215.388 123.908C209.761 115.844 204.108 107.78 198.455 99.7441L198.055 99.2246V124.345H186.321V71.5621H198.001V94.3865C198.028 94.4138 198.081 94.4411 198.108 94.4411C198.215 94.3043 198.348 94.1678 198.455 94.0038C203.815 86.678 209.201 79.3525 214.561 72.0268C214.828 71.644 215.121 71.48 215.601 71.48C219.841 71.5075 224.081 71.48 228.321 71.48H229.068C222.561 79.6804 216.135 87.7443 209.681 95.8625C216.695 105.375 223.655 114.805 230.668 124.373Z" fill="#EC1010"/>
</g>
<defs>
<clipPath id="clip0_1326_1105">
<rect width="260" height="88.4" fill="white" transform="translate(20 36)"/>
</clipPath>
</defs>
</svg>
