<svg width="100" height="34" viewBox="0 0 100 34" fill="none" xmlns="http://www.w3.org/2000/svg">
<path d="M35.4359 33.979H1.73333V33.7056L1.79487 11.0705C1.79487 10.8287 1.72308 10.6395 1.58974 10.4502C1.23077 9.97712 0.738461 9.71428 0.194872 9.54607C0.133333 9.52505 0.0717949 9.51453 0 9.49351V0.0210266C0.0307692 0.0105133 0.0615385 0.0105133 0.0923077 0.0105133C3.02564 0.0735931 5.92821 0.367965 8.73846 1.2616C12.7795 2.54422 15.9077 5.07792 18.2667 8.65244L18.5744 9.12554C18.5846 9.13605 18.5949 9.14657 18.6256 9.16759C18.6769 9.10451 18.7179 9.04143 18.7692 8.96784C20.7179 6.0136 23.2205 3.72171 26.3795 2.19728C28.1436 1.3457 30 0.777984 31.9282 0.431045C33.5692 0.136673 35.2205 0 36.8923 0H37.1179C37.1179 0.0841064 37.1282 0.157699 37.1282 0.220779C37.1282 3.25912 37.1179 6.29746 37.1179 9.32529C37.1179 9.47248 37.0872 9.55659 36.9333 9.60915C36.4205 9.8089 35.9795 10.1243 35.641 10.5764C35.5385 10.713 35.4974 10.8602 35.4974 11.0284C35.4974 14.7712 35.4872 18.5139 35.4769 22.2566L35.4462 33.7372C35.4359 33.8318 35.4359 33.8949 35.4359 33.979ZM20.9436 20.7532C20.4615 20.7532 20.0513 21.1633 20.0513 21.6574C20.041 22.141 20.4513 22.572 20.9333 22.572C21.4154 22.5826 21.8359 22.1515 21.8359 21.6574C21.8266 21.4188 21.7293 21.1928 21.5637 21.0249C21.3981 20.8571 21.1764 20.76 20.9436 20.7532ZM10.4923 21.6784C10.4923 22.1725 10.9026 22.5826 11.3846 22.5826C11.8667 22.5826 12.2769 22.162 12.2769 21.6679C12.2769 21.1738 11.8564 20.7427 11.3744 20.7532C11.1394 20.7614 10.9166 20.8621 10.7522 21.0344C10.5879 21.2068 10.4948 21.4374 10.4923 21.6784ZM31.9897 19.2604C31.9897 19.7545 32.4 20.1645 32.882 20.1645C33.3641 20.1645 33.7744 19.744 33.7744 19.2604C33.7744 18.7557 33.3641 18.3352 32.8718 18.3457C32.3897 18.3457 31.9897 18.7662 31.9897 19.2604ZM21.8256 19.2709C21.828 19.031 21.7396 18.7994 21.5789 18.6249C21.4183 18.4505 21.1979 18.3466 20.9641 18.3352C20.7269 18.334 20.4987 18.4279 20.3282 18.5968C20.1576 18.7657 20.0582 18.9963 20.0513 19.2393C20.041 19.7229 20.4513 20.154 20.9231 20.1645C21.3949 20.175 21.8154 19.765 21.8256 19.2709ZM11.3846 18.3457C10.9026 18.3457 10.4923 18.7557 10.4923 19.2498C10.482 19.744 10.9026 20.175 11.3846 20.175C11.8667 20.175 12.2667 19.7545 12.2667 19.2604C12.2677 19.1408 12.2457 19.0222 12.2019 18.9115C12.1581 18.8007 12.0933 18.6999 12.0114 18.6148C11.9294 18.5298 11.8318 18.4623 11.7242 18.4161C11.6167 18.3699 11.5012 18.346 11.3846 18.3457ZM33.7744 14.4242C33.7744 13.9301 33.3744 13.5096 32.8923 13.5096C32.4103 13.5096 32 13.9091 31.9897 14.4032C31.9795 14.8973 32.4 15.3284 32.882 15.3284C33.3641 15.3284 33.7744 14.9184 33.7744 14.4242ZM32.882 32.2443C33.3641 32.2443 33.7744 31.8343 33.7744 31.3401C33.7846 30.846 33.3641 30.415 32.882 30.415C32.4 30.415 32 30.8355 32 31.3296C31.9897 31.8237 32.4 32.2443 32.882 32.2443ZM11.3744 32.2443C11.8564 32.2443 12.2667 31.8343 12.2667 31.3401C12.2769 30.8565 11.8667 30.4255 11.3949 30.415C11.1573 30.4149 10.9292 30.511 10.7603 30.6822C10.5913 30.8534 10.495 31.0861 10.4923 31.3296C10.4923 31.8237 10.8923 32.2443 11.3744 32.2443ZM31.9897 12.0062C31.9897 12.5003 32.4 12.9103 32.882 12.9103C33.3641 12.9103 33.7744 12.4898 33.7744 11.9957C33.7744 11.491 33.3641 11.081 32.8718 11.081C32.3897 11.102 31.9897 11.5121 31.9897 12.0062ZM32.882 29.8367C33.3641 29.8367 33.7744 29.4267 33.7744 28.9326C33.7744 28.4385 33.3744 28.0179 32.8923 28.0179C32.4103 28.0074 31.9897 28.4385 31.9897 28.9326C32 29.4162 32.4 29.8262 32.882 29.8367ZM11.3949 29.8367C11.8769 29.8262 12.2769 29.4057 12.2769 28.9221C12.2769 28.4279 11.8667 28.0179 11.3846 28.0179C11.147 28.0207 10.9201 28.1194 10.753 28.2926C10.586 28.4658 10.4923 28.6995 10.4923 28.9431C10.5026 29.4267 10.9128 29.8367 11.3949 29.8367ZM9.87692 28.9326C9.87836 28.6922 9.78793 28.4608 9.62499 28.2879C9.46206 28.1149 9.23956 28.0143 9.00513 28.0074C8.76752 28.0074 8.53949 28.1034 8.37052 28.2747C8.20155 28.4459 8.10526 28.6785 8.10256 28.9221C8.10256 29.4162 8.50256 29.8367 8.98462 29.8367C9.46667 29.8367 9.87692 29.4267 9.87692 28.9326ZM11.3744 27.4187C11.8564 27.4187 12.2667 27.0087 12.2667 26.5145C12.2769 26.0309 11.8667 25.5999 11.3846 25.5894C11.147 25.5893 10.919 25.6854 10.75 25.8566C10.581 26.0278 10.4848 26.2605 10.4821 26.504C10.4923 26.9981 10.8923 27.4082 11.3744 27.4187ZM33.7744 24.086C33.7744 23.5918 33.3641 23.1818 32.882 23.1713C32.3897 23.1713 31.9795 23.5918 31.9897 24.0965C32 24.5906 32.4103 25.0006 32.882 25.0006C33.1171 24.9953 33.341 24.8972 33.5072 24.7268C33.6734 24.5564 33.7691 24.3269 33.7744 24.086ZM33.7744 21.6679C33.7744 21.1738 33.3641 20.7638 32.882 20.7638C32.6445 20.7665 32.4175 20.8652 32.2505 21.0384C32.0834 21.2116 31.9897 21.4454 31.9897 21.6889C32 22.1831 32.4103 22.5931 32.8923 22.5826C33.3744 22.572 33.7744 22.1515 33.7744 21.6679ZM31.3846 28.9221C31.3846 28.4279 30.9949 28.0074 30.5026 28.0074C30.0205 27.9969 29.6 28.4279 29.6 28.9221C29.6 29.4162 30.0103 29.8262 30.4923 29.8262C30.9744 29.8262 31.3846 29.4162 31.3846 28.9221ZM9.87692 16.8423C9.87692 16.3482 9.48718 15.9276 8.99487 15.9276C8.75726 15.9276 8.52923 16.0237 8.36026 16.1949C8.19129 16.3661 8.09501 16.5988 8.09231 16.8423C8.09231 17.3364 8.50256 17.7464 8.98462 17.7464C9.47692 17.7464 9.87692 17.3364 9.87692 16.8423ZM9.87692 19.2604C9.87692 18.7662 9.48718 18.3457 8.99487 18.3457C8.75726 18.3457 8.52923 18.4417 8.36026 18.6129C8.19129 18.7842 8.09501 19.0168 8.09231 19.2604C8.09231 19.7545 8.50256 20.1645 8.98462 20.175C9.47692 20.1645 9.87692 19.7545 9.87692 19.2604ZM31.3846 24.086C31.3846 23.5918 30.9846 23.1818 30.5026 23.1713C30.0205 23.1713 29.6 23.5918 29.6103 24.0965C29.6205 24.5906 30.0205 25.0006 30.5026 25.0006C30.9846 25.0006 31.3846 24.5801 31.3846 24.086ZM22.441 19.2498C22.441 19.744 22.841 20.154 23.3231 20.1645C23.8051 20.175 24.2154 19.7545 24.2256 19.2604C24.2359 18.7662 23.8154 18.3352 23.3333 18.3352C22.841 18.3457 22.441 18.7557 22.441 19.2498ZM10.4923 14.4137C10.4923 14.9079 10.8821 15.3284 11.3744 15.3389C11.8564 15.3494 12.2769 14.9184 12.2769 14.4242C12.2769 13.9301 11.8667 13.5201 11.3846 13.5201C11.2688 13.5187 11.1538 13.5407 11.0463 13.5849C10.9387 13.629 10.8407 13.6945 10.7579 13.7775C10.675 13.8604 10.6089 13.9593 10.5634 14.0685C10.5178 14.1777 10.4936 14.295 10.4923 14.4137ZM9.87692 24.0965C9.88022 23.8555 9.79041 23.623 9.62708 23.4497C9.46375 23.2763 9.24017 23.1763 9.00513 23.1713C8.7685 23.172 8.5413 23.2664 8.37114 23.435C8.20097 23.6035 8.10105 23.8331 8.09231 24.0754C8.09231 24.5696 8.49231 24.9901 8.97436 24.9901C9.46667 25.0006 9.87692 24.5906 9.87692 24.0965ZM32.8923 6.25541C32.4103 6.25541 32 6.65492 31.9897 7.14904C31.9795 7.64317 32.3897 8.07421 32.882 8.07421C33.3641 8.07421 33.7744 7.65368 33.7744 7.17007C33.7744 6.67594 33.3744 6.26592 32.8923 6.25541ZM31.3846 31.3296C31.3846 30.8355 30.9744 30.4255 30.4923 30.4255C30.0103 30.4255 29.6103 30.846 29.6 31.3401C29.6 31.8343 30.0205 32.2653 30.5026 32.2548C30.9949 32.2443 31.3846 31.8237 31.3846 31.3296ZM31.3846 19.2393C31.3846 18.7452 30.9744 18.3352 30.4923 18.3352C30.0103 18.3352 29.6103 18.7557 29.6103 19.2498C29.6103 19.744 30.0308 20.175 30.5128 20.1645C30.9949 20.154 31.3846 19.744 31.3846 19.2393ZM9.87692 14.4242C9.87692 13.9301 9.48718 13.5096 9.00513 13.5096C8.8872 13.5086 8.77025 13.5315 8.66098 13.577C8.55172 13.6225 8.4523 13.6897 8.36844 13.7747C8.28457 13.8597 8.21791 13.9608 8.17229 14.0723C8.12666 14.1837 8.10297 14.3034 8.10256 14.4242C8.10256 14.9184 8.51282 15.3284 8.99487 15.3389C9.46667 15.3389 9.87692 14.9184 9.87692 14.4242ZM31.3846 16.8318C31.3846 16.3377 30.9846 15.9276 30.4923 15.9276C30.0103 15.9276 29.6103 16.3377 29.6 16.8318C29.6 17.3259 30.0205 17.757 30.5026 17.7464C30.9846 17.7359 31.3846 17.3259 31.3846 16.8318ZM22.441 16.8318C22.441 17.3259 22.841 17.7464 23.3231 17.7464C23.8051 17.757 24.2256 17.3259 24.2256 16.8318C24.2256 16.3377 23.8154 15.9276 23.3333 15.9276C22.841 15.9276 22.441 16.3377 22.441 16.8318ZM13.7744 15.9276C13.2923 15.9276 12.8923 16.3377 12.8821 16.8318C12.8821 17.3364 13.2821 17.757 13.7744 17.757C14.2564 17.757 14.6564 17.3364 14.6564 16.8423C14.6564 16.3377 14.2564 15.9276 13.7744 15.9276ZM31.3846 9.57761C31.3846 9.08349 30.9744 8.67347 30.4923 8.67347C30.0103 8.67347 29.6103 9.08349 29.6 9.57761C29.6 10.0717 30.0205 10.5028 30.5026 10.4923C30.9949 10.4818 31.3846 10.0717 31.3846 9.57761ZM19.4359 24.086C19.4359 23.5918 19.0359 23.1818 18.5538 23.1713C18.0718 23.1713 17.6718 23.5708 17.6615 24.0754C17.6513 24.5801 18.0615 25.0006 18.5538 25.0006C19.0359 24.9901 19.4359 24.5801 19.4359 24.086ZM19.4359 21.6679C19.4359 21.1633 19.0462 20.7532 18.5538 20.7532C18.0615 20.7532 17.6513 21.1738 17.6615 21.6679C17.6615 22.162 18.0718 22.572 18.5538 22.572C19.0359 22.5826 19.4359 22.1725 19.4359 21.6679ZM13.7641 18.3457C13.2821 18.3457 12.8821 18.7557 12.8821 19.2604C12.8821 19.7545 13.2718 20.1645 13.7641 20.175C14.2462 20.1855 14.6667 19.7545 14.6564 19.2498C14.6564 18.7452 14.2462 18.3352 13.7641 18.3457ZM5.72308 9.57761C5.7224 9.69635 5.74455 9.81405 5.78826 9.92401C5.83196 10.034 5.89637 10.134 5.9778 10.2185C6.05923 10.3029 6.15609 10.3701 6.26284 10.4162C6.3696 10.4623 6.48417 10.4863 6.6 10.487C6.71583 10.4877 6.83066 10.465 6.93794 10.4202C7.04521 10.3754 7.14282 10.3094 7.22521 10.2259C7.30759 10.1424 7.37313 10.0432 7.41807 9.93373C7.46302 9.82429 7.48651 9.70686 7.48718 9.58813C7.48718 9.07297 7.09744 8.66295 6.60513 8.66295C6.11282 8.67347 5.72308 9.08349 5.72308 9.57761ZM3.33333 7.15955C3.33333 7.66419 3.71282 8.0637 4.20513 8.07421C4.68718 8.08472 5.08718 7.67471 5.09744 7.18058C5.10045 7.06001 5.07985 6.94005 5.03685 6.82779C4.99385 6.71552 4.92933 6.61324 4.84709 6.52698C4.76485 6.44073 4.66658 6.37225 4.55807 6.3256C4.44957 6.27896 4.33304 6.25509 4.21538 6.25541C3.73333 6.25541 3.33333 6.66543 3.33333 7.15955ZM28.9846 11.9957C28.9846 11.491 28.5949 11.0915 28.1026 11.0915C27.8686 11.0915 27.6443 11.1868 27.4789 11.3563C27.3134 11.5259 27.2205 11.7559 27.2205 11.9957C27.2205 12.5003 27.6205 12.9208 28.1128 12.9103C28.5949 12.9103 28.9949 12.5003 28.9846 11.9957ZM5.09744 9.58813C5.09879 9.46939 5.07731 9.35154 5.03423 9.24131C4.99115 9.13109 4.92731 9.03064 4.84636 8.9457C4.7654 8.86077 4.66892 8.79301 4.56242 8.7463C4.45591 8.69959 4.34148 8.67484 4.22564 8.67347C4.10959 8.67124 3.99426 8.69267 3.88636 8.73653C3.77846 8.78039 3.68014 8.84579 3.59711 8.92894C3.51409 9.01209 3.44801 9.11132 3.40273 9.22088C3.35745 9.33043 3.33386 9.44812 3.33333 9.5671C3.32308 10.0823 3.72308 10.4923 4.21538 10.4923C4.69744 10.5028 5.09744 10.0928 5.09744 9.58813ZM7.48718 21.6679C7.48718 21.1738 7.08718 20.7638 6.60513 20.7638C6.12308 20.7638 5.72308 21.1738 5.72308 21.6679C5.72308 22.1725 6.13333 22.5931 6.61538 22.5826C7.10769 22.572 7.48718 22.162 7.48718 21.6679ZM26.5949 21.6679C26.5949 21.1633 26.2051 20.7532 25.7128 20.7532C25.2308 20.7532 24.8308 21.1528 24.8205 21.6574C24.8198 21.7768 24.8421 21.8952 24.8861 22.0058C24.93 22.1164 24.9948 22.217 25.0767 22.302C25.1586 22.3869 25.2561 22.4545 25.3634 22.5008C25.4708 22.5471 25.5861 22.5714 25.7026 22.572C25.8191 22.5727 25.9346 22.5499 26.0425 22.5048C26.1504 22.4598 26.2485 22.3934 26.3314 22.3094C26.4143 22.2254 26.4802 22.1256 26.5254 22.0155C26.5706 21.9054 26.5942 21.7873 26.5949 21.6679ZM5.09744 21.6679C5.09744 21.4281 5.00451 21.1981 4.83909 21.0286C4.67367 20.859 4.44932 20.7638 4.21538 20.7638C3.72308 20.7638 3.33333 21.1843 3.33333 21.6889C3.33333 22.1831 3.74359 22.5931 4.22564 22.5826C4.70769 22.572 5.09744 22.162 5.09744 21.6679ZM28.9846 19.2604C28.986 19.1416 28.9645 19.0238 28.9214 18.9135C28.8783 18.8033 28.8145 18.7029 28.7335 18.6179C28.6526 18.533 28.5561 18.4652 28.4496 18.4185C28.3431 18.3718 28.2287 18.3471 28.1128 18.3457C27.9956 18.3457 27.8796 18.3694 27.7713 18.4153C27.6631 18.4613 27.5647 18.5287 27.4819 18.6136C27.399 18.6985 27.3333 18.7994 27.2884 18.9103C27.2436 19.0213 27.2205 19.1402 27.2205 19.2604C27.2205 19.7545 27.6205 20.1645 28.1026 20.1645C28.5949 20.1645 28.9846 19.7545 28.9846 19.2604ZM7.48718 11.9957C7.48718 11.491 7.09744 11.0915 6.60513 11.0915C6.11282 11.0915 5.71282 11.5015 5.72308 12.0167C5.73333 12.5108 6.13333 12.9208 6.61538 12.9208C7.09744 12.9103 7.48718 12.5003 7.48718 11.9957ZM28.9846 26.5145C28.9846 26.0099 28.6051 25.5999 28.1128 25.5894C27.9954 25.5885 27.879 25.6116 27.7704 25.6573C27.6618 25.7029 27.5631 25.7703 27.48 25.8554C27.397 25.9405 27.3313 26.0417 27.2868 26.153C27.2422 26.2644 27.2197 26.3837 27.2205 26.504C27.2205 27.0087 27.6205 27.4082 28.1026 27.4187C28.5846 27.4187 28.9846 27.0087 28.9846 26.5145ZM3.33333 19.2604C3.33333 19.7545 3.74359 20.1645 4.22564 20.1645C4.70769 20.1645 5.10769 19.7545 5.10769 19.2498C5.10769 18.7452 4.71795 18.3457 4.22564 18.3352C3.72308 18.3352 3.33333 18.7557 3.33333 19.2604ZM26.5949 16.8318C26.5949 16.3271 26.2051 15.9276 25.7128 15.9171C25.2205 15.9171 24.8205 16.3271 24.8205 16.8423C24.8205 17.3364 25.2205 17.7464 25.7128 17.7464C26.2051 17.7464 26.5949 17.3364 26.5949 16.8318ZM7.48718 16.8318C7.48718 16.3271 7.09744 15.9276 6.60513 15.9276C6.37119 15.9276 6.14684 16.0229 5.98142 16.1925C5.81601 16.362 5.72308 16.592 5.72308 16.8318C5.72308 17.3364 6.12308 17.757 6.61538 17.757C7.09744 17.7464 7.48718 17.3364 7.48718 16.8318ZM7.48718 31.3296C7.48718 30.8355 7.08718 30.4255 6.60513 30.4255C6.12308 30.4255 5.72308 30.8355 5.72308 31.3401C5.72308 31.8448 6.11282 32.2548 6.59487 32.2548C7.08718 32.2548 7.48718 31.8343 7.48718 31.3296ZM24.8308 14.3927C24.8205 14.9079 25.2103 15.3179 25.7026 15.3284C25.9312 15.3219 26.1485 15.2254 26.3094 15.0588C26.4703 14.8922 26.5623 14.6684 26.5662 14.4341C26.5702 14.1997 26.4858 13.9728 26.3307 13.8006C26.1755 13.6284 25.9616 13.5241 25.7333 13.5096C25.4999 13.5059 25.2744 13.5964 25.1056 13.7616C24.9367 13.9269 24.838 14.1535 24.8308 14.3927ZM5.09744 24.086C5.09744 23.5813 4.69744 23.1818 4.21538 23.1713C3.72308 23.1713 3.32308 23.5813 3.33333 24.0965C3.33333 24.5906 3.74359 25.0006 4.22564 25.0006C4.70769 24.9901 5.09744 24.5801 5.09744 24.086ZM28.9846 24.0965C28.9846 23.5918 28.6051 23.1818 28.1128 23.1818C27.9954 23.181 27.879 23.2041 27.7704 23.2497C27.6618 23.2954 27.5631 23.3627 27.48 23.4478C27.397 23.5329 27.3313 23.6341 27.2868 23.7455C27.2422 23.8568 27.2197 23.9761 27.2205 24.0965C27.2205 24.6011 27.6205 25.0006 28.1026 25.0111C28.5846 25.0006 28.9846 24.5906 28.9846 24.0965ZM7.48718 26.5145C7.48853 26.3958 7.46706 26.2779 7.42398 26.1677C7.3809 26.0575 7.31706 25.957 7.2361 25.8721C7.15515 25.7872 7.05866 25.7194 6.95216 25.6727C6.84566 25.626 6.73122 25.6012 6.61538 25.5999C6.49798 25.599 6.38158 25.6221 6.27295 25.6678C6.16432 25.7135 6.06563 25.7808 5.9826 25.8659C5.89958 25.951 5.83389 26.0522 5.78933 26.1635C5.74478 26.2749 5.72226 26.3942 5.72308 26.5145C5.72308 27.0192 6.12308 27.4187 6.60513 27.4292C7.08718 27.4187 7.48718 27.0087 7.48718 26.5145ZM26.5949 26.504C26.5949 25.9994 26.1949 25.5999 25.7128 25.5894C25.2205 25.5894 24.8205 25.9994 24.8308 26.5145C24.8308 27.0087 25.241 27.4187 25.7231 27.4187C26.2051 27.4082 26.6051 26.9981 26.5949 26.504ZM27.2205 31.3401C27.2205 31.8448 27.6205 32.2443 28.1026 32.2548C28.5949 32.2548 28.9949 31.8448 28.9846 31.3296C28.9846 30.8355 28.5744 30.4255 28.0923 30.4255C27.9765 30.4268 27.862 30.4516 27.7555 30.4983C27.649 30.545 27.5525 30.6128 27.4716 30.6977C27.3906 30.7826 27.3268 30.8831 27.2837 30.9933C27.2406 31.1035 27.2192 31.2214 27.2205 31.3401ZM17.0462 19.2393C17.0462 18.7452 16.6462 18.3352 16.1538 18.3352C15.6718 18.3352 15.2718 18.7452 15.2718 19.2498C15.2718 19.7545 15.6615 20.154 16.1538 20.1645C16.6462 20.1645 17.0462 19.7545 17.0462 19.2393ZM5.09744 28.9221C5.10016 28.6823 5.00983 28.4512 4.84634 28.2797C4.68285 28.1081 4.45958 28.0102 4.22564 28.0074C3.99171 28.0046 3.76627 28.0972 3.59893 28.2648C3.43159 28.4324 3.33605 28.6613 3.33333 28.901C3.33333 29.4162 3.72308 29.8262 4.21538 29.8262C4.69744 29.8367 5.09744 29.4267 5.09744 28.9221ZM5.09744 14.4137C5.09744 14.1739 5.00451 13.944 4.83909 13.7744C4.67367 13.6048 4.44932 13.5096 4.21538 13.5096C3.72308 13.5096 3.33333 13.9301 3.33333 14.4348C3.34359 14.9289 3.74359 15.3389 4.22564 15.3284C4.71795 15.3179 5.09744 14.9079 5.09744 14.4137ZM28.9846 14.4137C28.9846 13.9091 28.5949 13.5096 28.1026 13.4991C27.6205 13.4991 27.2205 13.8986 27.2103 14.4032C27.2103 14.9079 27.6103 15.3284 28.1026 15.3284C28.5949 15.3284 28.9846 14.9184 28.9846 14.4137ZM5.72308 28.9326C5.72308 29.4267 6.13333 29.8367 6.61538 29.8367C7.10769 29.8367 7.49744 29.4162 7.49744 28.901C7.49542 28.7816 7.47047 28.6638 7.42402 28.5542C7.37756 28.4447 7.31052 28.3456 7.22671 28.2626C7.1429 28.1796 7.04396 28.1144 6.93555 28.0706C6.82714 28.0268 6.71138 28.0053 6.59487 28.0074C6.47836 28.0095 6.3634 28.0351 6.25653 28.0827C6.14967 28.1303 6.053 28.199 5.97205 28.2849C5.89109 28.3708 5.82744 28.4722 5.78472 28.5834C5.742 28.6945 5.72106 28.8132 5.72308 28.9326ZM17.0462 21.6574C17.0462 21.4176 16.9532 21.1876 16.7878 21.0181C16.6224 20.8485 16.398 20.7532 16.1641 20.7532C15.6821 20.7532 15.2821 21.1633 15.2821 21.6574C15.2821 22.162 15.6923 22.5826 16.1744 22.572C16.6564 22.572 17.0462 22.162 17.0462 21.6574ZM24.8308 28.9221C24.8308 29.4162 25.2308 29.8262 25.7128 29.8262C26.1949 29.8262 26.5949 29.4162 26.5949 28.9221C26.5949 28.4174 26.1949 27.9969 25.7026 28.0074C25.2205 28.0179 24.8308 28.4174 24.8308 28.9221Z" fill="#3A3A3A"/>
<path d="M60.7385 33.979H56.2359V19.5863C56.1334 19.6389 56.0616 19.6599 56 19.6915C54.5744 20.4694 53.4462 21.5944 52.5641 22.9611C52.041 23.7706 51.6 24.6432 51.1385 25.4948C51.0769 25.6104 51.0154 25.6735 50.8718 25.663C50.5128 25.6525 50.1641 25.6525 49.8051 25.663C49.6616 25.663 49.6 25.6104 49.5487 25.4948C49.0154 24.3068 48.3795 23.1924 47.5692 22.1831C46.759 21.1633 45.8051 20.3223 44.6667 19.702C44.6154 19.6704 44.5539 19.6494 44.4616 19.6074V34.0001H39.9385V13.762C44.2564 13.8671 47.7026 15.6754 50.3385 19.1553C52.9641 15.6859 56.4103 13.8671 60.7282 13.762C60.7385 20.501 60.7385 27.2295 60.7385 33.979Z" fill="#3A3A3A"/>
<path d="M87.5182 22.4774C87.5592 22.4248 87.6105 22.3723 87.6515 22.3092C89.7233 19.4916 91.7951 16.6636 93.8567 13.8355C93.949 13.7093 94.0515 13.6568 94.2054 13.6568C95.8567 13.6673 97.5079 13.6568 99.1592 13.6568H99.4156C96.9131 16.8107 94.4413 19.9122 91.9592 23.0346C94.6362 26.6722 97.3028 30.3098 100 33.9684C99.9079 33.979 99.8464 33.979 99.7849 33.979H94.4721C94.3285 33.979 94.2464 33.9264 94.1541 33.8107C91.99 30.7198 89.8259 27.6184 87.6515 24.5275C87.6105 24.459 87.5543 24.4014 87.4874 24.3593V33.9579H82.9644C82.9644 33.8948 82.9541 33.8213 82.9541 33.7582V13.8775C82.9541 13.6883 83.0054 13.6462 83.1797 13.6462C84.5336 13.6568 85.8874 13.6568 87.2413 13.6462C87.4362 13.6462 87.4874 13.6988 87.4874 13.8986C87.4772 16.6741 87.4874 19.4391 87.4874 22.2146V22.4459C87.4874 22.4669 87.4977 22.4669 87.5182 22.4774Z" fill="#3A3A3A"/>
<path d="M81.0261 33.9895H75.4979C75.3338 33.9895 75.2415 33.9369 75.1492 33.8107C72.9851 30.7093 70.8108 27.6079 68.6364 24.517L68.4825 24.3172V33.979H63.9697V13.6778H68.462V22.4564C68.4723 22.4669 68.4928 22.4774 68.5031 22.4774C68.5441 22.4248 68.5954 22.3723 68.6364 22.3092C70.6979 19.4916 72.7697 16.6741 74.8313 13.8565C74.9338 13.7093 75.0466 13.6462 75.2313 13.6462C76.862 13.6568 78.4928 13.6462 80.1236 13.6462H80.4108C77.9082 16.8002 75.4364 19.9017 72.9543 23.0241C75.6518 26.6827 78.3287 30.3098 81.0261 33.9895Z" fill="#3A3A3A"/>
</svg>
