<svg width="100" height="39" viewBox="0 0 100 39" fill="none" xmlns="http://www.w3.org/2000/svg">
<path d="M19.2301 20.9462V10.1078C19.2301 8.99697 19.7121 7.68596 21.5903 7.68596C23.4684 7.68596 23.9505 9.33723 23.9505 10.1078V20.9462H29.0425V10.2379C29.0425 8.08627 27.6465 3.79297 22.1427 3.79297C17.9746 3.79297 16.438 6.77526 16.438 6.77526C16.438 6.77526 14.9214 3.79297 10.7433 3.79297C5.23951 3.79297 3.85352 8.08627 3.85352 10.2379V20.9462H8.93551V10.1078C8.93551 9.33723 9.42764 7.68596 11.2957 7.68596C13.1839 7.68596 13.666 8.99697 13.666 10.1078V20.9462H19.2301Z" fill="#0F524D"/>
<path d="M32.126 18.2839C32.9696 19.3668 34.0509 20.2429 35.287 20.8448C36.523 21.4468 37.881 21.7587 39.2568 21.7566C42.1594 21.7566 44.7406 20.4056 46.3977 18.2839H32.126Z" fill="#0F524D"/>
<path d="M40.4624 16.5828C39.2873 16.5828 38.1223 15.502 40.7336 14.4311C41.7078 14.0208 43.7466 12.6798 44.2287 10.9685C44.7208 14.8214 42.7623 16.5828 40.4624 16.5828ZM47.1011 17.2433C47.8982 15.8722 48.3142 14.3143 48.3063 12.7298C48.3063 8.17633 44.9016 4.41344 40.5026 3.80297C41.537 4.39342 43.5658 6.14477 43.5658 9.14708C43.5658 13.7006 37.9314 13.3703 37.9314 15.8022C37.9314 16.883 38.8956 17.2533 39.2572 17.2533L47.1011 17.2433ZM37.5196 17.2533C35.9027 16.6829 34.4363 15.0716 34.4363 12.6798C34.4363 8.15632 40.4322 7.69596 40.4322 5.25408C40.4322 4.35339 39.4681 3.86301 38.6244 3.74292C33.9241 4.07317 30.208 7.96617 30.208 12.7298C30.208 14.3811 30.6499 15.9223 31.4132 17.2433L37.5196 17.2533Z" fill="#0F524D"/>
<path d="M54.4734 0V20.9461H49.3613V0H54.4734Z" fill="#0F524D"/>
<path d="M64.5967 8.58662V4.47345H61.202V0.0600586H56.3008V15.7521C56.3008 16.9531 56.9737 19.1247 58.3798 20.0154C59.7959 20.8961 60.9911 21.1563 64.5967 21.1563V16.7429C63.3915 17.0031 61.202 17.0631 61.202 14.7714V8.58662H64.5967Z" fill="#0F524D"/>
<path d="M69.7488 10.498C70.2209 8.14622 71.5567 7.01535 73.7763 7.01535C76.5884 7.01535 77.5827 9.35715 77.5827 10.498H69.7488ZM82.5944 10.9684C82.2228 7.17548 78.6373 3.33252 73.7763 3.33252C68.9253 3.33252 64.707 7.12544 64.707 12.8398C64.707 15.0215 66.1533 21.4665 73.4649 21.4665C80.7665 21.4665 82.3936 16.6928 82.3936 15.5919H77.422C77.3216 15.9022 76.7592 17.8337 73.5654 17.8337C71.1248 17.8337 69.8292 16.7929 69.5882 13.8306H82.6447C82.6447 12.9499 82.6949 12.1693 82.5944 10.9684Z" fill="#0F524D"/>
<path d="M91.2714 7.38565C93.3605 7.38565 93.7622 9.4072 93.7622 9.9276V20.9461H98.7639V10.5581C98.7639 8.83676 98.0106 3.38257 91.2714 3.38257C84.5423 3.38257 83.7891 8.83676 83.7891 10.5581V20.9461H88.8108V9.9276C88.8108 9.4072 89.1924 7.38565 91.2714 7.38565Z" fill="#0F524D"/>
<path d="M34.4362 32.6352C36.5353 31.8746 37.1881 30.7138 37.2283 30.0733C37.2383 29.9632 37.2584 29.9031 37.0676 29.9031C36.7864 29.9031 36.2239 30.1033 35.8825 30.3635C35.2095 30.8439 34.5567 31.7345 34.4362 32.6352ZM39.8998 31.6345C39.5684 32.8454 36.6859 34.947 33.9642 34.947C33.5022 34.947 33.1808 34.6968 33.1908 33.9562C33.1908 33.7461 33.2109 33.5159 33.2712 33.2857C32.0459 33.9562 30.1175 34.8269 29.6455 34.8269C29.545 34.8269 29.3643 34.7368 29.3743 34.3966C29.3843 33.676 29.8363 32.5151 30.5996 31.1541C30.8005 30.7938 30.8406 30.7138 30.8406 30.6137C30.8406 30.5436 30.8005 30.4135 30.6398 30.4135C29.9568 30.4135 27.7071 32.4351 26.2407 34.927L26.2006 34.957L26.0499 34.987C25.9394 35.0071 25.849 34.897 25.8591 34.6168C25.8591 34.0463 26.2508 32.9154 26.773 31.8346C25.6582 32.5752 21.7814 35.0471 21.209 35.0471C21.0382 35.0471 20.978 34.897 20.988 34.6068C21.0784 33.6961 21.8718 32.1649 22.7255 30.7738C22.2033 30.8939 21.7212 31.004 21.3797 31.1241C21.2893 31.1541 21.2893 31.1141 21.3194 31.074C21.3998 30.9539 21.6207 30.6637 21.7011 30.5837L21.8317 30.4836C22.143 30.3935 22.595 30.2934 23.077 30.2134C23.8404 29.0124 24.5836 28.0217 24.8045 27.8716C25.0054 27.7415 25.2565 27.6914 25.9796 27.6714L26.0097 27.7215C25.8089 27.9416 25.136 28.9024 24.4128 29.9932C25.0657 29.9231 25.6281 29.8531 25.839 29.8531C25.9796 29.8431 26.0298 29.8931 26.0097 29.9432L25.829 30.1533L25.6883 30.2234C25.4573 30.2534 24.8246 30.3535 24.1015 30.4836C23.4487 31.5144 22.8159 32.5752 22.5749 33.1556C22.4945 33.3458 22.5247 33.4158 22.7456 33.3258C23.75 32.9655 26.1001 31.8947 26.9237 31.5344C28.4001 28.7422 30.3987 26.2503 31.0716 25.77C31.4633 25.4997 31.8349 25.4597 32.3472 25.4397L32.3672 25.4897C31.162 26.8208 29.0931 29.6129 27.9381 32.0148C30.0472 30.0532 31.5136 29.4328 32.4175 29.4628C32.5681 29.4628 32.6485 29.5629 32.548 29.733C32.0358 30.6537 31.2323 32.1849 30.8005 33.4258C30.7503 33.5559 30.7402 33.636 30.921 33.606C31.5839 33.4559 32.5982 33.1656 33.3816 32.8854C33.6528 32.0748 34.2052 31.2542 34.9283 30.6337C35.7921 29.8931 37.4292 29.2726 38.3933 29.3327L38.544 29.4628C38.5842 29.5929 38.5842 29.713 38.544 29.8731C38.1824 31.044 36.6357 32.1248 34.4362 33.1256C34.4764 33.7661 34.627 33.9362 35.0187 33.9362C36.6558 33.9362 39.3675 32.4651 39.7693 31.5444C39.8195 31.4443 39.9501 31.4743 39.8998 31.6345ZM12.6017 26.2103C9.7996 26.2103 5.37043 26.5606 4.88834 26.6106L4.67743 26.7007C4.44643 26.8908 3.76348 27.6314 3.66304 27.7815C3.63291 27.8315 3.57265 27.9116 3.76348 27.8916C3.76348 27.8916 5.50099 27.5613 5.63156 27.5413C3.48226 29.5929 1.88535 32.0148 0.037352 35.9278C-0.0329522 36.0779 -0.00282179 36.1079 0.1177 36.0979C0.539525 36.0078 1.30283 35.8477 1.77487 35.6976C2.40761 34.2865 3.2613 32.6853 4.21543 31.1841C5.43069 30.8539 6.81669 30.5536 7.98173 30.4636L8.10225 30.3835L8.44373 30.0132C8.53412 29.9031 8.47386 29.8831 8.10225 29.8931C7.30882 29.9031 6.05338 29.9932 4.86826 30.1833C5.63156 29.0525 6.43504 28.0417 7.21843 27.2811C9.09655 27.081 10.7336 26.8908 12.3506 26.7507L12.5214 26.7007L12.8327 26.3704C12.9432 26.2503 12.8829 26.2103 12.6017 26.2103ZM58.4401 30.2534C57.6366 29.9231 55.9493 30.1233 54.8345 31.2942C53.9004 32.325 53.8904 33.2257 54.262 33.3758C54.3624 33.4158 54.4227 33.3958 54.493 33.3358C55.3668 32.7153 57.4558 31.054 58.4401 30.2534ZM48.477 32.6352C50.576 31.8746 51.2289 30.7138 51.2791 30.0733C51.2891 29.9632 51.2992 29.9031 51.1083 29.9031C50.8372 29.9031 50.2747 30.1033 49.9132 30.3635C49.2603 30.8439 48.5975 31.7345 48.477 32.6352ZM62.0356 33.0556C61.9452 33.2957 62.0256 33.3858 62.1461 33.3358C63.1203 32.9455 65.129 32.0648 65.5609 31.8546C65.7216 31.7946 65.7216 31.9147 65.591 32.0148C64.657 32.6552 61.3728 34.907 60.6798 34.907C60.499 34.907 60.4186 34.7969 60.4186 34.5867C60.4186 34.1864 60.6496 33.2357 61.1418 32.1949C60.0069 33.0055 57.0942 34.8669 56.7026 34.8669C56.4012 34.8669 56.3912 34.6568 56.3912 34.4466C56.4012 33.7561 56.7929 32.7954 57.6165 31.3843C56.2707 32.5752 53.5991 34.897 52.876 34.897C52.6149 34.897 52.4542 34.6568 52.4542 34.2865C52.4542 33.9362 52.5646 33.4959 52.7756 33.0355C51.5603 33.9562 49.6822 34.947 48.0049 34.947C47.5429 34.947 47.2215 34.6968 47.2316 33.9562C47.2416 32.8454 47.9346 31.5444 48.9791 30.6337C49.8429 29.8931 51.4699 29.2726 52.4542 29.3327L52.5747 29.4628C52.6149 29.5929 52.6149 29.713 52.5747 29.8731C52.2232 31.044 50.6865 32.1248 48.487 33.1256C48.5272 33.7661 48.6678 33.9362 49.0595 33.9362C50.114 33.9362 52.1127 32.9755 53.2376 32.275C53.3782 32.0748 53.5489 31.8746 53.7196 31.6845C55.2965 29.9932 57.5562 29.1726 59.9968 29.4328L60.0269 29.5128C59.4444 30.3635 58.4401 31.9847 58.0283 33.1556C57.9781 33.2957 57.9781 33.3458 58.1187 33.2957C58.9121 32.9655 60.6597 32.2049 61.2824 31.9147L61.3125 31.8546C62.2566 30.0532 63.5522 27.8315 65.3801 25.9701C65.7316 25.6198 66.1535 25.5098 66.8866 25.4397L66.9268 25.4997C66.0631 26.5405 63.3714 29.773 62.0356 33.0556ZM94.5162 32.6352C96.6052 31.8746 97.2681 30.7138 97.3183 30.0733C97.3183 29.9632 97.3384 29.9031 97.1576 29.9031C96.8563 29.9031 96.314 30.1033 95.9624 30.3635C95.2795 30.8439 94.6267 31.7345 94.5162 32.6352ZM80.4955 30.2534C79.7021 29.9231 78.0047 30.1233 76.9 31.2942C75.9559 32.325 75.9458 33.2257 76.3174 33.3758C76.4279 33.4158 76.4982 33.3958 76.5585 33.3358C77.4222 32.7153 79.5012 31.054 80.4955 30.2534ZM73.1337 30.2234C73.0533 30.1833 72.8625 30.1033 72.5511 30.1033C71.5568 30.0933 70.4521 30.5536 69.7791 31.2442C69.287 31.7145 68.9556 32.4351 68.9455 32.9955C68.9455 33.1756 69.0058 33.4058 69.1765 33.4058C69.5481 33.4058 72.28 31.014 73.1337 30.2234ZM70.6127 34.5767C69.749 35.1972 68.6543 36.0378 68.5639 37.4189C68.5538 37.7392 68.6442 37.8593 68.8451 37.8593C68.9857 37.8593 69.1062 37.7892 69.287 37.489C69.5281 37.0586 70.3918 35.2172 70.6127 34.5767ZM99.9899 31.6345C99.6484 32.8454 96.7659 34.947 94.0542 34.947C93.5922 34.947 93.2507 34.6968 93.2708 33.9562C93.2708 33.7261 93.3009 33.5059 93.3511 33.2657C92.1459 33.9362 90.2075 34.8269 89.7254 34.8269C89.5648 34.8269 89.4041 34.7469 89.4041 34.4166C89.4041 33.4859 90.5591 31.3743 90.78 30.9539C90.9005 30.7338 90.9307 30.6437 90.9307 30.5937C90.9307 30.4836 90.8604 30.4335 90.7398 30.4335C90.5992 30.4335 90.2678 30.5736 90.0468 30.7138C88.691 31.6044 87.4757 32.9355 86.3609 34.7368C86.3408 34.7769 86.2805 34.7969 86.1902 34.8269H86.1299C85.9692 34.8669 85.8788 34.6568 85.8788 34.4466C85.8788 33.7561 86.5115 32.1549 87.2749 30.9239C87.4054 30.7138 87.4355 30.6537 87.4355 30.5837C87.4355 30.5036 87.3853 30.4335 87.2447 30.4335C86.9635 30.4335 86.2303 30.9239 85.6277 31.3943C85.226 31.7345 83.9103 32.9054 82.8557 34.6968C82.8156 34.7769 82.7754 34.7969 82.6649 34.8269H82.6147C82.5243 34.8669 82.3837 34.7769 82.3837 34.4666C82.3837 33.9362 82.6649 33.1256 83.0566 32.295C81.8413 33.1556 79.1396 34.8669 78.768 34.8669C78.4466 34.8669 78.4466 34.6568 78.4466 34.4466C78.4567 33.7561 78.8484 32.7954 79.682 31.3843C78.3362 32.5752 75.6646 34.897 74.9415 34.897C74.6603 34.897 74.4996 34.6568 74.4996 34.2865C74.4996 33.606 74.9515 32.6452 75.6244 31.8546C74.8913 32.2649 73.3847 33.0956 72.0891 33.8462C71.125 35.6576 70.3516 36.9686 69.1966 38.0394C68.5639 38.6198 67.9713 39.0001 67.6399 39.0001C67.439 39.0001 67.1879 38.83 67.1879 38.3496C67.2482 36.4782 69.9298 34.4766 70.9542 33.8061C71.3158 33.0856 71.7577 32.2249 72.0791 31.6345C71.4363 32.1649 68.7949 34.3265 68.7949 34.3265C68.3028 34.7168 67.9512 34.897 67.66 34.897C67.3085 34.897 67.2482 34.5567 67.2482 34.3365C67.2482 33.4058 68.0918 32.0148 69.2569 31.074C71.2053 29.4628 73.9572 29.4328 74.7507 29.4628L74.7808 29.5128C73.686 30.8839 72.5009 33.0656 72.4808 33.1156C73.5153 32.5251 75.5039 31.6645 76.0262 31.4443C77.5829 29.9231 79.7322 29.1926 82.0422 29.4328L82.0824 29.5128C81.5099 30.3635 80.4955 31.9847 80.0837 33.1556C80.0335 33.2957 80.0335 33.3458 80.1842 33.2957C80.9274 32.9855 82.5042 32.295 83.2173 31.9747C83.6592 31.1041 84.2015 30.2834 84.6133 29.9031C84.9347 29.6229 85.6277 29.6329 85.8185 29.6529L85.8587 29.723C85.2963 30.5536 84.8946 31.094 84.4125 32.1048C86.2504 30.4636 87.7369 29.3627 89.0023 29.5429C89.1932 29.5729 89.1831 29.693 89.1228 29.8131C88.8316 30.3335 88.1486 31.5344 87.8473 32.1849C89.3338 30.7438 91.2119 29.4128 92.4573 29.4628C92.6079 29.4728 92.7285 29.5629 92.628 29.723C92.1359 30.6137 91.2521 32.345 90.8804 33.4258C90.8302 33.5559 90.8202 33.636 91.001 33.596C91.6438 33.4559 92.7284 33.1256 93.4717 32.8754C93.7328 32.0648 94.2852 31.2542 95.0083 30.6337C95.872 29.8931 97.5192 29.2726 98.4733 29.3327L98.6139 29.4628C98.6541 29.5929 98.6541 29.713 98.624 29.8731C98.2624 31.044 96.7257 32.1248 94.5162 33.1256C94.5664 33.7661 94.697 33.9362 95.0887 33.9362C96.7358 33.9362 99.4475 32.4651 99.8493 31.5444C99.8894 31.4443 100.04 31.4743 99.9899 31.6345ZM12.2502 30.5837C12.2502 30.2534 12.0092 30.0733 11.6275 30.0733C11.3865 30.0733 11.0952 30.1433 10.7738 30.3034C9.65899 30.8238 8.83542 31.9147 8.83542 32.8154C8.83542 33.2557 8.97603 33.5359 9.04634 33.636C9.1769 33.7761 9.24721 33.7261 9.42799 33.696C9.85986 33.576 10.5328 33.1256 11.0751 32.5552C11.7882 31.7946 12.2502 31.044 12.2502 30.5837ZM11.1655 33.2457C10.2214 34.2865 9.05638 34.937 8.47386 34.927C7.81099 34.907 7.66034 34.2365 7.68043 33.7661C7.70051 32.345 9.01621 30.6137 10.7738 29.773C11.4065 29.4828 11.8987 29.3727 12.4511 29.4027C12.5515 29.4027 12.6319 29.4728 12.6821 29.5228C13.1039 29.9231 13.4353 30.7638 11.1655 33.2457ZM45.0722 29.713L45.0321 29.6529C44.1482 29.6529 43.8771 29.773 43.3548 30.4836C42.5011 31.6445 41.5068 33.9562 41.4867 34.6968C41.4767 34.987 41.5771 35.1071 41.6775 35.0771L41.8784 35.0471L41.9186 34.9971C43.5155 32.2649 45.3233 30.7037 47.5329 30.4135L47.5831 30.3935C47.7739 30.1233 48.0652 29.8031 48.2962 29.5729L48.266 29.5028C48.1957 29.5028 48.0853 29.4828 47.9848 29.4828C47.4726 29.4428 46.9102 29.6529 46.4884 29.8831C45.7451 30.3134 44.6404 31.094 43.7666 31.9147C43.9373 31.5344 44.1884 31.044 44.4897 30.5436C44.7006 30.2234 44.9919 29.8331 45.0722 29.713ZM15.8056 30.5436C15.4842 31.044 15.2532 31.5344 15.0624 31.9147C15.9361 31.094 17.051 30.3134 17.7942 29.8831C18.2261 29.6529 18.7784 29.4428 19.2907 29.4828C19.3911 29.4828 19.5016 29.5028 19.5719 29.5028L19.5819 29.5729C19.361 29.8031 19.0798 30.1233 18.8789 30.3935L18.8488 30.4135C16.6291 30.7037 14.8113 32.2649 13.2144 34.9971L13.1842 35.0471L12.9834 35.0771C12.8729 35.1071 12.7825 34.987 12.7825 34.6968C12.8126 33.9562 13.8069 31.6445 14.6606 30.4836C15.1829 29.773 15.444 29.6529 16.3379 29.6529L16.3781 29.713C16.2877 29.8331 15.9964 30.2234 15.8056 30.5436Z" fill="#0F524D"/>
</svg>
