<svg width="100" height="40" viewBox="0 0 100 40" fill="none" xmlns="http://www.w3.org/2000/svg">
<g clip-path="url(#clip0_1751_1660)">
<path d="M19.2301 21.4462V10.6078C19.2301 9.49697 19.7121 8.18596 21.5903 8.18596C23.4684 8.18596 23.9505 9.83723 23.9505 10.6078V21.4462H29.0425V10.7379C29.0425 8.58627 27.6465 4.29297 22.1427 4.29297C17.9746 4.29297 16.438 7.27526 16.438 7.27526C16.438 7.27526 14.9214 4.29297 10.7433 4.29297C5.23951 4.29297 3.85352 8.58627 3.85352 10.7379V21.4462H8.93551V10.6078C8.93551 9.83723 9.42764 8.18596 11.2957 8.18596C13.1839 8.18596 13.666 9.49697 13.666 10.6078V21.4462H19.2301Z" fill="white"/>
<path d="M32.127 18.7837C32.9706 19.8666 34.0519 20.7427 35.288 21.3446C36.524 21.9466 37.882 22.2585 39.2578 22.2564C42.1604 22.2564 44.7416 20.9054 46.3987 18.7837H32.127Z" fill="white"/>
<path d="M40.4614 17.083C39.2863 17.083 38.1213 16.0022 40.7326 14.9313C41.7068 14.521 43.7456 13.18 44.2277 11.4687C44.7198 15.3216 42.7613 17.083 40.4614 17.083ZM47.1001 17.7435C47.8972 16.3724 48.3132 14.8145 48.3053 13.23C48.3053 8.67657 44.9006 4.91368 40.5016 4.30321C41.536 4.89366 43.5648 6.64501 43.5648 9.64732C43.5648 14.2008 37.9304 13.8705 37.9304 16.3024C37.9304 17.3832 38.8946 17.7535 39.2562 17.7535L47.1001 17.7435ZM37.5186 17.7535C35.9017 17.1831 34.4353 15.5718 34.4353 13.18C34.4353 8.65656 40.4312 8.1962 40.4312 5.75432C40.4312 4.85363 39.4671 4.36325 38.6234 4.24316C33.9231 4.57341 30.207 8.46641 30.207 13.23C30.207 14.8813 30.6489 16.4225 31.4122 17.7435L37.5186 17.7535Z" fill="white"/>
<path d="M54.4734 0.5V21.4461H49.3613V0.5H54.4734Z" fill="white"/>
<path d="M64.5967 9.08662V4.97345H61.202V0.560059H56.3008V16.2521C56.3008 17.4531 56.9737 19.6247 58.3798 20.5154C59.7959 21.3961 60.9911 21.6563 64.5967 21.6563V17.2429C63.3915 17.5031 61.202 17.5631 61.202 15.2714V9.08662H64.5967Z" fill="white"/>
<path d="M69.7488 10.998C70.2209 8.64622 71.5567 7.51535 73.7763 7.51535C76.5884 7.51535 77.5827 9.85715 77.5827 10.998H69.7488ZM82.5944 11.4684C82.2228 7.67548 78.6373 3.83252 73.7763 3.83252C68.9253 3.83252 64.707 7.62544 64.707 13.3398C64.707 15.5215 66.1533 21.9665 73.4649 21.9665C80.7665 21.9665 82.3936 17.1928 82.3936 16.0919H77.422C77.3216 16.4022 76.7592 18.3337 73.5654 18.3337C71.1248 18.3337 69.8292 17.2929 69.5882 14.3306H82.6447C82.6447 13.4499 82.6949 12.6693 82.5944 11.4684Z" fill="white"/>
<path d="M91.2714 7.88589C93.3605 7.88589 93.7622 9.90744 93.7622 10.4278V21.4463H98.7639V11.0583C98.7639 9.337 98.0106 3.88281 91.2714 3.88281C84.5423 3.88281 83.7891 9.337 83.7891 11.0583V21.4463H88.8108V10.4278C88.8108 9.90744 89.1924 7.88589 91.2714 7.88589Z" fill="white"/>
<path d="M34.4362 33.1354C36.5353 32.3748 37.1881 31.214 37.2283 30.5735C37.2383 30.4634 37.2584 30.4033 37.0676 30.4033C36.7864 30.4033 36.2239 30.6035 35.8825 30.8637C35.2095 31.3441 34.5567 32.2347 34.4362 33.1354ZM39.8998 32.1347C39.5684 33.3456 36.6859 35.4472 33.9642 35.4472C33.5022 35.4472 33.1808 35.197 33.1908 34.4564C33.1908 34.2463 33.2109 34.0161 33.2712 33.7859C32.0459 34.4564 30.1175 35.3271 29.6455 35.3271C29.545 35.3271 29.3643 35.237 29.3743 34.8968C29.3843 34.1762 29.8363 33.0153 30.5996 31.6543C30.8005 31.294 30.8406 31.214 30.8406 31.1139C30.8406 31.0438 30.8005 30.9137 30.6398 30.9137C29.9568 30.9137 27.7071 32.9353 26.2407 35.4272L26.2006 35.4572L26.0499 35.4872C25.9394 35.5073 25.849 35.3972 25.8591 35.117C25.8591 34.5465 26.2508 33.4156 26.773 32.3348C25.6582 33.0754 21.7814 35.5473 21.209 35.5473C21.0382 35.5473 20.978 35.3972 20.988 35.107C21.0784 34.1963 21.8718 32.6651 22.7255 31.274C22.2033 31.3941 21.7212 31.5042 21.3797 31.6243C21.2893 31.6543 21.2893 31.6143 21.3194 31.5742C21.3998 31.4541 21.6207 31.1639 21.7011 31.0839L21.8317 30.9838C22.143 30.8937 22.595 30.7936 23.077 30.7136C23.8404 29.5126 24.5836 28.5219 24.8045 28.3718C25.0054 28.2417 25.2565 28.1916 25.9796 28.1716L26.0097 28.2217C25.8089 28.4418 25.136 29.4026 24.4128 30.4934C25.0657 30.4233 25.6281 30.3533 25.839 30.3533C25.9796 30.3433 26.0298 30.3933 26.0097 30.4434L25.829 30.6535L25.6883 30.7236C25.4573 30.7536 24.8246 30.8537 24.1015 30.9838C23.4487 32.0146 22.8159 33.0754 22.5749 33.6558C22.4945 33.846 22.5247 33.916 22.7456 33.826C23.75 33.4657 26.1001 32.3949 26.9237 32.0346C28.4001 29.2424 30.3987 26.7505 31.0716 26.2702C31.4633 25.9999 31.8349 25.9599 32.3472 25.9399L32.3672 25.9899C31.162 27.321 29.0931 30.1131 27.9381 32.515C30.0472 30.5534 31.5136 29.933 32.4175 29.963C32.5681 29.963 32.6485 30.0631 32.548 30.2332C32.0358 31.1539 31.2323 32.6851 30.8005 33.926C30.7503 34.0561 30.7402 34.1362 30.921 34.1062C31.5839 33.9561 32.5982 33.6658 33.3816 33.3856C33.6528 32.575 34.2052 31.7544 34.9283 31.1339C35.7921 30.3933 37.4292 29.7728 38.3933 29.8329L38.544 29.963C38.5842 30.0931 38.5842 30.2132 38.544 30.3733C38.1824 31.5442 36.6357 32.625 34.4362 33.6258C34.4764 34.2663 34.627 34.4364 35.0187 34.4364C36.6558 34.4364 39.3675 32.9653 39.7693 32.0446C39.8195 31.9445 39.9501 31.9745 39.8998 32.1347ZM12.6017 26.7105C9.7996 26.7105 5.37043 27.0608 4.88834 27.1108L4.67743 27.2009C4.44643 27.391 3.76348 28.1316 3.66304 28.2817C3.63291 28.3317 3.57265 28.4118 3.76348 28.3918C3.76348 28.3918 5.50099 28.0615 5.63156 28.0415C3.48226 30.0931 1.88535 32.515 0.037352 36.428C-0.0329522 36.5781 -0.00282178 36.6081 0.1177 36.5981C0.539525 36.508 1.30283 36.3479 1.77487 36.1978C2.40761 34.7867 3.2613 33.1855 4.21543 31.6843C5.43069 31.3541 6.81669 31.0538 7.98173 30.9638L8.10225 30.8837L8.44373 30.5134C8.53412 30.4033 8.47386 30.3833 8.10225 30.3933C7.30882 30.4033 6.05338 30.4934 4.86826 30.6835C5.63156 29.5527 6.43504 28.5419 7.21843 27.7813C9.09655 27.5812 10.7336 27.391 12.3506 27.2509L12.5214 27.2009L12.8327 26.8706C12.9432 26.7505 12.8829 26.7105 12.6017 26.7105ZM58.4401 30.7536C57.6366 30.4233 55.9493 30.6235 54.8345 31.7944C53.9004 32.8252 53.8904 33.7259 54.262 33.876C54.3624 33.916 54.4227 33.896 54.493 33.836C55.3668 33.2155 57.4558 31.5542 58.4401 30.7536ZM48.477 33.1354C50.576 32.3748 51.2289 31.214 51.2791 30.5735C51.2891 30.4634 51.2992 30.4033 51.1083 30.4033C50.8372 30.4033 50.2747 30.6035 49.9132 30.8637C49.2603 31.3441 48.5975 32.2347 48.477 33.1354ZM62.0356 33.5558C61.9452 33.7959 62.0256 33.886 62.1461 33.836C63.1203 33.4457 65.129 32.565 65.5609 32.3548C65.7216 32.2948 65.7216 32.4149 65.591 32.515C64.657 33.1554 61.3728 35.4072 60.6798 35.4072C60.499 35.4072 60.4186 35.2971 60.4186 35.0869C60.4186 34.6866 60.6496 33.7359 61.1418 32.6951C60.0069 33.5057 57.0942 35.3671 56.7026 35.3671C56.4012 35.3671 56.3912 35.157 56.3912 34.9468C56.4012 34.2563 56.7929 33.2956 57.6165 31.8845C56.2707 33.0754 53.5991 35.3972 52.876 35.3972C52.6149 35.3972 52.4542 35.157 52.4542 34.7867C52.4542 34.4364 52.5646 33.9961 52.7756 33.5357C51.5603 34.4564 49.6822 35.4472 48.0049 35.4472C47.5429 35.4472 47.2215 35.197 47.2316 34.4564C47.2416 33.3456 47.9346 32.0446 48.9791 31.1339C49.8429 30.3933 51.4699 29.7728 52.4542 29.8329L52.5747 29.963C52.6149 30.0931 52.6149 30.2132 52.5747 30.3733C52.2232 31.5442 50.6865 32.625 48.487 33.6258C48.5272 34.2663 48.6678 34.4364 49.0595 34.4364C50.114 34.4364 52.1127 33.4757 53.2376 32.7752C53.3782 32.575 53.5489 32.3748 53.7196 32.1847C55.2965 30.4934 57.5562 29.6728 59.9968 29.933L60.0269 30.013C59.4444 30.8637 58.4401 32.4849 58.0283 33.6558C57.9781 33.7959 57.9781 33.846 58.1187 33.7959C58.9121 33.4657 60.6597 32.7051 61.2824 32.4149L61.3125 32.3548C62.2566 30.5534 63.5522 28.3317 65.3801 26.4703C65.7316 26.12 66.1535 26.01 66.8866 25.9399L66.9268 25.9999C66.0631 27.0407 63.3714 30.2732 62.0356 33.5558ZM94.5162 33.1354C96.6052 32.3748 97.2681 31.214 97.3183 30.5735C97.3183 30.4634 97.3384 30.4033 97.1576 30.4033C96.8563 30.4033 96.314 30.6035 95.9624 30.8637C95.2795 31.3441 94.6267 32.2347 94.5162 33.1354ZM80.4955 30.7536C79.7021 30.4233 78.0047 30.6235 76.9 31.7944C75.9559 32.8252 75.9458 33.7259 76.3174 33.876C76.4279 33.916 76.4982 33.896 76.5585 33.836C77.4222 33.2155 79.5012 31.5542 80.4955 30.7536ZM73.1337 30.7236C73.0533 30.6835 72.8625 30.6035 72.5511 30.6035C71.5568 30.5935 70.4521 31.0538 69.7791 31.7444C69.287 32.2147 68.9556 32.9353 68.9455 33.4957C68.9455 33.6758 69.0058 33.906 69.1765 33.906C69.5481 33.906 72.28 31.5142 73.1337 30.7236ZM70.6127 35.0769C69.749 35.6974 68.6543 36.538 68.5639 37.9191C68.5538 38.2394 68.6442 38.3595 68.8451 38.3595C68.9857 38.3595 69.1062 38.2894 69.287 37.9892C69.5281 37.5588 70.3918 35.7174 70.6127 35.0769ZM99.9899 32.1347C99.6484 33.3456 96.7659 35.4472 94.0542 35.4472C93.5922 35.4472 93.2507 35.197 93.2708 34.4564C93.2708 34.2263 93.3009 34.0061 93.3511 33.7659C92.1459 34.4364 90.2075 35.3271 89.7254 35.3271C89.5648 35.3271 89.4041 35.2471 89.4041 34.9168C89.4041 33.9861 90.5591 31.8745 90.78 31.4541C90.9005 31.234 90.9307 31.1439 90.9307 31.0939C90.9307 30.9838 90.8604 30.9337 90.7398 30.9337C90.5992 30.9337 90.2678 31.0738 90.0468 31.214C88.691 32.1046 87.4757 33.4357 86.3609 35.237C86.3408 35.2771 86.2805 35.2971 86.1902 35.3271H86.1299C85.9692 35.3671 85.8788 35.157 85.8788 34.9468C85.8788 34.2563 86.5115 32.6551 87.2749 31.4241C87.4054 31.214 87.4355 31.1539 87.4355 31.0839C87.4355 31.0038 87.3853 30.9337 87.2447 30.9337C86.9635 30.9337 86.2303 31.4241 85.6277 31.8945C85.226 32.2347 83.9103 33.4056 82.8557 35.197C82.8156 35.2771 82.7754 35.2971 82.6649 35.3271H82.6147C82.5243 35.3671 82.3837 35.2771 82.3837 34.9668C82.3837 34.4364 82.6649 33.6258 83.0566 32.7952C81.8413 33.6558 79.1396 35.3671 78.768 35.3671C78.4466 35.3671 78.4466 35.157 78.4466 34.9468C78.4567 34.2563 78.8484 33.2956 79.682 31.8845C78.3362 33.0754 75.6646 35.3972 74.9415 35.3972C74.6603 35.3972 74.4996 35.157 74.4996 34.7867C74.4996 34.1062 74.9515 33.1454 75.6244 32.3548C74.8913 32.7651 73.3847 33.5958 72.0891 34.3464C71.125 36.1578 70.3516 37.4688 69.1966 38.5396C68.5639 39.12 67.9713 39.5003 67.6399 39.5003C67.439 39.5003 67.1879 39.3302 67.1879 38.8498C67.2482 36.9784 69.9298 34.9768 70.9542 34.3063C71.3158 33.5858 71.7577 32.7251 72.0791 32.1347C71.4363 32.6651 68.7949 34.8267 68.7949 34.8267C68.3028 35.217 67.9512 35.3972 67.66 35.3972C67.3085 35.3972 67.2482 35.0569 67.2482 34.8367C67.2482 33.906 68.0918 32.515 69.2569 31.5742C71.2053 29.963 73.9572 29.933 74.7507 29.963L74.7808 30.013C73.686 31.3841 72.5009 33.5658 72.4808 33.6158C73.5153 33.0253 75.5039 32.1647 76.0262 31.9445C77.5829 30.4233 79.7322 29.6928 82.0422 29.933L82.0824 30.013C81.5099 30.8637 80.4955 32.4849 80.0837 33.6558C80.0335 33.7959 80.0335 33.846 80.1842 33.7959C80.9274 33.4857 82.5042 32.7952 83.2173 32.4749C83.6592 31.6043 84.2015 30.7836 84.6133 30.4033C84.9347 30.1231 85.6277 30.1331 85.8185 30.1531L85.8587 30.2232C85.2963 31.0538 84.8946 31.5942 84.4125 32.605C86.2504 30.9638 87.7369 29.8629 89.0023 30.0431C89.1932 30.0731 89.1831 30.1932 89.1228 30.3133C88.8316 30.8337 88.1486 32.0346 87.8473 32.6851C89.3338 31.244 91.2119 29.913 92.4573 29.963C92.6079 29.973 92.7285 30.0631 92.628 30.2232C92.1359 31.1139 91.2521 32.8452 90.8804 33.926C90.8302 34.0561 90.8202 34.1362 91.001 34.0962C91.6438 33.9561 92.7284 33.6258 93.4717 33.3756C93.7328 32.565 94.2852 31.7544 95.0083 31.1339C95.872 30.3933 97.5192 29.7728 98.4733 29.8329L98.6139 29.963C98.6541 30.0931 98.6541 30.2132 98.624 30.3733C98.2624 31.5442 96.7257 32.625 94.5162 33.6258C94.5664 34.2663 94.697 34.4364 95.0887 34.4364C96.7358 34.4364 99.4475 32.9653 99.8493 32.0446C99.8894 31.9445 100.04 31.9745 99.9899 32.1347ZM12.2502 31.0839C12.2502 30.7536 12.0092 30.5735 11.6275 30.5735C11.3865 30.5735 11.0952 30.6435 10.7738 30.8036C9.65899 31.324 8.83542 32.4149 8.83542 33.3156C8.83542 33.7559 8.97603 34.0361 9.04634 34.1362C9.1769 34.2763 9.24721 34.2263 9.42799 34.1962C9.85986 34.0762 10.5328 33.6258 11.0751 33.0554C11.7882 32.2948 12.2502 31.5442 12.2502 31.0839ZM11.1655 33.7459C10.2214 34.7867 9.05638 35.4372 8.47386 35.4272C7.81099 35.4072 7.66034 34.7367 7.68043 34.2663C7.70051 32.8452 9.01621 31.1139 10.7738 30.2732C11.4065 29.983 11.8987 29.8729 12.4511 29.9029C12.5515 29.9029 12.6319 29.973 12.6821 30.023C13.1039 30.4233 13.4353 31.264 11.1655 33.7459ZM45.0722 30.2132L45.0321 30.1531C44.1482 30.1531 43.8771 30.2732 43.3548 30.9838C42.5011 32.1447 41.5068 34.4564 41.4867 35.197C41.4767 35.4872 41.5771 35.6073 41.6775 35.5773L41.8784 35.5473L41.9186 35.4973C43.5155 32.7651 45.3233 31.2039 47.5329 30.9137L47.5831 30.8937C47.7739 30.6235 48.0652 30.3033 48.2962 30.0731L48.266 30.003C48.1957 30.003 48.0853 29.983 47.9848 29.983C47.4726 29.943 46.9102 30.1531 46.4884 30.3833C45.7451 30.8136 44.6404 31.5942 43.7666 32.4149C43.9373 32.0346 44.1884 31.5442 44.4897 31.0438C44.7006 30.7236 44.9919 30.3333 45.0722 30.2132ZM15.8056 31.0438C15.4842 31.5442 15.2532 32.0346 15.0624 32.4149C15.9361 31.5942 17.051 30.8136 17.7942 30.3833C18.2261 30.1531 18.7784 29.943 19.2907 29.983C19.3911 29.983 19.5016 30.003 19.5719 30.003L19.5819 30.0731C19.361 30.3033 19.0798 30.6235 18.8789 30.8937L18.8488 30.9137C16.6291 31.2039 14.8113 32.7651 13.2144 35.4973L13.1842 35.5473L12.9834 35.5773C12.8729 35.6073 12.7825 35.4872 12.7825 35.197C12.8126 34.4564 13.8069 32.1447 14.6606 30.9838C15.1829 30.2732 15.444 30.1531 16.3379 30.1531L16.3781 30.2132C16.2877 30.3333 15.9964 30.7236 15.8056 31.0438Z" fill="white"/>
</g>
<defs>
<clipPath id="clip0_1751_1660">
<rect width="100" height="39" fill="white" transform="translate(0 0.5)"/>
</clipPath>
</defs>
</svg>
