<svg width="140" height="17" viewBox="0 0 140 17" fill="none" xmlns="http://www.w3.org/2000/svg">
<g clip-path="url(#clip0_1751_1669)">
<path d="M7.04334 11.8248V16.4386H0V0.5H14.3357C20.2135 0.5 21.8473 2.89386 21.8473 5.85038V6.3312C21.8473 9.26726 20.1537 11.8248 14.3357 11.8248H7.04334ZM7.04334 7.35422H12.951C14.1664 7.35422 14.6147 6.81202 14.6147 6.1266V6.06522C14.6147 5.3491 14.1963 4.8376 12.951 4.8376H7.04334V7.35422Z" fill="#5B2A98"/>
<path d="M35.4561 14.2494H27.1675L26.2012 16.4693H19.0781L26.5598 0.5H36.283L44.2429 16.4693H36.4225L35.4561 14.2494ZM31.272 4.9399L29.1101 9.87084H33.4936L31.272 4.9399Z" fill="#5B2A98"/>
<path d="M51.7835 16.4386H44.7402V0.5H60.5703C64.4755 0.5 66.8864 1.63555 66.8864 4.54092V4.76598C66.8864 7.15985 64.8142 8.07033 63.5092 8.40793C65.7009 8.86829 66.9461 10.2596 66.9461 12.3056V14.6995C66.9461 15.6407 67.0856 16.0396 67.255 16.3261V16.4693H60.0224C59.9128 16.3568 59.8829 16.1522 59.8829 15.8146V13.9118C59.8829 12.2033 59.0759 11.1803 56.8045 11.1803H51.8134L51.7835 16.4386ZM51.7835 6.95524H58.0199C59.1855 6.95524 59.6039 6.47442 59.6039 5.789V5.75831C59.6039 5.10358 59.1855 4.59207 58.0199 4.59207H51.7835V6.95524Z" fill="#5B2A98"/>
<path d="M75.2948 0.5V16.4386H68.2812V0.5H75.2948Z" fill="#5B2A98"/>
<path d="M76.6602 0.5H92.6795C97.312 0.5 98.4975 2.29028 98.4975 4.12148V4.2954C98.4975 6.19821 96.8936 7.17008 95.5586 7.45652C97.302 7.79412 99.3841 8.79667 99.3841 11.61V11.835C99.3841 14.3414 97.7802 16.5 92.6795 16.5H76.6602V0.5ZM83.7234 4.40793V6.28005H89.8801C90.9859 6.28005 91.3844 5.94246 91.3844 5.36957V5.31841C91.3844 4.69437 90.9959 4.40793 89.8801 4.40793H83.7234ZM83.7234 10.0754V12.3875H90.2089C91.6235 12.3875 91.9523 11.8146 91.9523 11.2212V11.1598C91.9523 10.5358 91.6434 10.0754 90.2089 10.0754H83.7234Z" fill="#5B2A98"/>
<path d="M118.433 0.5V4.71483H107.315V6.28005H118.263V10.4335H107.315V12.1726H118.542V16.4386H100.381V0.5H118.433Z" fill="#5B2A98"/>
<path d="M126.222 5.4821H119.518V0.5H140V5.51279H133.295V16.4386H126.222V5.4821Z" fill="#5B2A98"/>
</g>
<defs>
<clipPath id="clip0_1751_1669">
<rect width="140" height="16" fill="white" transform="translate(0 0.5)"/>
</clipPath>
</defs>
</svg>
