<svg width="140" height="16" viewBox="0 0 140 16" fill="none" xmlns="http://www.w3.org/2000/svg">
<path d="M7.04334 11.3248V15.9386H0V0H14.3357C20.2135 0 21.8473 2.39386 21.8473 5.35038V5.8312C21.8473 8.76726 20.1537 11.3248 14.3357 11.3248H7.04334ZM7.04334 6.85422H12.951C14.1664 6.85422 14.6147 6.31202 14.6147 5.6266V5.56522C14.6147 4.8491 14.1963 4.3376 12.951 4.3376H7.04334V6.85422Z" fill="#0F524D"/>
<path d="M35.4561 13.7494H27.1675L26.2012 15.9693H19.0781L26.5598 0H36.283L44.2429 15.9693H36.4225L35.4561 13.7494ZM31.272 4.4399L29.1101 9.37084H33.4936L31.272 4.4399Z" fill="#0F524D"/>
<path d="M51.7845 15.9386H44.7412V0H60.5713C64.4765 0 66.8874 1.13555 66.8874 4.04092V4.26598C66.8874 6.65985 64.8152 7.57033 63.5102 7.90793C65.7019 8.36829 66.9471 9.75959 66.9471 11.8056V14.1995C66.9471 15.1407 67.0866 15.5396 67.256 15.8261V15.9693H60.0234C59.9138 15.8568 59.8839 15.6522 59.8839 15.3146V13.4118C59.8839 11.7033 59.0769 10.6803 56.8055 10.6803H51.8144L51.7845 15.9386ZM51.7845 6.45524H58.0209C59.1865 6.45524 59.6049 5.97442 59.6049 5.289V5.25831C59.6049 4.60358 59.1865 4.09207 58.0209 4.09207H51.7845V6.45524Z" fill="#0F524D"/>
<path d="M75.2947 0V15.9386H68.2812V0H75.2947Z" fill="#0F524D"/>
<path d="M76.6602 0H92.6795C97.312 0 98.4975 1.79028 98.4975 3.62148V3.7954C98.4975 5.69821 96.8936 6.67008 95.5586 6.95652C97.302 7.29412 99.3841 8.29667 99.3841 11.11V11.335C99.3841 13.8414 97.7802 16 92.6795 16H76.6602V0ZM83.7234 3.90793V5.78005H89.8801C90.9859 5.78005 91.3844 5.44246 91.3844 4.86957V4.81841C91.3844 4.19437 90.9959 3.90793 89.8801 3.90793H83.7234ZM83.7234 9.57545V11.8875H90.2089C91.6235 11.8875 91.9523 11.3146 91.9523 10.7212V10.6598C91.9523 10.0358 91.6434 9.57545 90.2089 9.57545H83.7234Z" fill="#0F524D"/>
<path d="M118.432 0V4.21483H107.314V5.78005H118.262V9.9335H107.314V11.6726H118.541V15.9386H100.38V0H118.432Z" fill="#0F524D"/>
<path d="M126.222 4.9821H119.518V0H140V5.01279H133.295V15.9386H126.222V4.9821Z" fill="#0F524D"/>
</svg>
