<svg width="300" height="160" viewBox="0 0 300 160" fill="none" xmlns="http://www.w3.org/2000/svg">
<path d="M279.974 99.3346C279.813 100.057 279.679 100.779 279.466 101.474C278.075 105.752 275.428 108.961 271.336 110.94C271.149 111.02 270.962 111.127 270.668 111.288C274.732 115.807 276.31 121.155 276.283 127.118H267.459C267.245 125.647 267.165 124.203 266.817 122.786C265.534 117.331 260.827 113.213 255.212 112.625C254.115 112.518 253.019 112.438 251.923 112.438C246.28 112.411 240.611 112.411 234.969 112.411C234.916 112.411 234.835 112.384 234.675 112.357V103.8H264.277C267.593 103.8 270.24 101.581 270.855 98.4522C271.55 94.8154 268.903 91.3659 265.079 90.9915C264.009 90.8845 262.967 90.8311 261.897 90.8311H235.932C234.595 90.8311 234.595 90.8311 234.595 89.4405V83.4506C234.595 83.103 234.621 82.7554 234.648 82.3543C235.049 82.3275 235.343 82.3008 235.664 82.3008H263.555C267.753 82.3008 271.577 83.3169 274.813 86.1782C277.567 88.6116 279.225 91.6065 279.76 95.2165C279.786 95.4304 279.893 95.6444 279.947 95.8583C279.974 97.0082 279.974 98.158 279.974 99.3346Z" fill="white"/>
<path d="M279.974 40.2907C274.759 40.264 269.518 40.264 264.304 40.2372H260.854V78.4764H251.281V40.264H232.215V31.0385H278.744C279.171 31.0385 279.573 31.0117 280 31.0117C279.974 34.1136 279.974 37.2156 279.974 40.2907Z" fill="white"/>
<path d="M67.5464 31.0918V40.8254H36.0459C35.2169 40.8254 34.3612 40.8521 33.559 41.0661C31.5 41.6009 30.2966 43.6599 30.564 45.8526C30.7245 47.2164 32.5428 49.3022 34.6019 49.2754C40.0035 49.1952 45.3784 49.222 50.78 49.2754C52.4646 49.2754 54.1493 49.3022 55.8072 49.5963C61.8239 50.6125 65.9954 53.9016 67.6533 59.838C69.338 65.8547 67.8138 71.0156 63.0272 75.1604C59.8718 77.888 56.1281 78.5832 52.117 78.5832H21.3118C21.0711 78.5832 20.8037 78.5565 20.4561 78.5297V68.8496H51.9833C52.4914 68.8496 53.0262 68.8496 53.5343 68.7961C56.2886 68.5822 58.2406 66.4429 58.2139 63.6084C58.1871 61.2553 56.0211 59.116 53.454 59.0358C50.5393 58.9556 47.6513 59.009 44.7366 58.9823C40.779 58.9556 36.7946 59.0625 32.837 58.8219C27.061 58.4742 20.4561 53.1796 20.5095 45.4783C20.563 38.3653 24.4939 33.0439 31.0721 31.5196C32.5161 31.1988 34.0136 31.0383 35.4843 31.0383C45.9399 30.9848 56.3955 31.0116 66.8779 31.0116C67.065 31.0383 67.2522 31.065 67.5464 31.0918Z" fill="white"/>
<path d="M150.2 31.0383C163.57 30.8243 174.186 41.681 174.213 54.784C174.24 67.9939 163.356 78.6901 150.227 78.5832C136.83 78.4762 126.267 68.1276 126.24 54.8642C126.187 41.6276 136.803 31.065 150.2 31.0383ZM150.093 69.3576C158.142 69.3576 164.587 62.8597 164.64 54.6235C164.694 46.9757 157.982 40.2371 150.254 40.2103C142.419 40.1568 135.867 46.8153 135.733 54.7038C135.6 62.6725 142.659 69.732 150.093 69.3576Z" fill="white"/>
<path d="M179.214 62.9135V53.7949H209.458C210.393 53.7949 211.356 53.7682 212.239 53.5543C215.394 52.859 217.747 49.6501 217.56 46.4947C217.373 43.3928 214.752 40.692 211.49 40.3176C210.5 40.2107 209.484 40.1305 208.495 40.1305H179.267V31.0119H180.177C190.124 31.0119 200.072 30.9851 210.019 31.0119C215.341 31.0119 219.913 32.8035 223.47 36.9216C227.508 41.5744 228.336 49.249 225.208 54.5704C223.336 57.7258 220.876 60.2662 217.293 61.6567C221.625 66.47 223.256 72.139 223.256 78.4766H213.897C213.656 76.8454 213.549 75.241 213.175 73.69C211.757 67.9675 206.73 63.5018 200.847 63.1542C196.06 62.86 191.247 62.967 186.434 62.9135H179.214Z" fill="white"/>
<path d="M82.8947 71.1491V78.5028H73.375V61.7631H74.5248C82.6005 61.7631 90.6762 61.7898 98.7519 61.7364C100.223 61.7364 101.72 61.6294 103.191 61.3887C107.844 60.6133 111.454 56.1743 111.668 51.4145C111.935 45.6652 107.255 40.1834 100.624 40.2636C91.9598 40.3438 83.3225 40.2904 74.6586 40.2904H73.4552V31.0381H99.4204C102.897 31.0381 106.319 31.4392 109.555 32.8297C116.989 35.9851 121.749 44.1945 121.241 52.2969C120.679 61.255 113.753 69.5714 103.886 70.7212C100.57 71.0956 97.1742 70.9619 93.8316 71.0154C90.5692 71.0689 87.3069 71.0689 84.0445 71.0956C83.6702 71.0956 83.3225 71.1223 82.8947 71.1491Z" fill="white"/>
<path d="M20.0802 82.3809H29.0116V83.5574C29.0116 90.2426 28.9849 96.901 29.0383 103.586C29.0651 105.244 29.2255 106.956 29.6266 108.56C31.0439 114.363 36.6862 118.695 42.6226 118.721C49.4682 118.748 55.5383 113.266 56.2069 106.447C56.3406 105.137 56.394 103.8 56.394 102.49C56.4208 96.2058 56.394 89.9217 56.394 83.6377V82.4076H65.3522C65.3789 82.7017 65.4057 82.9692 65.4057 83.2633V103.372C65.3789 107.972 64.6569 112.437 62.1433 116.422C58.3996 122.305 53.1584 126.048 46.1524 126.984C37.0605 128.188 29.6801 125.086 24.1181 117.759C21.7381 114.63 20.3476 110.993 20.2407 107.116C20 98.9601 20.0535 90.8042 20 82.6483C20 82.568 20.0535 82.5146 20.0802 82.3809Z" fill="white"/>
<path d="M106.586 127.065V106.314C106.586 103.88 106.265 101.501 105.356 99.2275C103.109 93.4783 96.7184 90.5636 92.4131 90.8845C85.8884 91.3391 80.8612 95.6443 79.6311 101.661C79.3369 103.078 79.23 104.522 79.2032 105.966C79.1498 112.598 79.1765 119.256 79.1765 125.888V127.118H70.2184C70.1916 126.797 70.1649 126.53 70.1649 126.236C70.1649 119.337 70.1381 112.437 70.1916 105.538C70.2184 101.607 70.8067 97.7568 72.7855 94.2805C76.5826 87.5954 82.1982 83.4238 89.953 82.5146C98.2426 81.552 105.142 84.2795 110.517 90.6438C113.618 94.3073 115.303 98.6393 115.41 103.399C115.597 111.047 115.544 118.695 115.597 126.316C115.597 126.797 115.624 127.225 114.929 127.225C112.281 127.198 109.634 127.198 106.987 127.198C106.88 127.198 106.773 127.145 106.586 127.065Z" fill="white"/>
<path d="M229.646 127.144C229.271 127.171 229.004 127.198 228.71 127.198C221.356 127.171 213.976 127.251 206.622 127.118C195.658 126.93 186.727 119.577 184.775 108.8C182.288 95.0555 191.406 85.7497 200.471 83.2361C202.504 82.6745 204.67 82.3804 206.756 82.3537C214.082 82.2467 221.409 82.3002 228.736 82.2734C229.004 82.2734 229.244 82.3002 229.592 82.3269C229.619 82.6211 229.672 82.9152 229.672 83.1826C229.672 85.4288 229.646 87.7018 229.699 89.948C229.726 90.7235 229.485 90.9374 228.71 90.9374C221.677 90.9107 214.644 90.9107 207.584 90.9374C200.846 90.9909 196.033 94.4672 193.893 100.858C193.064 103.372 193.118 105.912 193.867 108.479C195.578 114.309 200.632 118.373 206.702 118.48C213.922 118.614 221.169 118.561 228.389 118.587C229.672 118.587 229.672 118.587 229.672 119.844V126.048C229.699 126.396 229.672 126.743 229.646 127.144Z" fill="white"/>
<path d="M157.288 128.241C149.586 112.838 141.965 97.6765 134.317 82.3809C134.718 82.3541 134.986 82.3274 135.253 82.3274C137.446 82.3274 139.639 82.3809 141.832 82.3006C142.687 82.2739 143.142 82.5413 143.516 83.3168C147.875 91.9005 152.287 100.484 156.673 109.041C156.833 109.362 156.993 109.656 157.261 110.111C157.528 109.656 157.715 109.335 157.876 109.015C162.342 100.404 166.834 91.8203 171.273 83.2098C171.594 82.568 171.968 82.2739 172.744 82.3006C175.177 82.3541 177.637 82.3274 180.258 82.3274C172.637 97.6498 165.016 112.838 157.288 128.241Z" fill="white"/>
<path d="M120.411 82.3809H129.236V127.171H120.411V82.3809Z" fill="white"/>
<path d="M229.619 100.564C229.619 103.265 229.619 105.886 229.592 108.48C229.592 108.667 229.271 108.854 229.084 109.015C229.03 109.068 228.897 109.041 228.79 109.041H206.809C206.622 109.041 206.435 108.988 206.221 108.961V100.591C214.002 100.564 221.73 100.564 229.619 100.564Z" fill="white"/>
</svg>
