<svg width="300" height="160" viewBox="0 0 300 160" fill="none" xmlns="http://www.w3.org/2000/svg">
<path d="M20 135.657H46.4381V121.747H85.4759V110.427H46.4381V106.973H85.4759V95.509L20 95.4291V135.657ZM120.374 84.125C101.52 84.125 91.1261 90.8883 91.1261 100.705V119.956C91.1261 129.773 101.52 136.536 120.374 136.536C139.228 136.536 149.471 129.773 149.471 119.956V100.705C149.471 90.8723 139.228 84.125 120.374 84.125ZM114.12 100.386L115.751 91.352H117.232L117.534 98.6588H118.561L119.317 91.352H121.099L121.855 98.6588H122.882L123.184 91.352H124.665L126.296 100.386C126.447 101.569 125.269 102.192 123.335 102.432C121.704 102.672 122.006 103.376 122.006 104.159L124.091 126.479C124.242 127.423 122.308 127.966 120.223 127.966C118.138 127.966 116.205 127.423 116.356 126.479L118.44 104.159C118.44 103.376 118.743 102.672 117.111 102.432C115.177 102.192 113.969 101.569 114.12 100.386ZM183.312 75.715C164.458 75.715 154.064 82.4782 154.064 92.2953V119.956C154.064 129.773 164.458 136.536 183.312 136.536C202.166 136.536 212.409 129.773 212.409 119.956V92.2953C212.409 82.4782 202.166 75.715 183.312 75.715ZM52.6624 23C33.2039 23 20 29.6034 20 40.9874V74.7716C20 86.1716 33.2039 92.5351 52.6624 92.5351C72.2719 92.5351 85.4759 86.1716 85.4759 74.7716V51.9876H50.5776V67.0011H58.1615V76.3545C58.1615 78.7049 56.681 80.2078 52.6624 80.2078C48.946 80.2078 47.3144 78.7208 47.3144 76.3545V38.7809C47.3144 36.7343 48.946 35.3273 52.6624 35.3273C56.681 35.3273 58.1615 36.7343 58.1615 39.1007V48.3742H85.4759V40.9874C85.4759 29.6034 72.2719 23 52.6624 23ZM176.635 37.6137C176.635 35.4872 179.293 29.9871 183.312 29.9871C187.331 29.9871 189.99 35.4872 189.99 37.6137C189.99 39.1007 189.385 40.044 188.207 40.6036C186.877 41.2272 185.82 41.2272 185.397 41.6269C184.793 42.0906 184.944 43.5935 185.095 45.0805L187.028 64.8746C187.18 65.9778 185.246 66.4415 183.312 66.4415C181.378 66.4415 179.445 65.9778 179.596 64.8746L181.529 45.0805C181.68 43.5935 181.832 42.0906 181.227 41.6269C180.774 41.2272 179.747 41.2272 178.417 40.6036C177.239 40.044 176.635 39.1007 176.635 37.6137ZM179.022 126.239L181.56 105.262C179.928 104.719 175.758 102.512 175.758 96.6922C175.758 90.2487 178.417 84.125 184.067 83.1018H185.095V105.262L187.18 126.239C187.331 127.423 185.397 127.966 183.312 127.966C180.955 127.966 178.87 127.327 179.022 126.239ZM250.873 119.476C250.873 121.827 248.939 123.329 243.893 123.329V77.6016C248.939 77.6016 250.873 79.0886 250.873 81.4549V119.476ZM247.307 135.657C264.832 135.657 276.556 129.293 276.556 117.893V84.125C276.556 72.7251 263.352 66.3615 247.307 66.3615H218.21V135.657H247.307ZM241.234 64.0911L245.676 52.6911H246.431L250.45 64.0911H269.606L280 23.8634H259.061L255.496 42.4903H254.317L251.175 31.9537H241.083L237.82 42.4743H236.49L233.076 23.8474H212.137L222.35 64.0911H241.234ZM124.091 46.6474C124.091 50.021 122.157 51.0443 117.111 51.0443V35.3273C122.157 35.4073 124.091 36.3506 124.091 39.6443V46.6474ZM139.531 55.1374C145.604 53.2507 149.169 50.2608 149.169 44.297V39.4205C149.169 29.6034 143.821 23.8634 119.015 23.8634H91.398V81.5349H117.081V61.9646C122.127 62.0446 124.06 62.908 124.06 66.3615V81.5189H149.441V63.7713C149.471 59.3744 145.604 55.8409 139.531 55.1374ZM183.312 23C164.458 23 154.064 29.7632 154.064 39.5803V56.6244C154.064 66.4415 164.458 73.2047 183.312 73.2047C202.166 73.2047 212.409 66.4415 212.409 56.6244V39.5803C212.409 29.7473 202.166 23 183.312 23Z" fill="white"/>
</svg>
