<svg width="300" height="160" viewBox="0 0 300 160" fill="none" xmlns="http://www.w3.org/2000/svg">
<path fill-rule="evenodd" clip-rule="evenodd" d="M90.5949 71.506L96.6311 66.3782V80.4712L90.5949 71.506ZM228.411 63.7878C222.563 63.7878 218.656 64.4571 216.368 66.2915L217.119 64.1971H206.8L204.064 73.4223C203.688 74.8427 203.351 76.0175 203.009 77.279C202.643 75.8538 202.151 74.6549 201.891 73.9086L198.134 64.1971H191.086L187.299 74.053C186.697 75.5167 186.172 76.6097 185.835 77.8086C185.498 76.0175 185.271 74.3949 184.973 73.4223L182.419 64.1971H172.775V57.7164H163.289V64.3752H158.337V64.1249C158.337 62.9164 159.05 62.5793 160.288 62.5793H162.124V57.4082H156.719C151.14 57.4082 149.001 58.8382 149.001 63.263V64.3752H143.297V66.1856C143.259 66.0749 143.148 65.9978 142.994 65.8101C140.147 63.7878 134.404 63.706 131.066 63.706C123.907 63.706 119.629 64.8038 117.832 67.7504C116.893 64.9819 114.865 63.7493 111.411 63.7493C108.785 63.7493 106.796 64.3752 105.336 65.8101V64.1971H86.2062L79.4571 70.803V57.7164H69.9668V85.4593H79.4571V80.7938L83.4651 77.1249L88.6439 85.4593H105.563V74.3949C105.563 71.9634 106.16 70.4949 107.812 70.4949C109.648 70.4949 110.139 72.2523 110.139 73.7304H118.473C118.473 72.6375 118.386 71.3182 118.324 70.3119H126.721C126.865 68.7712 128.363 68.6171 131.104 68.6171C132.347 68.6171 136.018 68.7712 136.018 70.6104C136.018 71.9153 134.375 72.1849 131.104 72.1849C129.833 72.1849 128.103 72.3293 126.157 72.4497C121.542 72.5893 118.324 72.936 116.291 75.3627C115.496 76.3497 115.159 77.6208 115.159 79.2627C115.159 83.8416 118.579 85.4593 125.666 85.4593C127.727 85.4593 129.606 85.3053 131.104 85.1175C133.051 84.8912 134.79 84.0245 136.245 82.4934C136.245 83.6827 136.582 84.4723 136.991 85.4593H147.093L147.045 84.5205C146.857 84.4434 146.669 84.1738 146.669 84.1738C146.183 83.6827 145.879 83.0471 145.879 82.2334V74.053C145.879 72.6375 145.773 71.3182 145.47 70.3119H149.001V85.4593H158.53V70.3119H163.289V78.9642C163.289 81.8242 164.075 84.5205 166.026 85.0068C167.192 85.1945 169.518 85.4593 171.802 85.4593H176.489V79.566H175.034C172.775 79.566 172.775 78.2516 172.775 75.0353V70.3119H174.09L179.269 85.4593H189.886L193.668 76.6097C194.005 75.8538 194.169 74.8427 194.54 73.9086C194.684 74.8427 194.945 76.0175 195.287 76.8312L198.924 85.4593H209.724L214.865 70.6393L224.133 70.803C224.205 69.2912 225.708 68.6171 228.368 68.6171H229.004C231.634 68.6171 233.132 69.633 233.132 70.6104C233.132 71.9153 231.557 72.2186 228.411 72.2186C227.212 72.2186 225.405 72.3293 223.497 72.4497C218.848 72.6375 215.587 72.936 213.67 75.3627C212.836 76.3497 212.509 77.6208 212.509 79.2627C212.509 83.8416 215.92 85.4593 222.972 85.4593C225.029 85.4593 226.947 85.2282 228.411 85.1175C230.208 84.9345 232.053 84.0245 233.585 82.4934C233.585 83.6827 233.884 84.4723 234.264 85.4593H244.092V85.0068C243.263 84.4723 243.263 83.5093 243.263 82.2334V74.053C243.263 72.7771 243.147 71.6986 242.921 70.6393L249.526 82.4934C248.774 85.0068 247.69 85.4593 245.099 85.4593H242.887V91.2227H249.526C252.19 91.2227 254.179 90.8953 255.836 89.239C256.954 88.2279 258.414 85.9071 260.143 82.7101L269.253 64.1971H259.05L255.639 72.2186C255.302 73.196 254.892 74.1686 254.709 75.146C254.406 74.053 253.996 72.936 253.433 71.766L249.979 64.1971H239.433L240.522 66.1519C240.416 66.0749 240.3 65.9641 240.19 65.8101C238.306 64.4571 234.447 63.7493 228.821 63.7493C228.71 63.7493 228.517 63.7878 228.411 63.7878ZM131.104 80.6638C130.729 80.6927 129.977 80.7938 129.38 80.7938C127.279 80.7938 125.931 79.9416 125.931 78.5886C125.931 77.279 126.942 76.8312 129.606 76.6097C130.088 76.6097 130.729 76.4556 131.104 76.4556C132.993 76.4556 134.626 76.2679 136.245 75.5167V76.0175C136.245 78.4104 134.26 80.3605 131.104 80.6638ZM228.411 76.5327C228.074 76.5327 227.433 76.6097 226.908 76.6097C224.283 76.8312 223.271 77.279 223.271 78.5886C223.271 79.9416 224.576 80.7938 226.72 80.7938C227.317 80.7938 228.074 80.6638 228.411 80.6638C231.518 80.423 233.585 78.4104 233.585 76.0175C233.585 76.0175 233.585 75.6323 233.436 75.5167C231.976 76.2679 230.251 76.5327 228.411 76.5327Z" fill="white"/>
<path fill-rule="evenodd" clip-rule="evenodd" d="M37.2911 91.0738C45.1618 91.0738 51.7664 85.2671 51.7664 77.1637C51.7664 74.2026 50.6873 70.5674 49.5986 68.6174L38.6742 85.2671H27.1254L37.2911 69.6334L41.7559 62.7722C40.3251 62.4689 38.8645 62.3919 37.2911 62.3919V62.3678C29.4137 62.3678 22.8129 68.6174 22.8129 76.8315C22.8129 85.2671 29.3024 91.0738 37.2911 91.0738ZM37.2911 94.3045C27.427 92.1667 20 83.2497 20 72.45C20 62.1704 27.427 53.4748 37.2911 51.4911C38.7204 51.183 40.2625 51 41.7559 51C45.6965 51 48.9193 51.4911 51.7664 53.0222L41.9823 68.6174H49.5986L56.9162 56.7393C60.4425 60.23 63.8822 66.7108 63.8822 72.45C63.8822 77.6308 62.1527 82.3782 59.243 86.1482C55.206 91.3675 48.8856 94.7138 41.7559 94.7138C40.2625 94.7138 38.7204 94.5308 37.2911 94.3045Z" fill="white"/>
<path d="M275.076 63.8072H275.9C276.295 63.8072 276.555 63.7494 276.704 63.6339C276.849 63.5183 276.916 63.3643 276.916 63.1572C276.916 63.0417 276.888 62.9309 276.815 62.8346C276.748 62.7383 276.656 62.6565 276.526 62.618C276.406 62.5602 276.179 62.5457 275.852 62.5457H275.076V63.8072ZM274.392 66.1665V61.9728H275.842C276.334 61.9728 276.69 62.0113 276.916 62.0931C277.128 62.1654 277.302 62.3002 277.437 62.4976C277.567 62.6854 277.644 62.8924 277.644 63.1139C277.644 63.4172 277.528 63.682 277.302 63.9083C277.09 64.1443 276.791 64.2694 276.43 64.2887C276.574 64.3609 276.7 64.438 276.782 64.515C276.955 64.6787 277.162 64.9628 277.408 65.348L277.918 66.1665H277.09L276.709 65.5117C276.42 64.9917 276.179 64.6691 276.016 64.5391C275.89 64.4428 275.712 64.3946 275.471 64.3898H275.076V66.1665H274.392ZM276.102 60.7691C275.553 60.7691 275.018 60.9087 274.503 61.1831C273.995 61.4618 273.573 61.8749 273.284 62.3772C272.995 62.902 272.851 63.4509 272.851 64.0191C272.851 64.5728 272.99 65.1169 273.279 65.632C273.568 66.1376 273.973 66.5469 274.488 66.8261C274.994 67.1102 275.543 67.2643 276.102 67.2643C276.661 67.2643 277.201 67.1102 277.711 66.8261C278.221 66.5514 278.642 66.1372 278.925 65.632C279.21 65.1169 279.349 64.5728 279.349 64.0191C279.349 63.4509 279.21 62.902 278.911 62.3772C278.627 61.8707 278.204 61.4563 277.692 61.1831C277.172 60.9087 276.651 60.7691 276.102 60.7691ZM276.102 60.1143C276.762 60.1143 277.398 60.278 278.02 60.6198C278.641 60.9569 279.128 61.4335 279.474 62.0643C279.821 62.6854 280 63.3306 280 64.0191C280 64.6787 279.826 65.3287 279.479 65.9498C279.137 66.5661 278.656 67.0572 278.044 67.3895C277.454 67.7301 276.784 67.9079 276.102 67.9046C275.428 67.9046 274.782 67.7409 274.161 67.3895C273.544 67.0572 273.058 66.5661 272.716 65.9498C272.374 65.3287 272.2 64.6787 272.2 64.0191C272.2 63.3306 272.374 62.6854 272.72 62.0643C273.077 61.4335 273.564 60.9569 274.185 60.6198C274.811 60.278 275.447 60.1143 276.102 60.1143Z" fill="white"/>
<path d="M72.3278 104.936C72.7902 104.936 73.1275 104.806 73.3683 104.546C73.5899 104.276 73.7104 103.982 73.7104 103.636C73.7104 103.318 73.6092 103.043 73.4021 102.793C73.1997 102.538 72.8432 102.417 72.3278 102.417H71.5763V104.936H72.3278ZM72.3278 101.137C73.2142 101.137 73.8742 101.296 74.3125 101.604C74.7461 101.902 75.0544 102.239 75.2182 102.605C75.3194 102.803 75.3676 103 75.4013 103.193C75.435 103.385 75.4543 103.539 75.4543 103.679V103.814C75.4205 104.416 75.1749 104.965 74.7124 105.46C74.2499 105.961 73.561 106.207 72.6313 106.207H71.5763V109.259H69.9287V101.137H72.3278Z" fill="white"/>
<path d="M81.6573 102.234C81.5224 102.258 81.3778 102.297 81.243 102.35C80.872 102.485 80.5444 102.769 80.2409 103.188C79.9471 103.611 79.8026 104.276 79.8026 105.205C79.8026 106.115 79.9471 106.789 80.2409 107.208C80.5444 107.627 80.872 107.911 81.243 108.051C81.3778 108.108 81.5224 108.137 81.6573 108.152C81.797 108.176 81.9222 108.19 82.0426 108.19C82.1534 108.19 82.2883 108.176 82.4232 108.152C82.5581 108.137 82.6978 108.108 82.8375 108.051C83.1988 107.911 83.5264 107.627 83.8347 107.208C84.1238 106.789 84.2731 106.115 84.2731 105.205C84.2731 104.276 84.1238 103.611 83.8347 103.188C83.5264 102.769 83.1988 102.485 82.8375 102.35C82.7033 102.299 82.5646 102.26 82.4232 102.234C82.2883 102.225 82.1534 102.21 82.0426 102.21C81.9222 102.21 81.797 102.225 81.6573 102.234ZM84.8705 102.109C85.6316 102.817 86.0122 103.847 86.0122 105.205C86.0122 106.548 85.6316 107.584 84.8705 108.282C84.1093 108.99 83.1651 109.336 82.0426 109.336C80.9106 109.336 79.9615 108.99 79.2004 108.282C78.4392 107.584 78.0635 106.548 78.0635 105.205C78.0635 103.847 78.4392 102.817 79.2004 102.109C79.9615 101.397 80.9106 101.055 82.0426 101.055C83.1651 101.055 84.1093 101.397 84.8705 102.109Z" fill="white"/>
<path d="M95.0069 109C94.7564 109.091 94.5059 109.154 94.2409 109.197C93.976 109.265 93.711 109.294 93.4316 109.313C93.3497 109.318 93.263 109.332 93.1666 109.332C93.0751 109.337 92.9884 109.337 92.9065 109.337C91.7648 109.337 90.7724 108.995 89.9342 108.321C89.1056 107.623 88.6816 106.607 88.6816 105.24C88.6816 103.964 89.0863 102.943 89.8956 102.182C90.7001 101.431 91.8081 101.046 93.2052 101.046C93.475 101.046 93.711 101.06 93.9326 101.084C94.1494 101.123 94.3662 101.157 94.5781 101.195C94.6504 101.224 94.7178 101.253 94.7949 101.263C94.872 101.277 94.9346 101.296 95.0069 101.33L94.9346 102.717C94.6745 102.606 94.4095 102.534 94.1446 102.49C93.8733 102.437 93.5973 102.411 93.3208 102.413C92.5018 102.413 91.8081 102.659 91.2493 103.14C90.7001 103.627 90.4255 104.315 90.4255 105.22C90.4255 106.15 90.6664 106.819 91.153 107.238C91.6395 107.647 92.1791 107.893 92.7668 107.955C92.8439 107.97 92.9209 107.97 92.9932 107.974C93.0655 107.984 93.1377 107.984 93.2052 107.984C93.5279 107.984 93.8122 107.95 94.0675 107.897C94.3228 107.83 94.5396 107.767 94.7275 107.7L94.8142 107.661L94.9009 107.618L95.0069 109Z" fill="white"/>
<path d="M103.94 109C103.689 109.091 103.438 109.154 103.174 109.197C102.909 109.265 102.644 109.294 102.374 109.313C102.282 109.318 102.191 109.332 102.099 109.332C102.008 109.337 101.921 109.337 101.839 109.337C100.697 109.337 99.705 108.995 98.862 108.321C98.0382 107.623 97.6143 106.607 97.6143 105.24C97.6143 103.964 98.0237 102.943 98.8282 102.182C99.6279 101.431 100.741 101.046 102.138 101.046C102.408 101.046 102.644 101.06 102.865 101.084C103.077 101.123 103.299 101.157 103.511 101.195C103.578 101.224 103.65 101.253 103.723 101.263C103.8 101.277 103.867 101.296 103.94 101.33L103.867 102.717C103.607 102.606 103.337 102.534 103.072 102.49C102.817 102.437 102.542 102.413 102.253 102.413C101.43 102.413 100.741 102.659 100.182 103.14C99.6279 103.627 99.3582 104.315 99.3582 105.22C99.3582 106.15 99.599 106.819 100.086 107.238C100.572 107.647 101.112 107.893 101.699 107.955C101.776 107.97 101.854 107.97 101.921 107.974C101.998 107.984 102.07 107.984 102.138 107.984C102.456 107.984 102.745 107.95 103 107.897C103.255 107.83 103.467 107.767 103.66 107.7L103.756 107.661L103.829 107.618L103.94 109Z" fill="white"/>
<path d="M108.483 101.142V105.306L108.449 107.295H108.483L109.065 106.101L111.903 101.142H113.878V109.259H112.235V105.075L112.269 103.111H112.235L111.672 104.343L108.805 109.259H106.84V101.142H108.483Z" fill="white"/>
<path d="M122.703 99.2154C122.568 99.5379 122.409 99.8028 122.206 99.9857C122.009 100.169 121.797 100.299 121.575 100.39C121.397 100.467 121.214 100.515 121.026 100.544C120.853 100.564 120.689 100.573 120.559 100.573C120.429 100.573 120.27 100.564 120.096 100.544C119.913 100.515 119.735 100.467 119.552 100.4C119.33 100.308 119.118 100.169 118.921 99.9905C118.714 99.8076 118.545 99.5476 118.41 99.2154L119.258 98.7676C119.277 98.8061 119.297 98.8542 119.326 98.9072C119.359 98.9698 119.393 99.0276 119.446 99.0854C119.537 99.1961 119.672 99.2972 119.846 99.3887C120.019 99.4754 120.26 99.5139 120.559 99.5139C120.862 99.5139 121.098 99.4754 121.267 99.3887C121.445 99.2972 121.575 99.1961 121.667 99.0854C121.715 99.0276 121.763 98.9698 121.787 98.9072C121.816 98.8542 121.84 98.8061 121.859 98.7676L122.703 99.2154ZM118.772 101.146V105.311L118.738 107.29H118.772L119.354 106.101L122.192 101.146H124.167V109.259H122.519V105.075L122.553 103.115H122.519L121.961 104.338L119.099 109.259H117.119V101.146H118.772Z" fill="white"/>
<path d="M133.444 109C133.199 109.091 132.939 109.154 132.678 109.197C132.413 109.265 132.149 109.294 131.879 109.313C131.787 109.318 131.696 109.332 131.604 109.332C131.522 109.337 131.426 109.337 131.349 109.337C130.202 109.337 129.215 108.995 128.376 108.321C127.543 107.623 127.119 106.607 127.119 105.24C127.119 103.964 127.529 102.943 128.338 102.182C129.142 101.431 130.255 101.046 131.643 101.046C131.912 101.046 132.149 101.06 132.375 101.084C132.592 101.123 132.808 101.157 133.016 101.195C133.083 101.224 133.16 101.253 133.228 101.263C133.31 101.277 133.372 101.296 133.444 101.33L133.372 102.717C133.112 102.606 132.842 102.534 132.582 102.49C132.314 102.438 132.041 102.412 131.768 102.413C130.935 102.413 130.246 102.659 129.687 103.14C129.133 103.627 128.863 104.315 128.863 105.22C128.863 106.15 129.104 106.819 129.6 107.238C130.077 107.647 130.626 107.893 131.204 107.955C131.281 107.97 131.358 107.97 131.426 107.974C131.508 107.984 131.575 107.984 131.643 107.984C131.965 107.984 132.254 107.95 132.505 107.897C132.765 107.83 132.982 107.767 133.165 107.7L133.261 107.661L133.343 107.618L133.444 109Z" fill="white"/>
<path d="M137.987 101.142V104.613H138.031L140.965 101.142H142.925L139.534 104.815L143.128 109.259H141.037L138.031 105.22H137.987V109.259H136.345V101.142H137.987Z" fill="white"/>
<path d="M147.291 101.142V105.306L147.262 107.295H147.291L147.874 106.101L150.707 101.142H152.687V109.259H151.039V105.075L151.078 103.111H151.039L150.48 104.343L147.619 109.259H145.648V101.142H147.291Z" fill="white"/>
<path d="M160.784 101.142V102.581H157.585V104.416H160.495V105.74H157.585V107.815H160.784V109.259H155.938V101.142H160.784Z" fill="white"/>
<path d="M175.192 101.142V102.581H172.846V109.259H171.199V102.581H168.857V101.142H175.192Z" fill="white"/>
<path d="M182.646 101.142V102.581H179.452V104.416H182.357V105.74H179.452V107.815H182.646V109.259H177.805V101.142H182.646Z" fill="white"/>
<path d="M187.276 101.142L188.577 103.4L188.947 104.088H188.981L189.352 103.4L190.682 101.142H192.488L190.017 105.013L192.724 109.259H190.778L189.227 106.679L188.88 106.053H188.846L188.495 106.679L186.881 109.259H185.079L187.796 105.013L185.33 101.142H187.276Z" fill="white"/>
<path d="M197.04 101.142V104.416H200.335V101.142H201.988V109.259H200.335V105.74H197.04V109.259H195.397V101.142H197.04Z" fill="white"/>
<path d="M208.534 102.234C208.399 102.258 208.255 102.297 208.12 102.35C207.749 102.485 207.426 102.769 207.128 103.188C206.834 103.611 206.684 104.276 206.684 105.205C206.684 106.115 206.834 106.789 207.128 107.208C207.426 107.627 207.749 107.911 208.12 108.051C208.255 108.108 208.399 108.137 208.534 108.152C208.674 108.176 208.804 108.19 208.92 108.19C209.035 108.19 209.165 108.176 209.3 108.152C209.44 108.137 209.58 108.108 209.719 108.051C210.081 107.911 210.413 107.627 210.712 107.208C211.015 106.789 211.155 106.115 211.155 105.205C211.155 104.276 211.015 103.611 210.712 103.188C210.413 102.769 210.081 102.485 209.719 102.35C209.58 102.297 209.44 102.258 209.3 102.234C209.165 102.225 209.035 102.21 208.92 102.21C208.804 102.21 208.674 102.225 208.534 102.234ZM211.752 102.109C212.513 102.817 212.899 103.847 212.899 105.205C212.899 106.548 212.513 107.584 211.752 108.282C210.991 108.99 210.047 109.336 208.92 109.336C207.788 109.336 206.843 108.99 206.087 108.282C205.316 107.584 204.94 106.548 204.94 105.205C204.94 103.847 205.316 102.817 206.087 102.109C206.843 101.397 207.788 101.055 208.92 101.055C210.047 101.055 210.991 101.397 211.752 102.109Z" fill="white"/>
<path d="M222.105 101.142V109.259H220.462V102.581H218.314V104.204C218.314 105.754 218.203 107.006 217.981 107.935C217.764 108.869 217.085 109.341 215.948 109.341C215.881 109.341 215.823 109.341 215.76 109.336C215.688 109.336 215.621 109.322 215.558 109.317C215.481 109.303 215.423 109.288 215.346 109.283C215.288 109.269 215.216 109.264 215.163 109.259L215.231 107.969L215.279 107.974L215.332 107.998L215.39 108.003H215.438L215.558 108.022H215.669C216.16 108.022 216.478 107.728 216.599 107.141C216.724 106.553 216.787 105.894 216.787 105.196V104.445C216.777 104.329 216.772 104.213 216.772 104.117V101.142H222.105Z" fill="white"/>
<path d="M228.66 102.234C228.52 102.258 228.381 102.297 228.241 102.35C227.875 102.485 227.552 102.769 227.249 103.188C226.96 103.611 226.81 104.276 226.81 105.205C226.81 106.115 226.96 106.789 227.249 107.208C227.552 107.627 227.875 107.911 228.241 108.051C228.381 108.108 228.52 108.137 228.66 108.152C228.795 108.176 228.925 108.19 229.046 108.19C229.161 108.19 229.291 108.176 229.426 108.152C229.566 108.137 229.706 108.108 229.845 108.051C230.207 107.911 230.539 107.627 230.838 107.208C231.136 106.789 231.281 106.115 231.281 105.205C231.281 104.276 231.136 103.611 230.838 103.188C230.539 102.769 230.207 102.485 229.845 102.35C229.706 102.297 229.566 102.258 229.426 102.234C229.291 102.225 229.161 102.21 229.046 102.21C228.925 102.21 228.795 102.225 228.66 102.234ZM231.878 102.109C232.639 102.817 233.02 103.847 233.02 105.205C233.02 106.548 232.639 107.584 231.878 108.282C231.117 108.99 230.173 109.336 229.046 109.336C227.913 109.336 226.969 108.99 226.203 108.282C225.442 107.584 225.066 106.548 225.066 105.205C225.066 103.847 225.442 102.817 226.203 102.109C226.969 101.397 227.913 101.055 229.046 101.055C230.173 101.055 231.117 101.397 231.878 102.109Z" fill="white"/>
<path d="M240.97 101.142V102.581H237.622V109.259H235.979V101.142H240.97Z" fill="white"/>
<path d="M245.165 101.142V105.306L245.131 107.295H245.165L245.743 106.101L248.581 101.142H250.556V109.259H248.913V105.075L248.947 103.111H248.913L248.354 104.343L245.493 109.259H243.518V101.142H245.165Z" fill="white"/>
<path d="M255.451 101.142V105.306L255.422 107.295H255.451L256.029 106.101L258.876 101.142H260.842V109.259H259.199V105.075L259.238 103.111H259.199L258.64 104.343L255.779 109.259H253.809V101.142H255.451Z" fill="white"/>
</svg>
