<svg width="100" height="55" viewBox="0 0 100 55" fill="none" xmlns="http://www.w3.org/2000/svg">
<g clip-path="url(#clip0_1751_1677)">
<path d="M95.09 27.7154C95.0131 27.5386 93.3982 26.5994 93.2664 26.279C93.2115 26.0359 92.9039 25.5386 92.8819 25.3508C92.6952 24.9972 92.5304 24.4116 92.4754 24.3453V24.3563C92.4425 24.3563 91.8163 24.1464 91.1902 23.9364C90.6848 23.7817 90.1905 23.616 89.9818 23.5607L89.8499 23.5055L89.7291 23.406C89.7291 23.406 89.4764 23.2403 89.2238 23.0635C88.9711 22.8867 88.7184 22.7099 88.7075 22.7099V22.721C88.6196 22.6326 88.6415 22.6547 88.3449 22.3453C88.334 22.3342 87.1146 20.1685 86.9608 20.0138C86.818 19.8591 86.6532 19.6933 86.5104 19.5386C86.2138 19.2403 85.9172 18.9309 85.6315 18.6326C84.4671 17.4392 83.4235 14.9972 83.4235 14.9972L78.7657 12.8646L73.0313 9.32875L70.8013 6.15748L66.3302 2.62158L61.8372 5.43925L60.2004 6.40058L58.0582 7.4503L54.5978 8.35637L50.8957 10.6989L49.973 11.0967L49.3688 11.7265L42.7885 17.4613L41.4044 17.9585L38.8338 18.6657L35.8128 16.8978L33.4509 16.4889C33.4509 16.4889 33.3411 16.5663 33.1653 16.6989L32.9896 16.8425C32.627 17.0856 32.3964 17.2845 32.1217 17.5387C31.2429 18.2348 30.1334 19.0967 29.9576 19.1188C29.7818 19.2403 29.672 19.3287 29.672 19.3287L27.4749 19.4945C27.4749 19.4945 27.3211 19.5718 27.0794 19.7044C26.651 19.8812 25.9699 20.2348 25.157 20.6989C24.6956 20.942 24.3221 21.1298 24.2452 21.174C24.0145 21.2845 23.8717 21.3618 23.8717 21.3618L21.4879 20.8315C21.4879 20.8315 15.4349 25.4392 15.0285 25.5607C14.6879 25.7707 14.3803 25.9475 14.1606 26.0801C13.9299 26.2127 13.7981 26.3011 13.7981 26.3011L10.832 27.3508H12.4689L12.7325 27.2292V27.2403L12.7874 27.2071L13.0071 27.1187C14.3583 26.5663 17.1157 25.5276 18.2252 24.7099C19.093 24.0359 21.7405 22.4668 21.6746 21.3287L23.4433 21.7375C22.2019 22.7099 21.356 24.4337 20.3124 25.5939C21.4769 24.7652 23.6959 22.6326 25.0801 22.1022C27.4859 21.1851 27.2442 20.9751 27.8594 19.9143L29.2106 19.8149C28.0681 21.0746 27.8923 23.1519 27.2332 24.29C29.1007 23.7375 30.6716 22.1574 31.946 20.0027C32.5172 19.0414 34.143 18.3784 34.2749 17.6823C34.2968 17.5718 34.2089 17.4061 34.1211 17.3619C33.9731 17.2869 33.8564 17.1616 33.7915 17.0083L35.659 17.3287L38.6031 19.0525L38.7679 19.1519L38.9546 19.0967L41.5252 18.3895H41.5472L41.5582 18.3784L42.9423 17.8922L43.0192 17.8591L43.0412 17.848C42.7116 18.2127 42.3711 18.5994 41.9756 19.0414C41.4044 19.6712 40.4486 19.4724 39.8005 19.9143C39.0425 20.3563 38.713 21.0083 38.1637 21.6602C36.9773 23.0856 36.7685 24.721 34.6923 26.0359C36.428 25.1629 38.0648 23.7375 39.4709 22.4337C40.6684 21.4502 40.4486 21.8812 41.646 21.3398C42.5139 21.0083 43.0632 20.4558 43.8212 19.9143C45.2383 18.7099 46.6444 18.1685 47.732 16.7431C48.9294 15.2182 49.4676 13.2182 50.2366 11.4724L51.0715 11.1077L51.1045 11.0967L51.1374 11.0746L54.7736 8.77626L55.18 8.66577C56.5093 9.2514 56.8388 10.2348 56.2017 11.6381C55.7733 12.8315 54.3561 12.942 53.5982 13.4945C51.7416 15.0193 46.4467 23.5386 44.8208 25.2845C46.3368 24.4116 53.0928 16.3453 54.6198 15.5718C56.3555 14.6989 57.3222 15.1409 58.8382 13.605C60.3652 12.3011 63.9244 9.26245 64.6824 7.18511C65.023 6.23483 64.8801 4.75417 65.5722 3.6271L66.3083 3.17407L70.4717 6.47792L70.7244 6.83152C70.5486 8.08013 70.6475 11.4061 69.0876 11.6271C68.78 11.6713 67.9451 11.5276 67.7254 11.6381C67.5057 11.7486 67.0662 12.6215 66.8575 12.8425C65.5503 14.3784 62.4634 20.0469 61.4307 21.2956C63.3971 20.3011 66.4181 15.1409 68.2636 14.0469C69.6039 13.2735 75.8326 12.8204 75.3053 11.2624L78.535 13.2514L78.557 13.2735L78.5789 13.2845L79.4248 13.6713C77.7331 15.3177 76.5906 17.7928 74.3166 18.6989C73.0643 19.1409 72.9544 20.511 72.0097 21.4502C71.1528 22.2569 70.4388 25.3397 69.2523 25.5939C70.7134 25.2845 71.2627 22.2458 72.493 21.7044C73.8223 21.0304 75.2833 19.8701 76.5137 19.3287C77.9638 18.7541 78.491 17.616 79.6775 16.7541C80.4574 16.2237 81.8855 15.605 82.9291 15.2735L83.0829 15.3398C83.3466 15.9143 84.2694 17.8701 85.302 18.953L85.6975 19.3508L86.1808 19.8591L86.4664 20.1464L86.6312 20.3121C86.6752 20.3784 86.9059 20.721 87.8945 22.4779L87.9714 22.5994L87.9934 22.6326L88.0154 22.6547C88.2131 22.8536 88.268 22.9088 88.301 22.953L88.3889 23.0414L88.4987 23.1188C88.5207 23.1298 88.5756 23.163 88.7075 23.2624C85.6865 24.069 82.3469 26.2569 78.8865 26.4779C81.7098 27.0303 83.8849 25.8259 86.4994 25.1629C87.6199 24.8646 91.311 25.6933 92.1239 24.721H92.1349C92.1569 24.9309 92.2777 25.174 92.4535 25.5055C92.4864 25.6381 92.5633 25.7928 92.6622 26.0138C92.7281 26.1353 92.816 26.3121 92.827 26.3895L92.8489 26.4558C92.9808 26.7652 94.0464 27.6049 94.4199 27.8038L94.7165 27.9806C94.8373 28.2237 95.1559 28.732 95.2987 28.964L95.3207 29.0082L95.3536 29.0414L99.2205 33.4944H100L95.6832 28.721C95.6832 28.721 95.1669 27.9033 95.09 27.7154Z" fill="#5B2A98"/>
<path d="M7.40541 16.246C7.47132 16.1355 7.4933 16.025 7.55921 15.9145C7.87778 15.2515 8.20735 14.6106 8.55888 14.0139L8.28424 13.8813C8.02059 14.3012 7.77892 14.7432 7.54822 15.2184C7.39443 15.5278 7.25162 15.8371 7.09782 16.1355C6.74629 16.9532 6.46067 17.7598 6.25195 18.5001L6.55954 18.5554C6.75727 17.8371 7.05388 17.0305 7.40541 16.246Z" fill="#5B2A98"/>
<path d="M41.9863 6.63256C42.7114 6.9751 43.5133 7.40604 44.2603 7.89223C44.3702 7.96957 44.48 8.02482 44.5899 8.10217C45.238 8.53311 45.8532 8.96405 46.4025 9.40604L46.6002 9.18504C46.2157 8.8646 45.7873 8.55521 45.3369 8.23477C45.0403 8.04692 44.7437 7.84803 44.4471 7.64913C43.6561 7.1519 42.8652 6.72096 42.1072 6.37842L41.9863 6.63256Z" fill="#5B2A98"/>
<path d="M12.1385 7.18547L12.4022 6.92027C12.9514 6.38989 13.5007 5.89265 14.05 5.45066L13.8412 5.24072C13.4348 5.55011 13.0503 5.89265 12.6548 6.25729C12.4022 6.50038 12.1385 6.74348 11.8968 6.98657C11.2597 7.6385 10.6774 8.30149 10.2051 8.94237L10.4797 9.08601C10.9411 8.47828 11.5123 7.80425 12.1385 7.18547Z" fill="#5B2A98"/>
<path d="M30.7477 0.709944C31.0443 0.709944 31.3519 0.709944 31.6595 0.732044C31.8023 0.732044 31.9231 0.732044 32.1099 0.754143C32.2307 0.754143 32.3845 0.754143 32.5713 0.776242L32.5603 0.588398C32.4065 0.555248 32.2637 0.555248 32.1099 0.555248C31.9561 0.533149 31.8023 0.533149 31.6485 0.533149C31.3519 0.51105 31.0443 0.51105 30.7477 0.522099C30.4401 0.5 30.1325 0.5 29.8359 0.5V0.698895C30.1435 0.687845 30.4401 0.687845 30.7477 0.709944Z" fill="#5B2A98"/>
<path d="M41.6566 3.06347C41.7994 3.10767 41.9093 3.15187 42.074 3.22921C42.1839 3.27341 42.3267 3.31761 42.4805 3.39496L42.5574 3.21816C42.4256 3.14082 42.2828 3.09662 42.14 3.05242C42.0081 2.97507 41.8653 2.93087 41.7225 2.88667C41.4479 2.75408 41.1622 2.66568 40.8766 2.56623C40.602 2.44468 40.3274 2.35629 40.0417 2.25684L39.9648 2.44468C40.2505 2.53308 40.5361 2.63253 40.8107 2.75408C41.0963 2.84247 41.382 2.94192 41.6566 3.06347Z" fill="#5B2A98"/>
<path d="M34.0878 0.897517C34.2966 0.930666 34.4723 0.919617 34.692 0.952766L34.714 0.753871C34.5053 0.731772 34.2966 0.731772 34.1098 0.709672C33.9011 0.676523 33.6924 0.654424 33.4727 0.632324V0.820169C33.6594 0.853318 33.8681 0.875418 34.0878 0.897517Z" fill="#5B2A98"/>
<path d="M13.1919 13.1632C14.1147 11.8814 15.1034 10.8206 16.18 9.83724C17.2675 8.88696 18.4649 8.04719 19.8161 7.22951L19.5085 6.84277C18.1573 7.66045 16.927 8.50022 15.8174 9.5168C14.675 10.4892 13.6533 11.6162 12.7305 12.9201L13.1919 13.1632Z" fill="#5B2A98"/>
<path d="M27.6174 3.16315H27.5625L27.5955 3.66039H27.6284C29.2652 3.52779 30.8032 3.48359 32.3851 3.60514C33.967 3.70459 35.5379 3.93663 37.2736 4.27917L37.3944 3.80403C35.6258 3.46149 34.0219 3.22945 32.44 3.1079C30.8252 3.01951 29.2872 3.03056 27.6174 3.16315Z" fill="#5B2A98"/>
<path d="M24.3101 7.88139C25.145 7.6162 26.0788 7.40625 27.1004 7.22946L26.9466 6.51123C25.8701 6.67697 24.9033 6.92007 24.0135 7.21841C23.0798 7.5057 22.2449 7.84824 21.377 8.24603L21.8055 8.88691C22.6404 8.48912 23.4423 8.16868 24.3101 7.88139Z" fill="#5B2A98"/>
<path d="M8.20549 19.5056C7.76607 20.71 7.41454 21.9255 7.2168 23.0415L7.73312 23.1188C7.85396 22.4779 8.01874 21.815 8.22746 21.1409C8.40323 20.5332 8.61195 19.9476 8.84264 19.3398C9.31501 18.0802 9.90822 16.8868 10.5234 15.8592L10.073 15.6382C9.41388 16.6658 8.82067 17.9255 8.32633 19.2072C8.29337 19.2846 8.23844 19.3951 8.20549 19.5056Z" fill="#5B2A98"/>
<path d="M22.3015 1.68217C24.0592 1.25123 25.8058 0.952892 27.5965 0.798197H27.6294L27.6184 0.610352H27.5965C25.7729 0.765047 24.0152 1.06339 22.2356 1.49433C22.0928 1.52748 21.939 1.58273 21.7852 1.62693L21.8511 1.81477C21.9939 1.77057 22.1477 1.72637 22.3015 1.68217Z" fill="#5B2A98"/>
<path d="M17.125 12.6547L16.5537 12.1465C14.06 14.4779 12.2475 17.3951 11.3027 20.5442L12.0717 20.7431C12.9835 17.7045 14.7302 14.8978 17.125 12.6547Z" fill="#5B2A98"/>
<path d="M33.9127 7.16298L34.0665 6.44475C32.6934 6.20165 31.2653 6.10221 29.8262 6.16851L29.8591 6.89779C31.2433 6.83149 32.6055 6.91989 33.9127 7.16298Z" fill="#5B2A98"/>
<path d="M39.8448 9.90338L40.2292 9.27355C39.3944 8.84261 38.4935 8.46692 37.5598 8.14648L37.2852 8.83156C38.175 9.12991 39.0318 9.49455 39.8448 9.90338Z" fill="#5B2A98"/>
<path d="M20.0921 21.3178C20.916 20.6438 21.3774 20.3565 21.3774 20.3565L23.5085 20.7432L27.2655 18.8096L29.3308 18.7985L32.978 16.1024C33.1427 15.9698 33.4723 15.9587 33.4723 15.9587L35.4606 16.2681L38.8771 18.1355L42.5572 17.1189L43.8535 16.1024L43.5129 15.6383C40.437 12.025 35.8781 9.73779 30.7699 9.73779C22.1354 9.73779 15.0168 16.3123 14.1051 24.7543C14.0721 25.0305 14.0611 25.3178 14.0391 25.5941C14.0941 25.5609 14.1929 25.5057 14.3357 25.4173C14.5445 25.2957 19.8175 21.5388 20.0921 21.3178Z" fill="#5B2A98"/>
<path d="M7.65682 47.1628H7.06361C6.50335 47.1628 6.14083 47.0302 5.96507 46.7429C5.75634 46.4888 5.64649 45.7153 5.64649 44.4556V29.428H10.2713V44.4556C10.2713 45.5827 10.2054 46.2899 10.0406 46.6655C9.88685 47.0965 9.28265 47.1628 8.93112 47.1628H8.30495V48.0357H16.0057V47.1628H15.4784C14.8742 47.1628 14.5117 47.0302 14.303 46.7429C14.0943 46.4888 13.9954 45.7153 13.9954 44.4556V31.3507C13.9954 29.9474 14.1492 29.3728 14.292 29.1407C14.4678 28.8203 14.8303 28.6766 15.4455 28.6766H16.0057V27.8037H0V28.6766H0.582226C1.16445 28.6766 1.53795 28.8313 1.70274 29.1297C1.85653 29.4501 1.93343 30.1794 1.93343 31.3507V44.4556C1.93343 45.2622 1.90047 46.4004 1.68076 46.7539C1.49401 47.0302 1.1315 47.1628 0.582226 47.1628H0V48.0357H7.65682V47.1628Z" fill="#5B2A98"/>
<path d="M31.7587 45.395C31.6379 45.9696 31.4621 46.3121 31.2424 46.3453C31.2205 46.29 31.1765 46.1353 31.1765 45.6381C31.1765 43.9254 30.4735 43.5718 29.8802 43.5718C29.4408 43.5718 29.0673 43.7928 28.7927 44.2237C28.529 44.6105 28.4082 45.1077 28.4082 45.7707C28.4082 46.3895 28.584 46.9751 28.9355 47.4945C29.32 48.0248 29.8033 48.279 30.4075 48.279C30.9568 48.279 31.4621 48.0359 31.9016 47.5829C32.3629 47.1298 32.6705 46.4779 32.8243 45.605C33.0001 44.8204 33.077 43.3729 33.077 41.0635V35.2514H35.4498V45.4282C35.4498 46.1906 35.351 46.6768 35.1752 46.8757C35.0104 47.0525 34.7578 47.163 34.4502 47.163H34.2854V48.0359H39.7341V47.163H39.5584C39.3387 47.163 39.053 47.0967 38.8992 46.7762C38.8114 46.5884 38.7125 46.1906 38.7125 45.3619V36.5332C38.7125 35.4282 38.9981 34.8757 39.5584 34.8757H39.7341V33.9917H30.8689V34.8757H31.0447C31.3743 34.8757 31.6159 35.0193 31.7697 35.3287C31.9345 35.616 32.0334 36.2459 32.0334 37.0746V41.0635C32.0334 43.7155 31.8796 44.8867 31.7587 45.395Z" fill="#5B2A98"/>
<path d="M41.767 46.7762C41.6352 47.0414 41.4155 47.163 41.0749 47.163H40.9102V48.0359H46.1722V47.163H46.0074C45.3702 47.163 45.2274 46.2127 45.2164 45.395L47.6662 39.4834V45.3619C47.6662 46.5552 47.4135 47.163 46.9192 47.163H46.7544V48.0359H52.0164V47.163H51.8516C51.4891 47.163 51.2584 47.0525 51.1156 46.8425C51.0497 46.7099 50.8849 46.3011 50.8849 45.2956V36.5663C50.8849 35.9033 50.9728 35.4282 51.1376 35.174C51.2913 34.9751 51.522 34.8757 51.8516 34.8757H52.0164V33.9917H46.7544V34.8757H46.9192C47.1608 34.8757 47.3256 34.9751 47.4684 35.1851C47.6003 35.4613 47.6662 35.9144 47.6662 36.5994L45.2164 42.5773V36.732C45.2164 35.7928 45.3263 35.395 45.4142 35.2182C45.524 34.9751 45.7108 34.8757 46.0074 34.8757H46.1722V33.9917H40.9102V34.8757H41.0749C41.3056 34.8757 41.9977 34.8757 41.9977 36.732V45.2293C41.9977 46.1464 41.8549 46.5994 41.767 46.7762Z" fill="#5B2A98"/>
<path d="M93.4526 42.047L91.1237 33.9917H86.7734V34.8757H86.9492C87.1689 34.8757 87.4545 34.942 87.6193 35.2735C87.7621 35.4945 87.839 35.9365 87.839 36.5994V45.395C87.839 46.1022 87.7621 46.5331 87.6083 46.8094C87.4875 47.0304 87.2568 47.163 86.9492 47.163H86.7734V48.0359H90.0031V47.163H89.8384C89.4758 47.163 89.2232 47.0193 89.1023 46.7762C88.9815 46.5331 88.9156 46.0801 88.9156 45.4945V37.8039L91.8487 48.0359H92.6396L95.7155 37.6271V45.2624C95.7155 46.0138 95.6496 46.511 95.4958 46.7652C95.342 47.0414 95.1004 47.163 94.7269 47.163H94.5621V48.0359H99.9998V47.163H99.8351C99.6154 47.163 99.3188 47.0967 99.1759 46.7762C99.0441 46.5 98.9782 46.0027 98.9782 45.2624V36.6989C98.9782 35.9696 99.0551 35.4945 99.2089 35.2514C99.3188 35.0083 99.5385 34.8757 99.8351 34.8757H99.9998V33.9917H95.7595L93.4526 42.047Z" fill="#5B2A98"/>
<path d="M17.6531 46.7762C17.5103 47.0414 17.3015 47.163 16.961 47.163H16.7852V48.0359H22.0582V47.163H21.8825C21.2453 47.163 21.1025 46.2127 21.1025 45.395L23.5522 39.4834V45.3619C23.5522 46.5552 23.2886 47.163 22.7613 47.163H22.5965V48.0359H27.8695V47.163H27.6937C27.3642 47.163 27.1335 47.0525 27.0016 46.8425C26.9357 46.7099 26.771 46.3011 26.771 45.2956V36.5663C26.771 35.9033 26.8588 35.4282 27.0236 35.174C27.1664 34.9751 27.3971 34.8757 27.6937 34.8757H27.8695V33.9917H22.5965V34.8757H22.7613C23.0469 34.8757 23.2007 34.9641 23.3215 35.1961C23.4753 35.4613 23.5412 35.8923 23.5522 36.5994L21.1025 42.5773V36.732C21.1025 35.7928 21.2123 35.395 21.3002 35.2182C21.4101 34.9751 21.5858 34.8757 21.8825 34.8757H22.0582V33.9917H16.7852V34.8757H16.961C17.719 34.8757 17.8838 35.8812 17.8838 36.732V45.2293C17.8838 45.9033 17.7959 46.4668 17.6531 46.7762Z" fill="#5B2A98"/>
<path d="M53.9821 46.8094C53.8832 47.0083 53.6525 47.1298 53.312 47.163L53.1582 47.174V48.0359H58.6729V47.163H58.4971C58.0906 47.163 57.816 47.0304 57.6732 46.8204C57.5414 46.5331 57.4755 46.0801 57.4755 45.4282V35.2514H59.2002C59.9032 35.2514 60.4086 35.395 60.6612 35.6602C60.9139 35.9586 61.1226 36.6547 61.2874 37.7818L61.3094 37.9254H61.9795V33.9917H53.1582V34.8646L53.312 34.8757C53.6635 34.8978 53.9052 35.0304 54.0151 35.2624C54.1469 35.5055 54.2128 35.9586 54.2128 36.5994V45.3287C54.2128 46.1022 54.1469 46.5663 53.9821 46.8094Z" fill="#5B2A98"/>
<path d="M78.8409 45.395L81.2797 39.4834V45.3619C81.2797 46.1795 81.1588 47.163 80.5327 47.163H80.3679V48.0359H85.6409V47.163H85.4651C85.1136 47.163 84.8719 47.0525 84.7401 46.8425C84.6632 46.7099 84.5094 46.3011 84.5094 45.2956V36.5663C84.5094 35.9033 84.5973 35.4282 84.7511 35.174C84.9049 34.9751 85.1465 34.8757 85.4651 34.8757H85.6409V33.9917H80.3679V34.8757H80.5327C80.7853 34.8757 80.9501 34.9751 81.0929 35.1851C81.2247 35.4613 81.2797 35.9144 81.2797 36.5994L78.8409 42.5773V36.732C78.8409 35.7928 78.9508 35.395 79.0386 35.2182C79.1485 34.9751 79.3243 34.8757 79.6209 34.8757H79.7966V33.9917H74.5566V34.8757H74.7324C75.4904 34.8757 75.6552 35.8812 75.6552 36.732V45.2293C75.6552 45.9033 75.5673 46.4668 75.4245 46.7762C75.2817 47.0414 75.0729 47.163 74.7324 47.163H74.5566V48.0359H79.7966V47.163H79.6209C78.9837 47.163 78.8409 46.2127 78.8409 45.395Z" fill="#5B2A98"/>
<path d="M66.8343 37.7044C67.2738 36.3564 67.7571 35.7155 68.3613 35.6823V35.5166L68.3943 35.6823C68.7348 35.6823 69.0424 35.9475 69.2951 36.4669C69.6796 37.3398 69.8773 38.9973 69.8773 41.2735C69.8773 43.4392 69.6905 45.0414 69.328 45.9033C69.0424 46.5332 68.7678 46.6105 68.57 46.6105L68.3943 46.6215C67.845 46.5 67.3177 45.9365 66.8343 44.953V37.7044ZM63.4289 53.163C63.2531 53.4392 62.9895 53.5939 62.605 53.616L62.4512 53.6381V54.5H68.2844V53.616H68.1086C67.6143 53.616 67.3507 53.5387 67.2408 53.4392C67.12 53.3729 67.0321 53.2182 66.9332 53.0083C66.8673 52.7431 66.8343 52.2679 66.8343 51.5939V47.0414C67.1309 47.4392 67.3946 47.7376 67.6582 47.9365C67.845 48.0801 68.0647 48.1906 68.2954 48.3011C68.6469 48.4226 68.9326 48.4779 69.2401 48.4779C70.0201 48.4779 70.7342 48.1575 71.3603 47.5166C71.9755 46.8867 72.4589 45.9696 72.7774 44.7983C73.096 43.6713 73.2388 42.4006 73.2388 40.931C73.2388 39.5829 73.096 38.4006 72.7774 37.2956C72.4479 36.0801 71.9865 35.1851 71.4043 34.5884C70.8111 33.9144 70.097 33.5498 69.339 33.5498C68.9326 33.5498 68.581 33.6823 68.2734 33.8149C68.0537 33.9365 67.812 34.0801 67.5814 34.3011C67.3287 34.5221 67.098 34.8205 66.8343 35.2735V31.0525L65.8127 31.0083L65.7688 31.1188C65.2085 32.489 64.1319 33.4614 62.561 34.0028L62.4512 34.0359V34.8647L62.605 34.8757C63.0114 34.9089 63.2421 35.0083 63.3849 35.2183C63.4948 35.4393 63.6156 36.0138 63.6156 37.0083V51.5276C63.6156 52.7983 63.4728 53.0856 63.4289 53.163Z" fill="#5B2A98"/>
</g>
<defs>
<clipPath id="clip0_1751_1677">
<rect width="100" height="54" fill="white" transform="translate(0 0.5)"/>
</clipPath>
</defs>
</svg>
