<svg width="100" height="54" viewBox="0 0 100 54" fill="none" xmlns="http://www.w3.org/2000/svg">
<path d="M95.09 27.2153C95.0131 27.0385 93.3982 26.0993 93.2664 25.7789C93.2115 25.5358 92.9039 25.0385 92.8819 24.8507C92.6952 24.4971 92.5304 23.9115 92.4754 23.8452V23.8562C92.4425 23.8562 91.8163 23.6463 91.1902 23.4363C90.6848 23.2816 90.1905 23.1159 89.9818 23.0606L89.8499 23.0054L89.7291 22.9059C89.7291 22.9059 89.4764 22.7402 89.2238 22.5634C88.9711 22.3866 88.7184 22.2098 88.7075 22.2098V22.2209C88.6196 22.1325 88.6415 22.1546 88.3449 21.8452C88.334 21.8341 87.1146 19.6684 86.9608 19.5137C86.818 19.359 86.6532 19.1932 86.5104 19.0385C86.2138 18.7402 85.9172 18.4308 85.6315 18.1325C84.4671 16.9391 83.4235 14.4971 83.4235 14.4971L78.7657 12.3645L73.0313 8.82863L70.8013 5.65736L66.3302 2.12146L61.8372 4.93913L60.2004 5.90046L58.0582 6.95018L54.5978 7.85625L50.8957 10.1988L49.973 10.5966L49.3688 11.2264L42.7885 16.9612L41.4044 17.4584L38.8338 18.1656L35.8128 16.3977L33.4509 15.9888C33.4509 15.9888 33.3411 16.0662 33.1653 16.1988L32.9896 16.3424C32.627 16.5855 32.3964 16.7844 32.1217 17.0386C31.2429 17.7347 30.1334 18.5966 29.9576 18.6187C29.7818 18.7402 29.672 18.8286 29.672 18.8286L27.4749 18.9944C27.4749 18.9944 27.3211 19.0717 27.0794 19.2043C26.651 19.3811 25.9699 19.7347 25.157 20.1988C24.6956 20.4419 24.3221 20.6297 24.2452 20.6739C24.0145 20.7844 23.8717 20.8617 23.8717 20.8617L21.4879 20.3314C21.4879 20.3314 15.4349 24.9391 15.0285 25.0606C14.6879 25.2706 14.3803 25.4474 14.1606 25.58C13.9299 25.7126 13.7981 25.801 13.7981 25.801L10.832 26.8507H12.4689L12.7325 26.7291V26.7402L12.7874 26.707L13.0071 26.6186C14.3583 26.0662 17.1157 25.0275 18.2252 24.2098C19.093 23.5358 21.7405 21.9667 21.6746 20.8286L23.4433 21.2374C22.2019 22.2098 21.356 23.9336 20.3124 25.0938C21.4769 24.2651 23.6959 22.1325 25.0801 21.6021C27.4859 20.685 27.2442 20.475 27.8594 19.4142L29.2106 19.3148C28.0681 20.5745 27.8923 22.6518 27.2332 23.7899C29.1007 23.2374 30.6716 21.6573 31.946 19.5026C32.5172 18.5413 34.143 17.8783 34.2749 17.1822C34.2968 17.0717 34.2089 16.906 34.1211 16.8618C33.9731 16.7868 33.8564 16.6615 33.7915 16.5082L35.659 16.8286L38.6031 18.5524L38.7679 18.6518L38.9546 18.5966L41.5252 17.8894H41.5472L41.5582 17.8783L42.9423 17.3921L43.0192 17.359L43.0412 17.3479C42.7116 17.7126 42.3711 18.0993 41.9756 18.5413C41.4044 19.1711 40.4486 18.9723 39.8005 19.4142C39.0425 19.8562 38.713 20.5082 38.1637 21.1601C36.9773 22.5855 36.7685 24.2209 34.6923 25.5358C36.428 24.6628 38.0648 23.2374 39.4709 21.9336C40.6684 20.9501 40.4486 21.3811 41.646 20.8397C42.5139 20.5082 43.0632 19.9557 43.8212 19.4142C45.2383 18.2098 46.6444 17.6684 47.732 16.243C48.9294 14.7181 49.4676 12.7181 50.2366 10.9723L51.0715 10.6076L51.1045 10.5966L51.1374 10.5745L54.7736 8.27614L55.18 8.16565C56.5093 8.75128 56.8388 9.7347 56.2017 11.138C55.7733 12.3314 54.3561 12.4419 53.5982 12.9944C51.7416 14.5192 46.4467 23.0385 44.8208 24.7844C46.3368 23.9115 53.0928 15.8452 54.6198 15.0717C56.3555 14.1988 57.3222 14.6408 58.8382 13.1049C60.3652 11.801 63.9244 8.76233 64.6824 6.68499C65.023 5.73471 64.8801 4.25405 65.5722 3.12698L66.3083 2.67395L70.4717 5.9778L70.7244 6.3314C70.5486 7.58001 70.6475 10.906 69.0876 11.127C68.78 11.1712 67.9451 11.0275 67.7254 11.138C67.5057 11.2485 67.0662 12.1214 66.8575 12.3424C65.5503 13.8783 62.4634 19.5468 61.4307 20.7955C63.3971 19.801 66.4181 14.6408 68.2636 13.5468C69.6039 12.7734 75.8326 12.3203 75.3053 10.7623L78.535 12.7513L78.557 12.7734L78.5789 12.7844L79.4248 13.1712C77.7331 14.8176 76.5906 17.2927 74.3166 18.1988C73.0643 18.6408 72.9544 20.0109 72.0097 20.9501C71.1528 21.7568 70.4388 24.8396 69.2523 25.0938C70.7134 24.7844 71.2627 21.7457 72.493 21.2043C73.8223 20.5303 75.2833 19.37 76.5137 18.8286C77.9638 18.254 78.491 17.1159 79.6775 16.254C80.4574 15.7236 81.8855 15.1049 82.9291 14.7734L83.0829 14.8397C83.3466 15.4142 84.2694 17.37 85.302 18.4529L85.6975 18.8507L86.1808 19.359L86.4664 19.6463L86.6312 19.812C86.6752 19.8783 86.9059 20.2209 87.8945 21.9778L87.9714 22.0993L87.9934 22.1325L88.0154 22.1546C88.2131 22.3535 88.268 22.4087 88.301 22.4529L88.3889 22.5413L88.4987 22.6187C88.5207 22.6297 88.5756 22.6629 88.7075 22.7623C85.6865 23.5689 82.3469 25.7568 78.8865 25.9778C81.7098 26.5302 83.8849 25.3258 86.4994 24.6628C87.6199 24.3645 91.311 25.1932 92.1239 24.2209H92.1349C92.1569 24.4308 92.2777 24.6739 92.4535 25.0054C92.4864 25.138 92.5633 25.2927 92.6622 25.5137C92.7281 25.6352 92.816 25.812 92.827 25.8894L92.8489 25.9557C92.9808 26.2651 94.0464 27.1048 94.4199 27.3037L94.7165 27.4805C94.8373 27.7236 95.1559 28.2319 95.2987 28.4639L95.3207 28.5081L95.3536 28.5413L99.2205 32.9943H100L95.6832 28.2209C95.6832 28.2209 95.1669 27.4032 95.09 27.2153Z" fill="#0F524D"/>
<path d="M7.40444 15.746C7.47035 15.6355 7.49233 15.525 7.55824 15.4145C7.87681 14.7515 8.20638 14.1106 8.55791 13.5139L8.28327 13.3813C8.01962 13.8012 7.77795 14.2432 7.54725 14.7184C7.39346 15.0278 7.25065 15.3371 7.09685 15.6355C6.74532 16.4532 6.4597 17.2598 6.25098 18.0001L6.55857 18.0554C6.7563 17.3371 7.05291 16.5305 7.40444 15.746Z" fill="#0F524D"/>
<path d="M41.9863 6.13256C42.7114 6.4751 43.5133 6.90604 44.2603 7.39223C44.3702 7.46957 44.48 7.52482 44.5899 7.60217C45.238 8.03311 45.8532 8.46405 46.4025 8.90604L46.6002 8.68504C46.2157 8.3646 45.7873 8.05521 45.3369 7.73477C45.0403 7.54692 44.7437 7.34803 44.4471 7.14913C43.6561 6.6519 42.8652 6.22096 42.1072 5.87842L41.9863 6.13256Z" fill="#0F524D"/>
<path d="M12.1385 6.68523L12.4022 6.42003C12.9514 5.88965 13.5007 5.39241 14.05 4.95042L13.8412 4.74048C13.4348 5.04987 13.0503 5.39241 12.6548 5.75705C12.4022 6.00014 12.1385 6.24324 11.8968 6.48633C11.2597 7.13826 10.6774 7.80125 10.2051 8.44213L10.4797 8.58577C10.9411 7.97804 11.5123 7.30401 12.1385 6.68523Z" fill="#0F524D"/>
<path d="M30.7487 0.209944C31.0453 0.209944 31.3529 0.209944 31.6605 0.232044C31.8033 0.232044 31.9241 0.232044 32.1109 0.254143C32.2317 0.254143 32.3855 0.254143 32.5723 0.276242L32.5613 0.0883976C32.4075 0.0552485 32.2647 0.0552485 32.1109 0.0552485C31.9571 0.0331491 31.8033 0.0331491 31.6495 0.0331491C31.3529 0.0110497 31.0453 0.0110497 30.7487 0.0220994C30.4411 0 30.1335 0 29.8369 0V0.198895C30.1445 0.187845 30.4411 0.187845 30.7487 0.209944Z" fill="#0F524D"/>
<path d="M41.6566 2.56371C41.7994 2.60791 41.9093 2.65211 42.074 2.72945C42.1839 2.77365 42.3267 2.81785 42.4805 2.8952L42.5574 2.7184C42.4256 2.64106 42.2828 2.59686 42.14 2.55266C42.0081 2.47531 41.8653 2.43111 41.7225 2.38691C41.4479 2.25432 41.1622 2.16592 40.8766 2.06647C40.602 1.94492 40.3274 1.85653 40.0417 1.75708L39.9648 1.94492C40.2505 2.03332 40.5361 2.13277 40.8107 2.25432C41.0963 2.34271 41.382 2.44216 41.6566 2.56371Z" fill="#0F524D"/>
<path d="M34.0878 0.397761C34.2966 0.43091 34.4723 0.419861 34.692 0.45301L34.714 0.254115C34.5053 0.232016 34.2966 0.232016 34.1098 0.209916C33.9011 0.176767 33.6924 0.154668 33.4727 0.132568V0.320413C33.6594 0.353562 33.8681 0.375662 34.0878 0.397761Z" fill="#0F524D"/>
<path d="M13.1928 12.663C14.1156 11.3812 15.1043 10.3204 16.1809 9.337C17.2684 8.38672 18.4658 7.54695 19.817 6.72927L19.5094 6.34253C18.1582 7.16021 16.9279 7.99998 15.8183 9.01656C14.6759 9.98893 13.6542 11.116 12.7314 12.4199L13.1928 12.663Z" fill="#0F524D"/>
<path d="M27.6174 2.66315H27.5625L27.5955 3.16039H27.6284C29.2652 3.02779 30.8032 2.98359 32.3851 3.10514C33.967 3.20459 35.5379 3.43663 37.2736 3.77917L37.3944 3.30403C35.6258 2.96149 34.0219 2.72945 32.44 2.6079C30.8252 2.51951 29.2872 2.53056 27.6174 2.66315Z" fill="#0F524D"/>
<path d="M24.311 7.38127C25.1459 7.11608 26.0797 6.90613 27.1013 6.72934L26.9475 6.01111C25.871 6.17685 24.9042 6.41995 24.0144 6.71829C23.0807 7.00558 22.2458 7.34812 21.3779 7.74591L21.8064 8.38679C22.6413 7.989 23.4432 7.66856 24.311 7.38127Z" fill="#0F524D"/>
<path d="M8.20646 19.0056C7.76704 20.21 7.41551 21.4255 7.21777 22.5415L7.73409 22.6188C7.85493 21.9779 8.01971 21.315 8.22843 20.6409C8.4042 20.0332 8.61292 19.4476 8.84361 18.8398C9.31598 17.5802 9.90919 16.3868 10.5244 15.3592L10.074 15.1382C9.41485 16.1658 8.82164 17.4255 8.3273 18.7072C8.29434 18.7846 8.23941 18.8951 8.20646 19.0056Z" fill="#0F524D"/>
<path d="M22.3005 1.18229C24.0582 0.751356 25.8048 0.453014 27.5955 0.298319H27.6284L27.6174 0.110474H27.5955C25.7719 0.265169 24.0142 0.563511 22.2346 0.99445C22.0918 1.0276 21.938 1.08285 21.7842 1.12705L21.8501 1.31489C21.9929 1.27069 22.1467 1.22649 22.3005 1.18229Z" fill="#0F524D"/>
<path d="M17.126 12.1546L16.5547 11.6464C14.061 13.9778 12.2485 16.895 11.3037 20.0441L12.0727 20.243C12.9845 17.2044 14.7312 14.3977 17.126 12.1546Z" fill="#0F524D"/>
<path d="M33.9127 6.66286L34.0665 5.94463C32.6934 5.70153 31.2653 5.60209 29.8262 5.66839L29.8591 6.39767C31.2433 6.33137 32.6055 6.41977 33.9127 6.66286Z" fill="#0F524D"/>
<path d="M39.8448 9.40326L40.2292 8.77343C39.3944 8.34249 38.4935 7.9668 37.5598 7.64636L37.2852 8.33144C38.175 8.62979 39.0318 8.99443 39.8448 9.40326Z" fill="#0F524D"/>
<path d="M20.093 20.8176C20.9169 20.1436 21.3783 19.8563 21.3783 19.8563L23.5094 20.243L27.2664 18.3094L29.3317 18.2983L32.9789 15.6022C33.1436 15.4696 33.4732 15.4585 33.4732 15.4585L35.4615 15.7679L38.878 17.6353L42.5581 16.6187L43.8544 15.6022L43.5138 15.1381C40.4379 11.5248 35.879 9.23755 30.7708 9.23755C22.1363 9.23755 15.0177 15.8121 14.106 24.2541C14.073 24.5303 14.062 24.8176 14.04 25.0939C14.095 25.0607 14.1938 25.0055 14.3366 24.9171C14.5454 24.7955 19.8184 21.0386 20.093 20.8176Z" fill="#0F524D"/>
<path d="M7.65682 46.6628H7.06361C6.50335 46.6628 6.14083 46.5302 5.96507 46.2429C5.75634 45.9888 5.64649 45.2153 5.64649 43.9556V28.928H10.2713V43.9556C10.2713 45.0827 10.2054 45.7899 10.0406 46.1655C9.88685 46.5965 9.28265 46.6628 8.93112 46.6628H8.30495V47.5357H16.0057V46.6628H15.4784C14.8742 46.6628 14.5117 46.5302 14.303 46.2429C14.0943 45.9888 13.9954 45.2153 13.9954 43.9556V30.8507C13.9954 29.4474 14.1492 28.8728 14.292 28.6407C14.4678 28.3203 14.8303 28.1766 15.4455 28.1766H16.0057V27.3037H0V28.1766H0.582226C1.16445 28.1766 1.53795 28.3313 1.70274 28.6297C1.85653 28.9501 1.93343 29.6794 1.93343 30.8507V43.9556C1.93343 44.7622 1.90047 45.9004 1.68076 46.2539C1.49401 46.5302 1.1315 46.6628 0.582226 46.6628H0V47.5357H7.65682V46.6628Z" fill="#0F524D"/>
<path d="M31.7587 44.8951C31.6379 45.4697 31.4621 45.8122 31.2424 45.8454C31.2205 45.7901 31.1765 45.6354 31.1765 45.1382C31.1765 43.4255 30.4735 43.0719 29.8802 43.0719C29.4408 43.0719 29.0673 43.2929 28.7927 43.7238C28.529 44.1106 28.4082 44.6078 28.4082 45.2708C28.4082 45.8896 28.584 46.4752 28.9355 46.9946C29.32 47.5249 29.8033 47.7791 30.4075 47.7791C30.9568 47.7791 31.4621 47.536 31.9016 47.083C32.3629 46.6299 32.6705 45.978 32.8243 45.1051C33.0001 44.3205 33.077 42.873 33.077 40.5636V34.7515H35.4498V44.9283C35.4498 45.6907 35.351 46.1769 35.1752 46.3758C35.0104 46.5526 34.7578 46.6631 34.4502 46.6631H34.2854V47.536H39.7341V46.6631H39.5584C39.3387 46.6631 39.053 46.5968 38.8992 46.2763C38.8114 46.0885 38.7125 45.6907 38.7125 44.862V36.0333C38.7125 34.9283 38.9981 34.3758 39.5584 34.3758H39.7341V33.4918H30.8689V34.3758H31.0447C31.3743 34.3758 31.6159 34.5194 31.7697 34.8288C31.9345 35.1161 32.0334 35.746 32.0334 36.5747V40.5636C32.0334 43.2156 31.8796 44.3868 31.7587 44.8951Z" fill="#0F524D"/>
<path d="M41.767 46.2763C41.6352 46.5415 41.4155 46.6631 41.0749 46.6631H40.9102V47.536H46.1722V46.6631H46.0074C45.3702 46.6631 45.2274 45.7128 45.2164 44.8951L47.6662 38.9835V44.862C47.6662 46.0553 47.4135 46.6631 46.9192 46.6631H46.7544V47.536H52.0164V46.6631H51.8516C51.4891 46.6631 51.2584 46.5526 51.1156 46.3426C51.0497 46.21 50.8849 45.8012 50.8849 44.7957V36.0664C50.8849 35.4034 50.9728 34.9283 51.1376 34.6741C51.2913 34.4752 51.522 34.3758 51.8516 34.3758H52.0164V33.4918H46.7544V34.3758H46.9192C47.1608 34.3758 47.3256 34.4752 47.4684 34.6852C47.6003 34.9614 47.6662 35.4145 47.6662 36.0995L45.2164 42.0774V36.2321C45.2164 35.2929 45.3263 34.8951 45.4142 34.7183C45.524 34.4752 45.7108 34.3758 46.0074 34.3758H46.1722V33.4918H40.9102V34.3758H41.0749C41.3056 34.3758 41.9977 34.3758 41.9977 36.2321V44.7294C41.9977 45.6465 41.8549 46.0995 41.767 46.2763Z" fill="#0F524D"/>
<path d="M93.4526 41.5471L91.1237 33.4918H86.7734V34.3758H86.9492C87.1689 34.3758 87.4545 34.4421 87.6193 34.7736C87.7621 34.9946 87.839 35.4366 87.839 36.0995V44.8951C87.839 45.6023 87.7621 46.0332 87.6083 46.3095C87.4875 46.5305 87.2568 46.6631 86.9492 46.6631H86.7734V47.536H90.0031V46.6631H89.8384C89.4758 46.6631 89.2232 46.5194 89.1023 46.2763C88.9815 46.0332 88.9156 45.5802 88.9156 44.9946V37.304L91.8487 47.536H92.6396L95.7155 37.1272V44.7625C95.7155 45.5139 95.6496 46.0111 95.4958 46.2653C95.342 46.5415 95.1004 46.6631 94.7269 46.6631H94.5621V47.536H99.9998V46.6631H99.8351C99.6154 46.6631 99.3188 46.5968 99.1759 46.2763C99.0441 46.0001 98.9782 45.5028 98.9782 44.7625V36.199C98.9782 35.4697 99.0551 34.9946 99.2089 34.7515C99.3188 34.5084 99.5385 34.3758 99.8351 34.3758H99.9998V33.4918H95.7595L93.4526 41.5471Z" fill="#0F524D"/>
<path d="M17.654 46.2763C17.5112 46.5415 17.3024 46.6631 16.9619 46.6631H16.7861V47.536H22.0591V46.6631H21.8834C21.2462 46.6631 21.1034 45.7128 21.1034 44.8951L23.5531 38.9835V44.862C23.5531 46.0553 23.2895 46.6631 22.7622 46.6631H22.5974V47.536H27.8704V46.6631H27.6946C27.3651 46.6631 27.1344 46.5526 27.0025 46.3426C26.9366 46.21 26.7719 45.8012 26.7719 44.7957V36.0664C26.7719 35.4034 26.8597 34.9283 27.0245 34.6741C27.1673 34.4752 27.398 34.3758 27.6946 34.3758H27.8704V33.4918H22.5974V34.3758H22.7622C23.0478 34.3758 23.2016 34.4642 23.3224 34.6962C23.4762 34.9614 23.5421 35.3924 23.5531 36.0995L21.1034 42.0774V36.2321C21.1034 35.2929 21.2132 34.8951 21.3011 34.7183C21.411 34.4752 21.5867 34.3758 21.8834 34.3758H22.0591V33.4918H16.7861V34.3758H16.9619C17.7199 34.3758 17.8847 35.3813 17.8847 36.2321V44.7294C17.8847 45.4034 17.7968 45.9669 17.654 46.2763Z" fill="#0F524D"/>
<path d="M53.9821 46.3095C53.8832 46.5084 53.6525 46.6299 53.312 46.6631L53.1582 46.6741V47.536H58.6729V46.6631H58.4971C58.0906 46.6631 57.816 46.5305 57.6732 46.3205C57.5414 46.0332 57.4755 45.5802 57.4755 44.9283V34.7515H59.2002C59.9032 34.7515 60.4086 34.8951 60.6612 35.1603C60.9139 35.4587 61.1226 36.1548 61.2874 37.2819L61.3094 37.4255H61.9795V33.4918H53.1582V34.3647L53.312 34.3758C53.6635 34.3979 53.9052 34.5305 54.0151 34.7625C54.1469 35.0056 54.2128 35.4587 54.2128 36.0995V44.8288C54.2128 45.6023 54.1469 46.0664 53.9821 46.3095Z" fill="#0F524D"/>
<path d="M78.8419 44.8951L81.2807 38.9835V44.862C81.2807 45.6796 81.1598 46.6631 80.5337 46.6631H80.3689V47.536H85.6419V46.6631H85.4661C85.1146 46.6631 84.8729 46.5526 84.7411 46.3426C84.6642 46.21 84.5104 45.8012 84.5104 44.7957V36.0664C84.5104 35.4034 84.5983 34.9283 84.7521 34.6741C84.9059 34.4752 85.1475 34.3758 85.4661 34.3758H85.6419V33.4918H80.3689V34.3758H80.5337C80.7863 34.3758 80.9511 34.4752 81.0939 34.6852C81.2257 34.9614 81.2807 35.4145 81.2807 36.0995L78.8419 42.0774V36.2321C78.8419 35.2929 78.9518 34.8951 79.0396 34.7183C79.1495 34.4752 79.3253 34.3758 79.6219 34.3758H79.7976V33.4918H74.5576V34.3758H74.7334C75.4914 34.3758 75.6562 35.3813 75.6562 36.2321V44.7294C75.6562 45.4034 75.5683 45.9669 75.4255 46.2763C75.2827 46.5415 75.0739 46.6631 74.7334 46.6631H74.5576V47.536H79.7976V46.6631H79.6219C78.9847 46.6631 78.8419 45.7128 78.8419 44.8951Z" fill="#0F524D"/>
<path d="M66.8343 37.2045C67.2738 35.8565 67.7571 35.2156 68.3613 35.1824V35.0167L68.3943 35.1824C68.7348 35.1824 69.0424 35.4476 69.2951 35.967C69.6796 36.8399 69.8773 38.4974 69.8773 40.7736C69.8773 42.9393 69.6905 44.5415 69.328 45.4034C69.0424 46.0333 68.7678 46.1106 68.57 46.1106L68.3943 46.1216C67.845 46.0001 67.3177 45.4366 66.8343 44.4531V37.2045ZM63.4289 52.6631C63.2531 52.9393 62.9895 53.094 62.605 53.1161L62.4512 53.1382V54.0001H68.2844V53.1161H68.1086C67.6143 53.1161 67.3507 53.0388 67.2408 52.9393C67.12 52.873 67.0321 52.7183 66.9332 52.5084C66.8673 52.2432 66.8343 51.768 66.8343 51.094V46.5415C67.1309 46.9393 67.3946 47.2377 67.6582 47.4366C67.845 47.5802 68.0647 47.6907 68.2954 47.8012C68.6469 47.9227 68.9326 47.978 69.2401 47.978C70.0201 47.978 70.7342 47.6576 71.3603 47.0167C71.9755 46.3868 72.4589 45.4697 72.7774 44.2984C73.096 43.1714 73.2388 41.9007 73.2388 40.4311C73.2388 39.083 73.096 37.9007 72.7774 36.7957C72.4479 35.5802 71.9865 34.6852 71.4043 34.0885C70.8111 33.4145 70.097 33.0499 69.339 33.0499C68.9326 33.0499 68.581 33.1824 68.2734 33.315C68.0537 33.4366 67.812 33.5802 67.5814 33.8012C67.3287 34.0222 67.098 34.3206 66.8343 34.7736V30.5526L65.8127 30.5084L65.7688 30.6189C65.2085 31.9891 64.1319 32.9615 62.561 33.5029L62.4512 33.536V34.3648L62.605 34.3758C63.0114 34.409 63.2421 34.5084 63.3849 34.7184C63.4948 34.9394 63.6156 35.5139 63.6156 36.5084V51.0277C63.6156 52.2984 63.4728 52.5857 63.4289 52.6631Z" fill="#0F524D"/>
</svg>
