<svg width="182" height="31" viewBox="0 0 182 31" fill="none" xmlns="http://www.w3.org/2000/svg">
<g clip-path="url(#clip0_1751_1702)">
<mask id="mask0_1751_1702" style="mask-type:luminance" maskUnits="userSpaceOnUse" x="0" y="0" width="30" height="31">
<path d="M29.772 15.505C29.772 23.7885 23.107 30.5 14.886 30.5C6.66499 30.5 0 23.7885 0 15.505C0 7.21147 6.66499 0.5 14.886 0.5C23.107 0.5 29.772 7.21147 29.772 15.505Z" fill="white"/>
</mask>
<g mask="url(#mask0_1751_1702)">
<path fill-rule="evenodd" clip-rule="evenodd" d="M-5.99351 27.5072C0.676488 27.5374 6.10651 22.1158 6.13551 15.3943C6.16451 8.67283 0.781507 3.20088 -5.8875 3.17064C-12.5575 3.14041 -17.9885 8.56199 -18.0175 15.2835C-18.0475 22.005 -12.6635 27.477 -5.99351 27.5072ZM-6.01451 32.2132C3.23249 32.2535 10.7615 24.7259 10.8025 15.4145C10.8425 6.09307 3.37952 -1.49517 -5.86748 -1.53548C-15.1144 -1.57579 -22.6434 5.94189 -22.6834 15.2633C-22.7244 24.5848 -15.2605 32.1729 -6.01451 32.2132Z" fill="white"/>
<path fill-rule="evenodd" clip-rule="evenodd" d="M35.7585 27.6888C42.4275 27.719 47.8585 22.2974 47.8875 15.5759C47.9175 8.85434 42.5335 3.38239 35.8635 3.35216C29.1945 3.32193 23.7635 8.74351 23.7345 15.465C23.7055 22.1866 29.0885 27.6585 35.7585 27.6888ZM35.7385 32.3949C44.9845 32.4352 52.5135 24.9074 52.5535 15.5961C52.5945 6.27459 45.1315 -1.31353 35.8845 -1.35384C26.6375 -1.39415 19.1085 6.1234 19.0685 15.4449C19.0275 24.7663 26.4905 32.3546 35.7385 32.3949Z" fill="white"/>
<path fill-rule="evenodd" clip-rule="evenodd" d="M12.3613 37.7053L12.5483 -5.45557L17.2143 -5.42531L17.0273 37.7255L12.3613 37.7053Z" fill="white"/>
<path fill-rule="evenodd" clip-rule="evenodd" d="M35.6155 17.8528L-5.98242 17.6715L-5.96246 12.9653L35.6365 13.1468L35.6155 17.8528Z" fill="white"/>
</g>
<path d="M47.2213 7.82617C58.3993 8.42073 54.8553 21.3801 44.5433 19.2639V23.3149H40.1973V7.82617H47.2213ZM46.9583 15.8074C49.3293 16.1198 50.5323 13.419 48.9773 11.8772C48.1763 11.0207 45.6983 11.3331 44.5433 11.2726V15.8074H46.9583Z" fill="white"/>
<path d="M64.4523 19.1934H62.0823V23.315H57.7363V7.82633C60.1973 7.97749 66.2403 7.3527 68.3823 8.53174C72.5273 10.1441 72.6843 16.6741 68.5793 18.4477L71.8943 23.315H67.2403L64.4523 19.1934ZM67.1973 13.5502C67.3053 10.8192 63.9473 11.2929 62.0823 11.2727V15.8075C63.9423 15.7873 67.3093 16.2912 67.1973 13.5502Z" fill="white"/>
<path d="M83.3028 23.6175C72.2038 24.1717 72.2038 6.95983 83.3028 7.51408C94.3918 6.97998 94.3918 24.1516 83.3028 23.6175ZM83.3028 19.9897C88.7628 20.161 88.7498 10.9806 83.3028 11.1418C77.8548 10.9806 77.8418 20.161 83.3028 19.9897Z" fill="white"/>
<path d="M112.611 7.82617V23.3149H111.052V10.9199L105.015 21.3398H104.247L98.2113 10.9904V23.3149H96.6523V7.82617H97.9913L104.664 19.3042L111.272 7.82617H112.611Z" fill="white"/>
<path d="M125.904 23.4456C115.374 23.889 115.384 7.26153 125.904 7.69485C136.386 7.27161 136.399 23.8689 125.904 23.4456ZM125.904 21.9844C134.307 22.317 134.284 8.83358 125.903 9.15605C117.471 8.82351 117.448 22.3271 125.904 21.9844Z" fill="white"/>
<path d="M151.943 7.82617L145.137 23.3149H143.535L136.73 7.82617H138.487L144.369 21.2793L150.296 7.82617H151.943Z" fill="white"/>
<path d="M166.608 21.894V23.3149H155.742V7.82617H166.279V9.23699H157.366V14.7492H165.313V16.1399H157.366V21.894H166.608Z" fill="white"/>
<path d="M176.231 23.4458C174.267 23.4559 171.82 22.8008 170.523 21.4303L171.16 20.1707C175.865 25.3 186.303 18.78 176.165 16.3212C164.816 13.953 173.979 3.8153 181.324 9.06555L180.775 10.3655C178.145 8.07797 170.428 8.83377 173.048 13.3988C175.207 15.3034 179.325 14.6987 181.236 16.9863C183.636 20.3017 179.945 23.8993 176.231 23.4458Z" fill="white"/>
</g>
<defs>
<clipPath id="clip0_1751_1702">
<rect width="182" height="30" fill="white" transform="translate(0 0.5)"/>
</clipPath>
</defs>
</svg>
