<svg width="182" height="30" viewBox="0 0 182 30" fill="none" xmlns="http://www.w3.org/2000/svg">
<mask id="mask0_1144_1144" style="mask-type:luminance" maskUnits="userSpaceOnUse" x="0" y="0" width="30" height="30">
<path d="M29.772 15.005C29.772 23.2885 23.107 30 14.886 30C6.66499 30 0 23.2885 0 15.005C0 6.71147 6.66499 0 14.886 0C23.107 0 29.772 6.71147 29.772 15.005Z" fill="white"/>
</mask>
<g mask="url(#mask0_1144_1144)">
<path fill-rule="evenodd" clip-rule="evenodd" d="M-5.99348 27.007C0.676516 27.0372 6.10654 21.6156 6.13554 14.8941C6.16454 8.17258 0.781534 2.70063 -5.88747 2.67039C-12.5575 2.64016 -17.9885 8.06174 -18.0175 14.7833C-18.0475 21.5048 -12.6635 26.9768 -5.99348 27.007ZM-6.01448 31.713C3.23252 31.7533 10.7615 24.2257 10.8025 14.9143C10.8425 5.59282 3.37955 -1.99542 -5.86745 -2.03573C-15.1144 -2.07604 -22.6434 5.44164 -22.6834 14.7631C-22.7244 24.0846 -15.2605 31.6727 -6.01448 31.713Z" fill="#0F524D"/>
<path fill-rule="evenodd" clip-rule="evenodd" d="M35.7595 27.1883C42.4285 27.2185 47.8595 21.7969 47.8885 15.0754C47.9185 8.35385 42.5345 2.8819 35.8645 2.85167C29.1955 2.82144 23.7645 8.24302 23.7355 14.9645C23.7065 21.6861 29.0895 27.158 35.7595 27.1883ZM35.7395 31.8944C44.9855 31.9347 52.5145 24.4069 52.5545 15.0956C52.5955 5.7741 45.1325 -1.81402 35.8855 -1.85433C26.6385 -1.89464 19.1095 5.62291 19.0695 14.9444C19.0285 24.2658 26.4915 31.8541 35.7395 31.8944Z" fill="#0F524D"/>
<path fill-rule="evenodd" clip-rule="evenodd" d="M12.3613 37.2051L12.5483 -5.95581L17.2143 -5.92555L17.0273 37.2253L12.3613 37.2051Z" fill="#0F524D"/>
<path fill-rule="evenodd" clip-rule="evenodd" d="M35.6155 17.3528L-5.98242 17.1715L-5.96246 12.4653L35.6365 12.6468L35.6155 17.3528Z" fill="#0F524D"/>
</g>
<path d="M47.2222 7.32617C58.4002 7.92073 54.8562 20.8801 44.5442 18.7639V22.8149H40.1982V7.32617H47.2222ZM46.9592 15.3074C49.3302 15.6198 50.5332 12.919 48.9782 11.3772C48.1772 10.5207 45.6992 10.8331 44.5442 10.7726V15.3074H46.9592Z" fill="#0F524D"/>
<path d="M64.4533 18.6932H62.0833V22.8148H57.7373V7.32609C60.1983 7.47725 66.2413 6.85246 68.3833 8.0315C72.5283 9.64386 72.6853 16.1739 68.5803 17.9475L71.8953 22.8148H67.2413L64.4533 18.6932ZM67.1983 13.05C67.3063 10.319 63.9483 10.7927 62.0833 10.7725V15.3073C63.9433 15.2871 67.3103 15.791 67.1983 13.05Z" fill="#0F524D"/>
<path d="M83.3028 23.1173C72.2038 23.6715 72.2038 6.45959 83.3028 7.01384C94.3918 6.47974 94.3918 23.6514 83.3028 23.1173ZM83.3028 19.4895C88.7628 19.6608 88.7498 10.4804 83.3028 10.6416C77.8548 10.4804 77.8418 19.6608 83.3028 19.4895Z" fill="#0F524D"/>
<path d="M112.611 7.32617V22.8149H111.052V10.4199L105.015 20.8398H104.247L98.2113 10.4904V22.8149H96.6523V7.32617H97.9913L104.664 18.8042L111.272 7.32617H112.611Z" fill="#0F524D"/>
<path d="M125.903 22.9458C115.373 23.3892 115.383 6.76177 125.903 7.19509C136.385 6.77185 136.398 23.3691 125.903 22.9458ZM125.903 21.4846C134.306 21.8172 134.283 8.33382 125.902 8.65629C117.47 8.32375 117.447 21.8273 125.903 21.4846Z" fill="#0F524D"/>
<path d="M151.944 7.32617L145.138 22.8149H143.536L136.731 7.32617H138.488L144.37 20.7793L150.297 7.32617H151.944Z" fill="#0F524D"/>
<path d="M166.608 21.394V22.8149H155.742V7.32617H166.279V8.73699H157.366V14.2492H165.313V15.6399H157.366V21.394H166.608Z" fill="#0F524D"/>
<path d="M176.231 22.9458C174.267 22.9559 171.82 22.3008 170.523 20.9303L171.16 19.6707C175.865 24.8 186.303 18.28 176.165 15.8212C164.816 13.453 173.979 3.3153 181.324 8.56555L180.775 9.86551C178.145 7.57797 170.428 8.33377 173.048 12.8988C175.207 14.8034 179.325 14.1987 181.236 16.4863C183.636 19.8017 179.945 23.3993 176.231 22.9458Z" fill="#0F524D"/>
</svg>
