<svg width="100" height="35" viewBox="0 0 100 35" fill="none" xmlns="http://www.w3.org/2000/svg">
<path d="M8.72598 7.88348V15.4771C10.0755 15.6046 11.6308 15.7321 12.9803 15.7321C16.3198 15.7321 18.7672 14.2945 18.7672 11.6281C18.7672 9.12396 16.8916 7.75596 12.9231 7.75596C11.688 7.75596 10.0183 7.81392 8.72598 7.88348ZM0.89204 34.6175V6.78212L0 1.1594C2.77905 0.707263 8.42864 0.255127 12.0769 0.255127C23.4675 0.255127 27.1272 5.05473 27.1272 11.6281C27.1272 18.6072 22.0494 23.2329 13.2319 23.2329C12.2713 23.2329 10.2127 23.1634 8.72598 23.0359V34.6175H0.89204Z" fill="#0F524D"/>
<path d="M81.5528 20.52V27.2441C83.0281 27.3137 84.4348 27.3832 86.1846 27.3832C90.6905 27.3832 92.1658 26.0732 92.1658 23.7893C92.1658 21.5171 90.4961 20.265 86.116 20.265C84.8923 20.265 82.9595 20.265 81.5528 20.52ZM97.7811 7.8834H81.5528V13.1004C82.7765 12.9033 85.2811 12.8337 87.0881 12.8337C95.1279 12.8337 99.9998 16.4856 99.9998 23.4067C99.9998 31.2322 94.7276 34.8725 85.3497 34.8725C80.6608 34.8725 75.8918 34.6174 73.696 34.6174V6.78204L72.8154 0.382568H98.8561L97.7811 7.8834Z" fill="#0F524D"/>
<path d="M53.3394 24.4501V10.5499C58.8061 11.06 61.0133 14.5379 61.0133 17.4942C61.0133 21.2272 58.6917 24.0212 53.3394 24.4501ZM37.7631 17.4942C37.7631 14.48 40.1418 11.0484 45.4255 10.5383V24.4501C40.3019 24.0096 37.7631 21.1113 37.7631 17.4942ZM69.3733 17.4942C69.3733 8.47466 62.8202 3.69824 53.3394 3.21133V0H45.4255V3.19974C35.8989 3.69824 29.3916 8.84564 29.3916 17.4942C29.3916 26.2587 35.796 31.3597 45.4255 31.8003V35H53.3394V31.8003C62.946 31.4061 69.3733 26.2355 69.3733 17.4942Z" fill="#0F524D"/>
</svg>
