<svg width="100" height="36" viewBox="0 0 100 36" fill="none" xmlns="http://www.w3.org/2000/svg">
<g clip-path="url(#clip0_1751_1719)">
<path d="M8.72598 8.38372V15.9773C10.0755 16.1048 11.6308 16.2323 12.9803 16.2323C16.3198 16.2323 18.7672 14.7947 18.7672 12.1283C18.7672 9.6242 16.8916 8.2562 12.9231 8.2562C11.688 8.2562 10.0183 8.31416 8.72598 8.38372ZM0.89204 35.1177V7.28236L0 1.65964C2.77905 1.20751 8.42864 0.755371 12.0769 0.755371C23.4675 0.755371 27.1272 5.55497 27.1272 12.1283C27.1272 19.1074 22.0494 23.7331 13.2319 23.7331C12.2713 23.7331 10.2127 23.6636 8.72598 23.5361V35.1177H0.89204Z" fill="white"/>
<path d="M81.5519 21.0198V27.7439C83.0272 27.8135 84.4339 27.883 86.1837 27.883C90.6896 27.883 92.1649 26.573 92.1649 24.2891C92.1649 22.0169 90.4952 20.7648 86.1151 20.7648C84.8914 20.7648 82.9586 20.7648 81.5519 21.0198ZM97.7802 8.38316H81.5519V13.6002C82.7756 13.4031 85.2802 13.3335 87.0872 13.3335C95.127 13.3335 99.9989 16.9854 99.9989 23.9065C99.9989 31.732 94.7267 35.3723 85.3488 35.3723C80.6599 35.3723 75.8909 35.1172 73.6951 35.1172V7.2818L72.8145 0.882324H98.8552L97.7802 8.38316Z" fill="white"/>
<path d="M53.3384 24.9501V11.0499C58.8051 11.56 61.0123 15.0379 61.0123 17.9942C61.0123 21.7272 58.6907 24.5212 53.3384 24.9501ZM37.7621 17.9942C37.7621 14.98 40.1408 11.5484 45.4245 11.0383V24.9501C40.3009 24.5096 37.7621 21.6113 37.7621 17.9942ZM69.3723 17.9942C69.3723 8.97466 62.8192 4.19824 53.3384 3.71133V0.5H45.4245V3.69974C35.8979 4.19824 29.3906 9.34564 29.3906 17.9942C29.3906 26.7587 35.795 31.8597 45.4245 32.3003V35.5H53.3384V32.3003C62.945 31.9061 69.3723 26.7355 69.3723 17.9942Z" fill="white"/>
</g>
<defs>
<clipPath id="clip0_1751_1719">
<rect width="100" height="35" fill="white" transform="translate(0 0.5)"/>
</clipPath>
</defs>
</svg>
