<svg width="150" height="152" viewBox="0 0 150 152" fill="none" xmlns="http://www.w3.org/2000/svg">
<g clip-path="url(#clip0_1751_1723)">
<path fill-rule="evenodd" clip-rule="evenodd" d="M29.7196 98.6659C28.9106 97.4793 27.724 96.832 26.1598 96.832H22.0605V128.709H26.1598C27.724 128.709 28.9106 128.116 29.7196 126.875C30.3669 125.904 30.7445 124.394 30.9602 122.344C31.122 120.295 31.2299 117.059 31.2299 112.69C31.2299 108.375 31.122 105.192 30.9602 103.143C30.7445 101.147 30.3669 99.6368 29.7196 98.6659Z" fill="white"/>
<path fill-rule="evenodd" clip-rule="evenodd" d="M84.3576 26.5518L80.582 45.0523H88.1872L84.3576 26.5518Z" fill="white"/>
<path fill-rule="evenodd" clip-rule="evenodd" d="M135.059 0.5H15.0485C6.7961 0.5 0 7.2961 0 15.5485V135.559C0 143.811 6.74216 150.554 14.9946 150.554H135.005C143.258 150.554 150 143.811 150 135.559V15.5485C150.054 7.2961 143.311 0.5 135.059 0.5ZM81.0139 15.8721H87.756L98.4896 60.0468H91.208L89.4281 51.309H79.18L77.454 60.0468H70.1185L81.0139 15.8721ZM45.5231 15.8721H52.481V53.7901H64.0775V60.0468H45.5231V15.8721ZM30.2049 43.2184C29.6655 42.3554 28.5868 41.5463 26.8068 40.8451L21.521 38.6876C19.2556 37.7167 17.6375 36.4762 16.7206 34.912C15.8036 33.3478 15.3721 30.9206 15.3721 27.5765C15.3721 23.4773 16.5588 20.3489 18.9859 18.1914C21.0356 16.4115 23.5167 15.5485 26.5372 15.5485C29.9892 15.5485 32.6321 16.4115 34.4659 18.1914C36.5156 20.2411 37.5943 23.4234 37.5943 27.7923H30.6903C30.6903 25.5809 30.3128 23.9627 29.6116 23.0997C28.9643 22.2367 27.9395 21.8052 26.4832 21.8052C25.2427 21.8052 24.2718 22.2367 23.5167 23.0458C22.7076 23.9627 22.3301 25.419 22.3301 27.4147C22.3301 29.2486 22.5458 30.5431 23.0312 31.2982C23.4627 32.0533 24.4875 32.7545 25.9978 33.4018L31.2297 35.5053C33.8187 36.5841 35.5986 37.9864 36.5156 39.7124C37.4325 41.4384 37.9179 44.1892 37.9179 47.9109C37.9179 52.5495 36.9471 55.7857 35.0593 57.6736C33.0096 59.6153 30.151 60.5862 26.4293 60.5862C22.6537 60.5862 19.795 59.6153 17.8533 57.6736C15.9654 55.7857 14.9946 52.6034 14.9946 48.1806H21.9525C21.9525 50.5538 22.384 52.172 23.193 53.1428C23.8942 53.9519 24.973 54.3294 26.4293 54.3294C27.9395 54.3294 29.0722 53.8979 29.7734 53.0889C30.5825 52.1719 30.96 50.5538 30.96 48.1806C30.96 45.7534 30.7443 44.1353 30.2049 43.2184ZM37.6483 125.149C37.2707 127.738 36.3538 129.842 34.9514 131.352C32.7939 133.833 29.9352 135.02 26.3214 135.02H14.9946V90.5214H26.3214C29.8813 90.5214 32.7939 91.7619 34.9514 94.1891C36.3538 95.7533 37.2707 97.8029 37.6483 100.338C38.0258 102.927 38.1876 107.026 38.1876 112.69C38.2416 118.407 38.0258 122.56 37.6483 125.149ZM69.3634 124.124C69.3634 127.468 68.3386 130.165 66.289 132.323C64.1854 134.48 61.4346 135.559 58.0366 135.559C54.6385 135.559 51.8338 134.48 49.7302 132.323C47.6806 130.219 46.6558 127.468 46.6558 124.124V90.5753H53.6676V124.502C53.6676 126.066 54.0991 127.199 54.9082 128.008C55.7173 128.817 56.796 129.248 58.0366 129.248C59.2771 129.248 60.3019 128.817 61.111 128.008C61.92 127.199 62.3515 126.012 62.3515 124.502V90.5753H69.3634V124.124ZM101.456 135.074H95.2533L84.7355 108.644V135.074H77.7237V90.5753H83.9804L94.4443 117.005V90.5753H101.456V135.074ZM127.508 135.074L120.334 116.735L116.936 123.585V135.02H109.924V90.5214H116.936V111.449L126.645 90.5214H133.711L124.757 108.968L135.059 135.02H127.508V135.074ZM135.059 79.3024H15.0485V71.8051H135.059V79.3024ZM135.059 60.1007H128.101V32.5388L122.06 50.6617H118.231L112.351 32.8624V60.1007H105.394V15.8721H111.65L120.226 39.0652L128.748 15.8721H135.059V60.1007Z" fill="white"/>
</g>
<defs>
<clipPath id="clip0_1751_1723">
<rect width="150" height="151" fill="white" transform="translate(0 0.5)"/>
</clipPath>
</defs>
</svg>
