<svg width="150" height="151" viewBox="0 0 150 151" fill="none" xmlns="http://www.w3.org/2000/svg">
<path fill-rule="evenodd" clip-rule="evenodd" d="M29.7196 98.1659C28.9106 96.9793 27.724 96.332 26.1598 96.332H22.0605V128.209H26.1598C27.724 128.209 28.9106 127.616 29.7196 126.375C30.3669 125.404 30.7445 123.894 30.9602 121.844C31.122 119.795 31.2299 116.559 31.2299 112.19C31.2299 107.875 31.122 104.692 30.9602 102.643C30.7445 100.647 30.3669 99.1368 29.7196 98.1659Z" fill="#0F524D"/>
<path fill-rule="evenodd" clip-rule="evenodd" d="M84.3586 26.0518L80.583 44.5523H88.1882L84.3586 26.0518Z" fill="#0F524D"/>
<path fill-rule="evenodd" clip-rule="evenodd" d="M135.059 0H15.0485C6.7961 0 0 6.7961 0 15.0485V135.059C0 143.311 6.74216 150.054 14.9946 150.054H135.005C143.258 150.054 150 143.311 150 135.059V15.0485C150.054 6.7961 143.311 0 135.059 0ZM81.0139 15.3721H87.756L98.4896 59.5468H91.208L89.4281 50.809H79.18L77.454 59.5468H70.1185L81.0139 15.3721ZM45.5231 15.3721H52.481V53.2901H64.0775V59.5468H45.5231V15.3721ZM30.2049 42.7184C29.6655 41.8554 28.5868 41.0463 26.8068 40.3451L21.521 38.1876C19.2556 37.2167 17.6375 35.9762 16.7206 34.412C15.8036 32.8478 15.3721 30.4206 15.3721 27.0765C15.3721 22.9773 16.5588 19.8489 18.9859 17.6914C21.0356 15.9115 23.5167 15.0485 26.5372 15.0485C29.9892 15.0485 32.6321 15.9115 34.4659 17.6914C36.5156 19.7411 37.5943 22.9234 37.5943 27.2923H30.6903C30.6903 25.0809 30.3128 23.4627 29.6116 22.5997C28.9643 21.7367 27.9395 21.3052 26.4832 21.3052C25.2427 21.3052 24.2718 21.7367 23.5167 22.5458C22.7076 23.4627 22.3301 24.919 22.3301 26.9147C22.3301 28.7486 22.5458 30.0431 23.0312 30.7982C23.4627 31.5533 24.4875 32.2545 25.9978 32.9018L31.2297 35.0053C33.8187 36.0841 35.5986 37.4864 36.5156 39.2124C37.4325 40.9384 37.9179 43.6892 37.9179 47.4109C37.9179 52.0495 36.9471 55.2857 35.0593 57.1736C33.0096 59.1153 30.151 60.0862 26.4293 60.0862C22.6537 60.0862 19.795 59.1153 17.8533 57.1736C15.9654 55.2857 14.9946 52.1034 14.9946 47.6806H21.9525C21.9525 50.0538 22.384 51.672 23.193 52.6428C23.8942 53.4519 24.973 53.8294 26.4293 53.8294C27.9395 53.8294 29.0722 53.3979 29.7734 52.5889C30.5825 51.6719 30.96 50.0538 30.96 47.6806C30.96 45.2534 30.7443 43.6353 30.2049 42.7184ZM37.6483 124.649C37.2707 127.238 36.3538 129.342 34.9514 130.852C32.7939 133.333 29.9352 134.52 26.3214 134.52H14.9946V90.0214H26.3214C29.8813 90.0214 32.7939 91.2619 34.9514 93.6891C36.3538 95.2533 37.2707 97.3029 37.6483 99.838C38.0258 102.427 38.1876 106.526 38.1876 112.19C38.2416 117.907 38.0258 122.06 37.6483 124.649ZM69.3634 123.624C69.3634 126.968 68.3386 129.665 66.289 131.823C64.1854 133.98 61.4346 135.059 58.0366 135.059C54.6385 135.059 51.8338 133.98 49.7302 131.823C47.6806 129.719 46.6558 126.968 46.6558 123.624V90.0753H53.6676V124.002C53.6676 125.566 54.0991 126.699 54.9082 127.508C55.7173 128.317 56.796 128.748 58.0366 128.748C59.2771 128.748 60.3019 128.317 61.111 127.508C61.92 126.699 62.3515 125.512 62.3515 124.002V90.0753H69.3634V123.624ZM101.456 134.574H95.2533L84.7355 108.144V134.574H77.7237V90.0753H83.9804L94.4443 116.505V90.0753H101.456V134.574ZM127.508 134.574L120.334 116.235L116.936 123.085V134.52H109.924V90.0214H116.936V110.949L126.645 90.0214H133.711L124.757 108.468L135.059 134.52H127.508V134.574ZM135.059 78.8024H15.0485V71.3051H135.059V78.8024ZM135.059 59.6007H128.101V32.0388L122.06 50.1617H118.231L112.351 32.3624V59.6007H105.394V15.3721H111.65L120.226 38.5652L128.748 15.3721H135.059V59.6007Z" fill="#0F524D"/>
</svg>
