<svg width="300" height="160" viewBox="0 0 300 160" fill="none" xmlns="http://www.w3.org/2000/svg">
<g clip-path="url(#clip0_1326_1105)">
<rect x="99" y="54" width="102" height="43" fill="#FF6A12"/>
<rect x="99" y="54" width="102" height="43" fill="#FF6A12"/>
<rect x="99" y="54" width="102" height="43" fill="#FF6A12"/>
<rect x="99" y="87" width="102" height="43" fill="white"/>
<rect x="99" y="87" width="102" height="43" fill="white"/>
<rect x="99" y="87" width="102" height="43" fill="white"/>
<rect x="99" y="27" width="102" height="43" fill="white"/>
<rect x="99" y="27" width="102" height="43" fill="white"/>
<rect x="99" y="27" width="102" height="43" fill="white"/>
<path fill-rule="evenodd" clip-rule="evenodd" d="M113.776 98.0126C113.129 97.0696 112.179 96.5552 110.928 96.5552H107.648V121.888H110.928C112.179 121.888 113.129 121.417 113.776 120.43C114.294 119.659 114.596 118.459 114.768 116.83C114.898 115.201 114.984 112.63 114.984 109.158C114.984 105.728 114.898 103.199 114.768 101.571C114.596 99.9843 114.294 98.7842 113.776 98.0126Z" fill="#3A3A3A"/>
<path fill-rule="evenodd" clip-rule="evenodd" d="M157.486 40.7034L154.466 55.4057H160.55L157.486 40.7034Z" fill="#3A3A3A"/>
<path fill-rule="evenodd" clip-rule="evenodd" d="M198.047 20H102.039C95.4369 20 90 25.4009 90 31.959V127.331C90 133.889 95.3937 139.248 101.996 139.248H198.004C204.606 139.248 210 133.889 210 127.331V31.959C210.043 25.4009 204.649 20 198.047 20ZM154.811 32.2162H160.205L168.792 67.3219H162.966L161.542 60.3779H153.344L151.963 67.3219H146.095L154.811 32.2162ZM126.418 32.2162H131.985V62.3497H141.262V67.3219H126.418V32.2162ZM114.164 53.9483C113.732 53.2625 112.869 52.6195 111.445 52.0623L107.217 50.3477C105.404 49.5761 104.11 48.5903 103.376 47.3472C102.643 46.1042 102.298 44.1753 102.298 41.5177C102.298 38.2601 103.247 35.7739 105.189 34.0594C106.828 32.6449 108.813 31.959 111.23 31.959C113.991 31.959 116.106 32.6449 117.573 34.0594C119.212 35.6883 120.075 38.2172 120.075 41.6892H114.552C114.552 39.9318 114.25 38.6458 113.689 37.96C113.171 37.2742 112.352 36.9312 111.187 36.9312C110.194 36.9312 109.417 37.2742 108.813 37.9172C108.166 38.6458 107.864 39.8031 107.864 41.3891C107.864 42.8465 108.037 43.8753 108.425 44.4753C108.77 45.0754 109.59 45.6327 110.798 46.1471L114.984 47.8187C117.055 48.676 118.479 49.7905 119.212 51.1621C119.946 52.5338 120.334 54.7198 120.334 57.6775C120.334 61.3638 119.558 63.9356 118.047 65.4359C116.408 66.9789 114.121 67.7505 111.143 67.7505C108.123 67.7505 105.836 66.9789 104.283 65.4359C102.772 63.9356 101.996 61.4066 101.996 57.8918H107.562C107.562 59.7778 107.907 61.0638 108.554 61.8352C109.115 62.4782 109.978 62.7782 111.143 62.7782C112.352 62.7782 113.258 62.4353 113.819 61.7924C114.466 61.0637 114.768 59.7778 114.768 57.8918C114.768 55.9629 114.595 54.677 114.164 53.9483ZM120.119 119.059C119.816 121.116 119.083 122.788 117.961 123.988C116.235 125.96 113.948 126.903 111.057 126.903H101.996V91.54H111.057C113.905 91.54 116.235 92.5259 117.961 94.4548C119.083 95.6978 119.816 97.3266 120.119 99.3413C120.421 101.399 120.55 104.656 120.55 109.157C120.593 113.701 120.421 117.001 120.119 119.059ZM145.491 118.244C145.491 120.902 144.671 123.045 143.031 124.76C141.348 126.474 139.148 127.331 136.429 127.331C133.711 127.331 131.467 126.474 129.784 124.76C128.144 123.088 127.325 120.902 127.325 118.244V91.5829H132.934V118.544C132.934 119.787 133.279 120.688 133.926 121.331C134.574 121.974 135.437 122.316 136.429 122.316C137.422 122.316 138.241 121.974 138.889 121.331C139.536 120.688 139.881 119.744 139.881 118.544V91.5829H145.491V118.244ZM171.165 126.946H166.202L157.788 105.942V126.946H152.179V91.5829H157.184L165.555 112.587V91.5829H171.165V126.946ZM192.006 126.946L186.267 112.372L183.549 117.816V126.903H177.939V91.54H183.549V108.171L191.316 91.54H196.969L189.805 106.2L198.047 126.903H192.006V126.946ZM198.047 82.6243H102.039V76.6662H198.047V82.6243ZM198.047 67.3647H192.481V45.4612L187.648 59.8635H184.585L179.881 45.7184V67.3647H174.315V32.2162H179.32L186.181 50.6478L192.998 32.2162H198.047V67.3647Z" fill="#3A3A3A"/>
</g>
<defs>
<clipPath id="clip0_1326_1105">
<rect width="120" height="120" fill="white" transform="translate(90 20)"/>
</clipPath>
</defs>
</svg>
