<svg width="150" height="58" viewBox="0 0 150 58" fill="none" xmlns="http://www.w3.org/2000/svg">
<g clip-path="url(#clip0_1751_1616)">
<path d="M149.985 39.9235C149.892 40.34 149.815 40.7565 149.692 41.1576C148.89 43.626 147.362 45.4773 145.002 46.6189C144.894 46.6652 144.786 46.7269 144.616 46.8195C146.961 49.4267 147.871 52.5122 147.856 55.9525H142.765C142.641 55.104 142.595 54.2709 142.395 53.4532C141.654 50.3061 138.939 47.9302 135.699 47.5908C135.067 47.5291 134.434 47.4828 133.802 47.4828C130.546 47.4674 127.276 47.4674 124.021 47.4674C123.99 47.4674 123.944 47.452 123.851 47.4366V42.4998H140.929C142.842 42.4998 144.369 41.2193 144.724 39.4144C145.125 37.3162 143.598 35.3261 141.392 35.1101C140.775 35.0484 140.173 35.0176 139.556 35.0176H124.576C123.805 35.0176 123.805 35.0176 123.805 34.2153V30.7596C123.805 30.5591 123.82 30.3585 123.836 30.1271C124.067 30.1117 124.237 30.0962 124.422 30.0962H140.512C142.935 30.0962 145.141 30.6825 147.007 32.3332C148.596 33.7371 149.553 35.4649 149.861 37.5476C149.877 37.6711 149.939 37.7945 149.969 37.9179C149.985 38.5813 149.985 39.2446 149.985 39.9235Z" fill="white"/>
<path d="M149.985 5.86012C146.977 5.8447 143.953 5.84469 140.944 5.82927H138.954V27.8904H133.431V5.8447H122.432V0.522264H149.275C149.522 0.522264 149.753 0.506836 150 0.506836C149.985 2.29641 149.985 4.08598 149.985 5.86012Z" fill="white"/>
<path d="M27.4292 0.553066V6.16862H9.25585C8.77761 6.16862 8.28393 6.18405 7.82111 6.30747C6.63321 6.61601 5.93898 7.80392 6.09325 9.06896C6.18581 9.85575 7.23487 11.0591 8.42278 11.0437C11.5391 10.9974 14.64 11.0128 17.7563 11.0437C18.7282 11.0437 19.7001 11.0591 20.6566 11.2288C24.1278 11.815 26.5345 13.7126 27.4909 17.1375C28.4629 20.6086 27.5835 23.5861 24.822 25.9773C23.0016 27.5509 20.8418 27.952 18.5277 27.952H0.755394C0.616548 27.952 0.462275 27.9366 0.261719 27.9212V22.3365H18.4505C18.7436 22.3365 19.0522 22.3365 19.3453 22.3056C20.9343 22.1822 22.0605 20.948 22.0451 19.3127C22.0297 17.9551 20.7801 16.7209 19.299 16.6746C17.6175 16.6284 15.9513 16.6592 14.2697 16.6438C11.9865 16.6284 9.68782 16.6901 7.40457 16.5512C4.07227 16.3507 0.261719 13.296 0.292574 8.85298C0.323429 4.7493 2.59124 1.67926 6.38637 0.799905C7.21944 0.614776 8.08338 0.522214 8.93188 0.522214C14.9639 0.49136 20.996 0.506786 27.0436 0.506786C27.1515 0.522213 27.2595 0.537639 27.4292 0.553066Z" fill="white"/>
<path d="M75.116 0.522301C82.8296 0.398882 88.9543 6.66238 88.9697 14.2218C88.9851 21.8429 82.7062 28.0138 75.1314 27.9521C67.4023 27.8904 61.3085 21.92 61.2931 14.2681C61.2622 6.63153 67.3869 0.537728 75.116 0.522301ZM75.0543 22.6297C79.6979 22.6297 83.4159 18.8808 83.4467 14.1292C83.4776 9.71699 79.6053 5.8293 75.1468 5.81388C70.6266 5.78302 66.8469 9.62443 66.7698 14.1755C66.6927 18.7728 70.7655 22.8457 75.0543 22.6297Z" fill="white"/>
<path d="M91.8555 18.9117V13.6509H109.304C109.844 13.6509 110.399 13.6355 110.908 13.5121C112.729 13.111 114.086 11.2597 113.978 9.43928C113.87 7.64971 112.358 6.09155 110.476 5.87557C109.905 5.81386 109.319 5.76758 108.748 5.76758H91.8863V0.506857H92.4109C98.1499 0.506857 103.889 0.491429 109.628 0.506857C112.698 0.506857 115.336 1.54049 117.388 3.9163C119.717 6.60066 120.196 11.0283 118.391 14.0983C117.311 15.9188 115.891 17.3844 113.824 18.1866C116.323 20.9635 117.264 24.2341 117.264 27.8904H111.865C111.726 26.9493 111.664 26.0237 111.448 25.1289C110.631 21.8274 107.73 19.2511 104.336 19.0505C101.575 18.8808 98.7978 18.9425 96.0209 18.9117H91.8555Z" fill="white"/>
<path d="M36.2851 23.6634V27.9059H30.793V18.2484H31.4563C36.1154 18.2484 40.7745 18.2639 45.4335 18.233C46.282 18.233 47.1459 18.1713 47.9945 18.0324C50.6788 17.5851 52.7615 15.0241 52.8849 12.278C53.0392 8.96121 50.3394 5.79861 46.5134 5.84489C41.515 5.89117 36.5319 5.86032 31.5335 5.86032H30.8393V0.522461H45.8192C47.8247 0.522461 49.7994 0.753868 51.6662 1.55609C55.955 3.37651 58.701 8.11271 58.4079 12.7872C58.0839 17.9553 54.0882 22.7532 48.3956 23.4166C46.4826 23.6326 44.5233 23.5554 42.5949 23.5863C40.7127 23.6171 38.8306 23.6171 36.9485 23.6326C36.7325 23.6326 36.5319 23.648 36.2851 23.6634Z" fill="white"/>
<path d="M0.046282 30.1426H5.19901V30.8214C5.19901 34.6783 5.18359 38.5197 5.21444 42.3765C5.22987 43.333 5.32243 44.3203 5.55384 45.246C6.37149 48.5937 9.62666 51.0929 13.0515 51.1084C17.0009 51.1238 20.5029 47.9612 20.8886 44.0272C20.9658 43.2713 20.9966 42.4999 20.9966 41.744C21.012 38.1186 20.9966 34.4931 20.9966 30.8677V30.1581H26.1648C26.1802 30.3278 26.1956 30.482 26.1956 30.6517V42.2531C26.1802 44.9066 25.7637 47.483 24.3135 49.7816C22.1537 53.1756 19.1299 55.3355 15.0879 55.8754C9.84264 56.5697 5.5847 54.7801 2.37581 50.553C1.00278 48.748 0.200555 46.6499 0.138846 44.4129C8.9407e-08 39.7076 0.0308547 35.0022 0 30.2969C0 30.2506 0.0308547 30.2198 0.046282 30.1426Z" fill="white"/>
<path d="M49.9534 55.9216V43.9499C49.9534 42.5461 49.7683 41.173 49.2437 39.8617C47.9478 36.5448 44.2607 34.8632 41.7769 35.0484C38.0126 35.3106 35.1123 37.7944 34.4026 41.2656C34.2329 42.0832 34.1712 42.9163 34.1558 43.7494C34.1249 47.5754 34.1404 51.4168 34.1404 55.2428V55.9524H28.9722C28.9568 55.7673 28.9414 55.613 28.9414 55.4433C28.9414 51.4631 28.9259 47.4828 28.9568 43.5026C28.9722 41.2347 29.3116 39.0132 30.4532 37.0076C32.6439 33.1508 35.8837 30.7441 40.3576 30.2196C45.1401 29.6642 49.1203 31.2378 52.2212 34.9095C54.0108 37.0231 54.9827 39.5223 55.0444 42.2684C55.1524 46.6806 55.1215 51.0928 55.1524 55.4896C55.1524 55.7673 55.1678 56.0141 54.7667 56.0141C53.2394 55.9987 51.7121 55.9987 50.1848 55.9987C50.1231 55.9987 50.0614 55.9678 49.9534 55.9216Z" fill="white"/>
<path d="M120.949 55.9681C120.733 55.9836 120.579 55.999 120.409 55.999C116.166 55.9836 111.909 56.0298 107.666 55.9527C101.341 55.8447 96.1881 51.6022 95.0619 45.385C93.6272 37.4553 98.8879 32.0866 104.118 30.6364C105.29 30.3125 106.54 30.1428 107.743 30.1273C111.97 30.0656 116.197 30.0965 120.424 30.0811C120.579 30.0811 120.718 30.0965 120.918 30.1119C120.933 30.2816 120.964 30.4513 120.964 30.6056C120.964 31.9015 120.949 33.2128 120.98 34.5087C120.995 34.9561 120.856 35.0795 120.409 35.0795C116.352 35.0641 112.294 35.0641 108.221 35.0795C104.334 35.1104 101.557 37.1159 100.323 40.8031C99.8444 42.2532 99.8753 43.7188 100.307 45.1998C101.294 48.563 104.21 50.908 107.712 50.9697C111.878 51.0468 116.058 51.0159 120.224 51.0314C120.964 51.0314 120.964 51.0314 120.964 51.7565V55.3356C120.98 55.5362 120.964 55.7367 120.949 55.9681Z" fill="white"/>
<path d="M79.2033 56.6009C74.7603 47.7147 70.3635 38.9674 65.9512 30.143C66.1827 30.1276 66.3369 30.1121 66.4912 30.1121C67.7562 30.1121 69.0213 30.143 70.2863 30.0967C70.78 30.0813 71.0423 30.2355 71.2583 30.6829C73.7729 35.6351 76.3184 40.5873 78.8485 45.524C78.9411 45.7092 79.0336 45.8789 79.1879 46.1411C79.3422 45.8789 79.4502 45.6937 79.5427 45.5086C82.1191 40.541 84.7109 35.5888 87.2718 30.6212C87.457 30.251 87.6729 30.0813 88.1203 30.0967C89.5242 30.1276 90.9435 30.1121 92.4554 30.1121C88.0586 38.952 83.6618 47.7147 79.2033 56.6009Z" fill="white"/>
<path d="M57.9297 30.1426H63.0207V55.9834H57.9297V30.1426Z" fill="white"/>
<path d="M120.934 40.6333C120.934 42.1915 120.934 43.7033 120.919 45.1998C120.919 45.3078 120.734 45.4158 120.626 45.5083C120.595 45.5392 120.518 45.5238 120.456 45.5238H107.775C107.667 45.5238 107.559 45.4929 107.436 45.4775V40.6487C111.925 40.6333 116.383 40.6333 120.934 40.6333Z" fill="white"/>
</g>
<defs>
<clipPath id="clip0_1751_1616">
<rect width="150" height="57" fill="white" transform="translate(0 0.5)"/>
</clipPath>
</defs>
</svg>
