<svg width="150" height="57" viewBox="0 0 150 57" fill="none" xmlns="http://www.w3.org/2000/svg">
<path d="M149.985 39.4237C149.892 39.8402 149.815 40.2567 149.692 40.6578C148.89 43.1262 147.362 44.9775 145.002 46.1191C144.894 46.1654 144.786 46.2271 144.616 46.3197C146.961 48.9269 147.871 52.0124 147.856 55.4527H142.765C142.641 54.6042 142.595 53.7711 142.395 52.9534C141.654 49.8063 138.939 47.4304 135.699 47.091C135.067 47.0293 134.434 46.983 133.802 46.983C130.546 46.9676 127.276 46.9676 124.021 46.9676C123.99 46.9676 123.944 46.9522 123.851 46.9368V42H140.929C142.842 42 144.369 40.7195 144.724 38.9146C145.125 36.8164 143.598 34.8263 141.392 34.6103C140.775 34.5486 140.173 34.5178 139.556 34.5178H124.576C123.805 34.5178 123.805 34.5178 123.805 33.7155V30.2598C123.805 30.0593 123.82 29.8587 123.836 29.6273C124.067 29.6119 124.237 29.5964 124.422 29.5964H140.512C142.935 29.5964 145.141 30.1827 147.007 31.8334C148.596 33.2373 149.553 34.9651 149.861 37.0478C149.877 37.1713 149.939 37.2947 149.969 37.4181C149.985 38.0815 149.985 38.7448 149.985 39.4237Z" fill="#0F524D"/>
<path d="M149.985 5.36012C146.977 5.3447 143.953 5.34469 140.944 5.32927H138.954V27.3904H133.431V5.3447H122.432V0.0222642H149.275C149.522 0.0222642 149.753 0.00683594 150 0.00683594C149.985 1.79641 149.985 3.58598 149.985 5.36012Z" fill="#0F524D"/>
<path d="M27.4302 0.0530662V5.66862H9.25683C8.77859 5.66862 8.28491 5.68405 7.82209 5.80747C6.63419 6.11601 5.93996 7.30392 6.09423 8.56896C6.18679 9.35575 7.23585 10.5591 8.42376 10.5437C11.5401 10.4974 14.641 10.5128 17.7573 10.5437C18.7292 10.5437 19.7011 10.5591 20.6576 10.7288C24.1288 11.315 26.5355 13.2126 27.4919 16.6375C28.4639 20.1086 27.5845 23.0861 24.823 25.4773C23.0026 27.0509 20.8428 27.452 18.5287 27.452H0.75637C0.617524 27.452 0.463251 27.4366 0.262695 27.4212V21.8365H18.4515C18.7446 21.8365 19.0532 21.8365 19.3463 21.8056C20.9353 21.6822 22.0615 20.448 22.0461 18.8127C22.0307 17.4551 20.7811 16.2209 19.3 16.1746C17.6185 16.1284 15.9523 16.1592 14.2707 16.1438C11.9875 16.1284 9.6888 16.1901 7.40555 16.0512C4.07325 15.8507 0.262695 12.796 0.29355 8.35298C0.324405 4.2493 2.59222 1.17926 6.38735 0.299905C7.22042 0.114776 8.08436 0.0222143 8.93286 0.0222143C14.9649 -0.00864034 20.997 0.00678605 27.0446 0.00678605C27.1525 0.0222134 27.2605 0.0376388 27.4302 0.0530662Z" fill="#0F524D"/>
<path d="M75.116 0.0223011C82.8296 -0.101118 88.9543 6.16238 88.9697 13.7218C88.9851 21.3429 82.7062 27.5138 75.1314 27.4521C67.4023 27.3904 61.3085 21.42 61.2931 13.7681C61.2622 6.13153 67.3869 0.0377284 75.116 0.0223011ZM75.0543 22.1297C79.6979 22.1297 83.4159 18.3808 83.4467 13.6292C83.4776 9.21699 79.6053 5.3293 75.1468 5.31388C70.6266 5.28302 66.8469 9.12443 66.7698 13.6755C66.6927 18.2728 70.7655 22.3457 75.0543 22.1297Z" fill="#0F524D"/>
<path d="M91.8545 18.4117V13.1509H109.303C109.843 13.1509 110.398 13.1355 110.907 13.0121C112.728 12.611 114.085 10.7597 113.977 8.93928C113.869 7.14971 112.357 5.59155 110.475 5.37557C109.904 5.31386 109.318 5.26758 108.747 5.26758H91.8853V0.00685659H92.4099C98.1489 0.00685659 103.888 -0.00857074 109.627 0.00685659C112.697 0.00685659 115.335 1.04049 117.387 3.4163C119.716 6.10066 120.195 10.5283 118.39 13.5983C117.31 15.4188 115.89 16.8844 113.823 17.6866C116.322 20.4635 117.263 23.7341 117.263 27.3904H111.864C111.725 26.4493 111.663 25.5237 111.447 24.6289C110.63 21.3274 107.729 18.7511 104.335 18.5505C101.574 18.3808 98.7968 18.4425 96.0199 18.4117H91.8545Z" fill="#0F524D"/>
<path d="M36.2851 23.1632V27.4057H30.793V17.7482H31.4563C36.1154 17.7482 40.7745 17.7637 45.4335 17.7328C46.282 17.7328 47.1459 17.6711 47.9945 17.5322C50.6788 17.0849 52.7615 14.5239 52.8849 11.7778C53.0392 8.46097 50.3394 5.29837 46.5134 5.34465C41.515 5.39093 36.5319 5.36008 31.5335 5.36008H30.8393V0.0222168H45.8192C47.8247 0.0222168 49.7994 0.253624 51.6662 1.05585C55.955 2.87627 58.701 7.61247 58.4079 12.287C58.0839 17.4551 54.0882 22.253 48.3956 22.9164C46.4826 23.1324 44.5233 23.0552 42.5949 23.0861C40.7127 23.1169 38.8306 23.1169 36.9485 23.1324C36.7325 23.1324 36.5319 23.1478 36.2851 23.1632Z" fill="#0F524D"/>
<path d="M0.046282 29.6428H5.19901V30.3216C5.19901 34.1785 5.18359 38.0199 5.21444 41.8767C5.22987 42.8332 5.32243 43.8205 5.55384 44.7462C6.37149 48.0939 9.62666 50.5931 13.0515 50.6086C17.0009 50.624 20.5029 47.4614 20.8886 43.5274C20.9658 42.7715 20.9966 42.0001 20.9966 41.2442C21.012 37.6188 20.9966 33.9933 20.9966 30.3679V29.6583H26.1648C26.1802 29.828 26.1956 29.9822 26.1956 30.1519V41.7533C26.1802 44.4068 25.7637 46.9832 24.3135 49.2818C22.1537 52.6758 19.1299 54.8357 15.0879 55.3756C9.84264 56.0699 5.5847 54.2803 2.37581 50.0532C1.00278 48.2482 0.200555 46.1501 0.138846 43.9131C9.19541e-08 39.2078 0.0308547 34.5024 0 29.7971C0 29.7508 0.0308547 29.72 0.046282 29.6428Z" fill="#0F524D"/>
<path d="M49.9534 55.4218V43.4501C49.9534 42.0463 49.7683 40.6732 49.2437 39.3619C47.9478 36.045 44.2607 34.3634 41.7769 34.5486C38.0126 34.8108 35.1123 37.2946 34.4026 40.7658C34.2329 41.5834 34.1712 42.4165 34.1558 43.2496C34.1249 47.0756 34.1404 50.917 34.1404 54.743V55.4526H28.9722C28.9568 55.2675 28.9414 55.1132 28.9414 54.9435C28.9414 50.9633 28.9259 46.983 28.9568 43.0028C28.9722 40.7349 29.3116 38.5134 30.4532 36.5078C32.6439 32.651 35.8837 30.2443 40.3576 29.7198C45.1401 29.1644 49.1203 30.738 52.2212 34.4097C54.0108 36.5233 54.9827 39.0225 55.0444 41.7686C55.1524 46.1808 55.1215 50.593 55.1524 54.9898C55.1524 55.2675 55.1678 55.5143 54.7667 55.5143C53.2394 55.4989 51.7121 55.4989 50.1848 55.4989C50.1231 55.4989 50.0614 55.468 49.9534 55.4218Z" fill="#0F524D"/>
<path d="M120.95 55.4681C120.734 55.4836 120.58 55.499 120.41 55.499C116.167 55.4836 111.91 55.5298 107.667 55.4527C101.342 55.3447 96.189 51.1022 95.0628 44.885C93.6281 36.9553 98.8888 31.5866 104.119 30.1364C105.291 29.8125 106.541 29.6428 107.744 29.6273C111.971 29.5656 116.198 29.5965 120.425 29.5811C120.58 29.5811 120.719 29.5965 120.919 29.6119C120.934 29.7816 120.965 29.9513 120.965 30.1056C120.965 31.4015 120.95 32.7128 120.981 34.0087C120.996 34.4561 120.857 34.5795 120.41 34.5795C116.353 34.5641 112.295 34.5641 108.222 34.5795C104.335 34.6104 101.558 36.6159 100.324 40.3031C99.8453 41.7532 99.8762 43.2188 100.308 44.6998C101.295 48.063 104.211 50.408 107.713 50.4697C111.879 50.5468 116.059 50.5159 120.225 50.5314C120.965 50.5314 120.965 50.5314 120.965 51.2565V54.8356C120.981 55.0362 120.965 55.2367 120.95 55.4681Z" fill="#0F524D"/>
<path d="M79.2042 56.1007C74.7612 47.2145 70.3644 38.4672 65.9521 29.6428C66.1836 29.6274 66.3378 29.6119 66.4921 29.6119C67.7571 29.6119 69.0222 29.6428 70.2872 29.5965C70.7809 29.5811 71.0432 29.7353 71.2592 30.1827C73.7738 35.1349 76.3193 40.0871 78.8494 45.0238C78.942 45.209 79.0345 45.3787 79.1888 45.6409C79.3431 45.3787 79.4511 45.1935 79.5436 45.0084C82.12 40.0408 84.7118 35.0886 87.2727 30.121C87.4579 29.7508 87.6738 29.5811 88.1212 29.5965C89.5251 29.6274 90.9444 29.6119 92.4563 29.6119C88.0595 38.4518 83.6627 47.2145 79.2042 56.1007Z" fill="#0F524D"/>
<path d="M57.9297 29.6428H63.0207V55.4836H57.9297V29.6428Z" fill="#0F524D"/>
<path d="M120.934 40.1333C120.934 41.6915 120.934 43.2033 120.919 44.6998C120.919 44.8078 120.734 44.9158 120.626 45.0083C120.595 45.0392 120.518 45.0238 120.456 45.0238H107.775C107.667 45.0238 107.559 44.9929 107.436 44.9775V40.1487C111.925 40.1333 116.383 40.1333 120.934 40.1333Z" fill="#0F524D"/>
</svg>
