<svg width="300" height="160" viewBox="0 0 300 160" fill="none" xmlns="http://www.w3.org/2000/svg">
<g clip-path="url(#clip0_1326_1105)">
<path d="M279.974 99.3343C279.813 100.056 279.68 100.778 279.467 101.473C278.076 105.752 275.428 108.961 271.337 110.94C271.15 111.02 270.963 111.127 270.668 111.287C274.733 115.806 276.31 121.155 276.284 127.118H267.46C267.245 125.647 267.165 124.203 266.818 122.786C265.534 117.331 260.828 113.213 255.212 112.624C254.117 112.517 253.019 112.437 251.924 112.437C246.28 112.41 240.612 112.41 234.97 112.41C234.916 112.41 234.837 112.384 234.675 112.357V103.8H264.277C267.593 103.8 270.24 101.58 270.855 98.4518C271.55 94.815 268.904 91.3655 265.08 90.9911C264.01 90.8841 262.967 90.8307 261.897 90.8307H235.932C234.596 90.8307 234.596 90.8307 234.596 89.4401V83.4502C234.596 83.1027 234.622 82.7549 234.649 82.3539C235.05 82.3272 235.344 82.3003 235.665 82.3003H263.554C267.754 82.3003 271.578 83.3165 274.813 86.1778C277.567 88.6112 279.226 91.606 279.759 95.2161C279.787 95.4301 279.895 95.644 279.947 95.8579C279.974 97.0078 279.974 98.1575 279.974 99.3343Z" fill="#3A3A3A"/>
<path d="M279.974 40.291C274.76 40.2643 269.519 40.2642 264.303 40.2375H260.854V78.4768H251.281V40.2643H232.216V31.0387H278.744C279.172 31.0387 279.572 31.012 280 31.012C279.974 34.1139 279.974 37.2158 279.974 40.291Z" fill="#3A3A3A"/>
<path d="M67.5454 31.092V40.8257H36.0449C35.216 40.8257 34.3603 40.8524 33.558 41.0663C31.499 41.6011 30.2957 43.6602 30.5631 45.8529C30.7235 47.2167 32.5419 49.3025 34.6009 49.2758C40.0026 49.1955 45.3775 49.2222 50.7791 49.2758C52.4637 49.2758 54.1483 49.3025 55.8062 49.5966C61.823 50.6127 65.9946 53.9019 67.6524 59.8384C69.3372 65.855 67.8129 71.016 63.0263 75.1607C59.8709 77.8883 56.1273 78.5835 52.1162 78.5835H21.3108C21.0701 78.5835 20.8027 78.5568 20.4551 78.5301V68.85H51.9823C52.4904 68.85 53.0253 68.85 53.5333 68.7964C56.2876 68.5825 58.2397 66.4432 58.213 63.6087C58.1863 61.2556 56.0203 59.1163 53.4531 59.036C50.5385 58.9559 47.6504 59.0093 44.7356 58.9826C40.7781 58.9559 36.7937 59.0629 32.836 58.8221C27.06 58.4746 20.4551 53.1798 20.5086 45.4785C20.562 38.3655 24.4929 33.0441 31.0711 31.5199C32.5151 31.199 34.0126 31.0386 35.4834 31.0386C45.9389 30.9851 56.3945 31.0118 66.877 31.0118C67.0641 31.0386 67.2513 31.0653 67.5454 31.092Z" fill="#3A3A3A"/>
<path d="M150.201 31.0388C163.571 30.8248 174.188 41.6816 174.214 54.7846C174.241 67.9945 163.357 78.6907 150.228 78.5837C136.831 78.4768 126.268 68.1281 126.241 54.8648C126.188 41.6281 136.804 31.0655 150.201 31.0388ZM150.094 69.3582C158.143 69.3582 164.588 62.8602 164.641 54.624C164.695 46.9762 157.983 40.2376 150.254 40.2108C142.419 40.1573 135.868 46.8158 135.734 54.7043C135.601 62.673 142.66 69.7326 150.094 69.3582Z" fill="#3A3A3A"/>
<path d="M179.215 62.9136V53.7949H209.459C210.395 53.7949 211.357 53.7682 212.239 53.5543C215.396 52.8591 217.748 49.6501 217.561 46.4948C217.373 43.3928 214.753 40.692 211.49 40.3177C210.501 40.2107 209.485 40.1305 208.495 40.1305H179.268V31.0119H180.178C190.125 31.0119 200.073 30.9851 210.021 31.0119C215.342 31.0119 219.914 32.8035 223.471 36.9216C227.508 41.5745 228.338 49.2491 225.21 54.5704C223.338 57.7259 220.876 60.2663 217.294 61.6568C221.625 66.4701 223.256 72.1391 223.256 78.4767H213.898C213.657 76.8455 213.55 75.2411 213.175 73.6901C211.759 67.9675 206.731 63.5019 200.848 63.1542C196.062 62.8601 191.248 62.967 186.435 62.9136H179.215Z" fill="#3A3A3A"/>
<path d="M82.8946 71.1496V78.5033H73.375V61.7636H74.5247C82.6005 61.7636 90.6763 61.7905 98.7519 61.7369C100.223 61.7369 101.72 61.63 103.191 61.3892C107.844 60.6139 111.454 56.1748 111.668 51.4149C111.935 45.6657 107.255 40.1839 100.624 40.2641C91.9598 40.3443 83.3224 40.2909 74.6585 40.2909H73.4553V31.0386H99.4204C102.897 31.0386 106.319 31.4397 109.555 32.8302C116.989 35.9856 121.749 44.195 121.241 52.2975C120.679 61.2556 113.753 69.5719 103.886 70.7218C100.57 71.0962 97.1742 70.9624 93.8316 71.016C90.5691 71.0694 87.3068 71.0694 84.0445 71.0962C83.6701 71.0962 83.3224 71.1229 82.8946 71.1496Z" fill="#3A3A3A"/>
<path d="M20.0802 82.3809H29.0116V83.5574C29.0116 90.2427 28.9849 96.9012 29.0384 103.586C29.0651 105.244 29.2255 106.956 29.6267 108.56C31.0439 114.363 36.6862 118.695 42.6226 118.722C49.4682 118.748 55.5384 113.266 56.2069 106.448C56.3407 105.137 56.3941 103.8 56.3941 102.49C56.4208 96.2059 56.3941 89.9217 56.3941 83.6377V82.4077H65.3523C65.379 82.7019 65.4057 82.9692 65.4057 83.2633V103.372C65.379 107.972 64.6571 112.438 62.1434 116.422C58.3997 122.305 53.1585 126.049 46.1524 126.984C37.0606 128.188 29.6801 125.086 24.1181 117.759C21.7382 114.63 20.3476 110.994 20.2407 107.116C20 98.9602 20.0535 90.8042 20 82.6483C20 82.5681 20.0535 82.5147 20.0802 82.3809Z" fill="#3A3A3A"/>
<path d="M106.586 127.064V106.313C106.586 103.88 106.265 101.5 105.356 99.2271C103.109 93.4778 96.7184 90.5631 92.4131 90.8841C85.8884 91.3386 80.8612 95.6438 79.631 101.661C79.3369 103.078 79.2299 104.522 79.2032 105.966C79.1497 112.598 79.1765 119.256 79.1765 125.888V127.118H70.2183C70.1916 126.797 70.1649 126.529 70.1649 126.235C70.1649 119.336 70.1381 112.437 70.1916 105.538C70.2183 101.607 70.8066 97.7564 72.7854 94.28C76.5826 87.5949 82.1983 83.4233 89.953 82.5142C98.2427 81.5515 105.142 84.279 110.517 90.6433C113.619 94.3069 115.303 98.6388 115.41 103.399C115.597 111.047 115.544 118.694 115.597 126.315C115.597 126.797 115.624 127.225 114.929 127.225C112.281 127.198 109.634 127.198 106.987 127.198C106.88 127.198 106.773 127.144 106.586 127.064Z" fill="#3A3A3A"/>
<path d="M229.647 127.145C229.272 127.172 229.005 127.198 228.711 127.198C221.356 127.172 213.977 127.252 206.623 127.118C195.66 126.931 186.728 119.577 184.776 108.801C182.289 95.0559 191.407 85.7501 200.473 83.2364C202.505 82.675 204.671 82.3809 206.756 82.354C214.083 82.2471 221.41 82.3006 228.737 82.2739C229.005 82.2739 229.246 82.3006 229.593 82.3273C229.619 82.6215 229.673 82.9156 229.673 83.1831C229.673 85.4293 229.647 87.7022 229.701 89.9484C229.727 90.7239 229.486 90.9378 228.711 90.9378C221.679 90.9111 214.645 90.9111 207.585 90.9378C200.847 90.9914 196.034 94.4676 193.895 100.859C193.065 103.372 193.119 105.913 193.867 108.48C195.578 114.309 200.633 118.374 206.703 118.481C213.924 118.614 221.169 118.561 228.39 118.588C229.673 118.588 229.673 118.588 229.673 119.845V126.048C229.701 126.396 229.673 126.744 229.647 127.145Z" fill="#3A3A3A"/>
<path d="M157.288 128.241C149.586 112.838 141.965 97.6765 134.317 82.3809C134.719 82.3542 134.986 82.3273 135.253 82.3273C137.446 82.3273 139.639 82.3809 141.832 82.3006C142.687 82.2739 143.142 82.5412 143.516 83.3167C147.875 91.9005 152.287 100.484 156.673 109.041C156.833 109.362 156.994 109.656 157.261 110.111C157.528 109.656 157.716 109.335 157.876 109.015C162.342 100.404 166.834 91.8203 171.273 83.2098C171.594 82.5681 171.968 82.2739 172.744 82.3006C175.177 82.3542 177.637 82.3273 180.258 82.3273C172.637 97.6498 165.016 112.838 157.288 128.241Z" fill="#3A3A3A"/>
<path d="M120.411 82.3809H129.236V127.172H120.411V82.3809Z" fill="#3A3A3A"/>
<path d="M229.619 100.564C229.619 103.265 229.619 105.886 229.593 108.48C229.593 108.667 229.273 108.854 229.085 109.014C229.032 109.068 228.898 109.041 228.791 109.041H206.81C206.623 109.041 206.436 108.988 206.223 108.961V100.591C214.004 100.564 221.731 100.564 229.619 100.564Z" fill="#3A3A3A"/>
</g>
<defs>
<clipPath id="clip0_1326_1105">
<rect width="260" height="98.8" fill="white" transform="translate(20 31)"/>
</clipPath>
</defs>
</svg>
