<svg width="250" height="130" viewBox="0 0 250 130" fill="none" xmlns="http://www.w3.org/2000/svg">
<g clip-path="url(#clip0_1909_1870)">
<path d="M99.5339 94.9629H40.0588V94.4805L40.1674 54.5362C40.1674 54.1095 40.0407 53.7756 39.8054 53.4415C39.1719 52.6067 38.3032 52.1428 37.3439 51.846C37.2353 51.8089 37.1267 51.7903 37 51.7533V35.0371C37.0543 35.0186 37.1086 35.0186 37.1629 35.0186C42.3394 35.1299 47.4615 35.6494 52.4208 37.2264C59.5521 39.4898 65.0724 43.961 69.2354 50.269L69.7783 51.1039C69.7963 51.1224 69.8145 51.141 69.8687 51.1781C69.9592 51.0668 70.0316 50.9555 70.1221 50.8256C73.561 45.6122 77.9773 41.5677 83.5521 38.8776C86.6652 37.3748 89.9412 36.3729 93.3439 35.7607C96.2398 35.2412 99.1538 35 102.104 35H102.502C102.502 35.1484 102.52 35.2783 102.52 35.3896C102.52 40.7514 102.502 46.1132 102.502 51.4564C102.502 51.7161 102.448 51.8646 102.176 51.9573C101.271 52.3098 100.493 52.8664 99.8959 53.6642C99.715 53.9053 99.6425 54.1651 99.6425 54.4619C99.6425 61.0668 99.6245 67.6716 99.6063 74.2763L99.5521 94.5362C99.5339 94.7032 99.5339 94.8145 99.5339 94.9629ZM73.9593 71.6233C73.1085 71.6233 72.3846 72.347 72.3846 73.2189C72.3665 74.0724 73.0905 74.8329 73.9411 74.8329C74.7919 74.8516 75.5339 74.0909 75.5339 73.2189C75.5175 72.7979 75.3458 72.3991 75.0536 72.1028C74.7613 71.8066 74.3701 71.6353 73.9593 71.6233ZM55.5158 73.256C55.5158 74.1279 56.2399 74.8516 57.0905 74.8516C57.9412 74.8516 58.6651 74.1094 58.6651 73.2375C58.6651 72.3655 57.9231 71.6048 57.0725 71.6233C56.6578 71.6378 56.2646 71.8155 55.9745 72.1195C55.6845 72.4238 55.5202 72.8307 55.5158 73.256ZM93.4524 68.9889C93.4524 69.8609 94.1765 70.5844 95.0272 70.5844C95.8778 70.5844 96.6019 69.8424 96.6019 68.9889C96.6019 68.0983 95.8778 67.3562 95.0091 67.3748C94.1583 67.3748 93.4524 68.1168 93.4524 68.9889ZM75.5158 69.0075C75.52 68.5841 75.364 68.1754 75.0804 67.8675C74.797 67.5597 74.4081 67.3763 73.9955 67.3562C73.5769 67.3541 73.1742 67.5198 72.8733 67.8179C72.5722 68.1159 72.3968 68.5229 72.3846 68.9517C72.3665 69.8051 73.0905 70.5659 73.9231 70.5844C74.7557 70.6029 75.4978 69.8794 75.5158 69.0075ZM57.0905 67.3748C56.2399 67.3748 55.5158 68.0983 55.5158 68.9702C55.4978 69.8424 56.2399 70.6029 57.0905 70.6029C57.9412 70.6029 58.6471 69.8609 58.6471 68.9889C58.6489 68.7779 58.6101 68.5686 58.5328 68.3732C58.4555 68.1777 58.3411 67.9998 58.1966 67.8496C58.0519 67.6996 57.8796 67.5805 57.6898 67.499C57.5001 67.4175 57.2962 67.3753 57.0905 67.3748ZM96.6019 60.4545C96.6019 59.5825 95.896 58.8405 95.0452 58.8405C94.1946 58.8405 93.4706 59.5455 93.4524 60.4174C93.4344 61.2894 94.1765 62.0501 95.0272 62.0501C95.8778 62.0501 96.6019 61.3266 96.6019 60.4545ZM95.0272 91.9017C95.8778 91.9017 96.6019 91.1782 96.6019 90.3061C96.6199 89.4341 95.8778 88.6735 95.0272 88.6735C94.1765 88.6735 93.4706 89.4156 93.4706 90.2875C93.4524 91.1595 94.1765 91.9017 95.0272 91.9017ZM57.0725 91.9017C57.9231 91.9017 58.6471 91.1782 58.6471 90.3061C58.6651 89.4526 57.9412 88.6921 57.1086 88.6735C56.6894 88.6734 56.2868 88.8429 55.9888 89.1451C55.6905 89.4472 55.5206 89.8578 55.5158 90.2875C55.5158 91.1595 56.2217 91.9017 57.0725 91.9017ZM93.4524 56.1874C93.4524 57.0594 94.1765 57.7829 95.0272 57.7829C95.8778 57.7829 96.6019 57.0408 96.6019 56.1689C96.6019 55.2782 95.8778 54.5547 95.0091 54.5547C94.1583 54.5918 93.4524 55.3155 93.4524 56.1874ZM95.0272 87.653C95.8778 87.653 96.6019 86.9295 96.6019 86.0575C96.6019 85.1856 95.896 84.4434 95.0452 84.4434C94.1946 84.4248 93.4524 85.1856 93.4524 86.0575C93.4706 86.9109 94.1765 87.6345 95.0272 87.653ZM57.1086 87.653C57.9592 87.6345 58.6651 86.8924 58.6651 86.039C58.6651 85.1669 57.9412 84.4434 57.0905 84.4434C56.6712 84.4483 56.2708 84.6225 55.9759 84.9281C55.6812 85.2338 55.5158 85.6462 55.5158 86.0761C55.534 86.9295 56.2579 87.653 57.1086 87.653ZM54.4299 86.0575C54.4324 85.6333 54.2728 85.2249 53.9853 84.9198C53.6978 84.6145 53.3051 84.437 52.8914 84.4248C52.4721 84.4248 52.0697 84.5942 51.7715 84.8965C51.4733 85.1986 51.3034 85.6091 51.2986 86.039C51.2986 86.9109 52.0045 87.653 52.8552 87.653C53.7059 87.653 54.4299 86.9295 54.4299 86.0575ZM57.0725 83.3859C57.9231 83.3859 58.6471 82.6624 58.6471 81.7903C58.6651 80.9369 57.9412 80.1763 57.0905 80.1578C56.6712 80.1576 56.2688 80.3272 55.9706 80.6293C55.6724 80.9314 55.5026 81.3421 55.4978 81.7718C55.5158 82.6437 56.2217 83.3674 57.0725 83.3859ZM96.6019 77.5047C96.6019 76.6326 95.8778 75.9091 95.0272 75.8905C94.1583 75.8905 93.4344 76.6326 93.4524 77.5232C93.4706 78.3952 94.1946 79.1187 95.0272 79.1187C95.4419 79.1094 95.837 78.9362 96.1303 78.6355C96.4236 78.3348 96.5925 77.9298 96.6019 77.5047ZM96.6019 73.2375C96.6019 72.3655 95.8778 71.642 95.0272 71.642C94.6079 71.6468 94.2073 71.8209 93.9126 72.1266C93.6178 72.4322 93.4524 72.8448 93.4524 73.2745C93.4706 74.1466 94.1946 74.8702 95.0452 74.8516C95.896 74.8329 96.6019 74.0909 96.6019 73.2375ZM92.3846 86.039C92.3846 85.1669 91.6969 84.4248 90.8281 84.4248C89.9773 84.4063 89.2353 85.1669 89.2353 86.039C89.2353 86.9109 89.9593 87.6345 90.8099 87.6345C91.6607 87.6345 92.3846 86.9109 92.3846 86.039ZM54.4299 64.7217C54.4299 63.8498 53.7421 63.1075 52.8733 63.1075C52.454 63.1075 52.0516 63.2771 51.7534 63.5792C51.4552 63.8814 51.2853 64.292 51.2805 64.7217C51.2805 65.5936 52.0045 66.3172 52.8552 66.3172C53.724 66.3172 54.4299 65.5936 54.4299 64.7217ZM54.4299 68.9889C54.4299 68.1168 53.7421 67.3748 52.8733 67.3748C52.454 67.3748 52.0516 67.5442 51.7534 67.8463C51.4552 68.1486 51.2853 68.5591 51.2805 68.9889C51.2805 69.8609 52.0045 70.5844 52.8552 70.6029C53.724 70.5844 54.4299 69.8609 54.4299 68.9889ZM92.3846 77.5047C92.3846 76.6326 91.6787 75.9091 90.8281 75.8905C89.9773 75.8905 89.2353 76.6326 89.2535 77.5232C89.2715 78.3952 89.9773 79.1187 90.8281 79.1187C91.6787 79.1187 92.3846 78.3766 92.3846 77.5047ZM76.6018 68.9702C76.6018 69.8424 77.3076 70.5659 78.1584 70.5844C79.009 70.6029 79.7331 69.8609 79.7511 68.9889C79.7692 68.1168 79.0272 67.3562 78.1764 67.3562C77.3076 67.3748 76.6018 68.0983 76.6018 68.9702ZM55.5158 60.4359C55.5158 61.3081 56.2037 62.0501 57.0725 62.0686C57.9231 62.0872 58.6651 61.3266 58.6651 60.4545C58.6651 59.5825 57.9412 58.859 57.0905 58.859C56.8861 58.8565 56.6832 58.8954 56.4935 58.9734C56.3036 59.0512 56.1306 59.1668 55.9845 59.3132C55.8382 59.4595 55.7216 59.6341 55.6413 59.8268C55.5608 60.0195 55.5181 60.2265 55.5158 60.4359ZM54.4299 77.5232C54.4357 77.0979 54.2772 76.6876 53.989 76.3818C53.7007 76.0758 53.3062 75.8994 52.8914 75.8905C52.4738 75.8918 52.0729 76.0583 51.7726 76.3559C51.4723 76.6532 51.296 77.0584 51.2805 77.486C51.2805 78.3581 51.9864 79.1002 52.8371 79.1002C53.7059 79.1187 54.4299 78.3952 54.4299 77.5232ZM95.0452 46.039C94.1946 46.039 93.4706 46.744 93.4524 47.616C93.4344 48.4879 94.1583 49.2486 95.0272 49.2486C95.8778 49.2486 96.6019 48.5065 96.6019 47.6531C96.6019 46.7811 95.896 46.0575 95.0452 46.039ZM92.3846 90.2875C92.3846 89.4156 91.6607 88.6921 90.8099 88.6921C89.9593 88.6921 89.2535 89.4341 89.2353 90.3061C89.2353 91.1782 89.9773 91.9388 90.8281 91.9202C91.6969 91.9017 92.3846 91.1595 92.3846 90.2875ZM92.3846 68.9517C92.3846 68.0798 91.6607 67.3562 90.8099 67.3562C89.9593 67.3562 89.2535 68.0983 89.2535 68.9702C89.2535 69.8424 89.9955 70.6029 90.8461 70.5844C91.6969 70.5659 92.3846 69.8424 92.3846 68.9517ZM54.4299 60.4545C54.4299 59.5825 53.7421 58.8405 52.8914 58.8405C52.6833 58.8387 52.4769 58.8791 52.2841 58.9594C52.0913 59.0397 51.9158 59.1583 51.7678 59.3083C51.6198 59.4583 51.5022 59.6367 51.4217 59.8335C51.3412 60.0301 51.2994 60.2413 51.2986 60.4545C51.2986 61.3266 52.0226 62.0501 52.8733 62.0686C53.7059 62.0686 54.4299 61.3266 54.4299 60.4545ZM92.3846 64.7032C92.3846 63.8312 91.6787 63.1075 90.8099 63.1075C89.9593 63.1075 89.2535 63.8312 89.2353 64.7032C89.2353 65.5751 89.9773 66.3359 90.8281 66.3172C91.6787 66.2986 92.3846 65.5751 92.3846 64.7032ZM76.6018 64.7032C76.6018 65.5751 77.3076 66.3172 78.1584 66.3172C79.009 66.3359 79.7511 65.5751 79.7511 64.7032C79.7511 63.8312 79.0272 63.1075 78.1764 63.1075C77.3076 63.1075 76.6018 63.8312 76.6018 64.7032ZM61.3078 63.1075C60.457 63.1075 59.7511 63.8312 59.7331 64.7032C59.7331 65.5936 60.439 66.3359 61.3078 66.3359C62.1583 66.3359 62.8642 65.5936 62.8642 64.7217C62.8642 63.8312 62.1583 63.1075 61.3078 63.1075ZM92.3846 51.9017C92.3846 51.0297 91.6607 50.3061 90.8099 50.3061C89.9593 50.3061 89.2535 51.0297 89.2353 51.9017C89.2353 52.7736 89.9773 53.5344 90.8281 53.5158C91.6969 53.4973 92.3846 52.7736 92.3846 51.9017ZM71.2986 77.5047C71.2986 76.6326 70.5928 75.9091 69.742 75.8905C68.8914 75.8905 68.1855 76.5955 68.1674 77.486C68.1494 78.3766 68.8732 79.1187 69.742 79.1187C70.5928 79.1002 71.2986 78.3766 71.2986 77.5047ZM71.2986 73.2375C71.2986 72.347 70.6109 71.6233 69.742 71.6233C68.8732 71.6233 68.1494 72.3655 68.1674 73.2375C68.1674 74.1094 68.8914 74.8329 69.742 74.8329C70.5928 74.8516 71.2986 74.1279 71.2986 73.2375ZM61.2896 67.3748C60.439 67.3748 59.7331 68.0983 59.7331 68.9889C59.7331 69.8609 60.4208 70.5844 61.2896 70.6029C62.1403 70.6215 62.8824 69.8609 62.8642 68.9702C62.8642 68.0798 62.1403 67.3562 61.2896 67.3748ZM47.0996 51.9017C47.0984 52.1112 47.1374 52.3189 47.2146 52.513C47.2917 52.7071 47.4054 52.8835 47.5491 53.0326C47.6928 53.1816 47.8637 53.3002 48.0521 53.3815C48.2405 53.4629 48.4427 53.5052 48.6471 53.5065C48.8515 53.5077 49.0541 53.4676 49.2434 53.3886C49.4327 53.3095 49.605 53.1931 49.7504 53.0457C49.8957 52.8984 50.0114 52.7233 50.0907 52.5301C50.17 52.337 50.2115 52.1298 50.2127 51.9202C50.2127 51.0111 49.5249 50.2876 48.6561 50.2876C47.7873 50.3061 47.0996 51.0297 47.0996 51.9017ZM42.8823 47.6345C42.8823 48.525 43.552 49.2301 44.4208 49.2486C45.2715 49.2672 45.9774 48.5436 45.9955 47.6716C46.0008 47.4588 45.9644 47.2471 45.8886 47.049C45.8127 46.8509 45.6988 46.6704 45.5537 46.5182C45.4086 46.366 45.2351 46.2451 45.0437 46.1628C44.8522 46.0805 44.6465 46.0384 44.4389 46.039C43.5882 46.039 42.8823 46.7625 42.8823 47.6345ZM88.1493 56.1689C88.1493 55.2782 87.4616 54.5732 86.5928 54.5732C86.1799 54.5732 85.7841 54.7414 85.4922 55.0405C85.2001 55.3398 85.0362 55.7457 85.0362 56.1689C85.0362 57.0594 85.7421 57.8014 86.6108 57.7829C87.4616 57.7829 88.1675 57.0594 88.1493 56.1689ZM45.9955 51.9202C45.9979 51.7107 45.96 51.5027 45.8839 51.3082C45.8079 51.1137 45.6953 50.9364 45.5524 50.7865C45.4095 50.6367 45.2393 50.5171 45.0513 50.4346C44.8634 50.3522 44.6614 50.3085 44.457 50.3061C44.2522 50.3022 44.0487 50.34 43.8583 50.4174C43.6679 50.4948 43.4944 50.6102 43.3478 50.757C43.2013 50.9037 43.0847 51.0788 43.0048 51.2721C42.9249 51.4655 42.8833 51.6732 42.8823 51.8831C42.8643 52.7923 43.5701 53.5158 44.4389 53.5158C45.2896 53.5344 45.9955 52.8108 45.9955 51.9202ZM50.2127 73.2375C50.2127 72.3655 49.5068 71.642 48.6561 71.642C47.8054 71.642 47.0996 72.3655 47.0996 73.2375C47.0996 74.1279 47.8235 74.8702 48.6742 74.8516C49.543 74.8329 50.2127 74.1094 50.2127 73.2375ZM83.9322 73.2375C83.9322 72.347 83.2443 71.6233 82.3755 71.6233C81.5249 71.6233 80.8191 72.3283 80.8009 73.2189C80.7996 73.4296 80.839 73.6386 80.9166 73.8338C80.9941 74.0289 81.1085 74.2065 81.253 74.3565C81.3975 74.5063 81.5696 74.6256 81.7589 74.7073C81.9485 74.789 82.1519 74.8319 82.3575 74.8329C82.5631 74.8342 82.7669 74.7939 82.9573 74.7144C83.1478 74.6349 83.3209 74.5178 83.4672 74.3695C83.6135 74.2213 83.7298 74.0452 83.8095 73.8509C83.8893 73.6566 83.9309 73.4482 83.9322 73.2375ZM45.9955 73.2375C45.9955 72.8143 45.8315 72.4084 45.5396 72.1093C45.2477 71.81 44.8517 71.642 44.4389 71.642C43.5701 71.642 42.8823 72.3841 42.8823 73.2745C42.8823 74.1466 43.6063 74.8702 44.457 74.8516C45.3077 74.8329 45.9955 74.1094 45.9955 73.2375ZM88.1493 68.9889C88.1518 68.7793 88.1138 68.5714 88.0378 68.3768C87.9617 68.1823 87.8491 68.0051 87.7062 67.8551C87.5634 67.7053 87.3931 67.5856 87.2052 67.5032C87.0172 67.4208 86.8153 67.3772 86.6108 67.3748C86.404 67.3748 86.1993 67.4166 86.0082 67.4976C85.8172 67.5788 85.6436 67.6977 85.4975 67.8475C85.3512 67.9974 85.2352 68.1754 85.156 68.3711C85.0769 68.567 85.0362 68.7768 85.0362 68.9889C85.0362 69.8609 85.7421 70.5844 86.5928 70.5844C87.4616 70.5844 88.1493 69.8609 88.1493 68.9889ZM50.2127 56.1689C50.2127 55.2782 49.5249 54.5732 48.6561 54.5732C47.7873 54.5732 47.0814 55.2968 47.0996 56.2059C47.1176 57.0779 47.8235 57.8014 48.6742 57.8014C49.5249 57.7829 50.2127 57.0594 50.2127 56.1689ZM88.1493 81.7903C88.1493 80.8998 87.4796 80.1763 86.6108 80.1578C86.4036 80.1562 86.1982 80.1969 86.0066 80.2776C85.8149 80.3581 85.6408 80.477 85.4941 80.6272C85.3476 80.7774 85.2317 80.9559 85.1532 81.1523C85.0745 81.3489 85.0348 81.5595 85.0362 81.7718C85.0362 82.6624 85.7421 83.3674 86.5928 83.3859C87.4434 83.3859 88.1493 82.6624 88.1493 81.7903ZM42.8823 68.9889C42.8823 69.8609 43.6063 70.5844 44.457 70.5844C45.3077 70.5844 46.0136 69.8609 46.0136 68.9702C46.0136 68.0798 45.3258 67.3748 44.457 67.3562C43.5701 67.3562 42.8823 68.0983 42.8823 68.9889ZM83.9322 64.7032C83.9322 63.8125 83.2443 63.1075 82.3755 63.089C81.5068 63.089 80.8009 63.8125 80.8009 64.7217C80.8009 65.5936 81.5068 66.3172 82.3755 66.3172C83.2443 66.3172 83.9322 65.5936 83.9322 64.7032ZM50.2127 64.7032C50.2127 63.8125 49.5249 63.1075 48.6561 63.1075C48.2433 63.1075 47.8474 63.2757 47.5554 63.575C47.2635 63.8741 47.0996 64.28 47.0996 64.7032C47.0996 65.5936 47.8054 66.3359 48.6742 66.3359C49.5249 66.3172 50.2127 65.5936 50.2127 64.7032ZM50.2127 90.2875C50.2127 89.4156 49.5068 88.6921 48.6561 88.6921C47.8054 88.6921 47.0996 89.4156 47.0996 90.3061C47.0996 91.1967 47.7873 91.9202 48.638 91.9202C49.5068 91.9202 50.2127 91.1782 50.2127 90.2875ZM80.8191 60.3989C80.8009 61.3081 81.4888 62.0316 82.3575 62.0501C82.7609 62.0386 83.1444 61.8684 83.4283 61.5744C83.7123 61.2804 83.8746 60.8854 83.8815 60.4719C83.8886 60.0583 83.7396 59.6579 83.4659 59.354C83.1921 59.0501 82.8146 58.8661 82.4117 58.8405C81.9998 58.8339 81.6019 58.9936 81.304 59.2852C81.0059 59.5769 80.8318 59.9768 80.8191 60.3989ZM45.9955 77.5047C45.9955 76.6141 45.2896 75.9091 44.4389 75.8905C43.5701 75.8905 42.8643 76.6141 42.8823 77.5232C42.8823 78.3952 43.6063 79.1187 44.457 79.1187C45.3077 79.1002 45.9955 78.3766 45.9955 77.5047ZM88.1493 77.5232C88.1493 76.6326 87.4796 75.9091 86.6108 75.9091C86.4036 75.9076 86.1982 75.9484 86.0066 76.0289C85.8149 76.1095 85.6408 76.2283 85.4941 76.3785C85.3476 76.5286 85.2317 76.7072 85.1532 76.9038C85.0745 77.1002 85.0348 77.3108 85.0362 77.5232C85.0362 78.4137 85.7421 79.1187 86.5928 79.1372C87.4434 79.1187 88.1493 78.3952 88.1493 77.5232ZM50.2127 81.7903C50.2151 81.5808 50.1772 81.3728 50.1011 81.1783C50.0251 80.9838 49.9125 80.8065 49.7696 80.6566C49.6267 80.5068 49.4565 80.3872 49.2685 80.3048C49.0806 80.2224 48.8786 80.1786 48.6742 80.1763C48.467 80.1747 48.2616 80.2155 48.0699 80.2961C47.8782 80.3768 47.7041 80.4955 47.5575 80.6457C47.411 80.7959 47.2951 80.9745 47.2165 81.1709C47.1378 81.3675 47.0981 81.578 47.0996 81.7903C47.0996 82.6809 47.8054 83.3859 48.6561 83.4045C49.5068 83.3859 50.2127 82.6624 50.2127 81.7903ZM83.9322 81.7718C83.9322 80.8813 83.2263 80.1763 82.3755 80.1578C81.5068 80.1578 80.8009 80.8813 80.8191 81.7903C80.8191 82.6624 81.5429 83.3859 82.3937 83.3859C83.2443 83.3674 83.9502 82.6437 83.9322 81.7718ZM85.0362 90.3061C85.0362 91.1967 85.7421 91.9017 86.5928 91.9202C87.4616 91.9202 88.1675 91.1967 88.1493 90.2875C88.1493 89.4156 87.4254 88.6921 86.5746 88.6921C86.3703 88.6944 86.1682 88.7381 85.9803 88.8205C85.7923 88.9029 85.6221 89.0226 85.4793 89.1724C85.3363 89.3222 85.2238 89.4996 85.1477 89.6941C85.0716 89.8885 85.0339 90.0966 85.0362 90.3061ZM67.0815 68.9517C67.0815 68.0798 66.3756 67.3562 65.5067 67.3562C64.6561 67.3562 63.9502 68.0798 63.9502 68.9702C63.9502 69.8609 64.6379 70.5659 65.5067 70.5844C66.3756 70.5844 67.0815 69.8609 67.0815 68.9517ZM45.9955 86.039C46.0003 85.6158 45.8409 85.208 45.5524 84.9053C45.2639 84.6025 44.8698 84.4298 44.457 84.4248C44.0442 84.4199 43.6464 84.5833 43.3511 84.8791C43.0557 85.1748 42.8871 85.5788 42.8823 86.0018C42.8823 86.9109 43.5701 87.6345 44.4389 87.6345C45.2896 87.653 45.9955 86.9295 45.9955 86.039ZM45.9955 60.4359C45.9955 60.0128 45.8315 59.6071 45.5396 59.3078C45.2477 59.0085 44.8517 58.8405 44.4389 58.8405C43.5701 58.8405 42.8823 59.5825 42.8823 60.4732C42.9005 61.3451 43.6063 62.0686 44.457 62.0501C45.3258 62.0316 45.9955 61.3081 45.9955 60.4359ZM88.1493 60.4359C88.1493 59.5455 87.4616 58.8405 86.5928 58.8219C85.7421 58.8219 85.0362 59.5269 85.0182 60.4174C85.0182 61.3081 85.7241 62.0501 86.5928 62.0501C87.4616 62.0501 88.1493 61.3266 88.1493 60.4359ZM47.0996 86.0575C47.0996 86.9295 47.8235 87.653 48.6742 87.653C49.543 87.653 50.2308 86.9109 50.2308 86.0018C50.2272 85.7911 50.1832 85.5832 50.1012 85.3898C50.0192 85.1965 49.9009 85.0216 49.753 84.8752C49.6051 84.7287 49.4305 84.6136 49.2392 84.5364C49.0479 84.4591 48.8436 84.4211 48.638 84.4248C48.4324 84.4285 48.2295 84.4737 48.0409 84.5577C47.8524 84.6417 47.6818 84.7629 47.5389 84.9145C47.396 85.0661 47.2837 85.2451 47.2083 85.4413C47.1329 85.6374 47.096 85.8468 47.0996 86.0575ZM67.0815 73.2189C67.0815 72.7958 66.9174 72.3899 66.6255 72.0908C66.3336 71.7915 65.9376 71.6233 65.5249 71.6233C64.6743 71.6233 63.9682 72.347 63.9682 73.2189C63.9682 74.1094 64.6923 74.8516 65.5431 74.8329C66.3936 74.8329 67.0815 74.1094 67.0815 73.2189ZM80.8191 86.039C80.8191 86.9109 81.5249 87.6345 82.3755 87.6345C83.2263 87.6345 83.9322 86.9109 83.9322 86.039C83.9322 85.1484 83.2263 84.4063 82.3575 84.4248C81.5068 84.4434 80.8191 85.1484 80.8191 86.039Z" fill="white"/>
<path d="M144.185 94.9622H136.24V69.5633C136.059 69.6562 135.932 69.6932 135.823 69.749C133.308 71.1217 131.317 73.107 129.76 75.5189C128.837 76.9474 128.059 78.4873 127.244 79.9901C127.135 80.1941 127.027 80.3055 126.774 80.2869C126.14 80.2684 125.525 80.2684 124.891 80.2869C124.638 80.2869 124.529 80.1941 124.439 79.9901C123.498 77.8936 122.375 75.927 120.945 74.1459C119.516 72.3463 117.832 70.8622 115.823 69.7675C115.733 69.7117 115.624 69.6747 115.461 69.6006V94.9994H107.479V59.2852C115.099 59.4706 121.181 62.6617 125.832 68.8027C130.466 62.6803 136.547 59.4706 144.167 59.2852C144.185 71.1775 144.185 83.0513 144.185 94.9622Z" fill="white"/>
<path d="M191.444 74.6665C191.516 74.5737 191.607 74.481 191.679 74.3697C195.335 69.3974 198.991 64.4069 202.63 59.4161C202.792 59.1934 202.973 59.1007 203.245 59.1007C206.159 59.1193 209.073 59.1007 211.987 59.1007H212.439C208.023 64.6664 203.661 70.1397 199.281 75.6498C204.005 82.0691 208.711 88.4884 213.471 94.9447C213.308 94.9634 213.2 94.9634 213.091 94.9634H203.716C203.462 94.9634 203.317 94.8706 203.154 94.6664C199.335 89.2119 195.516 83.7389 191.679 78.2843C191.607 78.1634 191.508 78.0618 191.39 77.9875V94.9262H183.408C183.408 94.8149 183.39 94.6852 183.39 94.5738V59.4902C183.39 59.1563 183.48 59.082 183.788 59.082C186.177 59.1007 188.566 59.1007 190.955 59.082C191.299 59.082 191.39 59.1749 191.39 59.5274C191.372 64.4254 191.39 69.3048 191.39 74.2027V74.6109C191.39 74.648 191.408 74.648 191.444 74.6665Z" fill="white"/>
<path d="M179.987 94.982H170.232C169.942 94.982 169.779 94.8891 169.616 94.6664C165.797 89.1934 161.96 83.7203 158.123 78.2658L157.851 77.9132V94.9634H149.888V59.1378H157.815V74.6294C157.833 74.648 157.87 74.6665 157.888 74.6665C157.96 74.5737 158.051 74.481 158.123 74.3697C161.761 69.3974 165.417 64.4254 169.055 59.4531C169.236 59.1934 169.435 59.082 169.761 59.082C172.639 59.1007 175.517 59.082 178.395 59.082H178.901C174.485 64.6479 170.123 70.1211 165.743 75.6313C170.503 82.0876 175.227 88.4884 179.987 94.982Z" fill="white"/>
</g>
<defs>
<clipPath id="clip0_1909_1870">
<rect width="176.471" height="60" fill="white" transform="translate(37 35)"/>
</clipPath>
</defs>
</svg>
