<svg width="250" height="130" viewBox="0 0 250 130" fill="none" xmlns="http://www.w3.org/2000/svg">
<path fill-rule="evenodd" clip-rule="evenodd" d="M36.201 72.6205C36.201 72.9894 36.1887 73.3038 36.1661 73.5606C36.1455 73.8223 36.1131 74.0419 36.0688 74.2276C36.0256 74.4116 35.9638 74.5699 35.8916 74.703C35.8169 74.8356 35.6991 74.9894 35.538 75.1569C35.373 75.3266 35.0596 75.5443 34.596 75.811C34.1309 76.0757 33.5617 76.332 32.8898 76.5762C32.2176 76.8192 31.449 77.0211 30.5865 77.1841C29.7217 77.3466 28.787 77.4277 27.7831 77.4277C25.8187 77.4276 24.0462 77.1256 22.4658 76.5177C20.8859 75.9141 19.5418 75.009 18.4336 73.8042C17.3266 72.6024 16.4772 71.1001 15.8874 69.2993C15.296 67.4963 15 65.3993 15 63.0105C15 60.5724 15.3248 58.4086 15.976 56.5188C16.6241 54.6289 17.5319 53.0412 18.6999 51.7589C19.8663 50.4725 21.2665 49.4968 22.8985 48.8313C24.5305 48.1687 26.3279 47.8377 28.2925 47.8377C29.0905 47.8377 29.8572 47.9026 30.5958 48.0342C31.3359 48.1687 32.019 48.3421 32.6458 48.5568C33.2743 48.7719 33.8387 49.0184 34.3406 49.3003C34.843 49.5793 35.1937 49.8204 35.3921 50.0178C35.591 50.2173 35.727 50.3833 35.8041 50.5158C35.8749 50.6483 35.9363 50.8179 35.98 51.0272C36.0256 51.2333 36.0561 51.476 36.0781 51.7589C36.0998 52.0379 36.1131 52.3835 36.1131 52.7985C36.1131 53.2419 36.0979 53.6172 36.0688 53.9271C36.0384 54.2361 35.9864 54.49 35.9141 54.679C35.838 54.8735 35.7491 55.0136 35.6489 55.1029C35.5438 55.1898 35.4274 55.2345 35.2939 55.2345C35.0709 55.2345 34.7909 55.1059 34.4521 54.8471C34.1113 54.5872 33.6717 54.3015 33.1319 53.9832C32.5947 53.6644 31.9528 53.3771 31.2063 53.1189C30.4589 52.8605 29.5698 52.7313 28.5366 52.7313C27.3992 52.7311 26.3831 52.964 25.4897 53.4292C24.5958 53.8937 23.8356 54.5603 23.2084 55.4222C22.5798 56.2864 22.1034 57.3297 21.7788 58.556C21.4522 59.7818 21.2906 61.1623 21.2906 62.6991C21.2906 64.382 21.4649 65.8384 21.8142 67.0729C22.1585 68.3055 22.6545 69.3218 23.2973 70.118C23.9387 70.9144 24.7141 71.5083 25.6252 71.9022C26.5309 72.294 27.5543 72.4881 28.6912 72.4881C29.7256 72.488 30.6184 72.3648 31.3712 72.1221C32.1262 71.881 32.7719 71.6105 33.3102 71.3119C33.8496 71.0191 34.2924 70.7529 34.6392 70.5177C34.9869 70.281 35.2566 70.1621 35.4486 70.1621C35.5939 70.162 35.7152 70.1926 35.8041 70.2501C35.8916 70.3104 35.9638 70.4283 36.0256 70.6047C36.0836 70.7813 36.1273 71.0294 36.1578 71.3482C36.1852 71.6644 36.2009 72.0888 36.201 72.6205Z" fill="white"/>
<path fill-rule="evenodd" clip-rule="evenodd" d="M63.0565 65.7527C63.0565 66.4318 62.9027 66.9363 62.6012 67.2614C62.2952 67.5835 61.8802 67.7496 61.3488 67.7496L49.3184 67.7495C49.3184 68.5882 49.4206 69.3521 49.6189 70.0397C49.8179 70.7275 50.134 71.3096 50.5708 71.79C51.0064 72.2707 51.5677 72.6337 52.2553 72.8857C52.9423 73.1356 53.7645 73.2639 54.7241 73.2639C55.6994 73.2638 56.5555 73.1917 57.2942 73.0522C58.0344 72.9111 58.6722 72.7565 59.21 72.5866C59.7507 72.4166 60.1966 72.262 60.5508 72.121C60.9048 71.9828 61.1941 71.9118 61.4137 71.9118C61.5473 71.9117 61.6592 71.9393 61.7461 71.9884C61.8366 72.0413 61.9107 72.1338 61.9696 72.2649C62.027 72.398 62.0692 72.5866 62.0909 72.8297C62.1131 73.0737 62.1243 73.3797 62.1243 73.7506C62.1243 74.0751 62.1164 74.3508 62.1032 74.5805C62.087 74.8097 62.0659 75.0053 62.035 75.167C62.0064 75.3304 61.9612 75.466 61.9033 75.577C61.8449 75.6865 61.7657 75.7951 61.67 75.8987C61.5734 76.0017 61.312 76.1408 60.8837 76.3172C60.4541 76.4948 59.9093 76.6678 59.2454 76.8392C58.5799 77.0081 57.8191 77.155 56.9611 77.2832C56.1051 77.406 55.1906 77.4707 54.2153 77.4707C52.4577 77.4707 50.9189 77.2493 49.5964 76.8053C48.2753 76.3628 47.1702 75.6914 46.2842 74.7903C45.3963 73.889 44.7372 72.7522 44.3007 71.3805C43.8645 70.0052 43.6484 68.3978 43.6484 66.5512C43.6484 64.7939 43.8763 63.2112 44.3345 61.8001C44.7917 60.3906 45.4577 59.1933 46.3299 58.2125C47.1987 57.2287 48.2589 56.4808 49.5094 55.9642C50.7544 55.4475 52.1614 55.1887 53.7266 55.1887C55.3812 55.1887 56.7962 55.4328 57.9709 55.9209C59.1442 56.4065 60.1082 57.082 60.8611 57.9473C61.6136 58.81 62.1675 59.8327 62.5236 61.0138C62.8788 62.1944 63.0564 63.4788 63.0564 64.8687L63.0565 65.7527ZM57.6478 64.159C57.693 62.5942 57.3796 61.366 56.7078 60.4721C56.0353 59.5792 54.9986 59.1304 53.5945 59.1304C52.8854 59.1302 52.27 59.264 51.7429 59.5297C51.222 59.7958 50.7853 60.1529 50.4381 60.6052C50.0885 61.056 49.8242 61.586 49.6415 62.199C49.454 62.8118 49.3493 63.464 49.3184 64.159H57.6478Z" fill="white"/>
<path fill-rule="evenodd" clip-rule="evenodd" d="M98.9237 76.0953C98.9544 76.4655 98.7836 76.7254 98.4133 76.8723C98.045 77.0194 97.3869 77.0938 96.4425 77.0938C95.866 77.0936 95.4038 77.0854 95.058 77.0706C94.7108 77.0577 94.444 77.0195 94.2614 76.9611C94.0738 76.9011 93.9496 76.8177 93.8837 76.7081C93.8174 76.5948 93.7772 76.4503 93.7609 76.2745L92.5882 65.6649C92.545 65.2812 92.5022 64.8536 92.4648 64.3806C92.4286 63.9076 92.3927 63.4263 92.3534 62.9412C92.3181 62.4543 92.2847 61.9711 92.2571 61.4898C92.2252 61.0105 92.1903 60.5788 92.1452 60.1928L92.1683 59.6397C92.0632 60.0376 91.9497 60.4733 91.8234 60.9466C91.6958 61.4201 91.5608 61.8994 91.4133 62.3886C91.2666 62.8738 91.1261 63.3591 90.9921 63.8374C90.859 64.3158 90.7333 64.7494 90.6158 65.133L87.1353 76.0741C87.0789 76.25 86.9903 76.4071 86.8706 76.5377C86.7546 76.6722 86.5866 76.7784 86.3746 76.8604C86.1599 76.9419 85.8854 77.0003 85.5543 77.0392C85.2219 77.0765 84.803 77.0938 84.3025 77.0938C83.8448 77.0936 83.4558 77.0765 83.1395 77.0392C82.8208 77.0003 82.5545 76.942 82.3429 76.8604C82.1278 76.7783 81.9598 76.6723 81.8434 76.5377C81.7246 76.407 81.6435 76.2441 81.5998 76.0516L78.2106 65.133C78.0923 64.7493 77.9641 64.3216 77.8226 63.8483C77.6823 63.3752 77.5412 62.8955 77.4008 62.4107C77.2603 61.922 77.1282 61.4387 77.0019 60.958C76.8778 60.4786 76.7711 60.0375 76.6817 59.6398L76.7048 60.1928C76.673 60.5787 76.6454 61.0105 76.6155 61.4898C76.5836 61.9711 76.5496 62.4545 76.5045 62.9412C76.4614 63.4262 76.4136 63.9076 76.3704 64.3806C76.3267 64.8536 76.2914 65.2814 76.2589 65.6649L75.1293 76.1404C75.1004 76.3324 75.0488 76.4916 74.9747 76.6187C74.9015 76.7425 74.7616 76.8432 74.5533 76.9164C74.3479 76.9905 74.0666 77.0392 73.713 77.0603C73.3599 77.0839 72.8937 77.0938 72.3172 77.0938C71.8006 77.0936 71.385 77.079 71.0767 77.05C70.7662 77.0194 70.5257 76.964 70.3562 76.884C70.1868 76.801 70.0767 76.6978 70.0246 76.5746C69.9716 76.4483 69.9525 76.2892 69.9682 76.0953L71.9185 57.6031C71.992 56.9672 72.1974 56.4917 72.5387 56.1741C72.8781 55.8566 73.3952 55.6991 74.0897 55.6991L76.9038 55.6989C77.4931 55.6989 77.9955 55.7423 78.409 55.8308C78.8232 55.9205 79.183 56.0733 79.4948 56.2948C79.8053 56.5172 80.0622 56.8213 80.2704 57.2044C80.4772 57.5864 80.6613 58.0688 80.8243 58.6443L83.0389 65.4221C83.1715 65.8627 83.305 66.3245 83.4376 66.8062C83.5722 67.2861 83.7047 67.7644 83.8368 68.2447C83.9695 68.7236 84.0903 69.1887 84.2023 69.64C84.3138 70.0907 84.4135 70.5161 84.5028 70.913L84.525 70.9129C84.6124 70.516 84.7146 70.0795 84.8353 69.6076C84.9517 69.1355 85.0744 68.6563 85.1988 68.1681C85.325 67.6804 85.4576 67.2015 85.5976 66.7292C85.7385 66.2556 85.876 65.8127 86.0086 65.3977L88.2246 58.6443C88.3705 58.1119 88.5349 57.6581 88.7108 57.2805C88.8891 56.9042 89.1164 56.6013 89.3978 56.3719C89.6773 56.1469 90.0255 55.9751 90.438 55.865C90.8535 55.7529 91.3618 55.699 91.9678 55.699L94.7574 55.6989C95.4681 55.6989 95.9965 55.8568 96.3422 56.174C96.6896 56.4917 96.8919 56.9672 96.9532 57.6031L98.9237 76.0953Z" fill="white"/>
<path fill-rule="evenodd" clip-rule="evenodd" d="M123.298 65.7527C123.298 66.4318 123.145 66.9363 122.843 67.2614C122.539 67.5835 122.122 67.7496 121.592 67.7496L109.561 67.7495C109.561 68.5882 109.661 69.3521 109.86 70.0397C110.06 70.7275 110.378 71.3096 110.815 71.79C111.249 72.2707 111.81 72.6337 112.496 72.8857C113.183 73.1356 114.007 73.2639 114.967 73.2639C115.942 73.2638 116.798 73.1917 117.536 73.0522C118.274 72.9111 118.914 72.7565 119.453 72.5866C119.992 72.4166 120.439 72.262 120.793 72.121C121.149 71.9828 121.436 71.9118 121.657 71.9118C121.789 71.9117 121.9 71.9393 121.989 71.9884C122.077 72.0413 122.152 72.1338 122.21 72.2649C122.272 72.398 122.312 72.5866 122.335 72.8297C122.357 73.0737 122.365 73.3797 122.365 73.7506C122.365 74.0751 122.36 74.3508 122.344 74.5805C122.33 74.8097 122.307 75.0053 122.278 75.167C122.249 75.3304 122.203 75.466 122.144 75.577C122.086 75.6865 122.008 75.7951 121.913 75.8987C121.816 76.0017 121.553 76.1408 121.126 76.3172C120.696 76.4948 120.151 76.6678 119.486 76.8392C118.821 77.0081 118.061 77.155 117.205 77.2832C116.347 77.406 115.431 77.4707 114.456 77.4707C112.698 77.4707 111.16 77.2493 109.839 76.8053C108.516 76.3628 107.412 75.6914 106.525 74.7903C105.64 73.889 104.979 72.7522 104.543 71.3805C104.107 70.0052 103.891 68.3978 103.891 66.5512C103.891 64.7939 104.119 63.2112 104.578 61.8001C105.034 60.3906 105.698 59.1933 106.571 58.2125C107.443 57.2287 108.503 56.4808 109.75 55.9642C110.997 55.4475 112.404 55.1887 113.97 55.1887C115.624 55.1887 117.037 55.4328 118.213 55.9209C119.388 56.4065 120.351 57.082 121.103 57.9473C121.856 58.81 122.408 59.8327 122.764 61.0138C123.119 62.1944 123.298 63.4788 123.298 64.8687V65.7527L123.298 65.7527ZM117.892 64.159C117.936 62.5942 117.622 61.366 116.948 60.4721C116.279 59.5792 115.241 59.1304 113.837 59.1304C113.13 59.1302 112.513 59.264 111.987 59.5297C111.463 59.7958 111.026 60.1529 110.68 60.6052C110.333 61.056 110.068 61.586 109.882 62.199C109.696 62.8118 109.591 63.464 109.561 64.159H117.892Z" fill="white"/>
<path fill-rule="evenodd" clip-rule="evenodd" d="M150.745 66.0417C150.745 67.799 150.558 69.3844 150.181 70.7944C149.805 72.2049 149.254 73.4033 148.53 74.3918C147.807 75.3823 146.905 76.1412 145.826 76.6731C144.747 77.2065 143.514 77.4711 142.127 77.4711C141.552 77.4711 141.023 77.4161 140.541 77.3042C140.064 77.1946 139.599 77.0248 139.148 76.7959C138.697 76.5659 138.249 76.2836 137.807 75.9428C137.364 75.6034 136.905 75.2057 136.435 74.747V84.0507C136.435 84.1946 136.39 84.3287 136.301 84.448C136.214 84.5659 136.061 84.6641 135.846 84.7472C135.63 84.8277 135.348 84.8925 134.995 84.9357C134.638 84.9798 134.19 85 133.642 85C133.096 85 132.645 84.98 132.291 84.9357C131.936 84.8924 131.655 84.8277 131.438 84.7472C131.224 84.6641 131.074 84.5659 130.985 84.448C130.895 84.3286 130.851 84.1946 130.851 84.0507V56.4537C130.851 56.3053 130.888 56.1748 130.961 56.0624C131.037 55.9527 131.164 55.8609 131.351 55.7859C131.533 55.7121 131.777 55.6596 132.08 55.6217C132.383 55.5844 132.763 55.5648 133.222 55.5648C133.665 55.5647 134.038 55.5844 134.34 55.6217C134.643 55.6596 134.886 55.7121 135.072 55.7859C135.255 55.8608 135.384 55.9528 135.46 56.0624C135.534 56.1748 135.569 56.3054 135.569 56.4537V58.778C136.146 58.1848 136.711 57.6668 137.264 57.2149C137.819 56.766 138.382 56.3894 138.959 56.0878C139.535 55.7838 140.13 55.5574 140.744 55.4121C141.354 55.2637 142.009 55.1891 142.704 55.1891C144.151 55.1891 145.384 55.4754 146.403 56.0422C147.422 56.6099 148.253 57.3884 148.895 58.3779C149.54 59.3675 150.007 60.5192 150.301 61.833C150.598 63.1491 150.745 64.5518 150.745 66.0417ZM144.94 66.4401C144.94 65.5979 144.878 64.7891 144.752 64.0164C144.629 63.242 144.413 62.5505 144.109 61.9464C143.807 61.3387 143.407 60.8551 142.914 60.4937C142.419 60.1322 141.802 59.952 141.063 59.952C140.695 59.9519 140.329 60.0074 139.967 60.1176C139.606 60.2289 139.236 60.4087 138.86 60.6602C138.484 60.9126 138.095 61.2357 137.696 61.635C137.299 62.0337 136.877 62.5274 136.435 63.1192V69.6294C137.216 70.6199 137.962 71.3838 138.671 71.9235C139.38 72.4627 140.119 72.7314 140.888 72.7314C141.611 72.7313 142.229 72.5447 142.737 72.1775C143.246 71.8085 143.663 71.3253 143.989 70.7281C144.312 70.1288 144.553 69.4516 144.708 68.7003C144.863 67.9474 144.94 67.1936 144.94 66.4401Z" fill="white"/>
<path fill-rule="evenodd" clip-rule="evenodd" d="M177.523 76.2745C177.523 76.4218 177.481 76.549 177.4 76.6498C177.318 76.7542 177.175 76.8388 176.97 76.9051C176.762 76.9718 176.485 77.0195 176.137 77.05C175.79 77.0789 175.35 77.0938 174.819 77.0938C174.288 77.0936 173.842 77.079 173.479 77.05C173.117 77.0194 172.822 76.9719 172.593 76.9051C172.364 76.8388 172.201 76.7543 172.106 76.6498C172.01 76.549 171.962 76.4219 171.962 76.2745V67.4588C171.962 66.839 171.979 66.1957 172.017 65.5303C172.054 64.8683 172.108 64.218 172.183 63.5821C171.829 64.2018 171.445 64.8133 171.031 65.411C170.616 66.0096 170.196 66.6029 169.768 67.1928L163.1 76.25C162.967 76.4155 162.84 76.551 162.723 76.662C162.605 76.7724 162.455 76.8604 162.269 76.9272C162.085 76.9955 161.853 77.0392 161.572 77.0603C161.29 77.0839 160.928 77.0938 160.486 77.0938C159.953 77.0936 159.523 77.079 159.192 77.05C158.857 77.0194 158.592 76.9719 158.392 76.9051C158.193 76.8388 158.053 76.7514 157.97 76.6399C157.889 76.5298 157.851 76.3992 157.851 76.25V56.4292C157.851 56.2948 157.889 56.1741 157.97 56.0616C158.053 55.9519 158.201 55.8601 158.415 55.7851C158.629 55.7113 158.909 55.6588 159.258 55.621C159.601 55.5836 160.04 55.564 160.576 55.564C161.622 55.5639 162.361 55.6396 162.789 55.7851C163.218 55.9322 163.432 56.15 163.432 56.4294V65.1987C163.432 65.8063 163.409 66.4316 163.364 67.0813C163.32 67.7304 163.263 68.3587 163.188 68.9647C163.542 68.3737 163.905 67.7875 164.273 67.2035C164.642 66.622 165.034 66.0562 165.45 65.5087L172.183 56.4292C172.301 56.2662 172.427 56.1308 172.559 56.0183C172.692 55.9087 172.859 55.8193 173.057 55.7531C173.258 55.6867 173.5 55.6396 173.788 55.6082C174.078 55.5786 174.45 55.564 174.907 55.564C175.423 55.5639 175.853 55.5788 176.192 55.6082C176.531 55.6396 176.802 55.6888 177 55.7643C177.2 55.839 177.337 55.9324 177.412 56.0517C177.485 56.1706 177.523 56.3046 177.523 56.4529V76.2745H177.523Z" fill="white"/>
<path fill-rule="evenodd" clip-rule="evenodd" d="M205.356 76.4287C205.356 76.549 205.315 76.6463 205.234 76.7289C205.154 76.8088 205.008 76.8762 204.801 76.9272C204.594 76.9793 204.31 77.0195 203.947 77.05C203.588 77.0789 203.132 77.0938 202.586 77.0938C201.966 77.0936 201.455 77.079 201.058 77.05C200.658 77.0194 200.343 76.9793 200.106 76.9272C199.869 76.8762 199.697 76.7981 199.595 76.6935C199.493 76.5927 199.409 76.4656 199.352 76.3168L197.514 71.601C197.293 70.9675 197.051 70.4351 196.794 70.0049C196.537 69.5789 196.252 69.2338 195.942 68.976C195.63 68.7166 195.274 68.532 194.877 68.4215C194.476 68.3104 194.02 68.2569 193.503 68.2569H192.375V76.3167C192.375 76.4218 192.32 76.5216 192.22 76.6187C192.115 76.7145 191.954 76.7981 191.73 76.8723C191.509 76.9469 191.221 77.0003 190.868 77.0392C190.513 77.0765 190.084 77.0938 189.582 77.0938C189.066 77.0936 188.63 77.0765 188.277 77.0392C187.921 77.0003 187.633 76.9469 187.411 76.8723C187.189 76.7981 187.029 76.7145 186.936 76.6187C186.839 76.5216 186.79 76.4219 186.79 76.3168V56.3168C186.79 56.2147 186.839 56.115 186.936 56.0183C187.029 55.925 187.189 55.8411 187.411 55.7762C187.633 55.7098 187.921 55.6588 188.277 55.621C188.63 55.5836 189.065 55.564 189.582 55.564C190.084 55.5639 190.513 55.5836 190.868 55.621C191.222 55.6588 191.509 55.7099 191.73 55.7762C191.954 55.8409 192.115 55.925 192.22 56.0183C192.32 56.115 192.375 56.2147 192.375 56.3169L192.375 64.0043H193.503C193.961 64.0043 194.374 63.9484 194.743 63.8374C195.113 63.7273 195.449 63.5413 195.751 63.2854C196.055 63.0265 196.335 62.6818 196.593 62.2555C196.851 61.8258 197.099 61.2949 197.336 60.6594L198.996 56.4061C199.042 56.2584 199.116 56.1308 199.22 56.0183C199.322 55.9087 199.482 55.8193 199.694 55.7531C199.909 55.6867 200.204 55.6396 200.58 55.6082C200.958 55.5786 201.455 55.564 202.076 55.564C202.623 55.5639 203.069 55.5788 203.417 55.6082C203.765 55.6396 204.037 55.6839 204.235 55.7424C204.436 55.8007 204.573 55.8714 204.648 55.952C204.721 56.0344 204.757 56.1333 204.757 56.2516C204.757 56.3979 204.728 56.5772 204.669 56.7844C204.61 56.9896 204.507 57.2707 204.36 57.6252L202.787 61.39C202.474 62.144 202.145 62.782 201.801 63.306C201.453 63.8309 201.1 64.2637 200.738 64.6016C200.375 64.94 200.008 65.2155 199.641 65.4222C199.271 65.6286 198.917 65.7901 198.575 65.9089V65.9535C199.035 66.1446 199.462 66.351 199.862 66.5734C200.262 66.7949 200.64 67.0813 201.003 67.4378C201.365 67.7922 201.713 68.2315 202.045 68.7555C202.376 69.2774 202.705 69.9096 203.028 70.6482L204.958 75.0781C205.047 75.2706 205.116 75.4347 205.168 75.5766C205.219 75.7175 205.262 75.8428 205.289 75.9552C205.319 76.0644 205.336 76.1552 205.345 76.2274C205.352 76.3059 205.356 76.3718 205.356 76.4287Z" fill="white"/>
<path fill-rule="evenodd" clip-rule="evenodd" d="M219.935 58.821H223.746C225.916 58.821 227.645 59.0106 228.928 59.3883C230.214 59.7644 231.303 60.3209 232.197 61.059C233.09 61.7985 233.78 62.7067 234.268 63.7847C234.755 64.8616 235 66.0876 235 67.4608C235 68.8176 234.794 70.0672 234.391 71.2026C233.984 72.3394 233.328 73.3326 232.417 74.1836C231.51 75.0332 230.325 75.7076 228.863 76.2081C227.402 76.7109 225.399 76.9629 222.859 76.9629H215.903C215.666 76.9629 215.441 76.9291 215.227 76.8622C215.012 76.7968 214.825 76.685 214.661 76.5317C214.499 76.3769 214.37 76.183 214.275 75.9571C214.176 75.7258 214.129 75.4488 214.129 75.1251V53.0636H208.061C207.913 53.0636 207.785 53.0238 207.682 52.9427C207.581 52.8607 207.487 52.7282 207.406 52.5435C207.324 52.3592 207.265 52.1191 207.229 51.8235C207.191 51.5282 207.175 51.1516 207.175 50.6944C207.175 49.7945 207.251 49.1685 207.406 48.8242C207.562 48.4764 207.779 48.3017 208.06 48.3017L217.983 48.3016C218.575 48.3016 219.048 48.4764 219.402 48.8242C219.758 49.1685 219.935 49.6886 219.935 50.3836L219.935 58.821ZM229.017 67.9484C229.017 67.2245 228.917 66.5822 228.719 66.0213C228.518 65.4593 228.205 64.9791 227.777 64.5803C227.347 64.183 226.798 63.876 226.128 63.6615C225.454 63.4497 224.446 63.3413 223.102 63.3413L219.935 63.3411V72.442H223.213C224.601 72.442 225.639 72.3091 226.326 72.034C227.013 71.7614 227.548 71.4058 227.932 70.9708C228.315 70.5351 228.594 70.0524 228.762 69.521C228.932 68.9875 229.017 68.4641 229.017 67.9484Z" fill="white"/>
<path fill-rule="evenodd" clip-rule="evenodd" d="M41.8213 44.7524V50.9316H42.8042V45.5695H44.5785V50.9316H45.5614V44.7524H41.8213Z" fill="white"/>
<path fill-rule="evenodd" clip-rule="evenodd" d="M49.3207 53.3828H50.29V50.32H50.3156C50.4814 50.6645 50.8131 51.0348 51.3998 51.0348C52.3693 51.0346 53.3131 50.1287 53.3131 47.8316C53.3133 45.8024 52.6116 44.6668 51.5273 44.6668C51.0426 44.6667 50.5579 44.8965 50.2135 45.5473L50.1881 45.5471L50.1371 44.756H49.2695C49.2824 45.1898 49.3206 45.7386 49.3206 46.6831L49.3207 53.3828ZM50.29 47.0913C50.29 46.9255 50.3029 46.7596 50.3283 46.6193C50.3794 46.0577 50.7875 45.509 51.234 45.509C52.0249 45.509 52.331 46.581 52.331 47.8572C52.3311 49.0949 52.0631 50.2181 51.2467 50.2181C50.9789 50.2179 50.5325 50.0649 50.341 49.1843C50.3029 49.0311 50.29 48.8525 50.29 48.6739V47.0913Z" fill="white"/>
<path fill-rule="evenodd" clip-rule="evenodd" d="M56.8145 44.7524V50.9316H57.8226C58.2821 49.9357 58.8435 48.5314 59.0478 48.0208C59.3158 47.3441 59.5711 46.6546 59.788 45.8759H59.8262C59.7624 46.8333 59.7241 47.5611 59.7241 48.9016L59.7243 50.9316H60.6304V44.7524H59.5965L58.5628 47.4206C58.2821 48.1357 57.9247 49.0165 57.6439 49.8336H57.6185C57.695 48.8633 57.7077 47.9441 57.7077 46.8716V44.7524H56.8145Z" fill="white"/>
<path fill-rule="evenodd" clip-rule="evenodd" d="M64.3782 53.3828H65.3476V50.32H65.3732C65.539 50.6645 65.8707 51.0348 66.4575 51.0348C67.4269 51.0346 68.3708 50.1287 68.3708 47.8316C68.3708 45.8024 67.6692 44.6668 66.585 44.6668C66.1002 44.6667 65.6155 44.8965 65.2712 45.5473L65.2456 45.5471L65.1945 44.756H64.3271C64.34 45.1898 64.3782 45.7386 64.3782 46.6831V53.3828ZM65.3476 47.0913C65.3476 46.9255 65.3603 46.7596 65.3859 46.6193C65.437 46.0577 65.8451 45.509 66.2916 45.509C67.0824 45.509 67.3886 46.581 67.3886 47.8572C67.3886 49.0949 67.1207 50.2181 66.3044 50.2181C66.0365 50.2179 65.5901 50.0649 65.3987 49.1843C65.3603 49.0311 65.3476 48.8525 65.3476 48.6739V47.0913Z" fill="white"/>
<path fill-rule="evenodd" clip-rule="evenodd" d="M73.6824 44.6677C72.6213 44.6677 71.6113 45.6115 71.6113 47.8559C71.6115 50.0238 72.5062 51.0312 73.6185 51.0312C74.5771 51.0311 75.6766 50.2278 75.6766 47.843C75.6766 45.7006 74.7944 44.6679 73.6824 44.6679V44.6677ZM73.644 45.4455C74.5132 45.4455 74.6922 46.8995 74.6922 47.843C74.6922 48.8122 74.5132 50.2533 73.6695 50.2533C72.7747 50.2533 72.5958 48.8632 72.5958 47.843C72.5958 46.8995 72.762 45.4457 73.644 45.4457V45.4455Z" fill="white"/>
<path fill-rule="evenodd" clip-rule="evenodd" d="M79.7027 44.753V46.5533C79.7027 47.3961 79.6135 48.1494 79.4222 48.8517C79.2948 49.3113 79.1034 49.771 78.8485 50.167L78.4404 50.1797L78.4914 52.5801H79.2437L79.3075 50.933H82.4951L82.559 52.5801H83.3113L83.3621 50.1797L82.8395 50.1668V44.753H79.7027ZM80.5699 45.5446H81.8704V50.1541H79.8176C80.0343 49.771 80.1872 49.3496 80.3021 48.9028C80.5189 48.1493 80.5699 47.3068 80.5699 46.4513V45.5446Z" fill="white"/>
<path fill-rule="evenodd" clip-rule="evenodd" d="M86.7568 44.7524V50.9316H87.7405V48.2122H89.5674V50.9316H90.5511V44.7524H89.5674V47.3695H87.7405V44.7524H86.7568Z" fill="white"/>
<path fill-rule="evenodd" clip-rule="evenodd" d="M97.5761 46.8482C97.5761 45.471 97.0529 44.6677 95.8151 44.6677C95.2026 44.6675 94.6412 44.8845 94.3733 45.0757L94.5902 45.7642C94.8836 45.5603 95.2281 45.4455 95.611 45.4455C96.3766 45.4454 96.5936 46.0066 96.5936 46.8356V47.0268C95.2026 47.0395 93.9648 47.7155 93.9648 49.2713C93.9648 50.3426 94.6029 51.0312 95.4196 51.0312C95.9555 51.0311 96.3894 50.7506 96.6573 50.2788L96.6957 50.2787L96.7594 50.9292H97.6399C97.5888 50.5338 97.5761 49.9981 97.5761 49.5264V46.8482ZM96.6192 48.9779C96.6192 49.0927 96.6063 49.2203 96.5807 49.3351C96.4659 49.9473 96.1087 50.266 95.6748 50.266C95.3302 50.266 94.9219 49.9854 94.9219 49.1693C94.9219 47.8301 96.1087 47.7282 96.619 47.7282L96.6192 48.9779Z" fill="white"/>
<path fill-rule="evenodd" clip-rule="evenodd" d="M104.839 44.8041C104.494 44.7147 104.022 44.6765 103.512 44.6765C102.836 44.6765 102.172 44.8424 101.803 45.136C101.407 45.4422 101.178 45.8381 101.178 46.4253C101.178 47.319 101.815 47.7913 102.542 47.9444V47.97C102.211 48.0209 101.943 48.1998 101.777 48.3784C101.356 48.8508 101.241 49.6934 101.076 50.2933C100.999 50.5613 100.91 50.7401 100.795 50.9316H101.828C101.892 50.8039 101.943 50.6507 101.994 50.472C102.198 49.7187 102.275 48.9529 102.683 48.5827C102.861 48.4168 103.142 48.2892 103.588 48.2892H103.882V50.9316H104.839V44.8041ZM103.882 47.6252C103.831 47.6252 103.627 47.6252 103.499 47.6252C102.836 47.6252 102.16 47.2041 102.16 46.4637C102.16 45.6721 102.772 45.353 103.461 45.353C103.614 45.3528 103.754 45.3659 103.882 45.3913V47.6252Z" fill="white"/>
<path fill-rule="evenodd" clip-rule="evenodd" d="M113.002 44.7524V50.9316H113.985V45.5695H115.759V50.9316H116.742V44.7524H113.002Z" fill="white"/>
<path fill-rule="evenodd" clip-rule="evenodd" d="M120.504 44.7524V50.9316H121.512C121.972 49.9357 122.533 48.5314 122.737 48.0208C123.005 47.3441 123.26 46.6546 123.477 45.8759H123.516C123.452 46.8333 123.414 47.5611 123.414 48.9016V50.9316H124.32V44.7524H123.286L122.252 47.4206C121.972 48.1357 121.614 49.0165 121.333 49.8336H121.308C121.384 48.8633 121.397 47.9441 121.397 46.8716V44.7524H120.504Z" fill="white"/>
<path fill-rule="evenodd" clip-rule="evenodd" d="M127.474 44.7524V45.5695H128.875V50.9316H129.856V45.5695H131.257V44.7524H127.474Z" fill="white"/>
<path fill-rule="evenodd" clip-rule="evenodd" d="M134.391 44.7538V50.8959C134.786 50.9595 135.232 50.998 135.653 50.998C136.392 50.998 137.106 50.8193 137.616 50.3979C138.036 50.0658 138.304 49.5551 138.304 48.8911C138.304 47.499 137.208 46.8991 135.946 46.8991C135.78 46.8991 135.602 46.9245 135.359 46.9374V44.7538H134.391ZM135.359 47.6907C135.487 47.6779 135.602 47.6652 135.767 47.6652C136.583 47.665 137.297 48.0355 137.297 48.9295C137.297 49.8232 136.609 50.2319 135.793 50.2319C135.64 50.2318 135.512 50.2192 135.359 50.2063V47.6907Z" fill="white"/>
<path fill-rule="evenodd" clip-rule="evenodd" d="M145.282 47.9325C145.295 47.7794 145.307 47.6135 145.307 47.3712C145.308 45.9929 144.798 44.666 143.549 44.666C142.313 44.6658 141.459 45.9165 141.459 47.9071C141.459 49.7955 142.224 51.0078 143.702 51.0078C144.199 51.0078 144.721 50.893 145.065 50.7144L144.9 49.9997C144.658 50.1272 144.313 50.2295 143.88 50.2295C143.179 50.2293 142.427 49.8338 142.427 47.9325H145.282ZM142.44 47.2051C142.479 46.3629 142.797 45.4316 143.447 45.4316C143.918 45.4316 144.377 45.9802 144.364 47.2053L142.44 47.2051Z" fill="white"/>
<path fill-rule="evenodd" clip-rule="evenodd" d="M148.765 50.9556C149.007 50.9812 149.467 51.0195 150.029 51.0195C151.216 51.0194 152.711 50.6624 152.711 49.2209C152.711 48.3789 152.123 47.8304 151.229 47.6773L151.229 47.6517C151.932 47.4733 152.455 46.9246 152.455 46.1976C152.455 44.96 151.178 44.6668 150.157 44.6668C149.671 44.6667 149.173 44.7177 148.765 44.7943L148.765 50.9556ZM149.735 45.4322C149.888 45.4066 150.054 45.3812 150.233 45.3812C150.923 45.381 151.51 45.6235 151.51 46.3251C151.51 46.9885 150.77 47.3712 150.169 47.3712L149.735 47.3711V45.4322ZM149.722 48.0727H150.144C150.91 48.0727 151.727 48.3918 151.727 49.2082C151.727 50.05 150.974 50.3179 150.22 50.3179C150.029 50.3179 149.837 50.2925 149.722 50.2798V48.0727Z" fill="white"/>
<path fill-rule="evenodd" clip-rule="evenodd" d="M159.444 46.8482C159.444 45.471 158.921 44.6677 157.683 44.6677C157.071 44.6675 156.509 44.8845 156.241 45.0757L156.458 45.7642C156.752 45.5603 157.096 45.4455 157.479 45.4455C158.245 45.4454 158.462 46.0066 158.462 46.8356V47.0268C157.071 47.0395 155.833 47.7155 155.833 49.2713C155.833 50.3426 156.471 51.0312 157.288 51.0312C157.824 51.0311 158.257 50.7506 158.525 50.2788L158.564 50.2787L158.627 50.9292H159.508C159.457 50.5338 159.444 49.9981 159.444 49.5264V46.8482ZM158.487 48.9779C158.487 49.0927 158.474 49.2203 158.449 49.3351C158.334 49.9473 157.977 50.266 157.543 50.266C157.198 50.266 156.79 49.9854 156.79 49.1693C156.79 47.8301 157.977 47.7282 158.487 47.7282L158.487 48.9779Z" fill="white"/>
<path fill-rule="evenodd" clip-rule="evenodd" d="M166.708 44.8041C166.363 44.7147 165.891 44.6765 165.381 44.6765C164.705 44.6765 164.042 44.8424 163.672 45.136C163.276 45.4422 163.047 45.8381 163.047 46.4253C163.047 47.319 163.684 47.7913 164.412 47.9444V47.97C164.08 48.0209 163.812 48.1998 163.646 48.3784C163.225 48.8508 163.111 49.6934 162.945 50.2933C162.868 50.5613 162.779 50.7401 162.664 50.9316H163.697C163.761 50.8039 163.812 50.6507 163.863 50.472C164.067 49.7187 164.144 48.9529 164.552 48.5827C164.731 48.4168 165.011 48.2892 165.458 48.2892H165.751V50.9316H166.708V44.8041ZM165.751 47.6252C165.7 47.6252 165.496 47.6252 165.368 47.6252C164.705 47.6252 164.029 47.2041 164.029 46.4637C164.029 45.6721 164.641 45.353 165.33 45.353C165.483 45.3528 165.623 45.3659 165.751 45.3913V47.6252Z" fill="white"/>
<path fill-rule="evenodd" clip-rule="evenodd" d="M174.87 50.9556C175.113 50.9812 175.573 51.0195 176.134 51.0195C177.322 51.0194 178.816 50.6624 178.816 49.2209C178.816 48.3789 178.229 47.8304 177.335 47.6773V47.6517C178.037 47.4733 178.561 46.9246 178.561 46.1976C178.561 44.96 177.284 44.6668 176.262 44.6668C175.777 44.6667 175.279 44.7177 174.87 44.7943L174.87 50.9556H174.87ZM175.841 45.4322C175.994 45.4066 176.16 45.3812 176.339 45.3812C177.028 45.381 177.616 45.6235 177.616 46.3251C177.616 46.9885 176.875 47.3712 176.275 47.3712L175.841 47.3711V45.4322ZM175.828 48.0727H176.249C177.016 48.0727 177.833 48.3918 177.833 49.2082C177.833 50.05 177.079 50.3179 176.326 50.3179C176.134 50.3179 175.943 50.2925 175.828 50.2798V48.0727Z" fill="white"/>
<path fill-rule="evenodd" clip-rule="evenodd" d="M184.058 44.6677C182.999 44.6677 181.992 45.6115 181.992 47.8559C181.992 50.0238 182.885 51.0312 183.994 51.0312C184.95 51.0311 186.047 50.2278 186.047 47.843C186.047 45.7006 185.167 44.6679 184.058 44.6679V44.6677ZM184.02 45.4455C184.886 45.4455 185.065 46.8995 185.065 47.843C185.065 48.8122 184.886 50.2533 184.045 50.2533C183.153 50.2533 182.974 48.8632 182.974 47.843C182.974 46.8995 183.14 45.4457 184.019 45.4457L184.02 45.4455Z" fill="white"/>
<path fill-rule="evenodd" clip-rule="evenodd" d="M190.077 44.753V46.5533C190.077 47.3961 189.987 48.1494 189.795 48.8517C189.668 49.3113 189.476 49.771 189.22 50.167L188.812 50.1797L188.863 52.5801H189.617L189.681 50.933H192.875L192.939 52.5801H193.693L193.744 50.1797L193.22 50.1668V44.753H190.077ZM190.945 45.5446H192.249V50.1541H190.192C190.409 49.771 190.562 49.3496 190.677 48.9028C190.895 48.1493 190.945 47.3068 190.945 46.4513V45.5446Z" fill="white"/>
<path fill-rule="evenodd" clip-rule="evenodd" d="M200.433 46.8482C200.433 45.471 199.91 44.6677 198.672 44.6677C198.06 44.6675 197.499 44.8845 197.231 45.0757L197.448 45.7642C197.741 45.5603 198.085 45.4455 198.468 45.4455C199.234 45.4454 199.451 46.0066 199.451 46.8356V47.0268C198.06 47.0395 196.822 47.7155 196.822 49.2713C196.822 50.3426 197.46 51.0312 198.277 51.0312C198.813 51.0311 199.247 50.7506 199.515 50.2788L199.553 50.2787L199.617 50.9292H200.497C200.446 50.5338 200.433 49.9981 200.433 49.5264V46.8482ZM199.476 48.9779C199.476 49.0927 199.464 49.2203 199.438 49.3351C199.323 49.9473 198.966 50.266 198.532 50.266C198.188 50.266 197.779 49.9854 197.779 49.1693C197.779 47.8301 198.966 47.7282 199.476 47.7282L199.476 48.9779Z" fill="white"/>
</svg>
