<svg width="250" height="130" viewBox="0 0 250 130" fill="none" xmlns="http://www.w3.org/2000/svg">
<g clip-path="url(#clip0_1909_1870)">
<path fill-rule="evenodd" clip-rule="evenodd" d="M88.7757 83.0121C88.1285 82.0691 87.1792 81.5547 85.9279 81.5547H82.6484V106.887H85.9279C87.1792 106.887 88.1285 106.416 88.7757 105.43C89.2936 104.658 89.5956 103.458 89.7682 101.829C89.8976 100.201 89.984 97.6291 89.984 94.1571C89.984 90.7279 89.8976 88.1984 89.7682 86.57C89.5956 84.9838 89.2936 83.7837 88.7757 83.0121Z" fill="white"/>
<path fill-rule="evenodd" clip-rule="evenodd" d="M132.487 25.7031L129.467 40.4055H135.551L132.487 25.7031Z" fill="white"/>
<path fill-rule="evenodd" clip-rule="evenodd" d="M173.047 5H77.0388C70.4369 5 65 10.4009 65 16.9591V112.332C65 118.89 70.3937 124.248 76.9957 124.248H173.004C179.606 124.248 185 118.89 185 112.332V16.9591C185.043 10.4009 179.649 5 173.047 5ZM129.811 17.2162H135.205L143.792 52.322H137.966L136.542 45.378H128.344L126.963 52.322H121.095L129.811 17.2162ZM101.418 17.2162H106.985V47.3497H116.262V52.322H101.418V17.2162ZM89.1639 38.9484C88.7324 38.2626 87.8694 37.6196 86.4454 37.0623L82.2168 35.3478C80.4045 34.5762 79.11 33.5904 78.3765 32.3473C77.6429 31.1042 77.2977 29.1753 77.2977 26.5177C77.2977 23.2601 78.247 20.774 80.1887 19.0594C81.8285 17.6449 83.8134 16.9591 86.2298 16.9591C88.9914 16.9591 91.1057 17.6449 92.5727 19.0594C94.2125 20.6883 95.0754 23.2173 95.0754 26.6892H89.5522C89.5522 24.9318 89.2502 23.6459 88.6893 22.96C88.1714 22.2742 87.3516 21.9313 86.1866 21.9313C85.1942 21.9313 84.4174 22.2742 83.8134 22.9172C83.1661 23.6459 82.8641 24.8032 82.8641 26.3892C82.8641 27.8466 83.0366 28.8753 83.425 29.4754C83.7702 30.0755 84.59 30.6327 85.7982 31.1471L89.9838 32.8188C92.055 33.6761 93.4789 34.7905 94.2125 36.1622C94.946 37.5338 95.3343 39.7199 95.3343 42.6775C95.3343 46.3638 94.5577 48.9357 93.0474 50.436C91.4077 51.979 89.1208 52.7506 86.1434 52.7506C83.123 52.7506 80.836 51.979 79.2826 50.436C77.7723 48.9357 76.9957 46.4067 76.9957 42.8919H82.562C82.562 44.7779 82.9072 46.0638 83.5544 46.8353C84.1154 47.4783 84.9784 47.7783 86.1434 47.7783C87.3516 47.7783 88.2578 47.4354 88.8187 46.7925C89.466 46.0638 89.768 44.7779 89.768 42.8919C89.768 40.963 89.5954 39.6771 89.1639 38.9484ZM95.1186 104.059C94.8166 106.116 94.083 107.788 92.9611 108.988C91.2351 110.96 88.9482 111.903 86.0571 111.903H76.9957V76.5402H86.0571C88.905 76.5402 91.2351 77.526 92.9611 79.4549C94.083 80.698 94.8166 82.3268 95.1186 84.3414C95.4206 86.3989 95.5501 89.6564 95.5501 94.1576C95.5933 98.7009 95.4206 102.001 95.1186 104.059ZM120.491 103.244C120.491 105.902 119.671 108.045 118.031 109.76C116.348 111.474 114.148 112.332 111.429 112.332C108.711 112.332 106.467 111.474 104.784 109.76C103.144 108.088 102.325 105.902 102.325 103.244V76.583H107.934V103.545C107.934 104.788 108.279 105.688 108.927 106.331C109.574 106.974 110.437 107.316 111.429 107.316C112.422 107.316 113.242 106.974 113.889 106.331C114.536 105.688 114.881 104.745 114.881 103.545V76.583H120.491V103.244ZM146.165 111.946H141.203L132.788 90.9422V111.946H127.179V76.583H132.184L140.555 97.5867V76.583H146.165V111.946ZM167.006 111.946L161.267 97.3722L158.549 102.816V111.903H152.939V76.5402H158.549V93.1714L166.316 76.5402H171.969L164.806 91.1997L173.047 111.903H167.006V111.946ZM173.047 67.6244H77.0388V61.6663H173.047V67.6244ZM173.047 52.3648H167.481V30.4613L162.648 44.8636H159.585L154.881 30.7185V52.3648H149.315V17.2162H154.32L161.181 35.6478L167.998 17.2162H173.047V52.3648Z" fill="white"/>
</g>
<defs>
<clipPath id="clip0_1909_1870">
<rect width="120" height="120" fill="white" transform="translate(65 5)"/>
</clipPath>
</defs>
</svg>
