<svg width="100" height="100" viewBox="0 0 100 100" fill="none" xmlns="http://www.w3.org/2000/svg">
<path d="M65 27H35C30.5817 27 27 30.5817 27 35V65C27 69.4183 30.5817 73 35 73H65C69.4183 73 73 69.4183 73 65V35C73 30.5817 69.4183 27 65 27Z" stroke="white" stroke-width="4"/>
<path d="M61 50C61 43.9249 56.0751 39 50 39C43.9249 39 39 43.9249 39 50C39 56.0751 43.9249 61 50 61C56.0751 61 61 56.0751 61 50Z" stroke="white" stroke-width="4"/>
<path d="M68 36.5C68 34.567 66.433 33 64.5 33C62.567 33 61 34.567 61 36.5C61 38.433 62.567 40 64.5 40C66.433 40 68 38.433 68 36.5Z" fill="white"/>
</svg>
