<svg width="100" height="100" viewBox="0 0 100 100" fill="none" xmlns="http://www.w3.org/2000/svg">
<path d="M53.9233 72.8119C53.9233 72.8119 55.3671 72.6537 56.1067 71.8706C56.7836 71.153 56.7601 69.7989 56.7601 69.7989C56.7601 69.7989 56.6701 63.4757 59.6478 62.5421C62.5824 61.6239 66.3504 68.6569 70.3493 71.3613C73.37 73.406 75.6629 72.9585 75.6629 72.9585L86.3487 72.8119C86.3487 72.8119 91.9362 72.4724 89.2872 68.1399C89.0681 67.785 87.7417 64.934 81.3442 59.0776C74.6416 52.9474 75.5416 53.9389 83.6098 43.3334C88.5242 36.8752 90.4885 32.9324 89.8742 31.2465C89.2911 29.6338 85.6757 30.0621 85.6757 30.0621L73.6478 30.1354C73.6478 30.1354 72.7556 30.0158 72.0944 30.4054C71.4488 30.7874 71.0301 31.6786 71.0301 31.6786C71.0301 31.6786 69.1285 36.6746 66.5891 40.926C61.2324 49.8919 59.0921 50.3664 58.2157 49.8109C56.1771 48.5107 56.6858 44.5949 56.6858 41.8134C56.6858 33.1214 58.0239 29.4988 54.0837 28.5613C52.7769 28.2488 51.8143 28.0444 48.4689 28.0097C44.1765 27.9672 40.5454 28.0251 38.4873 29.0166C37.1178 29.6763 36.0614 31.15 36.707 31.2349C37.5013 31.3391 39.3012 31.7133 40.2559 32.9941C41.4884 34.6492 41.4454 38.3605 41.4454 38.3605C41.4454 38.3605 42.1536 48.5918 39.7903 49.861C38.1704 50.7329 35.9479 48.9544 31.1704 40.818C28.7249 36.6514 26.878 32.0451 26.878 32.0451C26.878 32.0451 26.522 31.1847 25.8842 30.7218C25.1134 30.1624 24.0373 29.9888 24.0373 29.9888L12.608 30.0621C12.608 30.0621 10.8903 30.1084 10.2604 30.8452C9.70082 31.4972 10.2173 32.8514 10.2173 32.8514C10.2173 32.8514 19.1659 53.4952 29.3001 63.9001C38.593 73.4369 49.1419 72.8119 49.1419 72.8119H53.9233Z" fill="url(#paint0_linear_502_1274)"/>
<defs>
<linearGradient id="paint0_linear_502_1274" x1="50" y1="28" x2="50" y2="73" gradientUnits="userSpaceOnUse">
<stop stop-color="#EDF1F2"/>
<stop offset="0.0409222" stop-color="#DAE7E8"/>
<stop offset="0.280405" stop-color="#DAE7E8"/>
<stop offset="0.280505" stop-color="#DAE7E8"/>
<stop offset="1" stop-color="#ABCFCD"/>
</linearGradient>
</defs>
</svg>
