<svg width="48" height="48" viewBox="0 0 48 48" fill="none" xmlns="http://www.w3.org/2000/svg">
<g clip-path="url(#clip0_893_1098)">
<path d="M0 24C0 10.7452 10.7452 0 24 0C37.2548 0 48 10.7452 48 24C48 37.2548 37.2548 48 24 48C10.7452 48 0 37.2548 0 24Z" fill="#A80D1C"/>
<path fill-rule="evenodd" clip-rule="evenodd" d="M20.3719 17.5919C20.0955 16.9775 19.8046 16.9652 19.5417 16.9545C19.3267 16.9452 19.0805 16.9458 18.8347 16.9458C18.5887 16.9458 18.189 17.0382 17.851 17.4074C17.5128 17.7766 16.5596 18.669 16.5596 20.484C16.5596 22.2993 17.8817 24.0532 18.066 24.2996C18.2505 24.5455 20.6182 28.3893 24.368 29.8681C27.4844 31.097 28.1186 30.8525 28.7951 30.791C29.4715 30.7295 30.9777 29.8988 31.2852 29.0373C31.5926 28.176 31.5926 27.4377 31.5004 27.2834C31.4082 27.1296 31.1622 27.0374 30.7932 26.8529C30.4243 26.6684 28.6106 25.7758 28.2724 25.6528C27.9341 25.5298 27.6882 25.4683 27.4422 25.8377C27.1962 26.2066 26.4896 27.0374 26.2744 27.2834C26.0591 27.5299 25.8439 27.5606 25.4749 27.3762C25.106 27.1911 23.9178 26.802 22.5082 25.5452C21.4115 24.5674 20.6711 23.3598 20.4558 22.9905C20.2406 22.6215 20.4328 22.4216 20.6178 22.2377C20.7835 22.0725 20.9868 21.8071 21.1713 21.5916C21.3554 21.3762 21.4169 21.2225 21.5399 20.9765C21.6629 20.7301 21.6014 20.5147 21.5091 20.3303C21.4169 20.1458 20.6999 18.3214 20.3719 17.5919Z" fill="white"/>
<path d="M34.506 13.3316C31.7182 10.5418 28.0113 9.00468 24.0618 9.00293C15.9232 9.00293 9.30007 15.6239 9.29679 23.7621C9.29583 26.3635 9.97554 28.9029 11.2675 31.1413L9.17285 38.7896L17 36.7372C19.1565 37.9133 21.5846 38.533 24.0555 38.534H24.0617H24.0618C32.199 38.534 38.8231 31.9118 38.8266 23.774C38.8279 19.83 37.2935 16.1215 34.506 13.3316ZM24.0618 36.0412H24.057C21.8546 36.04 19.6948 35.4487 17.8109 34.3309L17.3626 34.0651L12.7178 35.2829L13.9579 30.756L13.6658 30.2919C12.4373 28.3385 11.7887 26.081 11.7897 23.7631C11.7924 16.9989 17.2972 11.496 24.0664 11.496C27.3445 11.4973 30.4253 12.775 32.7425 15.0938C35.0595 17.4125 36.3345 20.4949 36.3336 23.7731C36.3307 30.5375 30.8256 36.0412 24.0618 36.0412Z" fill="white"/>
</g>
<defs>
<clipPath id="clip0_893_1098">
<rect width="48" height="48" fill="white"/>
</clipPath>
</defs>
</svg>
